%TF.GenerationSoftware,KiCad,Pcbnew,8.0.1*%
%TF.CreationDate,2024-05-07T00:04:45+05:00*%
%TF.ProjectId,PowerBoard,506f7765-7242-46f6-9172-642e6b696361,rev?*%
%TF.SameCoordinates,Original*%
%TF.FileFunction,Paste,Bot*%
%TF.FilePolarity,Positive*%
%FSLAX46Y46*%
G04 Gerber Fmt 4.6, Leading zero omitted, Abs format (unit mm)*
G04 Created by KiCad (PCBNEW 8.0.1) date 2024-05-07 00:04:45*
%MOMM*%
%LPD*%
G01*
G04 APERTURE LIST*
G04 Aperture macros list*
%AMRoundRect*
0 Rectangle with rounded corners*
0 $1 Rounding radius*
0 $2 $3 $4 $5 $6 $7 $8 $9 X,Y pos of 4 corners*
0 Add a 4 corners polygon primitive as box body*
4,1,4,$2,$3,$4,$5,$6,$7,$8,$9,$2,$3,0*
0 Add four circle primitives for the rounded corners*
1,1,$1+$1,$2,$3*
1,1,$1+$1,$4,$5*
1,1,$1+$1,$6,$7*
1,1,$1+$1,$8,$9*
0 Add four rect primitives between the rounded corners*
20,1,$1+$1,$2,$3,$4,$5,0*
20,1,$1+$1,$4,$5,$6,$7,0*
20,1,$1+$1,$6,$7,$8,$9,0*
20,1,$1+$1,$8,$9,$2,$3,0*%
G04 Aperture macros list end*
%ADD10RoundRect,0.079500X-0.100500X0.079500X-0.100500X-0.079500X0.100500X-0.079500X0.100500X0.079500X0*%
%ADD11RoundRect,0.079500X0.100500X-0.079500X0.100500X0.079500X-0.100500X0.079500X-0.100500X-0.079500X0*%
%ADD12RoundRect,0.250000X0.325000X1.100000X-0.325000X1.100000X-0.325000X-1.100000X0.325000X-1.100000X0*%
%ADD13R,5.511800X2.717800*%
%ADD14R,0.700000X2.600000*%
%ADD15C,1.000000*%
%ADD16R,10.000000X5.000000*%
%ADD17RoundRect,0.200000X0.275000X-0.200000X0.275000X0.200000X-0.275000X0.200000X-0.275000X-0.200000X0*%
G04 APERTURE END LIST*
D10*
%TO.C,R29*%
X233100000Y-147150000D03*
X233100000Y-147840000D03*
%TD*%
D11*
%TO.C,R30*%
X222100000Y-145495000D03*
X222100000Y-144805000D03*
%TD*%
D12*
%TO.C,C1*%
X247950000Y-109019807D03*
X245000000Y-109019807D03*
%TD*%
%TO.C,C16*%
X337465508Y-118919807D03*
X334515508Y-118919807D03*
%TD*%
D13*
%TO.C,R18*%
X326550000Y-150151000D03*
X326550000Y-142150000D03*
%TD*%
D10*
%TO.C,R37*%
X267600000Y-147150000D03*
X267600000Y-147840000D03*
%TD*%
D12*
%TO.C,C18*%
X337465508Y-125519807D03*
X334515508Y-125519807D03*
%TD*%
D13*
%TO.C,R17*%
X260400000Y-150401000D03*
X260400000Y-142400000D03*
%TD*%
D10*
%TO.C,R39*%
X278350000Y-147150000D03*
X278350000Y-147840000D03*
%TD*%
D12*
%TO.C,C13*%
X292707332Y-118919807D03*
X289757332Y-118919807D03*
%TD*%
%TO.C,C11*%
X248000000Y-122219807D03*
X245050000Y-122219807D03*
%TD*%
D14*
%TO.C,Q5*%
X267732332Y-119130000D03*
X268932332Y-119130000D03*
X270132332Y-119130000D03*
X271332332Y-119130000D03*
X272532332Y-119130000D03*
X273732332Y-119130000D03*
X274932332Y-119130000D03*
X276132332Y-119130000D03*
D15*
X267732332Y-113950000D03*
X268932332Y-113950000D03*
X270132332Y-113950000D03*
X271332332Y-113950000D03*
X272532332Y-113950000D03*
X273732332Y-113950000D03*
X274932332Y-113950000D03*
X276132332Y-113950000D03*
X267732332Y-112750000D03*
X268932332Y-112750000D03*
X270132332Y-112750000D03*
X271332332Y-112750000D03*
X272532332Y-112750000D03*
X273732332Y-112750000D03*
X274932332Y-112750000D03*
X276132332Y-112750000D03*
X268932332Y-111550000D03*
X270132332Y-111550000D03*
X271332332Y-111550000D03*
X272532332Y-111550000D03*
X273732332Y-111550000D03*
X274932332Y-111550000D03*
X268932332Y-110350000D03*
X270132332Y-110350000D03*
X271332332Y-110350000D03*
X272532332Y-110350000D03*
X273732332Y-110350000D03*
X274932332Y-110350000D03*
X268932332Y-109150000D03*
X270132332Y-109150000D03*
X271332332Y-109150000D03*
X272532332Y-109150000D03*
X273732332Y-109150000D03*
X274932332Y-109150000D03*
X267732332Y-107950000D03*
X268932332Y-107950000D03*
X270132332Y-107950000D03*
X271332332Y-107950000D03*
X272532332Y-107950000D03*
X273732332Y-107950000D03*
X274932332Y-107950000D03*
X276132332Y-107950000D03*
%TD*%
D11*
%TO.C,R32*%
X211350000Y-145495000D03*
X211350000Y-144805000D03*
%TD*%
D14*
%TO.C,Q8*%
X312047332Y-119018057D03*
X313247332Y-119018057D03*
X314447332Y-119018057D03*
X315647332Y-119018057D03*
X316847332Y-119018057D03*
X318047332Y-119018057D03*
X319247332Y-119018057D03*
X320447332Y-119018057D03*
D15*
X312047332Y-113838057D03*
X313247332Y-113838057D03*
X314447332Y-113838057D03*
X315647332Y-113838057D03*
X316847332Y-113838057D03*
X318047332Y-113838057D03*
X319247332Y-113838057D03*
X320447332Y-113838057D03*
X312047332Y-112638057D03*
X313247332Y-112638057D03*
X314447332Y-112638057D03*
X315647332Y-112638057D03*
X316847332Y-112638057D03*
X318047332Y-112638057D03*
X319247332Y-112638057D03*
X320447332Y-112638057D03*
X313247332Y-111438057D03*
X314447332Y-111438057D03*
X315647332Y-111438057D03*
X316847332Y-111438057D03*
X318047332Y-111438057D03*
X319247332Y-111438057D03*
X313247332Y-110238057D03*
X314447332Y-110238057D03*
X315647332Y-110238057D03*
X316847332Y-110238057D03*
X318047332Y-110238057D03*
X319247332Y-110238057D03*
X313247332Y-109038057D03*
X314447332Y-109038057D03*
X315647332Y-109038057D03*
X316847332Y-109038057D03*
X318047332Y-109038057D03*
X319247332Y-109038057D03*
X312047332Y-107838057D03*
X313247332Y-107838057D03*
X314447332Y-107838057D03*
X315647332Y-107838057D03*
X316847332Y-107838057D03*
X318047332Y-107838057D03*
X319247332Y-107838057D03*
X320447332Y-107838057D03*
%TD*%
D13*
%TO.C,R10*%
X236925000Y-150430500D03*
X236925000Y-142429500D03*
%TD*%
%TO.C,R11*%
X282050000Y-150351000D03*
X282050000Y-142350000D03*
%TD*%
D10*
%TO.C,R43*%
X312100000Y-147150000D03*
X312100000Y-147840000D03*
%TD*%
D16*
%TO.C,J1*%
X332850000Y-104100000D03*
%TD*%
D12*
%TO.C,C14*%
X292707332Y-122219807D03*
X289757332Y-122219807D03*
%TD*%
D14*
%TO.C,Q13*%
X278532332Y-138898057D03*
X279732332Y-138898057D03*
X280932332Y-138898057D03*
X282132332Y-138898057D03*
X283332332Y-138898057D03*
X284532332Y-138898057D03*
X285732332Y-138898057D03*
X286932332Y-138898057D03*
D15*
X278532332Y-133718057D03*
X279732332Y-133718057D03*
X280932332Y-133718057D03*
X282132332Y-133718057D03*
X283332332Y-133718057D03*
X284532332Y-133718057D03*
X285732332Y-133718057D03*
X286932332Y-133718057D03*
X278532332Y-132518057D03*
X279732332Y-132518057D03*
X280932332Y-132518057D03*
X282132332Y-132518057D03*
X283332332Y-132518057D03*
X284532332Y-132518057D03*
X285732332Y-132518057D03*
X286932332Y-132518057D03*
X279732332Y-131318057D03*
X280932332Y-131318057D03*
X282132332Y-131318057D03*
X283332332Y-131318057D03*
X284532332Y-131318057D03*
X285732332Y-131318057D03*
X279732332Y-130118057D03*
X280932332Y-130118057D03*
X282132332Y-130118057D03*
X283332332Y-130118057D03*
X284532332Y-130118057D03*
X285732332Y-130118057D03*
X279732332Y-128918057D03*
X280932332Y-128918057D03*
X282132332Y-128918057D03*
X283332332Y-128918057D03*
X284532332Y-128918057D03*
X285732332Y-128918057D03*
X278532332Y-127718057D03*
X279732332Y-127718057D03*
X280932332Y-127718057D03*
X282132332Y-127718057D03*
X283332332Y-127718057D03*
X284532332Y-127718057D03*
X285732332Y-127718057D03*
X286932332Y-127718057D03*
%TD*%
D12*
%TO.C,C3*%
X248000000Y-115619807D03*
X245050000Y-115619807D03*
%TD*%
D13*
%TO.C,R13*%
X225825000Y-150430500D03*
X225825000Y-142429500D03*
%TD*%
D14*
%TO.C,Q17*%
X312072332Y-138688057D03*
X313272332Y-138688057D03*
X314472332Y-138688057D03*
X315672332Y-138688057D03*
X316872332Y-138688057D03*
X318072332Y-138688057D03*
X319272332Y-138688057D03*
X320472332Y-138688057D03*
D15*
X312072332Y-133508057D03*
X313272332Y-133508057D03*
X314472332Y-133508057D03*
X315672332Y-133508057D03*
X316872332Y-133508057D03*
X318072332Y-133508057D03*
X319272332Y-133508057D03*
X320472332Y-133508057D03*
X312072332Y-132308057D03*
X313272332Y-132308057D03*
X314472332Y-132308057D03*
X315672332Y-132308057D03*
X316872332Y-132308057D03*
X318072332Y-132308057D03*
X319272332Y-132308057D03*
X320472332Y-132308057D03*
X313272332Y-131108057D03*
X314472332Y-131108057D03*
X315672332Y-131108057D03*
X316872332Y-131108057D03*
X318072332Y-131108057D03*
X319272332Y-131108057D03*
X313272332Y-129908057D03*
X314472332Y-129908057D03*
X315672332Y-129908057D03*
X316872332Y-129908057D03*
X318072332Y-129908057D03*
X319272332Y-129908057D03*
X313272332Y-128708057D03*
X314472332Y-128708057D03*
X315672332Y-128708057D03*
X316872332Y-128708057D03*
X318072332Y-128708057D03*
X319272332Y-128708057D03*
X312072332Y-127508057D03*
X313272332Y-127508057D03*
X314472332Y-127508057D03*
X315672332Y-127508057D03*
X316872332Y-127508057D03*
X318072332Y-127508057D03*
X319272332Y-127508057D03*
X320472332Y-127508057D03*
%TD*%
D11*
%TO.C,R36*%
X267600000Y-145495000D03*
X267600000Y-144805000D03*
%TD*%
D12*
%TO.C,C17*%
X337465508Y-122219807D03*
X334515508Y-122219807D03*
%TD*%
D14*
%TO.C,Q18*%
X301272332Y-138688057D03*
X302472332Y-138688057D03*
X303672332Y-138688057D03*
X304872332Y-138688057D03*
X306072332Y-138688057D03*
X307272332Y-138688057D03*
X308472332Y-138688057D03*
X309672332Y-138688057D03*
D15*
X301272332Y-133508057D03*
X302472332Y-133508057D03*
X303672332Y-133508057D03*
X304872332Y-133508057D03*
X306072332Y-133508057D03*
X307272332Y-133508057D03*
X308472332Y-133508057D03*
X309672332Y-133508057D03*
X301272332Y-132308057D03*
X302472332Y-132308057D03*
X303672332Y-132308057D03*
X304872332Y-132308057D03*
X306072332Y-132308057D03*
X307272332Y-132308057D03*
X308472332Y-132308057D03*
X309672332Y-132308057D03*
X302472332Y-131108057D03*
X303672332Y-131108057D03*
X304872332Y-131108057D03*
X306072332Y-131108057D03*
X307272332Y-131108057D03*
X308472332Y-131108057D03*
X302472332Y-129908057D03*
X303672332Y-129908057D03*
X304872332Y-129908057D03*
X306072332Y-129908057D03*
X307272332Y-129908057D03*
X308472332Y-129908057D03*
X302472332Y-128708057D03*
X303672332Y-128708057D03*
X304872332Y-128708057D03*
X306072332Y-128708057D03*
X307272332Y-128708057D03*
X308472332Y-128708057D03*
X301272332Y-127508057D03*
X302472332Y-127508057D03*
X303672332Y-127508057D03*
X304872332Y-127508057D03*
X306072332Y-127508057D03*
X307272332Y-127508057D03*
X308472332Y-127508057D03*
X309672332Y-127508057D03*
%TD*%
D12*
%TO.C,C5*%
X292707332Y-112319807D03*
X289757332Y-112319807D03*
%TD*%
%TO.C,C4*%
X292707332Y-109019807D03*
X289757332Y-109019807D03*
%TD*%
D10*
%TO.C,R41*%
X301100000Y-147150000D03*
X301100000Y-147840000D03*
%TD*%
D11*
%TO.C,R40*%
X301100000Y-145495000D03*
X301100000Y-144805000D03*
%TD*%
D16*
%TO.C,J11*%
X333400000Y-154600000D03*
%TD*%
D14*
%TO.C,Q2*%
X222925000Y-119180000D03*
X224125000Y-119180000D03*
X225325000Y-119180000D03*
X226525000Y-119180000D03*
X227725000Y-119180000D03*
X228925000Y-119180000D03*
X230125000Y-119180000D03*
X231325000Y-119180000D03*
D15*
X222925000Y-114000000D03*
X224125000Y-114000000D03*
X225325000Y-114000000D03*
X226525000Y-114000000D03*
X227725000Y-114000000D03*
X228925000Y-114000000D03*
X230125000Y-114000000D03*
X231325000Y-114000000D03*
X222925000Y-112800000D03*
X224125000Y-112800000D03*
X225325000Y-112800000D03*
X226525000Y-112800000D03*
X227725000Y-112800000D03*
X228925000Y-112800000D03*
X230125000Y-112800000D03*
X231325000Y-112800000D03*
X224125000Y-111600000D03*
X225325000Y-111600000D03*
X226525000Y-111600000D03*
X227725000Y-111600000D03*
X228925000Y-111600000D03*
X230125000Y-111600000D03*
X224125000Y-110400000D03*
X225325000Y-110400000D03*
X226525000Y-110400000D03*
X227725000Y-110400000D03*
X228925000Y-110400000D03*
X230125000Y-110400000D03*
X224125000Y-109200000D03*
X225325000Y-109200000D03*
X226525000Y-109200000D03*
X227725000Y-109200000D03*
X228925000Y-109200000D03*
X230125000Y-109200000D03*
X222925000Y-108000000D03*
X224125000Y-108000000D03*
X225325000Y-108000000D03*
X226525000Y-108000000D03*
X227725000Y-108000000D03*
X228925000Y-108000000D03*
X230125000Y-108000000D03*
X231325000Y-108000000D03*
%TD*%
D16*
%TO.C,J4*%
X316147332Y-123588057D03*
%TD*%
D10*
%TO.C,R45*%
X322850000Y-147150000D03*
X322850000Y-147840000D03*
%TD*%
D17*
%TO.C,NTC1*%
X210100000Y-120325000D03*
X210100000Y-118675000D03*
%TD*%
D12*
%TO.C,C12*%
X248000000Y-125519807D03*
X245050000Y-125519807D03*
%TD*%
%TO.C,C10*%
X248000000Y-118919807D03*
X245050000Y-118919807D03*
%TD*%
D14*
%TO.C,Q11*%
X223050000Y-139000000D03*
X224250000Y-139000000D03*
X225450000Y-139000000D03*
X226650000Y-139000000D03*
X227850000Y-139000000D03*
X229050000Y-139000000D03*
X230250000Y-139000000D03*
X231450000Y-139000000D03*
D15*
X223050000Y-133820000D03*
X224250000Y-133820000D03*
X225450000Y-133820000D03*
X226650000Y-133820000D03*
X227850000Y-133820000D03*
X229050000Y-133820000D03*
X230250000Y-133820000D03*
X231450000Y-133820000D03*
X223050000Y-132620000D03*
X224250000Y-132620000D03*
X225450000Y-132620000D03*
X226650000Y-132620000D03*
X227850000Y-132620000D03*
X229050000Y-132620000D03*
X230250000Y-132620000D03*
X231450000Y-132620000D03*
X224250000Y-131420000D03*
X225450000Y-131420000D03*
X226650000Y-131420000D03*
X227850000Y-131420000D03*
X229050000Y-131420000D03*
X230250000Y-131420000D03*
X224250000Y-130220000D03*
X225450000Y-130220000D03*
X226650000Y-130220000D03*
X227850000Y-130220000D03*
X229050000Y-130220000D03*
X230250000Y-130220000D03*
X224250000Y-129020000D03*
X225450000Y-129020000D03*
X226650000Y-129020000D03*
X227850000Y-129020000D03*
X229050000Y-129020000D03*
X230250000Y-129020000D03*
X223050000Y-127820000D03*
X224250000Y-127820000D03*
X225450000Y-127820000D03*
X226650000Y-127820000D03*
X227850000Y-127820000D03*
X229050000Y-127820000D03*
X230250000Y-127820000D03*
X231450000Y-127820000D03*
%TD*%
D11*
%TO.C,R34*%
X256600000Y-145495000D03*
X256600000Y-144805000D03*
%TD*%
D14*
%TO.C,Q15*%
X256932332Y-138898057D03*
X258132332Y-138898057D03*
X259332332Y-138898057D03*
X260532332Y-138898057D03*
X261732332Y-138898057D03*
X262932332Y-138898057D03*
X264132332Y-138898057D03*
X265332332Y-138898057D03*
D15*
X256932332Y-133718057D03*
X258132332Y-133718057D03*
X259332332Y-133718057D03*
X260532332Y-133718057D03*
X261732332Y-133718057D03*
X262932332Y-133718057D03*
X264132332Y-133718057D03*
X265332332Y-133718057D03*
X256932332Y-132518057D03*
X258132332Y-132518057D03*
X259332332Y-132518057D03*
X260532332Y-132518057D03*
X261732332Y-132518057D03*
X262932332Y-132518057D03*
X264132332Y-132518057D03*
X265332332Y-132518057D03*
X258132332Y-131318057D03*
X259332332Y-131318057D03*
X260532332Y-131318057D03*
X261732332Y-131318057D03*
X262932332Y-131318057D03*
X264132332Y-131318057D03*
X258132332Y-130118057D03*
X259332332Y-130118057D03*
X260532332Y-130118057D03*
X261732332Y-130118057D03*
X262932332Y-130118057D03*
X264132332Y-130118057D03*
X258132332Y-128918057D03*
X259332332Y-128918057D03*
X260532332Y-128918057D03*
X261732332Y-128918057D03*
X262932332Y-128918057D03*
X264132332Y-128918057D03*
X256932332Y-127718057D03*
X258132332Y-127718057D03*
X259332332Y-127718057D03*
X260532332Y-127718057D03*
X261732332Y-127718057D03*
X262932332Y-127718057D03*
X264132332Y-127718057D03*
X265332332Y-127718057D03*
%TD*%
D13*
%TO.C,R15*%
X315900000Y-150151000D03*
X315900000Y-142150000D03*
%TD*%
%TO.C,R14*%
X271250000Y-150401000D03*
X271250000Y-142400000D03*
%TD*%
%TO.C,R16*%
X215075000Y-150430500D03*
X215075000Y-142429500D03*
%TD*%
D12*
%TO.C,C7*%
X337456017Y-109019807D03*
X334506017Y-109019807D03*
%TD*%
D13*
%TO.C,R12*%
X304900000Y-150151000D03*
X304900000Y-142150000D03*
%TD*%
D14*
%TO.C,Q14*%
X267732332Y-138898057D03*
X268932332Y-138898057D03*
X270132332Y-138898057D03*
X271332332Y-138898057D03*
X272532332Y-138898057D03*
X273732332Y-138898057D03*
X274932332Y-138898057D03*
X276132332Y-138898057D03*
D15*
X267732332Y-133718057D03*
X268932332Y-133718057D03*
X270132332Y-133718057D03*
X271332332Y-133718057D03*
X272532332Y-133718057D03*
X273732332Y-133718057D03*
X274932332Y-133718057D03*
X276132332Y-133718057D03*
X267732332Y-132518057D03*
X268932332Y-132518057D03*
X270132332Y-132518057D03*
X271332332Y-132518057D03*
X272532332Y-132518057D03*
X273732332Y-132518057D03*
X274932332Y-132518057D03*
X276132332Y-132518057D03*
X268932332Y-131318057D03*
X270132332Y-131318057D03*
X271332332Y-131318057D03*
X272532332Y-131318057D03*
X273732332Y-131318057D03*
X274932332Y-131318057D03*
X268932332Y-130118057D03*
X270132332Y-130118057D03*
X271332332Y-130118057D03*
X272532332Y-130118057D03*
X273732332Y-130118057D03*
X274932332Y-130118057D03*
X268932332Y-128918057D03*
X270132332Y-128918057D03*
X271332332Y-128918057D03*
X272532332Y-128918057D03*
X273732332Y-128918057D03*
X274932332Y-128918057D03*
X267732332Y-127718057D03*
X268932332Y-127718057D03*
X270132332Y-127718057D03*
X271332332Y-127718057D03*
X272532332Y-127718057D03*
X273732332Y-127718057D03*
X274932332Y-127718057D03*
X276132332Y-127718057D03*
%TD*%
D14*
%TO.C,Q10*%
X233800000Y-139000000D03*
X235000000Y-139000000D03*
X236200000Y-139000000D03*
X237400000Y-139000000D03*
X238600000Y-139000000D03*
X239800000Y-139000000D03*
X241000000Y-139000000D03*
X242200000Y-139000000D03*
D15*
X233800000Y-133820000D03*
X235000000Y-133820000D03*
X236200000Y-133820000D03*
X237400000Y-133820000D03*
X238600000Y-133820000D03*
X239800000Y-133820000D03*
X241000000Y-133820000D03*
X242200000Y-133820000D03*
X233800000Y-132620000D03*
X235000000Y-132620000D03*
X236200000Y-132620000D03*
X237400000Y-132620000D03*
X238600000Y-132620000D03*
X239800000Y-132620000D03*
X241000000Y-132620000D03*
X242200000Y-132620000D03*
X235000000Y-131420000D03*
X236200000Y-131420000D03*
X237400000Y-131420000D03*
X238600000Y-131420000D03*
X239800000Y-131420000D03*
X241000000Y-131420000D03*
X235000000Y-130220000D03*
X236200000Y-130220000D03*
X237400000Y-130220000D03*
X238600000Y-130220000D03*
X239800000Y-130220000D03*
X241000000Y-130220000D03*
X235000000Y-129020000D03*
X236200000Y-129020000D03*
X237400000Y-129020000D03*
X238600000Y-129020000D03*
X239800000Y-129020000D03*
X241000000Y-129020000D03*
X233800000Y-127820000D03*
X235000000Y-127820000D03*
X236200000Y-127820000D03*
X237400000Y-127820000D03*
X238600000Y-127820000D03*
X239800000Y-127820000D03*
X241000000Y-127820000D03*
X242200000Y-127820000D03*
%TD*%
D14*
%TO.C,Q9*%
X301272332Y-119018057D03*
X302472332Y-119018057D03*
X303672332Y-119018057D03*
X304872332Y-119018057D03*
X306072332Y-119018057D03*
X307272332Y-119018057D03*
X308472332Y-119018057D03*
X309672332Y-119018057D03*
D15*
X301272332Y-113838057D03*
X302472332Y-113838057D03*
X303672332Y-113838057D03*
X304872332Y-113838057D03*
X306072332Y-113838057D03*
X307272332Y-113838057D03*
X308472332Y-113838057D03*
X309672332Y-113838057D03*
X301272332Y-112638057D03*
X302472332Y-112638057D03*
X303672332Y-112638057D03*
X304872332Y-112638057D03*
X306072332Y-112638057D03*
X307272332Y-112638057D03*
X308472332Y-112638057D03*
X309672332Y-112638057D03*
X302472332Y-111438057D03*
X303672332Y-111438057D03*
X304872332Y-111438057D03*
X306072332Y-111438057D03*
X307272332Y-111438057D03*
X308472332Y-111438057D03*
X302472332Y-110238057D03*
X303672332Y-110238057D03*
X304872332Y-110238057D03*
X306072332Y-110238057D03*
X307272332Y-110238057D03*
X308472332Y-110238057D03*
X302472332Y-109038057D03*
X303672332Y-109038057D03*
X304872332Y-109038057D03*
X306072332Y-109038057D03*
X307272332Y-109038057D03*
X308472332Y-109038057D03*
X301272332Y-107838057D03*
X302472332Y-107838057D03*
X303672332Y-107838057D03*
X304872332Y-107838057D03*
X306072332Y-107838057D03*
X307272332Y-107838057D03*
X308472332Y-107838057D03*
X309672332Y-107838057D03*
%TD*%
D11*
%TO.C,R28*%
X233100000Y-145495000D03*
X233100000Y-144805000D03*
%TD*%
D10*
%TO.C,R31*%
X222100000Y-147150000D03*
X222100000Y-147840000D03*
%TD*%
D14*
%TO.C,Q12*%
X212350000Y-139000000D03*
X213550000Y-139000000D03*
X214750000Y-139000000D03*
X215950000Y-139000000D03*
X217150000Y-139000000D03*
X218350000Y-139000000D03*
X219550000Y-139000000D03*
X220750000Y-139000000D03*
D15*
X212350000Y-133820000D03*
X213550000Y-133820000D03*
X214750000Y-133820000D03*
X215950000Y-133820000D03*
X217150000Y-133820000D03*
X218350000Y-133820000D03*
X219550000Y-133820000D03*
X220750000Y-133820000D03*
X212350000Y-132620000D03*
X213550000Y-132620000D03*
X214750000Y-132620000D03*
X215950000Y-132620000D03*
X217150000Y-132620000D03*
X218350000Y-132620000D03*
X219550000Y-132620000D03*
X220750000Y-132620000D03*
X213550000Y-131420000D03*
X214750000Y-131420000D03*
X215950000Y-131420000D03*
X217150000Y-131420000D03*
X218350000Y-131420000D03*
X219550000Y-131420000D03*
X213550000Y-130220000D03*
X214750000Y-130220000D03*
X215950000Y-130220000D03*
X217150000Y-130220000D03*
X218350000Y-130220000D03*
X219550000Y-130220000D03*
X213550000Y-129020000D03*
X214750000Y-129020000D03*
X215950000Y-129020000D03*
X217150000Y-129020000D03*
X218350000Y-129020000D03*
X219550000Y-129020000D03*
X212350000Y-127820000D03*
X213550000Y-127820000D03*
X214750000Y-127820000D03*
X215950000Y-127820000D03*
X217150000Y-127820000D03*
X218350000Y-127820000D03*
X219550000Y-127820000D03*
X220750000Y-127820000D03*
%TD*%
D11*
%TO.C,R42*%
X312100000Y-145495000D03*
X312100000Y-144805000D03*
%TD*%
%TO.C,R44*%
X322850000Y-145495000D03*
X322850000Y-144805000D03*
%TD*%
D14*
%TO.C,Q7*%
X322847332Y-119018057D03*
X324047332Y-119018057D03*
X325247332Y-119018057D03*
X326447332Y-119018057D03*
X327647332Y-119018057D03*
X328847332Y-119018057D03*
X330047332Y-119018057D03*
X331247332Y-119018057D03*
D15*
X322847332Y-113838057D03*
X324047332Y-113838057D03*
X325247332Y-113838057D03*
X326447332Y-113838057D03*
X327647332Y-113838057D03*
X328847332Y-113838057D03*
X330047332Y-113838057D03*
X331247332Y-113838057D03*
X322847332Y-112638057D03*
X324047332Y-112638057D03*
X325247332Y-112638057D03*
X326447332Y-112638057D03*
X327647332Y-112638057D03*
X328847332Y-112638057D03*
X330047332Y-112638057D03*
X331247332Y-112638057D03*
X324047332Y-111438057D03*
X325247332Y-111438057D03*
X326447332Y-111438057D03*
X327647332Y-111438057D03*
X328847332Y-111438057D03*
X330047332Y-111438057D03*
X324047332Y-110238057D03*
X325247332Y-110238057D03*
X326447332Y-110238057D03*
X327647332Y-110238057D03*
X328847332Y-110238057D03*
X330047332Y-110238057D03*
X324047332Y-109038057D03*
X325247332Y-109038057D03*
X326447332Y-109038057D03*
X327647332Y-109038057D03*
X328847332Y-109038057D03*
X330047332Y-109038057D03*
X322847332Y-107838057D03*
X324047332Y-107838057D03*
X325247332Y-107838057D03*
X326447332Y-107838057D03*
X327647332Y-107838057D03*
X328847332Y-107838057D03*
X330047332Y-107838057D03*
X331247332Y-107838057D03*
%TD*%
D16*
%TO.C,J2*%
X272082332Y-123848057D03*
%TD*%
D12*
%TO.C,C15*%
X292682332Y-125519807D03*
X289732332Y-125519807D03*
%TD*%
D14*
%TO.C,Q3*%
X212125000Y-119180000D03*
X213325000Y-119180000D03*
X214525000Y-119180000D03*
X215725000Y-119180000D03*
X216925000Y-119180000D03*
X218125000Y-119180000D03*
X219325000Y-119180000D03*
X220525000Y-119180000D03*
D15*
X212125000Y-114000000D03*
X213325000Y-114000000D03*
X214525000Y-114000000D03*
X215725000Y-114000000D03*
X216925000Y-114000000D03*
X218125000Y-114000000D03*
X219325000Y-114000000D03*
X220525000Y-114000000D03*
X212125000Y-112800000D03*
X213325000Y-112800000D03*
X214525000Y-112800000D03*
X215725000Y-112800000D03*
X216925000Y-112800000D03*
X218125000Y-112800000D03*
X219325000Y-112800000D03*
X220525000Y-112800000D03*
X213325000Y-111600000D03*
X214525000Y-111600000D03*
X215725000Y-111600000D03*
X216925000Y-111600000D03*
X218125000Y-111600000D03*
X219325000Y-111600000D03*
X213325000Y-110400000D03*
X214525000Y-110400000D03*
X215725000Y-110400000D03*
X216925000Y-110400000D03*
X218125000Y-110400000D03*
X219325000Y-110400000D03*
X213325000Y-109200000D03*
X214525000Y-109200000D03*
X215725000Y-109200000D03*
X216925000Y-109200000D03*
X218125000Y-109200000D03*
X219325000Y-109200000D03*
X212125000Y-108000000D03*
X213325000Y-108000000D03*
X214525000Y-108000000D03*
X215725000Y-108000000D03*
X216925000Y-108000000D03*
X218125000Y-108000000D03*
X219325000Y-108000000D03*
X220525000Y-108000000D03*
%TD*%
D12*
%TO.C,C9*%
X337456017Y-115619807D03*
X334506017Y-115619807D03*
%TD*%
D14*
%TO.C,Q6*%
X256932332Y-119130000D03*
X258132332Y-119130000D03*
X259332332Y-119130000D03*
X260532332Y-119130000D03*
X261732332Y-119130000D03*
X262932332Y-119130000D03*
X264132332Y-119130000D03*
X265332332Y-119130000D03*
D15*
X256932332Y-113950000D03*
X258132332Y-113950000D03*
X259332332Y-113950000D03*
X260532332Y-113950000D03*
X261732332Y-113950000D03*
X262932332Y-113950000D03*
X264132332Y-113950000D03*
X265332332Y-113950000D03*
X256932332Y-112750000D03*
X258132332Y-112750000D03*
X259332332Y-112750000D03*
X260532332Y-112750000D03*
X261732332Y-112750000D03*
X262932332Y-112750000D03*
X264132332Y-112750000D03*
X265332332Y-112750000D03*
X258132332Y-111550000D03*
X259332332Y-111550000D03*
X260532332Y-111550000D03*
X261732332Y-111550000D03*
X262932332Y-111550000D03*
X264132332Y-111550000D03*
X258132332Y-110350000D03*
X259332332Y-110350000D03*
X260532332Y-110350000D03*
X261732332Y-110350000D03*
X262932332Y-110350000D03*
X264132332Y-110350000D03*
X258132332Y-109150000D03*
X259332332Y-109150000D03*
X260532332Y-109150000D03*
X261732332Y-109150000D03*
X262932332Y-109150000D03*
X264132332Y-109150000D03*
X256932332Y-107950000D03*
X258132332Y-107950000D03*
X259332332Y-107950000D03*
X260532332Y-107950000D03*
X261732332Y-107950000D03*
X262932332Y-107950000D03*
X264132332Y-107950000D03*
X265332332Y-107950000D03*
%TD*%
D14*
%TO.C,Q16*%
X322922332Y-138688057D03*
X324122332Y-138688057D03*
X325322332Y-138688057D03*
X326522332Y-138688057D03*
X327722332Y-138688057D03*
X328922332Y-138688057D03*
X330122332Y-138688057D03*
X331322332Y-138688057D03*
D15*
X322922332Y-133508057D03*
X324122332Y-133508057D03*
X325322332Y-133508057D03*
X326522332Y-133508057D03*
X327722332Y-133508057D03*
X328922332Y-133508057D03*
X330122332Y-133508057D03*
X331322332Y-133508057D03*
X322922332Y-132308057D03*
X324122332Y-132308057D03*
X325322332Y-132308057D03*
X326522332Y-132308057D03*
X327722332Y-132308057D03*
X328922332Y-132308057D03*
X330122332Y-132308057D03*
X331322332Y-132308057D03*
X324122332Y-131108057D03*
X325322332Y-131108057D03*
X326522332Y-131108057D03*
X327722332Y-131108057D03*
X328922332Y-131108057D03*
X330122332Y-131108057D03*
X324122332Y-129908057D03*
X325322332Y-129908057D03*
X326522332Y-129908057D03*
X327722332Y-129908057D03*
X328922332Y-129908057D03*
X330122332Y-129908057D03*
X324122332Y-128708057D03*
X325322332Y-128708057D03*
X326522332Y-128708057D03*
X327722332Y-128708057D03*
X328922332Y-128708057D03*
X330122332Y-128708057D03*
X322922332Y-127508057D03*
X324122332Y-127508057D03*
X325322332Y-127508057D03*
X326522332Y-127508057D03*
X327722332Y-127508057D03*
X328922332Y-127508057D03*
X330122332Y-127508057D03*
X331322332Y-127508057D03*
%TD*%
D10*
%TO.C,R33*%
X211350000Y-147150000D03*
X211350000Y-147840000D03*
%TD*%
D17*
%TO.C,NTC3*%
X299200000Y-120025000D03*
X299200000Y-118375000D03*
%TD*%
D12*
%TO.C,C6*%
X292707332Y-115619807D03*
X289757332Y-115619807D03*
%TD*%
D17*
%TO.C,NTC2*%
X254900000Y-120225000D03*
X254900000Y-118575000D03*
%TD*%
D14*
%TO.C,Q1*%
X233650000Y-119180000D03*
X234850000Y-119180000D03*
X236050000Y-119180000D03*
X237250000Y-119180000D03*
X238450000Y-119180000D03*
X239650000Y-119180000D03*
X240850000Y-119180000D03*
X242050000Y-119180000D03*
D15*
X233650000Y-114000000D03*
X234850000Y-114000000D03*
X236050000Y-114000000D03*
X237250000Y-114000000D03*
X238450000Y-114000000D03*
X239650000Y-114000000D03*
X240850000Y-114000000D03*
X242050000Y-114000000D03*
X233650000Y-112800000D03*
X234850000Y-112800000D03*
X236050000Y-112800000D03*
X237250000Y-112800000D03*
X238450000Y-112800000D03*
X239650000Y-112800000D03*
X240850000Y-112800000D03*
X242050000Y-112800000D03*
X234850000Y-111600000D03*
X236050000Y-111600000D03*
X237250000Y-111600000D03*
X238450000Y-111600000D03*
X239650000Y-111600000D03*
X240850000Y-111600000D03*
X234850000Y-110400000D03*
X236050000Y-110400000D03*
X237250000Y-110400000D03*
X238450000Y-110400000D03*
X239650000Y-110400000D03*
X240850000Y-110400000D03*
X234850000Y-109200000D03*
X236050000Y-109200000D03*
X237250000Y-109200000D03*
X238450000Y-109200000D03*
X239650000Y-109200000D03*
X240850000Y-109200000D03*
X233650000Y-108000000D03*
X234850000Y-108000000D03*
X236050000Y-108000000D03*
X237250000Y-108000000D03*
X238450000Y-108000000D03*
X239650000Y-108000000D03*
X240850000Y-108000000D03*
X242050000Y-108000000D03*
%TD*%
D12*
%TO.C,C2*%
X247950000Y-112319807D03*
X245000000Y-112319807D03*
%TD*%
%TO.C,C8*%
X337456017Y-112319807D03*
X334506017Y-112319807D03*
%TD*%
D10*
%TO.C,R35*%
X256600000Y-147150000D03*
X256600000Y-147840000D03*
%TD*%
D11*
%TO.C,R38*%
X278350000Y-145495000D03*
X278350000Y-144805000D03*
%TD*%
D16*
%TO.C,J3*%
X227175000Y-123750000D03*
%TD*%
D14*
%TO.C,Q4*%
X278532332Y-119130000D03*
X279732332Y-119130000D03*
X280932332Y-119130000D03*
X282132332Y-119130000D03*
X283332332Y-119130000D03*
X284532332Y-119130000D03*
X285732332Y-119130000D03*
X286932332Y-119130000D03*
D15*
X278532332Y-113950000D03*
X279732332Y-113950000D03*
X280932332Y-113950000D03*
X282132332Y-113950000D03*
X283332332Y-113950000D03*
X284532332Y-113950000D03*
X285732332Y-113950000D03*
X286932332Y-113950000D03*
X278532332Y-112750000D03*
X279732332Y-112750000D03*
X280932332Y-112750000D03*
X282132332Y-112750000D03*
X283332332Y-112750000D03*
X284532332Y-112750000D03*
X285732332Y-112750000D03*
X286932332Y-112750000D03*
X279732332Y-111550000D03*
X280932332Y-111550000D03*
X282132332Y-111550000D03*
X283332332Y-111550000D03*
X284532332Y-111550000D03*
X285732332Y-111550000D03*
X279732332Y-110350000D03*
X280932332Y-110350000D03*
X282132332Y-110350000D03*
X283332332Y-110350000D03*
X284532332Y-110350000D03*
X285732332Y-110350000D03*
X279732332Y-109150000D03*
X280932332Y-109150000D03*
X282132332Y-109150000D03*
X283332332Y-109150000D03*
X284532332Y-109150000D03*
X285732332Y-109150000D03*
X278532332Y-107950000D03*
X279732332Y-107950000D03*
X280932332Y-107950000D03*
X282132332Y-107950000D03*
X283332332Y-107950000D03*
X284532332Y-107950000D03*
X285732332Y-107950000D03*
X286932332Y-107950000D03*
%TD*%
M02*
