%TF.GenerationSoftware,KiCad,Pcbnew,8.0.1*%
%TF.CreationDate,2024-05-07T00:04:45+05:00*%
%TF.ProjectId,PowerBoard,506f7765-7242-46f6-9172-642e6b696361,rev?*%
%TF.SameCoordinates,Original*%
%TF.FileFunction,Copper,L1,Top*%
%TF.FilePolarity,Positive*%
%FSLAX46Y46*%
G04 Gerber Fmt 4.6, Leading zero omitted, Abs format (unit mm)*
G04 Created by KiCad (PCBNEW 8.0.1) date 2024-05-07 00:04:45*
%MOMM*%
%LPD*%
G01*
G04 APERTURE LIST*
G04 Aperture macros list*
%AMRoundRect*
0 Rectangle with rounded corners*
0 $1 Rounding radius*
0 $2 $3 $4 $5 $6 $7 $8 $9 X,Y pos of 4 corners*
0 Add a 4 corners polygon primitive as box body*
4,1,4,$2,$3,$4,$5,$6,$7,$8,$9,$2,$3,0*
0 Add four circle primitives for the rounded corners*
1,1,$1+$1,$2,$3*
1,1,$1+$1,$4,$5*
1,1,$1+$1,$6,$7*
1,1,$1+$1,$8,$9*
0 Add four rect primitives between the rounded corners*
20,1,$1+$1,$2,$3,$4,$5,0*
20,1,$1+$1,$4,$5,$6,$7,0*
20,1,$1+$1,$6,$7,$8,$9,0*
20,1,$1+$1,$8,$9,$2,$3,0*%
G04 Aperture macros list end*
%TA.AperFunction,SMDPad,CuDef*%
%ADD10RoundRect,0.225000X-0.375000X0.225000X-0.375000X-0.225000X0.375000X-0.225000X0.375000X0.225000X0*%
%TD*%
%TA.AperFunction,SMDPad,CuDef*%
%ADD11RoundRect,0.250000X-0.625000X0.312500X-0.625000X-0.312500X0.625000X-0.312500X0.625000X0.312500X0*%
%TD*%
%TA.AperFunction,ComponentPad*%
%ADD12R,2.400000X2.400000*%
%TD*%
%TA.AperFunction,ComponentPad*%
%ADD13C,2.400000*%
%TD*%
%TA.AperFunction,ComponentPad*%
%ADD14R,1.700000X1.700000*%
%TD*%
%TA.AperFunction,ComponentPad*%
%ADD15O,1.700000X1.700000*%
%TD*%
%TA.AperFunction,ViaPad*%
%ADD16C,0.600000*%
%TD*%
%TA.AperFunction,Conductor*%
%ADD17C,1.000000*%
%TD*%
%TA.AperFunction,Conductor*%
%ADD18C,1.500000*%
%TD*%
%TA.AperFunction,Conductor*%
%ADD19C,0.300000*%
%TD*%
%TA.AperFunction,Conductor*%
%ADD20C,2.000000*%
%TD*%
G04 APERTURE END LIST*
D10*
%TO.P,D2,1,K*%
%TO.N,/GH_A*%
X228500000Y-112050000D03*
%TO.P,D2,2,A*%
%TO.N,Net-(D2-A)*%
X228500000Y-115350000D03*
%TD*%
%TO.P,D9,1,K*%
%TO.N,/GH_B*%
X262482332Y-112348057D03*
%TO.P,D9,2,A*%
%TO.N,Net-(D9-A)*%
X262482332Y-115648057D03*
%TD*%
%TO.P,D4,1,K*%
%TO.N,/GL_A*%
X239500000Y-132050000D03*
%TO.P,D4,2,A*%
%TO.N,Net-(D4-A)*%
X239500000Y-135350000D03*
%TD*%
D11*
%TO.P,R27,1*%
%TO.N,/GL_C*%
X309232332Y-131938057D03*
%TO.P,R27,2*%
%TO.N,Net-(D15-A)*%
X309232332Y-134863057D03*
%TD*%
D12*
%TO.P,C19,1*%
%TO.N,V_IN*%
X343150000Y-111050000D03*
D13*
%TO.P,C19,2*%
%TO.N,GND*%
X343150000Y-118550000D03*
%TD*%
D11*
%TO.P,R25,1*%
%TO.N,/GL_C*%
X330822332Y-131988057D03*
%TO.P,R25,2*%
%TO.N,Net-(D13-A)*%
X330822332Y-134913057D03*
%TD*%
%TO.P,R3,1*%
%TO.N,/GH_A*%
X220050000Y-112537500D03*
%TO.P,R3,2*%
%TO.N,Net-(D3-A)*%
X220050000Y-115462500D03*
%TD*%
%TO.P,R24,1*%
%TO.N,/GL_B*%
X264782332Y-131885557D03*
%TO.P,R24,2*%
%TO.N,Net-(D12-A)*%
X264782332Y-134810557D03*
%TD*%
D12*
%TO.P,C23,1*%
%TO.N,V_IN*%
X345298749Y-129480000D03*
D13*
%TO.P,C23,2*%
%TO.N,GND*%
X345298749Y-136980000D03*
%TD*%
D11*
%TO.P,R20,1*%
%TO.N,/GL_A*%
X231050000Y-132337500D03*
%TO.P,R20,2*%
%TO.N,Net-(D5-A)*%
X231050000Y-135262500D03*
%TD*%
D10*
%TO.P,D17,1,K*%
%TO.N,/GH_C*%
X317672332Y-111938057D03*
%TO.P,D17,2,A*%
%TO.N,Net-(D17-A)*%
X317672332Y-115238057D03*
%TD*%
D11*
%TO.P,R1,1*%
%TO.N,/GH_A*%
X241650000Y-112187500D03*
%TO.P,R1,2*%
%TO.N,Net-(D1-A)*%
X241650000Y-115112500D03*
%TD*%
%TO.P,R4,1*%
%TO.N,/GH_B*%
X286482332Y-112285557D03*
%TO.P,R4,2*%
%TO.N,Net-(D7-A)*%
X286482332Y-115210557D03*
%TD*%
D10*
%TO.P,D1,1,K*%
%TO.N,/GH_A*%
X239250000Y-112100000D03*
%TO.P,D1,2,A*%
%TO.N,Net-(D1-A)*%
X239250000Y-115400000D03*
%TD*%
%TO.P,D18,1,K*%
%TO.N,/GH_C*%
X328472332Y-111938057D03*
%TO.P,D18,2,A*%
%TO.N,Net-(D18-A)*%
X328472332Y-115238057D03*
%TD*%
D11*
%TO.P,R19,1*%
%TO.N,/GL_A*%
X241850000Y-132337500D03*
%TO.P,R19,2*%
%TO.N,Net-(D4-A)*%
X241850000Y-135262500D03*
%TD*%
%TO.P,R22,1*%
%TO.N,/GL_B*%
X286432332Y-131948057D03*
%TO.P,R22,2*%
%TO.N,Net-(D10-A)*%
X286432332Y-134873057D03*
%TD*%
D12*
%TO.P,C21,1*%
%TO.N,V_IN*%
X343250000Y-140300000D03*
D13*
%TO.P,C21,2*%
%TO.N,GND*%
X343250000Y-147800000D03*
%TD*%
D11*
%TO.P,R5,1*%
%TO.N,/GH_B*%
X275632332Y-112385557D03*
%TO.P,R5,2*%
%TO.N,Net-(D8-A)*%
X275632332Y-115310557D03*
%TD*%
D10*
%TO.P,D15,1,K*%
%TO.N,/GL_C*%
X306872332Y-131688057D03*
%TO.P,D15,2,A*%
%TO.N,Net-(D15-A)*%
X306872332Y-134988057D03*
%TD*%
D14*
%TO.P,J7,1,Pin_1*%
%TO.N,/PH_C_IN_D+*%
X298272332Y-135878057D03*
D15*
%TO.P,J7,2,Pin_2*%
%TO.N,/PH_C_IN_D-*%
X295732332Y-135878057D03*
%TO.P,J7,3,Pin_3*%
%TO.N,GND*%
X298272332Y-133338057D03*
%TO.P,J7,4,Pin_4*%
%TO.N,/TEMP3*%
X295732332Y-133338057D03*
%TO.P,J7,5,Pin_5*%
%TO.N,/GL_C*%
X298272332Y-130798057D03*
%TO.P,J7,6,Pin_6*%
%TO.N,/VCC2*%
X295732332Y-130798057D03*
%TO.P,J7,7,Pin_7*%
%TO.N,/PH_C*%
X298272332Y-128258057D03*
%TO.P,J7,8,Pin_8*%
%TO.N,/GH_C*%
X295732332Y-128258057D03*
%TD*%
D11*
%TO.P,R7,1*%
%TO.N,/GH_C*%
X330872332Y-112175557D03*
%TO.P,R7,2*%
%TO.N,Net-(D18-A)*%
X330872332Y-115100557D03*
%TD*%
%TO.P,R23,1*%
%TO.N,/GL_B*%
X275582332Y-131885557D03*
%TO.P,R23,2*%
%TO.N,Net-(D11-A)*%
X275582332Y-134810557D03*
%TD*%
%TO.P,R9,1*%
%TO.N,/GH_C*%
X309272332Y-112075557D03*
%TO.P,R9,2*%
%TO.N,Net-(D16-A)*%
X309272332Y-115000557D03*
%TD*%
D10*
%TO.P,D10,1,K*%
%TO.N,/GL_B*%
X284082332Y-131810557D03*
%TO.P,D10,2,A*%
%TO.N,Net-(D10-A)*%
X284082332Y-135110557D03*
%TD*%
D11*
%TO.P,R8,1*%
%TO.N,/GH_C*%
X320022332Y-112225557D03*
%TO.P,R8,2*%
%TO.N,Net-(D17-A)*%
X320022332Y-115150557D03*
%TD*%
D10*
%TO.P,D16,1,K*%
%TO.N,/GH_C*%
X306922332Y-111788057D03*
%TO.P,D16,2,A*%
%TO.N,Net-(D16-A)*%
X306922332Y-115088057D03*
%TD*%
%TO.P,D12,1,K*%
%TO.N,/GL_B*%
X262432332Y-131748057D03*
%TO.P,D12,2,A*%
%TO.N,Net-(D12-A)*%
X262432332Y-135048057D03*
%TD*%
%TO.P,D8,1,K*%
%TO.N,/GH_B*%
X273132332Y-112148057D03*
%TO.P,D8,2,A*%
%TO.N,Net-(D8-A)*%
X273132332Y-115448057D03*
%TD*%
%TO.P,D7,1,K*%
%TO.N,/GH_B*%
X283932332Y-111998057D03*
%TO.P,D7,2,A*%
%TO.N,Net-(D7-A)*%
X283932332Y-115298057D03*
%TD*%
%TO.P,D3,1,K*%
%TO.N,/GH_A*%
X217750000Y-112300000D03*
%TO.P,D3,2,A*%
%TO.N,Net-(D3-A)*%
X217750000Y-115600000D03*
%TD*%
D14*
%TO.P,J12,1,Pin_1*%
%TO.N,GND*%
X206700000Y-114975000D03*
D15*
%TO.P,J12,2,Pin_2*%
%TO.N,V_IN*%
X206700000Y-112435000D03*
%TD*%
D12*
%TO.P,C22,1*%
%TO.N,V_IN*%
X338098750Y-142130000D03*
D13*
%TO.P,C22,2*%
%TO.N,GND*%
X338098750Y-149630000D03*
%TD*%
D11*
%TO.P,R2,1*%
%TO.N,/GH_A*%
X230900000Y-112287500D03*
%TO.P,R2,2*%
%TO.N,Net-(D2-A)*%
X230900000Y-115212500D03*
%TD*%
D14*
%TO.P,J6,1,Pin_1*%
%TO.N,/PH_A_IN_D+*%
X208800000Y-136200000D03*
D15*
%TO.P,J6,2,Pin_2*%
%TO.N,/PH_A_IN_D-*%
X206260000Y-136200000D03*
%TO.P,J6,3,Pin_3*%
%TO.N,GND*%
X208800000Y-133660000D03*
%TO.P,J6,4,Pin_4*%
%TO.N,/TEMP*%
X206260000Y-133660000D03*
%TO.P,J6,5,Pin_5*%
%TO.N,/GL_A*%
X208800000Y-131120000D03*
%TO.P,J6,6,Pin_6*%
%TO.N,/VCC*%
X206260000Y-131120000D03*
%TO.P,J6,7,Pin_7*%
%TO.N,/PH_A*%
X208800000Y-128580000D03*
%TO.P,J6,8,Pin_8*%
%TO.N,/GH_A*%
X206260000Y-128580000D03*
%TD*%
D11*
%TO.P,R21,1*%
%TO.N,/GL_A*%
X220350000Y-132137500D03*
%TO.P,R21,2*%
%TO.N,Net-(D6-A)*%
X220350000Y-135062500D03*
%TD*%
D12*
%TO.P,C24,1*%
%TO.N,V_IN*%
X344920001Y-114600000D03*
D13*
%TO.P,C24,2*%
%TO.N,GND*%
X344920001Y-122100000D03*
%TD*%
D10*
%TO.P,D13,1,K*%
%TO.N,/GL_C*%
X328422332Y-131700557D03*
%TO.P,D13,2,A*%
%TO.N,Net-(D13-A)*%
X328422332Y-135000557D03*
%TD*%
%TO.P,D6,1,K*%
%TO.N,/GL_A*%
X217900000Y-131850000D03*
%TO.P,D6,2,A*%
%TO.N,Net-(D6-A)*%
X217900000Y-135150000D03*
%TD*%
D12*
%TO.P,C20,1*%
%TO.N,V_IN*%
X343250000Y-125750000D03*
D13*
%TO.P,C20,2*%
%TO.N,GND*%
X343250000Y-133250000D03*
%TD*%
D10*
%TO.P,D14,1,K*%
%TO.N,/GL_C*%
X317672332Y-131575557D03*
%TO.P,D14,2,A*%
%TO.N,Net-(D14-A)*%
X317672332Y-134875557D03*
%TD*%
%TO.P,D11,1,K*%
%TO.N,/GL_B*%
X273239832Y-131788057D03*
%TO.P,D11,2,A*%
%TO.N,Net-(D11-A)*%
X273239832Y-135088057D03*
%TD*%
D11*
%TO.P,R26,1*%
%TO.N,/GL_C*%
X320022332Y-131825557D03*
%TO.P,R26,2*%
%TO.N,Net-(D14-A)*%
X320022332Y-134750557D03*
%TD*%
D10*
%TO.P,D5,1,K*%
%TO.N,/GL_A*%
X228612500Y-132110000D03*
%TO.P,D5,2,A*%
%TO.N,Net-(D5-A)*%
X228612500Y-135410000D03*
%TD*%
D11*
%TO.P,R6,1*%
%TO.N,/GH_B*%
X264882332Y-112585557D03*
%TO.P,R6,2*%
%TO.N,Net-(D9-A)*%
X264882332Y-115510557D03*
%TD*%
D14*
%TO.P,J5,1,Pin_1*%
%TO.N,/PH_B_IN_D+*%
X253732332Y-136188057D03*
D15*
%TO.P,J5,2,Pin_2*%
%TO.N,/PH_B_IN_D-*%
X251192332Y-136188057D03*
%TO.P,J5,3,Pin_3*%
%TO.N,GND*%
X253732332Y-133648057D03*
%TO.P,J5,4,Pin_4*%
%TO.N,/TEMP2*%
X251192332Y-133648057D03*
%TO.P,J5,5,Pin_5*%
%TO.N,/GL_B*%
X253732332Y-131108057D03*
%TO.P,J5,6,Pin_6*%
%TO.N,/VCC1*%
X251192332Y-131108057D03*
%TO.P,J5,7,Pin_7*%
%TO.N,/PH_B*%
X253732332Y-128568057D03*
%TO.P,J5,8,Pin_8*%
%TO.N,/GH_B*%
X251192332Y-128568057D03*
%TD*%
D16*
%TO.N,GND*%
X342275000Y-108745000D03*
X245755000Y-157005000D03*
X257200000Y-152550000D03*
X250750000Y-156100000D03*
X210195000Y-139225000D03*
X281315000Y-154465000D03*
X219700000Y-153900000D03*
X299095000Y-149385000D03*
X324495000Y-157005000D03*
X204600000Y-115150000D03*
X214150000Y-156300000D03*
X294015000Y-149385000D03*
X242000000Y-152350000D03*
X289600000Y-155700000D03*
X319415000Y-154465000D03*
X278775000Y-154465000D03*
X276235000Y-157005000D03*
X309255000Y-144305000D03*
X337195000Y-146845000D03*
X344815000Y-144305000D03*
X294015000Y-157005000D03*
X215275000Y-154465000D03*
X230515000Y-149385000D03*
X280350000Y-152750000D03*
X243215000Y-154465000D03*
X238135000Y-146845000D03*
X220355000Y-157005000D03*
X225435000Y-136685000D03*
X294015000Y-151925000D03*
X291475000Y-154465000D03*
X344815000Y-154465000D03*
X271155000Y-116365000D03*
X306715000Y-154465000D03*
X276000000Y-154600000D03*
X210195000Y-154465000D03*
X342275000Y-144305000D03*
X339735000Y-154465000D03*
X223600000Y-156300000D03*
X205115000Y-151925000D03*
X205115000Y-121445000D03*
X255915000Y-154465000D03*
X238135000Y-157005000D03*
X280350000Y-156500000D03*
X337195000Y-144305000D03*
X205115000Y-106205000D03*
X225435000Y-157005000D03*
X324495000Y-154465000D03*
X220355000Y-149385000D03*
X320350000Y-152550000D03*
X309255000Y-151925000D03*
X205115000Y-141765000D03*
X230515000Y-157005000D03*
X324495000Y-116365000D03*
X205115000Y-103665000D03*
X225435000Y-116365000D03*
X212735000Y-136685000D03*
X260995000Y-116365000D03*
X344815000Y-151925000D03*
X311600000Y-152550000D03*
X332115000Y-141765000D03*
X311600000Y-156300000D03*
X217450000Y-154400000D03*
X235595000Y-146845000D03*
X309255000Y-154465000D03*
X258455000Y-154465000D03*
X205115000Y-118905000D03*
X309255000Y-149385000D03*
X268615000Y-116365000D03*
X321955000Y-157005000D03*
X286395000Y-151925000D03*
X309255000Y-157005000D03*
X215275000Y-136685000D03*
X281315000Y-146845000D03*
X263535000Y-154465000D03*
X250835000Y-144305000D03*
X248295000Y-146845000D03*
X327035000Y-116365000D03*
X296555000Y-146845000D03*
X248295000Y-139225000D03*
X212735000Y-157005000D03*
X227975000Y-157005000D03*
X296555000Y-151925000D03*
X250750000Y-152350000D03*
X255915000Y-116365000D03*
X253375000Y-149385000D03*
X321955000Y-149385000D03*
X337750000Y-156500000D03*
X248295000Y-144305000D03*
X286395000Y-157005000D03*
X271600000Y-156500000D03*
X205115000Y-146845000D03*
X283855000Y-146845000D03*
X222895000Y-136685000D03*
X268615000Y-154465000D03*
X220355000Y-151925000D03*
X320350000Y-156300000D03*
X263535000Y-157005000D03*
X248295000Y-149385000D03*
X207655000Y-108745000D03*
X273695000Y-154465000D03*
X230515000Y-154465000D03*
X253375000Y-151925000D03*
X266075000Y-154465000D03*
X250835000Y-139225000D03*
X314335000Y-116365000D03*
X266075000Y-149385000D03*
X301635000Y-157005000D03*
X214150000Y-152550000D03*
X250835000Y-141765000D03*
X235595000Y-136685000D03*
X205115000Y-108745000D03*
X235595000Y-116365000D03*
X205115000Y-139225000D03*
X248295000Y-136685000D03*
X327035000Y-146845000D03*
X342275000Y-157005000D03*
X211850000Y-154750000D03*
X278775000Y-157005000D03*
X329000000Y-156500000D03*
X294015000Y-146845000D03*
X232350000Y-152550000D03*
X246400000Y-154200000D03*
X223600000Y-152550000D03*
X253375000Y-154465000D03*
X240675000Y-154465000D03*
X250835000Y-149385000D03*
X327035000Y-157005000D03*
X207655000Y-146845000D03*
X230515000Y-151925000D03*
X248295000Y-134145000D03*
X276235000Y-149385000D03*
X268615000Y-157005000D03*
X294015000Y-134145000D03*
X207655000Y-149385000D03*
X222895000Y-154465000D03*
X210195000Y-141765000D03*
X271155000Y-154465000D03*
X339735000Y-157005000D03*
X210195000Y-157005000D03*
X332115000Y-144305000D03*
X290400000Y-150600000D03*
X261600000Y-154400000D03*
X232350000Y-156300000D03*
X260995000Y-157005000D03*
X233055000Y-136685000D03*
X207655000Y-118905000D03*
X207655000Y-157005000D03*
X329000000Y-152750000D03*
X344815000Y-103665000D03*
X276235000Y-151925000D03*
X344815000Y-108745000D03*
X332115000Y-149385000D03*
X233055000Y-149385000D03*
X296555000Y-157005000D03*
X248295000Y-131605000D03*
X314335000Y-157005000D03*
X238135000Y-154465000D03*
X294015000Y-136685000D03*
X205115000Y-149385000D03*
X314335000Y-154465000D03*
X296555000Y-149385000D03*
X248295000Y-157005000D03*
X257200000Y-156300000D03*
X233055000Y-154465000D03*
X299095000Y-141765000D03*
X250835000Y-146845000D03*
X210195000Y-151925000D03*
X329575000Y-146845000D03*
X306715000Y-157005000D03*
X235595000Y-154465000D03*
X311795000Y-154465000D03*
X253375000Y-146845000D03*
X235595000Y-157005000D03*
X298350000Y-151950000D03*
X225435000Y-154465000D03*
X342275000Y-121445000D03*
X333400000Y-154600000D03*
X332115000Y-146845000D03*
X283855000Y-154465000D03*
X286395000Y-146845000D03*
X210195000Y-116365000D03*
X283855000Y-157005000D03*
X248295000Y-151925000D03*
X294000000Y-153800000D03*
X327035000Y-154465000D03*
X291475000Y-157005000D03*
X222895000Y-116365000D03*
X210195000Y-149385000D03*
X296555000Y-154465000D03*
X242000000Y-156100000D03*
X233055000Y-116365000D03*
X281315000Y-116365000D03*
X245600000Y-150800000D03*
X240675000Y-149385000D03*
X316875000Y-157005000D03*
X342275000Y-136685000D03*
X342275000Y-103665000D03*
X294015000Y-139225000D03*
X217815000Y-157005000D03*
X339735000Y-144305000D03*
X248295000Y-141765000D03*
X240675000Y-146845000D03*
X321955000Y-116365000D03*
X316000000Y-154400000D03*
X289600000Y-151950000D03*
X207655000Y-103665000D03*
X339735000Y-151925000D03*
X228000000Y-154400000D03*
X321955000Y-154465000D03*
X253375000Y-157005000D03*
X286395000Y-154465000D03*
X271600000Y-152750000D03*
X301635000Y-154465000D03*
X311795000Y-116365000D03*
X278775000Y-116365000D03*
X324495000Y-146845000D03*
X248295000Y-154465000D03*
X248295000Y-129065000D03*
X311795000Y-149385000D03*
X342275000Y-116365000D03*
X344815000Y-106205000D03*
X205115000Y-144305000D03*
X298350000Y-155700000D03*
X265950000Y-156300000D03*
X294015000Y-141765000D03*
X337750000Y-152750000D03*
X255915000Y-149385000D03*
X205115000Y-154465000D03*
X265950000Y-152550000D03*
X321955000Y-151925000D03*
X273695000Y-157005000D03*
X286395000Y-149385000D03*
X304175000Y-157005000D03*
X294015000Y-144305000D03*
X250835000Y-154465000D03*
X339735000Y-146845000D03*
X299095000Y-139225000D03*
X304175000Y-154465000D03*
%TO.N,Net-(D1-A)*%
X241150000Y-116700000D03*
X240450000Y-116700000D03*
X241900000Y-116700000D03*
X242050000Y-117350000D03*
%TO.N,Net-(D2-A)*%
X230050000Y-117000000D03*
X231350000Y-117600000D03*
X229362500Y-116937500D03*
X230900000Y-117000000D03*
%TO.N,Net-(D3-A)*%
X220550000Y-117518750D03*
X220400000Y-116868750D03*
X219650000Y-116868750D03*
X218950000Y-116868750D03*
%TO.N,Net-(D4-A)*%
X240600000Y-136468750D03*
X242200000Y-137118750D03*
X242050000Y-136468750D03*
X241300000Y-136468750D03*
%TO.N,Net-(D5-A)*%
X231500000Y-137218750D03*
X229900000Y-136568750D03*
X231350000Y-136568750D03*
X230600000Y-136568750D03*
%TO.N,Net-(D6-A)*%
X219850000Y-136468750D03*
X220600000Y-136468750D03*
X219150000Y-136468750D03*
X220750000Y-137118750D03*
%TO.N,/TEMP2*%
X254450000Y-117250000D03*
%TO.N,/TEMP3*%
X298850000Y-117200000D03*
%TO.N,Net-(D7-A)*%
X286782332Y-116916807D03*
X285332332Y-116916807D03*
X286932332Y-117566807D03*
X286032332Y-116916807D03*
%TO.N,Net-(D8-A)*%
X276032332Y-116816807D03*
X274582332Y-116816807D03*
X275282332Y-116816807D03*
X276182332Y-117466807D03*
%TO.N,Net-(D9-A)*%
X263732332Y-117016807D03*
X265332332Y-117666807D03*
X264432332Y-117016807D03*
X265182332Y-117016807D03*
%TO.N,Net-(D10-A)*%
X286082332Y-136316807D03*
X285382332Y-136316807D03*
X286832332Y-136316807D03*
X286982332Y-136966807D03*
%TO.N,Net-(D11-A)*%
X276182332Y-137116807D03*
X275282332Y-136466807D03*
X274582332Y-136466807D03*
X276032332Y-136466807D03*
%TO.N,Net-(D12-A)*%
X264482332Y-136366807D03*
X265382332Y-137016807D03*
X263782332Y-136366807D03*
X265232332Y-136366807D03*
%TO.N,Net-(D13-A)*%
X331222332Y-136306807D03*
X331372332Y-136956807D03*
X330472332Y-136306807D03*
X329772332Y-136306807D03*
%TO.N,Net-(D14-A)*%
X320472332Y-136756807D03*
X318872332Y-136106807D03*
X320322332Y-136106807D03*
X319572332Y-136106807D03*
%TO.N,Net-(D15-A)*%
X309672332Y-136906807D03*
X309522332Y-136256807D03*
X308072332Y-136256807D03*
X308772332Y-136256807D03*
%TO.N,Net-(D16-A)*%
X308772332Y-116456807D03*
X309522332Y-116456807D03*
X309672332Y-117106807D03*
X308072332Y-116456807D03*
%TO.N,Net-(D17-A)*%
X320322332Y-116456807D03*
X319572332Y-116456807D03*
X318872332Y-116456807D03*
X320472332Y-117106807D03*
%TO.N,Net-(D18-A)*%
X331272332Y-117206807D03*
X329672332Y-116556807D03*
X331122332Y-116556807D03*
X330372332Y-116556807D03*
%TO.N,/VCC1*%
X254600000Y-121300000D03*
%TO.N,/VCC2*%
X299150000Y-121250000D03*
%TD*%
D17*
%TO.N,Net-(D1-A)*%
X242050000Y-117350000D02*
X242050000Y-116850000D01*
X240300000Y-115212500D02*
X241562500Y-115212500D01*
X241150000Y-116700000D02*
X241150000Y-116062500D01*
X241562500Y-115212500D02*
X241650000Y-115300000D01*
X239250000Y-115500000D02*
X240450000Y-116700000D01*
X240450000Y-116700000D02*
X241900000Y-116700000D01*
X242050000Y-116850000D02*
X241900000Y-116700000D01*
X239250000Y-115212500D02*
X240300000Y-115212500D01*
X241900000Y-115550000D02*
X241650000Y-115300000D01*
X241900000Y-116700000D02*
X241900000Y-115550000D01*
X241150000Y-116062500D02*
X240300000Y-115212500D01*
X239250000Y-115212500D02*
X239250000Y-115500000D01*
%TO.N,Net-(D2-A)*%
X231337500Y-117587500D02*
X231337500Y-117087500D01*
D18*
X228500000Y-115412500D02*
X228537500Y-115450000D01*
D17*
X229362500Y-116937500D02*
X230687500Y-116937500D01*
D18*
X228537500Y-115737500D02*
X229300000Y-116500000D01*
D17*
X231337500Y-117087500D02*
X231187500Y-116937500D01*
X230437500Y-116300000D02*
X229587500Y-115450000D01*
X230437500Y-116937500D02*
X230437500Y-116300000D01*
D18*
X230900000Y-115212500D02*
X228637500Y-115212500D01*
D17*
X228537500Y-115450000D02*
X229587500Y-115450000D01*
D18*
X228500000Y-115350000D02*
X228500000Y-115412500D01*
D17*
X231187500Y-116937500D02*
X231187500Y-115787500D01*
X230687500Y-116937500D02*
X231350000Y-117600000D01*
D18*
X228637500Y-115212500D02*
X228500000Y-115350000D01*
D17*
X229587500Y-115450000D02*
X230850000Y-115450000D01*
%TO.N,Net-(D3-A)*%
X217750000Y-115381250D02*
X218800000Y-115381250D01*
X218950000Y-116868750D02*
X220400000Y-116868750D01*
X218800000Y-115381250D02*
X220062500Y-115381250D01*
D18*
X217750000Y-115600000D02*
X217750000Y-115668750D01*
D17*
X220550000Y-117018750D02*
X220400000Y-116868750D01*
X220550000Y-117518750D02*
X220550000Y-117018750D01*
X219650000Y-116231250D02*
X218800000Y-115381250D01*
X220400000Y-116868750D02*
X220400000Y-115718750D01*
X217750000Y-115668750D02*
X218950000Y-116868750D01*
X220400000Y-115718750D02*
X220150000Y-115468750D01*
X217750000Y-115381250D02*
X217750000Y-115668750D01*
X219650000Y-116868750D02*
X219650000Y-116231250D01*
D18*
%TO.N,Net-(D4-A)*%
X241850000Y-135262500D02*
X241993750Y-135262500D01*
D17*
X239400000Y-135268750D02*
X240600000Y-136468750D01*
D18*
X239481250Y-135350000D02*
X239400000Y-135268750D01*
D17*
X240450000Y-134981250D02*
X241712500Y-134981250D01*
X242050000Y-136468750D02*
X242050000Y-135318750D01*
X240600000Y-136468750D02*
X242050000Y-136468750D01*
X242200000Y-136618750D02*
X242050000Y-136468750D01*
X241300000Y-135831250D02*
X240450000Y-134981250D01*
D18*
X241993750Y-135262500D02*
X242050000Y-135318750D01*
D17*
X239400000Y-134981250D02*
X240450000Y-134981250D01*
X242050000Y-135318750D02*
X241800000Y-135068750D01*
X239400000Y-134981250D02*
X239400000Y-135268750D01*
X242200000Y-137118750D02*
X242200000Y-136618750D01*
D18*
X239500000Y-135350000D02*
X239481250Y-135350000D01*
D17*
X241300000Y-136468750D02*
X241300000Y-135831250D01*
%TO.N,Net-(D5-A)*%
X229750000Y-135081250D02*
X231012500Y-135081250D01*
D18*
X231193750Y-135262500D02*
X231350000Y-135418750D01*
X228658750Y-135410000D02*
X228700000Y-135368750D01*
X231050000Y-135262500D02*
X231193750Y-135262500D01*
D17*
X228700000Y-135368750D02*
X229900000Y-136568750D01*
D18*
X228612500Y-135410000D02*
X228658750Y-135410000D01*
D17*
X228700000Y-135081250D02*
X229750000Y-135081250D01*
X229900000Y-136568750D02*
X231350000Y-136568750D01*
X231350000Y-135418750D02*
X231100000Y-135168750D01*
X230600000Y-135931250D02*
X229750000Y-135081250D01*
X231500000Y-136718750D02*
X231350000Y-136568750D01*
X231500000Y-137218750D02*
X231500000Y-136718750D01*
X230600000Y-136568750D02*
X230600000Y-135931250D01*
X231350000Y-136568750D02*
X231350000Y-135418750D01*
X228700000Y-135081250D02*
X228700000Y-135368750D01*
%TO.N,Net-(D6-A)*%
X219150000Y-136468750D02*
X220600000Y-136468750D01*
X220750000Y-136618750D02*
X220600000Y-136468750D01*
X219850000Y-135831250D02*
X219000000Y-134981250D01*
X217950000Y-134981250D02*
X217950000Y-135268750D01*
X219850000Y-136468750D02*
X219850000Y-135831250D01*
D18*
X220350000Y-135068750D02*
X220600000Y-135318750D01*
D17*
X217950000Y-135268750D02*
X219150000Y-136468750D01*
X217950000Y-134981250D02*
X219000000Y-134981250D01*
D18*
X217900000Y-135218750D02*
X217950000Y-135268750D01*
D17*
X220750000Y-137118750D02*
X220750000Y-136618750D01*
D18*
X220350000Y-135062500D02*
X220350000Y-135068750D01*
D17*
X219000000Y-134981250D02*
X220262500Y-134981250D01*
X220600000Y-136468750D02*
X220600000Y-135318750D01*
D18*
X217900000Y-135150000D02*
X217900000Y-135218750D01*
D19*
%TO.N,/TEMP2*%
X249350000Y-131805725D02*
X249350000Y-122350000D01*
X251192332Y-133648057D02*
X249350000Y-131805725D01*
X249350000Y-122350000D02*
X254450000Y-117250000D01*
%TO.N,/TEMP3*%
X293900000Y-122150000D02*
X293900000Y-131505725D01*
X293900000Y-131505725D02*
X295732332Y-133338057D01*
X298850000Y-117200000D02*
X293900000Y-122150000D01*
D20*
%TO.N,/GL_A*%
X231050000Y-132337500D02*
X241850000Y-132337500D01*
X208800000Y-131120000D02*
X217170000Y-131120000D01*
X230850000Y-132137500D02*
X231050000Y-132337500D01*
X217170000Y-131120000D02*
X217900000Y-131850000D01*
X220350000Y-132137500D02*
X218187500Y-132137500D01*
X218187500Y-132137500D02*
X217900000Y-131850000D01*
X220350000Y-132137500D02*
X230850000Y-132137500D01*
%TO.N,/GH_A*%
X213200000Y-115100000D02*
X215762500Y-112537500D01*
X206260000Y-127377919D02*
X213200000Y-120437919D01*
X241300000Y-112537500D02*
X241650000Y-112187500D01*
X215762500Y-112537500D02*
X220050000Y-112537500D01*
X206260000Y-128580000D02*
X206260000Y-127377919D01*
X213200000Y-120437919D02*
X213200000Y-115100000D01*
X220050000Y-112537500D02*
X241300000Y-112537500D01*
%TO.N,/GL_B*%
X261792332Y-131108057D02*
X262432332Y-131748057D01*
X253732332Y-131108057D02*
X261792332Y-131108057D01*
X262432332Y-131748057D02*
X286232332Y-131748057D01*
D18*
X286232332Y-131748057D02*
X286432332Y-131948057D01*
D20*
%TO.N,/GH_B*%
X258140000Y-115022081D02*
X260702500Y-112459581D01*
X260702500Y-112459581D02*
X264990000Y-112459581D01*
X258140000Y-120360000D02*
X258140000Y-115022081D01*
X264990000Y-112459581D02*
X286240000Y-112459581D01*
X251200000Y-127300000D02*
X258140000Y-120360000D01*
X251200000Y-128502081D02*
X251200000Y-127300000D01*
X286240000Y-112459581D02*
X286590000Y-112109581D01*
%TO.N,/GL_C*%
X305982332Y-130798057D02*
X306872332Y-131688057D01*
X306872332Y-131688057D02*
X330522332Y-131688057D01*
X298272332Y-130798057D02*
X305982332Y-130798057D01*
D18*
X330522332Y-131688057D02*
X330822332Y-131988057D01*
D20*
%TO.N,/GH_C*%
X302690000Y-114722081D02*
X305252500Y-112159581D01*
X295750000Y-128202081D02*
X295750000Y-127000000D01*
X309540000Y-112159581D02*
X330790000Y-112159581D01*
X302690000Y-120060000D02*
X302690000Y-114722081D01*
X330790000Y-112159581D02*
X331140000Y-111809581D01*
X295750000Y-127000000D02*
X302690000Y-120060000D01*
X305252500Y-112159581D02*
X309540000Y-112159581D01*
D17*
%TO.N,Net-(D7-A)*%
X284132332Y-115716807D02*
X285332332Y-116916807D01*
X284132332Y-115429307D02*
X285182332Y-115429307D01*
X285182332Y-115429307D02*
X286444832Y-115429307D01*
X286032332Y-116279307D02*
X285182332Y-115429307D01*
X286782332Y-116916807D02*
X286782332Y-115766807D01*
X284132332Y-115429307D02*
X284132332Y-115716807D01*
X286032332Y-116916807D02*
X286032332Y-116279307D01*
X286782332Y-115766807D02*
X286532332Y-115516807D01*
X286932332Y-117566807D02*
X286932332Y-117066807D01*
X285332332Y-116916807D02*
X286782332Y-116916807D01*
X286932332Y-117066807D02*
X286782332Y-116916807D01*
%TO.N,Net-(D8-A)*%
X276182332Y-117466807D02*
X276182332Y-116966807D01*
X274432332Y-115329307D02*
X275694832Y-115329307D01*
X273382332Y-115616807D02*
X274582332Y-116816807D01*
X275282332Y-116179307D02*
X274432332Y-115329307D01*
X276032332Y-116816807D02*
X276032332Y-115666807D01*
X275282332Y-116816807D02*
X275282332Y-116179307D01*
X273382332Y-115329307D02*
X274432332Y-115329307D01*
X273382332Y-115329307D02*
X273382332Y-115616807D01*
X276182332Y-116966807D02*
X276032332Y-116816807D01*
X274582332Y-116816807D02*
X276032332Y-116816807D01*
X276032332Y-115666807D02*
X275782332Y-115416807D01*
%TO.N,Net-(D9-A)*%
X263582332Y-115529307D02*
X264844832Y-115529307D01*
X265332332Y-117666807D02*
X265332332Y-117166807D01*
X264432332Y-116379307D02*
X263582332Y-115529307D01*
X262532332Y-115529307D02*
X262532332Y-115816807D01*
X265332332Y-117166807D02*
X265182332Y-117016807D01*
X262532332Y-115529307D02*
X263582332Y-115529307D01*
X263732332Y-117016807D02*
X265182332Y-117016807D01*
X265182332Y-115866807D02*
X264932332Y-115616807D01*
X264432332Y-117016807D02*
X264432332Y-116379307D01*
X262532332Y-115816807D02*
X263732332Y-117016807D01*
X265182332Y-117016807D02*
X265182332Y-115866807D01*
%TO.N,Net-(D10-A)*%
X286982332Y-136966807D02*
X286982332Y-136466807D01*
X284182332Y-134829307D02*
X284182332Y-135116807D01*
X286832332Y-136316807D02*
X286832332Y-135166807D01*
X286832332Y-135166807D02*
X286582332Y-134916807D01*
X286982332Y-136466807D02*
X286832332Y-136316807D01*
X285382332Y-136316807D02*
X286832332Y-136316807D01*
X285232332Y-134829307D02*
X286494832Y-134829307D01*
X284182332Y-134829307D02*
X285232332Y-134829307D01*
X286082332Y-135679307D02*
X285232332Y-134829307D01*
X284182332Y-135116807D02*
X285382332Y-136316807D01*
X286082332Y-136316807D02*
X286082332Y-135679307D01*
%TO.N,Net-(D11-A)*%
X276032332Y-136466807D02*
X276032332Y-135316807D01*
X274432332Y-134979307D02*
X275694832Y-134979307D01*
X273382332Y-134979307D02*
X274432332Y-134979307D01*
X276182332Y-136616807D02*
X276032332Y-136466807D01*
X276032332Y-135316807D02*
X275782332Y-135066807D01*
X274582332Y-136466807D02*
X276032332Y-136466807D01*
X273382332Y-135266807D02*
X274582332Y-136466807D01*
X275282332Y-136466807D02*
X275282332Y-135829307D01*
X275282332Y-135829307D02*
X274432332Y-134979307D01*
X276182332Y-137116807D02*
X276182332Y-136616807D01*
X273382332Y-134979307D02*
X273382332Y-135266807D01*
%TO.N,Net-(D12-A)*%
X265232332Y-135216807D02*
X264982332Y-134966807D01*
X262582332Y-134879307D02*
X262582332Y-135166807D01*
X262582332Y-134879307D02*
X263632332Y-134879307D01*
X265232332Y-136366807D02*
X265232332Y-135216807D01*
X263632332Y-134879307D02*
X264894832Y-134879307D01*
X265382332Y-136516807D02*
X265232332Y-136366807D01*
X262582332Y-135166807D02*
X263782332Y-136366807D01*
X263782332Y-136366807D02*
X265232332Y-136366807D01*
X265382332Y-137016807D02*
X265382332Y-136516807D01*
X264482332Y-135729307D02*
X263632332Y-134879307D01*
X264482332Y-136366807D02*
X264482332Y-135729307D01*
D18*
%TO.N,Net-(D13-A)*%
X330822332Y-134913057D02*
X330978582Y-134913057D01*
D17*
X328572332Y-134819307D02*
X328572332Y-135106807D01*
X328572332Y-135106807D02*
X329772332Y-136306807D01*
X331222332Y-136306807D02*
X331222332Y-135156807D01*
X329772332Y-136306807D02*
X331222332Y-136306807D01*
D18*
X328422332Y-135000557D02*
X328466082Y-135000557D01*
D17*
X331222332Y-135156807D02*
X330972332Y-134906807D01*
X329622332Y-134819307D02*
X330884832Y-134819307D01*
X328572332Y-134819307D02*
X329622332Y-134819307D01*
D18*
X328466082Y-135000557D02*
X328572332Y-135106807D01*
D17*
X331372332Y-136456807D02*
X331222332Y-136306807D01*
D18*
X330978582Y-134913057D02*
X331222332Y-135156807D01*
D17*
X330472332Y-135669307D02*
X329622332Y-134819307D01*
X331372332Y-136956807D02*
X331372332Y-136456807D01*
X330472332Y-136306807D02*
X330472332Y-135669307D01*
%TO.N,Net-(D14-A)*%
X319572332Y-136106807D02*
X319572332Y-135469307D01*
X317672332Y-134906807D02*
X318872332Y-136106807D01*
D18*
X320116082Y-134750557D02*
X320322332Y-134956807D01*
D17*
X319572332Y-135469307D02*
X318722332Y-134619307D01*
X318872332Y-136106807D02*
X320322332Y-136106807D01*
X320322332Y-136106807D02*
X320322332Y-134956807D01*
X317672332Y-134619307D02*
X317672332Y-134906807D01*
X320472332Y-136756807D02*
X320472332Y-136256807D01*
X318722332Y-134619307D02*
X319984832Y-134619307D01*
X320322332Y-134956807D02*
X320072332Y-134706807D01*
D18*
X320022332Y-134750557D02*
X320116082Y-134750557D01*
D17*
X320472332Y-136256807D02*
X320322332Y-136106807D01*
D18*
X317672332Y-134875557D02*
X317672332Y-134906807D01*
D17*
X317672332Y-134619307D02*
X318722332Y-134619307D01*
%TO.N,Net-(D15-A)*%
X309672332Y-136406807D02*
X309522332Y-136256807D01*
X308772332Y-135619307D02*
X307922332Y-134769307D01*
X308072332Y-136256807D02*
X309522332Y-136256807D01*
D18*
X309278582Y-134863057D02*
X309522332Y-135106807D01*
X306872332Y-134988057D02*
X306872332Y-135056807D01*
D17*
X306872332Y-134769307D02*
X306872332Y-135056807D01*
X306872332Y-134769307D02*
X307922332Y-134769307D01*
X309522332Y-135106807D02*
X309272332Y-134856807D01*
X306872332Y-135056807D02*
X308072332Y-136256807D01*
X308772332Y-136256807D02*
X308772332Y-135619307D01*
X309522332Y-136256807D02*
X309522332Y-135106807D01*
X309672332Y-136906807D02*
X309672332Y-136406807D01*
D18*
X309232332Y-134863057D02*
X309278582Y-134863057D01*
D17*
X307922332Y-134769307D02*
X309184832Y-134769307D01*
%TO.N,Net-(D16-A)*%
X306872332Y-114969307D02*
X307922332Y-114969307D01*
X308772332Y-116456807D02*
X308772332Y-115819307D01*
X308072332Y-116456807D02*
X309522332Y-116456807D01*
X309522332Y-115306807D02*
X309272332Y-115056807D01*
X309522332Y-116456807D02*
X309522332Y-115306807D01*
X306872332Y-114969307D02*
X306872332Y-115256807D01*
X309672332Y-116606807D02*
X309522332Y-116456807D01*
X306872332Y-115256807D02*
X308072332Y-116456807D01*
X307922332Y-114969307D02*
X309184832Y-114969307D01*
X308772332Y-115819307D02*
X307922332Y-114969307D01*
X309672332Y-117106807D02*
X309672332Y-116606807D01*
%TO.N,Net-(D17-A)*%
X317672332Y-114969307D02*
X318722332Y-114969307D01*
X317672332Y-115256807D02*
X318872332Y-116456807D01*
X320472332Y-116606807D02*
X320322332Y-116456807D01*
X320322332Y-115306807D02*
X320072332Y-115056807D01*
X320472332Y-117106807D02*
X320472332Y-116606807D01*
X318722332Y-114969307D02*
X319984832Y-114969307D01*
X317672332Y-114969307D02*
X317672332Y-115256807D01*
X319572332Y-115819307D02*
X318722332Y-114969307D01*
X318872332Y-116456807D02*
X320322332Y-116456807D01*
X319572332Y-116456807D02*
X319572332Y-115819307D01*
X320322332Y-116456807D02*
X320322332Y-115306807D01*
%TO.N,Net-(D18-A)*%
X331272332Y-117206807D02*
X331272332Y-116706807D01*
X329672332Y-116556807D02*
X331122332Y-116556807D01*
X328472332Y-115069307D02*
X329522332Y-115069307D01*
X331122332Y-116556807D02*
X331122332Y-115406807D01*
X328472332Y-115356807D02*
X329672332Y-116556807D01*
X330372332Y-115919307D02*
X329522332Y-115069307D01*
X331272332Y-116706807D02*
X331122332Y-116556807D01*
X331122332Y-115406807D02*
X330872332Y-115156807D01*
X329522332Y-115069307D02*
X330784832Y-115069307D01*
X328472332Y-115069307D02*
X328472332Y-115356807D01*
X330372332Y-116556807D02*
X330372332Y-115919307D01*
D19*
%TO.N,/VCC1*%
X249850000Y-129765725D02*
X251192332Y-131108057D01*
X254600000Y-121300000D02*
X249850000Y-126050000D01*
X249850000Y-126050000D02*
X249850000Y-129765725D01*
%TO.N,/VCC2*%
X294400000Y-129465725D02*
X294400000Y-126000000D01*
X295732332Y-130798057D02*
X294400000Y-129465725D01*
X294400000Y-126000000D02*
X299150000Y-121250000D01*
%TD*%
%TA.AperFunction,Conductor*%
%TO.N,GND*%
G36*
X342507030Y-101486018D02*
G01*
X342507235Y-101486034D01*
X342516870Y-101486034D01*
X342516873Y-101486035D01*
X342561764Y-101486034D01*
X342567170Y-101486151D01*
X342968672Y-101503678D01*
X342979405Y-101504618D01*
X343375174Y-101556720D01*
X343385793Y-101558592D01*
X343775525Y-101644991D01*
X343785939Y-101647782D01*
X344166649Y-101767817D01*
X344176784Y-101771506D01*
X344545568Y-101924260D01*
X344555363Y-101928828D01*
X344845983Y-102080114D01*
X344909416Y-102113135D01*
X344918784Y-102118543D01*
X345255434Y-102333012D01*
X345264295Y-102339217D01*
X345580963Y-102582204D01*
X345589250Y-102589158D01*
X345883532Y-102858818D01*
X345891181Y-102866467D01*
X346160841Y-103160749D01*
X346167795Y-103169036D01*
X346410782Y-103485704D01*
X346416987Y-103494565D01*
X346631456Y-103831215D01*
X346636864Y-103840583D01*
X346821169Y-104194631D01*
X346825741Y-104204436D01*
X346978487Y-104573200D01*
X346982187Y-104583365D01*
X347102212Y-104964042D01*
X347105012Y-104974491D01*
X347191404Y-105364189D01*
X347193282Y-105374842D01*
X347213621Y-105529341D01*
X347241408Y-105740412D01*
X347245379Y-105770572D01*
X347246322Y-105781349D01*
X347263847Y-106182827D01*
X347263965Y-106188235D01*
X347263965Y-106242302D01*
X347264026Y-106243082D01*
X347313963Y-153161698D01*
X347313845Y-153167238D01*
X347296322Y-153568650D01*
X347295379Y-153579427D01*
X347243282Y-153975157D01*
X347241404Y-153985810D01*
X347155012Y-154375508D01*
X347152212Y-154385957D01*
X347032187Y-154766634D01*
X347028487Y-154776799D01*
X346875741Y-155145563D01*
X346871169Y-155155368D01*
X346686864Y-155509416D01*
X346681456Y-155518784D01*
X346466987Y-155855434D01*
X346460782Y-155864295D01*
X346217795Y-156180963D01*
X346210841Y-156189250D01*
X345941181Y-156483532D01*
X345933532Y-156491181D01*
X345639250Y-156760841D01*
X345630963Y-156767795D01*
X345314295Y-157010782D01*
X345305434Y-157016987D01*
X344968784Y-157231456D01*
X344959416Y-157236864D01*
X344605368Y-157421169D01*
X344595563Y-157425741D01*
X344226799Y-157578487D01*
X344216634Y-157582187D01*
X343835957Y-157702212D01*
X343825508Y-157705012D01*
X343435810Y-157791404D01*
X343425157Y-157793282D01*
X343029427Y-157845379D01*
X343018650Y-157846322D01*
X342617210Y-157863846D01*
X342611756Y-157863964D01*
X207692878Y-157813986D01*
X207692603Y-157813965D01*
X207683127Y-157813965D01*
X207638228Y-157813965D01*
X207632820Y-157813847D01*
X207231349Y-157796322D01*
X207220573Y-157795379D01*
X207022707Y-157769330D01*
X206824842Y-157743282D01*
X206814189Y-157741404D01*
X206424491Y-157655012D01*
X206414042Y-157652212D01*
X206191947Y-157582187D01*
X206033363Y-157532186D01*
X206023200Y-157528487D01*
X205654436Y-157375741D01*
X205644631Y-157371169D01*
X205290583Y-157186864D01*
X205281215Y-157181456D01*
X204944565Y-156966987D01*
X204935704Y-156960782D01*
X204619036Y-156717795D01*
X204610749Y-156710841D01*
X204316467Y-156441181D01*
X204308818Y-156433532D01*
X204039158Y-156139250D01*
X204032204Y-156130963D01*
X203789217Y-155814295D01*
X203783012Y-155805434D01*
X203568543Y-155468784D01*
X203563135Y-155459416D01*
X203378830Y-155105368D01*
X203374258Y-155095563D01*
X203221506Y-154726784D01*
X203217817Y-154716649D01*
X203097782Y-154335939D01*
X203094991Y-154325525D01*
X203008592Y-153935793D01*
X203006720Y-153925174D01*
X202954618Y-153529405D01*
X202953678Y-153518672D01*
X202940673Y-153220752D01*
X206285034Y-153220752D01*
X206318287Y-153430705D01*
X206383978Y-153632880D01*
X206480485Y-153822286D01*
X206605424Y-153994252D01*
X206755747Y-154144575D01*
X206927713Y-154269514D01*
X206927715Y-154269515D01*
X206927718Y-154269517D01*
X207117122Y-154366023D01*
X207319291Y-154431712D01*
X207529247Y-154464966D01*
X207529248Y-154464966D01*
X207741820Y-154464966D01*
X207741821Y-154464966D01*
X207951777Y-154431712D01*
X208153946Y-154366023D01*
X208343350Y-154269517D01*
X208365890Y-154253141D01*
X208515320Y-154144575D01*
X208515322Y-154144572D01*
X208515326Y-154144570D01*
X208665638Y-153994258D01*
X208665640Y-153994254D01*
X208665643Y-153994252D01*
X208790582Y-153822286D01*
X208790581Y-153822286D01*
X208790585Y-153822282D01*
X208887091Y-153632878D01*
X208952780Y-153430709D01*
X208978115Y-153270752D01*
X341263966Y-153270752D01*
X341297219Y-153480705D01*
X341362910Y-153682880D01*
X341459417Y-153872286D01*
X341584356Y-154044252D01*
X341734679Y-154194575D01*
X341906645Y-154319514D01*
X341906647Y-154319515D01*
X341906650Y-154319517D01*
X342096054Y-154416023D01*
X342298223Y-154481712D01*
X342508179Y-154514966D01*
X342508180Y-154514966D01*
X342720752Y-154514966D01*
X342720753Y-154514966D01*
X342930709Y-154481712D01*
X343132878Y-154416023D01*
X343322282Y-154319517D01*
X343391106Y-154269514D01*
X343494252Y-154194575D01*
X343494254Y-154194572D01*
X343494258Y-154194570D01*
X343644570Y-154044258D01*
X343644572Y-154044254D01*
X343644575Y-154044252D01*
X343769514Y-153872286D01*
X343769513Y-153872286D01*
X343769517Y-153872282D01*
X343866023Y-153682878D01*
X343931712Y-153480709D01*
X343964966Y-153270753D01*
X343964966Y-153058179D01*
X343931712Y-152848223D01*
X343866023Y-152646054D01*
X343769517Y-152456650D01*
X343769515Y-152456647D01*
X343769514Y-152456645D01*
X343644575Y-152284679D01*
X343494252Y-152134356D01*
X343322286Y-152009417D01*
X343132880Y-151912910D01*
X343132879Y-151912909D01*
X343132878Y-151912909D01*
X342930709Y-151847220D01*
X342930707Y-151847219D01*
X342930706Y-151847219D01*
X342769423Y-151821674D01*
X342720753Y-151813966D01*
X342508179Y-151813966D01*
X342459508Y-151821674D01*
X342298226Y-151847219D01*
X342096051Y-151912910D01*
X341906645Y-152009417D01*
X341734679Y-152134356D01*
X341584356Y-152284679D01*
X341459417Y-152456645D01*
X341362910Y-152646051D01*
X341297219Y-152848226D01*
X341263966Y-153058179D01*
X341263966Y-153270752D01*
X208978115Y-153270752D01*
X208986034Y-153220753D01*
X208986034Y-153008179D01*
X208952780Y-152798223D01*
X208887091Y-152596054D01*
X208790585Y-152406650D01*
X208790583Y-152406647D01*
X208790582Y-152406645D01*
X208665643Y-152234679D01*
X208515320Y-152084356D01*
X208343354Y-151959417D01*
X208153948Y-151862910D01*
X208153947Y-151862909D01*
X208153946Y-151862909D01*
X207951777Y-151797220D01*
X207951775Y-151797219D01*
X207951774Y-151797219D01*
X207790491Y-151771674D01*
X207741821Y-151763966D01*
X207529247Y-151763966D01*
X207480576Y-151771674D01*
X207319294Y-151797219D01*
X207117119Y-151862910D01*
X206927713Y-151959417D01*
X206755747Y-152084356D01*
X206605424Y-152234679D01*
X206480485Y-152406645D01*
X206383978Y-152596051D01*
X206318287Y-152798226D01*
X206285034Y-153008179D01*
X206285034Y-153220752D01*
X202940673Y-153220752D01*
X202936151Y-153117170D01*
X202936034Y-153111762D01*
X202936035Y-153066873D01*
X202936034Y-153066869D01*
X202936034Y-153057501D01*
X202935990Y-153056946D01*
X202928667Y-143377870D01*
X336398250Y-143377870D01*
X336398251Y-143377876D01*
X336404658Y-143437483D01*
X336454952Y-143572328D01*
X336454956Y-143572335D01*
X336541202Y-143687544D01*
X336541205Y-143687547D01*
X336656414Y-143773793D01*
X336656421Y-143773797D01*
X336791267Y-143824091D01*
X336791266Y-143824091D01*
X336798194Y-143824835D01*
X336850877Y-143830500D01*
X339346622Y-143830499D01*
X339406233Y-143824091D01*
X339541081Y-143773796D01*
X339656296Y-143687546D01*
X339742546Y-143572331D01*
X339792841Y-143437483D01*
X339799250Y-143377873D01*
X339799249Y-141547870D01*
X341549500Y-141547870D01*
X341549501Y-141547876D01*
X341555908Y-141607483D01*
X341606202Y-141742328D01*
X341606206Y-141742335D01*
X341692452Y-141857544D01*
X341692455Y-141857547D01*
X341807664Y-141943793D01*
X341807671Y-141943797D01*
X341942517Y-141994091D01*
X341942516Y-141994091D01*
X341949444Y-141994835D01*
X342002127Y-142000500D01*
X344497872Y-142000499D01*
X344557483Y-141994091D01*
X344692331Y-141943796D01*
X344807546Y-141857546D01*
X344893796Y-141742331D01*
X344944091Y-141607483D01*
X344950500Y-141547873D01*
X344950499Y-139052128D01*
X344944091Y-138992517D01*
X344893796Y-138857669D01*
X344893795Y-138857668D01*
X344893793Y-138857664D01*
X344807547Y-138742455D01*
X344807544Y-138742452D01*
X344692335Y-138656206D01*
X344692328Y-138656202D01*
X344557482Y-138605908D01*
X344557483Y-138605908D01*
X344497883Y-138599501D01*
X344497881Y-138599500D01*
X344497873Y-138599500D01*
X344497864Y-138599500D01*
X342002129Y-138599500D01*
X342002123Y-138599501D01*
X341942516Y-138605908D01*
X341807671Y-138656202D01*
X341807664Y-138656206D01*
X341692455Y-138742452D01*
X341692452Y-138742455D01*
X341606206Y-138857664D01*
X341606202Y-138857671D01*
X341555908Y-138992517D01*
X341549501Y-139052116D01*
X341549501Y-139052123D01*
X341549500Y-139052135D01*
X341549500Y-141547870D01*
X339799249Y-141547870D01*
X339799249Y-140882128D01*
X339792841Y-140822517D01*
X339742546Y-140687669D01*
X339742545Y-140687668D01*
X339742543Y-140687664D01*
X339656297Y-140572455D01*
X339656294Y-140572452D01*
X339541085Y-140486206D01*
X339541078Y-140486202D01*
X339406232Y-140435908D01*
X339406233Y-140435908D01*
X339346633Y-140429501D01*
X339346631Y-140429500D01*
X339346623Y-140429500D01*
X339346614Y-140429500D01*
X336850879Y-140429500D01*
X336850873Y-140429501D01*
X336791266Y-140435908D01*
X336656421Y-140486202D01*
X336656414Y-140486206D01*
X336541205Y-140572452D01*
X336541202Y-140572455D01*
X336454956Y-140687664D01*
X336454952Y-140687671D01*
X336404658Y-140822517D01*
X336398251Y-140882116D01*
X336398251Y-140882123D01*
X336398250Y-140882135D01*
X336398250Y-143377870D01*
X202928667Y-143377870D01*
X202917560Y-128698097D01*
X204759500Y-128698097D01*
X204796446Y-128931368D01*
X204869433Y-129155996D01*
X204976657Y-129366433D01*
X205115483Y-129557510D01*
X205282490Y-129724517D01*
X205405983Y-129814240D01*
X205444135Y-129841959D01*
X205486800Y-129897289D01*
X205492779Y-129966903D01*
X205460173Y-130028698D01*
X205442373Y-130043852D01*
X205388594Y-130081508D01*
X205221505Y-130248597D01*
X205085965Y-130442169D01*
X205085964Y-130442171D01*
X204986098Y-130656335D01*
X204986094Y-130656344D01*
X204924938Y-130884586D01*
X204924936Y-130884596D01*
X204904341Y-131119999D01*
X204904341Y-131120000D01*
X204924936Y-131355403D01*
X204924938Y-131355413D01*
X204986094Y-131583655D01*
X204986096Y-131583659D01*
X204986097Y-131583663D01*
X205080396Y-131785887D01*
X205085965Y-131797830D01*
X205085967Y-131797834D01*
X205183853Y-131937628D01*
X205213142Y-131979458D01*
X205221501Y-131991395D01*
X205221506Y-131991402D01*
X205388597Y-132158493D01*
X205388603Y-132158498D01*
X205574158Y-132288425D01*
X205617783Y-132343002D01*
X205624977Y-132412500D01*
X205593454Y-132474855D01*
X205574158Y-132491575D01*
X205388597Y-132621505D01*
X205221505Y-132788597D01*
X205085965Y-132982169D01*
X205085964Y-132982171D01*
X204986098Y-133196335D01*
X204986094Y-133196344D01*
X204924938Y-133424586D01*
X204924936Y-133424596D01*
X204904341Y-133659999D01*
X204904341Y-133660000D01*
X204924936Y-133895403D01*
X204924938Y-133895413D01*
X204986094Y-134123655D01*
X204986096Y-134123659D01*
X204986097Y-134123663D01*
X205059569Y-134281223D01*
X205085965Y-134337830D01*
X205085967Y-134337834D01*
X205167381Y-134454104D01*
X205218813Y-134527557D01*
X205221501Y-134531395D01*
X205221506Y-134531402D01*
X205388597Y-134698493D01*
X205388603Y-134698498D01*
X205574158Y-134828425D01*
X205617783Y-134883002D01*
X205624977Y-134952500D01*
X205593454Y-135014855D01*
X205574158Y-135031575D01*
X205388597Y-135161505D01*
X205221505Y-135328597D01*
X205085965Y-135522169D01*
X205085964Y-135522171D01*
X204986098Y-135736335D01*
X204986094Y-135736344D01*
X204924938Y-135964586D01*
X204924936Y-135964596D01*
X204904341Y-136199999D01*
X204904341Y-136200000D01*
X204924936Y-136435403D01*
X204924938Y-136435413D01*
X204986094Y-136663655D01*
X204986096Y-136663659D01*
X204986097Y-136663663D01*
X205031552Y-136761141D01*
X205085965Y-136877830D01*
X205085967Y-136877834D01*
X205194281Y-137032521D01*
X205221505Y-137071401D01*
X205388599Y-137238495D01*
X205485384Y-137306265D01*
X205582165Y-137374032D01*
X205582167Y-137374033D01*
X205582170Y-137374035D01*
X205796337Y-137473903D01*
X206024592Y-137535063D01*
X206201034Y-137550500D01*
X206259999Y-137555659D01*
X206260000Y-137555659D01*
X206260001Y-137555659D01*
X206318966Y-137550500D01*
X206495408Y-137535063D01*
X206723663Y-137473903D01*
X206937830Y-137374035D01*
X207131401Y-137238495D01*
X207253329Y-137116566D01*
X207314648Y-137083084D01*
X207384340Y-137088068D01*
X207440274Y-137129939D01*
X207457189Y-137160917D01*
X207506202Y-137292328D01*
X207506206Y-137292335D01*
X207592452Y-137407544D01*
X207592455Y-137407547D01*
X207707664Y-137493793D01*
X207707671Y-137493797D01*
X207842517Y-137544091D01*
X207842516Y-137544091D01*
X207849444Y-137544835D01*
X207902127Y-137550500D01*
X209697872Y-137550499D01*
X209757483Y-137544091D01*
X209892331Y-137493796D01*
X210007546Y-137407546D01*
X210093796Y-137292331D01*
X210144091Y-137157483D01*
X210150500Y-137097873D01*
X210150499Y-135302128D01*
X210144091Y-135242517D01*
X210142810Y-135239083D01*
X210093797Y-135107671D01*
X210093793Y-135107664D01*
X210007547Y-134992455D01*
X210007544Y-134992452D01*
X209892335Y-134906206D01*
X209892328Y-134906202D01*
X209757482Y-134855908D01*
X209757483Y-134855908D01*
X209697883Y-134849501D01*
X209697881Y-134849500D01*
X209697873Y-134849500D01*
X209697864Y-134849500D01*
X207902129Y-134849500D01*
X207902123Y-134849501D01*
X207842516Y-134855908D01*
X207707671Y-134906202D01*
X207707664Y-134906206D01*
X207592455Y-134992452D01*
X207592452Y-134992455D01*
X207506206Y-135107664D01*
X207506203Y-135107669D01*
X207457189Y-135239083D01*
X207415317Y-135295016D01*
X207349853Y-135319433D01*
X207281580Y-135304581D01*
X207253326Y-135283430D01*
X207131402Y-135161506D01*
X207131396Y-135161501D01*
X206945842Y-135031575D01*
X206902217Y-134976998D01*
X206895023Y-134907500D01*
X206926546Y-134845145D01*
X206945842Y-134828425D01*
X207024707Y-134773203D01*
X207131401Y-134698495D01*
X207298495Y-134531401D01*
X207434035Y-134337830D01*
X207533903Y-134123663D01*
X207595063Y-133895408D01*
X207615659Y-133660000D01*
X207615456Y-133657685D01*
X207608088Y-133573465D01*
X207595063Y-133424592D01*
X207533903Y-133196337D01*
X207434035Y-132982171D01*
X207426645Y-132971616D01*
X207298494Y-132788597D01*
X207131402Y-132621506D01*
X207131396Y-132621501D01*
X206945842Y-132491575D01*
X206902217Y-132436998D01*
X206895023Y-132367500D01*
X206926546Y-132305145D01*
X206945842Y-132288425D01*
X207044417Y-132219402D01*
X207131401Y-132158495D01*
X207298495Y-131991401D01*
X207336148Y-131937625D01*
X207390722Y-131894002D01*
X207460221Y-131886808D01*
X207522576Y-131918330D01*
X207538039Y-131935863D01*
X207655483Y-132097510D01*
X207822490Y-132264517D01*
X208013567Y-132403343D01*
X208079619Y-132436998D01*
X208224003Y-132510566D01*
X208224005Y-132510566D01*
X208224008Y-132510568D01*
X208344412Y-132549689D01*
X208448631Y-132583553D01*
X208681903Y-132620500D01*
X208681908Y-132620500D01*
X216497111Y-132620500D01*
X216564150Y-132640185D01*
X216584792Y-132656819D01*
X216755483Y-132827510D01*
X217209990Y-133282017D01*
X217401066Y-133420843D01*
X217556533Y-133500057D01*
X217611503Y-133528066D01*
X217611505Y-133528066D01*
X217611508Y-133528068D01*
X217731912Y-133567189D01*
X217836131Y-133601053D01*
X218069403Y-133638000D01*
X218069408Y-133638000D01*
X219904551Y-133638000D01*
X219971590Y-133657685D01*
X220017345Y-133710489D01*
X220027289Y-133779647D01*
X219998264Y-133843203D01*
X219942870Y-133879930D01*
X219931993Y-133883465D01*
X219869970Y-133903617D01*
X219745115Y-133967235D01*
X219688820Y-133980750D01*
X218367762Y-133980750D01*
X218329444Y-133974681D01*
X218299070Y-133964812D01*
X218192826Y-133930290D01*
X217998422Y-133899500D01*
X217998417Y-133899500D01*
X217801583Y-133899500D01*
X217801578Y-133899500D01*
X217607173Y-133930290D01*
X217419970Y-133991117D01*
X217244594Y-134080476D01*
X217173815Y-134131901D01*
X217085354Y-134196172D01*
X217085352Y-134196174D01*
X217085351Y-134196174D01*
X216946174Y-134335351D01*
X216946174Y-134335352D01*
X216946172Y-134335354D01*
X216916241Y-134376550D01*
X216830476Y-134494594D01*
X216741117Y-134669970D01*
X216680290Y-134857173D01*
X216649500Y-135051577D01*
X216649500Y-135317172D01*
X216680290Y-135511576D01*
X216741117Y-135698780D01*
X216816143Y-135846025D01*
X216830476Y-135874155D01*
X216946172Y-136033396D01*
X217135355Y-136222579D01*
X217294595Y-136338274D01*
X217469974Y-136427634D01*
X217614828Y-136474699D01*
X217657170Y-136488458D01*
X217657174Y-136488459D01*
X217733364Y-136500526D01*
X217796499Y-136530455D01*
X217801647Y-136535317D01*
X218372860Y-137106531D01*
X218372861Y-137106532D01*
X218446125Y-137179796D01*
X218512219Y-137245890D01*
X218676079Y-137355378D01*
X218676083Y-137355380D01*
X218676086Y-137355382D01*
X218801445Y-137407307D01*
X218858164Y-137430801D01*
X218935027Y-137446090D01*
X218964135Y-137451880D01*
X219051456Y-137469250D01*
X219051459Y-137469250D01*
X219051460Y-137469250D01*
X219248540Y-137469250D01*
X219729395Y-137469250D01*
X219796434Y-137488935D01*
X219842189Y-137541739D01*
X219843939Y-137545759D01*
X219853670Y-137569250D01*
X219863367Y-137592662D01*
X219863371Y-137592669D01*
X219972860Y-137756532D01*
X220112214Y-137895886D01*
X220112218Y-137895889D01*
X220276079Y-138005378D01*
X220276092Y-138005385D01*
X220458160Y-138080799D01*
X220458165Y-138080801D01*
X220458169Y-138080801D01*
X220458170Y-138080802D01*
X220651456Y-138119250D01*
X220651459Y-138119250D01*
X220848543Y-138119250D01*
X220978582Y-138093382D01*
X221041835Y-138080801D01*
X221223914Y-138005382D01*
X221387782Y-137895889D01*
X221527139Y-137756532D01*
X221636632Y-137592664D01*
X221712051Y-137410585D01*
X221735134Y-137294539D01*
X221750500Y-137217293D01*
X221750500Y-136520206D01*
X221728038Y-136407286D01*
X221728038Y-136407285D01*
X221720325Y-136368512D01*
X221712051Y-136326914D01*
X221683128Y-136257089D01*
X221682074Y-136254545D01*
X221636634Y-136144841D01*
X221636632Y-136144836D01*
X221636628Y-136144830D01*
X221634623Y-136141078D01*
X221620384Y-136072674D01*
X221643667Y-136009742D01*
X221652518Y-135997560D01*
X221669523Y-135974155D01*
X221758883Y-135798776D01*
X221819709Y-135611576D01*
X221840031Y-135483264D01*
X221850500Y-135417171D01*
X221850500Y-135220327D01*
X221830765Y-135095728D01*
X221819709Y-135025923D01*
X221758883Y-134838724D01*
X221756494Y-134834035D01*
X221739014Y-134799728D01*
X221725499Y-134743434D01*
X221725499Y-134699998D01*
X221725498Y-134699981D01*
X221714999Y-134597203D01*
X221714998Y-134597200D01*
X221694044Y-134533965D01*
X221659814Y-134430666D01*
X221567712Y-134281344D01*
X221443656Y-134157288D01*
X221337643Y-134091899D01*
X221294336Y-134065187D01*
X221294331Y-134065185D01*
X221255045Y-134052167D01*
X221127797Y-134010001D01*
X221127794Y-134010000D01*
X221039551Y-134000985D01*
X220995859Y-133988112D01*
X220830029Y-133903617D01*
X220768007Y-133883465D01*
X220757129Y-133879930D01*
X220699455Y-133840493D01*
X220672257Y-133776134D01*
X220684172Y-133707288D01*
X220731416Y-133655812D01*
X220795449Y-133638000D01*
X230267470Y-133638000D01*
X230323764Y-133651514D01*
X230345436Y-133662557D01*
X230474003Y-133728066D01*
X230474005Y-133728066D01*
X230474008Y-133728068D01*
X230698632Y-133801053D01*
X230723151Y-133804936D01*
X230728028Y-133805709D01*
X230791163Y-133835638D01*
X230828094Y-133894950D01*
X230827096Y-133964812D01*
X230788486Y-134023045D01*
X230746949Y-134046113D01*
X230701416Y-134060908D01*
X230659026Y-134074681D01*
X230620709Y-134080750D01*
X228601457Y-134080750D01*
X228408170Y-134119197D01*
X228408160Y-134119200D01*
X228226093Y-134194614D01*
X228226084Y-134194619D01*
X228164358Y-134235862D01*
X228136933Y-134249166D01*
X228136970Y-134249255D01*
X228135475Y-134249874D01*
X228133812Y-134250681D01*
X228132486Y-134251112D01*
X228132465Y-134251120D01*
X227957096Y-134340474D01*
X227864491Y-134407757D01*
X227797854Y-134456172D01*
X227797852Y-134456174D01*
X227797851Y-134456174D01*
X227658674Y-134595351D01*
X227658674Y-134595352D01*
X227658672Y-134595354D01*
X227608985Y-134663741D01*
X227542976Y-134754594D01*
X227453617Y-134929970D01*
X227392790Y-135117173D01*
X227362000Y-135311577D01*
X227362000Y-135508422D01*
X227392790Y-135702826D01*
X227453617Y-135890029D01*
X227531506Y-136042893D01*
X227542976Y-136065405D01*
X227658672Y-136224646D01*
X227797854Y-136363828D01*
X227957095Y-136479524D01*
X228014714Y-136508882D01*
X228132470Y-136568882D01*
X228132472Y-136568882D01*
X228132475Y-136568884D01*
X228191548Y-136588078D01*
X228319673Y-136629709D01*
X228514078Y-136660500D01*
X228514083Y-136660500D01*
X228525468Y-136660500D01*
X228592507Y-136680185D01*
X228613148Y-136696818D01*
X229122860Y-137206531D01*
X229122861Y-137206532D01*
X229193321Y-137276992D01*
X229262219Y-137345890D01*
X229426079Y-137455378D01*
X229426083Y-137455380D01*
X229426086Y-137455382D01*
X229546795Y-137505381D01*
X229608164Y-137530801D01*
X229677481Y-137544589D01*
X229707187Y-137550498D01*
X229801456Y-137569250D01*
X229801459Y-137569250D01*
X229801460Y-137569250D01*
X229998540Y-137569250D01*
X230479395Y-137569250D01*
X230546434Y-137588935D01*
X230592189Y-137641739D01*
X230593939Y-137645759D01*
X230609756Y-137683943D01*
X230613367Y-137692662D01*
X230613371Y-137692669D01*
X230722860Y-137856532D01*
X230862214Y-137995886D01*
X230862218Y-137995889D01*
X231026079Y-138105378D01*
X231026092Y-138105385D01*
X231208160Y-138180799D01*
X231208165Y-138180801D01*
X231208169Y-138180801D01*
X231208170Y-138180802D01*
X231401456Y-138219250D01*
X231401459Y-138219250D01*
X231598543Y-138219250D01*
X231728582Y-138193382D01*
X231791835Y-138180801D01*
X231973914Y-138105382D01*
X232137782Y-137995889D01*
X232277139Y-137856532D01*
X232386632Y-137692664D01*
X232462051Y-137510585D01*
X232477939Y-137430714D01*
X232500500Y-137317293D01*
X232500500Y-136620208D01*
X232500499Y-136620205D01*
X232474965Y-136491835D01*
X232472516Y-136479523D01*
X232462051Y-136426914D01*
X232460624Y-136423470D01*
X232437154Y-136366807D01*
X232420465Y-136326516D01*
X232386632Y-136244836D01*
X232386629Y-136244832D01*
X232384626Y-136241083D01*
X232370384Y-136172680D01*
X232393665Y-136109745D01*
X232419524Y-136074155D01*
X232508884Y-135898776D01*
X232569709Y-135711576D01*
X232571736Y-135698776D01*
X232600500Y-135517172D01*
X232600500Y-135320328D01*
X232569709Y-135125923D01*
X232526341Y-134992452D01*
X232508884Y-134938724D01*
X232508882Y-134938721D01*
X232508882Y-134938719D01*
X232449457Y-134822092D01*
X232419524Y-134763345D01*
X232401902Y-134739091D01*
X232384515Y-134705210D01*
X232359814Y-134630666D01*
X232267712Y-134481344D01*
X232143656Y-134357288D01*
X231994334Y-134265186D01*
X231994332Y-134265185D01*
X231994330Y-134265184D01*
X231994329Y-134265183D01*
X231928436Y-134243348D01*
X231894557Y-134225962D01*
X231849155Y-134192976D01*
X231849153Y-134192975D01*
X231673780Y-134103617D01*
X231623782Y-134087372D01*
X231600878Y-134079930D01*
X231543205Y-134040493D01*
X231516007Y-133976135D01*
X231527922Y-133907288D01*
X231575166Y-133855812D01*
X231639199Y-133838000D01*
X238922227Y-133838000D01*
X238989266Y-133857685D01*
X239035021Y-133910489D01*
X239044965Y-133979647D01*
X239015940Y-134043203D01*
X238969680Y-134076561D01*
X238926089Y-134094616D01*
X238926079Y-134094622D01*
X238855676Y-134141662D01*
X238843084Y-134149042D01*
X238744597Y-134199224D01*
X238681059Y-134245388D01*
X238585354Y-134314922D01*
X238585352Y-134314924D01*
X238585351Y-134314924D01*
X238446174Y-134454101D01*
X238446174Y-134454102D01*
X238446172Y-134454104D01*
X238406991Y-134508032D01*
X238330476Y-134613344D01*
X238241117Y-134788719D01*
X238180290Y-134975923D01*
X238149500Y-135170327D01*
X238149500Y-135367172D01*
X238180290Y-135561576D01*
X238241117Y-135748780D01*
X238317545Y-135898776D01*
X238330476Y-135924155D01*
X238446172Y-136083396D01*
X238666604Y-136303828D01*
X238825845Y-136419524D01*
X239001224Y-136508884D01*
X239150187Y-136557285D01*
X239185879Y-136568882D01*
X239188424Y-136569709D01*
X239264614Y-136581776D01*
X239327749Y-136611705D01*
X239332897Y-136616567D01*
X239822860Y-137106531D01*
X239822861Y-137106532D01*
X239896125Y-137179796D01*
X239962219Y-137245890D01*
X240126079Y-137355378D01*
X240126083Y-137355380D01*
X240126086Y-137355382D01*
X240251445Y-137407307D01*
X240308164Y-137430801D01*
X240385027Y-137446090D01*
X240414135Y-137451880D01*
X240501456Y-137469250D01*
X240501459Y-137469250D01*
X240501460Y-137469250D01*
X240698540Y-137469250D01*
X241179395Y-137469250D01*
X241246434Y-137488935D01*
X241292189Y-137541739D01*
X241293939Y-137545759D01*
X241303670Y-137569250D01*
X241313367Y-137592662D01*
X241313371Y-137592669D01*
X241422860Y-137756532D01*
X241562214Y-137895886D01*
X241562218Y-137895889D01*
X241726079Y-138005378D01*
X241726092Y-138005385D01*
X241908160Y-138080799D01*
X241908165Y-138080801D01*
X241908169Y-138080801D01*
X241908170Y-138080802D01*
X242101456Y-138119250D01*
X242101459Y-138119250D01*
X242298543Y-138119250D01*
X242428582Y-138093382D01*
X242491835Y-138080801D01*
X242673914Y-138005382D01*
X242837782Y-137895889D01*
X242977139Y-137756532D01*
X243086632Y-137592664D01*
X243162051Y-137410585D01*
X243185134Y-137294539D01*
X243200500Y-137217293D01*
X243200500Y-136520206D01*
X243178038Y-136407286D01*
X243178038Y-136407285D01*
X243170325Y-136368512D01*
X243162051Y-136326914D01*
X243133128Y-136257089D01*
X243132074Y-136254545D01*
X243086632Y-136144836D01*
X243084629Y-136141090D01*
X243070383Y-136072688D01*
X243093666Y-136009745D01*
X243119524Y-135974156D01*
X243208884Y-135798776D01*
X243269709Y-135611577D01*
X243274431Y-135581762D01*
X243300500Y-135417172D01*
X243300500Y-135220328D01*
X243276415Y-135068265D01*
X243269709Y-135025924D01*
X243228071Y-134897778D01*
X243222646Y-134872067D01*
X243214999Y-134797203D01*
X243159814Y-134630666D01*
X243067712Y-134481344D01*
X242943656Y-134357288D01*
X242794334Y-134265186D01*
X242794332Y-134265185D01*
X242794330Y-134265184D01*
X242794329Y-134265183D01*
X242728436Y-134243348D01*
X242694557Y-134225962D01*
X242649155Y-134192976D01*
X242649153Y-134192975D01*
X242473780Y-134103617D01*
X242286577Y-134042791D01*
X242239251Y-134035295D01*
X242176117Y-134005365D01*
X242139186Y-133946053D01*
X242140184Y-133876191D01*
X242178795Y-133817958D01*
X242220331Y-133794891D01*
X242425992Y-133728068D01*
X242636433Y-133620843D01*
X242827510Y-133482017D01*
X242994517Y-133315010D01*
X243133343Y-133123933D01*
X243240568Y-132913492D01*
X243313553Y-132688868D01*
X243318089Y-132660228D01*
X243350500Y-132455597D01*
X243350500Y-132219402D01*
X243313553Y-131986131D01*
X243275753Y-131869796D01*
X248699499Y-131869796D01*
X248719053Y-131968092D01*
X248719053Y-131968093D01*
X248724496Y-131995462D01*
X248724498Y-131995467D01*
X248724499Y-131995469D01*
X248773535Y-132113852D01*
X248844723Y-132220394D01*
X248844726Y-132220398D01*
X248844727Y-132220399D01*
X249844622Y-133220293D01*
X249878107Y-133281616D01*
X249876716Y-133340065D01*
X249857269Y-133412646D01*
X249857269Y-133412647D01*
X249836673Y-133648056D01*
X249836673Y-133648057D01*
X249857268Y-133883460D01*
X249857270Y-133883470D01*
X249918426Y-134111712D01*
X249918428Y-134111716D01*
X249918429Y-134111720D01*
X249984454Y-134253311D01*
X250018297Y-134325887D01*
X250018299Y-134325891D01*
X250109525Y-134456174D01*
X250150267Y-134514360D01*
X250153833Y-134519452D01*
X250153838Y-134519459D01*
X250320929Y-134686550D01*
X250320935Y-134686555D01*
X250506490Y-134816482D01*
X250550115Y-134871059D01*
X250557309Y-134940557D01*
X250525786Y-135002912D01*
X250506490Y-135019632D01*
X250320929Y-135149562D01*
X250153837Y-135316654D01*
X250018297Y-135510226D01*
X250018296Y-135510228D01*
X249930375Y-135698776D01*
X249919800Y-135721455D01*
X249918430Y-135724392D01*
X249918426Y-135724401D01*
X249857270Y-135952643D01*
X249857268Y-135952653D01*
X249836673Y-136188056D01*
X249836673Y-136188057D01*
X249857268Y-136423460D01*
X249857270Y-136423470D01*
X249918426Y-136651712D01*
X249918428Y-136651716D01*
X249918429Y-136651720D01*
X250004146Y-136835540D01*
X250018297Y-136865887D01*
X250018299Y-136865891D01*
X250115417Y-137004589D01*
X250153837Y-137059458D01*
X250320931Y-137226552D01*
X250408802Y-137288080D01*
X250514497Y-137362089D01*
X250514499Y-137362090D01*
X250514502Y-137362092D01*
X250728669Y-137461960D01*
X250728675Y-137461961D01*
X250728676Y-137461962D01*
X250755876Y-137469250D01*
X250956924Y-137523120D01*
X251133366Y-137538557D01*
X251192331Y-137543716D01*
X251192332Y-137543716D01*
X251192333Y-137543716D01*
X251251298Y-137538557D01*
X251427740Y-137523120D01*
X251655995Y-137461960D01*
X251870162Y-137362092D01*
X252063733Y-137226552D01*
X252185661Y-137104623D01*
X252246980Y-137071141D01*
X252316672Y-137076125D01*
X252372606Y-137117996D01*
X252389521Y-137148974D01*
X252438534Y-137280385D01*
X252438538Y-137280392D01*
X252524784Y-137395601D01*
X252524787Y-137395604D01*
X252639996Y-137481850D01*
X252640003Y-137481854D01*
X252774849Y-137532148D01*
X252774848Y-137532148D01*
X252781776Y-137532892D01*
X252834459Y-137538557D01*
X254630204Y-137538556D01*
X254689815Y-137532148D01*
X254824663Y-137481853D01*
X254939878Y-137395603D01*
X255026128Y-137280388D01*
X255076423Y-137145540D01*
X255082832Y-137085930D01*
X255082831Y-135321394D01*
X261331832Y-135321394D01*
X261331833Y-135321412D01*
X261341982Y-135420764D01*
X261341983Y-135420767D01*
X261395328Y-135581751D01*
X261395333Y-135581762D01*
X261484361Y-135726097D01*
X261484364Y-135726101D01*
X261604287Y-135846024D01*
X261604291Y-135846027D01*
X261748626Y-135935055D01*
X261748629Y-135935056D01*
X261748635Y-135935060D01*
X261909624Y-135988406D01*
X261954157Y-135992955D01*
X262018848Y-136019350D01*
X262029236Y-136028632D01*
X263005192Y-137004588D01*
X263005193Y-137004589D01*
X263076729Y-137076125D01*
X263144551Y-137143947D01*
X263274427Y-137230727D01*
X263308418Y-137253439D01*
X263416011Y-137298005D01*
X263490496Y-137328858D01*
X263553232Y-137341337D01*
X263585871Y-137347829D01*
X263683788Y-137367307D01*
X263683791Y-137367307D01*
X263683792Y-137367307D01*
X263880872Y-137367307D01*
X264361727Y-137367307D01*
X264428766Y-137386992D01*
X264474521Y-137439796D01*
X264476271Y-137443816D01*
X264483787Y-137461960D01*
X264495699Y-137490719D01*
X264495703Y-137490726D01*
X264605192Y-137654589D01*
X264744546Y-137793943D01*
X264744550Y-137793946D01*
X264908411Y-137903435D01*
X264908424Y-137903442D01*
X265062610Y-137967307D01*
X265090497Y-137978858D01*
X265090501Y-137978858D01*
X265090502Y-137978859D01*
X265283788Y-138017307D01*
X265283791Y-138017307D01*
X265480875Y-138017307D01*
X265610914Y-137991439D01*
X265674167Y-137978858D01*
X265856246Y-137903439D01*
X266020114Y-137793946D01*
X266159471Y-137654589D01*
X266268964Y-137490721D01*
X266272639Y-137481850D01*
X266289672Y-137440726D01*
X266344383Y-137308642D01*
X266360313Y-137228556D01*
X266382832Y-137115350D01*
X266382832Y-136418265D01*
X266382831Y-136418262D01*
X266366920Y-136338273D01*
X266357521Y-136291018D01*
X266344383Y-136224971D01*
X266311190Y-136144836D01*
X266268964Y-136042893D01*
X266253728Y-136020091D01*
X266232852Y-135953414D01*
X266232832Y-135951202D01*
X266232832Y-135361394D01*
X272139332Y-135361394D01*
X272139333Y-135361412D01*
X272149482Y-135460764D01*
X272149483Y-135460767D01*
X272202828Y-135621751D01*
X272202833Y-135621762D01*
X272291861Y-135766097D01*
X272291864Y-135766101D01*
X272411787Y-135886024D01*
X272411791Y-135886027D01*
X272556126Y-135975055D01*
X272556129Y-135975056D01*
X272556135Y-135975060D01*
X272707006Y-136025053D01*
X272755682Y-136055077D01*
X273805192Y-137104588D01*
X273805193Y-137104589D01*
X273880400Y-137179796D01*
X273944551Y-137243947D01*
X274090306Y-137341337D01*
X274108418Y-137353439D01*
X274216011Y-137398005D01*
X274290496Y-137428858D01*
X274377127Y-137446090D01*
X274403793Y-137451394D01*
X274483788Y-137467307D01*
X274483791Y-137467307D01*
X274483792Y-137467307D01*
X274680872Y-137467307D01*
X275161727Y-137467307D01*
X275228766Y-137486992D01*
X275274521Y-137539796D01*
X275276271Y-137543816D01*
X275286807Y-137569250D01*
X275295699Y-137590719D01*
X275295703Y-137590726D01*
X275405192Y-137754589D01*
X275544546Y-137893943D01*
X275544550Y-137893946D01*
X275708411Y-138003435D01*
X275708424Y-138003442D01*
X275890492Y-138078856D01*
X275890497Y-138078858D01*
X275890501Y-138078858D01*
X275890502Y-138078859D01*
X276083788Y-138117307D01*
X276083791Y-138117307D01*
X276280875Y-138117307D01*
X276410914Y-138091439D01*
X276474167Y-138078858D01*
X276656246Y-138003439D01*
X276820114Y-137893946D01*
X276959471Y-137754589D01*
X277068964Y-137590721D01*
X277144383Y-137408642D01*
X277164274Y-137308646D01*
X277182832Y-137215350D01*
X277182832Y-136518263D01*
X277160757Y-136407286D01*
X277156975Y-136388274D01*
X277144383Y-136324971D01*
X277119828Y-136265691D01*
X277115222Y-136254570D01*
X277115210Y-136254543D01*
X277068967Y-136142899D01*
X277068965Y-136142896D01*
X277068964Y-136142893D01*
X277053728Y-136120091D01*
X277032852Y-136053414D01*
X277032832Y-136051202D01*
X277032832Y-135383894D01*
X282981832Y-135383894D01*
X282981833Y-135383912D01*
X282991982Y-135483264D01*
X282991983Y-135483267D01*
X283045328Y-135644251D01*
X283045333Y-135644262D01*
X283134361Y-135788597D01*
X283134364Y-135788601D01*
X283254287Y-135908524D01*
X283254291Y-135908527D01*
X283398626Y-135997555D01*
X283398629Y-135997556D01*
X283398635Y-135997560D01*
X283559624Y-136050906D01*
X283658987Y-136061057D01*
X283660274Y-136061056D01*
X283660543Y-136061135D01*
X283662136Y-136061217D01*
X283662116Y-136061597D01*
X283727315Y-136080726D01*
X283747979Y-136097374D01*
X284605192Y-136954588D01*
X284605193Y-136954589D01*
X284684550Y-137033946D01*
X284744551Y-137093947D01*
X284819380Y-137143946D01*
X284908418Y-137203439D01*
X285017549Y-137248642D01*
X285090496Y-137278858D01*
X285169330Y-137294539D01*
X285186755Y-137298005D01*
X285283788Y-137317307D01*
X285283791Y-137317307D01*
X285283792Y-137317307D01*
X285480872Y-137317307D01*
X285961727Y-137317307D01*
X286028766Y-137336992D01*
X286074521Y-137389796D01*
X286076271Y-137393816D01*
X286090786Y-137428857D01*
X286095699Y-137440719D01*
X286095703Y-137440726D01*
X286205192Y-137604589D01*
X286344546Y-137743943D01*
X286344550Y-137743946D01*
X286508411Y-137853435D01*
X286508424Y-137853442D01*
X286666357Y-137918859D01*
X286690497Y-137928858D01*
X286690501Y-137928858D01*
X286690502Y-137928859D01*
X286883788Y-137967307D01*
X286883791Y-137967307D01*
X287080875Y-137967307D01*
X287210914Y-137941439D01*
X287274167Y-137928858D01*
X287456246Y-137853439D01*
X287620114Y-137743946D01*
X287759471Y-137604589D01*
X287868964Y-137440721D01*
X287944383Y-137258642D01*
X287967299Y-137143439D01*
X287982832Y-137065350D01*
X287982832Y-136368263D01*
X287951598Y-136211242D01*
X287944383Y-136174971D01*
X287913536Y-136100500D01*
X287868964Y-135992893D01*
X287853728Y-135970091D01*
X287832852Y-135903414D01*
X287832832Y-135901202D01*
X287832832Y-135068265D01*
X287832831Y-135068262D01*
X287830866Y-135058385D01*
X287824607Y-135026915D01*
X287810214Y-134954560D01*
X287807831Y-134930368D01*
X287807831Y-134510555D01*
X287807830Y-134510538D01*
X287797331Y-134407760D01*
X287797330Y-134407757D01*
X287784823Y-134370013D01*
X287742146Y-134241223D01*
X287650044Y-134091901D01*
X287525988Y-133967845D01*
X287418459Y-133901521D01*
X287376668Y-133875744D01*
X287376663Y-133875742D01*
X287346485Y-133865742D01*
X287210129Y-133820558D01*
X287210127Y-133820557D01*
X287107342Y-133810057D01*
X285757330Y-133810057D01*
X285757313Y-133810058D01*
X285654535Y-133820557D01*
X285654530Y-133820559D01*
X285648637Y-133822512D01*
X285609631Y-133828807D01*
X284083789Y-133828807D01*
X283890502Y-133867254D01*
X283890492Y-133867257D01*
X283708424Y-133942671D01*
X283708411Y-133942678D01*
X283544550Y-134052167D01*
X283544546Y-134052170D01*
X283405197Y-134191519D01*
X283405195Y-134191522D01*
X283388392Y-134216668D01*
X283350390Y-134253311D01*
X283254288Y-134312588D01*
X283134361Y-134432516D01*
X283045333Y-134576851D01*
X283045328Y-134576862D01*
X282991983Y-134737847D01*
X282981833Y-134837202D01*
X282981832Y-134837217D01*
X282981832Y-135383894D01*
X277032832Y-135383894D01*
X277032832Y-135218266D01*
X277032831Y-135218263D01*
X277028929Y-135198643D01*
X277023298Y-135170333D01*
X276994383Y-135024971D01*
X276967270Y-134959515D01*
X276957831Y-134912062D01*
X276957831Y-134448055D01*
X276957830Y-134448038D01*
X276947331Y-134345260D01*
X276947330Y-134345257D01*
X276936505Y-134312589D01*
X276892146Y-134178723D01*
X276800044Y-134029401D01*
X276675988Y-133905345D01*
X276562974Y-133835638D01*
X276526668Y-133813244D01*
X276526663Y-133813242D01*
X276509190Y-133807452D01*
X276360129Y-133758058D01*
X276360127Y-133758057D01*
X276257342Y-133747557D01*
X274907330Y-133747557D01*
X274907313Y-133747558D01*
X274804535Y-133758057D01*
X274804532Y-133758058D01*
X274638000Y-133813242D01*
X274637995Y-133813244D01*
X274488674Y-133905346D01*
X274451533Y-133942488D01*
X274390210Y-133975973D01*
X274363852Y-133978807D01*
X273283789Y-133978807D01*
X273090502Y-134017254D01*
X273090492Y-134017257D01*
X272908420Y-134092673D01*
X272871338Y-134117450D01*
X272815052Y-134137704D01*
X272717123Y-134147708D01*
X272717121Y-134147708D01*
X272556137Y-134201053D01*
X272556126Y-134201058D01*
X272411791Y-134290086D01*
X272411787Y-134290089D01*
X272291864Y-134410012D01*
X272291861Y-134410016D01*
X272202833Y-134554351D01*
X272202828Y-134554362D01*
X272149483Y-134715347D01*
X272139332Y-134814704D01*
X272139332Y-135361394D01*
X266232832Y-135361394D01*
X266232832Y-135118264D01*
X266224792Y-135077848D01*
X266224792Y-135077846D01*
X266205431Y-134980512D01*
X266194383Y-134924971D01*
X266167270Y-134859515D01*
X266157831Y-134812062D01*
X266157831Y-134448055D01*
X266157830Y-134448038D01*
X266147331Y-134345260D01*
X266147330Y-134345257D01*
X266136505Y-134312589D01*
X266092146Y-134178723D01*
X266000044Y-134029401D01*
X265875988Y-133905345D01*
X265762974Y-133835638D01*
X265726668Y-133813244D01*
X265726663Y-133813242D01*
X265709190Y-133807452D01*
X265560129Y-133758058D01*
X265560127Y-133758057D01*
X265457342Y-133747557D01*
X264107330Y-133747557D01*
X264107313Y-133747558D01*
X264004535Y-133758057D01*
X264004532Y-133758058D01*
X263838000Y-133813242D01*
X263837991Y-133813246D01*
X263761631Y-133860346D01*
X263696535Y-133878807D01*
X262483789Y-133878807D01*
X262290502Y-133917254D01*
X262290492Y-133917257D01*
X262108424Y-133992671D01*
X262108411Y-133992678D01*
X261966693Y-134087372D01*
X261916097Y-134105580D01*
X261916249Y-134106290D01*
X261911004Y-134107412D01*
X261910407Y-134107628D01*
X261909629Y-134107707D01*
X261909622Y-134107708D01*
X261748637Y-134161053D01*
X261748626Y-134161058D01*
X261604291Y-134250086D01*
X261604287Y-134250089D01*
X261484364Y-134370012D01*
X261484361Y-134370016D01*
X261395333Y-134514351D01*
X261395328Y-134514362D01*
X261341983Y-134675347D01*
X261331832Y-134774704D01*
X261331832Y-135321394D01*
X255082831Y-135321394D01*
X255082831Y-135290185D01*
X255076423Y-135230574D01*
X255075142Y-135227140D01*
X255026129Y-135095728D01*
X255026125Y-135095721D01*
X254939879Y-134980512D01*
X254939876Y-134980509D01*
X254824667Y-134894263D01*
X254824660Y-134894259D01*
X254689814Y-134843965D01*
X254689815Y-134843965D01*
X254630215Y-134837558D01*
X254630213Y-134837557D01*
X254630205Y-134837557D01*
X254630196Y-134837557D01*
X252834461Y-134837557D01*
X252834455Y-134837558D01*
X252774848Y-134843965D01*
X252640003Y-134894259D01*
X252639996Y-134894263D01*
X252524787Y-134980509D01*
X252524784Y-134980512D01*
X252438538Y-135095721D01*
X252438535Y-135095726D01*
X252389521Y-135227140D01*
X252347649Y-135283073D01*
X252282185Y-135307490D01*
X252213912Y-135292638D01*
X252185658Y-135271487D01*
X252063734Y-135149563D01*
X252063728Y-135149558D01*
X251878174Y-135019632D01*
X251834549Y-134965055D01*
X251827355Y-134895557D01*
X251858878Y-134833202D01*
X251878174Y-134816482D01*
X251917816Y-134788724D01*
X252063733Y-134686552D01*
X252230827Y-134519458D01*
X252366367Y-134325887D01*
X252466235Y-134111720D01*
X252527395Y-133883465D01*
X252547991Y-133648057D01*
X252527395Y-133412649D01*
X252473527Y-133211610D01*
X252466237Y-133184401D01*
X252466236Y-133184400D01*
X252466235Y-133184394D01*
X252366367Y-132970228D01*
X252326641Y-132913492D01*
X252230826Y-132776654D01*
X252063734Y-132609563D01*
X252063728Y-132609558D01*
X251878174Y-132479632D01*
X251834549Y-132425055D01*
X251827355Y-132355557D01*
X251858878Y-132293202D01*
X251878174Y-132276482D01*
X251912322Y-132252571D01*
X252063733Y-132146552D01*
X252230827Y-131979458D01*
X252268480Y-131925682D01*
X252323054Y-131882059D01*
X252392553Y-131874865D01*
X252454908Y-131906387D01*
X252470371Y-131923920D01*
X252587815Y-132085567D01*
X252754822Y-132252574D01*
X252945899Y-132391400D01*
X253011951Y-132425055D01*
X253156335Y-132498623D01*
X253156337Y-132498623D01*
X253156340Y-132498625D01*
X253193097Y-132510568D01*
X253380963Y-132571610D01*
X253614235Y-132608557D01*
X253614240Y-132608557D01*
X261119442Y-132608557D01*
X261186481Y-132628242D01*
X261207123Y-132644876D01*
X261454822Y-132892575D01*
X261616823Y-133010275D01*
X261626879Y-133017581D01*
X261645897Y-133031399D01*
X261856335Y-133138623D01*
X261856337Y-133138623D01*
X261856340Y-133138625D01*
X261952228Y-133169781D01*
X262080963Y-133211610D01*
X262314235Y-133248557D01*
X262314240Y-133248557D01*
X286350429Y-133248557D01*
X286456458Y-133231762D01*
X286583700Y-133211610D01*
X286703163Y-133172793D01*
X286722078Y-133168253D01*
X286725159Y-133167766D01*
X286912358Y-133106941D01*
X287078197Y-133022441D01*
X287121887Y-133009570D01*
X287210129Y-133000556D01*
X287376666Y-132945371D01*
X287525988Y-132853269D01*
X287650044Y-132729213D01*
X287742146Y-132579891D01*
X287797331Y-132413354D01*
X287807832Y-132310566D01*
X287807831Y-131585549D01*
X287807638Y-131583664D01*
X287806221Y-131569795D01*
X293249500Y-131569795D01*
X293252634Y-131585549D01*
X293269325Y-131669459D01*
X293272354Y-131684683D01*
X293272355Y-131684693D01*
X293272356Y-131684693D01*
X293274498Y-131695469D01*
X293274499Y-131695470D01*
X293323533Y-131813850D01*
X293394726Y-131920398D01*
X293394727Y-131920399D01*
X294384622Y-132910293D01*
X294418107Y-132971616D01*
X294416716Y-133030065D01*
X294397269Y-133102646D01*
X294397269Y-133102647D01*
X294376673Y-133338056D01*
X294376673Y-133338057D01*
X294397268Y-133573460D01*
X294397270Y-133573470D01*
X294458426Y-133801712D01*
X294458428Y-133801716D01*
X294458429Y-133801720D01*
X294554547Y-134007845D01*
X294558297Y-134015887D01*
X294558299Y-134015891D01*
X294639531Y-134131901D01*
X294687952Y-134201054D01*
X294693833Y-134209452D01*
X294693838Y-134209459D01*
X294860929Y-134376550D01*
X294860935Y-134376555D01*
X295046490Y-134506482D01*
X295090115Y-134561059D01*
X295097309Y-134630557D01*
X295065786Y-134692912D01*
X295046490Y-134709632D01*
X294860929Y-134839562D01*
X294693837Y-135006654D01*
X294558297Y-135200226D01*
X294558296Y-135200228D01*
X294458430Y-135414392D01*
X294458426Y-135414401D01*
X294397270Y-135642643D01*
X294397268Y-135642653D01*
X294376673Y-135878056D01*
X294376673Y-135878057D01*
X294397268Y-136113460D01*
X294397270Y-136113470D01*
X294458426Y-136341712D01*
X294458428Y-136341716D01*
X294458429Y-136341720D01*
X294558297Y-136555887D01*
X294558299Y-136555891D01*
X294633763Y-136663664D01*
X294693837Y-136749458D01*
X294860931Y-136916552D01*
X294957716Y-136984322D01*
X295054497Y-137052089D01*
X295054499Y-137052090D01*
X295054502Y-137052092D01*
X295268669Y-137151960D01*
X295268675Y-137151961D01*
X295268676Y-137151962D01*
X295289281Y-137157483D01*
X295496924Y-137213120D01*
X295673366Y-137228557D01*
X295732331Y-137233716D01*
X295732332Y-137233716D01*
X295732333Y-137233716D01*
X295791298Y-137228557D01*
X295967740Y-137213120D01*
X296195995Y-137151960D01*
X296410162Y-137052092D01*
X296603733Y-136916552D01*
X296725661Y-136794623D01*
X296786980Y-136761141D01*
X296856672Y-136766125D01*
X296912606Y-136807996D01*
X296929521Y-136838974D01*
X296978534Y-136970385D01*
X296978538Y-136970392D01*
X297064784Y-137085601D01*
X297064786Y-137085603D01*
X297179996Y-137171850D01*
X297180003Y-137171854D01*
X297314849Y-137222148D01*
X297314848Y-137222148D01*
X297321776Y-137222892D01*
X297374459Y-137228557D01*
X299170204Y-137228556D01*
X299229815Y-137222148D01*
X299364663Y-137171853D01*
X299479878Y-137085603D01*
X299566128Y-136970388D01*
X299616423Y-136835540D01*
X299622832Y-136775930D01*
X299622831Y-135155229D01*
X305621832Y-135155229D01*
X305652622Y-135349633D01*
X305713449Y-135536836D01*
X305768186Y-135644262D01*
X305802808Y-135712212D01*
X305918504Y-135871453D01*
X306057686Y-136010635D01*
X306216927Y-136126331D01*
X306292761Y-136164970D01*
X306392302Y-136215689D01*
X306392304Y-136215689D01*
X306392307Y-136215691D01*
X306546184Y-136265689D01*
X306579506Y-136276516D01*
X306655696Y-136288583D01*
X306718831Y-136318512D01*
X306723979Y-136323374D01*
X307295192Y-136894588D01*
X307295193Y-136894589D01*
X307370989Y-136970385D01*
X307434551Y-137033947D01*
X307556377Y-137115348D01*
X307598418Y-137143439D01*
X307717259Y-137192664D01*
X307780496Y-137218858D01*
X307877144Y-137238082D01*
X307916391Y-137245889D01*
X307973790Y-137257307D01*
X307973791Y-137257307D01*
X307973792Y-137257307D01*
X308170872Y-137257307D01*
X308651727Y-137257307D01*
X308718766Y-137276992D01*
X308764521Y-137329796D01*
X308766271Y-137333816D01*
X308777984Y-137362092D01*
X308785699Y-137380719D01*
X308785703Y-137380726D01*
X308895192Y-137544588D01*
X308895195Y-137544592D01*
X309034546Y-137683943D01*
X309034550Y-137683946D01*
X309198411Y-137793435D01*
X309198424Y-137793442D01*
X309350739Y-137856532D01*
X309380497Y-137868858D01*
X309380501Y-137868858D01*
X309380502Y-137868859D01*
X309573788Y-137907307D01*
X309573791Y-137907307D01*
X309770875Y-137907307D01*
X309900914Y-137881439D01*
X309964167Y-137868858D01*
X310146246Y-137793439D01*
X310310114Y-137683946D01*
X310449471Y-137544589D01*
X310558964Y-137380721D01*
X310570265Y-137353439D01*
X310585231Y-137317307D01*
X310634383Y-137198642D01*
X310653092Y-137104588D01*
X310672832Y-137005350D01*
X310672832Y-136308263D01*
X310642035Y-136153439D01*
X310634383Y-136114971D01*
X310602087Y-136037003D01*
X310600593Y-136033397D01*
X310559862Y-135935060D01*
X310558964Y-135932893D01*
X310558960Y-135932887D01*
X310556961Y-135929147D01*
X310542715Y-135860745D01*
X310565998Y-135797802D01*
X310591856Y-135762213D01*
X310681216Y-135586833D01*
X310742041Y-135399634D01*
X310744534Y-135383894D01*
X310772832Y-135205229D01*
X310772832Y-135008385D01*
X310772332Y-135005229D01*
X316421832Y-135005229D01*
X316452622Y-135199633D01*
X316513449Y-135386836D01*
X316579859Y-135517172D01*
X316602808Y-135562212D01*
X316718504Y-135721453D01*
X316857686Y-135860635D01*
X317016927Y-135976331D01*
X317058582Y-135997555D01*
X317192302Y-136065689D01*
X317192304Y-136065689D01*
X317192307Y-136065691D01*
X317359735Y-136120092D01*
X317379506Y-136126516D01*
X317455696Y-136138583D01*
X317518831Y-136168512D01*
X317523979Y-136173374D01*
X318095192Y-136744588D01*
X318095193Y-136744589D01*
X318183324Y-136832720D01*
X318234551Y-136883947D01*
X318250478Y-136894589D01*
X318398418Y-136993439D01*
X318517259Y-137042664D01*
X318580496Y-137068858D01*
X318664679Y-137085603D01*
X318691957Y-137091029D01*
X318773788Y-137107307D01*
X318773791Y-137107307D01*
X318773792Y-137107307D01*
X318970872Y-137107307D01*
X319451727Y-137107307D01*
X319518766Y-137126992D01*
X319564521Y-137179796D01*
X319566271Y-137183816D01*
X319579333Y-137215350D01*
X319585699Y-137230719D01*
X319585703Y-137230726D01*
X319695192Y-137394589D01*
X319834546Y-137533943D01*
X319834550Y-137533946D01*
X319998411Y-137643435D01*
X319998424Y-137643442D01*
X320117273Y-137692670D01*
X320180497Y-137718858D01*
X320180501Y-137718858D01*
X320180502Y-137718859D01*
X320373788Y-137757307D01*
X320373791Y-137757307D01*
X320570875Y-137757307D01*
X320700914Y-137731439D01*
X320764167Y-137718858D01*
X320919330Y-137654588D01*
X320946239Y-137643442D01*
X320946239Y-137643441D01*
X320946246Y-137643439D01*
X321110114Y-137533946D01*
X321249471Y-137394589D01*
X321358964Y-137230721D01*
X321370265Y-137203439D01*
X321383349Y-137171850D01*
X321434383Y-137048642D01*
X321449949Y-136970388D01*
X321472832Y-136855350D01*
X321472832Y-136158265D01*
X321472831Y-136158262D01*
X321471871Y-136153438D01*
X321447521Y-136031018D01*
X321447001Y-136028406D01*
X321434385Y-135964977D01*
X321434383Y-135964972D01*
X321434227Y-135964596D01*
X321404432Y-135892664D01*
X321398696Y-135878817D01*
X321358966Y-135782898D01*
X321358964Y-135782893D01*
X321358960Y-135782887D01*
X321356961Y-135779147D01*
X321342715Y-135710745D01*
X321365998Y-135647802D01*
X321391856Y-135612213D01*
X321481216Y-135436833D01*
X321542041Y-135249634D01*
X321543712Y-135239083D01*
X321565903Y-135098979D01*
X327171832Y-135098979D01*
X327202622Y-135293383D01*
X327263449Y-135480586D01*
X327346847Y-135644262D01*
X327352808Y-135655962D01*
X327468504Y-135815203D01*
X327607686Y-135954385D01*
X327704952Y-136025053D01*
X327766925Y-136070080D01*
X327766927Y-136070081D01*
X327770817Y-136072063D01*
X327787406Y-136082229D01*
X327885419Y-136153439D01*
X327916927Y-136176331D01*
X328092306Y-136265691D01*
X328237160Y-136312756D01*
X328279502Y-136326515D01*
X328279506Y-136326516D01*
X328355696Y-136338583D01*
X328418831Y-136368512D01*
X328423979Y-136373374D01*
X328995192Y-136944588D01*
X328995193Y-136944589D01*
X329084550Y-137033946D01*
X329134551Y-137083947D01*
X329298411Y-137193435D01*
X329298424Y-137193442D01*
X329427165Y-137246768D01*
X329443266Y-137253437D01*
X329480496Y-137268858D01*
X329577144Y-137288082D01*
X329625467Y-137297694D01*
X329673790Y-137307307D01*
X329673791Y-137307307D01*
X329673792Y-137307307D01*
X329870872Y-137307307D01*
X330351727Y-137307307D01*
X330418766Y-137326992D01*
X330464521Y-137379796D01*
X330466271Y-137383816D01*
X330477357Y-137410579D01*
X330485699Y-137430719D01*
X330485703Y-137430726D01*
X330595192Y-137594589D01*
X330734546Y-137733943D01*
X330734550Y-137733946D01*
X330898411Y-137843435D01*
X330898424Y-137843442D01*
X331025037Y-137895886D01*
X331080497Y-137918858D01*
X331080501Y-137918858D01*
X331080502Y-137918859D01*
X331273788Y-137957307D01*
X331273791Y-137957307D01*
X331470875Y-137957307D01*
X331613904Y-137928856D01*
X331664167Y-137918858D01*
X331814629Y-137856535D01*
X331846239Y-137843442D01*
X331846239Y-137843441D01*
X331846246Y-137843439D01*
X332010114Y-137733946D01*
X332149471Y-137594589D01*
X332258964Y-137430721D01*
X332279673Y-137380726D01*
X332334383Y-137248642D01*
X332334384Y-137248636D01*
X332334931Y-137245889D01*
X332353614Y-137151962D01*
X332372832Y-137055350D01*
X332372832Y-136358263D01*
X332344793Y-136217307D01*
X332334383Y-136164971D01*
X332303128Y-136089516D01*
X332302838Y-136088817D01*
X332261418Y-135988817D01*
X332258964Y-135982893D01*
X332258960Y-135982887D01*
X332256961Y-135979147D01*
X332242715Y-135910745D01*
X332265998Y-135847802D01*
X332291856Y-135812213D01*
X332381216Y-135636833D01*
X332442041Y-135449634D01*
X332446613Y-135420765D01*
X332472832Y-135255229D01*
X332472832Y-135058385D01*
X332442041Y-134863980D01*
X332401057Y-134737847D01*
X332381216Y-134676782D01*
X332381214Y-134676779D01*
X332381214Y-134676777D01*
X332333294Y-134582730D01*
X332291856Y-134501402D01*
X332176161Y-134342162D01*
X332161315Y-134327316D01*
X332136540Y-134287148D01*
X332135201Y-134287773D01*
X332132149Y-134281228D01*
X332122253Y-134265184D01*
X332040044Y-134131901D01*
X331915988Y-134007845D01*
X331810330Y-133942675D01*
X331766668Y-133915744D01*
X331766659Y-133915740D01*
X331723750Y-133901521D01*
X331689871Y-133884134D01*
X331633990Y-133843535D01*
X331633989Y-133843534D01*
X331633987Y-133843533D01*
X331574545Y-133813246D01*
X331458612Y-133754174D01*
X331271408Y-133693347D01*
X331077004Y-133662557D01*
X331076999Y-133662557D01*
X330723915Y-133662557D01*
X330723910Y-133662557D01*
X330529505Y-133693347D01*
X330342302Y-133754174D01*
X330265058Y-133793533D01*
X330243943Y-133804292D01*
X330241980Y-133805292D01*
X330185685Y-133818807D01*
X328895374Y-133818807D01*
X328857056Y-133812738D01*
X328758908Y-133780848D01*
X328564504Y-133750057D01*
X328564499Y-133750057D01*
X328323915Y-133750057D01*
X328323910Y-133750057D01*
X328129505Y-133780847D01*
X327942302Y-133841674D01*
X327766926Y-133931033D01*
X327682080Y-133992678D01*
X327607686Y-134046729D01*
X327607684Y-134046731D01*
X327607683Y-134046731D01*
X327468506Y-134185908D01*
X327468506Y-134185909D01*
X327468504Y-134185911D01*
X327428317Y-134241223D01*
X327352808Y-134345151D01*
X327263449Y-134520527D01*
X327202622Y-134707730D01*
X327171832Y-134902134D01*
X327171832Y-135098979D01*
X321565903Y-135098979D01*
X321572832Y-135055229D01*
X321572832Y-134858385D01*
X321542041Y-134663980D01*
X321495431Y-134520532D01*
X321481216Y-134476782D01*
X321481214Y-134476779D01*
X321481214Y-134476777D01*
X321446046Y-134407757D01*
X321397379Y-134312242D01*
X321390020Y-134291502D01*
X321389461Y-134291688D01*
X321376015Y-134251112D01*
X321332146Y-134118723D01*
X321240044Y-133969401D01*
X321115988Y-133845345D01*
X321011421Y-133780848D01*
X320966668Y-133753244D01*
X320966663Y-133753242D01*
X320949507Y-133747557D01*
X320808840Y-133700944D01*
X320774963Y-133683558D01*
X320771487Y-133681033D01*
X320735226Y-133662557D01*
X320596112Y-133591674D01*
X320408908Y-133530847D01*
X320214504Y-133500057D01*
X320214499Y-133500057D01*
X319923915Y-133500057D01*
X319923910Y-133500057D01*
X319729505Y-133530847D01*
X319542302Y-133591674D01*
X319515578Y-133605292D01*
X319459283Y-133618807D01*
X317573786Y-133618807D01*
X317421503Y-133649098D01*
X317416713Y-133649954D01*
X317379510Y-133655847D01*
X317379506Y-133655848D01*
X317240710Y-133700946D01*
X317192304Y-133716674D01*
X317016926Y-133806033D01*
X316942172Y-133860346D01*
X316857686Y-133921729D01*
X316857684Y-133921731D01*
X316857683Y-133921731D01*
X316718506Y-134060908D01*
X316718506Y-134060909D01*
X316718504Y-134060911D01*
X316676157Y-134119197D01*
X316602808Y-134220151D01*
X316513449Y-134395527D01*
X316452622Y-134582730D01*
X316421832Y-134777134D01*
X316421832Y-135005229D01*
X310772332Y-135005229D01*
X310742041Y-134813980D01*
X310705005Y-134699998D01*
X310681216Y-134626782D01*
X310681214Y-134626779D01*
X310681214Y-134626777D01*
X310617332Y-134501402D01*
X310616074Y-134498934D01*
X310603202Y-134455240D01*
X310602466Y-134448038D01*
X310597331Y-134397760D01*
X310542146Y-134231223D01*
X310450044Y-134081901D01*
X310325988Y-133957845D01*
X310193605Y-133876191D01*
X310176668Y-133865744D01*
X310176663Y-133865742D01*
X310160379Y-133860346D01*
X310010129Y-133810558D01*
X310010127Y-133810557D01*
X309979731Y-133807452D01*
X309936041Y-133794579D01*
X309758612Y-133704175D01*
X309758611Y-133704174D01*
X309758608Y-133704173D01*
X309681507Y-133679121D01*
X309571408Y-133643347D01*
X309377004Y-133612557D01*
X309376999Y-133612557D01*
X309133915Y-133612557D01*
X309133910Y-133612557D01*
X308939505Y-133643347D01*
X308752302Y-133704174D01*
X308651980Y-133755292D01*
X308595685Y-133768807D01*
X307177818Y-133768807D01*
X307158420Y-133767280D01*
X306970754Y-133737557D01*
X306970749Y-133737557D01*
X306773915Y-133737557D01*
X306773910Y-133737557D01*
X306579505Y-133768347D01*
X306392302Y-133829174D01*
X306216926Y-133918533D01*
X306139646Y-133974681D01*
X306057686Y-134034229D01*
X306057684Y-134034231D01*
X306057683Y-134034231D01*
X305918506Y-134173408D01*
X305918506Y-134173409D01*
X305918504Y-134173411D01*
X305873130Y-134235862D01*
X305802808Y-134332651D01*
X305713449Y-134508027D01*
X305652622Y-134695230D01*
X305621832Y-134889634D01*
X305621832Y-135155229D01*
X299622831Y-135155229D01*
X299622831Y-134980185D01*
X299616423Y-134920574D01*
X299615484Y-134918057D01*
X299566129Y-134785728D01*
X299566125Y-134785721D01*
X299479879Y-134670512D01*
X299479876Y-134670509D01*
X299364667Y-134584263D01*
X299364660Y-134584259D01*
X299229814Y-134533965D01*
X299229815Y-134533965D01*
X299170215Y-134527558D01*
X299170213Y-134527557D01*
X299170205Y-134527557D01*
X299170196Y-134527557D01*
X297374461Y-134527557D01*
X297374455Y-134527558D01*
X297314848Y-134533965D01*
X297180003Y-134584259D01*
X297179996Y-134584263D01*
X297064787Y-134670509D01*
X297064784Y-134670512D01*
X296978538Y-134785721D01*
X296978535Y-134785726D01*
X296929521Y-134917140D01*
X296887649Y-134973073D01*
X296822185Y-134997490D01*
X296753912Y-134982638D01*
X296725658Y-134961487D01*
X296603734Y-134839563D01*
X296603728Y-134839558D01*
X296418174Y-134709632D01*
X296374549Y-134655055D01*
X296367355Y-134585557D01*
X296398878Y-134523202D01*
X296418174Y-134506482D01*
X296454075Y-134481344D01*
X296603733Y-134376552D01*
X296770827Y-134209458D01*
X296906367Y-134015887D01*
X297006235Y-133801720D01*
X297067395Y-133573465D01*
X297087991Y-133338057D01*
X297067395Y-133102649D01*
X297015854Y-132910293D01*
X297006237Y-132874401D01*
X297006236Y-132874400D01*
X297006235Y-132874394D01*
X296906367Y-132660228D01*
X296895618Y-132644876D01*
X296770826Y-132466654D01*
X296603734Y-132299563D01*
X296603728Y-132299558D01*
X296418174Y-132169632D01*
X296374549Y-132115055D01*
X296367355Y-132045557D01*
X296398878Y-131983202D01*
X296418174Y-131966482D01*
X296483987Y-131920399D01*
X296603733Y-131836552D01*
X296770827Y-131669458D01*
X296808480Y-131615682D01*
X296863054Y-131572059D01*
X296932553Y-131564865D01*
X296994908Y-131596387D01*
X297010371Y-131613920D01*
X297127815Y-131775567D01*
X297294822Y-131942574D01*
X297485899Y-132081400D01*
X297517517Y-132097510D01*
X297696335Y-132188623D01*
X297696337Y-132188623D01*
X297696340Y-132188625D01*
X297791062Y-132219402D01*
X297920963Y-132261610D01*
X298154235Y-132298557D01*
X298154240Y-132298557D01*
X305309443Y-132298557D01*
X305376482Y-132318242D01*
X305397124Y-132334876D01*
X305894822Y-132832574D01*
X305977404Y-132892574D01*
X306085899Y-132971401D01*
X306143118Y-133000555D01*
X306255039Y-133057581D01*
X306296335Y-133078623D01*
X306296337Y-133078623D01*
X306296340Y-133078625D01*
X306416744Y-133117746D01*
X306520963Y-133151610D01*
X306754235Y-133188557D01*
X306754240Y-133188557D01*
X330450747Y-133188557D01*
X330489064Y-133194625D01*
X330494353Y-133196344D01*
X330529505Y-133207766D01*
X330723910Y-133238557D01*
X330723915Y-133238557D01*
X330920753Y-133238557D01*
X331115158Y-133207766D01*
X331150311Y-133196344D01*
X331302358Y-133146941D01*
X331468197Y-133062441D01*
X331511887Y-133049570D01*
X331600129Y-133040556D01*
X331766666Y-132985371D01*
X331915988Y-132893269D01*
X332040044Y-132769213D01*
X332132146Y-132619891D01*
X332187331Y-132453354D01*
X332197832Y-132350566D01*
X332197831Y-131625549D01*
X332196823Y-131615685D01*
X332187331Y-131522760D01*
X332187330Y-131522757D01*
X332133394Y-131359990D01*
X332132146Y-131356223D01*
X332040044Y-131206901D01*
X331915988Y-131082845D01*
X331915986Y-131082844D01*
X331910324Y-131078367D01*
X331911708Y-131076616D01*
X331873983Y-131035688D01*
X331805676Y-130901625D01*
X331784820Y-130872920D01*
X331679435Y-130727870D01*
X343598249Y-130727870D01*
X343598250Y-130727876D01*
X343604657Y-130787483D01*
X343654951Y-130922328D01*
X343654955Y-130922335D01*
X343741201Y-131037544D01*
X343741204Y-131037547D01*
X343856413Y-131123793D01*
X343856420Y-131123797D01*
X343991266Y-131174091D01*
X343991265Y-131174091D01*
X343998193Y-131174835D01*
X344050876Y-131180500D01*
X346546621Y-131180499D01*
X346606232Y-131174091D01*
X346741080Y-131123796D01*
X346856295Y-131037546D01*
X346942545Y-130922331D01*
X346992840Y-130787483D01*
X346999249Y-130727873D01*
X346999248Y-128232128D01*
X346992840Y-128172517D01*
X346971886Y-128116337D01*
X346942546Y-128037671D01*
X346942542Y-128037664D01*
X346856296Y-127922455D01*
X346856293Y-127922452D01*
X346741084Y-127836206D01*
X346741077Y-127836202D01*
X346606231Y-127785908D01*
X346606232Y-127785908D01*
X346546632Y-127779501D01*
X346546630Y-127779500D01*
X346546622Y-127779500D01*
X346546613Y-127779500D01*
X344050878Y-127779500D01*
X344050872Y-127779501D01*
X343991265Y-127785908D01*
X343856420Y-127836202D01*
X343856413Y-127836206D01*
X343741204Y-127922452D01*
X343741201Y-127922455D01*
X343654955Y-128037664D01*
X343654951Y-128037671D01*
X343604657Y-128172517D01*
X343598250Y-128232116D01*
X343598250Y-128232123D01*
X343598249Y-128232135D01*
X343598249Y-130727870D01*
X331679435Y-130727870D01*
X331666849Y-130710547D01*
X331499842Y-130543540D01*
X331308765Y-130404714D01*
X331098328Y-130297490D01*
X330873700Y-130224503D01*
X330640429Y-130187557D01*
X330640424Y-130187557D01*
X307545221Y-130187557D01*
X307478182Y-130167872D01*
X307457540Y-130151238D01*
X306959843Y-129653541D01*
X306947856Y-129644832D01*
X306768766Y-129514714D01*
X306699837Y-129479593D01*
X306558328Y-129407490D01*
X306333700Y-129334503D01*
X306100429Y-129297557D01*
X306100424Y-129297557D01*
X299431325Y-129297557D01*
X299364286Y-129277872D01*
X299318531Y-129225068D01*
X299308587Y-129155910D01*
X299329750Y-129102434D01*
X299446364Y-128935891D01*
X299446363Y-128935891D01*
X299446367Y-128935887D01*
X299546235Y-128721720D01*
X299607395Y-128493465D01*
X299627991Y-128258057D01*
X299607395Y-128022649D01*
X299546235Y-127794394D01*
X299446367Y-127580228D01*
X299419251Y-127541501D01*
X299310826Y-127386654D01*
X299143734Y-127219563D01*
X299143727Y-127219558D01*
X299135282Y-127213645D01*
X299104839Y-127192328D01*
X298950166Y-127084024D01*
X298950162Y-127084022D01*
X298826913Y-127026550D01*
X298765409Y-126997870D01*
X341549500Y-126997870D01*
X341549501Y-126997876D01*
X341555908Y-127057483D01*
X341606202Y-127192328D01*
X341606206Y-127192335D01*
X341692452Y-127307544D01*
X341692455Y-127307547D01*
X341807664Y-127393793D01*
X341807671Y-127393797D01*
X341942517Y-127444091D01*
X341942516Y-127444091D01*
X341949444Y-127444835D01*
X342002127Y-127450500D01*
X344497872Y-127450499D01*
X344557483Y-127444091D01*
X344692331Y-127393796D01*
X344807546Y-127307546D01*
X344893796Y-127192331D01*
X344944091Y-127057483D01*
X344950500Y-126997873D01*
X344950499Y-124502128D01*
X344944091Y-124442517D01*
X344893796Y-124307669D01*
X344893795Y-124307668D01*
X344893793Y-124307664D01*
X344807547Y-124192455D01*
X344807544Y-124192452D01*
X344692335Y-124106206D01*
X344692328Y-124106202D01*
X344557482Y-124055908D01*
X344557483Y-124055908D01*
X344497883Y-124049501D01*
X344497881Y-124049500D01*
X344497873Y-124049500D01*
X344497864Y-124049500D01*
X342002129Y-124049500D01*
X342002123Y-124049501D01*
X341942516Y-124055908D01*
X341807671Y-124106202D01*
X341807664Y-124106206D01*
X341692455Y-124192452D01*
X341692452Y-124192455D01*
X341606206Y-124307664D01*
X341606202Y-124307671D01*
X341555908Y-124442517D01*
X341549501Y-124502116D01*
X341549501Y-124502123D01*
X341549500Y-124502135D01*
X341549500Y-126997870D01*
X298765409Y-126997870D01*
X298735995Y-126984154D01*
X298735991Y-126984153D01*
X298735987Y-126984151D01*
X298507745Y-126922995D01*
X298507735Y-126922993D01*
X298272333Y-126902398D01*
X298268990Y-126902398D01*
X298267571Y-126901981D01*
X298266938Y-126901926D01*
X298266949Y-126901798D01*
X298201951Y-126882713D01*
X298156196Y-126829909D01*
X298146252Y-126760751D01*
X298175277Y-126697195D01*
X298181309Y-126690717D01*
X300822526Y-124049500D01*
X303834517Y-121037510D01*
X303973343Y-120846434D01*
X304080568Y-120635992D01*
X304153553Y-120411369D01*
X304180393Y-120241908D01*
X304190500Y-120178097D01*
X304190500Y-115394970D01*
X304200359Y-115361394D01*
X305821832Y-115361394D01*
X305821833Y-115361412D01*
X305831982Y-115460764D01*
X305831983Y-115460767D01*
X305885328Y-115621751D01*
X305885333Y-115621762D01*
X305974361Y-115766097D01*
X305974364Y-115766101D01*
X306071132Y-115862869D01*
X306086553Y-115881659D01*
X306095191Y-115894587D01*
X306095192Y-115894588D01*
X306095193Y-115894589D01*
X306234550Y-116033946D01*
X306234551Y-116033946D01*
X306241618Y-116041013D01*
X306241617Y-116041013D01*
X306241620Y-116041015D01*
X307295192Y-117094588D01*
X307295193Y-117094589D01*
X307395192Y-117194588D01*
X307434551Y-117233947D01*
X307598411Y-117343435D01*
X307598413Y-117343436D01*
X307598418Y-117343439D01*
X307701320Y-117386062D01*
X307780496Y-117418858D01*
X307877144Y-117438082D01*
X307925467Y-117447694D01*
X307973790Y-117457307D01*
X307973791Y-117457307D01*
X307973792Y-117457307D01*
X308170872Y-117457307D01*
X308651727Y-117457307D01*
X308718766Y-117476992D01*
X308764521Y-117529796D01*
X308766271Y-117533816D01*
X308779333Y-117565350D01*
X308785699Y-117580719D01*
X308785703Y-117580726D01*
X308895192Y-117744589D01*
X309034546Y-117883943D01*
X309034550Y-117883946D01*
X309198411Y-117993435D01*
X309198424Y-117993442D01*
X309312582Y-118040727D01*
X309380497Y-118068858D01*
X309380501Y-118068858D01*
X309380502Y-118068859D01*
X309573788Y-118107307D01*
X309573791Y-118107307D01*
X309770875Y-118107307D01*
X309900914Y-118081439D01*
X309964167Y-118068858D01*
X310104987Y-118010528D01*
X310146239Y-117993442D01*
X310146239Y-117993441D01*
X310146246Y-117993439D01*
X310310114Y-117883946D01*
X310449471Y-117744589D01*
X310558964Y-117580721D01*
X310634383Y-117398642D01*
X310652941Y-117305348D01*
X310672832Y-117205350D01*
X310672832Y-116508265D01*
X310672831Y-116508262D01*
X310669983Y-116493946D01*
X310651010Y-116398557D01*
X310646826Y-116377523D01*
X310634385Y-116314977D01*
X310634383Y-116314972D01*
X310628388Y-116300500D01*
X310602887Y-116238934D01*
X310594021Y-116217530D01*
X310558967Y-116132900D01*
X310558966Y-116132899D01*
X310558964Y-116132893D01*
X310543728Y-116110091D01*
X310522852Y-116043414D01*
X310522832Y-116041202D01*
X310522832Y-115763720D01*
X310541294Y-115698623D01*
X310582141Y-115632399D01*
X310582140Y-115632399D01*
X310582146Y-115632391D01*
X310622241Y-115511394D01*
X316571832Y-115511394D01*
X316571833Y-115511412D01*
X316581982Y-115610764D01*
X316581983Y-115610767D01*
X316635328Y-115771751D01*
X316635333Y-115771762D01*
X316724361Y-115916097D01*
X316724364Y-115916101D01*
X316844287Y-116036024D01*
X316844291Y-116036027D01*
X316988626Y-116125055D01*
X316988629Y-116125056D01*
X316988635Y-116125060D01*
X317149624Y-116178406D01*
X317149636Y-116178407D01*
X317151176Y-116178737D01*
X317152049Y-116179209D01*
X317156051Y-116180536D01*
X317155814Y-116181249D01*
X317212614Y-116212009D01*
X318095192Y-117094588D01*
X318095193Y-117094589D01*
X318195192Y-117194588D01*
X318234551Y-117233947D01*
X318398411Y-117343435D01*
X318398413Y-117343436D01*
X318398418Y-117343439D01*
X318501320Y-117386062D01*
X318580496Y-117418858D01*
X318677144Y-117438082D01*
X318725467Y-117447694D01*
X318773790Y-117457307D01*
X318773791Y-117457307D01*
X318773792Y-117457307D01*
X318970872Y-117457307D01*
X319451727Y-117457307D01*
X319518766Y-117476992D01*
X319564521Y-117529796D01*
X319566271Y-117533816D01*
X319579333Y-117565350D01*
X319585699Y-117580719D01*
X319585703Y-117580726D01*
X319695192Y-117744589D01*
X319834546Y-117883943D01*
X319834550Y-117883946D01*
X319998411Y-117993435D01*
X319998424Y-117993442D01*
X320112582Y-118040727D01*
X320180497Y-118068858D01*
X320180501Y-118068858D01*
X320180502Y-118068859D01*
X320373788Y-118107307D01*
X320373791Y-118107307D01*
X320570875Y-118107307D01*
X320700914Y-118081439D01*
X320764167Y-118068858D01*
X320904987Y-118010528D01*
X320946239Y-117993442D01*
X320946239Y-117993441D01*
X320946246Y-117993439D01*
X321110114Y-117883946D01*
X321249471Y-117744589D01*
X321358964Y-117580721D01*
X321434383Y-117398642D01*
X321452941Y-117305348D01*
X321472832Y-117205350D01*
X321472832Y-116508265D01*
X321472831Y-116508262D01*
X321469983Y-116493946D01*
X321451010Y-116398557D01*
X321446826Y-116377523D01*
X321434385Y-116314977D01*
X321434383Y-116314972D01*
X321428388Y-116300500D01*
X321402887Y-116238934D01*
X321394021Y-116217530D01*
X321358967Y-116132900D01*
X321358966Y-116132899D01*
X321358964Y-116132893D01*
X321343728Y-116110091D01*
X321322852Y-116043414D01*
X321322832Y-116041202D01*
X321322832Y-115829855D01*
X321331700Y-115789852D01*
X321329874Y-115789247D01*
X321332146Y-115782391D01*
X321387331Y-115615854D01*
X321397832Y-115513066D01*
X321397832Y-115511394D01*
X327371832Y-115511394D01*
X327371833Y-115511412D01*
X327381982Y-115610764D01*
X327381983Y-115610767D01*
X327435328Y-115771751D01*
X327435333Y-115771762D01*
X327524361Y-115916097D01*
X327524364Y-115916101D01*
X327644287Y-116036024D01*
X327644291Y-116036027D01*
X327788634Y-116125060D01*
X327788636Y-116125061D01*
X327816116Y-116134166D01*
X327864796Y-116164191D01*
X328895192Y-117194588D01*
X328895193Y-117194589D01*
X329005952Y-117305348D01*
X329034551Y-117333947D01*
X329198411Y-117443435D01*
X329198418Y-117443439D01*
X329304917Y-117487552D01*
X329380496Y-117518858D01*
X329434012Y-117529503D01*
X329455896Y-117533856D01*
X329573788Y-117557307D01*
X329573791Y-117557307D01*
X329573792Y-117557307D01*
X329770872Y-117557307D01*
X330251727Y-117557307D01*
X330318766Y-117576992D01*
X330364521Y-117629796D01*
X330366271Y-117633816D01*
X330379333Y-117665350D01*
X330385699Y-117680719D01*
X330385703Y-117680726D01*
X330495191Y-117844587D01*
X330495195Y-117844592D01*
X330634546Y-117983943D01*
X330634550Y-117983946D01*
X330798411Y-118093435D01*
X330798424Y-118093442D01*
X330950739Y-118156532D01*
X330980497Y-118168858D01*
X330980501Y-118168858D01*
X330980502Y-118168859D01*
X331173788Y-118207307D01*
X331173791Y-118207307D01*
X331370875Y-118207307D01*
X331500914Y-118181439D01*
X331564167Y-118168858D01*
X331719330Y-118104588D01*
X331746239Y-118093442D01*
X331746239Y-118093441D01*
X331746246Y-118093439D01*
X331910114Y-117983946D01*
X332049471Y-117844589D01*
X332049472Y-117844588D01*
X332049473Y-117844587D01*
X332158960Y-117680727D01*
X332158960Y-117680726D01*
X332158964Y-117680721D01*
X332234383Y-117498642D01*
X332254274Y-117398646D01*
X332272832Y-117305350D01*
X332272832Y-116608265D01*
X332272831Y-116608262D01*
X332271871Y-116603438D01*
X332250093Y-116493946D01*
X332246826Y-116477523D01*
X332234384Y-116414978D01*
X332234383Y-116414971D01*
X332225243Y-116392905D01*
X332201934Y-116336631D01*
X332164403Y-116246024D01*
X332158964Y-116232893D01*
X332143728Y-116210091D01*
X332122852Y-116143414D01*
X332122832Y-116141202D01*
X332122832Y-115863720D01*
X332141294Y-115798623D01*
X332182141Y-115732399D01*
X332182140Y-115732399D01*
X332182146Y-115732391D01*
X332237331Y-115565854D01*
X332247832Y-115463066D01*
X332247831Y-114738049D01*
X332246947Y-114729399D01*
X332237331Y-114635260D01*
X332237330Y-114635257D01*
X332214797Y-114567257D01*
X332182146Y-114468723D01*
X332090044Y-114319401D01*
X331965988Y-114195345D01*
X331847867Y-114122488D01*
X331816668Y-114103244D01*
X331816663Y-114103242D01*
X331792831Y-114095345D01*
X331650129Y-114048058D01*
X331650127Y-114048057D01*
X331547342Y-114037557D01*
X330197330Y-114037557D01*
X330197313Y-114037558D01*
X330094535Y-114048057D01*
X330062312Y-114058735D01*
X330050911Y-114062513D01*
X330011909Y-114068807D01*
X328373789Y-114068807D01*
X328180502Y-114107254D01*
X328180492Y-114107257D01*
X327998424Y-114182671D01*
X327998411Y-114182678D01*
X327834553Y-114292165D01*
X327834547Y-114292169D01*
X327765029Y-114361686D01*
X327742448Y-114379541D01*
X327644289Y-114440087D01*
X327524361Y-114560016D01*
X327435333Y-114704351D01*
X327435328Y-114704362D01*
X327381983Y-114865347D01*
X327371832Y-114964704D01*
X327371832Y-115511394D01*
X321397832Y-115511394D01*
X321397831Y-114788049D01*
X321397555Y-114785352D01*
X321387331Y-114685260D01*
X321387330Y-114685257D01*
X321386033Y-114681342D01*
X321332146Y-114518723D01*
X321240044Y-114369401D01*
X321115988Y-114245345D01*
X320977623Y-114160001D01*
X320966668Y-114153244D01*
X320966663Y-114153242D01*
X320946706Y-114146629D01*
X320800129Y-114098058D01*
X320800127Y-114098057D01*
X320697348Y-114087557D01*
X320697341Y-114087557D01*
X320495198Y-114087557D01*
X320447746Y-114078118D01*
X320276671Y-114007257D01*
X320276661Y-114007254D01*
X320083375Y-113968807D01*
X320083373Y-113968807D01*
X318820873Y-113968807D01*
X317770873Y-113968807D01*
X317573791Y-113968807D01*
X317573789Y-113968807D01*
X317380502Y-114007254D01*
X317380492Y-114007257D01*
X317198424Y-114082671D01*
X317198411Y-114082678D01*
X317034550Y-114192167D01*
X317034546Y-114192170D01*
X316895195Y-114331521D01*
X316895192Y-114331525D01*
X316785874Y-114495132D01*
X316770454Y-114513921D01*
X316724362Y-114560013D01*
X316635333Y-114704351D01*
X316635328Y-114704362D01*
X316581983Y-114865347D01*
X316571832Y-114964704D01*
X316571832Y-115511394D01*
X310622241Y-115511394D01*
X310637331Y-115465854D01*
X310647832Y-115363066D01*
X310647831Y-114638049D01*
X310644490Y-114605346D01*
X310637331Y-114535260D01*
X310637330Y-114535257D01*
X310635746Y-114530476D01*
X310582146Y-114368723D01*
X310490044Y-114219401D01*
X310365988Y-114095345D01*
X310216666Y-114003243D01*
X310050129Y-113948058D01*
X310050127Y-113948057D01*
X309947342Y-113937557D01*
X308597330Y-113937557D01*
X308597313Y-113937558D01*
X308494535Y-113948057D01*
X308462312Y-113958735D01*
X308450911Y-113962513D01*
X308411909Y-113968807D01*
X306773789Y-113968807D01*
X306580502Y-114007254D01*
X306580492Y-114007257D01*
X306398424Y-114082671D01*
X306398411Y-114082678D01*
X306234548Y-114192169D01*
X306234547Y-114192170D01*
X306215028Y-114211688D01*
X306192448Y-114229541D01*
X306094289Y-114290087D01*
X305974361Y-114410016D01*
X305885333Y-114554351D01*
X305885328Y-114554362D01*
X305831983Y-114715347D01*
X305821832Y-114814704D01*
X305821832Y-115361394D01*
X304200359Y-115361394D01*
X304210185Y-115327931D01*
X304226819Y-115307289D01*
X305837708Y-113696400D01*
X305899031Y-113662915D01*
X305925389Y-113660081D01*
X330908097Y-113660081D01*
X331141368Y-113623134D01*
X331184769Y-113609032D01*
X331365992Y-113550149D01*
X331576434Y-113442924D01*
X331767510Y-113304098D01*
X332284518Y-112787091D01*
X332423343Y-112596014D01*
X332530568Y-112385573D01*
X332559065Y-112297870D01*
X341449500Y-112297870D01*
X341449501Y-112297876D01*
X341455908Y-112357483D01*
X341506202Y-112492328D01*
X341506206Y-112492335D01*
X341592452Y-112607544D01*
X341592455Y-112607547D01*
X341707664Y-112693793D01*
X341707671Y-112693797D01*
X341842517Y-112744091D01*
X341842516Y-112744091D01*
X341849444Y-112744835D01*
X341902127Y-112750500D01*
X343379899Y-112750499D01*
X343446937Y-112770184D01*
X343492692Y-112822987D01*
X343502636Y-112892146D01*
X343473611Y-112955702D01*
X343454210Y-112973765D01*
X343362453Y-113042455D01*
X343276207Y-113157664D01*
X343276203Y-113157671D01*
X343225909Y-113292517D01*
X343219502Y-113352116D01*
X343219502Y-113352123D01*
X343219501Y-113352135D01*
X343219501Y-115847870D01*
X343219502Y-115847876D01*
X343225909Y-115907483D01*
X343276203Y-116042328D01*
X343276207Y-116042335D01*
X343362453Y-116157544D01*
X343362456Y-116157547D01*
X343477665Y-116243793D01*
X343477672Y-116243797D01*
X343612518Y-116294091D01*
X343612517Y-116294091D01*
X343619445Y-116294835D01*
X343672128Y-116300500D01*
X346167873Y-116300499D01*
X346227484Y-116294091D01*
X346362332Y-116243796D01*
X346477547Y-116157546D01*
X346563797Y-116042331D01*
X346614092Y-115907483D01*
X346620501Y-115847873D01*
X346620500Y-113352128D01*
X346614092Y-113292517D01*
X346566534Y-113165008D01*
X346563798Y-113157671D01*
X346563794Y-113157664D01*
X346477548Y-113042455D01*
X346477545Y-113042452D01*
X346362336Y-112956206D01*
X346362329Y-112956202D01*
X346227483Y-112905908D01*
X346227484Y-112905908D01*
X346167884Y-112899501D01*
X346167882Y-112899500D01*
X346167874Y-112899500D01*
X346167866Y-112899500D01*
X344690102Y-112899500D01*
X344623063Y-112879815D01*
X344577308Y-112827011D01*
X344567364Y-112757853D01*
X344596389Y-112694297D01*
X344615786Y-112676237D01*
X344707546Y-112607546D01*
X344793796Y-112492331D01*
X344844091Y-112357483D01*
X344850500Y-112297873D01*
X344850499Y-109802128D01*
X344844091Y-109742517D01*
X344793796Y-109607669D01*
X344793795Y-109607668D01*
X344793793Y-109607664D01*
X344707547Y-109492455D01*
X344707544Y-109492452D01*
X344592335Y-109406206D01*
X344592328Y-109406202D01*
X344457482Y-109355908D01*
X344457483Y-109355908D01*
X344397883Y-109349501D01*
X344397881Y-109349500D01*
X344397873Y-109349500D01*
X344397864Y-109349500D01*
X341902129Y-109349500D01*
X341902123Y-109349501D01*
X341842516Y-109355908D01*
X341707671Y-109406202D01*
X341707664Y-109406206D01*
X341592455Y-109492452D01*
X341592452Y-109492455D01*
X341506206Y-109607664D01*
X341506202Y-109607671D01*
X341455908Y-109742517D01*
X341449501Y-109802116D01*
X341449501Y-109802123D01*
X341449500Y-109802135D01*
X341449500Y-112297870D01*
X332559065Y-112297870D01*
X332603553Y-112160949D01*
X332630394Y-111991483D01*
X332640500Y-111927678D01*
X332640500Y-111691483D01*
X332603553Y-111458215D01*
X332603553Y-111458212D01*
X332530568Y-111233589D01*
X332423343Y-111023147D01*
X332284518Y-110832071D01*
X332117510Y-110665063D01*
X331926434Y-110526238D01*
X331715992Y-110419013D01*
X331491369Y-110346028D01*
X331491367Y-110346027D01*
X331491365Y-110346027D01*
X331258097Y-110309081D01*
X331258092Y-110309081D01*
X331021908Y-110309081D01*
X331021903Y-110309081D01*
X330788631Y-110346027D01*
X330564003Y-110419014D01*
X330353563Y-110526240D01*
X330203319Y-110635399D01*
X330137513Y-110658879D01*
X330130434Y-110659081D01*
X305134403Y-110659081D01*
X304901131Y-110696027D01*
X304676503Y-110769014D01*
X304466065Y-110876238D01*
X304274988Y-111015065D01*
X301545484Y-113744569D01*
X301406657Y-113935646D01*
X301329255Y-114087558D01*
X301299433Y-114146084D01*
X301226446Y-114370712D01*
X301189500Y-114603983D01*
X301189500Y-119387110D01*
X301169815Y-119454149D01*
X301153181Y-119474791D01*
X299917706Y-120710266D01*
X299856383Y-120743751D01*
X299786691Y-120738767D01*
X299742344Y-120710266D01*
X299652262Y-120620184D01*
X299499523Y-120524211D01*
X299329254Y-120464631D01*
X299329249Y-120464630D01*
X299150004Y-120444435D01*
X299149996Y-120444435D01*
X298970750Y-120464630D01*
X298970745Y-120464631D01*
X298800476Y-120524211D01*
X298647737Y-120620184D01*
X298520184Y-120747737D01*
X298424210Y-120900478D01*
X298364632Y-121070744D01*
X298364630Y-121070752D01*
X298363815Y-121077988D01*
X298336743Y-121142400D01*
X298328277Y-121151775D01*
X294762181Y-124717872D01*
X294700858Y-124751357D01*
X294631166Y-124746373D01*
X294575233Y-124704501D01*
X294550816Y-124639037D01*
X294550500Y-124630191D01*
X294550500Y-122470806D01*
X294570185Y-122403767D01*
X294586814Y-122383130D01*
X298948223Y-118021720D01*
X299009544Y-117988237D01*
X299022020Y-117986183D01*
X299029255Y-117985368D01*
X299199522Y-117925789D01*
X299352262Y-117829816D01*
X299479816Y-117702262D01*
X299575789Y-117549522D01*
X299635368Y-117379255D01*
X299635369Y-117379249D01*
X299655565Y-117200003D01*
X299655565Y-117199996D01*
X299635369Y-117020750D01*
X299635368Y-117020745D01*
X299624246Y-116988959D01*
X299575789Y-116850478D01*
X299557106Y-116820745D01*
X299505286Y-116738273D01*
X299479816Y-116697738D01*
X299352262Y-116570184D01*
X299352116Y-116570092D01*
X299199523Y-116474211D01*
X299029254Y-116414631D01*
X299029249Y-116414630D01*
X298850004Y-116394435D01*
X298849996Y-116394435D01*
X298670750Y-116414630D01*
X298670745Y-116414631D01*
X298500476Y-116474211D01*
X298347737Y-116570184D01*
X298220184Y-116697737D01*
X298124210Y-116850478D01*
X298064632Y-117020744D01*
X298064630Y-117020753D01*
X298063815Y-117027988D01*
X298036743Y-117092400D01*
X298028277Y-117101776D01*
X293394727Y-121735325D01*
X293394724Y-121735328D01*
X293358673Y-121789282D01*
X293358674Y-121789283D01*
X293323534Y-121841874D01*
X293274499Y-121960255D01*
X293274497Y-121960261D01*
X293249500Y-122085928D01*
X293249500Y-131569795D01*
X287806221Y-131569795D01*
X287797331Y-131482760D01*
X287797330Y-131482757D01*
X287742146Y-131316223D01*
X287650044Y-131166901D01*
X287603225Y-131120082D01*
X287580421Y-131088696D01*
X287515675Y-130961624D01*
X287376849Y-130770547D01*
X287209842Y-130603540D01*
X287018765Y-130464714D01*
X286974518Y-130442169D01*
X286808328Y-130357490D01*
X286583700Y-130284503D01*
X286350429Y-130247557D01*
X286350424Y-130247557D01*
X263105221Y-130247557D01*
X263038182Y-130227872D01*
X263017540Y-130211238D01*
X262769843Y-129963541D01*
X262670444Y-129891323D01*
X262578766Y-129824714D01*
X262501651Y-129785422D01*
X262368328Y-129717490D01*
X262143700Y-129644503D01*
X261910429Y-129607557D01*
X261910424Y-129607557D01*
X254891325Y-129607557D01*
X254824286Y-129587872D01*
X254778531Y-129535068D01*
X254768587Y-129465910D01*
X254789750Y-129412434D01*
X254883971Y-129277872D01*
X254906367Y-129245887D01*
X255006235Y-129031720D01*
X255067395Y-128803465D01*
X255087991Y-128568057D01*
X255067395Y-128332649D01*
X255006235Y-128104394D01*
X254906367Y-127890228D01*
X254868540Y-127836204D01*
X254770826Y-127696654D01*
X254603734Y-127529563D01*
X254603727Y-127529558D01*
X254410166Y-127394024D01*
X254410162Y-127394022D01*
X254394361Y-127386654D01*
X254195995Y-127294154D01*
X254195991Y-127294153D01*
X254195987Y-127294151D01*
X253967745Y-127232995D01*
X253967735Y-127232993D01*
X253732333Y-127212398D01*
X253732332Y-127212398D01*
X253730310Y-127212574D01*
X253718073Y-127213645D01*
X253649573Y-127199875D01*
X253599393Y-127151257D01*
X253583462Y-127083228D01*
X253606841Y-127017385D01*
X253619583Y-127002442D01*
X259284517Y-121337510D01*
X259423343Y-121146434D01*
X259530568Y-120935992D01*
X259603553Y-120711369D01*
X259619973Y-120607690D01*
X259640500Y-120478097D01*
X259640500Y-115921394D01*
X261381832Y-115921394D01*
X261381833Y-115921412D01*
X261391982Y-116020764D01*
X261391983Y-116020767D01*
X261445328Y-116181751D01*
X261445333Y-116181762D01*
X261534361Y-116326097D01*
X261534364Y-116326101D01*
X261654288Y-116446025D01*
X261798635Y-116535060D01*
X261826114Y-116544165D01*
X261874795Y-116574191D01*
X261901615Y-116601011D01*
X261901620Y-116601015D01*
X262955192Y-117654588D01*
X262955193Y-117654589D01*
X263045192Y-117744588D01*
X263094551Y-117793947D01*
X263258411Y-117903435D01*
X263258418Y-117903439D01*
X263369673Y-117949522D01*
X263440496Y-117978858D01*
X263513800Y-117993439D01*
X263543797Y-117999406D01*
X263633788Y-118017307D01*
X263633791Y-118017307D01*
X263633792Y-118017307D01*
X263830872Y-118017307D01*
X264311727Y-118017307D01*
X264378766Y-118036992D01*
X264424521Y-118089796D01*
X264426271Y-118093816D01*
X264431860Y-118107307D01*
X264445699Y-118140719D01*
X264445703Y-118140726D01*
X264555192Y-118304589D01*
X264694546Y-118443943D01*
X264694550Y-118443946D01*
X264858411Y-118553435D01*
X264858424Y-118553442D01*
X264972034Y-118600500D01*
X265040497Y-118628858D01*
X265040501Y-118628858D01*
X265040502Y-118628859D01*
X265233788Y-118667307D01*
X265233791Y-118667307D01*
X265430875Y-118667307D01*
X265560914Y-118641439D01*
X265624167Y-118628858D01*
X265806246Y-118553439D01*
X265970114Y-118443946D01*
X266109471Y-118304589D01*
X266218964Y-118140721D01*
X266294383Y-117958642D01*
X266314274Y-117858646D01*
X266332832Y-117765350D01*
X266332832Y-117068263D01*
X266309017Y-116948541D01*
X266309017Y-116948540D01*
X266305420Y-116930455D01*
X266294383Y-116874971D01*
X266274775Y-116827634D01*
X266271922Y-116820745D01*
X266243223Y-116751459D01*
X266218964Y-116692893D01*
X266203728Y-116670091D01*
X266182852Y-116603414D01*
X266182832Y-116601202D01*
X266182832Y-116189855D01*
X266191700Y-116149852D01*
X266189874Y-116149247D01*
X266192540Y-116141202D01*
X266247331Y-115975854D01*
X266257832Y-115873066D01*
X266257832Y-115721394D01*
X272031832Y-115721394D01*
X272031833Y-115721412D01*
X272041982Y-115820764D01*
X272041983Y-115820767D01*
X272095328Y-115981751D01*
X272095333Y-115981762D01*
X272184361Y-116126097D01*
X272184364Y-116126101D01*
X272304287Y-116246024D01*
X272304291Y-116246027D01*
X272448626Y-116335055D01*
X272448629Y-116335056D01*
X272448635Y-116335060D01*
X272609624Y-116388406D01*
X272708987Y-116398557D01*
X272709848Y-116398645D01*
X272774540Y-116425041D01*
X272784926Y-116434321D01*
X273805192Y-117454588D01*
X273805193Y-117454589D01*
X273880106Y-117529502D01*
X273944551Y-117593947D01*
X274108411Y-117703435D01*
X274108424Y-117703442D01*
X274237165Y-117756768D01*
X274290491Y-117778856D01*
X274290496Y-117778858D01*
X274376117Y-117795889D01*
X274403035Y-117801243D01*
X274483788Y-117817307D01*
X274483791Y-117817307D01*
X274483792Y-117817307D01*
X274680872Y-117817307D01*
X275161727Y-117817307D01*
X275228766Y-117836992D01*
X275274521Y-117889796D01*
X275276271Y-117893816D01*
X275280256Y-117903435D01*
X275295699Y-117940719D01*
X275295703Y-117940726D01*
X275405192Y-118104589D01*
X275544546Y-118243943D01*
X275544550Y-118243946D01*
X275708411Y-118353435D01*
X275708424Y-118353442D01*
X275890492Y-118428856D01*
X275890497Y-118428858D01*
X275890501Y-118428858D01*
X275890502Y-118428859D01*
X276083788Y-118467307D01*
X276083791Y-118467307D01*
X276280875Y-118467307D01*
X276410914Y-118441439D01*
X276474167Y-118428858D01*
X276656246Y-118353439D01*
X276820114Y-118243946D01*
X276959471Y-118104589D01*
X277068964Y-117940721D01*
X277144383Y-117758642D01*
X277169205Y-117633856D01*
X277182832Y-117565350D01*
X277182832Y-116868265D01*
X277182831Y-116868262D01*
X277176722Y-116837552D01*
X277156975Y-116738273D01*
X277149418Y-116700281D01*
X277144383Y-116674971D01*
X277114753Y-116603439D01*
X277113826Y-116601202D01*
X277068967Y-116492900D01*
X277068966Y-116492899D01*
X277068964Y-116492893D01*
X277053728Y-116470091D01*
X277032852Y-116403414D01*
X277032832Y-116401202D01*
X277032832Y-115568264D01*
X277028929Y-115548644D01*
X277010214Y-115454560D01*
X277007831Y-115430368D01*
X277007831Y-114948055D01*
X277007830Y-114948038D01*
X276997331Y-114845260D01*
X276997330Y-114845257D01*
X276977479Y-114785351D01*
X276942146Y-114678723D01*
X276850044Y-114529401D01*
X276725988Y-114405345D01*
X276606013Y-114331344D01*
X276576668Y-114313244D01*
X276576663Y-114313242D01*
X276552831Y-114305345D01*
X276410129Y-114258058D01*
X276410127Y-114258057D01*
X276307342Y-114247557D01*
X274957330Y-114247557D01*
X274957313Y-114247558D01*
X274854535Y-114258057D01*
X274854532Y-114258058D01*
X274688000Y-114313242D01*
X274681450Y-114316297D01*
X274680311Y-114313854D01*
X274627599Y-114328807D01*
X273283789Y-114328807D01*
X273090502Y-114367254D01*
X273090492Y-114367257D01*
X272908425Y-114442671D01*
X272908416Y-114442676D01*
X272857553Y-114476661D01*
X272790875Y-114497537D01*
X272788665Y-114497557D01*
X272708995Y-114497557D01*
X272708976Y-114497558D01*
X272609624Y-114507707D01*
X272609621Y-114507708D01*
X272448637Y-114561053D01*
X272448626Y-114561058D01*
X272304291Y-114650086D01*
X272304287Y-114650089D01*
X272184364Y-114770012D01*
X272184361Y-114770016D01*
X272095333Y-114914351D01*
X272095328Y-114914362D01*
X272041983Y-115075347D01*
X272031832Y-115174704D01*
X272031832Y-115721394D01*
X266257832Y-115721394D01*
X266257831Y-115148049D01*
X266247331Y-115045260D01*
X266192146Y-114878723D01*
X266100044Y-114729401D01*
X265975988Y-114605345D01*
X265862509Y-114535351D01*
X265826668Y-114513244D01*
X265826663Y-114513242D01*
X265825194Y-114512755D01*
X265660129Y-114458058D01*
X265660127Y-114458057D01*
X265557342Y-114447557D01*
X264207330Y-114447557D01*
X264207313Y-114447558D01*
X264104535Y-114458057D01*
X264104532Y-114458058D01*
X263938000Y-114513242D01*
X263931450Y-114516297D01*
X263930311Y-114513854D01*
X263877599Y-114528807D01*
X262433789Y-114528807D01*
X262240502Y-114567254D01*
X262240492Y-114567257D01*
X262058425Y-114642671D01*
X262058409Y-114642680D01*
X261976482Y-114697421D01*
X261946597Y-114712024D01*
X261798637Y-114761053D01*
X261798626Y-114761058D01*
X261654291Y-114850086D01*
X261654287Y-114850089D01*
X261534364Y-114970012D01*
X261534361Y-114970016D01*
X261445333Y-115114351D01*
X261445328Y-115114362D01*
X261391983Y-115275347D01*
X261381832Y-115374704D01*
X261381832Y-115921394D01*
X259640500Y-115921394D01*
X259640500Y-115694970D01*
X259660185Y-115627931D01*
X259676819Y-115607289D01*
X261287708Y-113996400D01*
X261349031Y-113962915D01*
X261375389Y-113960081D01*
X285533567Y-113960081D01*
X285600606Y-113979766D01*
X285646361Y-114032570D01*
X285656305Y-114101728D01*
X285627280Y-114165284D01*
X285572572Y-114201786D01*
X285555969Y-114207288D01*
X285538000Y-114213242D01*
X285537995Y-114213244D01*
X285388674Y-114305346D01*
X285301533Y-114392488D01*
X285240210Y-114425973D01*
X285213852Y-114428807D01*
X284679977Y-114428807D01*
X284623227Y-114412712D01*
X284622577Y-114414108D01*
X284616031Y-114411055D01*
X284616029Y-114411054D01*
X284616026Y-114411053D01*
X284455041Y-114357708D01*
X284355678Y-114347557D01*
X283508994Y-114347557D01*
X283508976Y-114347558D01*
X283409624Y-114357707D01*
X283409621Y-114357708D01*
X283248637Y-114411053D01*
X283248626Y-114411058D01*
X283104291Y-114500086D01*
X283104287Y-114500089D01*
X282984364Y-114620012D01*
X282984361Y-114620016D01*
X282895333Y-114764351D01*
X282895328Y-114764362D01*
X282841983Y-114925347D01*
X282831832Y-115024704D01*
X282831832Y-115571394D01*
X282831833Y-115571412D01*
X282841982Y-115670764D01*
X282841983Y-115670767D01*
X282895328Y-115831751D01*
X282895333Y-115831762D01*
X282984361Y-115976097D01*
X282984364Y-115976101D01*
X283104287Y-116096024D01*
X283104291Y-116096027D01*
X283214212Y-116163828D01*
X283252217Y-116200475D01*
X283355191Y-116354587D01*
X283355192Y-116354588D01*
X283355193Y-116354589D01*
X283494550Y-116493946D01*
X283494551Y-116493946D01*
X283501618Y-116501013D01*
X283501617Y-116501013D01*
X283501620Y-116501015D01*
X284555192Y-117554588D01*
X284555193Y-117554589D01*
X284630400Y-117629796D01*
X284694551Y-117693947D01*
X284821627Y-117778856D01*
X284858418Y-117803439D01*
X284957764Y-117844589D01*
X285040496Y-117878858D01*
X285092906Y-117889283D01*
X285105736Y-117891835D01*
X285233788Y-117917307D01*
X285233791Y-117917307D01*
X285233792Y-117917307D01*
X285430872Y-117917307D01*
X285911727Y-117917307D01*
X285978766Y-117936992D01*
X286024521Y-117989796D01*
X286026271Y-117993816D01*
X286042383Y-118032713D01*
X286045699Y-118040719D01*
X286045703Y-118040726D01*
X286155192Y-118204589D01*
X286294546Y-118343943D01*
X286294550Y-118343946D01*
X286458411Y-118453435D01*
X286458424Y-118453442D01*
X286617301Y-118519250D01*
X286640497Y-118528858D01*
X286640501Y-118528858D01*
X286640502Y-118528859D01*
X286833788Y-118567307D01*
X286833791Y-118567307D01*
X287030875Y-118567307D01*
X287160914Y-118541439D01*
X287224167Y-118528858D01*
X287406246Y-118453439D01*
X287570114Y-118343946D01*
X287709471Y-118204589D01*
X287818964Y-118040721D01*
X287894383Y-117858642D01*
X287914274Y-117758646D01*
X287932832Y-117665350D01*
X287932832Y-116968263D01*
X287906831Y-116837552D01*
X287894383Y-116774971D01*
X287865789Y-116705939D01*
X287818964Y-116592893D01*
X287803728Y-116570091D01*
X287782852Y-116503414D01*
X287782832Y-116501202D01*
X287782832Y-115889855D01*
X287791700Y-115849852D01*
X287789874Y-115849247D01*
X287792146Y-115842391D01*
X287847331Y-115675854D01*
X287857832Y-115573066D01*
X287857831Y-114848049D01*
X287851426Y-114785352D01*
X287847331Y-114745260D01*
X287847330Y-114745257D01*
X287844943Y-114738055D01*
X287792146Y-114578723D01*
X287700044Y-114429401D01*
X287575988Y-114305345D01*
X287462987Y-114235646D01*
X287426668Y-114213244D01*
X287426663Y-114213242D01*
X287392094Y-114201787D01*
X287260129Y-114158058D01*
X287260127Y-114158057D01*
X287157348Y-114147557D01*
X286683570Y-114147557D01*
X286616531Y-114127872D01*
X286570776Y-114075068D01*
X286560832Y-114005910D01*
X286589857Y-113942354D01*
X286645252Y-113905626D01*
X286648968Y-113904418D01*
X286815992Y-113850149D01*
X287026434Y-113742924D01*
X287217510Y-113604098D01*
X287734518Y-113087091D01*
X287873343Y-112896014D01*
X287980568Y-112685573D01*
X288053553Y-112460949D01*
X288065491Y-112385577D01*
X288090500Y-112227678D01*
X288090500Y-111991483D01*
X288053553Y-111758215D01*
X288053553Y-111758212D01*
X287980568Y-111533589D01*
X287873343Y-111323147D01*
X287734518Y-111132071D01*
X287567510Y-110965063D01*
X287376434Y-110826238D01*
X287165992Y-110719013D01*
X286941369Y-110646028D01*
X286941367Y-110646027D01*
X286941365Y-110646027D01*
X286708097Y-110609081D01*
X286708092Y-110609081D01*
X286471908Y-110609081D01*
X286471903Y-110609081D01*
X286238631Y-110646027D01*
X286014003Y-110719014D01*
X285803563Y-110826240D01*
X285653319Y-110935399D01*
X285587513Y-110958879D01*
X285580434Y-110959081D01*
X260584403Y-110959081D01*
X260351131Y-110996027D01*
X260215132Y-111040216D01*
X260181780Y-111051054D01*
X260162865Y-111057199D01*
X260126503Y-111069014D01*
X259916065Y-111176238D01*
X259724988Y-111315065D01*
X256995484Y-114044569D01*
X256856657Y-114235646D01*
X256787838Y-114370713D01*
X256749433Y-114446084D01*
X256676446Y-114670712D01*
X256639500Y-114903983D01*
X256639500Y-119687110D01*
X256619815Y-119754149D01*
X256603181Y-119774791D01*
X255474983Y-120902988D01*
X255413660Y-120936473D01*
X255343968Y-120931489D01*
X255288035Y-120889617D01*
X255282308Y-120881279D01*
X255229816Y-120797738D01*
X255102262Y-120670184D01*
X255022688Y-120620184D01*
X254949523Y-120574211D01*
X254779254Y-120514631D01*
X254779249Y-120514630D01*
X254600004Y-120494435D01*
X254599996Y-120494435D01*
X254420750Y-120514630D01*
X254420745Y-120514631D01*
X254250476Y-120574211D01*
X254097737Y-120670184D01*
X253970184Y-120797737D01*
X253874210Y-120950478D01*
X253814632Y-121120744D01*
X253814630Y-121120752D01*
X253813815Y-121127988D01*
X253786743Y-121192400D01*
X253778277Y-121201775D01*
X250212181Y-124767872D01*
X250150858Y-124801357D01*
X250081166Y-124796373D01*
X250025233Y-124754501D01*
X250000816Y-124689037D01*
X250000500Y-124680191D01*
X250000500Y-122670806D01*
X250020185Y-122603767D01*
X250036814Y-122583130D01*
X254548223Y-118071720D01*
X254609544Y-118038237D01*
X254622020Y-118036183D01*
X254629255Y-118035368D01*
X254799522Y-117975789D01*
X254952262Y-117879816D01*
X255079816Y-117752262D01*
X255175789Y-117599522D01*
X255235368Y-117429255D01*
X255235689Y-117426405D01*
X255255565Y-117250003D01*
X255255565Y-117249996D01*
X255235369Y-117070750D01*
X255235368Y-117070745D01*
X255192607Y-116948541D01*
X255175789Y-116900478D01*
X255079816Y-116747738D01*
X254952262Y-116620184D01*
X254925573Y-116603414D01*
X254799523Y-116524211D01*
X254629254Y-116464631D01*
X254629249Y-116464630D01*
X254450004Y-116444435D01*
X254449996Y-116444435D01*
X254270750Y-116464630D01*
X254270745Y-116464631D01*
X254100476Y-116524211D01*
X253947737Y-116620184D01*
X253820184Y-116747737D01*
X253724210Y-116900478D01*
X253664632Y-117070744D01*
X253664630Y-117070753D01*
X253663815Y-117077988D01*
X253636743Y-117142400D01*
X253628277Y-117151776D01*
X248844727Y-121935325D01*
X248844726Y-121935326D01*
X248784283Y-122025788D01*
X248784281Y-122025791D01*
X248773536Y-122041870D01*
X248773533Y-122041875D01*
X248724499Y-122160255D01*
X248724497Y-122160261D01*
X248699500Y-122285928D01*
X248699500Y-122285931D01*
X248699500Y-131869794D01*
X248699500Y-131869796D01*
X248699499Y-131869796D01*
X243275753Y-131869796D01*
X243264951Y-131836550D01*
X243240568Y-131761508D01*
X243240566Y-131761505D01*
X243240566Y-131761503D01*
X243184002Y-131650491D01*
X243133343Y-131551067D01*
X242994517Y-131359990D01*
X242827510Y-131192983D01*
X242636433Y-131054157D01*
X242600186Y-131035688D01*
X242425996Y-130946933D01*
X242201368Y-130873946D01*
X241968097Y-130837000D01*
X241968092Y-130837000D01*
X231632531Y-130837000D01*
X231576236Y-130823485D01*
X231425996Y-130746933D01*
X231201368Y-130673946D01*
X230968097Y-130637000D01*
X230968092Y-130637000D01*
X220468092Y-130637000D01*
X218860389Y-130637000D01*
X218793350Y-130617315D01*
X218772708Y-130600681D01*
X218147511Y-129975484D01*
X218135700Y-129966903D01*
X217956434Y-129836657D01*
X217944611Y-129830633D01*
X217745996Y-129729433D01*
X217521368Y-129656446D01*
X217288097Y-129619500D01*
X217288092Y-129619500D01*
X209958993Y-129619500D01*
X209891954Y-129599815D01*
X209846199Y-129547011D01*
X209836255Y-129477853D01*
X209857418Y-129424377D01*
X209974032Y-129257834D01*
X209974031Y-129257834D01*
X209974035Y-129257830D01*
X210073903Y-129043663D01*
X210135063Y-128815408D01*
X210155659Y-128580000D01*
X210135063Y-128344592D01*
X210073903Y-128116337D01*
X209974035Y-127902171D01*
X209965673Y-127890228D01*
X209838494Y-127708597D01*
X209671402Y-127541506D01*
X209671395Y-127541501D01*
X209654344Y-127529562D01*
X209541433Y-127450500D01*
X209477834Y-127405967D01*
X209477830Y-127405965D01*
X209263663Y-127306097D01*
X209263659Y-127306096D01*
X209263655Y-127306094D01*
X209035413Y-127244938D01*
X209035403Y-127244936D01*
X208821780Y-127226246D01*
X208756711Y-127200793D01*
X208715733Y-127144202D01*
X208711855Y-127074440D01*
X208744905Y-127015039D01*
X214344517Y-121415429D01*
X214483343Y-121224353D01*
X214590568Y-121013911D01*
X214663553Y-120789288D01*
X214687832Y-120635994D01*
X214700500Y-120556016D01*
X214700500Y-115772889D01*
X214702179Y-115767172D01*
X216499500Y-115767172D01*
X216530290Y-115961576D01*
X216591117Y-116148779D01*
X216675797Y-116314972D01*
X216680476Y-116324155D01*
X216796172Y-116483396D01*
X216935354Y-116622578D01*
X217094595Y-116738274D01*
X217177455Y-116780493D01*
X217269970Y-116827632D01*
X217269972Y-116827632D01*
X217269975Y-116827634D01*
X217415684Y-116874978D01*
X217457174Y-116888459D01*
X217533364Y-116900526D01*
X217596499Y-116930455D01*
X217601647Y-116935317D01*
X218172860Y-117506531D01*
X218172861Y-117506532D01*
X218243321Y-117576992D01*
X218312219Y-117645890D01*
X218476079Y-117755378D01*
X218476092Y-117755385D01*
X218604833Y-117808711D01*
X218655786Y-117829816D01*
X218658164Y-117830801D01*
X218727481Y-117844589D01*
X218758475Y-117850754D01*
X218851456Y-117869250D01*
X218851459Y-117869250D01*
X218851460Y-117869250D01*
X219048540Y-117869250D01*
X219529395Y-117869250D01*
X219596434Y-117888935D01*
X219642189Y-117941739D01*
X219643939Y-117945759D01*
X219659756Y-117983943D01*
X219663367Y-117992662D01*
X219663371Y-117992669D01*
X219772860Y-118156532D01*
X219912214Y-118295886D01*
X219912218Y-118295889D01*
X220076079Y-118405378D01*
X220076092Y-118405385D01*
X220225587Y-118467307D01*
X220258165Y-118480801D01*
X220258169Y-118480801D01*
X220258170Y-118480802D01*
X220451456Y-118519250D01*
X220451459Y-118519250D01*
X220648543Y-118519250D01*
X220778582Y-118493382D01*
X220841835Y-118480801D01*
X221023914Y-118405382D01*
X221187782Y-118295889D01*
X221327139Y-118156532D01*
X221436632Y-117992664D01*
X221512051Y-117810585D01*
X221534338Y-117698542D01*
X221550500Y-117617293D01*
X221550500Y-116920206D01*
X221527043Y-116802285D01*
X221527043Y-116802284D01*
X221512051Y-116726914D01*
X221499966Y-116697737D01*
X221485577Y-116662999D01*
X221442710Y-116559510D01*
X221436632Y-116544836D01*
X221421396Y-116522034D01*
X221400520Y-116455357D01*
X221400500Y-116453145D01*
X221400500Y-115991561D01*
X221406794Y-115952557D01*
X221414999Y-115927797D01*
X221425500Y-115825009D01*
X221425499Y-115099992D01*
X221422981Y-115075347D01*
X221414999Y-114997203D01*
X221414998Y-114997200D01*
X221405989Y-114970012D01*
X221359814Y-114830666D01*
X221267712Y-114681344D01*
X221143656Y-114557288D01*
X221043308Y-114495393D01*
X220994336Y-114465187D01*
X220994331Y-114465185D01*
X220941133Y-114447557D01*
X220827797Y-114410001D01*
X220827795Y-114410000D01*
X220725016Y-114399500D01*
X220725009Y-114399500D01*
X220267515Y-114399500D01*
X220243324Y-114397117D01*
X220206725Y-114389837D01*
X220161042Y-114380750D01*
X220161041Y-114380750D01*
X218898541Y-114380750D01*
X218055486Y-114380750D01*
X218036088Y-114379223D01*
X217848422Y-114349500D01*
X217848417Y-114349500D01*
X217651583Y-114349500D01*
X217651578Y-114349500D01*
X217457173Y-114380290D01*
X217269970Y-114441117D01*
X217094594Y-114530476D01*
X217037905Y-114571664D01*
X216935354Y-114646172D01*
X216935352Y-114646174D01*
X216935351Y-114646174D01*
X216796174Y-114785351D01*
X216796174Y-114785352D01*
X216796172Y-114785354D01*
X216749205Y-114849998D01*
X216680476Y-114944594D01*
X216591117Y-115119970D01*
X216530290Y-115307173D01*
X216499500Y-115501577D01*
X216499500Y-115767172D01*
X214702179Y-115767172D01*
X214720185Y-115705850D01*
X214736819Y-115685208D01*
X216347708Y-114074319D01*
X216409031Y-114040834D01*
X216435389Y-114038000D01*
X219931908Y-114038000D01*
X227745111Y-114038000D01*
X227812150Y-114057685D01*
X227857905Y-114110489D01*
X227867849Y-114179647D01*
X227838824Y-114243203D01*
X227825646Y-114256287D01*
X227822855Y-114258670D01*
X227546174Y-114535351D01*
X227546174Y-114535352D01*
X227546172Y-114535354D01*
X227514661Y-114578725D01*
X227430476Y-114694594D01*
X227341115Y-114869973D01*
X227341114Y-114869976D01*
X227294004Y-115014970D01*
X227280290Y-115057176D01*
X227280290Y-115057177D01*
X227249500Y-115251577D01*
X227249500Y-115510922D01*
X227279229Y-115698623D01*
X227280291Y-115705326D01*
X227280930Y-115707294D01*
X227281253Y-115709336D01*
X227281428Y-115710061D01*
X227281370Y-115710074D01*
X227287000Y-115745612D01*
X227287000Y-115835922D01*
X227317790Y-116030326D01*
X227378617Y-116217530D01*
X227448452Y-116354587D01*
X227467976Y-116392905D01*
X227583672Y-116552146D01*
X228485354Y-117453828D01*
X228504083Y-117467436D01*
X228534297Y-117498860D01*
X228585360Y-117575281D01*
X228585363Y-117575285D01*
X228724714Y-117714636D01*
X228724718Y-117714639D01*
X228888579Y-117824128D01*
X228888592Y-117824135D01*
X229047114Y-117889796D01*
X229070665Y-117899551D01*
X229070669Y-117899551D01*
X229070670Y-117899552D01*
X229263956Y-117938000D01*
X229263959Y-117938000D01*
X230221718Y-117938000D01*
X230288757Y-117957685D01*
X230309399Y-117974319D01*
X230712214Y-118377136D01*
X230712218Y-118377139D01*
X230876078Y-118486627D01*
X230876084Y-118486630D01*
X230876085Y-118486631D01*
X231058164Y-118562051D01*
X231251454Y-118600499D01*
X231251457Y-118600500D01*
X231251459Y-118600500D01*
X231448542Y-118600500D01*
X231448543Y-118600499D01*
X231641835Y-118562051D01*
X231823914Y-118486631D01*
X231987781Y-118377139D01*
X232127139Y-118237781D01*
X232236631Y-118073914D01*
X232312051Y-117891835D01*
X232350500Y-117698540D01*
X232350500Y-117501459D01*
X232340383Y-117450597D01*
X232338000Y-117426405D01*
X232338000Y-116988956D01*
X232304540Y-116820746D01*
X232304540Y-116820745D01*
X232299551Y-116795664D01*
X232267492Y-116718267D01*
X232224132Y-116613586D01*
X232208896Y-116590784D01*
X232188020Y-116524107D01*
X232188000Y-116521895D01*
X232188000Y-115914866D01*
X232206462Y-115849768D01*
X232209814Y-115844334D01*
X232264999Y-115677797D01*
X232275500Y-115575009D01*
X232275499Y-114849992D01*
X232275299Y-114848037D01*
X232264999Y-114747203D01*
X232264998Y-114747200D01*
X232256633Y-114721956D01*
X232209814Y-114580666D01*
X232117712Y-114431344D01*
X231993656Y-114307288D01*
X231993655Y-114307287D01*
X231929212Y-114267539D01*
X231882487Y-114215591D01*
X231871264Y-114146629D01*
X231899107Y-114082547D01*
X231957176Y-114043690D01*
X231994308Y-114038000D01*
X238847672Y-114038000D01*
X238914711Y-114057685D01*
X238960466Y-114110489D01*
X238970410Y-114179647D01*
X238941385Y-114243203D01*
X238895124Y-114276561D01*
X238776092Y-114325864D01*
X238776079Y-114325871D01*
X238612221Y-114435358D01*
X238493769Y-114553809D01*
X238471188Y-114571664D01*
X238421954Y-114602033D01*
X238302029Y-114721959D01*
X238213001Y-114866294D01*
X238212996Y-114866305D01*
X238159651Y-115027290D01*
X238149500Y-115126647D01*
X238149500Y-115673337D01*
X238149501Y-115673355D01*
X238159650Y-115772707D01*
X238159651Y-115772710D01*
X238212996Y-115933694D01*
X238213001Y-115933705D01*
X238302029Y-116078040D01*
X238302032Y-116078044D01*
X238421955Y-116197967D01*
X238421959Y-116197970D01*
X238562074Y-116284395D01*
X238566303Y-116287003D01*
X238621830Y-116305402D01*
X238670506Y-116335426D01*
X239672860Y-117337781D01*
X239672861Y-117337782D01*
X239753936Y-117418857D01*
X239812219Y-117477140D01*
X239976079Y-117586628D01*
X239976086Y-117586632D01*
X240091723Y-117634530D01*
X240158164Y-117662051D01*
X240252024Y-117680721D01*
X240276882Y-117685665D01*
X240351456Y-117700500D01*
X240351459Y-117700500D01*
X240351460Y-117700500D01*
X240548540Y-117700500D01*
X241029395Y-117700500D01*
X241096434Y-117720185D01*
X241142189Y-117772989D01*
X241143939Y-117777009D01*
X241154887Y-117803439D01*
X241163367Y-117823912D01*
X241163371Y-117823919D01*
X241272860Y-117987782D01*
X241412214Y-118127136D01*
X241412218Y-118127139D01*
X241576079Y-118236628D01*
X241576092Y-118236635D01*
X241740150Y-118304589D01*
X241758165Y-118312051D01*
X241758169Y-118312051D01*
X241758170Y-118312052D01*
X241951456Y-118350500D01*
X241951459Y-118350500D01*
X242148543Y-118350500D01*
X242278582Y-118324632D01*
X242341835Y-118312051D01*
X242521140Y-118237781D01*
X242523907Y-118236635D01*
X242523907Y-118236634D01*
X242523914Y-118236632D01*
X242687782Y-118127139D01*
X242827139Y-117987782D01*
X242936632Y-117823914D01*
X242942156Y-117810579D01*
X242969490Y-117744588D01*
X243012051Y-117641835D01*
X243034337Y-117529796D01*
X243050500Y-117448543D01*
X243050500Y-116751456D01*
X243024864Y-116622579D01*
X243024864Y-116622578D01*
X243023075Y-116613586D01*
X243012051Y-116558164D01*
X243006252Y-116544165D01*
X242988166Y-116500500D01*
X242977277Y-116474211D01*
X242936632Y-116376086D01*
X242921396Y-116353284D01*
X242900520Y-116286607D01*
X242900500Y-116284395D01*
X242900500Y-115875663D01*
X242918962Y-115810566D01*
X242959809Y-115744342D01*
X242959808Y-115744342D01*
X242959814Y-115744334D01*
X243014999Y-115577797D01*
X243025500Y-115475009D01*
X243025499Y-114749992D01*
X243025015Y-114745257D01*
X243014999Y-114647203D01*
X243014998Y-114647200D01*
X243001129Y-114605346D01*
X242959814Y-114480666D01*
X242867712Y-114331344D01*
X242743656Y-114207288D01*
X242639389Y-114142976D01*
X242594336Y-114115187D01*
X242594331Y-114115185D01*
X242558289Y-114103242D01*
X242427797Y-114060001D01*
X242427795Y-114060000D01*
X242325016Y-114049500D01*
X242152970Y-114049500D01*
X242085931Y-114029815D01*
X242040176Y-113977011D01*
X242030232Y-113907853D01*
X242059257Y-113844297D01*
X242082893Y-113824259D01*
X242082492Y-113823707D01*
X242127978Y-113790659D01*
X242277510Y-113682017D01*
X242794518Y-113165010D01*
X242933343Y-112973933D01*
X243040568Y-112763492D01*
X243113553Y-112538868D01*
X243137832Y-112385577D01*
X243150500Y-112305597D01*
X243150500Y-112069402D01*
X243113553Y-111836134D01*
X243113553Y-111836131D01*
X243040568Y-111611508D01*
X242933343Y-111401066D01*
X242794518Y-111209990D01*
X242627510Y-111042982D01*
X242436434Y-110904157D01*
X242294951Y-110832068D01*
X242225994Y-110796933D01*
X242225993Y-110796932D01*
X242225992Y-110796932D01*
X242001369Y-110723947D01*
X242001367Y-110723946D01*
X242001365Y-110723946D01*
X241768097Y-110687000D01*
X241768092Y-110687000D01*
X241531908Y-110687000D01*
X241531903Y-110687000D01*
X241298631Y-110723946D01*
X241074003Y-110796933D01*
X240863563Y-110904159D01*
X240713319Y-111013318D01*
X240647513Y-111036798D01*
X240640434Y-111037000D01*
X215644403Y-111037000D01*
X215411131Y-111073946D01*
X215260234Y-111122976D01*
X215223228Y-111135001D01*
X215223227Y-111135001D01*
X215186513Y-111146929D01*
X215186507Y-111146932D01*
X214976065Y-111254157D01*
X214784988Y-111392984D01*
X212055484Y-114122488D01*
X211916657Y-114313565D01*
X211827805Y-114487949D01*
X211809433Y-114524003D01*
X211736446Y-114748631D01*
X211699500Y-114981902D01*
X211699500Y-119765030D01*
X211679815Y-119832069D01*
X211663181Y-119852711D01*
X205115485Y-126400406D01*
X205115484Y-126400407D01*
X204976657Y-126591484D01*
X204946588Y-126650499D01*
X204869433Y-126801922D01*
X204796446Y-127026550D01*
X204759500Y-127259821D01*
X204759500Y-128698097D01*
X202917560Y-128698097D01*
X202905255Y-112435000D01*
X205344341Y-112435000D01*
X205364936Y-112670403D01*
X205364938Y-112670413D01*
X205426094Y-112898655D01*
X205426096Y-112898659D01*
X205426097Y-112898663D01*
X205493147Y-113042452D01*
X205525965Y-113112830D01*
X205525967Y-113112834D01*
X205634281Y-113267521D01*
X205661505Y-113306401D01*
X205828599Y-113473495D01*
X205925384Y-113541265D01*
X206022165Y-113609032D01*
X206022167Y-113609033D01*
X206022170Y-113609035D01*
X206236337Y-113708903D01*
X206464592Y-113770063D01*
X206652918Y-113786539D01*
X206699999Y-113790659D01*
X206700000Y-113790659D01*
X206700001Y-113790659D01*
X206739234Y-113787226D01*
X206935408Y-113770063D01*
X207163663Y-113708903D01*
X207377830Y-113609035D01*
X207571401Y-113473495D01*
X207738495Y-113306401D01*
X207874035Y-113112830D01*
X207973903Y-112898663D01*
X208035063Y-112670408D01*
X208055659Y-112435000D01*
X208035063Y-112199592D01*
X207973903Y-111971337D01*
X207874035Y-111757171D01*
X207828045Y-111691489D01*
X207738494Y-111563597D01*
X207571402Y-111396506D01*
X207571395Y-111396501D01*
X207377834Y-111260967D01*
X207377830Y-111260965D01*
X207319122Y-111233589D01*
X207163663Y-111161097D01*
X207163659Y-111161096D01*
X207163655Y-111161094D01*
X206935413Y-111099938D01*
X206935403Y-111099936D01*
X206700001Y-111079341D01*
X206699999Y-111079341D01*
X206464596Y-111099936D01*
X206464586Y-111099938D01*
X206236344Y-111161094D01*
X206236335Y-111161098D01*
X206022171Y-111260964D01*
X206022169Y-111260965D01*
X205828597Y-111396505D01*
X205661505Y-111563597D01*
X205525965Y-111757169D01*
X205525964Y-111757171D01*
X205426098Y-111971335D01*
X205426094Y-111971344D01*
X205364938Y-112199586D01*
X205364936Y-112199596D01*
X205344341Y-112434999D01*
X205344341Y-112435000D01*
X202905255Y-112435000D01*
X202900580Y-106256287D01*
X206249500Y-106256287D01*
X206282754Y-106466243D01*
X206294298Y-106501773D01*
X206348444Y-106668414D01*
X206444951Y-106857820D01*
X206569890Y-107029786D01*
X206720213Y-107180109D01*
X206892179Y-107305048D01*
X206892181Y-107305049D01*
X206892184Y-107305051D01*
X207081588Y-107401557D01*
X207283757Y-107467246D01*
X207493713Y-107500500D01*
X207493714Y-107500500D01*
X207706286Y-107500500D01*
X207706287Y-107500500D01*
X207916243Y-107467246D01*
X208118412Y-107401557D01*
X208307816Y-107305051D01*
X208329789Y-107289086D01*
X208479786Y-107180109D01*
X208479788Y-107180106D01*
X208479792Y-107180104D01*
X208630104Y-107029792D01*
X208630106Y-107029788D01*
X208630109Y-107029786D01*
X208755048Y-106857820D01*
X208755047Y-106857820D01*
X208755051Y-106857816D01*
X208851557Y-106668412D01*
X208917246Y-106466243D01*
X208944872Y-106291821D01*
X341213966Y-106291821D01*
X341247220Y-106501777D01*
X341301363Y-106668412D01*
X341312910Y-106703948D01*
X341409417Y-106893354D01*
X341534356Y-107065320D01*
X341684679Y-107215643D01*
X341856645Y-107340582D01*
X341856647Y-107340583D01*
X341856650Y-107340585D01*
X342046054Y-107437091D01*
X342248223Y-107502780D01*
X342458179Y-107536034D01*
X342458180Y-107536034D01*
X342670752Y-107536034D01*
X342670753Y-107536034D01*
X342880709Y-107502780D01*
X343082878Y-107437091D01*
X343272282Y-107340585D01*
X343321195Y-107305048D01*
X343444252Y-107215643D01*
X343444254Y-107215640D01*
X343444258Y-107215638D01*
X343594570Y-107065326D01*
X343594572Y-107065322D01*
X343594575Y-107065320D01*
X343719514Y-106893354D01*
X343719513Y-106893354D01*
X343719517Y-106893350D01*
X343816023Y-106703946D01*
X343881712Y-106501777D01*
X343914966Y-106291821D01*
X343914966Y-106079247D01*
X343881712Y-105869291D01*
X343816023Y-105667122D01*
X343719517Y-105477718D01*
X343719515Y-105477715D01*
X343719514Y-105477713D01*
X343594575Y-105305747D01*
X343444252Y-105155424D01*
X343272286Y-105030485D01*
X343082880Y-104933978D01*
X343082879Y-104933977D01*
X343082878Y-104933977D01*
X342880709Y-104868288D01*
X342880707Y-104868287D01*
X342880706Y-104868287D01*
X342719423Y-104842742D01*
X342670753Y-104835034D01*
X342458179Y-104835034D01*
X342409508Y-104842742D01*
X342248226Y-104868287D01*
X342248223Y-104868288D01*
X342062874Y-104928512D01*
X342046051Y-104933978D01*
X341856645Y-105030485D01*
X341684679Y-105155424D01*
X341534356Y-105305747D01*
X341409417Y-105477713D01*
X341312910Y-105667119D01*
X341247219Y-105869294D01*
X341231854Y-105966305D01*
X341213966Y-106079247D01*
X341213966Y-106291821D01*
X208944872Y-106291821D01*
X208950500Y-106256287D01*
X208950500Y-106043713D01*
X208917246Y-105833757D01*
X208851557Y-105631588D01*
X208755051Y-105442184D01*
X208755049Y-105442181D01*
X208755048Y-105442179D01*
X208630109Y-105270213D01*
X208479786Y-105119890D01*
X208307820Y-104994951D01*
X208118414Y-104898444D01*
X208118413Y-104898443D01*
X208118412Y-104898443D01*
X207916243Y-104832754D01*
X207916241Y-104832753D01*
X207916240Y-104832753D01*
X207754957Y-104807208D01*
X207706287Y-104799500D01*
X207493713Y-104799500D01*
X207445042Y-104807208D01*
X207283760Y-104832753D01*
X207081585Y-104898444D01*
X206892179Y-104994951D01*
X206720213Y-105119890D01*
X206569890Y-105270213D01*
X206444951Y-105442179D01*
X206348444Y-105631585D01*
X206282753Y-105833760D01*
X206261760Y-105966305D01*
X206249500Y-106043713D01*
X206249500Y-106256287D01*
X202900580Y-106256287D01*
X202900502Y-106152745D01*
X202900620Y-106147246D01*
X202908520Y-105966305D01*
X202918147Y-105745795D01*
X202919087Y-105735064D01*
X202971189Y-105339302D01*
X202973063Y-105328672D01*
X203059463Y-104938950D01*
X203062261Y-104928512D01*
X203182291Y-104547823D01*
X203185979Y-104537691D01*
X203338742Y-104168888D01*
X203343300Y-104159114D01*
X203527617Y-103805045D01*
X203533012Y-103795700D01*
X203747495Y-103459029D01*
X203753685Y-103450189D01*
X203996687Y-103133503D01*
X204003625Y-103125234D01*
X204273304Y-102830932D01*
X204280932Y-102823304D01*
X204575234Y-102553625D01*
X204583503Y-102546687D01*
X204900189Y-102303685D01*
X204909029Y-102297495D01*
X205245700Y-102083012D01*
X205255045Y-102077617D01*
X205609114Y-101893300D01*
X205618888Y-101888742D01*
X205987691Y-101735979D01*
X205997823Y-101732291D01*
X206378521Y-101612258D01*
X206388950Y-101609463D01*
X206778672Y-101523063D01*
X206789302Y-101521189D01*
X207185064Y-101469087D01*
X207195796Y-101468147D01*
X207597303Y-101450617D01*
X207602680Y-101450500D01*
X342507030Y-101486018D01*
G37*
%TD.AperFunction*%
%TD*%
M02*
