%TF.GenerationSoftware,KiCad,Pcbnew,8.0.1*%
%TF.CreationDate,2024-05-07T00:04:45+05:00*%
%TF.ProjectId,PowerBoard,506f7765-7242-46f6-9172-642e6b696361,rev?*%
%TF.SameCoordinates,Original*%
%TF.FileFunction,Soldermask,Top*%
%TF.FilePolarity,Negative*%
%FSLAX46Y46*%
G04 Gerber Fmt 4.6, Leading zero omitted, Abs format (unit mm)*
G04 Created by KiCad (PCBNEW 8.0.1) date 2024-05-07 00:04:45*
%MOMM*%
%LPD*%
G01*
G04 APERTURE LIST*
G04 Aperture macros list*
%AMRoundRect*
0 Rectangle with rounded corners*
0 $1 Rounding radius*
0 $2 $3 $4 $5 $6 $7 $8 $9 X,Y pos of 4 corners*
0 Add a 4 corners polygon primitive as box body*
4,1,4,$2,$3,$4,$5,$6,$7,$8,$9,$2,$3,0*
0 Add four circle primitives for the rounded corners*
1,1,$1+$1,$2,$3*
1,1,$1+$1,$4,$5*
1,1,$1+$1,$6,$7*
1,1,$1+$1,$8,$9*
0 Add four rect primitives between the rounded corners*
20,1,$1+$1,$2,$3,$4,$5,0*
20,1,$1+$1,$4,$5,$6,$7,0*
20,1,$1+$1,$6,$7,$8,$9,0*
20,1,$1+$1,$8,$9,$2,$3,0*%
G04 Aperture macros list end*
%ADD10RoundRect,0.225000X-0.375000X0.225000X-0.375000X-0.225000X0.375000X-0.225000X0.375000X0.225000X0*%
%ADD11C,2.200000*%
%ADD12RoundRect,0.250000X-0.625000X0.312500X-0.625000X-0.312500X0.625000X-0.312500X0.625000X0.312500X0*%
%ADD13R,2.400000X2.400000*%
%ADD14C,2.400000*%
%ADD15R,1.700000X1.700000*%
%ADD16O,1.700000X1.700000*%
%ADD17C,0.600000*%
G04 APERTURE END LIST*
D10*
%TO.C,D2*%
X228500000Y-112050000D03*
X228500000Y-115350000D03*
%TD*%
%TO.C,D9*%
X262482332Y-112348057D03*
X262482332Y-115648057D03*
%TD*%
%TO.C,D4*%
X239500000Y-132050000D03*
X239500000Y-135350000D03*
%TD*%
D11*
%TO.C,H3*%
X342564466Y-106185534D03*
%TD*%
D12*
%TO.C,R27*%
X309232332Y-131938057D03*
X309232332Y-134863057D03*
%TD*%
D13*
%TO.C,C19*%
X343150000Y-111050000D03*
D14*
X343150000Y-118550000D03*
%TD*%
D12*
%TO.C,R25*%
X330822332Y-131988057D03*
X330822332Y-134913057D03*
%TD*%
%TO.C,R3*%
X220050000Y-112537500D03*
X220050000Y-115462500D03*
%TD*%
%TO.C,R24*%
X264782332Y-131885557D03*
X264782332Y-134810557D03*
%TD*%
D13*
%TO.C,C23*%
X345298749Y-129480000D03*
D14*
X345298749Y-136980000D03*
%TD*%
D12*
%TO.C,R20*%
X231050000Y-132337500D03*
X231050000Y-135262500D03*
%TD*%
D10*
%TO.C,D17*%
X317672332Y-111938057D03*
X317672332Y-115238057D03*
%TD*%
D12*
%TO.C,R1*%
X241650000Y-112187500D03*
X241650000Y-115112500D03*
%TD*%
%TO.C,R4*%
X286482332Y-112285557D03*
X286482332Y-115210557D03*
%TD*%
D10*
%TO.C,D1*%
X239250000Y-112100000D03*
X239250000Y-115400000D03*
%TD*%
%TO.C,D18*%
X328472332Y-111938057D03*
X328472332Y-115238057D03*
%TD*%
D11*
%TO.C,H1*%
X207600000Y-106150000D03*
%TD*%
D12*
%TO.C,R19*%
X241850000Y-132337500D03*
X241850000Y-135262500D03*
%TD*%
%TO.C,R22*%
X286432332Y-131948057D03*
X286432332Y-134873057D03*
%TD*%
D13*
%TO.C,C21*%
X343250000Y-140300000D03*
D14*
X343250000Y-147800000D03*
%TD*%
D12*
%TO.C,R5*%
X275632332Y-112385557D03*
X275632332Y-115310557D03*
%TD*%
D10*
%TO.C,D15*%
X306872332Y-131688057D03*
X306872332Y-134988057D03*
%TD*%
D15*
%TO.C,J7*%
X298272332Y-135878057D03*
D16*
X295732332Y-135878057D03*
X298272332Y-133338057D03*
X295732332Y-133338057D03*
X298272332Y-130798057D03*
X295732332Y-130798057D03*
X298272332Y-128258057D03*
X295732332Y-128258057D03*
%TD*%
D12*
%TO.C,R7*%
X330872332Y-112175557D03*
X330872332Y-115100557D03*
%TD*%
%TO.C,R23*%
X275582332Y-131885557D03*
X275582332Y-134810557D03*
%TD*%
%TO.C,R9*%
X309272332Y-112075557D03*
X309272332Y-115000557D03*
%TD*%
D10*
%TO.C,D10*%
X284082332Y-131810557D03*
X284082332Y-135110557D03*
%TD*%
D11*
%TO.C,H4*%
X342614466Y-153164466D03*
%TD*%
D12*
%TO.C,R8*%
X320022332Y-112225557D03*
X320022332Y-115150557D03*
%TD*%
D10*
%TO.C,D16*%
X306922332Y-111788057D03*
X306922332Y-115088057D03*
%TD*%
%TO.C,D12*%
X262432332Y-131748057D03*
X262432332Y-135048057D03*
%TD*%
%TO.C,D8*%
X273132332Y-112148057D03*
X273132332Y-115448057D03*
%TD*%
%TO.C,D7*%
X283932332Y-111998057D03*
X283932332Y-115298057D03*
%TD*%
%TO.C,D3*%
X217750000Y-112300000D03*
X217750000Y-115600000D03*
%TD*%
D15*
%TO.C,J12*%
X206700000Y-114975000D03*
D16*
X206700000Y-112435000D03*
%TD*%
D13*
%TO.C,C22*%
X338098750Y-142130000D03*
D14*
X338098750Y-149630000D03*
%TD*%
D12*
%TO.C,R2*%
X230900000Y-112287500D03*
X230900000Y-115212500D03*
%TD*%
D15*
%TO.C,J6*%
X208800000Y-136200000D03*
D16*
X206260000Y-136200000D03*
X208800000Y-133660000D03*
X206260000Y-133660000D03*
X208800000Y-131120000D03*
X206260000Y-131120000D03*
X208800000Y-128580000D03*
X206260000Y-128580000D03*
%TD*%
D12*
%TO.C,R21*%
X220350000Y-132137500D03*
X220350000Y-135062500D03*
%TD*%
D13*
%TO.C,C24*%
X344920001Y-114600000D03*
D14*
X344920001Y-122100000D03*
%TD*%
D10*
%TO.C,D13*%
X328422332Y-131700557D03*
X328422332Y-135000557D03*
%TD*%
%TO.C,D6*%
X217900000Y-131850000D03*
X217900000Y-135150000D03*
%TD*%
D13*
%TO.C,C20*%
X343250000Y-125750000D03*
D14*
X343250000Y-133250000D03*
%TD*%
D10*
%TO.C,D14*%
X317672332Y-131575557D03*
X317672332Y-134875557D03*
%TD*%
%TO.C,D11*%
X273239832Y-131788057D03*
X273239832Y-135088057D03*
%TD*%
D12*
%TO.C,R26*%
X320022332Y-131825557D03*
X320022332Y-134750557D03*
%TD*%
D10*
%TO.C,D5*%
X228612500Y-132110000D03*
X228612500Y-135410000D03*
%TD*%
D12*
%TO.C,R6*%
X264882332Y-112585557D03*
X264882332Y-115510557D03*
%TD*%
D11*
%TO.C,H2*%
X207635534Y-153114466D03*
%TD*%
D15*
%TO.C,J5*%
X253732332Y-136188057D03*
D16*
X251192332Y-136188057D03*
X253732332Y-133648057D03*
X251192332Y-133648057D03*
X253732332Y-131108057D03*
X251192332Y-131108057D03*
X253732332Y-128568057D03*
X251192332Y-128568057D03*
%TD*%
D17*
X342275000Y-108745000D03*
X245755000Y-157005000D03*
X257200000Y-152550000D03*
X250750000Y-156100000D03*
X210195000Y-139225000D03*
X281315000Y-154465000D03*
X219700000Y-153900000D03*
X299095000Y-149385000D03*
X324495000Y-157005000D03*
X204600000Y-115150000D03*
X214150000Y-156300000D03*
X294015000Y-149385000D03*
X242000000Y-152350000D03*
X289600000Y-155700000D03*
X319415000Y-154465000D03*
X278775000Y-154465000D03*
X276235000Y-157005000D03*
X309255000Y-144305000D03*
X337195000Y-146845000D03*
X344815000Y-144305000D03*
X294015000Y-157005000D03*
X215275000Y-154465000D03*
X230515000Y-149385000D03*
X280350000Y-152750000D03*
X243215000Y-154465000D03*
X238135000Y-146845000D03*
X220355000Y-157005000D03*
X225435000Y-136685000D03*
X294015000Y-151925000D03*
X291475000Y-154465000D03*
X344815000Y-154465000D03*
X271155000Y-116365000D03*
X306715000Y-154465000D03*
X276000000Y-154600000D03*
X210195000Y-154465000D03*
X342275000Y-144305000D03*
X339735000Y-154465000D03*
X223600000Y-156300000D03*
X205115000Y-151925000D03*
X205115000Y-121445000D03*
X255915000Y-154465000D03*
X238135000Y-157005000D03*
X280350000Y-156500000D03*
X337195000Y-144305000D03*
X205115000Y-106205000D03*
X225435000Y-157005000D03*
X324495000Y-154465000D03*
X220355000Y-149385000D03*
X320350000Y-152550000D03*
X309255000Y-151925000D03*
X205115000Y-141765000D03*
X230515000Y-157005000D03*
X324495000Y-116365000D03*
X205115000Y-103665000D03*
X225435000Y-116365000D03*
X212735000Y-136685000D03*
X260995000Y-116365000D03*
X344815000Y-151925000D03*
X311600000Y-152550000D03*
X332115000Y-141765000D03*
X311600000Y-156300000D03*
X217450000Y-154400000D03*
X235595000Y-146845000D03*
X309255000Y-154465000D03*
X258455000Y-154465000D03*
X205115000Y-118905000D03*
X309255000Y-149385000D03*
X268615000Y-116365000D03*
X321955000Y-157005000D03*
X286395000Y-151925000D03*
X309255000Y-157005000D03*
X215275000Y-136685000D03*
X281315000Y-146845000D03*
X263535000Y-154465000D03*
X250835000Y-144305000D03*
X248295000Y-146845000D03*
X327035000Y-116365000D03*
X296555000Y-146845000D03*
X248295000Y-139225000D03*
X212735000Y-157005000D03*
X227975000Y-157005000D03*
X296555000Y-151925000D03*
X250750000Y-152350000D03*
X255915000Y-116365000D03*
X253375000Y-149385000D03*
X321955000Y-149385000D03*
X337750000Y-156500000D03*
X248295000Y-144305000D03*
X286395000Y-157005000D03*
X271600000Y-156500000D03*
X205115000Y-146845000D03*
X283855000Y-146845000D03*
X222895000Y-136685000D03*
X268615000Y-154465000D03*
X220355000Y-151925000D03*
X320350000Y-156300000D03*
X263535000Y-157005000D03*
X248295000Y-149385000D03*
X207655000Y-108745000D03*
X273695000Y-154465000D03*
X230515000Y-154465000D03*
X253375000Y-151925000D03*
X266075000Y-154465000D03*
X250835000Y-139225000D03*
X314335000Y-116365000D03*
X266075000Y-149385000D03*
X301635000Y-157005000D03*
X214150000Y-152550000D03*
X250835000Y-141765000D03*
X235595000Y-136685000D03*
X205115000Y-108745000D03*
X235595000Y-116365000D03*
X205115000Y-139225000D03*
X248295000Y-136685000D03*
X327035000Y-146845000D03*
X342275000Y-157005000D03*
X211850000Y-154750000D03*
X278775000Y-157005000D03*
X329000000Y-156500000D03*
X294015000Y-146845000D03*
X232350000Y-152550000D03*
X246400000Y-154200000D03*
X223600000Y-152550000D03*
X253375000Y-154465000D03*
X240675000Y-154465000D03*
X250835000Y-149385000D03*
X327035000Y-157005000D03*
X207655000Y-146845000D03*
X230515000Y-151925000D03*
X248295000Y-134145000D03*
X276235000Y-149385000D03*
X268615000Y-157005000D03*
X294015000Y-134145000D03*
X207655000Y-149385000D03*
X222895000Y-154465000D03*
X210195000Y-141765000D03*
X271155000Y-154465000D03*
X339735000Y-157005000D03*
X210195000Y-157005000D03*
X332115000Y-144305000D03*
X290400000Y-150600000D03*
X261600000Y-154400000D03*
X232350000Y-156300000D03*
X260995000Y-157005000D03*
X233055000Y-136685000D03*
X207655000Y-118905000D03*
X207655000Y-157005000D03*
X329000000Y-152750000D03*
X344815000Y-103665000D03*
X276235000Y-151925000D03*
X344815000Y-108745000D03*
X332115000Y-149385000D03*
X233055000Y-149385000D03*
X296555000Y-157005000D03*
X248295000Y-131605000D03*
X314335000Y-157005000D03*
X238135000Y-154465000D03*
X294015000Y-136685000D03*
X205115000Y-149385000D03*
X314335000Y-154465000D03*
X296555000Y-149385000D03*
X248295000Y-157005000D03*
X257200000Y-156300000D03*
X233055000Y-154465000D03*
X299095000Y-141765000D03*
X250835000Y-146845000D03*
X210195000Y-151925000D03*
X329575000Y-146845000D03*
X306715000Y-157005000D03*
X235595000Y-154465000D03*
X311795000Y-154465000D03*
X253375000Y-146845000D03*
X235595000Y-157005000D03*
X298350000Y-151950000D03*
X225435000Y-154465000D03*
X342275000Y-121445000D03*
X333400000Y-154600000D03*
X332115000Y-146845000D03*
X283855000Y-154465000D03*
X286395000Y-146845000D03*
X210195000Y-116365000D03*
X283855000Y-157005000D03*
X248295000Y-151925000D03*
X294000000Y-153800000D03*
X327035000Y-154465000D03*
X291475000Y-157005000D03*
X222895000Y-116365000D03*
X210195000Y-149385000D03*
X296555000Y-154465000D03*
X242000000Y-156100000D03*
X233055000Y-116365000D03*
X281315000Y-116365000D03*
X245600000Y-150800000D03*
X240675000Y-149385000D03*
X316875000Y-157005000D03*
X342275000Y-136685000D03*
X342275000Y-103665000D03*
X294015000Y-139225000D03*
X217815000Y-157005000D03*
X339735000Y-144305000D03*
X248295000Y-141765000D03*
X240675000Y-146845000D03*
X321955000Y-116365000D03*
X316000000Y-154400000D03*
X289600000Y-151950000D03*
X207655000Y-103665000D03*
X339735000Y-151925000D03*
X228000000Y-154400000D03*
X321955000Y-154465000D03*
X253375000Y-157005000D03*
X286395000Y-154465000D03*
X271600000Y-152750000D03*
X301635000Y-154465000D03*
X311795000Y-116365000D03*
X278775000Y-116365000D03*
X324495000Y-146845000D03*
X248295000Y-154465000D03*
X248295000Y-129065000D03*
X311795000Y-149385000D03*
X342275000Y-116365000D03*
X344815000Y-106205000D03*
X205115000Y-144305000D03*
X298350000Y-155700000D03*
X265950000Y-156300000D03*
X294015000Y-141765000D03*
X337750000Y-152750000D03*
X255915000Y-149385000D03*
X205115000Y-154465000D03*
X265950000Y-152550000D03*
X321955000Y-151925000D03*
X273695000Y-157005000D03*
X286395000Y-149385000D03*
X304175000Y-157005000D03*
X294015000Y-144305000D03*
X250835000Y-154465000D03*
X339735000Y-146845000D03*
X299095000Y-139225000D03*
X304175000Y-154465000D03*
X241150000Y-116700000D03*
X240450000Y-116700000D03*
X241900000Y-116700000D03*
X242050000Y-117350000D03*
X230050000Y-117000000D03*
X231350000Y-117600000D03*
X229362500Y-116937500D03*
X230900000Y-117000000D03*
X220550000Y-117518750D03*
X220400000Y-116868750D03*
X219650000Y-116868750D03*
X218950000Y-116868750D03*
X240600000Y-136468750D03*
X242200000Y-137118750D03*
X242050000Y-136468750D03*
X241300000Y-136468750D03*
X231500000Y-137218750D03*
X229900000Y-136568750D03*
X231350000Y-136568750D03*
X230600000Y-136568750D03*
X219850000Y-136468750D03*
X220600000Y-136468750D03*
X219150000Y-136468750D03*
X220750000Y-137118750D03*
X254450000Y-117250000D03*
X298850000Y-117200000D03*
X286782332Y-116916807D03*
X285332332Y-116916807D03*
X286932332Y-117566807D03*
X286032332Y-116916807D03*
X276032332Y-116816807D03*
X274582332Y-116816807D03*
X275282332Y-116816807D03*
X276182332Y-117466807D03*
X263732332Y-117016807D03*
X265332332Y-117666807D03*
X264432332Y-117016807D03*
X265182332Y-117016807D03*
X286082332Y-136316807D03*
X285382332Y-136316807D03*
X286832332Y-136316807D03*
X286982332Y-136966807D03*
X276182332Y-137116807D03*
X275282332Y-136466807D03*
X274582332Y-136466807D03*
X276032332Y-136466807D03*
X264482332Y-136366807D03*
X265382332Y-137016807D03*
X263782332Y-136366807D03*
X265232332Y-136366807D03*
X331222332Y-136306807D03*
X331372332Y-136956807D03*
X330472332Y-136306807D03*
X329772332Y-136306807D03*
X320472332Y-136756807D03*
X318872332Y-136106807D03*
X320322332Y-136106807D03*
X319572332Y-136106807D03*
X309672332Y-136906807D03*
X309522332Y-136256807D03*
X308072332Y-136256807D03*
X308772332Y-136256807D03*
X308772332Y-116456807D03*
X309522332Y-116456807D03*
X309672332Y-117106807D03*
X308072332Y-116456807D03*
X320322332Y-116456807D03*
X319572332Y-116456807D03*
X318872332Y-116456807D03*
X320472332Y-117106807D03*
X331272332Y-117206807D03*
X329672332Y-116556807D03*
X331122332Y-116556807D03*
X330372332Y-116556807D03*
X254600000Y-121300000D03*
X299150000Y-121250000D03*
M02*
