%TF.GenerationSoftware,KiCad,Pcbnew,8.0.1*%
%TF.CreationDate,2024-05-07T00:04:45+05:00*%
%TF.ProjectId,PowerBoard,506f7765-7242-46f6-9172-642e6b696361,rev?*%
%TF.SameCoordinates,Original*%
%TF.FileFunction,Soldermask,Bot*%
%TF.FilePolarity,Negative*%
%FSLAX46Y46*%
G04 Gerber Fmt 4.6, Leading zero omitted, Abs format (unit mm)*
G04 Created by KiCad (PCBNEW 8.0.1) date 2024-05-07 00:04:45*
%MOMM*%
%LPD*%
G01*
G04 APERTURE LIST*
G04 Aperture macros list*
%AMRoundRect*
0 Rectangle with rounded corners*
0 $1 Rounding radius*
0 $2 $3 $4 $5 $6 $7 $8 $9 X,Y pos of 4 corners*
0 Add a 4 corners polygon primitive as box body*
4,1,4,$2,$3,$4,$5,$6,$7,$8,$9,$2,$3,0*
0 Add four circle primitives for the rounded corners*
1,1,$1+$1,$2,$3*
1,1,$1+$1,$4,$5*
1,1,$1+$1,$6,$7*
1,1,$1+$1,$8,$9*
0 Add four rect primitives between the rounded corners*
20,1,$1+$1,$2,$3,$4,$5,0*
20,1,$1+$1,$4,$5,$6,$7,0*
20,1,$1+$1,$6,$7,$8,$9,0*
20,1,$1+$1,$8,$9,$2,$3,0*%
%AMFreePoly0*
4,1,30,0.400000,-4.000000,-0.400000,-4.000000,-2.400000,-4.000000,-2.400000,-3.200000,-0.400000,-3.200000,-0.400000,-2.800000,-2.400000,-2.800000,-2.400000,-2.000000,-0.400000,-2.000000,-0.400000,-1.600000,-2.400000,-1.600000,-2.400000,-0.800000,-0.400000,-0.800000,-0.400000,-0.400000,-2.400000,-0.400000,-2.400000,0.400000,-0.400000,0.400000,-0.400000,0.800000,-2.400000,0.800000,-2.400000,1.600000,
-0.400000,1.600000,-0.400000,2.000000,-2.400000,2.000000,-2.400000,2.800000,-0.400000,2.800000,-0.400000,3.200000,-2.400000,3.200000,-2.400000,4.000000,0.400000,4.000000,0.400000,-4.000000,0.400000,-4.000000,$1*%
%AMFreePoly1*
4,1,13,2.850000,-5.050000,1.450000,-5.050000,1.450000,-4.350000,-1.450000,-4.350000,-1.450000,-4.850000,-5.150000,-4.850000,-5.150000,4.850000,-1.450000,4.850000,-1.450000,4.350000,1.450000,4.350000,1.450000,5.050000,2.850000,5.050000,2.850000,-5.050000,2.850000,-5.050000,$1*%
G04 Aperture macros list end*
%ADD10C,2.200000*%
%ADD11R,2.400000X2.400000*%
%ADD12C,2.400000*%
%ADD13R,1.700000X1.700000*%
%ADD14O,1.700000X1.700000*%
%ADD15RoundRect,0.100000X-0.100000X0.130000X-0.100000X-0.130000X0.100000X-0.130000X0.100000X0.130000X0*%
%ADD16RoundRect,0.100000X0.100000X-0.130000X0.100000X0.130000X-0.100000X0.130000X-0.100000X-0.130000X0*%
%ADD17RoundRect,0.250000X0.325000X1.100000X-0.325000X1.100000X-0.325000X-1.100000X0.325000X-1.100000X0*%
%ADD18R,5.511800X2.717800*%
%ADD19R,0.800000X2.800000*%
%ADD20FreePoly0,90.000000*%
%ADD21FreePoly1,90.000000*%
%ADD22R,10.000000X5.000000*%
%ADD23RoundRect,0.200000X0.275000X-0.200000X0.275000X0.200000X-0.275000X0.200000X-0.275000X-0.200000X0*%
%ADD24C,0.600000*%
G04 APERTURE END LIST*
D10*
%TO.C,H3*%
X342564466Y-106185534D03*
%TD*%
D11*
%TO.C,C19*%
X343150000Y-111050000D03*
D12*
X343150000Y-118550000D03*
%TD*%
D11*
%TO.C,C23*%
X345298749Y-129480000D03*
D12*
X345298749Y-136980000D03*
%TD*%
D10*
%TO.C,H1*%
X207600000Y-106150000D03*
%TD*%
D11*
%TO.C,C21*%
X343250000Y-140300000D03*
D12*
X343250000Y-147800000D03*
%TD*%
D13*
%TO.C,J7*%
X298272332Y-135878057D03*
D14*
X295732332Y-135878057D03*
X298272332Y-133338057D03*
X295732332Y-133338057D03*
X298272332Y-130798057D03*
X295732332Y-130798057D03*
X298272332Y-128258057D03*
X295732332Y-128258057D03*
%TD*%
D10*
%TO.C,H4*%
X342614466Y-153164466D03*
%TD*%
D13*
%TO.C,J12*%
X206700000Y-114975000D03*
D14*
X206700000Y-112435000D03*
%TD*%
D11*
%TO.C,C22*%
X338098750Y-142130000D03*
D12*
X338098750Y-149630000D03*
%TD*%
D13*
%TO.C,J6*%
X208800000Y-136200000D03*
D14*
X206260000Y-136200000D03*
X208800000Y-133660000D03*
X206260000Y-133660000D03*
X208800000Y-131120000D03*
X206260000Y-131120000D03*
X208800000Y-128580000D03*
X206260000Y-128580000D03*
%TD*%
D11*
%TO.C,C24*%
X344920001Y-114600000D03*
D12*
X344920001Y-122100000D03*
%TD*%
D11*
%TO.C,C20*%
X343250000Y-125750000D03*
D12*
X343250000Y-133250000D03*
%TD*%
D10*
%TO.C,H2*%
X207635534Y-153114466D03*
%TD*%
D13*
%TO.C,J5*%
X253732332Y-136188057D03*
D14*
X251192332Y-136188057D03*
X253732332Y-133648057D03*
X251192332Y-133648057D03*
X253732332Y-131108057D03*
X251192332Y-131108057D03*
X253732332Y-128568057D03*
X251192332Y-128568057D03*
%TD*%
D15*
%TO.C,R29*%
X233100000Y-147175000D03*
X233100000Y-147815000D03*
%TD*%
D16*
%TO.C,R30*%
X222100000Y-145470000D03*
X222100000Y-144830000D03*
%TD*%
D17*
%TO.C,C1*%
X247950000Y-109019807D03*
X245000000Y-109019807D03*
%TD*%
%TO.C,C16*%
X337465508Y-118919807D03*
X334515508Y-118919807D03*
%TD*%
D18*
%TO.C,R18*%
X326550000Y-150151000D03*
X326550000Y-142150000D03*
%TD*%
D15*
%TO.C,R37*%
X267600000Y-147175000D03*
X267600000Y-147815000D03*
%TD*%
D17*
%TO.C,C18*%
X337465508Y-125519807D03*
X334515508Y-125519807D03*
%TD*%
D18*
%TO.C,R17*%
X260400000Y-150401000D03*
X260400000Y-142400000D03*
%TD*%
D15*
%TO.C,R39*%
X278350000Y-147175000D03*
X278350000Y-147815000D03*
%TD*%
D17*
%TO.C,C13*%
X292707332Y-118919807D03*
X289757332Y-118919807D03*
%TD*%
%TO.C,C11*%
X248000000Y-122219807D03*
X245050000Y-122219807D03*
%TD*%
D19*
%TO.C,Q5*%
X276132332Y-119130000D03*
D20*
X271332332Y-118130000D03*
D21*
X271932332Y-110080000D03*
%TD*%
D16*
%TO.C,R32*%
X211350000Y-145470000D03*
X211350000Y-144830000D03*
%TD*%
D19*
%TO.C,Q8*%
X320447332Y-119018057D03*
D20*
X315647332Y-118018057D03*
D21*
X316247332Y-109968057D03*
%TD*%
D18*
%TO.C,R10*%
X236925000Y-150430500D03*
X236925000Y-142429500D03*
%TD*%
%TO.C,R11*%
X282050000Y-150351000D03*
X282050000Y-142350000D03*
%TD*%
D15*
%TO.C,R43*%
X312100000Y-147175000D03*
X312100000Y-147815000D03*
%TD*%
D22*
%TO.C,J1*%
X332850000Y-104100000D03*
%TD*%
D17*
%TO.C,C14*%
X292707332Y-122219807D03*
X289757332Y-122219807D03*
%TD*%
D19*
%TO.C,Q13*%
X286932332Y-138898057D03*
D20*
X282132332Y-137898057D03*
D21*
X282732332Y-129848057D03*
%TD*%
D17*
%TO.C,C3*%
X248000000Y-115619807D03*
X245050000Y-115619807D03*
%TD*%
D18*
%TO.C,R13*%
X225825000Y-150430500D03*
X225825000Y-142429500D03*
%TD*%
D19*
%TO.C,Q17*%
X320472332Y-138688057D03*
D20*
X315672332Y-137688057D03*
D21*
X316272332Y-129638057D03*
%TD*%
D16*
%TO.C,R36*%
X267600000Y-145470000D03*
X267600000Y-144830000D03*
%TD*%
D17*
%TO.C,C17*%
X337465508Y-122219807D03*
X334515508Y-122219807D03*
%TD*%
D19*
%TO.C,Q18*%
X309672332Y-138688057D03*
D20*
X304872332Y-137688057D03*
D21*
X305472332Y-129638057D03*
%TD*%
D17*
%TO.C,C5*%
X292707332Y-112319807D03*
X289757332Y-112319807D03*
%TD*%
%TO.C,C4*%
X292707332Y-109019807D03*
X289757332Y-109019807D03*
%TD*%
D15*
%TO.C,R41*%
X301100000Y-147175000D03*
X301100000Y-147815000D03*
%TD*%
D16*
%TO.C,R40*%
X301100000Y-145470000D03*
X301100000Y-144830000D03*
%TD*%
D22*
%TO.C,J11*%
X333400000Y-154600000D03*
%TD*%
D19*
%TO.C,Q2*%
X231325000Y-119180000D03*
D20*
X226525000Y-118180000D03*
D21*
X227125000Y-110130000D03*
%TD*%
D22*
%TO.C,J4*%
X316147332Y-123588057D03*
%TD*%
D15*
%TO.C,R45*%
X322850000Y-147175000D03*
X322850000Y-147815000D03*
%TD*%
D23*
%TO.C,NTC1*%
X210100000Y-120325000D03*
X210100000Y-118675000D03*
%TD*%
D17*
%TO.C,C12*%
X248000000Y-125519807D03*
X245050000Y-125519807D03*
%TD*%
%TO.C,C10*%
X248000000Y-118919807D03*
X245050000Y-118919807D03*
%TD*%
D19*
%TO.C,Q11*%
X231450000Y-139000000D03*
D20*
X226650000Y-138000000D03*
D21*
X227250000Y-129950000D03*
%TD*%
D16*
%TO.C,R34*%
X256600000Y-145470000D03*
X256600000Y-144830000D03*
%TD*%
D19*
%TO.C,Q15*%
X265332332Y-138898057D03*
D20*
X260532332Y-137898057D03*
D21*
X261132332Y-129848057D03*
%TD*%
D18*
%TO.C,R15*%
X315900000Y-150151000D03*
X315900000Y-142150000D03*
%TD*%
%TO.C,R14*%
X271250000Y-150401000D03*
X271250000Y-142400000D03*
%TD*%
%TO.C,R16*%
X215075000Y-150430500D03*
X215075000Y-142429500D03*
%TD*%
D17*
%TO.C,C7*%
X337456017Y-109019807D03*
X334506017Y-109019807D03*
%TD*%
D18*
%TO.C,R12*%
X304900000Y-150151000D03*
X304900000Y-142150000D03*
%TD*%
D19*
%TO.C,Q14*%
X276132332Y-138898057D03*
D20*
X271332332Y-137898057D03*
D21*
X271932332Y-129848057D03*
%TD*%
D19*
%TO.C,Q10*%
X242200000Y-139000000D03*
D20*
X237400000Y-138000000D03*
D21*
X238000000Y-129950000D03*
%TD*%
D19*
%TO.C,Q9*%
X309672332Y-119018057D03*
D20*
X304872332Y-118018057D03*
D21*
X305472332Y-109968057D03*
%TD*%
D16*
%TO.C,R28*%
X233100000Y-145470000D03*
X233100000Y-144830000D03*
%TD*%
D15*
%TO.C,R31*%
X222100000Y-147175000D03*
X222100000Y-147815000D03*
%TD*%
D19*
%TO.C,Q12*%
X220750000Y-139000000D03*
D20*
X215950000Y-138000000D03*
D21*
X216550000Y-129950000D03*
%TD*%
D16*
%TO.C,R42*%
X312100000Y-145470000D03*
X312100000Y-144830000D03*
%TD*%
%TO.C,R44*%
X322850000Y-145470000D03*
X322850000Y-144830000D03*
%TD*%
D19*
%TO.C,Q7*%
X331247332Y-119018057D03*
D20*
X326447332Y-118018057D03*
D21*
X327047332Y-109968057D03*
%TD*%
D22*
%TO.C,J2*%
X272082332Y-123848057D03*
%TD*%
D17*
%TO.C,C15*%
X292682332Y-125519807D03*
X289732332Y-125519807D03*
%TD*%
D19*
%TO.C,Q3*%
X220525000Y-119180000D03*
D20*
X215725000Y-118180000D03*
D21*
X216325000Y-110130000D03*
%TD*%
D17*
%TO.C,C9*%
X337456017Y-115619807D03*
X334506017Y-115619807D03*
%TD*%
D19*
%TO.C,Q6*%
X265332332Y-119130000D03*
D20*
X260532332Y-118130000D03*
D21*
X261132332Y-110080000D03*
%TD*%
D19*
%TO.C,Q16*%
X331322332Y-138688057D03*
D20*
X326522332Y-137688057D03*
D21*
X327122332Y-129638057D03*
%TD*%
D15*
%TO.C,R33*%
X211350000Y-147175000D03*
X211350000Y-147815000D03*
%TD*%
D23*
%TO.C,NTC3*%
X299200000Y-120025000D03*
X299200000Y-118375000D03*
%TD*%
D17*
%TO.C,C6*%
X292707332Y-115619807D03*
X289757332Y-115619807D03*
%TD*%
D23*
%TO.C,NTC2*%
X254900000Y-120225000D03*
X254900000Y-118575000D03*
%TD*%
D19*
%TO.C,Q1*%
X242050000Y-119180000D03*
D20*
X237250000Y-118180000D03*
D21*
X237850000Y-110130000D03*
%TD*%
D17*
%TO.C,C2*%
X247950000Y-112319807D03*
X245000000Y-112319807D03*
%TD*%
%TO.C,C8*%
X337456017Y-112319807D03*
X334506017Y-112319807D03*
%TD*%
D15*
%TO.C,R35*%
X256600000Y-147175000D03*
X256600000Y-147815000D03*
%TD*%
D16*
%TO.C,R38*%
X278350000Y-145470000D03*
X278350000Y-144830000D03*
%TD*%
D22*
%TO.C,J3*%
X227175000Y-123750000D03*
%TD*%
D19*
%TO.C,Q4*%
X286932332Y-119130000D03*
D20*
X282132332Y-118130000D03*
D21*
X282732332Y-110080000D03*
%TD*%
D24*
X342275000Y-108745000D03*
X245755000Y-157005000D03*
X257200000Y-152550000D03*
X250750000Y-156100000D03*
X210195000Y-139225000D03*
X281315000Y-154465000D03*
X219700000Y-153900000D03*
X299095000Y-149385000D03*
X324495000Y-157005000D03*
X204600000Y-115150000D03*
X214150000Y-156300000D03*
X294015000Y-149385000D03*
X242000000Y-152350000D03*
X289600000Y-155700000D03*
X319415000Y-154465000D03*
X278775000Y-154465000D03*
X276235000Y-157005000D03*
X309255000Y-144305000D03*
X337195000Y-146845000D03*
X344815000Y-144305000D03*
X294015000Y-157005000D03*
X215275000Y-154465000D03*
X230515000Y-149385000D03*
X280350000Y-152750000D03*
X243215000Y-154465000D03*
X238135000Y-146845000D03*
X220355000Y-157005000D03*
X225435000Y-136685000D03*
X294015000Y-151925000D03*
X291475000Y-154465000D03*
X344815000Y-154465000D03*
X271155000Y-116365000D03*
X306715000Y-154465000D03*
X276000000Y-154600000D03*
X210195000Y-154465000D03*
X342275000Y-144305000D03*
X339735000Y-154465000D03*
X223600000Y-156300000D03*
X205115000Y-151925000D03*
X205115000Y-121445000D03*
X255915000Y-154465000D03*
X238135000Y-157005000D03*
X280350000Y-156500000D03*
X337195000Y-144305000D03*
X205115000Y-106205000D03*
X225435000Y-157005000D03*
X324495000Y-154465000D03*
X220355000Y-149385000D03*
X320350000Y-152550000D03*
X309255000Y-151925000D03*
X205115000Y-141765000D03*
X230515000Y-157005000D03*
X324495000Y-116365000D03*
X205115000Y-103665000D03*
X225435000Y-116365000D03*
X212735000Y-136685000D03*
X260995000Y-116365000D03*
X344815000Y-151925000D03*
X311600000Y-152550000D03*
X332115000Y-141765000D03*
X311600000Y-156300000D03*
X217450000Y-154400000D03*
X235595000Y-146845000D03*
X309255000Y-154465000D03*
X258455000Y-154465000D03*
X205115000Y-118905000D03*
X309255000Y-149385000D03*
X268615000Y-116365000D03*
X321955000Y-157005000D03*
X286395000Y-151925000D03*
X309255000Y-157005000D03*
X215275000Y-136685000D03*
X281315000Y-146845000D03*
X263535000Y-154465000D03*
X250835000Y-144305000D03*
X248295000Y-146845000D03*
X327035000Y-116365000D03*
X296555000Y-146845000D03*
X248295000Y-139225000D03*
X212735000Y-157005000D03*
X227975000Y-157005000D03*
X296555000Y-151925000D03*
X250750000Y-152350000D03*
X255915000Y-116365000D03*
X253375000Y-149385000D03*
X321955000Y-149385000D03*
X337750000Y-156500000D03*
X248295000Y-144305000D03*
X286395000Y-157005000D03*
X271600000Y-156500000D03*
X205115000Y-146845000D03*
X283855000Y-146845000D03*
X222895000Y-136685000D03*
X268615000Y-154465000D03*
X220355000Y-151925000D03*
X320350000Y-156300000D03*
X263535000Y-157005000D03*
X248295000Y-149385000D03*
X207655000Y-108745000D03*
X273695000Y-154465000D03*
X230515000Y-154465000D03*
X253375000Y-151925000D03*
X266075000Y-154465000D03*
X250835000Y-139225000D03*
X314335000Y-116365000D03*
X266075000Y-149385000D03*
X301635000Y-157005000D03*
X214150000Y-152550000D03*
X250835000Y-141765000D03*
X235595000Y-136685000D03*
X205115000Y-108745000D03*
X235595000Y-116365000D03*
X205115000Y-139225000D03*
X248295000Y-136685000D03*
X327035000Y-146845000D03*
X342275000Y-157005000D03*
X211850000Y-154750000D03*
X278775000Y-157005000D03*
X329000000Y-156500000D03*
X294015000Y-146845000D03*
X232350000Y-152550000D03*
X246400000Y-154200000D03*
X223600000Y-152550000D03*
X253375000Y-154465000D03*
X240675000Y-154465000D03*
X250835000Y-149385000D03*
X327035000Y-157005000D03*
X207655000Y-146845000D03*
X230515000Y-151925000D03*
X248295000Y-134145000D03*
X276235000Y-149385000D03*
X268615000Y-157005000D03*
X294015000Y-134145000D03*
X207655000Y-149385000D03*
X222895000Y-154465000D03*
X210195000Y-141765000D03*
X271155000Y-154465000D03*
X339735000Y-157005000D03*
X210195000Y-157005000D03*
X332115000Y-144305000D03*
X290400000Y-150600000D03*
X261600000Y-154400000D03*
X232350000Y-156300000D03*
X260995000Y-157005000D03*
X233055000Y-136685000D03*
X207655000Y-118905000D03*
X207655000Y-157005000D03*
X329000000Y-152750000D03*
X344815000Y-103665000D03*
X276235000Y-151925000D03*
X344815000Y-108745000D03*
X332115000Y-149385000D03*
X233055000Y-149385000D03*
X296555000Y-157005000D03*
X248295000Y-131605000D03*
X314335000Y-157005000D03*
X238135000Y-154465000D03*
X294015000Y-136685000D03*
X205115000Y-149385000D03*
X314335000Y-154465000D03*
X296555000Y-149385000D03*
X248295000Y-157005000D03*
X257200000Y-156300000D03*
X233055000Y-154465000D03*
X299095000Y-141765000D03*
X250835000Y-146845000D03*
X210195000Y-151925000D03*
X329575000Y-146845000D03*
X306715000Y-157005000D03*
X235595000Y-154465000D03*
X311795000Y-154465000D03*
X253375000Y-146845000D03*
X235595000Y-157005000D03*
X298350000Y-151950000D03*
X225435000Y-154465000D03*
X342275000Y-121445000D03*
X333400000Y-154600000D03*
X332115000Y-146845000D03*
X283855000Y-154465000D03*
X286395000Y-146845000D03*
X210195000Y-116365000D03*
X283855000Y-157005000D03*
X248295000Y-151925000D03*
X294000000Y-153800000D03*
X327035000Y-154465000D03*
X291475000Y-157005000D03*
X222895000Y-116365000D03*
X210195000Y-149385000D03*
X296555000Y-154465000D03*
X242000000Y-156100000D03*
X233055000Y-116365000D03*
X281315000Y-116365000D03*
X245600000Y-150800000D03*
X240675000Y-149385000D03*
X316875000Y-157005000D03*
X342275000Y-136685000D03*
X342275000Y-103665000D03*
X294015000Y-139225000D03*
X217815000Y-157005000D03*
X339735000Y-144305000D03*
X248295000Y-141765000D03*
X240675000Y-146845000D03*
X321955000Y-116365000D03*
X316000000Y-154400000D03*
X289600000Y-151950000D03*
X207655000Y-103665000D03*
X339735000Y-151925000D03*
X228000000Y-154400000D03*
X321955000Y-154465000D03*
X253375000Y-157005000D03*
X286395000Y-154465000D03*
X271600000Y-152750000D03*
X301635000Y-154465000D03*
X311795000Y-116365000D03*
X278775000Y-116365000D03*
X324495000Y-146845000D03*
X248295000Y-154465000D03*
X248295000Y-129065000D03*
X311795000Y-149385000D03*
X342275000Y-116365000D03*
X344815000Y-106205000D03*
X205115000Y-144305000D03*
X298350000Y-155700000D03*
X265950000Y-156300000D03*
X294015000Y-141765000D03*
X337750000Y-152750000D03*
X255915000Y-149385000D03*
X205115000Y-154465000D03*
X265950000Y-152550000D03*
X321955000Y-151925000D03*
X273695000Y-157005000D03*
X286395000Y-149385000D03*
X304175000Y-157005000D03*
X294015000Y-144305000D03*
X250835000Y-154465000D03*
X339735000Y-146845000D03*
X299095000Y-139225000D03*
X304175000Y-154465000D03*
X241150000Y-116700000D03*
X240450000Y-116700000D03*
X241900000Y-116700000D03*
X242050000Y-117350000D03*
X230050000Y-117000000D03*
X231350000Y-117600000D03*
X229362500Y-116937500D03*
X230900000Y-117000000D03*
X220550000Y-117518750D03*
X220400000Y-116868750D03*
X219650000Y-116868750D03*
X218950000Y-116868750D03*
X240600000Y-136468750D03*
X242200000Y-137118750D03*
X242050000Y-136468750D03*
X241300000Y-136468750D03*
X231500000Y-137218750D03*
X229900000Y-136568750D03*
X231350000Y-136568750D03*
X230600000Y-136568750D03*
X219850000Y-136468750D03*
X220600000Y-136468750D03*
X219150000Y-136468750D03*
X220750000Y-137118750D03*
X254450000Y-117250000D03*
X298850000Y-117200000D03*
X286782332Y-116916807D03*
X285332332Y-116916807D03*
X286932332Y-117566807D03*
X286032332Y-116916807D03*
X276032332Y-116816807D03*
X274582332Y-116816807D03*
X275282332Y-116816807D03*
X276182332Y-117466807D03*
X263732332Y-117016807D03*
X265332332Y-117666807D03*
X264432332Y-117016807D03*
X265182332Y-117016807D03*
X286082332Y-136316807D03*
X285382332Y-136316807D03*
X286832332Y-136316807D03*
X286982332Y-136966807D03*
X276182332Y-137116807D03*
X275282332Y-136466807D03*
X274582332Y-136466807D03*
X276032332Y-136466807D03*
X264482332Y-136366807D03*
X265382332Y-137016807D03*
X263782332Y-136366807D03*
X265232332Y-136366807D03*
X331222332Y-136306807D03*
X331372332Y-136956807D03*
X330472332Y-136306807D03*
X329772332Y-136306807D03*
X320472332Y-136756807D03*
X318872332Y-136106807D03*
X320322332Y-136106807D03*
X319572332Y-136106807D03*
X309672332Y-136906807D03*
X309522332Y-136256807D03*
X308072332Y-136256807D03*
X308772332Y-136256807D03*
X308772332Y-116456807D03*
X309522332Y-116456807D03*
X309672332Y-117106807D03*
X308072332Y-116456807D03*
X320322332Y-116456807D03*
X319572332Y-116456807D03*
X318872332Y-116456807D03*
X320472332Y-117106807D03*
X331272332Y-117206807D03*
X329672332Y-116556807D03*
X331122332Y-116556807D03*
X330372332Y-116556807D03*
X254600000Y-121300000D03*
X299150000Y-121250000D03*
G36*
X338592999Y-151519706D02*
G01*
X338638774Y-151572492D01*
X338650000Y-151624048D01*
X338650000Y-157975923D01*
X338630315Y-158042962D01*
X338577511Y-158088717D01*
X338525923Y-158099923D01*
X210838112Y-158021144D01*
X210771085Y-158001418D01*
X210725363Y-157948586D01*
X210714189Y-157897421D01*
X210700277Y-151674228D01*
X210719812Y-151607145D01*
X210772514Y-151561272D01*
X210824229Y-151549951D01*
X338525952Y-151500048D01*
X338592999Y-151519706D01*
G37*
G36*
X338142572Y-101210575D02*
G01*
X338188372Y-101263340D01*
X338199621Y-101314399D01*
X338199999Y-101399774D01*
X338200000Y-101400323D01*
X338200000Y-107076194D01*
X338180315Y-107143233D01*
X338127511Y-107188988D01*
X338076195Y-107200194D01*
X210824195Y-107399805D01*
X210757124Y-107380225D01*
X210711287Y-107327493D01*
X210700000Y-107275805D01*
X210700000Y-101423893D01*
X210719685Y-101356854D01*
X210772489Y-101311099D01*
X210823894Y-101299893D01*
X338075516Y-101190948D01*
X338142572Y-101210575D01*
G37*
M02*
