M48
; DRILL file {KiCad 8.0.1} date 2024-05-07T00:06:47+0500
; FORMAT={-:-/ absolute / metric / decimal}
; #@! TF.CreationDate,2024-05-07T00:06:47+05:00
; #@! TF.GenerationSoftware,Kicad,Pcbnew,8.0.1
; #@! TF.FileFunction,Plated,1,2,PTH
FMAT,2
METRIC
; #@! TA.AperFunction,Plated,PTH,ViaDrill
T1C0.300
; #@! TA.AperFunction,Plated,PTH,ComponentDrill
T2C1.000
; #@! TA.AperFunction,Plated,PTH,ComponentDrill
T3C1.200
%
G90
G05
T1
X204.6Y-115.15
X205.115Y-103.665
X205.115Y-106.205
X205.115Y-108.745
X205.115Y-118.905
X205.115Y-121.445
X205.115Y-139.225
X205.115Y-141.765
X205.115Y-144.305
X205.115Y-146.845
X205.115Y-149.385
X205.115Y-151.925
X205.115Y-154.465
X207.655Y-103.665
X207.655Y-108.745
X207.655Y-118.905
X207.655Y-146.845
X207.655Y-149.385
X207.655Y-157.005
X210.195Y-116.365
X210.195Y-139.225
X210.195Y-141.765
X210.195Y-149.385
X210.195Y-151.925
X210.195Y-154.465
X210.195Y-157.005
X211.85Y-154.75
X212.735Y-136.685
X212.735Y-157.005
X214.15Y-152.55
X214.15Y-156.3
X215.275Y-136.685
X215.275Y-154.465
X217.45Y-154.4
X217.815Y-157.005
X218.95Y-116.869
X219.15Y-136.469
X219.65Y-116.869
X219.7Y-153.9
X219.85Y-136.469
X220.355Y-149.385
X220.355Y-151.925
X220.355Y-157.005
X220.4Y-116.869
X220.55Y-117.519
X220.6Y-136.469
X220.75Y-137.119
X222.895Y-116.365
X222.895Y-136.685
X222.895Y-154.465
X223.6Y-152.55
X223.6Y-156.3
X225.435Y-116.365
X225.435Y-136.685
X225.435Y-154.465
X225.435Y-157.005
X227.975Y-157.005
X228.0Y-154.4
X229.362Y-116.938
X229.9Y-136.569
X230.05Y-117.0
X230.515Y-149.385
X230.515Y-151.925
X230.515Y-154.465
X230.515Y-157.005
X230.6Y-136.569
X230.9Y-117.0
X231.35Y-117.6
X231.35Y-136.569
X231.5Y-137.219
X232.35Y-152.55
X232.35Y-156.3
X233.055Y-116.365
X233.055Y-136.685
X233.055Y-149.385
X233.055Y-154.465
X235.595Y-116.365
X235.595Y-136.685
X235.595Y-146.845
X235.595Y-154.465
X235.595Y-157.005
X238.135Y-146.845
X238.135Y-154.465
X238.135Y-157.005
X240.45Y-116.7
X240.6Y-136.469
X240.675Y-146.845
X240.675Y-149.385
X240.675Y-154.465
X241.15Y-116.7
X241.3Y-136.469
X241.9Y-116.7
X242.0Y-152.35
X242.0Y-156.1
X242.05Y-117.35
X242.05Y-136.469
X242.2Y-137.119
X243.215Y-154.465
X245.6Y-150.8
X245.755Y-157.005
X246.4Y-154.2
X248.295Y-129.065
X248.295Y-131.605
X248.295Y-134.145
X248.295Y-136.685
X248.295Y-139.225
X248.295Y-141.765
X248.295Y-144.305
X248.295Y-146.845
X248.295Y-149.385
X248.295Y-151.925
X248.295Y-154.465
X248.295Y-157.005
X250.75Y-152.35
X250.75Y-156.1
X250.835Y-139.225
X250.835Y-141.765
X250.835Y-144.305
X250.835Y-146.845
X250.835Y-149.385
X250.835Y-154.465
X253.375Y-146.845
X253.375Y-149.385
X253.375Y-151.925
X253.375Y-154.465
X253.375Y-157.005
X254.45Y-117.25
X254.6Y-121.3
X255.915Y-116.365
X255.915Y-149.385
X255.915Y-154.465
X257.2Y-152.55
X257.2Y-156.3
X258.455Y-154.465
X260.995Y-116.365
X260.995Y-157.005
X261.6Y-154.4
X263.535Y-154.465
X263.535Y-157.005
X263.732Y-117.017
X263.782Y-136.367
X264.432Y-117.017
X264.482Y-136.367
X265.182Y-117.017
X265.232Y-136.367
X265.332Y-117.667
X265.382Y-137.017
X265.95Y-152.55
X265.95Y-156.3
X266.075Y-149.385
X266.075Y-154.465
X268.615Y-116.365
X268.615Y-154.465
X268.615Y-157.005
X271.155Y-116.365
X271.155Y-154.465
X271.6Y-152.75
X271.6Y-156.5
X273.695Y-154.465
X273.695Y-157.005
X274.582Y-116.817
X274.582Y-136.467
X275.282Y-116.817
X275.282Y-136.467
X276.0Y-154.6
X276.032Y-116.817
X276.032Y-136.467
X276.182Y-117.467
X276.182Y-137.117
X276.235Y-149.385
X276.235Y-151.925
X276.235Y-157.005
X278.775Y-116.365
X278.775Y-154.465
X278.775Y-157.005
X280.35Y-152.75
X280.35Y-156.5
X281.315Y-116.365
X281.315Y-146.845
X281.315Y-154.465
X283.855Y-146.845
X283.855Y-154.465
X283.855Y-157.005
X285.332Y-116.917
X285.382Y-136.317
X286.032Y-116.917
X286.082Y-136.317
X286.395Y-146.845
X286.395Y-149.385
X286.395Y-151.925
X286.395Y-154.465
X286.395Y-157.005
X286.782Y-116.917
X286.832Y-136.317
X286.932Y-117.567
X286.982Y-136.967
X289.6Y-151.95
X289.6Y-155.7
X290.4Y-150.6
X291.475Y-154.465
X291.475Y-157.005
X294.0Y-153.8
X294.015Y-134.145
X294.015Y-136.685
X294.015Y-139.225
X294.015Y-141.765
X294.015Y-144.305
X294.015Y-146.845
X294.015Y-149.385
X294.015Y-151.925
X294.015Y-157.005
X296.555Y-146.845
X296.555Y-149.385
X296.555Y-151.925
X296.555Y-154.465
X296.555Y-157.005
X298.35Y-151.95
X298.35Y-155.7
X298.85Y-117.2
X299.095Y-139.225
X299.095Y-141.765
X299.095Y-149.385
X299.15Y-121.25
X301.635Y-154.465
X301.635Y-157.005
X304.175Y-154.465
X304.175Y-157.005
X306.715Y-154.465
X306.715Y-157.005
X308.072Y-116.457
X308.072Y-136.257
X308.772Y-116.457
X308.772Y-136.257
X309.255Y-144.305
X309.255Y-149.385
X309.255Y-151.925
X309.255Y-154.465
X309.255Y-157.005
X309.522Y-116.457
X309.522Y-136.257
X309.672Y-117.107
X309.672Y-136.907
X311.6Y-152.55
X311.6Y-156.3
X311.795Y-116.365
X311.795Y-149.385
X311.795Y-154.465
X314.335Y-116.365
X314.335Y-154.465
X314.335Y-157.005
X316.0Y-154.4
X316.875Y-157.005
X318.872Y-116.457
X318.872Y-136.107
X319.415Y-154.465
X319.572Y-116.457
X319.572Y-136.107
X320.322Y-116.457
X320.322Y-136.107
X320.35Y-152.55
X320.35Y-156.3
X320.472Y-117.107
X320.472Y-136.757
X321.955Y-116.365
X321.955Y-149.385
X321.955Y-151.925
X321.955Y-154.465
X321.955Y-157.005
X324.495Y-116.365
X324.495Y-146.845
X324.495Y-154.465
X324.495Y-157.005
X327.035Y-116.365
X327.035Y-146.845
X327.035Y-154.465
X327.035Y-157.005
X329.0Y-152.75
X329.0Y-156.5
X329.575Y-146.845
X329.672Y-116.557
X329.772Y-136.307
X330.372Y-116.557
X330.472Y-136.307
X331.122Y-116.557
X331.222Y-136.307
X331.272Y-117.207
X331.372Y-136.957
X332.115Y-141.765
X332.115Y-144.305
X332.115Y-146.845
X332.115Y-149.385
X333.4Y-154.6
X337.195Y-144.305
X337.195Y-146.845
X337.75Y-152.75
X337.75Y-156.5
X339.735Y-144.305
X339.735Y-146.845
X339.735Y-151.925
X339.735Y-154.465
X339.735Y-157.005
X342.275Y-103.665
X342.275Y-108.745
X342.275Y-116.365
X342.275Y-121.445
X342.275Y-136.685
X342.275Y-144.305
X342.275Y-157.005
X344.815Y-103.665
X344.815Y-106.205
X344.815Y-108.745
X344.815Y-144.305
X344.815Y-151.925
X344.815Y-154.465
T2
X206.26Y-128.58
X206.26Y-131.12
X206.26Y-133.66
X206.26Y-136.2
X206.7Y-112.435
X206.7Y-114.975
X208.8Y-128.58
X208.8Y-131.12
X208.8Y-133.66
X208.8Y-136.2
X251.192Y-128.568
X251.192Y-131.108
X251.192Y-133.648
X251.192Y-136.188
X253.732Y-128.568
X253.732Y-131.108
X253.732Y-133.648
X253.732Y-136.188
X295.732Y-128.258
X295.732Y-130.798
X295.732Y-133.338
X295.732Y-135.878
X298.272Y-128.258
X298.272Y-130.798
X298.272Y-133.338
X298.272Y-135.878
T3
X338.099Y-142.13
X338.099Y-149.63
X343.15Y-111.05
X343.15Y-118.55
X343.25Y-125.75
X343.25Y-133.25
X343.25Y-140.3
X343.25Y-147.8
X344.92Y-114.6
X344.92Y-122.1
X345.299Y-129.48
X345.299Y-136.98
M30
