%TF.GenerationSoftware,KiCad,Pcbnew,8.0.1*%
%TF.CreationDate,2024-05-07T00:04:45+05:00*%
%TF.ProjectId,PowerBoard,506f7765-7242-46f6-9172-642e6b696361,rev?*%
%TF.SameCoordinates,Original*%
%TF.FileFunction,Legend,Top*%
%TF.FilePolarity,Positive*%
%FSLAX46Y46*%
G04 Gerber Fmt 4.6, Leading zero omitted, Abs format (unit mm)*
G04 Created by KiCad (PCBNEW 8.0.1) date 2024-05-07 00:04:45*
%MOMM*%
%LPD*%
G01*
G04 APERTURE LIST*
G04 Aperture macros list*
%AMRoundRect*
0 Rectangle with rounded corners*
0 $1 Rounding radius*
0 $2 $3 $4 $5 $6 $7 $8 $9 X,Y pos of 4 corners*
0 Add a 4 corners polygon primitive as box body*
4,1,4,$2,$3,$4,$5,$6,$7,$8,$9,$2,$3,0*
0 Add four circle primitives for the rounded corners*
1,1,$1+$1,$2,$3*
1,1,$1+$1,$4,$5*
1,1,$1+$1,$6,$7*
1,1,$1+$1,$8,$9*
0 Add four rect primitives between the rounded corners*
20,1,$1+$1,$2,$3,$4,$5,0*
20,1,$1+$1,$4,$5,$6,$7,0*
20,1,$1+$1,$6,$7,$8,$9,0*
20,1,$1+$1,$8,$9,$2,$3,0*%
G04 Aperture macros list end*
%ADD10C,0.200000*%
%ADD11C,0.120000*%
%ADD12RoundRect,0.225000X-0.375000X0.225000X-0.375000X-0.225000X0.375000X-0.225000X0.375000X0.225000X0*%
%ADD13C,2.200000*%
%ADD14RoundRect,0.250000X-0.625000X0.312500X-0.625000X-0.312500X0.625000X-0.312500X0.625000X0.312500X0*%
%ADD15R,2.400000X2.400000*%
%ADD16C,2.400000*%
%ADD17R,1.700000X1.700000*%
%ADD18O,1.700000X1.700000*%
%ADD19C,0.600000*%
G04 APERTURE END LIST*
D10*
X213269673Y-102997331D02*
X213269673Y-101997331D01*
X213269673Y-101997331D02*
X213507768Y-101997331D01*
X213507768Y-101997331D02*
X213650625Y-102044950D01*
X213650625Y-102044950D02*
X213745863Y-102140188D01*
X213745863Y-102140188D02*
X213793482Y-102235426D01*
X213793482Y-102235426D02*
X213841101Y-102425902D01*
X213841101Y-102425902D02*
X213841101Y-102568759D01*
X213841101Y-102568759D02*
X213793482Y-102759235D01*
X213793482Y-102759235D02*
X213745863Y-102854473D01*
X213745863Y-102854473D02*
X213650625Y-102949712D01*
X213650625Y-102949712D02*
X213507768Y-102997331D01*
X213507768Y-102997331D02*
X213269673Y-102997331D01*
X214650625Y-102949712D02*
X214555387Y-102997331D01*
X214555387Y-102997331D02*
X214364911Y-102997331D01*
X214364911Y-102997331D02*
X214269673Y-102949712D01*
X214269673Y-102949712D02*
X214222054Y-102854473D01*
X214222054Y-102854473D02*
X214222054Y-102473521D01*
X214222054Y-102473521D02*
X214269673Y-102378283D01*
X214269673Y-102378283D02*
X214364911Y-102330664D01*
X214364911Y-102330664D02*
X214555387Y-102330664D01*
X214555387Y-102330664D02*
X214650625Y-102378283D01*
X214650625Y-102378283D02*
X214698244Y-102473521D01*
X214698244Y-102473521D02*
X214698244Y-102568759D01*
X214698244Y-102568759D02*
X214222054Y-102663997D01*
X215079197Y-102949712D02*
X215174435Y-102997331D01*
X215174435Y-102997331D02*
X215364911Y-102997331D01*
X215364911Y-102997331D02*
X215460149Y-102949712D01*
X215460149Y-102949712D02*
X215507768Y-102854473D01*
X215507768Y-102854473D02*
X215507768Y-102806854D01*
X215507768Y-102806854D02*
X215460149Y-102711616D01*
X215460149Y-102711616D02*
X215364911Y-102663997D01*
X215364911Y-102663997D02*
X215222054Y-102663997D01*
X215222054Y-102663997D02*
X215126816Y-102616378D01*
X215126816Y-102616378D02*
X215079197Y-102521140D01*
X215079197Y-102521140D02*
X215079197Y-102473521D01*
X215079197Y-102473521D02*
X215126816Y-102378283D01*
X215126816Y-102378283D02*
X215222054Y-102330664D01*
X215222054Y-102330664D02*
X215364911Y-102330664D01*
X215364911Y-102330664D02*
X215460149Y-102378283D01*
X215936340Y-102997331D02*
X215936340Y-102330664D01*
X215936340Y-101997331D02*
X215888721Y-102044950D01*
X215888721Y-102044950D02*
X215936340Y-102092569D01*
X215936340Y-102092569D02*
X215983959Y-102044950D01*
X215983959Y-102044950D02*
X215936340Y-101997331D01*
X215936340Y-101997331D02*
X215936340Y-102092569D01*
X216841101Y-102330664D02*
X216841101Y-103140188D01*
X216841101Y-103140188D02*
X216793482Y-103235426D01*
X216793482Y-103235426D02*
X216745863Y-103283045D01*
X216745863Y-103283045D02*
X216650625Y-103330664D01*
X216650625Y-103330664D02*
X216507768Y-103330664D01*
X216507768Y-103330664D02*
X216412530Y-103283045D01*
X216841101Y-102949712D02*
X216745863Y-102997331D01*
X216745863Y-102997331D02*
X216555387Y-102997331D01*
X216555387Y-102997331D02*
X216460149Y-102949712D01*
X216460149Y-102949712D02*
X216412530Y-102902092D01*
X216412530Y-102902092D02*
X216364911Y-102806854D01*
X216364911Y-102806854D02*
X216364911Y-102521140D01*
X216364911Y-102521140D02*
X216412530Y-102425902D01*
X216412530Y-102425902D02*
X216460149Y-102378283D01*
X216460149Y-102378283D02*
X216555387Y-102330664D01*
X216555387Y-102330664D02*
X216745863Y-102330664D01*
X216745863Y-102330664D02*
X216841101Y-102378283D01*
X217317292Y-102330664D02*
X217317292Y-102997331D01*
X217317292Y-102425902D02*
X217364911Y-102378283D01*
X217364911Y-102378283D02*
X217460149Y-102330664D01*
X217460149Y-102330664D02*
X217603006Y-102330664D01*
X217603006Y-102330664D02*
X217698244Y-102378283D01*
X217698244Y-102378283D02*
X217745863Y-102473521D01*
X217745863Y-102473521D02*
X217745863Y-102997331D01*
X218603006Y-102949712D02*
X218507768Y-102997331D01*
X218507768Y-102997331D02*
X218317292Y-102997331D01*
X218317292Y-102997331D02*
X218222054Y-102949712D01*
X218222054Y-102949712D02*
X218174435Y-102854473D01*
X218174435Y-102854473D02*
X218174435Y-102473521D01*
X218174435Y-102473521D02*
X218222054Y-102378283D01*
X218222054Y-102378283D02*
X218317292Y-102330664D01*
X218317292Y-102330664D02*
X218507768Y-102330664D01*
X218507768Y-102330664D02*
X218603006Y-102378283D01*
X218603006Y-102378283D02*
X218650625Y-102473521D01*
X218650625Y-102473521D02*
X218650625Y-102568759D01*
X218650625Y-102568759D02*
X218174435Y-102663997D01*
X219507768Y-102997331D02*
X219507768Y-101997331D01*
X219507768Y-102949712D02*
X219412530Y-102997331D01*
X219412530Y-102997331D02*
X219222054Y-102997331D01*
X219222054Y-102997331D02*
X219126816Y-102949712D01*
X219126816Y-102949712D02*
X219079197Y-102902092D01*
X219079197Y-102902092D02*
X219031578Y-102806854D01*
X219031578Y-102806854D02*
X219031578Y-102521140D01*
X219031578Y-102521140D02*
X219079197Y-102425902D01*
X219079197Y-102425902D02*
X219126816Y-102378283D01*
X219126816Y-102378283D02*
X219222054Y-102330664D01*
X219222054Y-102330664D02*
X219412530Y-102330664D01*
X219412530Y-102330664D02*
X219507768Y-102378283D01*
X220745864Y-102997331D02*
X220745864Y-101997331D01*
X220745864Y-102378283D02*
X220841102Y-102330664D01*
X220841102Y-102330664D02*
X221031578Y-102330664D01*
X221031578Y-102330664D02*
X221126816Y-102378283D01*
X221126816Y-102378283D02*
X221174435Y-102425902D01*
X221174435Y-102425902D02*
X221222054Y-102521140D01*
X221222054Y-102521140D02*
X221222054Y-102806854D01*
X221222054Y-102806854D02*
X221174435Y-102902092D01*
X221174435Y-102902092D02*
X221126816Y-102949712D01*
X221126816Y-102949712D02*
X221031578Y-102997331D01*
X221031578Y-102997331D02*
X220841102Y-102997331D01*
X220841102Y-102997331D02*
X220745864Y-102949712D01*
X221555388Y-102330664D02*
X221793483Y-102997331D01*
X222031578Y-102330664D02*
X221793483Y-102997331D01*
X221793483Y-102997331D02*
X221698245Y-103235426D01*
X221698245Y-103235426D02*
X221650626Y-103283045D01*
X221650626Y-103283045D02*
X221555388Y-103330664D01*
X213603006Y-104083465D02*
X213745863Y-104131084D01*
X213745863Y-104131084D02*
X213793482Y-104178703D01*
X213793482Y-104178703D02*
X213841101Y-104273941D01*
X213841101Y-104273941D02*
X213841101Y-104416798D01*
X213841101Y-104416798D02*
X213793482Y-104512036D01*
X213793482Y-104512036D02*
X213745863Y-104559656D01*
X213745863Y-104559656D02*
X213650625Y-104607275D01*
X213650625Y-104607275D02*
X213269673Y-104607275D01*
X213269673Y-104607275D02*
X213269673Y-103607275D01*
X213269673Y-103607275D02*
X213603006Y-103607275D01*
X213603006Y-103607275D02*
X213698244Y-103654894D01*
X213698244Y-103654894D02*
X213745863Y-103702513D01*
X213745863Y-103702513D02*
X213793482Y-103797751D01*
X213793482Y-103797751D02*
X213793482Y-103892989D01*
X213793482Y-103892989D02*
X213745863Y-103988227D01*
X213745863Y-103988227D02*
X213698244Y-104035846D01*
X213698244Y-104035846D02*
X213603006Y-104083465D01*
X213603006Y-104083465D02*
X213269673Y-104083465D01*
X214841101Y-104607275D02*
X214507768Y-104131084D01*
X214269673Y-104607275D02*
X214269673Y-103607275D01*
X214269673Y-103607275D02*
X214650625Y-103607275D01*
X214650625Y-103607275D02*
X214745863Y-103654894D01*
X214745863Y-103654894D02*
X214793482Y-103702513D01*
X214793482Y-103702513D02*
X214841101Y-103797751D01*
X214841101Y-103797751D02*
X214841101Y-103940608D01*
X214841101Y-103940608D02*
X214793482Y-104035846D01*
X214793482Y-104035846D02*
X214745863Y-104083465D01*
X214745863Y-104083465D02*
X214650625Y-104131084D01*
X214650625Y-104131084D02*
X214269673Y-104131084D01*
X215269673Y-104083465D02*
X215603006Y-104083465D01*
X215745863Y-104607275D02*
X215269673Y-104607275D01*
X215269673Y-104607275D02*
X215269673Y-103607275D01*
X215269673Y-103607275D02*
X215745863Y-103607275D01*
X216174435Y-104607275D02*
X216174435Y-103607275D01*
X216745863Y-104607275D02*
X216317292Y-104035846D01*
X216745863Y-103607275D02*
X216174435Y-104178703D01*
X217174435Y-104083465D02*
X217507768Y-104083465D01*
X217650625Y-104607275D02*
X217174435Y-104607275D01*
X217174435Y-104607275D02*
X217174435Y-103607275D01*
X217174435Y-103607275D02*
X217650625Y-103607275D01*
X218031578Y-104559656D02*
X218174435Y-104607275D01*
X218174435Y-104607275D02*
X218412530Y-104607275D01*
X218412530Y-104607275D02*
X218507768Y-104559656D01*
X218507768Y-104559656D02*
X218555387Y-104512036D01*
X218555387Y-104512036D02*
X218603006Y-104416798D01*
X218603006Y-104416798D02*
X218603006Y-104321560D01*
X218603006Y-104321560D02*
X218555387Y-104226322D01*
X218555387Y-104226322D02*
X218507768Y-104178703D01*
X218507768Y-104178703D02*
X218412530Y-104131084D01*
X218412530Y-104131084D02*
X218222054Y-104083465D01*
X218222054Y-104083465D02*
X218126816Y-104035846D01*
X218126816Y-104035846D02*
X218079197Y-103988227D01*
X218079197Y-103988227D02*
X218031578Y-103892989D01*
X218031578Y-103892989D02*
X218031578Y-103797751D01*
X218031578Y-103797751D02*
X218079197Y-103702513D01*
X218079197Y-103702513D02*
X218126816Y-103654894D01*
X218126816Y-103654894D02*
X218222054Y-103607275D01*
X218222054Y-103607275D02*
X218460149Y-103607275D01*
X218460149Y-103607275D02*
X218603006Y-103654894D01*
X219031578Y-104607275D02*
X219031578Y-103607275D01*
X219031578Y-104083465D02*
X219603006Y-104083465D01*
X219603006Y-104607275D02*
X219603006Y-103607275D01*
X220079197Y-104083465D02*
X220412530Y-104083465D01*
X220555387Y-104607275D02*
X220079197Y-104607275D01*
X220079197Y-104607275D02*
X220079197Y-103607275D01*
X220079197Y-103607275D02*
X220555387Y-103607275D01*
X220841102Y-103607275D02*
X221174435Y-104607275D01*
X221174435Y-104607275D02*
X221507768Y-103607275D01*
X222936340Y-104083465D02*
X223079197Y-104131084D01*
X223079197Y-104131084D02*
X223126816Y-104178703D01*
X223126816Y-104178703D02*
X223174435Y-104273941D01*
X223174435Y-104273941D02*
X223174435Y-104416798D01*
X223174435Y-104416798D02*
X223126816Y-104512036D01*
X223126816Y-104512036D02*
X223079197Y-104559656D01*
X223079197Y-104559656D02*
X222983959Y-104607275D01*
X222983959Y-104607275D02*
X222603007Y-104607275D01*
X222603007Y-104607275D02*
X222603007Y-103607275D01*
X222603007Y-103607275D02*
X222936340Y-103607275D01*
X222936340Y-103607275D02*
X223031578Y-103654894D01*
X223031578Y-103654894D02*
X223079197Y-103702513D01*
X223079197Y-103702513D02*
X223126816Y-103797751D01*
X223126816Y-103797751D02*
X223126816Y-103892989D01*
X223126816Y-103892989D02*
X223079197Y-103988227D01*
X223079197Y-103988227D02*
X223031578Y-104035846D01*
X223031578Y-104035846D02*
X222936340Y-104083465D01*
X222936340Y-104083465D02*
X222603007Y-104083465D01*
X223555388Y-104321560D02*
X224031578Y-104321560D01*
X223460150Y-104607275D02*
X223793483Y-103607275D01*
X223793483Y-103607275D02*
X224126816Y-104607275D01*
X224460150Y-104607275D02*
X224460150Y-103607275D01*
X225031578Y-104607275D02*
X224603007Y-104035846D01*
X225031578Y-103607275D02*
X224460150Y-104178703D01*
X225317293Y-103607275D02*
X225888721Y-103607275D01*
X225603007Y-104607275D02*
X225603007Y-103607275D01*
X226222055Y-104607275D02*
X226222055Y-103607275D01*
X226888721Y-104131084D02*
X226888721Y-104607275D01*
X226555388Y-103607275D02*
X226888721Y-104131084D01*
X226888721Y-104131084D02*
X227222054Y-103607275D01*
X227507769Y-104321560D02*
X227983959Y-104321560D01*
X227412531Y-104607275D02*
X227745864Y-103607275D01*
X227745864Y-103607275D02*
X228079197Y-104607275D01*
X228983959Y-104607275D02*
X228650626Y-104131084D01*
X228412531Y-104607275D02*
X228412531Y-103607275D01*
X228412531Y-103607275D02*
X228793483Y-103607275D01*
X228793483Y-103607275D02*
X228888721Y-103654894D01*
X228888721Y-103654894D02*
X228936340Y-103702513D01*
X228936340Y-103702513D02*
X228983959Y-103797751D01*
X228983959Y-103797751D02*
X228983959Y-103940608D01*
X228983959Y-103940608D02*
X228936340Y-104035846D01*
X228936340Y-104035846D02*
X228888721Y-104083465D01*
X228888721Y-104083465D02*
X228793483Y-104131084D01*
X228793483Y-104131084D02*
X228412531Y-104131084D01*
X213269673Y-106217219D02*
X213269673Y-105550552D01*
X213269673Y-105645790D02*
X213317292Y-105598171D01*
X213317292Y-105598171D02*
X213412530Y-105550552D01*
X213412530Y-105550552D02*
X213555387Y-105550552D01*
X213555387Y-105550552D02*
X213650625Y-105598171D01*
X213650625Y-105598171D02*
X213698244Y-105693409D01*
X213698244Y-105693409D02*
X213698244Y-106217219D01*
X213698244Y-105693409D02*
X213745863Y-105598171D01*
X213745863Y-105598171D02*
X213841101Y-105550552D01*
X213841101Y-105550552D02*
X213983958Y-105550552D01*
X213983958Y-105550552D02*
X214079197Y-105598171D01*
X214079197Y-105598171D02*
X214126816Y-105693409D01*
X214126816Y-105693409D02*
X214126816Y-106217219D01*
X214507768Y-105550552D02*
X214745863Y-106217219D01*
X214983958Y-105550552D02*
X214745863Y-106217219D01*
X214745863Y-106217219D02*
X214650625Y-106455314D01*
X214650625Y-106455314D02*
X214603006Y-106502933D01*
X214603006Y-106502933D02*
X214507768Y-106550552D01*
X215222054Y-105217219D02*
X215555387Y-106217219D01*
X215555387Y-106217219D02*
X215888720Y-105217219D01*
X216222054Y-105693409D02*
X216555387Y-105693409D01*
X216698244Y-106217219D02*
X216222054Y-106217219D01*
X216222054Y-106217219D02*
X216222054Y-105217219D01*
X216222054Y-105217219D02*
X216698244Y-105217219D01*
X217079197Y-106169600D02*
X217222054Y-106217219D01*
X217222054Y-106217219D02*
X217460149Y-106217219D01*
X217460149Y-106217219D02*
X217555387Y-106169600D01*
X217555387Y-106169600D02*
X217603006Y-106121980D01*
X217603006Y-106121980D02*
X217650625Y-106026742D01*
X217650625Y-106026742D02*
X217650625Y-105931504D01*
X217650625Y-105931504D02*
X217603006Y-105836266D01*
X217603006Y-105836266D02*
X217555387Y-105788647D01*
X217555387Y-105788647D02*
X217460149Y-105741028D01*
X217460149Y-105741028D02*
X217269673Y-105693409D01*
X217269673Y-105693409D02*
X217174435Y-105645790D01*
X217174435Y-105645790D02*
X217126816Y-105598171D01*
X217126816Y-105598171D02*
X217079197Y-105502933D01*
X217079197Y-105502933D02*
X217079197Y-105407695D01*
X217079197Y-105407695D02*
X217126816Y-105312457D01*
X217126816Y-105312457D02*
X217174435Y-105264838D01*
X217174435Y-105264838D02*
X217269673Y-105217219D01*
X217269673Y-105217219D02*
X217507768Y-105217219D01*
X217507768Y-105217219D02*
X217650625Y-105264838D01*
X218650625Y-106121980D02*
X218603006Y-106169600D01*
X218603006Y-106169600D02*
X218460149Y-106217219D01*
X218460149Y-106217219D02*
X218364911Y-106217219D01*
X218364911Y-106217219D02*
X218222054Y-106169600D01*
X218222054Y-106169600D02*
X218126816Y-106074361D01*
X218126816Y-106074361D02*
X218079197Y-105979123D01*
X218079197Y-105979123D02*
X218031578Y-105788647D01*
X218031578Y-105788647D02*
X218031578Y-105645790D01*
X218031578Y-105645790D02*
X218079197Y-105455314D01*
X218079197Y-105455314D02*
X218126816Y-105360076D01*
X218126816Y-105360076D02*
X218222054Y-105264838D01*
X218222054Y-105264838D02*
X218364911Y-105217219D01*
X218364911Y-105217219D02*
X218460149Y-105217219D01*
X218460149Y-105217219D02*
X218603006Y-105264838D01*
X218603006Y-105264838D02*
X218650625Y-105312457D01*
X219841102Y-106217219D02*
X219841102Y-105217219D01*
X219841102Y-105217219D02*
X220222054Y-105217219D01*
X220222054Y-105217219D02*
X220317292Y-105264838D01*
X220317292Y-105264838D02*
X220364911Y-105312457D01*
X220364911Y-105312457D02*
X220412530Y-105407695D01*
X220412530Y-105407695D02*
X220412530Y-105550552D01*
X220412530Y-105550552D02*
X220364911Y-105645790D01*
X220364911Y-105645790D02*
X220317292Y-105693409D01*
X220317292Y-105693409D02*
X220222054Y-105741028D01*
X220222054Y-105741028D02*
X219841102Y-105741028D01*
X221031578Y-105217219D02*
X221222054Y-105217219D01*
X221222054Y-105217219D02*
X221317292Y-105264838D01*
X221317292Y-105264838D02*
X221412530Y-105360076D01*
X221412530Y-105360076D02*
X221460149Y-105550552D01*
X221460149Y-105550552D02*
X221460149Y-105883885D01*
X221460149Y-105883885D02*
X221412530Y-106074361D01*
X221412530Y-106074361D02*
X221317292Y-106169600D01*
X221317292Y-106169600D02*
X221222054Y-106217219D01*
X221222054Y-106217219D02*
X221031578Y-106217219D01*
X221031578Y-106217219D02*
X220936340Y-106169600D01*
X220936340Y-106169600D02*
X220841102Y-106074361D01*
X220841102Y-106074361D02*
X220793483Y-105883885D01*
X220793483Y-105883885D02*
X220793483Y-105550552D01*
X220793483Y-105550552D02*
X220841102Y-105360076D01*
X220841102Y-105360076D02*
X220936340Y-105264838D01*
X220936340Y-105264838D02*
X221031578Y-105217219D01*
X221793483Y-105217219D02*
X222031578Y-106217219D01*
X222031578Y-106217219D02*
X222222054Y-105502933D01*
X222222054Y-105502933D02*
X222412530Y-106217219D01*
X222412530Y-106217219D02*
X222650626Y-105217219D01*
X223031578Y-105693409D02*
X223364911Y-105693409D01*
X223507768Y-106217219D02*
X223031578Y-106217219D01*
X223031578Y-106217219D02*
X223031578Y-105217219D01*
X223031578Y-105217219D02*
X223507768Y-105217219D01*
X224507768Y-106217219D02*
X224174435Y-105741028D01*
X223936340Y-106217219D02*
X223936340Y-105217219D01*
X223936340Y-105217219D02*
X224317292Y-105217219D01*
X224317292Y-105217219D02*
X224412530Y-105264838D01*
X224412530Y-105264838D02*
X224460149Y-105312457D01*
X224460149Y-105312457D02*
X224507768Y-105407695D01*
X224507768Y-105407695D02*
X224507768Y-105550552D01*
X224507768Y-105550552D02*
X224460149Y-105645790D01*
X224460149Y-105645790D02*
X224412530Y-105693409D01*
X224412530Y-105693409D02*
X224317292Y-105741028D01*
X224317292Y-105741028D02*
X223936340Y-105741028D01*
X226031578Y-105693409D02*
X226174435Y-105741028D01*
X226174435Y-105741028D02*
X226222054Y-105788647D01*
X226222054Y-105788647D02*
X226269673Y-105883885D01*
X226269673Y-105883885D02*
X226269673Y-106026742D01*
X226269673Y-106026742D02*
X226222054Y-106121980D01*
X226222054Y-106121980D02*
X226174435Y-106169600D01*
X226174435Y-106169600D02*
X226079197Y-106217219D01*
X226079197Y-106217219D02*
X225698245Y-106217219D01*
X225698245Y-106217219D02*
X225698245Y-105217219D01*
X225698245Y-105217219D02*
X226031578Y-105217219D01*
X226031578Y-105217219D02*
X226126816Y-105264838D01*
X226126816Y-105264838D02*
X226174435Y-105312457D01*
X226174435Y-105312457D02*
X226222054Y-105407695D01*
X226222054Y-105407695D02*
X226222054Y-105502933D01*
X226222054Y-105502933D02*
X226174435Y-105598171D01*
X226174435Y-105598171D02*
X226126816Y-105645790D01*
X226126816Y-105645790D02*
X226031578Y-105693409D01*
X226031578Y-105693409D02*
X225698245Y-105693409D01*
X226888721Y-105217219D02*
X227079197Y-105217219D01*
X227079197Y-105217219D02*
X227174435Y-105264838D01*
X227174435Y-105264838D02*
X227269673Y-105360076D01*
X227269673Y-105360076D02*
X227317292Y-105550552D01*
X227317292Y-105550552D02*
X227317292Y-105883885D01*
X227317292Y-105883885D02*
X227269673Y-106074361D01*
X227269673Y-106074361D02*
X227174435Y-106169600D01*
X227174435Y-106169600D02*
X227079197Y-106217219D01*
X227079197Y-106217219D02*
X226888721Y-106217219D01*
X226888721Y-106217219D02*
X226793483Y-106169600D01*
X226793483Y-106169600D02*
X226698245Y-106074361D01*
X226698245Y-106074361D02*
X226650626Y-105883885D01*
X226650626Y-105883885D02*
X226650626Y-105550552D01*
X226650626Y-105550552D02*
X226698245Y-105360076D01*
X226698245Y-105360076D02*
X226793483Y-105264838D01*
X226793483Y-105264838D02*
X226888721Y-105217219D01*
X227698245Y-105931504D02*
X228174435Y-105931504D01*
X227603007Y-106217219D02*
X227936340Y-105217219D01*
X227936340Y-105217219D02*
X228269673Y-106217219D01*
X229174435Y-106217219D02*
X228841102Y-105741028D01*
X228603007Y-106217219D02*
X228603007Y-105217219D01*
X228603007Y-105217219D02*
X228983959Y-105217219D01*
X228983959Y-105217219D02*
X229079197Y-105264838D01*
X229079197Y-105264838D02*
X229126816Y-105312457D01*
X229126816Y-105312457D02*
X229174435Y-105407695D01*
X229174435Y-105407695D02*
X229174435Y-105550552D01*
X229174435Y-105550552D02*
X229126816Y-105645790D01*
X229126816Y-105645790D02*
X229079197Y-105693409D01*
X229079197Y-105693409D02*
X228983959Y-105741028D01*
X228983959Y-105741028D02*
X228603007Y-105741028D01*
X229603007Y-106217219D02*
X229603007Y-105217219D01*
X229603007Y-105217219D02*
X229841102Y-105217219D01*
X229841102Y-105217219D02*
X229983959Y-105264838D01*
X229983959Y-105264838D02*
X230079197Y-105360076D01*
X230079197Y-105360076D02*
X230126816Y-105455314D01*
X230126816Y-105455314D02*
X230174435Y-105645790D01*
X230174435Y-105645790D02*
X230174435Y-105788647D01*
X230174435Y-105788647D02*
X230126816Y-105979123D01*
X230126816Y-105979123D02*
X230079197Y-106074361D01*
X230079197Y-106074361D02*
X229983959Y-106169600D01*
X229983959Y-106169600D02*
X229841102Y-106217219D01*
X229841102Y-106217219D02*
X229603007Y-106217219D01*
X231222055Y-105217219D02*
X231555388Y-106217219D01*
X231555388Y-106217219D02*
X231888721Y-105217219D01*
X232412531Y-105217219D02*
X232507769Y-105217219D01*
X232507769Y-105217219D02*
X232603007Y-105264838D01*
X232603007Y-105264838D02*
X232650626Y-105312457D01*
X232650626Y-105312457D02*
X232698245Y-105407695D01*
X232698245Y-105407695D02*
X232745864Y-105598171D01*
X232745864Y-105598171D02*
X232745864Y-105836266D01*
X232745864Y-105836266D02*
X232698245Y-106026742D01*
X232698245Y-106026742D02*
X232650626Y-106121980D01*
X232650626Y-106121980D02*
X232603007Y-106169600D01*
X232603007Y-106169600D02*
X232507769Y-106217219D01*
X232507769Y-106217219D02*
X232412531Y-106217219D01*
X232412531Y-106217219D02*
X232317293Y-106169600D01*
X232317293Y-106169600D02*
X232269674Y-106121980D01*
X232269674Y-106121980D02*
X232222055Y-106026742D01*
X232222055Y-106026742D02*
X232174436Y-105836266D01*
X232174436Y-105836266D02*
X232174436Y-105598171D01*
X232174436Y-105598171D02*
X232222055Y-105407695D01*
X232222055Y-105407695D02*
X232269674Y-105312457D01*
X232269674Y-105312457D02*
X232317293Y-105264838D01*
X232317293Y-105264838D02*
X232412531Y-105217219D01*
X233174436Y-106121980D02*
X233222055Y-106169600D01*
X233222055Y-106169600D02*
X233174436Y-106217219D01*
X233174436Y-106217219D02*
X233126817Y-106169600D01*
X233126817Y-106169600D02*
X233174436Y-106121980D01*
X233174436Y-106121980D02*
X233174436Y-106217219D01*
X234174435Y-106217219D02*
X233603007Y-106217219D01*
X233888721Y-106217219D02*
X233888721Y-105217219D01*
X233888721Y-105217219D02*
X233793483Y-105360076D01*
X233793483Y-105360076D02*
X233698245Y-105455314D01*
X233698245Y-105455314D02*
X233603007Y-105502933D01*
D11*
%TO.C,D2*%
X227500000Y-111340000D02*
X227500000Y-115350000D01*
X229500000Y-111340000D02*
X227500000Y-111340000D01*
X229500000Y-111340000D02*
X229500000Y-115350000D01*
%TO.C,D9*%
X261482332Y-111638057D02*
X261482332Y-115648057D01*
X263482332Y-111638057D02*
X261482332Y-111638057D01*
X263482332Y-111638057D02*
X263482332Y-115648057D01*
%TO.C,D4*%
X238500000Y-131340000D02*
X238500000Y-135350000D01*
X240500000Y-131340000D02*
X238500000Y-131340000D01*
X240500000Y-131340000D02*
X240500000Y-135350000D01*
%TO.C,R27*%
X308322332Y-132673493D02*
X308322332Y-134127621D01*
X310142332Y-132673493D02*
X310142332Y-134127621D01*
%TO.C,C19*%
X340850000Y-110250000D02*
X340850000Y-111850000D01*
X341650000Y-111050000D02*
X340050000Y-111050000D01*
%TO.C,R25*%
X329912332Y-132723493D02*
X329912332Y-134177621D01*
X331732332Y-132723493D02*
X331732332Y-134177621D01*
%TO.C,R3*%
X219140000Y-113272936D02*
X219140000Y-114727064D01*
X220960000Y-113272936D02*
X220960000Y-114727064D01*
%TO.C,R24*%
X263872332Y-132620993D02*
X263872332Y-134075121D01*
X265692332Y-132620993D02*
X265692332Y-134075121D01*
%TO.C,C23*%
X342798749Y-126879999D02*
X342798749Y-128480000D01*
X343598749Y-127680000D02*
X341998749Y-127680000D01*
%TO.C,R20*%
X230140000Y-133072936D02*
X230140000Y-134527064D01*
X231960000Y-133072936D02*
X231960000Y-134527064D01*
%TO.C,D17*%
X316672332Y-111228057D02*
X316672332Y-115238057D01*
X318672332Y-111228057D02*
X316672332Y-111228057D01*
X318672332Y-111228057D02*
X318672332Y-115238057D01*
%TO.C,R1*%
X240740000Y-112922936D02*
X240740000Y-114377064D01*
X242560000Y-112922936D02*
X242560000Y-114377064D01*
%TO.C,R4*%
X285572332Y-113020993D02*
X285572332Y-114475121D01*
X287392332Y-113020993D02*
X287392332Y-114475121D01*
%TO.C,D1*%
X238250000Y-111390000D02*
X238250000Y-115400000D01*
X240250000Y-111390000D02*
X238250000Y-111390000D01*
X240250000Y-111390000D02*
X240250000Y-115400000D01*
%TO.C,D18*%
X327472332Y-111228057D02*
X327472332Y-115238057D01*
X329472332Y-111228057D02*
X327472332Y-111228057D01*
X329472332Y-111228057D02*
X329472332Y-115238057D01*
%TO.C,R19*%
X240940000Y-133072936D02*
X240940000Y-134527064D01*
X242760000Y-133072936D02*
X242760000Y-134527064D01*
%TO.C,R22*%
X285522332Y-132683493D02*
X285522332Y-134137621D01*
X287342332Y-132683493D02*
X287342332Y-134137621D01*
%TO.C,C21*%
X340750000Y-139500000D02*
X340750000Y-141100000D01*
X341550000Y-140300000D02*
X339950000Y-140300000D01*
%TO.C,R5*%
X274722332Y-113120993D02*
X274722332Y-114575121D01*
X276542332Y-113120993D02*
X276542332Y-114575121D01*
%TO.C,D15*%
X305872332Y-130978057D02*
X305872332Y-134988057D01*
X307872332Y-130978057D02*
X305872332Y-130978057D01*
X307872332Y-130978057D02*
X307872332Y-134988057D01*
%TO.C,J7*%
X294402332Y-137208057D02*
X294402332Y-126928057D01*
X297002332Y-134608057D02*
X297002332Y-137208057D01*
X297002332Y-137208057D02*
X294402332Y-137208057D01*
X299602332Y-126928057D02*
X294402332Y-126928057D01*
X299602332Y-134608057D02*
X297002332Y-134608057D01*
X299602332Y-134608057D02*
X299602332Y-126928057D01*
X299602332Y-135878057D02*
X299602332Y-137208057D01*
X299602332Y-137208057D02*
X298272332Y-137208057D01*
%TO.C,R7*%
X329962332Y-112910993D02*
X329962332Y-114365121D01*
X331782332Y-112910993D02*
X331782332Y-114365121D01*
%TO.C,R23*%
X274672332Y-132620993D02*
X274672332Y-134075121D01*
X276492332Y-132620993D02*
X276492332Y-134075121D01*
%TO.C,R9*%
X308362332Y-112810993D02*
X308362332Y-114265121D01*
X310182332Y-112810993D02*
X310182332Y-114265121D01*
%TO.C,D10*%
X283082332Y-131100557D02*
X283082332Y-135110557D01*
X285082332Y-131100557D02*
X283082332Y-131100557D01*
X285082332Y-131100557D02*
X285082332Y-135110557D01*
%TO.C,R8*%
X319112332Y-112960993D02*
X319112332Y-114415121D01*
X320932332Y-112960993D02*
X320932332Y-114415121D01*
%TO.C,D16*%
X305922332Y-111078057D02*
X305922332Y-115088057D01*
X307922332Y-111078057D02*
X305922332Y-111078057D01*
X307922332Y-111078057D02*
X307922332Y-115088057D01*
%TO.C,D12*%
X261432332Y-131038057D02*
X261432332Y-135048057D01*
X263432332Y-131038057D02*
X261432332Y-131038057D01*
X263432332Y-131038057D02*
X263432332Y-135048057D01*
%TO.C,D8*%
X272132332Y-111438057D02*
X272132332Y-115448057D01*
X274132332Y-111438057D02*
X272132332Y-111438057D01*
X274132332Y-111438057D02*
X274132332Y-115448057D01*
%TO.C,D7*%
X282932332Y-111288057D02*
X282932332Y-115298057D01*
X284932332Y-111288057D02*
X282932332Y-111288057D01*
X284932332Y-111288057D02*
X284932332Y-115298057D01*
%TO.C,D3*%
X216750000Y-111590000D02*
X216750000Y-115600000D01*
X218750000Y-111590000D02*
X216750000Y-111590000D01*
X218750000Y-111590000D02*
X218750000Y-115600000D01*
%TO.C,J12*%
X205370000Y-113705000D02*
X205370000Y-111105000D01*
X208030000Y-111105000D02*
X205370000Y-111105000D01*
X208030000Y-113705000D02*
X205370000Y-113705000D01*
X208030000Y-113705000D02*
X208030000Y-111105000D01*
X208030000Y-114975000D02*
X208030000Y-116305000D01*
X208030000Y-116305000D02*
X206700000Y-116305000D01*
%TO.C,C22*%
X335598750Y-139330000D02*
X335598750Y-140930000D01*
X336398750Y-140130000D02*
X334798750Y-140130000D01*
%TO.C,R2*%
X229990000Y-113022936D02*
X229990000Y-114477064D01*
X231810000Y-113022936D02*
X231810000Y-114477064D01*
%TO.C,J6*%
X204930000Y-137530000D02*
X204930000Y-127250000D01*
X207530000Y-134930000D02*
X207530000Y-137530000D01*
X207530000Y-137530000D02*
X204930000Y-137530000D01*
X210130000Y-127250000D02*
X204930000Y-127250000D01*
X210130000Y-134930000D02*
X207530000Y-134930000D01*
X210130000Y-134930000D02*
X210130000Y-127250000D01*
X210130000Y-136200000D02*
X210130000Y-137530000D01*
X210130000Y-137530000D02*
X208800000Y-137530000D01*
%TO.C,R21*%
X219440000Y-132872936D02*
X219440000Y-134327064D01*
X221260000Y-132872936D02*
X221260000Y-134327064D01*
%TO.C,C24*%
X342920001Y-111800001D02*
X342920001Y-113399999D01*
X343720000Y-112600000D02*
X342120002Y-112600000D01*
%TO.C,D13*%
X327422332Y-130990557D02*
X327422332Y-135000557D01*
X329422332Y-130990557D02*
X327422332Y-130990557D01*
X329422332Y-130990557D02*
X329422332Y-135000557D01*
%TO.C,D6*%
X216900000Y-131140000D02*
X216900000Y-135150000D01*
X218900000Y-131140000D02*
X216900000Y-131140000D01*
X218900000Y-131140000D02*
X218900000Y-135150000D01*
%TO.C,C20*%
X340750000Y-124950000D02*
X340750000Y-126550000D01*
X341550000Y-125750000D02*
X339950000Y-125750000D01*
%TO.C,D14*%
X316672332Y-130865557D02*
X316672332Y-134875557D01*
X318672332Y-130865557D02*
X316672332Y-130865557D01*
X318672332Y-130865557D02*
X318672332Y-134875557D01*
%TO.C,D11*%
X272239832Y-131078057D02*
X272239832Y-135088057D01*
X274239832Y-131078057D02*
X272239832Y-131078057D01*
X274239832Y-131078057D02*
X274239832Y-135088057D01*
%TO.C,R26*%
X319112332Y-132560993D02*
X319112332Y-134015121D01*
X320932332Y-132560993D02*
X320932332Y-134015121D01*
%TO.C,D5*%
X227612500Y-131400000D02*
X227612500Y-135410000D01*
X229612500Y-131400000D02*
X227612500Y-131400000D01*
X229612500Y-131400000D02*
X229612500Y-135410000D01*
%TO.C,R6*%
X263972332Y-113320993D02*
X263972332Y-114775121D01*
X265792332Y-113320993D02*
X265792332Y-114775121D01*
%TO.C,J5*%
X249862332Y-137518057D02*
X249862332Y-127238057D01*
X252462332Y-134918057D02*
X252462332Y-137518057D01*
X252462332Y-137518057D02*
X249862332Y-137518057D01*
X255062332Y-127238057D02*
X249862332Y-127238057D01*
X255062332Y-134918057D02*
X252462332Y-134918057D01*
X255062332Y-134918057D02*
X255062332Y-127238057D01*
X255062332Y-136188057D02*
X255062332Y-137518057D01*
X255062332Y-137518057D02*
X253732332Y-137518057D01*
%TD*%
%LPC*%
D12*
%TO.C,D2*%
X228500000Y-112050000D03*
X228500000Y-115350000D03*
%TD*%
%TO.C,D9*%
X262482332Y-112348057D03*
X262482332Y-115648057D03*
%TD*%
%TO.C,D4*%
X239500000Y-132050000D03*
X239500000Y-135350000D03*
%TD*%
D13*
%TO.C,H3*%
X342564466Y-106185534D03*
%TD*%
D14*
%TO.C,R27*%
X309232332Y-131938057D03*
X309232332Y-134863057D03*
%TD*%
D15*
%TO.C,C19*%
X343150000Y-111050000D03*
D16*
X343150000Y-118550000D03*
%TD*%
D14*
%TO.C,R25*%
X330822332Y-131988057D03*
X330822332Y-134913057D03*
%TD*%
%TO.C,R3*%
X220050000Y-112537500D03*
X220050000Y-115462500D03*
%TD*%
%TO.C,R24*%
X264782332Y-131885557D03*
X264782332Y-134810557D03*
%TD*%
D15*
%TO.C,C23*%
X345298749Y-129480000D03*
D16*
X345298749Y-136980000D03*
%TD*%
D14*
%TO.C,R20*%
X231050000Y-132337500D03*
X231050000Y-135262500D03*
%TD*%
D12*
%TO.C,D17*%
X317672332Y-111938057D03*
X317672332Y-115238057D03*
%TD*%
D14*
%TO.C,R1*%
X241650000Y-112187500D03*
X241650000Y-115112500D03*
%TD*%
%TO.C,R4*%
X286482332Y-112285557D03*
X286482332Y-115210557D03*
%TD*%
D12*
%TO.C,D1*%
X239250000Y-112100000D03*
X239250000Y-115400000D03*
%TD*%
%TO.C,D18*%
X328472332Y-111938057D03*
X328472332Y-115238057D03*
%TD*%
D13*
%TO.C,H1*%
X207600000Y-106150000D03*
%TD*%
D14*
%TO.C,R19*%
X241850000Y-132337500D03*
X241850000Y-135262500D03*
%TD*%
%TO.C,R22*%
X286432332Y-131948057D03*
X286432332Y-134873057D03*
%TD*%
D15*
%TO.C,C21*%
X343250000Y-140300000D03*
D16*
X343250000Y-147800000D03*
%TD*%
D14*
%TO.C,R5*%
X275632332Y-112385557D03*
X275632332Y-115310557D03*
%TD*%
D12*
%TO.C,D15*%
X306872332Y-131688057D03*
X306872332Y-134988057D03*
%TD*%
D17*
%TO.C,J7*%
X298272332Y-135878057D03*
D18*
X295732332Y-135878057D03*
X298272332Y-133338057D03*
X295732332Y-133338057D03*
X298272332Y-130798057D03*
X295732332Y-130798057D03*
X298272332Y-128258057D03*
X295732332Y-128258057D03*
%TD*%
D14*
%TO.C,R7*%
X330872332Y-112175557D03*
X330872332Y-115100557D03*
%TD*%
%TO.C,R23*%
X275582332Y-131885557D03*
X275582332Y-134810557D03*
%TD*%
%TO.C,R9*%
X309272332Y-112075557D03*
X309272332Y-115000557D03*
%TD*%
D12*
%TO.C,D10*%
X284082332Y-131810557D03*
X284082332Y-135110557D03*
%TD*%
D13*
%TO.C,H4*%
X342614466Y-153164466D03*
%TD*%
D14*
%TO.C,R8*%
X320022332Y-112225557D03*
X320022332Y-115150557D03*
%TD*%
D12*
%TO.C,D16*%
X306922332Y-111788057D03*
X306922332Y-115088057D03*
%TD*%
%TO.C,D12*%
X262432332Y-131748057D03*
X262432332Y-135048057D03*
%TD*%
%TO.C,D8*%
X273132332Y-112148057D03*
X273132332Y-115448057D03*
%TD*%
%TO.C,D7*%
X283932332Y-111998057D03*
X283932332Y-115298057D03*
%TD*%
%TO.C,D3*%
X217750000Y-112300000D03*
X217750000Y-115600000D03*
%TD*%
D17*
%TO.C,J12*%
X206700000Y-114975000D03*
D18*
X206700000Y-112435000D03*
%TD*%
D15*
%TO.C,C22*%
X338098750Y-142130000D03*
D16*
X338098750Y-149630000D03*
%TD*%
D14*
%TO.C,R2*%
X230900000Y-112287500D03*
X230900000Y-115212500D03*
%TD*%
D17*
%TO.C,J6*%
X208800000Y-136200000D03*
D18*
X206260000Y-136200000D03*
X208800000Y-133660000D03*
X206260000Y-133660000D03*
X208800000Y-131120000D03*
X206260000Y-131120000D03*
X208800000Y-128580000D03*
X206260000Y-128580000D03*
%TD*%
D14*
%TO.C,R21*%
X220350000Y-132137500D03*
X220350000Y-135062500D03*
%TD*%
D15*
%TO.C,C24*%
X344920001Y-114600000D03*
D16*
X344920001Y-122100000D03*
%TD*%
D12*
%TO.C,D13*%
X328422332Y-131700557D03*
X328422332Y-135000557D03*
%TD*%
%TO.C,D6*%
X217900000Y-131850000D03*
X217900000Y-135150000D03*
%TD*%
D15*
%TO.C,C20*%
X343250000Y-125750000D03*
D16*
X343250000Y-133250000D03*
%TD*%
D12*
%TO.C,D14*%
X317672332Y-131575557D03*
X317672332Y-134875557D03*
%TD*%
%TO.C,D11*%
X273239832Y-131788057D03*
X273239832Y-135088057D03*
%TD*%
D14*
%TO.C,R26*%
X320022332Y-131825557D03*
X320022332Y-134750557D03*
%TD*%
D12*
%TO.C,D5*%
X228612500Y-132110000D03*
X228612500Y-135410000D03*
%TD*%
D14*
%TO.C,R6*%
X264882332Y-112585557D03*
X264882332Y-115510557D03*
%TD*%
D13*
%TO.C,H2*%
X207635534Y-153114466D03*
%TD*%
D17*
%TO.C,J5*%
X253732332Y-136188057D03*
D18*
X251192332Y-136188057D03*
X253732332Y-133648057D03*
X251192332Y-133648057D03*
X253732332Y-131108057D03*
X251192332Y-131108057D03*
X253732332Y-128568057D03*
X251192332Y-128568057D03*
%TD*%
D19*
X342275000Y-108745000D03*
X245755000Y-157005000D03*
X257200000Y-152550000D03*
X250750000Y-156100000D03*
X210195000Y-139225000D03*
X281315000Y-154465000D03*
X219700000Y-153900000D03*
X299095000Y-149385000D03*
X324495000Y-157005000D03*
X204600000Y-115150000D03*
X214150000Y-156300000D03*
X294015000Y-149385000D03*
X242000000Y-152350000D03*
X289600000Y-155700000D03*
X319415000Y-154465000D03*
X278775000Y-154465000D03*
X276235000Y-157005000D03*
X309255000Y-144305000D03*
X337195000Y-146845000D03*
X344815000Y-144305000D03*
X294015000Y-157005000D03*
X215275000Y-154465000D03*
X230515000Y-149385000D03*
X280350000Y-152750000D03*
X243215000Y-154465000D03*
X238135000Y-146845000D03*
X220355000Y-157005000D03*
X225435000Y-136685000D03*
X294015000Y-151925000D03*
X291475000Y-154465000D03*
X344815000Y-154465000D03*
X271155000Y-116365000D03*
X306715000Y-154465000D03*
X276000000Y-154600000D03*
X210195000Y-154465000D03*
X342275000Y-144305000D03*
X339735000Y-154465000D03*
X223600000Y-156300000D03*
X205115000Y-151925000D03*
X205115000Y-121445000D03*
X255915000Y-154465000D03*
X238135000Y-157005000D03*
X280350000Y-156500000D03*
X337195000Y-144305000D03*
X205115000Y-106205000D03*
X225435000Y-157005000D03*
X324495000Y-154465000D03*
X220355000Y-149385000D03*
X320350000Y-152550000D03*
X309255000Y-151925000D03*
X205115000Y-141765000D03*
X230515000Y-157005000D03*
X324495000Y-116365000D03*
X205115000Y-103665000D03*
X225435000Y-116365000D03*
X212735000Y-136685000D03*
X260995000Y-116365000D03*
X344815000Y-151925000D03*
X311600000Y-152550000D03*
X332115000Y-141765000D03*
X311600000Y-156300000D03*
X217450000Y-154400000D03*
X235595000Y-146845000D03*
X309255000Y-154465000D03*
X258455000Y-154465000D03*
X205115000Y-118905000D03*
X309255000Y-149385000D03*
X268615000Y-116365000D03*
X321955000Y-157005000D03*
X286395000Y-151925000D03*
X309255000Y-157005000D03*
X215275000Y-136685000D03*
X281315000Y-146845000D03*
X263535000Y-154465000D03*
X250835000Y-144305000D03*
X248295000Y-146845000D03*
X327035000Y-116365000D03*
X296555000Y-146845000D03*
X248295000Y-139225000D03*
X212735000Y-157005000D03*
X227975000Y-157005000D03*
X296555000Y-151925000D03*
X250750000Y-152350000D03*
X255915000Y-116365000D03*
X253375000Y-149385000D03*
X321955000Y-149385000D03*
X337750000Y-156500000D03*
X248295000Y-144305000D03*
X286395000Y-157005000D03*
X271600000Y-156500000D03*
X205115000Y-146845000D03*
X283855000Y-146845000D03*
X222895000Y-136685000D03*
X268615000Y-154465000D03*
X220355000Y-151925000D03*
X320350000Y-156300000D03*
X263535000Y-157005000D03*
X248295000Y-149385000D03*
X207655000Y-108745000D03*
X273695000Y-154465000D03*
X230515000Y-154465000D03*
X253375000Y-151925000D03*
X266075000Y-154465000D03*
X250835000Y-139225000D03*
X314335000Y-116365000D03*
X266075000Y-149385000D03*
X301635000Y-157005000D03*
X214150000Y-152550000D03*
X250835000Y-141765000D03*
X235595000Y-136685000D03*
X205115000Y-108745000D03*
X235595000Y-116365000D03*
X205115000Y-139225000D03*
X248295000Y-136685000D03*
X327035000Y-146845000D03*
X342275000Y-157005000D03*
X211850000Y-154750000D03*
X278775000Y-157005000D03*
X329000000Y-156500000D03*
X294015000Y-146845000D03*
X232350000Y-152550000D03*
X246400000Y-154200000D03*
X223600000Y-152550000D03*
X253375000Y-154465000D03*
X240675000Y-154465000D03*
X250835000Y-149385000D03*
X327035000Y-157005000D03*
X207655000Y-146845000D03*
X230515000Y-151925000D03*
X248295000Y-134145000D03*
X276235000Y-149385000D03*
X268615000Y-157005000D03*
X294015000Y-134145000D03*
X207655000Y-149385000D03*
X222895000Y-154465000D03*
X210195000Y-141765000D03*
X271155000Y-154465000D03*
X339735000Y-157005000D03*
X210195000Y-157005000D03*
X332115000Y-144305000D03*
X290400000Y-150600000D03*
X261600000Y-154400000D03*
X232350000Y-156300000D03*
X260995000Y-157005000D03*
X233055000Y-136685000D03*
X207655000Y-118905000D03*
X207655000Y-157005000D03*
X329000000Y-152750000D03*
X344815000Y-103665000D03*
X276235000Y-151925000D03*
X344815000Y-108745000D03*
X332115000Y-149385000D03*
X233055000Y-149385000D03*
X296555000Y-157005000D03*
X248295000Y-131605000D03*
X314335000Y-157005000D03*
X238135000Y-154465000D03*
X294015000Y-136685000D03*
X205115000Y-149385000D03*
X314335000Y-154465000D03*
X296555000Y-149385000D03*
X248295000Y-157005000D03*
X257200000Y-156300000D03*
X233055000Y-154465000D03*
X299095000Y-141765000D03*
X250835000Y-146845000D03*
X210195000Y-151925000D03*
X329575000Y-146845000D03*
X306715000Y-157005000D03*
X235595000Y-154465000D03*
X311795000Y-154465000D03*
X253375000Y-146845000D03*
X235595000Y-157005000D03*
X298350000Y-151950000D03*
X225435000Y-154465000D03*
X342275000Y-121445000D03*
X333400000Y-154600000D03*
X332115000Y-146845000D03*
X283855000Y-154465000D03*
X286395000Y-146845000D03*
X210195000Y-116365000D03*
X283855000Y-157005000D03*
X248295000Y-151925000D03*
X294000000Y-153800000D03*
X327035000Y-154465000D03*
X291475000Y-157005000D03*
X222895000Y-116365000D03*
X210195000Y-149385000D03*
X296555000Y-154465000D03*
X242000000Y-156100000D03*
X233055000Y-116365000D03*
X281315000Y-116365000D03*
X245600000Y-150800000D03*
X240675000Y-149385000D03*
X316875000Y-157005000D03*
X342275000Y-136685000D03*
X342275000Y-103665000D03*
X294015000Y-139225000D03*
X217815000Y-157005000D03*
X339735000Y-144305000D03*
X248295000Y-141765000D03*
X240675000Y-146845000D03*
X321955000Y-116365000D03*
X316000000Y-154400000D03*
X289600000Y-151950000D03*
X207655000Y-103665000D03*
X339735000Y-151925000D03*
X228000000Y-154400000D03*
X321955000Y-154465000D03*
X253375000Y-157005000D03*
X286395000Y-154465000D03*
X271600000Y-152750000D03*
X301635000Y-154465000D03*
X311795000Y-116365000D03*
X278775000Y-116365000D03*
X324495000Y-146845000D03*
X248295000Y-154465000D03*
X248295000Y-129065000D03*
X311795000Y-149385000D03*
X342275000Y-116365000D03*
X344815000Y-106205000D03*
X205115000Y-144305000D03*
X298350000Y-155700000D03*
X265950000Y-156300000D03*
X294015000Y-141765000D03*
X337750000Y-152750000D03*
X255915000Y-149385000D03*
X205115000Y-154465000D03*
X265950000Y-152550000D03*
X321955000Y-151925000D03*
X273695000Y-157005000D03*
X286395000Y-149385000D03*
X304175000Y-157005000D03*
X294015000Y-144305000D03*
X250835000Y-154465000D03*
X339735000Y-146845000D03*
X299095000Y-139225000D03*
X304175000Y-154465000D03*
X241150000Y-116700000D03*
X240450000Y-116700000D03*
X241900000Y-116700000D03*
X242050000Y-117350000D03*
X230050000Y-117000000D03*
X231350000Y-117600000D03*
X229362500Y-116937500D03*
X230900000Y-117000000D03*
X220550000Y-117518750D03*
X220400000Y-116868750D03*
X219650000Y-116868750D03*
X218950000Y-116868750D03*
X240600000Y-136468750D03*
X242200000Y-137118750D03*
X242050000Y-136468750D03*
X241300000Y-136468750D03*
X231500000Y-137218750D03*
X229900000Y-136568750D03*
X231350000Y-136568750D03*
X230600000Y-136568750D03*
X219850000Y-136468750D03*
X220600000Y-136468750D03*
X219150000Y-136468750D03*
X220750000Y-137118750D03*
X254450000Y-117250000D03*
X298850000Y-117200000D03*
X286782332Y-116916807D03*
X285332332Y-116916807D03*
X286932332Y-117566807D03*
X286032332Y-116916807D03*
X276032332Y-116816807D03*
X274582332Y-116816807D03*
X275282332Y-116816807D03*
X276182332Y-117466807D03*
X263732332Y-117016807D03*
X265332332Y-117666807D03*
X264432332Y-117016807D03*
X265182332Y-117016807D03*
X286082332Y-136316807D03*
X285382332Y-136316807D03*
X286832332Y-136316807D03*
X286982332Y-136966807D03*
X276182332Y-137116807D03*
X275282332Y-136466807D03*
X274582332Y-136466807D03*
X276032332Y-136466807D03*
X264482332Y-136366807D03*
X265382332Y-137016807D03*
X263782332Y-136366807D03*
X265232332Y-136366807D03*
X331222332Y-136306807D03*
X331372332Y-136956807D03*
X330472332Y-136306807D03*
X329772332Y-136306807D03*
X320472332Y-136756807D03*
X318872332Y-136106807D03*
X320322332Y-136106807D03*
X319572332Y-136106807D03*
X309672332Y-136906807D03*
X309522332Y-136256807D03*
X308072332Y-136256807D03*
X308772332Y-136256807D03*
X308772332Y-116456807D03*
X309522332Y-116456807D03*
X309672332Y-117106807D03*
X308072332Y-116456807D03*
X320322332Y-116456807D03*
X319572332Y-116456807D03*
X318872332Y-116456807D03*
X320472332Y-117106807D03*
X331272332Y-117206807D03*
X329672332Y-116556807D03*
X331122332Y-116556807D03*
X330372332Y-116556807D03*
X254600000Y-121300000D03*
X299150000Y-121250000D03*
%LPD*%
M02*
