%TF.GenerationSoftware,KiCad,Pcbnew,8.0.1*%
%TF.CreationDate,2024-05-07T00:04:45+05:00*%
%TF.ProjectId,PowerBoard,506f7765-7242-46f6-9172-642e6b696361,rev?*%
%TF.SameCoordinates,Original*%
%TF.FileFunction,Copper,L2,Bot*%
%TF.FilePolarity,Positive*%
%FSLAX46Y46*%
G04 Gerber Fmt 4.6, Leading zero omitted, Abs format (unit mm)*
G04 Created by KiCad (PCBNEW 8.0.1) date 2024-05-07 00:04:45*
%MOMM*%
%LPD*%
G01*
G04 APERTURE LIST*
G04 Aperture macros list*
%AMRoundRect*
0 Rectangle with rounded corners*
0 $1 Rounding radius*
0 $2 $3 $4 $5 $6 $7 $8 $9 X,Y pos of 4 corners*
0 Add a 4 corners polygon primitive as box body*
4,1,4,$2,$3,$4,$5,$6,$7,$8,$9,$2,$3,0*
0 Add four circle primitives for the rounded corners*
1,1,$1+$1,$2,$3*
1,1,$1+$1,$4,$5*
1,1,$1+$1,$6,$7*
1,1,$1+$1,$8,$9*
0 Add four rect primitives between the rounded corners*
20,1,$1+$1,$2,$3,$4,$5,0*
20,1,$1+$1,$4,$5,$6,$7,0*
20,1,$1+$1,$6,$7,$8,$9,0*
20,1,$1+$1,$8,$9,$2,$3,0*%
%AMFreePoly0*
4,1,30,0.400000,-4.000000,-0.400000,-4.000000,-2.400000,-4.000000,-2.400000,-3.200000,-0.400000,-3.200000,-0.400000,-2.800000,-2.400000,-2.800000,-2.400000,-2.000000,-0.400000,-2.000000,-0.400000,-1.600000,-2.400000,-1.600000,-2.400000,-0.800000,-0.400000,-0.800000,-0.400000,-0.400000,-2.400000,-0.400000,-2.400000,0.400000,-0.400000,0.400000,-0.400000,0.800000,-2.400000,0.800000,-2.400000,1.600000,
-0.400000,1.600000,-0.400000,2.000000,-2.400000,2.000000,-2.400000,2.800000,-0.400000,2.800000,-0.400000,3.200000,-2.400000,3.200000,-2.400000,4.000000,0.400000,4.000000,0.400000,-4.000000,0.400000,-4.000000,$1*%
%AMFreePoly1*
4,1,13,2.850000,-5.050000,1.450000,-5.050000,1.450000,-4.350000,-1.450000,-4.350000,-1.450000,-4.850000,-5.150000,-4.850000,-5.150000,4.850000,-1.450000,4.850000,-1.450000,4.350000,1.450000,4.350000,1.450000,5.050000,2.850000,5.050000,2.850000,-5.050000,2.850000,-5.050000,$1*%
G04 Aperture macros list end*
%TA.AperFunction,ComponentPad*%
%ADD10R,2.400000X2.400000*%
%TD*%
%TA.AperFunction,ComponentPad*%
%ADD11C,2.400000*%
%TD*%
%TA.AperFunction,ComponentPad*%
%ADD12R,1.700000X1.700000*%
%TD*%
%TA.AperFunction,ComponentPad*%
%ADD13O,1.700000X1.700000*%
%TD*%
%TA.AperFunction,SMDPad,CuDef*%
%ADD14RoundRect,0.100000X-0.100000X0.130000X-0.100000X-0.130000X0.100000X-0.130000X0.100000X0.130000X0*%
%TD*%
%TA.AperFunction,SMDPad,CuDef*%
%ADD15RoundRect,0.100000X0.100000X-0.130000X0.100000X0.130000X-0.100000X0.130000X-0.100000X-0.130000X0*%
%TD*%
%TA.AperFunction,SMDPad,CuDef*%
%ADD16RoundRect,0.250000X0.325000X1.100000X-0.325000X1.100000X-0.325000X-1.100000X0.325000X-1.100000X0*%
%TD*%
%TA.AperFunction,SMDPad,CuDef*%
%ADD17R,5.511800X2.717800*%
%TD*%
%TA.AperFunction,SMDPad,CuDef*%
%ADD18R,0.800000X2.800000*%
%TD*%
%TA.AperFunction,SMDPad,CuDef*%
%ADD19FreePoly0,90.000000*%
%TD*%
%TA.AperFunction,SMDPad,CuDef*%
%ADD20FreePoly1,90.000000*%
%TD*%
%TA.AperFunction,SMDPad,CuDef*%
%ADD21R,10.000000X5.000000*%
%TD*%
%TA.AperFunction,SMDPad,CuDef*%
%ADD22RoundRect,0.200000X0.275000X-0.200000X0.275000X0.200000X-0.275000X0.200000X-0.275000X-0.200000X0*%
%TD*%
%TA.AperFunction,ViaPad*%
%ADD23C,0.600000*%
%TD*%
%TA.AperFunction,Conductor*%
%ADD24C,0.300000*%
%TD*%
%TA.AperFunction,Conductor*%
%ADD25C,2.000000*%
%TD*%
%TA.AperFunction,Conductor*%
%ADD26C,0.500000*%
%TD*%
%TA.AperFunction,Conductor*%
%ADD27C,3.000000*%
%TD*%
%TA.AperFunction,Conductor*%
%ADD28C,2.500000*%
%TD*%
%TA.AperFunction,Conductor*%
%ADD29C,1.000000*%
%TD*%
%TA.AperFunction,Conductor*%
%ADD30C,0.200000*%
%TD*%
G04 APERTURE END LIST*
D10*
%TO.P,C19,1*%
%TO.N,V_IN*%
X343150000Y-111050000D03*
D11*
%TO.P,C19,2*%
%TO.N,GND*%
X343150000Y-118550000D03*
%TD*%
D10*
%TO.P,C23,1*%
%TO.N,V_IN*%
X345298749Y-129480000D03*
D11*
%TO.P,C23,2*%
%TO.N,GND*%
X345298749Y-136980000D03*
%TD*%
D10*
%TO.P,C21,1*%
%TO.N,V_IN*%
X343250000Y-140300000D03*
D11*
%TO.P,C21,2*%
%TO.N,GND*%
X343250000Y-147800000D03*
%TD*%
D12*
%TO.P,J7,1,Pin_1*%
%TO.N,/PH_C_IN_D+*%
X298272332Y-135878057D03*
D13*
%TO.P,J7,2,Pin_2*%
%TO.N,/PH_C_IN_D-*%
X295732332Y-135878057D03*
%TO.P,J7,3,Pin_3*%
%TO.N,GND*%
X298272332Y-133338057D03*
%TO.P,J7,4,Pin_4*%
%TO.N,/TEMP3*%
X295732332Y-133338057D03*
%TO.P,J7,5,Pin_5*%
%TO.N,/GL_C*%
X298272332Y-130798057D03*
%TO.P,J7,6,Pin_6*%
%TO.N,/VCC2*%
X295732332Y-130798057D03*
%TO.P,J7,7,Pin_7*%
%TO.N,/PH_C*%
X298272332Y-128258057D03*
%TO.P,J7,8,Pin_8*%
%TO.N,/GH_C*%
X295732332Y-128258057D03*
%TD*%
D12*
%TO.P,J12,1,Pin_1*%
%TO.N,GND*%
X206700000Y-114975000D03*
D13*
%TO.P,J12,2,Pin_2*%
%TO.N,V_IN*%
X206700000Y-112435000D03*
%TD*%
D10*
%TO.P,C22,1*%
%TO.N,V_IN*%
X338098750Y-142130000D03*
D11*
%TO.P,C22,2*%
%TO.N,GND*%
X338098750Y-149630000D03*
%TD*%
D12*
%TO.P,J6,1,Pin_1*%
%TO.N,/PH_A_IN_D+*%
X208800000Y-136200000D03*
D13*
%TO.P,J6,2,Pin_2*%
%TO.N,/PH_A_IN_D-*%
X206260000Y-136200000D03*
%TO.P,J6,3,Pin_3*%
%TO.N,GND*%
X208800000Y-133660000D03*
%TO.P,J6,4,Pin_4*%
%TO.N,/TEMP*%
X206260000Y-133660000D03*
%TO.P,J6,5,Pin_5*%
%TO.N,/GL_A*%
X208800000Y-131120000D03*
%TO.P,J6,6,Pin_6*%
%TO.N,/VCC*%
X206260000Y-131120000D03*
%TO.P,J6,7,Pin_7*%
%TO.N,/PH_A*%
X208800000Y-128580000D03*
%TO.P,J6,8,Pin_8*%
%TO.N,/GH_A*%
X206260000Y-128580000D03*
%TD*%
D10*
%TO.P,C24,1*%
%TO.N,V_IN*%
X344920001Y-114600000D03*
D11*
%TO.P,C24,2*%
%TO.N,GND*%
X344920001Y-122100000D03*
%TD*%
D10*
%TO.P,C20,1*%
%TO.N,V_IN*%
X343250000Y-125750000D03*
D11*
%TO.P,C20,2*%
%TO.N,GND*%
X343250000Y-133250000D03*
%TD*%
D12*
%TO.P,J5,1,Pin_1*%
%TO.N,/PH_B_IN_D+*%
X253732332Y-136188057D03*
D13*
%TO.P,J5,2,Pin_2*%
%TO.N,/PH_B_IN_D-*%
X251192332Y-136188057D03*
%TO.P,J5,3,Pin_3*%
%TO.N,GND*%
X253732332Y-133648057D03*
%TO.P,J5,4,Pin_4*%
%TO.N,/TEMP2*%
X251192332Y-133648057D03*
%TO.P,J5,5,Pin_5*%
%TO.N,/GL_B*%
X253732332Y-131108057D03*
%TO.P,J5,6,Pin_6*%
%TO.N,/VCC1*%
X251192332Y-131108057D03*
%TO.P,J5,7,Pin_7*%
%TO.N,/PH_B*%
X253732332Y-128568057D03*
%TO.P,J5,8,Pin_8*%
%TO.N,/GH_B*%
X251192332Y-128568057D03*
%TD*%
D14*
%TO.P,R29,1*%
%TO.N,/PH_A_IN_D-*%
X233100000Y-147175000D03*
%TO.P,R29,2*%
%TO.N,GND*%
X233100000Y-147815000D03*
%TD*%
D15*
%TO.P,R30,1*%
%TO.N,/PH_A_IN_D+*%
X222100000Y-145470000D03*
%TO.P,R30,2*%
%TO.N,Net-(Q10-S)*%
X222100000Y-144830000D03*
%TD*%
D16*
%TO.P,C1,1*%
%TO.N,V_IN*%
X247950000Y-109019807D03*
%TO.P,C1,2*%
%TO.N,GND*%
X245000000Y-109019807D03*
%TD*%
%TO.P,C16,1*%
%TO.N,V_IN*%
X337465508Y-118919807D03*
%TO.P,C16,2*%
%TO.N,GND*%
X334515508Y-118919807D03*
%TD*%
D17*
%TO.P,R18,1*%
%TO.N,GND*%
X326550000Y-150151000D03*
%TO.P,R18,2*%
%TO.N,Net-(Q16-S)*%
X326550000Y-142150000D03*
%TD*%
D14*
%TO.P,R37,1*%
%TO.N,/PH_B_IN_D-*%
X267600000Y-147175000D03*
%TO.P,R37,2*%
%TO.N,GND*%
X267600000Y-147815000D03*
%TD*%
D16*
%TO.P,C18,1*%
%TO.N,V_IN*%
X337465508Y-125519807D03*
%TO.P,C18,2*%
%TO.N,GND*%
X334515508Y-125519807D03*
%TD*%
D17*
%TO.P,R17,1*%
%TO.N,GND*%
X260400000Y-150401000D03*
%TO.P,R17,2*%
%TO.N,Net-(Q13-S)*%
X260400000Y-142400000D03*
%TD*%
D14*
%TO.P,R39,1*%
%TO.N,/PH_B_IN_D-*%
X278350000Y-147175000D03*
%TO.P,R39,2*%
%TO.N,GND*%
X278350000Y-147815000D03*
%TD*%
D16*
%TO.P,C13,1*%
%TO.N,V_IN*%
X292707332Y-118919807D03*
%TO.P,C13,2*%
%TO.N,GND*%
X289757332Y-118919807D03*
%TD*%
%TO.P,C11,1*%
%TO.N,V_IN*%
X248000000Y-122219807D03*
%TO.P,C11,2*%
%TO.N,GND*%
X245050000Y-122219807D03*
%TD*%
D18*
%TO.P,Q5,1,G*%
%TO.N,Net-(D8-A)*%
X276132332Y-119130000D03*
D19*
%TO.P,Q5,2,S*%
%TO.N,/PH_B*%
X271332332Y-118130000D03*
D20*
%TO.P,Q5,3,D*%
%TO.N,V_IN*%
X271932332Y-110080000D03*
%TD*%
D15*
%TO.P,R32,1*%
%TO.N,/PH_A_IN_D+*%
X211350000Y-145470000D03*
%TO.P,R32,2*%
%TO.N,Net-(Q10-S)*%
X211350000Y-144830000D03*
%TD*%
D18*
%TO.P,Q8,1,G*%
%TO.N,Net-(D17-A)*%
X320447332Y-119018057D03*
D19*
%TO.P,Q8,2,S*%
%TO.N,/PH_C*%
X315647332Y-118018057D03*
D20*
%TO.P,Q8,3,D*%
%TO.N,V_IN*%
X316247332Y-109968057D03*
%TD*%
D17*
%TO.P,R10,1*%
%TO.N,GND*%
X236925000Y-150430500D03*
%TO.P,R10,2*%
%TO.N,Net-(Q10-S)*%
X236925000Y-142429500D03*
%TD*%
%TO.P,R11,1*%
%TO.N,GND*%
X282050000Y-150351000D03*
%TO.P,R11,2*%
%TO.N,Net-(Q13-S)*%
X282050000Y-142350000D03*
%TD*%
D14*
%TO.P,R43,1*%
%TO.N,/PH_C_IN_D-*%
X312100000Y-147175000D03*
%TO.P,R43,2*%
%TO.N,GND*%
X312100000Y-147815000D03*
%TD*%
D21*
%TO.P,J1,1,Pin_1*%
%TO.N,V_IN*%
X332850000Y-104100000D03*
%TD*%
D16*
%TO.P,C14,1*%
%TO.N,V_IN*%
X292707332Y-122219807D03*
%TO.P,C14,2*%
%TO.N,GND*%
X289757332Y-122219807D03*
%TD*%
D18*
%TO.P,Q13,1,G*%
%TO.N,Net-(D10-A)*%
X286932332Y-138898057D03*
D19*
%TO.P,Q13,2,S*%
%TO.N,Net-(Q13-S)*%
X282132332Y-137898057D03*
D20*
%TO.P,Q13,3,D*%
%TO.N,/PH_B*%
X282732332Y-129848057D03*
%TD*%
D16*
%TO.P,C3,1*%
%TO.N,V_IN*%
X248000000Y-115619807D03*
%TO.P,C3,2*%
%TO.N,GND*%
X245050000Y-115619807D03*
%TD*%
D17*
%TO.P,R13,1*%
%TO.N,GND*%
X225825000Y-150430500D03*
%TO.P,R13,2*%
%TO.N,Net-(Q10-S)*%
X225825000Y-142429500D03*
%TD*%
D18*
%TO.P,Q17,1,G*%
%TO.N,Net-(D14-A)*%
X320472332Y-138688057D03*
D19*
%TO.P,Q17,2,S*%
%TO.N,Net-(Q16-S)*%
X315672332Y-137688057D03*
D20*
%TO.P,Q17,3,D*%
%TO.N,/PH_C*%
X316272332Y-129638057D03*
%TD*%
D15*
%TO.P,R36,1*%
%TO.N,/PH_B_IN_D+*%
X267600000Y-145470000D03*
%TO.P,R36,2*%
%TO.N,Net-(Q13-S)*%
X267600000Y-144830000D03*
%TD*%
D16*
%TO.P,C17,1*%
%TO.N,V_IN*%
X337465508Y-122219807D03*
%TO.P,C17,2*%
%TO.N,GND*%
X334515508Y-122219807D03*
%TD*%
D18*
%TO.P,Q18,1,G*%
%TO.N,Net-(D15-A)*%
X309672332Y-138688057D03*
D19*
%TO.P,Q18,2,S*%
%TO.N,Net-(Q16-S)*%
X304872332Y-137688057D03*
D20*
%TO.P,Q18,3,D*%
%TO.N,/PH_C*%
X305472332Y-129638057D03*
%TD*%
D16*
%TO.P,C5,1*%
%TO.N,V_IN*%
X292707332Y-112319807D03*
%TO.P,C5,2*%
%TO.N,GND*%
X289757332Y-112319807D03*
%TD*%
%TO.P,C4,1*%
%TO.N,V_IN*%
X292707332Y-109019807D03*
%TO.P,C4,2*%
%TO.N,GND*%
X289757332Y-109019807D03*
%TD*%
D14*
%TO.P,R41,1*%
%TO.N,/PH_C_IN_D-*%
X301100000Y-147175000D03*
%TO.P,R41,2*%
%TO.N,GND*%
X301100000Y-147815000D03*
%TD*%
D15*
%TO.P,R40,1*%
%TO.N,/PH_C_IN_D+*%
X301100000Y-145470000D03*
%TO.P,R40,2*%
%TO.N,Net-(Q16-S)*%
X301100000Y-144830000D03*
%TD*%
D21*
%TO.P,J11,1,Pin_1*%
%TO.N,GND*%
X333400000Y-154600000D03*
%TD*%
D18*
%TO.P,Q2,1,G*%
%TO.N,Net-(D2-A)*%
X231325000Y-119180000D03*
D19*
%TO.P,Q2,2,S*%
%TO.N,/PH_A*%
X226525000Y-118180000D03*
D20*
%TO.P,Q2,3,D*%
%TO.N,V_IN*%
X227125000Y-110130000D03*
%TD*%
D21*
%TO.P,J4,1,Pin_1*%
%TO.N,/PH_C*%
X316147332Y-123588057D03*
%TD*%
D14*
%TO.P,R45,1*%
%TO.N,/PH_C_IN_D-*%
X322850000Y-147175000D03*
%TO.P,R45,2*%
%TO.N,GND*%
X322850000Y-147815000D03*
%TD*%
D22*
%TO.P,NTC1,1*%
%TO.N,/VCC*%
X210100000Y-120325000D03*
%TO.P,NTC1,2*%
%TO.N,/TEMP*%
X210100000Y-118675000D03*
%TD*%
D16*
%TO.P,C12,1*%
%TO.N,V_IN*%
X248000000Y-125519807D03*
%TO.P,C12,2*%
%TO.N,GND*%
X245050000Y-125519807D03*
%TD*%
%TO.P,C10,1*%
%TO.N,V_IN*%
X248000000Y-118919807D03*
%TO.P,C10,2*%
%TO.N,GND*%
X245050000Y-118919807D03*
%TD*%
D18*
%TO.P,Q11,1,G*%
%TO.N,Net-(D5-A)*%
X231450000Y-139000000D03*
D19*
%TO.P,Q11,2,S*%
%TO.N,Net-(Q10-S)*%
X226650000Y-138000000D03*
D20*
%TO.P,Q11,3,D*%
%TO.N,/PH_A*%
X227250000Y-129950000D03*
%TD*%
D15*
%TO.P,R34,1*%
%TO.N,/PH_B_IN_D+*%
X256600000Y-145470000D03*
%TO.P,R34,2*%
%TO.N,Net-(Q13-S)*%
X256600000Y-144830000D03*
%TD*%
D18*
%TO.P,Q15,1,G*%
%TO.N,Net-(D12-A)*%
X265332332Y-138898057D03*
D19*
%TO.P,Q15,2,S*%
%TO.N,Net-(Q13-S)*%
X260532332Y-137898057D03*
D20*
%TO.P,Q15,3,D*%
%TO.N,/PH_B*%
X261132332Y-129848057D03*
%TD*%
D17*
%TO.P,R15,1*%
%TO.N,GND*%
X315900000Y-150151000D03*
%TO.P,R15,2*%
%TO.N,Net-(Q16-S)*%
X315900000Y-142150000D03*
%TD*%
%TO.P,R14,1*%
%TO.N,GND*%
X271250000Y-150401000D03*
%TO.P,R14,2*%
%TO.N,Net-(Q13-S)*%
X271250000Y-142400000D03*
%TD*%
%TO.P,R16,1*%
%TO.N,GND*%
X215075000Y-150430500D03*
%TO.P,R16,2*%
%TO.N,Net-(Q10-S)*%
X215075000Y-142429500D03*
%TD*%
D16*
%TO.P,C7,1*%
%TO.N,V_IN*%
X337456017Y-109019807D03*
%TO.P,C7,2*%
%TO.N,GND*%
X334506017Y-109019807D03*
%TD*%
D17*
%TO.P,R12,1*%
%TO.N,GND*%
X304900000Y-150151000D03*
%TO.P,R12,2*%
%TO.N,Net-(Q16-S)*%
X304900000Y-142150000D03*
%TD*%
D18*
%TO.P,Q14,1,G*%
%TO.N,Net-(D11-A)*%
X276132332Y-138898057D03*
D19*
%TO.P,Q14,2,S*%
%TO.N,Net-(Q13-S)*%
X271332332Y-137898057D03*
D20*
%TO.P,Q14,3,D*%
%TO.N,/PH_B*%
X271932332Y-129848057D03*
%TD*%
D18*
%TO.P,Q10,1,G*%
%TO.N,Net-(D4-A)*%
X242200000Y-139000000D03*
D19*
%TO.P,Q10,2,S*%
%TO.N,Net-(Q10-S)*%
X237400000Y-138000000D03*
D20*
%TO.P,Q10,3,D*%
%TO.N,/PH_A*%
X238000000Y-129950000D03*
%TD*%
D18*
%TO.P,Q9,1,G*%
%TO.N,Net-(D16-A)*%
X309672332Y-119018057D03*
D19*
%TO.P,Q9,2,S*%
%TO.N,/PH_C*%
X304872332Y-118018057D03*
D20*
%TO.P,Q9,3,D*%
%TO.N,V_IN*%
X305472332Y-109968057D03*
%TD*%
D15*
%TO.P,R28,1*%
%TO.N,/PH_A_IN_D+*%
X233100000Y-145470000D03*
%TO.P,R28,2*%
%TO.N,Net-(Q10-S)*%
X233100000Y-144830000D03*
%TD*%
D14*
%TO.P,R31,1*%
%TO.N,/PH_A_IN_D-*%
X222100000Y-147175000D03*
%TO.P,R31,2*%
%TO.N,GND*%
X222100000Y-147815000D03*
%TD*%
D18*
%TO.P,Q12,1,G*%
%TO.N,Net-(D6-A)*%
X220750000Y-139000000D03*
D19*
%TO.P,Q12,2,S*%
%TO.N,Net-(Q10-S)*%
X215950000Y-138000000D03*
D20*
%TO.P,Q12,3,D*%
%TO.N,/PH_A*%
X216550000Y-129950000D03*
%TD*%
D15*
%TO.P,R42,1*%
%TO.N,/PH_C_IN_D+*%
X312100000Y-145470000D03*
%TO.P,R42,2*%
%TO.N,Net-(Q16-S)*%
X312100000Y-144830000D03*
%TD*%
%TO.P,R44,1*%
%TO.N,/PH_C_IN_D+*%
X322850000Y-145470000D03*
%TO.P,R44,2*%
%TO.N,Net-(Q16-S)*%
X322850000Y-144830000D03*
%TD*%
D18*
%TO.P,Q7,1,G*%
%TO.N,Net-(D18-A)*%
X331247332Y-119018057D03*
D19*
%TO.P,Q7,2,S*%
%TO.N,/PH_C*%
X326447332Y-118018057D03*
D20*
%TO.P,Q7,3,D*%
%TO.N,V_IN*%
X327047332Y-109968057D03*
%TD*%
D21*
%TO.P,J2,1,Pin_1*%
%TO.N,/PH_B*%
X272082332Y-123848057D03*
%TD*%
D16*
%TO.P,C15,1*%
%TO.N,V_IN*%
X292682332Y-125519807D03*
%TO.P,C15,2*%
%TO.N,GND*%
X289732332Y-125519807D03*
%TD*%
D18*
%TO.P,Q3,1,G*%
%TO.N,Net-(D3-A)*%
X220525000Y-119180000D03*
D19*
%TO.P,Q3,2,S*%
%TO.N,/PH_A*%
X215725000Y-118180000D03*
D20*
%TO.P,Q3,3,D*%
%TO.N,V_IN*%
X216325000Y-110130000D03*
%TD*%
D16*
%TO.P,C9,1*%
%TO.N,V_IN*%
X337456017Y-115619807D03*
%TO.P,C9,2*%
%TO.N,GND*%
X334506017Y-115619807D03*
%TD*%
D18*
%TO.P,Q6,1,G*%
%TO.N,Net-(D9-A)*%
X265332332Y-119130000D03*
D19*
%TO.P,Q6,2,S*%
%TO.N,/PH_B*%
X260532332Y-118130000D03*
D20*
%TO.P,Q6,3,D*%
%TO.N,V_IN*%
X261132332Y-110080000D03*
%TD*%
D18*
%TO.P,Q16,1,G*%
%TO.N,Net-(D13-A)*%
X331322332Y-138688057D03*
D19*
%TO.P,Q16,2,S*%
%TO.N,Net-(Q16-S)*%
X326522332Y-137688057D03*
D20*
%TO.P,Q16,3,D*%
%TO.N,/PH_C*%
X327122332Y-129638057D03*
%TD*%
D14*
%TO.P,R33,1*%
%TO.N,/PH_A_IN_D-*%
X211350000Y-147175000D03*
%TO.P,R33,2*%
%TO.N,GND*%
X211350000Y-147815000D03*
%TD*%
D22*
%TO.P,NTC3,1*%
%TO.N,/VCC2*%
X299200000Y-120025000D03*
%TO.P,NTC3,2*%
%TO.N,/TEMP3*%
X299200000Y-118375000D03*
%TD*%
D16*
%TO.P,C6,1*%
%TO.N,V_IN*%
X292707332Y-115619807D03*
%TO.P,C6,2*%
%TO.N,GND*%
X289757332Y-115619807D03*
%TD*%
D22*
%TO.P,NTC2,1*%
%TO.N,/VCC1*%
X254900000Y-120225000D03*
%TO.P,NTC2,2*%
%TO.N,/TEMP2*%
X254900000Y-118575000D03*
%TD*%
D18*
%TO.P,Q1,1,G*%
%TO.N,Net-(D1-A)*%
X242050000Y-119180000D03*
D19*
%TO.P,Q1,2,S*%
%TO.N,/PH_A*%
X237250000Y-118180000D03*
D20*
%TO.P,Q1,3,D*%
%TO.N,V_IN*%
X237850000Y-110130000D03*
%TD*%
D16*
%TO.P,C2,1*%
%TO.N,V_IN*%
X247950000Y-112319807D03*
%TO.P,C2,2*%
%TO.N,GND*%
X245000000Y-112319807D03*
%TD*%
%TO.P,C8,1*%
%TO.N,V_IN*%
X337456017Y-112319807D03*
%TO.P,C8,2*%
%TO.N,GND*%
X334506017Y-112319807D03*
%TD*%
D14*
%TO.P,R35,1*%
%TO.N,/PH_B_IN_D-*%
X256600000Y-147175000D03*
%TO.P,R35,2*%
%TO.N,GND*%
X256600000Y-147815000D03*
%TD*%
D15*
%TO.P,R38,1*%
%TO.N,/PH_B_IN_D+*%
X278350000Y-145470000D03*
%TO.P,R38,2*%
%TO.N,Net-(Q13-S)*%
X278350000Y-144830000D03*
%TD*%
D21*
%TO.P,J3,1,Pin_1*%
%TO.N,/PH_A*%
X227175000Y-123750000D03*
%TD*%
D18*
%TO.P,Q4,1,G*%
%TO.N,Net-(D7-A)*%
X286932332Y-119130000D03*
D19*
%TO.P,Q4,2,S*%
%TO.N,/PH_B*%
X282132332Y-118130000D03*
D20*
%TO.P,Q4,3,D*%
%TO.N,V_IN*%
X282732332Y-110080000D03*
%TD*%
D23*
%TO.N,GND*%
X342275000Y-108745000D03*
X245755000Y-157005000D03*
X257200000Y-152550000D03*
X250750000Y-156100000D03*
X210195000Y-139225000D03*
X281315000Y-154465000D03*
X219700000Y-153900000D03*
X299095000Y-149385000D03*
X324495000Y-157005000D03*
X204600000Y-115150000D03*
X214150000Y-156300000D03*
X294015000Y-149385000D03*
X242000000Y-152350000D03*
X289600000Y-155700000D03*
X319415000Y-154465000D03*
X278775000Y-154465000D03*
X276235000Y-157005000D03*
X309255000Y-144305000D03*
X337195000Y-146845000D03*
X344815000Y-144305000D03*
X294015000Y-157005000D03*
X215275000Y-154465000D03*
X230515000Y-149385000D03*
X280350000Y-152750000D03*
X243215000Y-154465000D03*
X238135000Y-146845000D03*
X220355000Y-157005000D03*
X225435000Y-136685000D03*
X294015000Y-151925000D03*
X291475000Y-154465000D03*
X344815000Y-154465000D03*
X271155000Y-116365000D03*
X306715000Y-154465000D03*
X276000000Y-154600000D03*
X210195000Y-154465000D03*
X342275000Y-144305000D03*
X339735000Y-154465000D03*
X223600000Y-156300000D03*
X205115000Y-151925000D03*
X205115000Y-121445000D03*
X255915000Y-154465000D03*
X238135000Y-157005000D03*
X280350000Y-156500000D03*
X337195000Y-144305000D03*
X205115000Y-106205000D03*
X225435000Y-157005000D03*
X324495000Y-154465000D03*
X220355000Y-149385000D03*
X320350000Y-152550000D03*
X309255000Y-151925000D03*
X205115000Y-141765000D03*
X230515000Y-157005000D03*
X324495000Y-116365000D03*
X205115000Y-103665000D03*
X225435000Y-116365000D03*
X212735000Y-136685000D03*
X260995000Y-116365000D03*
X344815000Y-151925000D03*
X311600000Y-152550000D03*
X332115000Y-141765000D03*
X311600000Y-156300000D03*
X217450000Y-154400000D03*
X235595000Y-146845000D03*
X309255000Y-154465000D03*
X258455000Y-154465000D03*
X205115000Y-118905000D03*
X309255000Y-149385000D03*
X268615000Y-116365000D03*
X321955000Y-157005000D03*
X286395000Y-151925000D03*
X309255000Y-157005000D03*
X215275000Y-136685000D03*
X281315000Y-146845000D03*
X263535000Y-154465000D03*
X250835000Y-144305000D03*
X248295000Y-146845000D03*
X327035000Y-116365000D03*
X296555000Y-146845000D03*
X248295000Y-139225000D03*
X212735000Y-157005000D03*
X227975000Y-157005000D03*
X296555000Y-151925000D03*
X250750000Y-152350000D03*
X255915000Y-116365000D03*
X253375000Y-149385000D03*
X321955000Y-149385000D03*
X337750000Y-156500000D03*
X248295000Y-144305000D03*
X286395000Y-157005000D03*
X271600000Y-156500000D03*
X205115000Y-146845000D03*
X283855000Y-146845000D03*
X222895000Y-136685000D03*
X268615000Y-154465000D03*
X220355000Y-151925000D03*
X320350000Y-156300000D03*
X263535000Y-157005000D03*
X248295000Y-149385000D03*
X207655000Y-108745000D03*
X273695000Y-154465000D03*
X230515000Y-154465000D03*
X253375000Y-151925000D03*
X266075000Y-154465000D03*
X250835000Y-139225000D03*
X314335000Y-116365000D03*
X266075000Y-149385000D03*
X301635000Y-157005000D03*
X214150000Y-152550000D03*
X250835000Y-141765000D03*
X235595000Y-136685000D03*
X205115000Y-108745000D03*
X235595000Y-116365000D03*
X205115000Y-139225000D03*
X248295000Y-136685000D03*
X327035000Y-146845000D03*
X342275000Y-157005000D03*
X211850000Y-154750000D03*
X278775000Y-157005000D03*
X329000000Y-156500000D03*
X294015000Y-146845000D03*
X232350000Y-152550000D03*
X246400000Y-154200000D03*
X223600000Y-152550000D03*
X253375000Y-154465000D03*
X240675000Y-154465000D03*
X250835000Y-149385000D03*
X327035000Y-157005000D03*
X207655000Y-146845000D03*
X230515000Y-151925000D03*
X248295000Y-134145000D03*
X276235000Y-149385000D03*
X268615000Y-157005000D03*
X294015000Y-134145000D03*
X207655000Y-149385000D03*
X222895000Y-154465000D03*
X210195000Y-141765000D03*
X271155000Y-154465000D03*
X339735000Y-157005000D03*
X210195000Y-157005000D03*
X332115000Y-144305000D03*
X290400000Y-150600000D03*
X261600000Y-154400000D03*
X232350000Y-156300000D03*
X260995000Y-157005000D03*
X233055000Y-136685000D03*
X207655000Y-118905000D03*
X207655000Y-157005000D03*
X329000000Y-152750000D03*
X344815000Y-103665000D03*
X276235000Y-151925000D03*
X344815000Y-108745000D03*
X332115000Y-149385000D03*
X233055000Y-149385000D03*
X296555000Y-157005000D03*
X248295000Y-131605000D03*
X314335000Y-157005000D03*
X238135000Y-154465000D03*
X294015000Y-136685000D03*
X205115000Y-149385000D03*
X314335000Y-154465000D03*
X296555000Y-149385000D03*
X248295000Y-157005000D03*
X257200000Y-156300000D03*
X233055000Y-154465000D03*
X299095000Y-141765000D03*
X250835000Y-146845000D03*
X210195000Y-151925000D03*
X329575000Y-146845000D03*
X306715000Y-157005000D03*
X235595000Y-154465000D03*
X311795000Y-154465000D03*
X253375000Y-146845000D03*
X235595000Y-157005000D03*
X298350000Y-151950000D03*
X225435000Y-154465000D03*
X342275000Y-121445000D03*
X333400000Y-154600000D03*
X332115000Y-146845000D03*
X283855000Y-154465000D03*
X286395000Y-146845000D03*
X210195000Y-116365000D03*
X283855000Y-157005000D03*
X248295000Y-151925000D03*
X294000000Y-153800000D03*
X327035000Y-154465000D03*
X291475000Y-157005000D03*
X222895000Y-116365000D03*
X210195000Y-149385000D03*
X296555000Y-154465000D03*
X242000000Y-156100000D03*
X233055000Y-116365000D03*
X281315000Y-116365000D03*
X245600000Y-150800000D03*
X240675000Y-149385000D03*
X316875000Y-157005000D03*
X342275000Y-136685000D03*
X342275000Y-103665000D03*
X294015000Y-139225000D03*
X217815000Y-157005000D03*
X339735000Y-144305000D03*
X248295000Y-141765000D03*
X240675000Y-146845000D03*
X321955000Y-116365000D03*
X316000000Y-154400000D03*
X289600000Y-151950000D03*
X207655000Y-103665000D03*
X339735000Y-151925000D03*
X228000000Y-154400000D03*
X321955000Y-154465000D03*
X253375000Y-157005000D03*
X286395000Y-154465000D03*
X271600000Y-152750000D03*
X301635000Y-154465000D03*
X311795000Y-116365000D03*
X278775000Y-116365000D03*
X324495000Y-146845000D03*
X248295000Y-154465000D03*
X248295000Y-129065000D03*
X311795000Y-149385000D03*
X342275000Y-116365000D03*
X344815000Y-106205000D03*
X205115000Y-144305000D03*
X298350000Y-155700000D03*
X265950000Y-156300000D03*
X294015000Y-141765000D03*
X337750000Y-152750000D03*
X255915000Y-149385000D03*
X205115000Y-154465000D03*
X265950000Y-152550000D03*
X321955000Y-151925000D03*
X273695000Y-157005000D03*
X286395000Y-149385000D03*
X304175000Y-157005000D03*
X294015000Y-144305000D03*
X250835000Y-154465000D03*
X339735000Y-146845000D03*
X299095000Y-139225000D03*
X304175000Y-154465000D03*
%TO.N,Net-(D1-A)*%
X241150000Y-116700000D03*
X240450000Y-116700000D03*
X241900000Y-116700000D03*
X242050000Y-117350000D03*
%TO.N,Net-(D2-A)*%
X230050000Y-117000000D03*
X231350000Y-117600000D03*
X229362500Y-116937500D03*
X230900000Y-117000000D03*
%TO.N,Net-(D3-A)*%
X220550000Y-117518750D03*
X220400000Y-116868750D03*
X219650000Y-116868750D03*
X218950000Y-116868750D03*
%TO.N,Net-(D4-A)*%
X240600000Y-136468750D03*
X242200000Y-137118750D03*
X242050000Y-136468750D03*
X241300000Y-136468750D03*
%TO.N,Net-(D5-A)*%
X231500000Y-137218750D03*
X229900000Y-136568750D03*
X231350000Y-136568750D03*
X230600000Y-136568750D03*
%TO.N,Net-(D6-A)*%
X219850000Y-136468750D03*
X220600000Y-136468750D03*
X219150000Y-136468750D03*
X220750000Y-137118750D03*
%TO.N,/TEMP2*%
X254450000Y-117250000D03*
%TO.N,/TEMP3*%
X298850000Y-117200000D03*
%TO.N,Net-(D7-A)*%
X286782332Y-116916807D03*
X285332332Y-116916807D03*
X286932332Y-117566807D03*
X286032332Y-116916807D03*
%TO.N,Net-(D8-A)*%
X276032332Y-116816807D03*
X274582332Y-116816807D03*
X275282332Y-116816807D03*
X276182332Y-117466807D03*
%TO.N,Net-(D9-A)*%
X263732332Y-117016807D03*
X265332332Y-117666807D03*
X264432332Y-117016807D03*
X265182332Y-117016807D03*
%TO.N,Net-(D10-A)*%
X286082332Y-136316807D03*
X285382332Y-136316807D03*
X286832332Y-136316807D03*
X286982332Y-136966807D03*
%TO.N,Net-(D11-A)*%
X276182332Y-137116807D03*
X275282332Y-136466807D03*
X274582332Y-136466807D03*
X276032332Y-136466807D03*
%TO.N,Net-(D12-A)*%
X264482332Y-136366807D03*
X265382332Y-137016807D03*
X263782332Y-136366807D03*
X265232332Y-136366807D03*
%TO.N,Net-(D13-A)*%
X331222332Y-136306807D03*
X331372332Y-136956807D03*
X330472332Y-136306807D03*
X329772332Y-136306807D03*
%TO.N,Net-(D14-A)*%
X320472332Y-136756807D03*
X318872332Y-136106807D03*
X320322332Y-136106807D03*
X319572332Y-136106807D03*
%TO.N,Net-(D15-A)*%
X309672332Y-136906807D03*
X309522332Y-136256807D03*
X308072332Y-136256807D03*
X308772332Y-136256807D03*
%TO.N,Net-(D16-A)*%
X308772332Y-116456807D03*
X309522332Y-116456807D03*
X309672332Y-117106807D03*
X308072332Y-116456807D03*
%TO.N,Net-(D17-A)*%
X320322332Y-116456807D03*
X319572332Y-116456807D03*
X318872332Y-116456807D03*
X320472332Y-117106807D03*
%TO.N,Net-(D18-A)*%
X331272332Y-117206807D03*
X329672332Y-116556807D03*
X331122332Y-116556807D03*
X330372332Y-116556807D03*
%TO.N,/VCC1*%
X254600000Y-121300000D03*
%TO.N,/VCC2*%
X299150000Y-121250000D03*
%TD*%
D24*
%TO.N,GND*%
X325765000Y-147815000D02*
X326550000Y-148600000D01*
X224875000Y-147822750D02*
X225850000Y-148797750D01*
X322850000Y-147815000D02*
X325765000Y-147815000D01*
X225850000Y-148797750D02*
X225850000Y-150438250D01*
X304900000Y-148450000D02*
X304900000Y-150401000D01*
X233125000Y-147822750D02*
X235875000Y-147822750D01*
X259765000Y-147815000D02*
X260400000Y-148450000D01*
D25*
X290400000Y-150400000D02*
X290400000Y-150600000D01*
X290600000Y-150600000D02*
X290500000Y-150500000D01*
X245600000Y-150800000D02*
X245600000Y-150850000D01*
D24*
X278350000Y-147815000D02*
X281265000Y-147815000D01*
X326550000Y-148600000D02*
X326550000Y-150351000D01*
D25*
X334506017Y-153493983D02*
X333400000Y-154600000D01*
X245000000Y-109019807D02*
X245000000Y-150250000D01*
D24*
X215075000Y-148790000D02*
X215075000Y-150430500D01*
X256600000Y-147815000D02*
X259765000Y-147815000D01*
X281265000Y-147815000D02*
X282050000Y-148600000D01*
D26*
X206525000Y-115150000D02*
X206700000Y-114975000D01*
D24*
X211350000Y-147815000D02*
X214100000Y-147815000D01*
D25*
X289757332Y-149757332D02*
X290400000Y-150400000D01*
X289757332Y-109019807D02*
X289757332Y-149757332D01*
D24*
X236850000Y-148797750D02*
X236850000Y-150438250D01*
X301100000Y-147815000D02*
X304265000Y-147815000D01*
X270515000Y-147815000D02*
X271250000Y-148550000D01*
X214100000Y-147815000D02*
X215075000Y-148790000D01*
X282050000Y-148600000D02*
X282050000Y-150351000D01*
X315015000Y-147815000D02*
X315750000Y-148550000D01*
D25*
X245000000Y-150250000D02*
X245550000Y-150800000D01*
D24*
X271250000Y-148550000D02*
X271250000Y-150401000D01*
X312100000Y-147815000D02*
X315015000Y-147815000D01*
D25*
X245550000Y-150800000D02*
X245600000Y-150800000D01*
D26*
X204600000Y-115150000D02*
X206525000Y-115150000D01*
D25*
X245600000Y-150850000D02*
X245500000Y-150750000D01*
D24*
X304265000Y-147815000D02*
X304900000Y-148450000D01*
D25*
X334506017Y-109019807D02*
X334506017Y-153493983D01*
D24*
X222125000Y-147822750D02*
X224875000Y-147822750D01*
X267600000Y-147815000D02*
X270515000Y-147815000D01*
D25*
X290400000Y-150600000D02*
X290600000Y-150600000D01*
D24*
X260400000Y-148450000D02*
X260400000Y-150401000D01*
X315750000Y-148550000D02*
X315750000Y-150401000D01*
X235875000Y-147822750D02*
X236850000Y-148797750D01*
D27*
%TO.N,V_IN*%
X327047332Y-109968057D02*
X327081943Y-109968057D01*
D28*
X343250000Y-125750000D02*
X343250000Y-127431251D01*
X343150000Y-111050000D02*
X343150000Y-112829999D01*
X341500000Y-140300000D02*
X337800000Y-136600000D01*
X343150000Y-111050000D02*
X338725824Y-111050000D01*
X343250000Y-127431251D02*
X345298749Y-129480000D01*
X338725824Y-111050000D02*
X337456017Y-112319807D01*
X338098750Y-142130000D02*
X338098750Y-136898750D01*
X337800000Y-136600000D02*
X337800000Y-125854299D01*
X343150000Y-112829999D02*
X344920001Y-114600000D01*
X343250000Y-125750000D02*
X337695701Y-125750000D01*
X343250000Y-140300000D02*
X341500000Y-140300000D01*
D25*
X206700000Y-112435000D02*
X214170000Y-112435000D01*
X214170000Y-112435000D02*
X216325000Y-110280000D01*
D28*
X338098750Y-136898750D02*
X337800000Y-136600000D01*
D29*
%TO.N,Net-(D1-A)*%
X240450000Y-116700000D02*
X240500000Y-116700000D01*
X241150000Y-116700000D02*
X240450000Y-116700000D01*
X242050000Y-119330000D02*
X242050000Y-116850000D01*
X241900000Y-116700000D02*
X241350000Y-116700000D01*
X241350000Y-116700000D02*
X241150000Y-116700000D01*
X242050000Y-116850000D02*
X241900000Y-116700000D01*
X241900000Y-116700000D02*
X240450000Y-116700000D01*
%TO.N,Net-(D2-A)*%
X231200000Y-117000000D02*
X230900000Y-117000000D01*
X230000000Y-116950000D02*
X229375000Y-116950000D01*
X231325000Y-117125000D02*
X231200000Y-117000000D01*
X229375000Y-116950000D02*
X229362500Y-116937500D01*
X231325000Y-119330000D02*
X231325000Y-117575000D01*
X231325000Y-117575000D02*
X231325000Y-117125000D01*
X230900000Y-117000000D02*
X230850000Y-116950000D01*
X231350000Y-117600000D02*
X231325000Y-117575000D01*
X230850000Y-116950000D02*
X230100000Y-116950000D01*
%TO.N,Net-(D3-A)*%
X220550000Y-117018750D02*
X220400000Y-116868750D01*
X220550000Y-119498750D02*
X220550000Y-117018750D01*
X220400000Y-116868750D02*
X218950000Y-116868750D01*
%TO.N,Net-(D4-A)*%
X242200000Y-139098750D02*
X242200000Y-137402978D01*
X241265772Y-136468750D02*
X240600000Y-136468750D01*
X242200000Y-137402978D02*
X241265772Y-136468750D01*
%TO.N,Net-(D5-A)*%
X231500000Y-139198750D02*
X231500000Y-137452978D01*
X231500000Y-137452978D02*
X230615772Y-136568750D01*
X230615772Y-136568750D02*
X229900000Y-136568750D01*
%TO.N,Net-(D6-A)*%
X220750000Y-137402978D02*
X219815772Y-136468750D01*
X220750000Y-139098750D02*
X220750000Y-137402978D01*
X219815772Y-136468750D02*
X219150000Y-136468750D01*
D25*
%TO.N,/PH_A*%
X208800000Y-128580000D02*
X215180000Y-128580000D01*
X215180000Y-128580000D02*
X216550000Y-129950000D01*
D24*
%TO.N,/VCC*%
X204800000Y-126200000D02*
X204800000Y-129660000D01*
X210100000Y-120325000D02*
X210100000Y-120900000D01*
X204800000Y-129660000D02*
X206260000Y-131120000D01*
X210100000Y-120900000D02*
X204800000Y-126200000D01*
D25*
%TO.N,/PH_C*%
X298272332Y-128258057D02*
X304092332Y-128258057D01*
X304092332Y-128258057D02*
X305472332Y-129638057D01*
%TO.N,/PH_B*%
X259852332Y-128568057D02*
X261132332Y-129848057D01*
X253732332Y-128568057D02*
X259852332Y-128568057D01*
D24*
%TO.N,/TEMP*%
X204200000Y-124575000D02*
X204200000Y-131600000D01*
X210100000Y-118675000D02*
X204200000Y-124575000D01*
X204200000Y-131600000D02*
X206260000Y-133660000D01*
%TO.N,/TEMP2*%
X254900000Y-118575000D02*
X254900000Y-117700000D01*
X254900000Y-117700000D02*
X254450000Y-117250000D01*
%TO.N,/TEMP3*%
X299200000Y-118375000D02*
X299200000Y-117550000D01*
X299200000Y-117550000D02*
X298850000Y-117200000D01*
D29*
%TO.N,Net-(D7-A)*%
X286782332Y-116916807D02*
X285332332Y-116916807D01*
X286932332Y-119546807D02*
X286932332Y-117066807D01*
X286932332Y-117066807D02*
X286782332Y-116916807D01*
%TO.N,Net-(D8-A)*%
X276016807Y-116816807D02*
X274582332Y-116816807D01*
X276250000Y-117050000D02*
X276016807Y-116816807D01*
X276182332Y-119446807D02*
X276182332Y-117117668D01*
X276182332Y-117117668D02*
X276250000Y-117050000D01*
%TO.N,Net-(D9-A)*%
X265332332Y-117166807D02*
X265182332Y-117016807D01*
X265332332Y-119646807D02*
X265332332Y-117166807D01*
X265182332Y-117016807D02*
X263732332Y-117016807D01*
%TO.N,Net-(D10-A)*%
X286982332Y-136682332D02*
X286616807Y-136316807D01*
X286616807Y-136316807D02*
X285382332Y-136316807D01*
X286982332Y-138946807D02*
X286982332Y-136682332D01*
%TO.N,Net-(D11-A)*%
X276032332Y-136466807D02*
X274582332Y-136466807D01*
X276182332Y-139096807D02*
X276182332Y-136616807D01*
X276182332Y-136616807D02*
X276032332Y-136466807D01*
%TO.N,Net-(D12-A)*%
X265382332Y-136516807D02*
X265232332Y-136366807D01*
X265382332Y-138996807D02*
X265382332Y-136516807D01*
X265232332Y-136366807D02*
X263782332Y-136366807D01*
%TO.N,Net-(D13-A)*%
X331372332Y-136456807D02*
X331222332Y-136306807D01*
X331372332Y-138936807D02*
X331372332Y-136456807D01*
X331222332Y-136306807D02*
X329772332Y-136306807D01*
%TO.N,Net-(D14-A)*%
X320472332Y-136256807D02*
X320322332Y-136106807D01*
X320322332Y-136106807D02*
X318872332Y-136106807D01*
X320472332Y-138736807D02*
X320472332Y-136256807D01*
%TO.N,Net-(D15-A)*%
X309672332Y-136406807D02*
X309522332Y-136256807D01*
X309522332Y-136256807D02*
X308072332Y-136256807D01*
X309672332Y-138886807D02*
X309672332Y-136406807D01*
%TO.N,Net-(D16-A)*%
X309672332Y-119086807D02*
X309672332Y-116606807D01*
X309672332Y-116606807D02*
X309522332Y-116456807D01*
X309522332Y-116456807D02*
X308072332Y-116456807D01*
%TO.N,Net-(D17-A)*%
X320322332Y-116456807D02*
X318872332Y-116456807D01*
X320472332Y-119086807D02*
X320472332Y-116606807D01*
X320472332Y-116606807D02*
X320322332Y-116456807D01*
%TO.N,Net-(D18-A)*%
X331122332Y-116556807D02*
X329672332Y-116556807D01*
X331272332Y-119186807D02*
X331272332Y-116706807D01*
X331272332Y-116706807D02*
X331122332Y-116556807D01*
D24*
%TO.N,/VCC1*%
X254900000Y-121000000D02*
X254900000Y-120225000D01*
X254600000Y-121300000D02*
X254900000Y-121000000D01*
%TO.N,/VCC2*%
X299150000Y-120075000D02*
X299200000Y-120025000D01*
X299150000Y-121250000D02*
X299150000Y-120075000D01*
%TO.N,Net-(Q13-S)*%
X270670000Y-144830000D02*
X271250000Y-144250000D01*
X260400000Y-144100000D02*
X260400000Y-142400000D01*
X271250000Y-144250000D02*
X271250000Y-142400000D01*
X278350000Y-144830000D02*
X281420000Y-144830000D01*
X267600000Y-144830000D02*
X270670000Y-144830000D01*
X281420000Y-144830000D02*
X282050000Y-144200000D01*
X256600000Y-144830000D02*
X259670000Y-144830000D01*
X282050000Y-144200000D02*
X282050000Y-142350000D01*
X259670000Y-144830000D02*
X260400000Y-144100000D01*
%TO.N,Net-(Q16-S)*%
X304900000Y-144100000D02*
X304900000Y-142400000D01*
X301100000Y-144830000D02*
X304170000Y-144830000D01*
X304170000Y-144830000D02*
X304900000Y-144100000D01*
X326550000Y-144200000D02*
X326550000Y-142350000D01*
X315750000Y-144250000D02*
X315750000Y-142400000D01*
X322850000Y-144830000D02*
X325920000Y-144830000D01*
X315170000Y-144830000D02*
X315750000Y-144250000D01*
X325920000Y-144830000D02*
X326550000Y-144200000D01*
X312100000Y-144830000D02*
X315170000Y-144830000D01*
%TO.N,/PH_A_IN_D-*%
X222100000Y-147175000D02*
X211350000Y-147175000D01*
X206260000Y-137475001D02*
X206260000Y-136200000D01*
X207255000Y-143080000D02*
X207255000Y-138470001D01*
X211350000Y-147175000D02*
X207255000Y-143080000D01*
X207255000Y-138470001D02*
X206260000Y-137475001D01*
X222100000Y-147175000D02*
X233100000Y-147175000D01*
%TO.N,/PH_A_IN_D+*%
X211350000Y-145470000D02*
X222100000Y-145470000D01*
X211350000Y-145470000D02*
X210422818Y-145470000D01*
X207805000Y-142852182D02*
X207805000Y-138470001D01*
X207805000Y-138470001D02*
X208800000Y-137475001D01*
X210422818Y-145470000D02*
X207805000Y-142852182D01*
X208800000Y-137475001D02*
X208800000Y-136200000D01*
X233100000Y-145470000D02*
X222100000Y-145470000D01*
%TO.N,/PH_B_IN_D+*%
X253732332Y-137463058D02*
X253732332Y-136188057D01*
X256600000Y-145470000D02*
X255672818Y-145470000D01*
X256600000Y-145470000D02*
X278350000Y-145470000D01*
X252737332Y-138458058D02*
X253732332Y-137463058D01*
X252737332Y-142534514D02*
X252737332Y-138458058D01*
X255672818Y-145470000D02*
X252737332Y-142534514D01*
%TO.N,/PH_B_IN_D-*%
X256600000Y-147175000D02*
X252187332Y-142762332D01*
X251192332Y-137463058D02*
X251192332Y-136188057D01*
X252187332Y-142762332D02*
X252187332Y-138458058D01*
X256600000Y-147175000D02*
X278350000Y-147175000D01*
X252187332Y-138458058D02*
X251192332Y-137463058D01*
%TO.N,/PH_C_IN_D-*%
X296727332Y-138148058D02*
X295732332Y-137153058D01*
X322850000Y-147175000D02*
X301100000Y-147175000D01*
X295732332Y-137153058D02*
X295732332Y-135878057D01*
X296727332Y-142802332D02*
X296727332Y-138148058D01*
X301100000Y-147175000D02*
X296727332Y-142802332D01*
%TO.N,/PH_C_IN_D+*%
X301100000Y-145470000D02*
X322850000Y-145470000D01*
X298272332Y-137153058D02*
X298272332Y-135878057D01*
X301100000Y-145470000D02*
X300172818Y-145470000D01*
X297277332Y-138148058D02*
X298272332Y-137153058D01*
X297277332Y-142574514D02*
X297277332Y-138148058D01*
X300172818Y-145470000D02*
X297277332Y-142574514D01*
%TO.N,Net-(Q10-S)*%
X235875000Y-144837750D02*
X236850000Y-143862750D01*
X233125000Y-144837750D02*
X235875000Y-144837750D01*
X222125000Y-144837750D02*
X224875000Y-144837750D01*
X225850000Y-143862750D02*
X225850000Y-142437250D01*
X224875000Y-144837750D02*
X225850000Y-143862750D01*
X214100000Y-144830000D02*
X215075000Y-143855000D01*
X211350000Y-144830000D02*
X214100000Y-144830000D01*
X236850000Y-143862750D02*
X236850000Y-142437250D01*
D30*
X216100000Y-143454500D02*
X215075000Y-142429500D01*
D24*
X215075000Y-143855000D02*
X215075000Y-142429500D01*
%TD*%
%TA.AperFunction,Conductor*%
%TO.N,/PH_B*%
G36*
X263066280Y-117769685D02*
G01*
X263086922Y-117786319D01*
X263094546Y-117793943D01*
X263094550Y-117793946D01*
X263258411Y-117903435D01*
X263258424Y-117903442D01*
X263440492Y-117978856D01*
X263440497Y-117978858D01*
X263440501Y-117978858D01*
X263440502Y-117978859D01*
X263633788Y-118017307D01*
X263633791Y-118017307D01*
X264207832Y-118017307D01*
X264274871Y-118036992D01*
X264320626Y-118089796D01*
X264331832Y-118141307D01*
X264331832Y-119745348D01*
X264331832Y-119745350D01*
X264331831Y-119745350D01*
X264370279Y-119938635D01*
X264370281Y-119938643D01*
X264422393Y-120064453D01*
X264431832Y-120111905D01*
X264431832Y-120577870D01*
X264431833Y-120577876D01*
X264438240Y-120637483D01*
X264488534Y-120772328D01*
X264488538Y-120772335D01*
X264574784Y-120887544D01*
X264574787Y-120887547D01*
X264689996Y-120973793D01*
X264690005Y-120973798D01*
X264718624Y-120984472D01*
X264744699Y-121001229D01*
X264781220Y-121007819D01*
X264824840Y-121024088D01*
X264824843Y-121024088D01*
X264824849Y-121024091D01*
X264884459Y-121030500D01*
X265780204Y-121030499D01*
X265839815Y-121024091D01*
X265883446Y-121007817D01*
X265926778Y-121000000D01*
X267250000Y-121000000D01*
X267250000Y-117874000D01*
X267269685Y-117806961D01*
X267322489Y-117761206D01*
X267374000Y-117750000D01*
X274196163Y-117750000D01*
X274243614Y-117759438D01*
X274290497Y-117778858D01*
X274290501Y-117778858D01*
X274290502Y-117778859D01*
X274483788Y-117817307D01*
X274483791Y-117817307D01*
X275057832Y-117817307D01*
X275124871Y-117836992D01*
X275170626Y-117889796D01*
X275181832Y-117941307D01*
X275181832Y-119545348D01*
X275181832Y-119545350D01*
X275181831Y-119545350D01*
X275220280Y-119738640D01*
X275220281Y-119738644D01*
X275222393Y-119743742D01*
X275231832Y-119791194D01*
X275231832Y-120577870D01*
X275231833Y-120577876D01*
X275238240Y-120637483D01*
X275288534Y-120772328D01*
X275288538Y-120772335D01*
X275374783Y-120887543D01*
X275374784Y-120887544D01*
X275374786Y-120887546D01*
X275450312Y-120944085D01*
X275492182Y-121000017D01*
X275500000Y-121043350D01*
X275500000Y-121250000D01*
X277750000Y-121250000D01*
X277750000Y-117874000D01*
X277769685Y-117806961D01*
X277822489Y-117761206D01*
X277874000Y-117750000D01*
X284740826Y-117750000D01*
X284807865Y-117769685D01*
X284809664Y-117770862D01*
X284858418Y-117803439D01*
X284858420Y-117803440D01*
X284858424Y-117803442D01*
X285040492Y-117878856D01*
X285040497Y-117878858D01*
X285040501Y-117878858D01*
X285040502Y-117878859D01*
X285233788Y-117917307D01*
X285233791Y-117917307D01*
X285807832Y-117917307D01*
X285874871Y-117936992D01*
X285920626Y-117989796D01*
X285931832Y-118041307D01*
X285931832Y-119645348D01*
X285931832Y-119645350D01*
X285931831Y-119645350D01*
X285970279Y-119838635D01*
X285970281Y-119838643D01*
X286022393Y-119964453D01*
X286031832Y-120011905D01*
X286031832Y-120577870D01*
X286031833Y-120577876D01*
X286038240Y-120637483D01*
X286088534Y-120772328D01*
X286088538Y-120772335D01*
X286174784Y-120887544D01*
X286174785Y-120887545D01*
X286174786Y-120887546D01*
X286174787Y-120887547D01*
X286200310Y-120906653D01*
X286242182Y-120962586D01*
X286250000Y-121005920D01*
X286250000Y-121750000D01*
X287626000Y-121750000D01*
X287693039Y-121769685D01*
X287738794Y-121822489D01*
X287750000Y-121874000D01*
X287750000Y-135126000D01*
X287730315Y-135193039D01*
X287677511Y-135238794D01*
X287626000Y-135250000D01*
X256374000Y-135250000D01*
X256306961Y-135230315D01*
X256261206Y-135177511D01*
X256250000Y-135126000D01*
X256250000Y-117874000D01*
X256269685Y-117806961D01*
X256322489Y-117761206D01*
X256374000Y-117750000D01*
X262999241Y-117750000D01*
X263066280Y-117769685D01*
G37*
%TD.AperFunction*%
%TD*%
%TA.AperFunction,Conductor*%
%TO.N,GND*%
G36*
X210120535Y-101451163D02*
G01*
X210187567Y-101470865D01*
X210233308Y-101523681D01*
X210244500Y-101575163D01*
X210244500Y-110810500D01*
X210224815Y-110877539D01*
X210172011Y-110923294D01*
X210120500Y-110934500D01*
X206581903Y-110934500D01*
X206348631Y-110971446D01*
X206124003Y-111044433D01*
X205913566Y-111151657D01*
X205804550Y-111230862D01*
X205722490Y-111290483D01*
X205722488Y-111290485D01*
X205722487Y-111290485D01*
X205555485Y-111457487D01*
X205555485Y-111457488D01*
X205555483Y-111457490D01*
X205495862Y-111539550D01*
X205416657Y-111648566D01*
X205309433Y-111859003D01*
X205236446Y-112083631D01*
X205199500Y-112316902D01*
X205199500Y-112553097D01*
X205236446Y-112786368D01*
X205309433Y-113010996D01*
X205391585Y-113172227D01*
X205416657Y-113221433D01*
X205555483Y-113412510D01*
X205722490Y-113579517D01*
X205913567Y-113718343D01*
X206012991Y-113769002D01*
X206124003Y-113825566D01*
X206124005Y-113825566D01*
X206124008Y-113825568D01*
X206244412Y-113864689D01*
X206348631Y-113898553D01*
X206581903Y-113935500D01*
X206581908Y-113935500D01*
X210120500Y-113935500D01*
X210187539Y-113955185D01*
X210233294Y-114007989D01*
X210244500Y-114059500D01*
X210244500Y-115376000D01*
X210244501Y-115376009D01*
X210256052Y-115483450D01*
X210256054Y-115483462D01*
X210267260Y-115534972D01*
X210301383Y-115637497D01*
X210301386Y-115637503D01*
X210379171Y-115758537D01*
X210379179Y-115758548D01*
X210424923Y-115811340D01*
X210424926Y-115811343D01*
X210424930Y-115811347D01*
X210533664Y-115905567D01*
X210533667Y-115905568D01*
X210533668Y-115905569D01*
X210661731Y-115964055D01*
X210664541Y-115965338D01*
X210731580Y-115985023D01*
X210731584Y-115985024D01*
X210874000Y-116005500D01*
X218098966Y-116005500D01*
X218166005Y-116025185D01*
X218211760Y-116077989D01*
X218221704Y-116147147D01*
X218192679Y-116210703D01*
X218186647Y-116217181D01*
X218172863Y-116230964D01*
X218172860Y-116230968D01*
X218063371Y-116394829D01*
X218063364Y-116394842D01*
X217987950Y-116576910D01*
X217987947Y-116576920D01*
X217949500Y-116770206D01*
X217949500Y-116770209D01*
X217949500Y-116967291D01*
X217949500Y-116967293D01*
X217949499Y-116967293D01*
X217975163Y-117096308D01*
X217968936Y-117165900D01*
X217926073Y-117221077D01*
X217860183Y-117244322D01*
X217853546Y-117244500D01*
X211624000Y-117244500D01*
X211623991Y-117244500D01*
X211623990Y-117244501D01*
X211516549Y-117256052D01*
X211516537Y-117256054D01*
X211465027Y-117267260D01*
X211362502Y-117301383D01*
X211362496Y-117301386D01*
X211241462Y-117379171D01*
X211241451Y-117379179D01*
X211188659Y-117424923D01*
X211094433Y-117533664D01*
X211094430Y-117533668D01*
X211034664Y-117664534D01*
X211014976Y-117731582D01*
X211000386Y-117833061D01*
X210971361Y-117896617D01*
X210912583Y-117934391D01*
X210842713Y-117934391D01*
X210813498Y-117921531D01*
X210753702Y-117885383D01*
X210664606Y-117831522D01*
X210502196Y-117780914D01*
X210502194Y-117780913D01*
X210502192Y-117780913D01*
X210452778Y-117776423D01*
X210431616Y-117774500D01*
X209768384Y-117774500D01*
X209749145Y-117776248D01*
X209697807Y-117780913D01*
X209535393Y-117831522D01*
X209389811Y-117919530D01*
X209269530Y-118039811D01*
X209181522Y-118185393D01*
X209130913Y-118347807D01*
X209124500Y-118418386D01*
X209124500Y-118679191D01*
X209104815Y-118746230D01*
X209088181Y-118766872D01*
X203694727Y-124160325D01*
X203694726Y-124160326D01*
X203623534Y-124266874D01*
X203574499Y-124385255D01*
X203574497Y-124385261D01*
X203549500Y-124510928D01*
X203549500Y-131664071D01*
X203565765Y-131745836D01*
X203565765Y-131745838D01*
X203574497Y-131789737D01*
X203574498Y-131789741D01*
X203574499Y-131789744D01*
X203623535Y-131908127D01*
X203671192Y-131979452D01*
X203694726Y-132014673D01*
X203694727Y-132014674D01*
X204912290Y-133232236D01*
X204945775Y-133293559D01*
X204944384Y-133352008D01*
X204924937Y-133424589D01*
X204924937Y-133424590D01*
X204904341Y-133659999D01*
X204904341Y-133660000D01*
X204924936Y-133895403D01*
X204924938Y-133895413D01*
X204986094Y-134123655D01*
X204986096Y-134123659D01*
X204986097Y-134123663D01*
X205080396Y-134325887D01*
X205085965Y-134337830D01*
X205085967Y-134337834D01*
X205194281Y-134492521D01*
X205218813Y-134527557D01*
X205221501Y-134531395D01*
X205221506Y-134531402D01*
X205388597Y-134698493D01*
X205388603Y-134698498D01*
X205574158Y-134828425D01*
X205617783Y-134883002D01*
X205624977Y-134952500D01*
X205593454Y-135014855D01*
X205574158Y-135031575D01*
X205388597Y-135161505D01*
X205221505Y-135328597D01*
X205085965Y-135522169D01*
X205085964Y-135522171D01*
X204986098Y-135736335D01*
X204986094Y-135736344D01*
X204924938Y-135964586D01*
X204924936Y-135964596D01*
X204904341Y-136199999D01*
X204904341Y-136200000D01*
X204924936Y-136435403D01*
X204924938Y-136435413D01*
X204986094Y-136663655D01*
X204986096Y-136663659D01*
X204986097Y-136663663D01*
X205050319Y-136801387D01*
X205085965Y-136877830D01*
X205085967Y-136877834D01*
X205167658Y-136994500D01*
X205213142Y-137059458D01*
X205221501Y-137071395D01*
X205221506Y-137071402D01*
X205388597Y-137238493D01*
X205388603Y-137238498D01*
X205556623Y-137356147D01*
X205600248Y-137410724D01*
X205609500Y-137457722D01*
X205609500Y-137539070D01*
X205625800Y-137621012D01*
X205632124Y-137652804D01*
X205634499Y-137664745D01*
X205678452Y-137770858D01*
X205683535Y-137783128D01*
X205754723Y-137889670D01*
X205754726Y-137889674D01*
X205754727Y-137889675D01*
X206568181Y-138703128D01*
X206601666Y-138764451D01*
X206604500Y-138790809D01*
X206604500Y-143144071D01*
X206621493Y-143229497D01*
X206621493Y-143229498D01*
X206629497Y-143269737D01*
X206629500Y-143269746D01*
X206674287Y-143377873D01*
X206678535Y-143388127D01*
X206711513Y-143437483D01*
X206749726Y-143494673D01*
X206749727Y-143494674D01*
X210627329Y-147372275D01*
X210660814Y-147433598D01*
X210662587Y-147443772D01*
X210664954Y-147461753D01*
X210664956Y-147461760D01*
X210664956Y-147461762D01*
X210725464Y-147607841D01*
X210821718Y-147733282D01*
X210947159Y-147829536D01*
X211093238Y-147890044D01*
X211210639Y-147905500D01*
X211489360Y-147905499D01*
X211489363Y-147905499D01*
X211606753Y-147890046D01*
X211606757Y-147890044D01*
X211606762Y-147890044D01*
X211739797Y-147834938D01*
X211787250Y-147825500D01*
X221662750Y-147825500D01*
X221710202Y-147834938D01*
X221843238Y-147890044D01*
X221960639Y-147905500D01*
X222239360Y-147905499D01*
X222239363Y-147905499D01*
X222356753Y-147890046D01*
X222356757Y-147890044D01*
X222356762Y-147890044D01*
X222489797Y-147834938D01*
X222537250Y-147825500D01*
X232662750Y-147825500D01*
X232710202Y-147834938D01*
X232843238Y-147890044D01*
X232960639Y-147905500D01*
X233239360Y-147905499D01*
X233239363Y-147905499D01*
X233356753Y-147890046D01*
X233356757Y-147890044D01*
X233356762Y-147890044D01*
X233502841Y-147829536D01*
X233628282Y-147733282D01*
X233724536Y-147607841D01*
X233785044Y-147461762D01*
X233800500Y-147344361D01*
X233800499Y-147005640D01*
X233800499Y-147005636D01*
X233785046Y-146888246D01*
X233785044Y-146888241D01*
X233785044Y-146888238D01*
X233724536Y-146742159D01*
X233628282Y-146616718D01*
X233502841Y-146520464D01*
X233356762Y-146459956D01*
X233329999Y-146456432D01*
X233246489Y-146445438D01*
X233182593Y-146417171D01*
X233144122Y-146358847D01*
X233143291Y-146288982D01*
X233180363Y-146229759D01*
X233243569Y-146199980D01*
X233246481Y-146199561D01*
X233356762Y-146185044D01*
X233502841Y-146124536D01*
X233628282Y-146028282D01*
X233724536Y-145902841D01*
X233785044Y-145756762D01*
X233800500Y-145639361D01*
X233800500Y-145612250D01*
X233820185Y-145545211D01*
X233872989Y-145499456D01*
X233924500Y-145488250D01*
X235939071Y-145488250D01*
X236023615Y-145471432D01*
X236064744Y-145463251D01*
X236183127Y-145414215D01*
X236221939Y-145388282D01*
X236289669Y-145343027D01*
X237090876Y-144541818D01*
X237152199Y-144508334D01*
X237178557Y-144505500D01*
X241375990Y-144505500D01*
X241376000Y-144505500D01*
X241483456Y-144493947D01*
X241534967Y-144482741D01*
X241569197Y-144471347D01*
X241637497Y-144448616D01*
X241637501Y-144448613D01*
X241637504Y-144448613D01*
X241758543Y-144370825D01*
X241811347Y-144325070D01*
X241905567Y-144216336D01*
X241965338Y-144085459D01*
X241985023Y-144018420D01*
X241985024Y-144018416D01*
X242005500Y-143876000D01*
X242005500Y-141024499D01*
X242025185Y-140957460D01*
X242077989Y-140911705D01*
X242129500Y-140900499D01*
X242647871Y-140900499D01*
X242647872Y-140900499D01*
X242707483Y-140894091D01*
X242842331Y-140843796D01*
X242957546Y-140757546D01*
X243043796Y-140642331D01*
X243094091Y-140507483D01*
X243100500Y-140447873D01*
X243100499Y-139563848D01*
X243109938Y-139516396D01*
X243115731Y-139502411D01*
X243162051Y-139390585D01*
X243182330Y-139288636D01*
X243200500Y-139197293D01*
X243200500Y-137304434D01*
X243175862Y-137180575D01*
X243175862Y-137180574D01*
X243165637Y-137129171D01*
X243162051Y-137111142D01*
X243122218Y-137014977D01*
X243086632Y-136929064D01*
X243086631Y-136929062D01*
X243086630Y-136929060D01*
X242977139Y-136765196D01*
X242977136Y-136765192D01*
X242880082Y-136668138D01*
X242846597Y-136606815D01*
X242844543Y-136566573D01*
X242855565Y-136468752D01*
X242855565Y-136468746D01*
X242835369Y-136289500D01*
X242835368Y-136289495D01*
X242812790Y-136224970D01*
X242775789Y-136119228D01*
X242760462Y-136094836D01*
X242710284Y-136014977D01*
X242679816Y-135966488D01*
X242679815Y-135966487D01*
X242675475Y-135961045D01*
X242676647Y-135960109D01*
X242647024Y-135905858D01*
X242652008Y-135836166D01*
X242693880Y-135780233D01*
X242759344Y-135755816D01*
X242768190Y-135755500D01*
X242875990Y-135755500D01*
X242876000Y-135755500D01*
X242983456Y-135743947D01*
X243034967Y-135732741D01*
X243081717Y-135717181D01*
X243137497Y-135698616D01*
X243137501Y-135698613D01*
X243137504Y-135698613D01*
X243258543Y-135620825D01*
X243311347Y-135575070D01*
X243405567Y-135466336D01*
X243465338Y-135335459D01*
X243485023Y-135268420D01*
X243485024Y-135268416D01*
X243505500Y-135126000D01*
X243505500Y-128734038D01*
X243516704Y-128682530D01*
X243535024Y-128642416D01*
X243555500Y-128500000D01*
X243555500Y-127100000D01*
X243550355Y-127028060D01*
X243520421Y-126926115D01*
X243510523Y-126892404D01*
X243505500Y-126857469D01*
X243505500Y-121874010D01*
X243505500Y-121874000D01*
X243493947Y-121766544D01*
X243482741Y-121715033D01*
X243482637Y-121714722D01*
X243448616Y-121612502D01*
X243448613Y-121612496D01*
X243386951Y-121516549D01*
X243370825Y-121491457D01*
X243360247Y-121479249D01*
X243325076Y-121438659D01*
X243325072Y-121438656D01*
X243325070Y-121438653D01*
X243216336Y-121344433D01*
X243216333Y-121344431D01*
X243216331Y-121344430D01*
X243085465Y-121284664D01*
X243085460Y-121284662D01*
X243085459Y-121284662D01*
X243018420Y-121264977D01*
X243018422Y-121264977D01*
X243018417Y-121264976D01*
X242970944Y-121258150D01*
X242876000Y-121244500D01*
X242875998Y-121244500D01*
X242770066Y-121244500D01*
X242703027Y-121224815D01*
X242657272Y-121172011D01*
X242647328Y-121102853D01*
X242676353Y-121039297D01*
X242695754Y-121021234D01*
X242750204Y-120980472D01*
X242807546Y-120937546D01*
X242893796Y-120822331D01*
X242944091Y-120687483D01*
X242950500Y-120627873D01*
X242950499Y-119795098D01*
X242959938Y-119747646D01*
X242960890Y-119745348D01*
X243012051Y-119621835D01*
X243040534Y-119478642D01*
X243050500Y-119428543D01*
X243050500Y-116751456D01*
X243025054Y-116623535D01*
X243012051Y-116558164D01*
X243006527Y-116544829D01*
X242989189Y-116502970D01*
X242936633Y-116376088D01*
X242936628Y-116376079D01*
X242827138Y-116212216D01*
X242823814Y-116208166D01*
X242796500Y-116143857D01*
X242808290Y-116074989D01*
X242855442Y-116023428D01*
X242919666Y-116005500D01*
X243125990Y-116005500D01*
X243126000Y-116005500D01*
X243233456Y-115993947D01*
X243284967Y-115982741D01*
X243319197Y-115971347D01*
X243387497Y-115948616D01*
X243387501Y-115948613D01*
X243387504Y-115948613D01*
X243508543Y-115870825D01*
X243561347Y-115825070D01*
X243655567Y-115716336D01*
X243715338Y-115585459D01*
X243735023Y-115518420D01*
X243735024Y-115518416D01*
X243755500Y-115376000D01*
X243755500Y-107629500D01*
X243775185Y-107562461D01*
X243827989Y-107516706D01*
X243879500Y-107505500D01*
X246122073Y-107505500D01*
X246189112Y-107525185D01*
X246234867Y-107577989D01*
X246246072Y-107629188D01*
X246294186Y-126849151D01*
X246300540Y-126904841D01*
X246306895Y-126960533D01*
X246319075Y-127013815D01*
X246319078Y-127013825D01*
X246356009Y-127119630D01*
X246356009Y-127119631D01*
X246436023Y-127239210D01*
X246482745Y-127291157D01*
X246482752Y-127291163D01*
X246593213Y-127383354D01*
X246657157Y-127411137D01*
X246725177Y-127440691D01*
X246792570Y-127459131D01*
X246935340Y-127476966D01*
X250131070Y-127417785D01*
X250198463Y-127436225D01*
X250245187Y-127488173D01*
X250256410Y-127557135D01*
X250228566Y-127621218D01*
X250221047Y-127629445D01*
X250153837Y-127696654D01*
X250018297Y-127890226D01*
X250018296Y-127890228D01*
X249918430Y-128104392D01*
X249918426Y-128104401D01*
X249857270Y-128332643D01*
X249857268Y-128332653D01*
X249836673Y-128568056D01*
X249836673Y-128568057D01*
X249857268Y-128803460D01*
X249857270Y-128803470D01*
X249918426Y-129031712D01*
X249918428Y-129031716D01*
X249918429Y-129031720D01*
X249964004Y-129129455D01*
X250018297Y-129245887D01*
X250018299Y-129245891D01*
X250116185Y-129385685D01*
X250128907Y-129403855D01*
X250153833Y-129439452D01*
X250153838Y-129439459D01*
X250320929Y-129606550D01*
X250320935Y-129606555D01*
X250506490Y-129736482D01*
X250550115Y-129791059D01*
X250557309Y-129860557D01*
X250525786Y-129922912D01*
X250506490Y-129939632D01*
X250320929Y-130069562D01*
X250153837Y-130236654D01*
X250018297Y-130430226D01*
X250018296Y-130430228D01*
X249918430Y-130644392D01*
X249918426Y-130644401D01*
X249857270Y-130872643D01*
X249857268Y-130872653D01*
X249836673Y-131108056D01*
X249836673Y-131108057D01*
X249857268Y-131343460D01*
X249857270Y-131343470D01*
X249918426Y-131571712D01*
X249918428Y-131571716D01*
X249918429Y-131571720D01*
X250013035Y-131774603D01*
X250018297Y-131785887D01*
X250018299Y-131785891D01*
X250053773Y-131836552D01*
X250153833Y-131979453D01*
X250153838Y-131979459D01*
X250320929Y-132146550D01*
X250320935Y-132146555D01*
X250506490Y-132276482D01*
X250550115Y-132331059D01*
X250557309Y-132400557D01*
X250525786Y-132462912D01*
X250506490Y-132479632D01*
X250320929Y-132609562D01*
X250153837Y-132776654D01*
X250018297Y-132970226D01*
X250018296Y-132970228D01*
X249918430Y-133184392D01*
X249918426Y-133184401D01*
X249857270Y-133412643D01*
X249857268Y-133412653D01*
X249836673Y-133648056D01*
X249836673Y-133648057D01*
X249857268Y-133883460D01*
X249857270Y-133883470D01*
X249918426Y-134111712D01*
X249918428Y-134111716D01*
X249918429Y-134111720D01*
X249964005Y-134209458D01*
X250018297Y-134325887D01*
X250018299Y-134325891D01*
X250153833Y-134519452D01*
X250153838Y-134519459D01*
X250320929Y-134686550D01*
X250320935Y-134686555D01*
X250506490Y-134816482D01*
X250550115Y-134871059D01*
X250557309Y-134940557D01*
X250525786Y-135002912D01*
X250506490Y-135019632D01*
X250320929Y-135149562D01*
X250153837Y-135316654D01*
X250018297Y-135510226D01*
X250018296Y-135510228D01*
X249918430Y-135724392D01*
X249918426Y-135724401D01*
X249857270Y-135952643D01*
X249857268Y-135952653D01*
X249839279Y-136158266D01*
X249836673Y-136188057D01*
X249838455Y-136208424D01*
X249857268Y-136423460D01*
X249857270Y-136423470D01*
X249918426Y-136651712D01*
X249918428Y-136651716D01*
X249918429Y-136651720D01*
X250004146Y-136835540D01*
X250018297Y-136865887D01*
X250018299Y-136865891D01*
X250116442Y-137006052D01*
X250137883Y-137036674D01*
X250153833Y-137059452D01*
X250153838Y-137059459D01*
X250320929Y-137226550D01*
X250320935Y-137226555D01*
X250488955Y-137344204D01*
X250532580Y-137398781D01*
X250541832Y-137445779D01*
X250541832Y-137527129D01*
X250562811Y-137632593D01*
X250562811Y-137632594D01*
X250566829Y-137652795D01*
X250566832Y-137652804D01*
X250615731Y-137770858D01*
X250615867Y-137771185D01*
X250687055Y-137877727D01*
X250687058Y-137877731D01*
X250687059Y-137877732D01*
X251500513Y-138691185D01*
X251533998Y-138752508D01*
X251536832Y-138778866D01*
X251536832Y-142826401D01*
X251554705Y-142916251D01*
X251561831Y-142952076D01*
X251610867Y-143070459D01*
X251682055Y-143177001D01*
X251682058Y-143177005D01*
X251682059Y-143177006D01*
X255877329Y-147372275D01*
X255910814Y-147433598D01*
X255912587Y-147443772D01*
X255914954Y-147461753D01*
X255914956Y-147461760D01*
X255914956Y-147461762D01*
X255975464Y-147607841D01*
X256071718Y-147733282D01*
X256197159Y-147829536D01*
X256343238Y-147890044D01*
X256460639Y-147905500D01*
X256739360Y-147905499D01*
X256739363Y-147905499D01*
X256856753Y-147890046D01*
X256856757Y-147890044D01*
X256856762Y-147890044D01*
X256989797Y-147834938D01*
X257037250Y-147825500D01*
X267162750Y-147825500D01*
X267210202Y-147834938D01*
X267343238Y-147890044D01*
X267460639Y-147905500D01*
X267739360Y-147905499D01*
X267739363Y-147905499D01*
X267856753Y-147890046D01*
X267856757Y-147890044D01*
X267856762Y-147890044D01*
X267989797Y-147834938D01*
X268037250Y-147825500D01*
X277912750Y-147825500D01*
X277960202Y-147834938D01*
X278093238Y-147890044D01*
X278210639Y-147905500D01*
X278489360Y-147905499D01*
X278489363Y-147905499D01*
X278606753Y-147890046D01*
X278606757Y-147890044D01*
X278606762Y-147890044D01*
X278752841Y-147829536D01*
X278878282Y-147733282D01*
X278974536Y-147607841D01*
X279035044Y-147461762D01*
X279050500Y-147344361D01*
X279050499Y-147005640D01*
X279050499Y-147005636D01*
X279035046Y-146888246D01*
X279035044Y-146888241D01*
X279035044Y-146888238D01*
X278974536Y-146742159D01*
X278878282Y-146616718D01*
X278752841Y-146520464D01*
X278606762Y-146459956D01*
X278579999Y-146456432D01*
X278496489Y-146445438D01*
X278432593Y-146417171D01*
X278394122Y-146358847D01*
X278393291Y-146288982D01*
X278430363Y-146229759D01*
X278493569Y-146199980D01*
X278496481Y-146199561D01*
X278606762Y-146185044D01*
X278752841Y-146124536D01*
X278878282Y-146028282D01*
X278974536Y-145902841D01*
X279035044Y-145756762D01*
X279050500Y-145639361D01*
X279050500Y-145604500D01*
X279070185Y-145537461D01*
X279122989Y-145491706D01*
X279174500Y-145480500D01*
X281484071Y-145480500D01*
X281570788Y-145463250D01*
X281609744Y-145455501D01*
X281728127Y-145406465D01*
X281755340Y-145388282D01*
X281834669Y-145335277D01*
X282555277Y-144614669D01*
X282626466Y-144508126D01*
X282655189Y-144438779D01*
X282675501Y-144389744D01*
X282682350Y-144355308D01*
X282714735Y-144293398D01*
X282775451Y-144258824D01*
X282803968Y-144255500D01*
X286125990Y-144255500D01*
X286126000Y-144255500D01*
X286233456Y-144243947D01*
X286284967Y-144232741D01*
X286334271Y-144216331D01*
X286387497Y-144198616D01*
X286387501Y-144198613D01*
X286387504Y-144198613D01*
X286508543Y-144120825D01*
X286561347Y-144075070D01*
X286655567Y-143966336D01*
X286715338Y-143835459D01*
X286735023Y-143768420D01*
X286735024Y-143768416D01*
X286755500Y-143626000D01*
X286755500Y-140922556D01*
X286775185Y-140855517D01*
X286827989Y-140809762D01*
X286879500Y-140798556D01*
X287380203Y-140798556D01*
X287380204Y-140798556D01*
X287439815Y-140792148D01*
X287574663Y-140741853D01*
X287689878Y-140655603D01*
X287776128Y-140540388D01*
X287826423Y-140405540D01*
X287832832Y-140345930D01*
X287832831Y-139512410D01*
X287852515Y-139445372D01*
X287853663Y-139443619D01*
X287868964Y-139420721D01*
X287944383Y-139238642D01*
X287972886Y-139095350D01*
X287982832Y-139045350D01*
X287982832Y-136583791D01*
X287982831Y-136583787D01*
X287979840Y-136568751D01*
X287977406Y-136556511D01*
X287944383Y-136390496D01*
X287901125Y-136286062D01*
X287901125Y-136286061D01*
X287868967Y-136208424D01*
X287868960Y-136208411D01*
X287759472Y-136044551D01*
X287723184Y-136008263D01*
X287668484Y-135953563D01*
X287635001Y-135892243D01*
X287639985Y-135822551D01*
X287681856Y-135766617D01*
X287730499Y-135745978D01*
X287730211Y-135744653D01*
X287733800Y-135743872D01*
X287784967Y-135732741D01*
X287831717Y-135717181D01*
X287887497Y-135698616D01*
X287887501Y-135698613D01*
X287887504Y-135698613D01*
X288008543Y-135620825D01*
X288061347Y-135575070D01*
X288155567Y-135466336D01*
X288215338Y-135335459D01*
X288235023Y-135268420D01*
X288235024Y-135268416D01*
X288255500Y-135126000D01*
X288255500Y-128593408D01*
X288265146Y-128549068D01*
X288264857Y-128548984D01*
X288266045Y-128544936D01*
X288266708Y-128541891D01*
X288267356Y-128540473D01*
X288287832Y-128398057D01*
X288287832Y-126998057D01*
X288282687Y-126926117D01*
X288260523Y-126850633D01*
X288255500Y-126815698D01*
X288255500Y-121874010D01*
X288255500Y-121874000D01*
X288243947Y-121766544D01*
X288232741Y-121715033D01*
X288232637Y-121714722D01*
X288198616Y-121612502D01*
X288198613Y-121612496D01*
X288136951Y-121516549D01*
X288120825Y-121491457D01*
X288110247Y-121479249D01*
X288075076Y-121438659D01*
X288075072Y-121438656D01*
X288075070Y-121438653D01*
X287966336Y-121344433D01*
X287966333Y-121344431D01*
X287966331Y-121344430D01*
X287835465Y-121284664D01*
X287835460Y-121284662D01*
X287835459Y-121284662D01*
X287768420Y-121264977D01*
X287768422Y-121264977D01*
X287768417Y-121264976D01*
X287720944Y-121258150D01*
X287626000Y-121244500D01*
X287625998Y-121244500D01*
X287536163Y-121244500D01*
X287469124Y-121224815D01*
X287423369Y-121172011D01*
X287413425Y-121102853D01*
X287442450Y-121039297D01*
X287492830Y-121004318D01*
X287574660Y-120973797D01*
X287574659Y-120973797D01*
X287574663Y-120973796D01*
X287689878Y-120887546D01*
X287776128Y-120772331D01*
X287826423Y-120637483D01*
X287832832Y-120577873D01*
X287832831Y-120011904D01*
X287842270Y-119964452D01*
X287852961Y-119938642D01*
X287894383Y-119838642D01*
X287908358Y-119768384D01*
X287932832Y-119645350D01*
X287932832Y-116968263D01*
X287906831Y-116837552D01*
X287894383Y-116774971D01*
X287874477Y-116726914D01*
X287866721Y-116708189D01*
X287866709Y-116708162D01*
X287818967Y-116592899D01*
X287818965Y-116592895D01*
X287818964Y-116592893D01*
X287786855Y-116544838D01*
X287709471Y-116429024D01*
X287567018Y-116286571D01*
X287566987Y-116286542D01*
X287563811Y-116283366D01*
X287563791Y-116283344D01*
X287493928Y-116213481D01*
X287460443Y-116152158D01*
X287465427Y-116082466D01*
X287507299Y-116026533D01*
X287572763Y-116002116D01*
X287582276Y-116001802D01*
X288069822Y-116004507D01*
X288122493Y-116004800D01*
X288122493Y-116004799D01*
X288122508Y-116004800D01*
X288231396Y-115993551D01*
X288283595Y-115982347D01*
X288387504Y-115947923D01*
X288508543Y-115870135D01*
X288561347Y-115824380D01*
X288655567Y-115715646D01*
X288715338Y-115584769D01*
X288735023Y-115517730D01*
X288735024Y-115517726D01*
X288755500Y-115375310D01*
X288755500Y-107629500D01*
X288775185Y-107562461D01*
X288827989Y-107516706D01*
X288879500Y-107505500D01*
X290870500Y-107505500D01*
X290937539Y-107525185D01*
X290983294Y-107577989D01*
X290994500Y-107629500D01*
X290994500Y-127020893D01*
X291000080Y-127068294D01*
X291008319Y-127138284D01*
X291008320Y-127138287D01*
X291021694Y-127194301D01*
X291021696Y-127194309D01*
X291062396Y-127305272D01*
X291062400Y-127305280D01*
X291145006Y-127423084D01*
X291192853Y-127473999D01*
X291305300Y-127563756D01*
X291438482Y-127618200D01*
X291438483Y-127618200D01*
X291438485Y-127618201D01*
X291472371Y-127626682D01*
X291506261Y-127635165D01*
X291506263Y-127635165D01*
X291506281Y-127635166D01*
X291510785Y-127635722D01*
X291512584Y-127635814D01*
X291649388Y-127649881D01*
X294377575Y-127539759D01*
X294445351Y-127556724D01*
X294493198Y-127607639D01*
X294505923Y-127676340D01*
X294494955Y-127716062D01*
X294458431Y-127794387D01*
X294458426Y-127794401D01*
X294397270Y-128022643D01*
X294397268Y-128022653D01*
X294376673Y-128258056D01*
X294376673Y-128258057D01*
X294397268Y-128493460D01*
X294397270Y-128493470D01*
X294458426Y-128721712D01*
X294458428Y-128721716D01*
X294458429Y-128721720D01*
X294496550Y-128803470D01*
X294558297Y-128935887D01*
X294558299Y-128935891D01*
X294693833Y-129129452D01*
X294693838Y-129129459D01*
X294860929Y-129296550D01*
X294860935Y-129296555D01*
X295046490Y-129426482D01*
X295090115Y-129481059D01*
X295097309Y-129550557D01*
X295065786Y-129612912D01*
X295046490Y-129629632D01*
X294860929Y-129759562D01*
X294693837Y-129926654D01*
X294558297Y-130120226D01*
X294558296Y-130120228D01*
X294458430Y-130334392D01*
X294458426Y-130334401D01*
X294397270Y-130562643D01*
X294397268Y-130562653D01*
X294376673Y-130798056D01*
X294376673Y-130798057D01*
X294397268Y-131033460D01*
X294397270Y-131033470D01*
X294458426Y-131261712D01*
X294458428Y-131261716D01*
X294458429Y-131261720D01*
X294502117Y-131355408D01*
X294558297Y-131475887D01*
X294558299Y-131475891D01*
X294666613Y-131630578D01*
X294693833Y-131669453D01*
X294693838Y-131669459D01*
X294860929Y-131836550D01*
X294860935Y-131836555D01*
X295046490Y-131966482D01*
X295090115Y-132021059D01*
X295097309Y-132090557D01*
X295065786Y-132152912D01*
X295046490Y-132169632D01*
X294860929Y-132299562D01*
X294693837Y-132466654D01*
X294558297Y-132660226D01*
X294558296Y-132660228D01*
X294458430Y-132874392D01*
X294458426Y-132874401D01*
X294397270Y-133102643D01*
X294397268Y-133102653D01*
X294376673Y-133338056D01*
X294376673Y-133338057D01*
X294397268Y-133573460D01*
X294397270Y-133573470D01*
X294458426Y-133801712D01*
X294458428Y-133801716D01*
X294458429Y-133801720D01*
X294502117Y-133895408D01*
X294558297Y-134015887D01*
X294558299Y-134015891D01*
X294693833Y-134209452D01*
X294693838Y-134209459D01*
X294860929Y-134376550D01*
X294860935Y-134376555D01*
X295046490Y-134506482D01*
X295090115Y-134561059D01*
X295097309Y-134630557D01*
X295065786Y-134692912D01*
X295046490Y-134709632D01*
X294860929Y-134839562D01*
X294693837Y-135006654D01*
X294558297Y-135200226D01*
X294558296Y-135200228D01*
X294458430Y-135414392D01*
X294458426Y-135414401D01*
X294397270Y-135642643D01*
X294397268Y-135642653D01*
X294376673Y-135878056D01*
X294376673Y-135878057D01*
X294397268Y-136113460D01*
X294397270Y-136113470D01*
X294458426Y-136341712D01*
X294458428Y-136341716D01*
X294458429Y-136341720D01*
X294540285Y-136517260D01*
X294558297Y-136555887D01*
X294558299Y-136555891D01*
X294633763Y-136663664D01*
X294690365Y-136744500D01*
X294693833Y-136749452D01*
X294693838Y-136749459D01*
X294860929Y-136916550D01*
X294860935Y-136916555D01*
X295028955Y-137034204D01*
X295072580Y-137088781D01*
X295081832Y-137135779D01*
X295081832Y-137217129D01*
X295106533Y-137341303D01*
X295106535Y-137341328D01*
X295106538Y-137341328D01*
X295106829Y-137342796D01*
X295106832Y-137342805D01*
X295155864Y-137461181D01*
X295169497Y-137481584D01*
X295227054Y-137567726D01*
X295227058Y-137567731D01*
X295227059Y-137567732D01*
X296040513Y-138381185D01*
X296073998Y-138442508D01*
X296076832Y-138468866D01*
X296076832Y-142866401D01*
X296076832Y-142866403D01*
X296076831Y-142866403D01*
X296086748Y-142916253D01*
X296097323Y-142969414D01*
X296101831Y-142992076D01*
X296150867Y-143110459D01*
X296195331Y-143177005D01*
X296222058Y-143217005D01*
X296222059Y-143217006D01*
X300377329Y-147372275D01*
X300410814Y-147433598D01*
X300412587Y-147443772D01*
X300414954Y-147461753D01*
X300414956Y-147461760D01*
X300414956Y-147461762D01*
X300475464Y-147607841D01*
X300571718Y-147733282D01*
X300697159Y-147829536D01*
X300843238Y-147890044D01*
X300960639Y-147905500D01*
X301239360Y-147905499D01*
X301239363Y-147905499D01*
X301356753Y-147890046D01*
X301356757Y-147890044D01*
X301356762Y-147890044D01*
X301489797Y-147834938D01*
X301537250Y-147825500D01*
X311662750Y-147825500D01*
X311710202Y-147834938D01*
X311843238Y-147890044D01*
X311960639Y-147905500D01*
X312239360Y-147905499D01*
X312239363Y-147905499D01*
X312356753Y-147890046D01*
X312356757Y-147890044D01*
X312356762Y-147890044D01*
X312489797Y-147834938D01*
X312537250Y-147825500D01*
X322412750Y-147825500D01*
X322460202Y-147834938D01*
X322593238Y-147890044D01*
X322710639Y-147905500D01*
X322989360Y-147905499D01*
X322989363Y-147905499D01*
X323106753Y-147890046D01*
X323106757Y-147890044D01*
X323106762Y-147890044D01*
X323252841Y-147829536D01*
X323378282Y-147733282D01*
X323474536Y-147607841D01*
X323535044Y-147461762D01*
X323550500Y-147344361D01*
X323550499Y-147005640D01*
X323550499Y-147005636D01*
X323535046Y-146888246D01*
X323535044Y-146888241D01*
X323535044Y-146888238D01*
X323474536Y-146742159D01*
X323378282Y-146616718D01*
X323252841Y-146520464D01*
X323106762Y-146459956D01*
X323079999Y-146456432D01*
X322996489Y-146445438D01*
X322932593Y-146417171D01*
X322894122Y-146358847D01*
X322893291Y-146288982D01*
X322930363Y-146229759D01*
X322993569Y-146199980D01*
X322996481Y-146199561D01*
X323106762Y-146185044D01*
X323252841Y-146124536D01*
X323378282Y-146028282D01*
X323474536Y-145902841D01*
X323535044Y-145756762D01*
X323550500Y-145639361D01*
X323550500Y-145604500D01*
X323570185Y-145537461D01*
X323622989Y-145491706D01*
X323674500Y-145480500D01*
X325984071Y-145480500D01*
X326070788Y-145463250D01*
X326109744Y-145455501D01*
X326228127Y-145406465D01*
X326255340Y-145388282D01*
X326334669Y-145335277D01*
X327055277Y-144614669D01*
X327126466Y-144508126D01*
X327155189Y-144438779D01*
X327175501Y-144389744D01*
X327182351Y-144355310D01*
X327200500Y-144264071D01*
X327200500Y-144133399D01*
X327220185Y-144066360D01*
X327272989Y-144020605D01*
X327324500Y-144009399D01*
X329353771Y-144009399D01*
X329353772Y-144009399D01*
X329383439Y-144006209D01*
X329396691Y-144005500D01*
X330375990Y-144005500D01*
X330376000Y-144005500D01*
X330483456Y-143993947D01*
X330534967Y-143982741D01*
X330569197Y-143971347D01*
X330637497Y-143948616D01*
X330637501Y-143948613D01*
X330637504Y-143948613D01*
X330758543Y-143870825D01*
X330811347Y-143825070D01*
X330905567Y-143716336D01*
X330965338Y-143585459D01*
X330985023Y-143518420D01*
X330985024Y-143518416D01*
X331005500Y-143376000D01*
X331005500Y-140712556D01*
X331025185Y-140645517D01*
X331077989Y-140599762D01*
X331129500Y-140588556D01*
X331770203Y-140588556D01*
X331770204Y-140588556D01*
X331829815Y-140582148D01*
X331964663Y-140531853D01*
X332079878Y-140445603D01*
X332166128Y-140330388D01*
X332216423Y-140195540D01*
X332222832Y-140135930D01*
X332222831Y-139502410D01*
X332242515Y-139435372D01*
X332243663Y-139433619D01*
X332258964Y-139410721D01*
X332334383Y-139228642D01*
X332369494Y-139052129D01*
X332372832Y-139035350D01*
X332372832Y-136358263D01*
X332346318Y-136224971D01*
X332338975Y-136188057D01*
X332334383Y-136164971D01*
X332303128Y-136089516D01*
X332293589Y-136066487D01*
X332258967Y-135982900D01*
X332258966Y-135982899D01*
X332258964Y-135982893D01*
X332258960Y-135982887D01*
X332149471Y-135819024D01*
X332010512Y-135680065D01*
X331977027Y-135618742D01*
X331982011Y-135549050D01*
X332023883Y-135493117D01*
X332059028Y-135474732D01*
X332137504Y-135448613D01*
X332258543Y-135370825D01*
X332311347Y-135325070D01*
X332405567Y-135216336D01*
X332465338Y-135085459D01*
X332485023Y-135018420D01*
X332485024Y-135018416D01*
X332505500Y-134876000D01*
X332505500Y-128613872D01*
X332525185Y-128546833D01*
X332535788Y-128532668D01*
X332597586Y-128461351D01*
X332638874Y-128370941D01*
X332657355Y-128330476D01*
X332657356Y-128330471D01*
X332677832Y-128188057D01*
X332677832Y-126788057D01*
X332672687Y-126716117D01*
X332632151Y-126578065D01*
X332554363Y-126457025D01*
X332548294Y-126451766D01*
X332510522Y-126392988D01*
X332505500Y-126358056D01*
X332505500Y-121624010D01*
X332505500Y-121624000D01*
X332493947Y-121516544D01*
X332482741Y-121465033D01*
X332470833Y-121429255D01*
X332448616Y-121362502D01*
X332448613Y-121362496D01*
X332398593Y-121284664D01*
X332370825Y-121241457D01*
X332356405Y-121224815D01*
X332325076Y-121188659D01*
X332325072Y-121188656D01*
X332325070Y-121188653D01*
X332216336Y-121094433D01*
X332216333Y-121094431D01*
X332216331Y-121094430D01*
X332085460Y-121034662D01*
X332016698Y-121014470D01*
X331957921Y-120976694D01*
X331928898Y-120913138D01*
X331938843Y-120843980D01*
X331977324Y-120796229D01*
X332004878Y-120775603D01*
X332091128Y-120660388D01*
X332141423Y-120525540D01*
X332147832Y-120465930D01*
X332147831Y-119712261D01*
X332157270Y-119664809D01*
X332158962Y-119660723D01*
X332158964Y-119660721D01*
X332234383Y-119478642D01*
X332252053Y-119389810D01*
X332272832Y-119285350D01*
X332272832Y-116608265D01*
X332272831Y-116608262D01*
X332246826Y-116477523D01*
X332234385Y-116414977D01*
X332234383Y-116414972D01*
X332234242Y-116414632D01*
X332197034Y-116324804D01*
X332195271Y-116320548D01*
X332158967Y-116232900D01*
X332158966Y-116232899D01*
X332158964Y-116232893D01*
X332145993Y-116213481D01*
X332049471Y-116069024D01*
X331947628Y-115967181D01*
X331914143Y-115905858D01*
X331919127Y-115836166D01*
X331960999Y-115780233D01*
X332026463Y-115755816D01*
X332035309Y-115755500D01*
X332125990Y-115755500D01*
X332126000Y-115755500D01*
X332233456Y-115743947D01*
X332284967Y-115732741D01*
X332336344Y-115715641D01*
X332387497Y-115698616D01*
X332387501Y-115698613D01*
X332387504Y-115698613D01*
X332508543Y-115620825D01*
X332561347Y-115575070D01*
X332655567Y-115466336D01*
X332715338Y-115335459D01*
X332735023Y-115268420D01*
X332735024Y-115268416D01*
X332755500Y-115126000D01*
X332755500Y-107879500D01*
X332775185Y-107812461D01*
X332827989Y-107766706D01*
X332879500Y-107755500D01*
X333802186Y-107755500D01*
X333802187Y-107755500D01*
X333921210Y-107738938D01*
X333925898Y-107738597D01*
X333931081Y-107737809D01*
X333931085Y-107737809D01*
X333931088Y-107737807D01*
X333938021Y-107736754D01*
X333940177Y-107736301D01*
X333940178Y-107736300D01*
X333940183Y-107736300D01*
X333972543Y-107727117D01*
X333983323Y-107727215D01*
X334020690Y-107714832D01*
X334020691Y-107714833D01*
X334121782Y-107681333D01*
X334148205Y-107675680D01*
X334149274Y-107675571D01*
X334150504Y-107675446D01*
X334163077Y-107674807D01*
X334848961Y-107674807D01*
X334861529Y-107675446D01*
X334861890Y-107675482D01*
X334863820Y-107675679D01*
X334890249Y-107681333D01*
X334991346Y-107714834D01*
X334994448Y-107715862D01*
X334999666Y-107717721D01*
X335010800Y-107721974D01*
X335010805Y-107721974D01*
X335010806Y-107721975D01*
X335016783Y-107723550D01*
X335018411Y-107723254D01*
X335023898Y-107723959D01*
X335025224Y-107724159D01*
X335025693Y-107724230D01*
X335041008Y-107727547D01*
X335071853Y-107736300D01*
X335183242Y-107751798D01*
X335209846Y-107755500D01*
X335209847Y-107755500D01*
X335870500Y-107755500D01*
X335937539Y-107775185D01*
X335983294Y-107827989D01*
X335994500Y-107879500D01*
X335994500Y-111317004D01*
X335977887Y-111379004D01*
X335882676Y-111543911D01*
X335882668Y-111543927D01*
X335794859Y-111755919D01*
X335735470Y-111977565D01*
X335735467Y-111977578D01*
X335705518Y-112205072D01*
X335705518Y-112434541D01*
X335735467Y-112662035D01*
X335735468Y-112662040D01*
X335735469Y-112662046D01*
X335775570Y-112811706D01*
X335794859Y-112883694D01*
X335882668Y-113095686D01*
X335882673Y-113095695D01*
X335977887Y-113260610D01*
X335994500Y-113322608D01*
X335994500Y-125319232D01*
X335990275Y-125351324D01*
X335975153Y-125407762D01*
X335975152Y-125407770D01*
X335945201Y-125635258D01*
X335945201Y-125864741D01*
X335975153Y-126092237D01*
X335990275Y-126148674D01*
X335994500Y-126180767D01*
X335994500Y-127377927D01*
X336005228Y-127481513D01*
X336015641Y-127531248D01*
X336015644Y-127531260D01*
X336043605Y-127618676D01*
X336049500Y-127656453D01*
X336049500Y-136714727D01*
X336049501Y-136714743D01*
X336057557Y-136775930D01*
X336074067Y-136901337D01*
X336079452Y-136942239D01*
X336093455Y-136994500D01*
X336128153Y-137123999D01*
X336138839Y-137163880D01*
X336138840Y-137163883D01*
X336226653Y-137375881D01*
X336226657Y-137375890D01*
X336248968Y-137414534D01*
X336331637Y-137557721D01*
X336348250Y-137619720D01*
X336348250Y-142244741D01*
X336371546Y-142421681D01*
X336378201Y-142472234D01*
X336378202Y-142472236D01*
X336378204Y-142472247D01*
X336394025Y-142531292D01*
X336398250Y-142563385D01*
X336398250Y-143377870D01*
X336398251Y-143377876D01*
X336404658Y-143437483D01*
X336454952Y-143572328D01*
X336454956Y-143572335D01*
X336541202Y-143687544D01*
X336541205Y-143687547D01*
X336656414Y-143773793D01*
X336656421Y-143773797D01*
X336791267Y-143824091D01*
X336791266Y-143824091D01*
X336798194Y-143824835D01*
X336850877Y-143830500D01*
X337665363Y-143830499D01*
X337697456Y-143834724D01*
X337700222Y-143835465D01*
X337756512Y-143850548D01*
X337984016Y-143880500D01*
X337984023Y-143880500D01*
X338213477Y-143880500D01*
X338213484Y-143880500D01*
X338440988Y-143850548D01*
X338497278Y-143835465D01*
X338500044Y-143834724D01*
X338532137Y-143830499D01*
X339346621Y-143830499D01*
X339346622Y-143830499D01*
X339406233Y-143824091D01*
X339541081Y-143773796D01*
X339656296Y-143687546D01*
X339742546Y-143572331D01*
X339792841Y-143437483D01*
X339799250Y-143377873D01*
X339799249Y-142563384D01*
X339803474Y-142531291D01*
X339819298Y-142472238D01*
X339849250Y-142244734D01*
X339849250Y-141424192D01*
X339868935Y-141357153D01*
X339921739Y-141311398D01*
X339990897Y-141301454D01*
X340054453Y-141330479D01*
X340060931Y-141336511D01*
X340181081Y-141456661D01*
X340272284Y-141547864D01*
X340343338Y-141618918D01*
X340525387Y-141758611D01*
X340674541Y-141844724D01*
X340674542Y-141844725D01*
X340724100Y-141873338D01*
X340724120Y-141873348D01*
X340824896Y-141915090D01*
X340936113Y-141961158D01*
X341157761Y-142020548D01*
X341184223Y-142024031D01*
X341184227Y-142024033D01*
X341184228Y-142024032D01*
X341385266Y-142050500D01*
X341385273Y-142050500D01*
X343364727Y-142050500D01*
X343364734Y-142050500D01*
X343592238Y-142020548D01*
X343643421Y-142006833D01*
X343651294Y-142004724D01*
X343683387Y-142000499D01*
X344497871Y-142000499D01*
X344497872Y-142000499D01*
X344557483Y-141994091D01*
X344692331Y-141943796D01*
X344807546Y-141857546D01*
X344893796Y-141742331D01*
X344944091Y-141607483D01*
X344950500Y-141547873D01*
X344950499Y-140733384D01*
X344954724Y-140701291D01*
X344970548Y-140642238D01*
X345000500Y-140414734D01*
X345000500Y-140185266D01*
X344970548Y-139957762D01*
X344960969Y-139922011D01*
X344954724Y-139898704D01*
X344950499Y-139866612D01*
X344950499Y-139052129D01*
X344950498Y-139052123D01*
X344947973Y-139028636D01*
X344944091Y-138992517D01*
X344941417Y-138985348D01*
X344893797Y-138857671D01*
X344893793Y-138857664D01*
X344807547Y-138742455D01*
X344807544Y-138742452D01*
X344692335Y-138656206D01*
X344692328Y-138656202D01*
X344557482Y-138605908D01*
X344557483Y-138605908D01*
X344497883Y-138599501D01*
X344497881Y-138599500D01*
X344497873Y-138599500D01*
X344497865Y-138599500D01*
X343683385Y-138599500D01*
X343651292Y-138595275D01*
X343592247Y-138579454D01*
X343592242Y-138579453D01*
X343592238Y-138579452D01*
X343541681Y-138572796D01*
X343364741Y-138549500D01*
X343364734Y-138549500D01*
X342276442Y-138549500D01*
X342209403Y-138529815D01*
X342188761Y-138513181D01*
X339586819Y-135911238D01*
X339553334Y-135849915D01*
X339550500Y-135823557D01*
X339550500Y-128167670D01*
X339570185Y-128100631D01*
X339622989Y-128054876D01*
X339662686Y-128044235D01*
X339677659Y-128042803D01*
X339731107Y-128031612D01*
X339837504Y-127996660D01*
X339952968Y-127922455D01*
X339958537Y-127918876D01*
X339958537Y-127918875D01*
X339958543Y-127918872D01*
X340011347Y-127873117D01*
X340105567Y-127764383D01*
X340165338Y-127633506D01*
X340178241Y-127589562D01*
X340216017Y-127530786D01*
X340279573Y-127501762D01*
X340297218Y-127500500D01*
X341384767Y-127500500D01*
X341451806Y-127520185D01*
X341497561Y-127572989D01*
X341507706Y-127608314D01*
X341517416Y-127682065D01*
X341517416Y-127682066D01*
X341529451Y-127773485D01*
X341529453Y-127773496D01*
X341534831Y-127793563D01*
X341534832Y-127793567D01*
X341588842Y-127995137D01*
X341588845Y-127995147D01*
X341676652Y-128207132D01*
X341676657Y-128207142D01*
X341749119Y-128332649D01*
X341791389Y-128405863D01*
X341833967Y-128461351D01*
X341931078Y-128587910D01*
X341931084Y-128587917D01*
X343561930Y-130218762D01*
X343595415Y-130280085D01*
X343598249Y-130306443D01*
X343598249Y-130727870D01*
X343598250Y-130727876D01*
X343604657Y-130787483D01*
X343654951Y-130922328D01*
X343654955Y-130922335D01*
X343741201Y-131037544D01*
X343741204Y-131037547D01*
X343856413Y-131123793D01*
X343856420Y-131123797D01*
X343991266Y-131174091D01*
X343991265Y-131174091D01*
X343998193Y-131174835D01*
X344050876Y-131180500D01*
X344865358Y-131180499D01*
X344897451Y-131184724D01*
X344931515Y-131193851D01*
X344956510Y-131200549D01*
X345070263Y-131215524D01*
X345184015Y-131230500D01*
X345184016Y-131230500D01*
X345413484Y-131230500D01*
X345489318Y-131220516D01*
X345640988Y-131200549D01*
X345676111Y-131191137D01*
X345700047Y-131184724D01*
X345732140Y-131180499D01*
X346546620Y-131180499D01*
X346546621Y-131180499D01*
X346606232Y-131174091D01*
X346741080Y-131123796D01*
X346856295Y-131037546D01*
X346942545Y-130922331D01*
X346992840Y-130787483D01*
X346999249Y-130727873D01*
X346999248Y-129913386D01*
X347003474Y-129881291D01*
X347019298Y-129822239D01*
X347042016Y-129649667D01*
X347070282Y-129585774D01*
X347128606Y-129547302D01*
X347198471Y-129546470D01*
X347257695Y-129583542D01*
X347287474Y-129646748D01*
X347288955Y-129665723D01*
X347313963Y-153161698D01*
X347313845Y-153167238D01*
X347296322Y-153568650D01*
X347295379Y-153579427D01*
X347243282Y-153975157D01*
X347241404Y-153985810D01*
X347155012Y-154375508D01*
X347152212Y-154385957D01*
X347032187Y-154766634D01*
X347028487Y-154776799D01*
X346875741Y-155145563D01*
X346871169Y-155155368D01*
X346686864Y-155509416D01*
X346681456Y-155518784D01*
X346466987Y-155855434D01*
X346460782Y-155864295D01*
X346217795Y-156180963D01*
X346210841Y-156189250D01*
X345941181Y-156483532D01*
X345933532Y-156491181D01*
X345639250Y-156760841D01*
X345630963Y-156767795D01*
X345314295Y-157010782D01*
X345305434Y-157016987D01*
X344968784Y-157231456D01*
X344959416Y-157236864D01*
X344605368Y-157421169D01*
X344595563Y-157425741D01*
X344226799Y-157578487D01*
X344216634Y-157582187D01*
X343835957Y-157702212D01*
X343825508Y-157705012D01*
X343435810Y-157791404D01*
X343425157Y-157793282D01*
X343029427Y-157845379D01*
X343018650Y-157846322D01*
X342617210Y-157863846D01*
X342611756Y-157863964D01*
X207692878Y-157813986D01*
X207692603Y-157813965D01*
X207683127Y-157813965D01*
X207638228Y-157813965D01*
X207632820Y-157813847D01*
X207231349Y-157796322D01*
X207220573Y-157795379D01*
X207022707Y-157769330D01*
X206824842Y-157743282D01*
X206814189Y-157741404D01*
X206424491Y-157655012D01*
X206414042Y-157652212D01*
X206191947Y-157582187D01*
X206033363Y-157532186D01*
X206023200Y-157528487D01*
X205654436Y-157375741D01*
X205644631Y-157371169D01*
X205290583Y-157186864D01*
X205281215Y-157181456D01*
X204944565Y-156966987D01*
X204935704Y-156960782D01*
X204619036Y-156717795D01*
X204610749Y-156710841D01*
X204316467Y-156441181D01*
X204308818Y-156433532D01*
X204039158Y-156139250D01*
X204032204Y-156130963D01*
X203789217Y-155814295D01*
X203783012Y-155805434D01*
X203568543Y-155468784D01*
X203563135Y-155459416D01*
X203378830Y-155105368D01*
X203374258Y-155095563D01*
X203221506Y-154726784D01*
X203217817Y-154716649D01*
X203097782Y-154335939D01*
X203094991Y-154325525D01*
X203008592Y-153935793D01*
X203006720Y-153925174D01*
X202954618Y-153529405D01*
X202953678Y-153518672D01*
X202940673Y-153220752D01*
X206285034Y-153220752D01*
X206318287Y-153430705D01*
X206383978Y-153632880D01*
X206480485Y-153822286D01*
X206605424Y-153994252D01*
X206755747Y-154144575D01*
X206927713Y-154269514D01*
X206927715Y-154269515D01*
X206927718Y-154269517D01*
X207117122Y-154366023D01*
X207319291Y-154431712D01*
X207529247Y-154464966D01*
X207529248Y-154464966D01*
X207741820Y-154464966D01*
X207741821Y-154464966D01*
X207951777Y-154431712D01*
X208153946Y-154366023D01*
X208343350Y-154269517D01*
X208365890Y-154253141D01*
X208515320Y-154144575D01*
X208515322Y-154144572D01*
X208515326Y-154144570D01*
X208665638Y-153994258D01*
X208665640Y-153994254D01*
X208665643Y-153994252D01*
X208790582Y-153822286D01*
X208790581Y-153822286D01*
X208790585Y-153822282D01*
X208887091Y-153632878D01*
X208952780Y-153430709D01*
X208978115Y-153270752D01*
X341263966Y-153270752D01*
X341297219Y-153480705D01*
X341362910Y-153682880D01*
X341459417Y-153872286D01*
X341584356Y-154044252D01*
X341734679Y-154194575D01*
X341906645Y-154319514D01*
X341906647Y-154319515D01*
X341906650Y-154319517D01*
X342096054Y-154416023D01*
X342298223Y-154481712D01*
X342508179Y-154514966D01*
X342508180Y-154514966D01*
X342720752Y-154514966D01*
X342720753Y-154514966D01*
X342930709Y-154481712D01*
X343132878Y-154416023D01*
X343322282Y-154319517D01*
X343391106Y-154269514D01*
X343494252Y-154194575D01*
X343494254Y-154194572D01*
X343494258Y-154194570D01*
X343644570Y-154044258D01*
X343644572Y-154044254D01*
X343644575Y-154044252D01*
X343769514Y-153872286D01*
X343769513Y-153872286D01*
X343769517Y-153872282D01*
X343866023Y-153682878D01*
X343931712Y-153480709D01*
X343964966Y-153270753D01*
X343964966Y-153058179D01*
X343931712Y-152848223D01*
X343866023Y-152646054D01*
X343769517Y-152456650D01*
X343769515Y-152456647D01*
X343769514Y-152456645D01*
X343644575Y-152284679D01*
X343494252Y-152134356D01*
X343322286Y-152009417D01*
X343132880Y-151912910D01*
X343132879Y-151912909D01*
X343132878Y-151912909D01*
X342930709Y-151847220D01*
X342930707Y-151847219D01*
X342930706Y-151847219D01*
X342769423Y-151821674D01*
X342720753Y-151813966D01*
X342508179Y-151813966D01*
X342459508Y-151821674D01*
X342298226Y-151847219D01*
X342096051Y-151912910D01*
X341906645Y-152009417D01*
X341734679Y-152134356D01*
X341584356Y-152284679D01*
X341459417Y-152456645D01*
X341362910Y-152646051D01*
X341297219Y-152848226D01*
X341263966Y-153058179D01*
X341263966Y-153270752D01*
X208978115Y-153270752D01*
X208986034Y-153220753D01*
X208986034Y-153008179D01*
X208952780Y-152798223D01*
X208887091Y-152596054D01*
X208790585Y-152406650D01*
X208790583Y-152406647D01*
X208790582Y-152406645D01*
X208665643Y-152234679D01*
X208515320Y-152084356D01*
X208343354Y-151959417D01*
X208153948Y-151862910D01*
X208153947Y-151862909D01*
X208153946Y-151862909D01*
X207951777Y-151797220D01*
X207951775Y-151797219D01*
X207951774Y-151797219D01*
X207790491Y-151771674D01*
X207741821Y-151763966D01*
X207529247Y-151763966D01*
X207480576Y-151771674D01*
X207319294Y-151797219D01*
X207117119Y-151862910D01*
X206927713Y-151959417D01*
X206755747Y-152084356D01*
X206605424Y-152234679D01*
X206480485Y-152406645D01*
X206383978Y-152596051D01*
X206318287Y-152798226D01*
X206285034Y-153008179D01*
X206285034Y-153220752D01*
X202940673Y-153220752D01*
X202936151Y-153117170D01*
X202936034Y-153111762D01*
X202936035Y-153066873D01*
X202936034Y-153066869D01*
X202936034Y-153057501D01*
X202935990Y-153056946D01*
X202900580Y-106256287D01*
X206249500Y-106256287D01*
X206282754Y-106466243D01*
X206294298Y-106501773D01*
X206348444Y-106668414D01*
X206444951Y-106857820D01*
X206569890Y-107029786D01*
X206720213Y-107180109D01*
X206892179Y-107305048D01*
X206892181Y-107305049D01*
X206892184Y-107305051D01*
X207081588Y-107401557D01*
X207283757Y-107467246D01*
X207493713Y-107500500D01*
X207493714Y-107500500D01*
X207706286Y-107500500D01*
X207706287Y-107500500D01*
X207916243Y-107467246D01*
X208118412Y-107401557D01*
X208307816Y-107305051D01*
X208329789Y-107289086D01*
X208479786Y-107180109D01*
X208479788Y-107180106D01*
X208479792Y-107180104D01*
X208630104Y-107029792D01*
X208630106Y-107029788D01*
X208630109Y-107029786D01*
X208755048Y-106857820D01*
X208755047Y-106857820D01*
X208755051Y-106857816D01*
X208851557Y-106668412D01*
X208917246Y-106466243D01*
X208950500Y-106256287D01*
X208950500Y-106043713D01*
X208917246Y-105833757D01*
X208851557Y-105631588D01*
X208755051Y-105442184D01*
X208755049Y-105442181D01*
X208755048Y-105442179D01*
X208630109Y-105270213D01*
X208479786Y-105119890D01*
X208307820Y-104994951D01*
X208118414Y-104898444D01*
X208118413Y-104898443D01*
X208118412Y-104898443D01*
X207916243Y-104832754D01*
X207916241Y-104832753D01*
X207916240Y-104832753D01*
X207754957Y-104807208D01*
X207706287Y-104799500D01*
X207493713Y-104799500D01*
X207445042Y-104807208D01*
X207283760Y-104832753D01*
X207081585Y-104898444D01*
X206892179Y-104994951D01*
X206720213Y-105119890D01*
X206569890Y-105270213D01*
X206444951Y-105442179D01*
X206348444Y-105631585D01*
X206282753Y-105833760D01*
X206261760Y-105966305D01*
X206249500Y-106043713D01*
X206249500Y-106256287D01*
X202900580Y-106256287D01*
X202900502Y-106152745D01*
X202900620Y-106147246D01*
X202908520Y-105966305D01*
X202918147Y-105745795D01*
X202919087Y-105735064D01*
X202971189Y-105339302D01*
X202973063Y-105328672D01*
X203059463Y-104938950D01*
X203062261Y-104928512D01*
X203182291Y-104547823D01*
X203185979Y-104537691D01*
X203338742Y-104168888D01*
X203343300Y-104159114D01*
X203527617Y-103805045D01*
X203533012Y-103795700D01*
X203747495Y-103459029D01*
X203753685Y-103450189D01*
X203996687Y-103133503D01*
X204003625Y-103125234D01*
X204273304Y-102830932D01*
X204280932Y-102823304D01*
X204575234Y-102553625D01*
X204583503Y-102546687D01*
X204900189Y-102303685D01*
X204909029Y-102297495D01*
X205245700Y-102083012D01*
X205255045Y-102077617D01*
X205609114Y-101893300D01*
X205618888Y-101888742D01*
X205987691Y-101735979D01*
X205997823Y-101732291D01*
X206378521Y-101612258D01*
X206388950Y-101609463D01*
X206778672Y-101523063D01*
X206789302Y-101521189D01*
X207185064Y-101469087D01*
X207195796Y-101468147D01*
X207597303Y-101450617D01*
X207602680Y-101450500D01*
X210120535Y-101451163D01*
G37*
%TD.AperFunction*%
%TA.AperFunction,Conductor*%
G36*
X311620407Y-144025185D02*
G01*
X311666162Y-144077989D01*
X311676106Y-144147147D01*
X311647081Y-144210703D01*
X311628858Y-144227872D01*
X311581684Y-144264071D01*
X311571718Y-144271718D01*
X311475463Y-144397160D01*
X311414956Y-144543237D01*
X311414955Y-144543239D01*
X311405551Y-144614674D01*
X311399501Y-144660636D01*
X311399500Y-144660645D01*
X311399500Y-144695500D01*
X311379815Y-144762539D01*
X311327011Y-144808294D01*
X311275500Y-144819500D01*
X305399809Y-144819500D01*
X305332770Y-144799815D01*
X305287015Y-144747011D01*
X305277071Y-144677853D01*
X305306096Y-144614297D01*
X305312128Y-144607819D01*
X305405272Y-144514674D01*
X305405273Y-144514673D01*
X305405277Y-144514669D01*
X305476465Y-144408127D01*
X305525501Y-144289744D01*
X305528582Y-144274249D01*
X305531707Y-144258545D01*
X305531707Y-144258543D01*
X305550500Y-144164069D01*
X305550500Y-144133399D01*
X305570185Y-144066360D01*
X305622989Y-144020605D01*
X305674500Y-144009399D01*
X307703771Y-144009399D01*
X307703772Y-144009399D01*
X307733439Y-144006209D01*
X307746691Y-144005500D01*
X311553368Y-144005500D01*
X311620407Y-144025185D01*
G37*
%TD.AperFunction*%
%TA.AperFunction,Conductor*%
G36*
X210937539Y-130100185D02*
G01*
X210983294Y-130152989D01*
X210994500Y-130204500D01*
X210994500Y-135126000D01*
X210994501Y-135126009D01*
X211006052Y-135233450D01*
X211006054Y-135233462D01*
X211017260Y-135284972D01*
X211051383Y-135387497D01*
X211051386Y-135387503D01*
X211129171Y-135508537D01*
X211129179Y-135508548D01*
X211174923Y-135561340D01*
X211174926Y-135561343D01*
X211174930Y-135561347D01*
X211283664Y-135655567D01*
X211283667Y-135655568D01*
X211283668Y-135655569D01*
X211377925Y-135698616D01*
X211414541Y-135715338D01*
X211481580Y-135735023D01*
X211481584Y-135735024D01*
X211624000Y-135755500D01*
X218191299Y-135755500D01*
X218258338Y-135775185D01*
X218304093Y-135827989D01*
X218314037Y-135897147D01*
X218294401Y-135948391D01*
X218263371Y-135994829D01*
X218263364Y-135994842D01*
X218187950Y-136176910D01*
X218187947Y-136176920D01*
X218149500Y-136370206D01*
X218149500Y-136370209D01*
X218149500Y-136567291D01*
X218149500Y-136567293D01*
X218149499Y-136567293D01*
X218187947Y-136760579D01*
X218187948Y-136760580D01*
X218187949Y-136760585D01*
X218213822Y-136823048D01*
X218221290Y-136892518D01*
X218190014Y-136954997D01*
X218129925Y-136990649D01*
X218099260Y-136994500D01*
X211874000Y-136994500D01*
X211873991Y-136994500D01*
X211873990Y-136994501D01*
X211766549Y-137006052D01*
X211766537Y-137006054D01*
X211715027Y-137017260D01*
X211612502Y-137051383D01*
X211612496Y-137051386D01*
X211491462Y-137129171D01*
X211491451Y-137129179D01*
X211438659Y-137174923D01*
X211344433Y-137283664D01*
X211344430Y-137283668D01*
X211284664Y-137414534D01*
X211264976Y-137481582D01*
X211257706Y-137532148D01*
X211244500Y-137624000D01*
X211244500Y-143876000D01*
X211254303Y-143967178D01*
X211254778Y-143971596D01*
X211242372Y-144040355D01*
X211194761Y-144091492D01*
X211147673Y-144107789D01*
X211093245Y-144114954D01*
X211093237Y-144114956D01*
X210947160Y-144175463D01*
X210821718Y-144271718D01*
X210725463Y-144397160D01*
X210690015Y-144482741D01*
X210664957Y-144543237D01*
X210663057Y-144547823D01*
X210619216Y-144602226D01*
X210552922Y-144624291D01*
X210485223Y-144607012D01*
X210460815Y-144588051D01*
X208491819Y-142619055D01*
X208458334Y-142557732D01*
X208455500Y-142531374D01*
X208455500Y-138790809D01*
X208475185Y-138723770D01*
X208491819Y-138703128D01*
X209305271Y-137889676D01*
X209305273Y-137889674D01*
X209305276Y-137889671D01*
X209376465Y-137783128D01*
X209425501Y-137664745D01*
X209428372Y-137650307D01*
X209460757Y-137588398D01*
X209521472Y-137553823D01*
X209549990Y-137550499D01*
X209697871Y-137550499D01*
X209697872Y-137550499D01*
X209757483Y-137544091D01*
X209892331Y-137493796D01*
X210007546Y-137407546D01*
X210093796Y-137292331D01*
X210144091Y-137157483D01*
X210150500Y-137097873D01*
X210150499Y-135302128D01*
X210144091Y-135242517D01*
X210142810Y-135239083D01*
X210093797Y-135107671D01*
X210093793Y-135107664D01*
X210007547Y-134992455D01*
X210007544Y-134992452D01*
X209892335Y-134906206D01*
X209892328Y-134906202D01*
X209757482Y-134855908D01*
X209757483Y-134855908D01*
X209697883Y-134849501D01*
X209697881Y-134849500D01*
X209697873Y-134849500D01*
X209697864Y-134849500D01*
X207902129Y-134849500D01*
X207902123Y-134849501D01*
X207842516Y-134855908D01*
X207707671Y-134906202D01*
X207707664Y-134906206D01*
X207592455Y-134992452D01*
X207592452Y-134992455D01*
X207506206Y-135107664D01*
X207506203Y-135107669D01*
X207457189Y-135239083D01*
X207415317Y-135295016D01*
X207349853Y-135319433D01*
X207281580Y-135304581D01*
X207253326Y-135283430D01*
X207131402Y-135161506D01*
X207131396Y-135161501D01*
X206945842Y-135031575D01*
X206902217Y-134976998D01*
X206895023Y-134907500D01*
X206926546Y-134845145D01*
X206945842Y-134828425D01*
X207006829Y-134785721D01*
X207131401Y-134698495D01*
X207298495Y-134531401D01*
X207434035Y-134337830D01*
X207533903Y-134123663D01*
X207595063Y-133895408D01*
X207615659Y-133660000D01*
X207595063Y-133424592D01*
X207533903Y-133196337D01*
X207434035Y-132982171D01*
X207425673Y-132970228D01*
X207298494Y-132788597D01*
X207131402Y-132621506D01*
X207131396Y-132621501D01*
X206945842Y-132491575D01*
X206902217Y-132436998D01*
X206895023Y-132367500D01*
X206926546Y-132305145D01*
X206945842Y-132288425D01*
X206968026Y-132272891D01*
X207131401Y-132158495D01*
X207298495Y-131991401D01*
X207428425Y-131805842D01*
X207483002Y-131762217D01*
X207552500Y-131755023D01*
X207614855Y-131786546D01*
X207631575Y-131805842D01*
X207761500Y-131991395D01*
X207761505Y-131991401D01*
X207928599Y-132158495D01*
X208025384Y-132226265D01*
X208122165Y-132294032D01*
X208122167Y-132294033D01*
X208122170Y-132294035D01*
X208336337Y-132393903D01*
X208564592Y-132455063D01*
X208752918Y-132471539D01*
X208799999Y-132475659D01*
X208800000Y-132475659D01*
X208800001Y-132475659D01*
X208839234Y-132472226D01*
X209035408Y-132455063D01*
X209263663Y-132393903D01*
X209477830Y-132294035D01*
X209671401Y-132158495D01*
X209838495Y-131991401D01*
X209974035Y-131797830D01*
X210073903Y-131583663D01*
X210135063Y-131355408D01*
X210155659Y-131120000D01*
X210135063Y-130884592D01*
X210073903Y-130656337D01*
X209974035Y-130442171D01*
X209973573Y-130441511D01*
X209857418Y-130275623D01*
X209835091Y-130209417D01*
X209852101Y-130141650D01*
X209903049Y-130093837D01*
X209958993Y-130080500D01*
X210870500Y-130080500D01*
X210937539Y-130100185D01*
G37*
%TD.AperFunction*%
%TA.AperFunction,Conductor*%
G36*
X255687539Y-130088242D02*
G01*
X255733294Y-130141046D01*
X255744500Y-130192557D01*
X255744500Y-135126000D01*
X255744501Y-135126009D01*
X255756052Y-135233450D01*
X255756054Y-135233462D01*
X255767260Y-135284972D01*
X255801383Y-135387497D01*
X255801386Y-135387503D01*
X255879171Y-135508537D01*
X255879179Y-135508548D01*
X255924923Y-135561340D01*
X255924926Y-135561343D01*
X255924930Y-135561347D01*
X256033664Y-135655567D01*
X256033667Y-135655568D01*
X256033668Y-135655569D01*
X256127925Y-135698616D01*
X256164541Y-135715338D01*
X256231580Y-135735023D01*
X256231584Y-135735024D01*
X256374000Y-135755500D01*
X262767031Y-135755500D01*
X262834070Y-135775185D01*
X262879825Y-135827989D01*
X262889769Y-135897147D01*
X262881592Y-135926952D01*
X262820282Y-136074967D01*
X262820279Y-136074977D01*
X262781832Y-136268263D01*
X262781832Y-136465352D01*
X262807881Y-136596309D01*
X262801654Y-136665900D01*
X262758791Y-136721078D01*
X262692901Y-136744322D01*
X262686264Y-136744500D01*
X256624000Y-136744500D01*
X256623991Y-136744500D01*
X256623990Y-136744501D01*
X256516549Y-136756052D01*
X256516537Y-136756054D01*
X256465027Y-136767260D01*
X256362502Y-136801383D01*
X256362496Y-136801386D01*
X256241462Y-136879171D01*
X256241451Y-136879179D01*
X256188659Y-136924923D01*
X256094433Y-137033664D01*
X256094430Y-137033668D01*
X256034664Y-137164534D01*
X256014976Y-137231582D01*
X256006732Y-137288925D01*
X255994500Y-137374000D01*
X255994500Y-143626000D01*
X255994501Y-143626009D01*
X256006052Y-143733450D01*
X256006054Y-143733462D01*
X256017260Y-143784972D01*
X256051383Y-143887497D01*
X256051386Y-143887503D01*
X256129171Y-144008537D01*
X256129173Y-144008541D01*
X256157016Y-144040673D01*
X256186041Y-144104229D01*
X256176097Y-144173387D01*
X256138790Y-144220251D01*
X256071720Y-144271715D01*
X255975463Y-144397160D01*
X255940015Y-144482741D01*
X255914957Y-144543237D01*
X255913057Y-144547823D01*
X255869216Y-144602226D01*
X255802922Y-144624291D01*
X255735223Y-144607012D01*
X255710815Y-144588051D01*
X253424151Y-142301387D01*
X253390666Y-142240064D01*
X253387832Y-142213706D01*
X253387832Y-138778866D01*
X253407517Y-138711827D01*
X253424151Y-138691185D01*
X254237603Y-137877733D01*
X254237605Y-137877731D01*
X254237608Y-137877728D01*
X254300817Y-137783128D01*
X254308796Y-137771187D01*
X254335678Y-137706288D01*
X254357833Y-137652802D01*
X254360705Y-137638365D01*
X254393090Y-137576454D01*
X254453805Y-137541880D01*
X254482322Y-137538556D01*
X254630203Y-137538556D01*
X254630204Y-137538556D01*
X254689815Y-137532148D01*
X254824663Y-137481853D01*
X254939878Y-137395603D01*
X255026128Y-137280388D01*
X255076423Y-137145540D01*
X255082832Y-137085930D01*
X255082831Y-135290185D01*
X255077338Y-135239083D01*
X255076423Y-135230573D01*
X255026129Y-135095728D01*
X255026125Y-135095721D01*
X254939879Y-134980512D01*
X254939876Y-134980509D01*
X254824667Y-134894263D01*
X254824660Y-134894259D01*
X254689814Y-134843965D01*
X254689815Y-134843965D01*
X254630215Y-134837558D01*
X254630213Y-134837557D01*
X254630205Y-134837557D01*
X254630196Y-134837557D01*
X252834461Y-134837557D01*
X252834455Y-134837558D01*
X252774848Y-134843965D01*
X252640003Y-134894259D01*
X252639996Y-134894263D01*
X252524787Y-134980509D01*
X252524784Y-134980512D01*
X252438538Y-135095721D01*
X252438535Y-135095726D01*
X252389521Y-135227140D01*
X252347649Y-135283073D01*
X252282185Y-135307490D01*
X252213912Y-135292638D01*
X252185658Y-135271487D01*
X252063734Y-135149563D01*
X252063728Y-135149558D01*
X251878174Y-135019632D01*
X251834549Y-134965055D01*
X251827355Y-134895557D01*
X251858878Y-134833202D01*
X251878174Y-134816482D01*
X252046672Y-134698498D01*
X252063733Y-134686552D01*
X252230827Y-134519458D01*
X252366367Y-134325887D01*
X252466235Y-134111720D01*
X252527395Y-133883465D01*
X252547991Y-133648057D01*
X252527395Y-133412649D01*
X252466235Y-133184394D01*
X252366367Y-132970228D01*
X252299269Y-132874401D01*
X252230826Y-132776654D01*
X252063734Y-132609563D01*
X252063728Y-132609558D01*
X251878174Y-132479632D01*
X251834549Y-132425055D01*
X251827355Y-132355557D01*
X251858878Y-132293202D01*
X251878174Y-132276482D01*
X252046672Y-132158498D01*
X252063733Y-132146552D01*
X252230827Y-131979458D01*
X252360757Y-131793899D01*
X252415334Y-131750274D01*
X252484832Y-131743080D01*
X252547187Y-131774603D01*
X252563907Y-131793899D01*
X252693832Y-131979452D01*
X252693837Y-131979458D01*
X252860931Y-132146552D01*
X252877992Y-132158498D01*
X253054497Y-132282089D01*
X253054499Y-132282090D01*
X253054502Y-132282092D01*
X253268669Y-132381960D01*
X253496924Y-132443120D01*
X253685250Y-132459596D01*
X253732331Y-132463716D01*
X253732332Y-132463716D01*
X253732333Y-132463716D01*
X253771566Y-132460283D01*
X253967740Y-132443120D01*
X254195995Y-132381960D01*
X254410162Y-132282092D01*
X254603733Y-132146552D01*
X254770827Y-131979458D01*
X254906367Y-131785887D01*
X255006235Y-131571720D01*
X255067395Y-131343465D01*
X255087991Y-131108057D01*
X255067395Y-130872649D01*
X255006235Y-130644394D01*
X254906367Y-130430228D01*
X254906366Y-130430226D01*
X254789750Y-130263680D01*
X254767423Y-130197474D01*
X254784433Y-130129707D01*
X254835381Y-130081894D01*
X254891325Y-130068557D01*
X255620500Y-130068557D01*
X255687539Y-130088242D01*
G37*
%TD.AperFunction*%
%TA.AperFunction,Conductor*%
G36*
X299937539Y-129778242D02*
G01*
X299983294Y-129831046D01*
X299994500Y-129882557D01*
X299994500Y-134876000D01*
X299994501Y-134876009D01*
X300006052Y-134983450D01*
X300006054Y-134983462D01*
X300017260Y-135034972D01*
X300051383Y-135137497D01*
X300051386Y-135137503D01*
X300129171Y-135258537D01*
X300129179Y-135258548D01*
X300174923Y-135311340D01*
X300174926Y-135311343D01*
X300174930Y-135311347D01*
X300283664Y-135405567D01*
X300283667Y-135405568D01*
X300283668Y-135405569D01*
X300302987Y-135414392D01*
X300414541Y-135465338D01*
X300481580Y-135485023D01*
X300481584Y-135485024D01*
X300624000Y-135505500D01*
X307139060Y-135505500D01*
X307206099Y-135525185D01*
X307251854Y-135577989D01*
X307261798Y-135647147D01*
X307242162Y-135698391D01*
X307185703Y-135782886D01*
X307185696Y-135782899D01*
X307110282Y-135964967D01*
X307110279Y-135964977D01*
X307071832Y-136158263D01*
X307071832Y-136355353D01*
X307072127Y-136358350D01*
X307071832Y-136359905D01*
X307071832Y-136361440D01*
X307071541Y-136361440D01*
X307059106Y-136426996D01*
X307011039Y-136477704D01*
X306948724Y-136494500D01*
X300874000Y-136494500D01*
X300873991Y-136494500D01*
X300873990Y-136494501D01*
X300766549Y-136506052D01*
X300766537Y-136506054D01*
X300715027Y-136517260D01*
X300612502Y-136551383D01*
X300612496Y-136551386D01*
X300491462Y-136629171D01*
X300491451Y-136629179D01*
X300438659Y-136674923D01*
X300344433Y-136783664D01*
X300344430Y-136783668D01*
X300284664Y-136914534D01*
X300264976Y-136981582D01*
X300247041Y-137106327D01*
X300244500Y-137124000D01*
X300244500Y-143376000D01*
X300244501Y-143376009D01*
X300256052Y-143483450D01*
X300256054Y-143483462D01*
X300267260Y-143534972D01*
X300301383Y-143637497D01*
X300301386Y-143637503D01*
X300379171Y-143758537D01*
X300379179Y-143758548D01*
X300424923Y-143811340D01*
X300424926Y-143811343D01*
X300424930Y-143811347D01*
X300533664Y-143905567D01*
X300533667Y-143905568D01*
X300533668Y-143905569D01*
X300668569Y-143967178D01*
X300667714Y-143969048D01*
X300716919Y-144005901D01*
X300741319Y-144071372D01*
X300726450Y-144139641D01*
X300693120Y-144178562D01*
X300571720Y-144271716D01*
X300571719Y-144271717D01*
X300571718Y-144271718D01*
X300530780Y-144325070D01*
X300475463Y-144397160D01*
X300440015Y-144482741D01*
X300414957Y-144543237D01*
X300413057Y-144547823D01*
X300369216Y-144602226D01*
X300302922Y-144624291D01*
X300235223Y-144607012D01*
X300210815Y-144588051D01*
X297964151Y-142341387D01*
X297930666Y-142280064D01*
X297927832Y-142253706D01*
X297927832Y-138468866D01*
X297947517Y-138401827D01*
X297964151Y-138381185D01*
X298777603Y-137567733D01*
X298777605Y-137567731D01*
X298777608Y-137567728D01*
X298848797Y-137461185D01*
X298850232Y-137457722D01*
X298867749Y-137415430D01*
X298897833Y-137342802D01*
X298898124Y-137341337D01*
X298898126Y-137341328D01*
X298898132Y-137341329D01*
X298898132Y-137341296D01*
X298900707Y-137328353D01*
X298933098Y-137266445D01*
X298993817Y-137231877D01*
X299022322Y-137228556D01*
X299170203Y-137228556D01*
X299170204Y-137228556D01*
X299229815Y-137222148D01*
X299364663Y-137171853D01*
X299479878Y-137085603D01*
X299566128Y-136970388D01*
X299616423Y-136835540D01*
X299622832Y-136775930D01*
X299622831Y-134980185D01*
X299616423Y-134920574D01*
X299615484Y-134918057D01*
X299566129Y-134785728D01*
X299566125Y-134785721D01*
X299479879Y-134670512D01*
X299479876Y-134670509D01*
X299364667Y-134584263D01*
X299364660Y-134584259D01*
X299229814Y-134533965D01*
X299229815Y-134533965D01*
X299170215Y-134527558D01*
X299170213Y-134527557D01*
X299170205Y-134527557D01*
X299170196Y-134527557D01*
X297374461Y-134527557D01*
X297374455Y-134527558D01*
X297314848Y-134533965D01*
X297180003Y-134584259D01*
X297179996Y-134584263D01*
X297064787Y-134670509D01*
X297064784Y-134670512D01*
X296978538Y-134785721D01*
X296978535Y-134785726D01*
X296929521Y-134917140D01*
X296887649Y-134973073D01*
X296822185Y-134997490D01*
X296753912Y-134982638D01*
X296725658Y-134961487D01*
X296603734Y-134839563D01*
X296603728Y-134839558D01*
X296418174Y-134709632D01*
X296374549Y-134655055D01*
X296367355Y-134585557D01*
X296398878Y-134523202D01*
X296418174Y-134506482D01*
X296440358Y-134490948D01*
X296603733Y-134376552D01*
X296770827Y-134209458D01*
X296906367Y-134015887D01*
X297006235Y-133801720D01*
X297067395Y-133573465D01*
X297087991Y-133338057D01*
X297067395Y-133102649D01*
X297006235Y-132874394D01*
X296906367Y-132660228D01*
X296879251Y-132621501D01*
X296770826Y-132466654D01*
X296603734Y-132299563D01*
X296603728Y-132299558D01*
X296418174Y-132169632D01*
X296374549Y-132115055D01*
X296367355Y-132045557D01*
X296398878Y-131983202D01*
X296418174Y-131966482D01*
X296501516Y-131908125D01*
X296603733Y-131836552D01*
X296770827Y-131669458D01*
X296900757Y-131483899D01*
X296955334Y-131440274D01*
X297024832Y-131433080D01*
X297087187Y-131464603D01*
X297103907Y-131483899D01*
X297233832Y-131669452D01*
X297233837Y-131669458D01*
X297400931Y-131836552D01*
X297497716Y-131904322D01*
X297594497Y-131972089D01*
X297594499Y-131972090D01*
X297594502Y-131972092D01*
X297808669Y-132071960D01*
X298036924Y-132133120D01*
X298225250Y-132149596D01*
X298272331Y-132153716D01*
X298272332Y-132153716D01*
X298272333Y-132153716D01*
X298311566Y-132150283D01*
X298507740Y-132133120D01*
X298735995Y-132071960D01*
X298950162Y-131972092D01*
X299143733Y-131836552D01*
X299310827Y-131669458D01*
X299446367Y-131475887D01*
X299546235Y-131261720D01*
X299607395Y-131033465D01*
X299627991Y-130798057D01*
X299607395Y-130562649D01*
X299546235Y-130334394D01*
X299446367Y-130120228D01*
X299446366Y-130120226D01*
X299329750Y-129953680D01*
X299307423Y-129887474D01*
X299324433Y-129819707D01*
X299375381Y-129771894D01*
X299431325Y-129758557D01*
X299870500Y-129758557D01*
X299937539Y-129778242D01*
G37*
%TD.AperFunction*%
%TA.AperFunction,Conductor*%
G36*
X229075156Y-135775185D02*
G01*
X229120911Y-135827989D01*
X229130855Y-135897147D01*
X229111219Y-135948391D01*
X229013371Y-136094829D01*
X229013364Y-136094842D01*
X228937950Y-136276910D01*
X228937947Y-136276920D01*
X228899500Y-136470206D01*
X228899500Y-136470209D01*
X228899500Y-136667291D01*
X228899500Y-136667293D01*
X228899499Y-136667293D01*
X228935109Y-136846308D01*
X228928882Y-136915900D01*
X228886019Y-136971077D01*
X228820130Y-136994322D01*
X228813492Y-136994500D01*
X222624000Y-136994500D01*
X222623991Y-136994500D01*
X222623990Y-136994501D01*
X222516549Y-137006052D01*
X222516537Y-137006054D01*
X222465027Y-137017260D01*
X222362502Y-137051383D01*
X222362496Y-137051386D01*
X222241462Y-137129171D01*
X222241451Y-137129179D01*
X222188659Y-137174923D01*
X222094433Y-137283664D01*
X222094430Y-137283668D01*
X222034664Y-137414534D01*
X222014976Y-137481582D01*
X221997238Y-137604958D01*
X221968213Y-137668513D01*
X221909435Y-137706288D01*
X221839566Y-137706288D01*
X221780787Y-137668514D01*
X221751762Y-137604958D01*
X221750500Y-137587311D01*
X221750500Y-137304434D01*
X221725862Y-137180575D01*
X221725862Y-137180574D01*
X221715637Y-137129171D01*
X221712051Y-137111142D01*
X221672218Y-137014977D01*
X221636632Y-136929064D01*
X221636631Y-136929062D01*
X221636630Y-136929060D01*
X221527139Y-136765196D01*
X221527136Y-136765192D01*
X221430082Y-136668138D01*
X221396597Y-136606815D01*
X221394543Y-136566573D01*
X221405565Y-136468752D01*
X221405565Y-136468746D01*
X221385369Y-136289500D01*
X221385368Y-136289495D01*
X221362790Y-136224970D01*
X221325789Y-136119228D01*
X221310462Y-136094836D01*
X221260284Y-136014977D01*
X221229816Y-135966488D01*
X221229815Y-135966487D01*
X221225475Y-135961045D01*
X221226647Y-135960109D01*
X221197024Y-135905858D01*
X221202008Y-135836166D01*
X221243880Y-135780233D01*
X221309344Y-135755816D01*
X221318190Y-135755500D01*
X229008117Y-135755500D01*
X229075156Y-135775185D01*
G37*
%TD.AperFunction*%
%TA.AperFunction,Conductor*%
G36*
X239708338Y-135775185D02*
G01*
X239754093Y-135827989D01*
X239764037Y-135897147D01*
X239744401Y-135948391D01*
X239713371Y-135994829D01*
X239713364Y-135994842D01*
X239637950Y-136176910D01*
X239637947Y-136176920D01*
X239599500Y-136370206D01*
X239599500Y-136370209D01*
X239599500Y-136567291D01*
X239599500Y-136567293D01*
X239599499Y-136567293D01*
X239637947Y-136760579D01*
X239637948Y-136760580D01*
X239637949Y-136760585D01*
X239663822Y-136823048D01*
X239671290Y-136892518D01*
X239640014Y-136954997D01*
X239579925Y-136990649D01*
X239549260Y-136994500D01*
X233374000Y-136994500D01*
X233373991Y-136994500D01*
X233373990Y-136994501D01*
X233266549Y-137006052D01*
X233266537Y-137006054D01*
X233215027Y-137017260D01*
X233112502Y-137051383D01*
X233112496Y-137051386D01*
X232991462Y-137129171D01*
X232991451Y-137129179D01*
X232938659Y-137174923D01*
X232844433Y-137283664D01*
X232844430Y-137283668D01*
X232784664Y-137414534D01*
X232764976Y-137481582D01*
X232747238Y-137604958D01*
X232718213Y-137668513D01*
X232659435Y-137706288D01*
X232589566Y-137706288D01*
X232530787Y-137668514D01*
X232501762Y-137604958D01*
X232500500Y-137587311D01*
X232500500Y-137354436D01*
X232500499Y-137354435D01*
X232476008Y-137231307D01*
X232462051Y-137161142D01*
X232439346Y-137106329D01*
X232416587Y-137051383D01*
X232386635Y-136979070D01*
X232386633Y-136979066D01*
X232386632Y-136979064D01*
X232362028Y-136942241D01*
X232277139Y-136815195D01*
X232185145Y-136723201D01*
X232151660Y-136661878D01*
X232149606Y-136621635D01*
X232155565Y-136568751D01*
X232155565Y-136568746D01*
X232135369Y-136389500D01*
X232135368Y-136389495D01*
X232124470Y-136358350D01*
X232075789Y-136219228D01*
X232069000Y-136208424D01*
X232036582Y-136156830D01*
X231979816Y-136066488D01*
X231880509Y-135967181D01*
X231847024Y-135905858D01*
X231852008Y-135836166D01*
X231893880Y-135780233D01*
X231959344Y-135755816D01*
X231968190Y-135755500D01*
X239641299Y-135755500D01*
X239708338Y-135775185D01*
G37*
%TD.AperFunction*%
%TA.AperFunction,Conductor*%
G36*
X342507030Y-101486018D02*
G01*
X342507235Y-101486034D01*
X342516870Y-101486034D01*
X342516873Y-101486035D01*
X342561764Y-101486034D01*
X342567170Y-101486151D01*
X342968672Y-101503678D01*
X342979405Y-101504618D01*
X343375174Y-101556720D01*
X343385793Y-101558592D01*
X343775525Y-101644991D01*
X343785939Y-101647782D01*
X344166649Y-101767817D01*
X344176784Y-101771506D01*
X344545568Y-101924260D01*
X344555363Y-101928828D01*
X344845983Y-102080114D01*
X344909416Y-102113135D01*
X344918784Y-102118543D01*
X345255434Y-102333012D01*
X345264295Y-102339217D01*
X345580963Y-102582204D01*
X345589250Y-102589158D01*
X345883532Y-102858818D01*
X345891181Y-102866467D01*
X346160841Y-103160749D01*
X346167795Y-103169036D01*
X346410782Y-103485704D01*
X346416987Y-103494565D01*
X346631456Y-103831215D01*
X346636864Y-103840583D01*
X346821169Y-104194631D01*
X346825741Y-104204436D01*
X346978487Y-104573200D01*
X346982187Y-104583365D01*
X347102212Y-104964042D01*
X347105012Y-104974491D01*
X347191404Y-105364189D01*
X347193282Y-105374842D01*
X347213621Y-105529341D01*
X347241408Y-105740412D01*
X347245379Y-105770572D01*
X347246322Y-105781349D01*
X347263847Y-106182827D01*
X347263965Y-106188235D01*
X347263965Y-106242302D01*
X347264026Y-106243082D01*
X347288556Y-129290984D01*
X347268943Y-129358044D01*
X347216187Y-129403855D01*
X347147040Y-129413873D01*
X347083453Y-129384915D01*
X347045616Y-129326177D01*
X347041618Y-129307308D01*
X347019298Y-129137761D01*
X347003473Y-129078702D01*
X346999248Y-129046609D01*
X346999248Y-128232129D01*
X346999247Y-128232123D01*
X346994510Y-128188057D01*
X346992840Y-128172517D01*
X346991032Y-128167670D01*
X346942546Y-128037671D01*
X346942542Y-128037664D01*
X346856296Y-127922455D01*
X346856293Y-127922452D01*
X346741084Y-127836206D01*
X346741077Y-127836202D01*
X346606231Y-127785908D01*
X346606232Y-127785908D01*
X346546632Y-127779501D01*
X346546630Y-127779500D01*
X346546622Y-127779500D01*
X346546614Y-127779500D01*
X346125192Y-127779500D01*
X346058153Y-127759815D01*
X346037511Y-127743181D01*
X345036819Y-126742489D01*
X345003334Y-126681166D01*
X345000500Y-126654808D01*
X345000500Y-125635272D01*
X345000499Y-125635258D01*
X344998480Y-125619925D01*
X344970548Y-125407762D01*
X344955426Y-125351324D01*
X344954724Y-125348704D01*
X344950499Y-125316612D01*
X344950499Y-124502129D01*
X344950498Y-124502123D01*
X344944091Y-124442516D01*
X344893797Y-124307671D01*
X344893793Y-124307664D01*
X344807547Y-124192455D01*
X344807544Y-124192452D01*
X344692335Y-124106206D01*
X344692328Y-124106202D01*
X344557482Y-124055908D01*
X344557483Y-124055908D01*
X344497883Y-124049501D01*
X344497881Y-124049500D01*
X344497873Y-124049500D01*
X344497865Y-124049500D01*
X343683385Y-124049500D01*
X343651292Y-124045275D01*
X343592247Y-124029454D01*
X343592242Y-124029453D01*
X343592238Y-124029452D01*
X343541681Y-124022796D01*
X343364741Y-123999500D01*
X343364734Y-123999500D01*
X340329500Y-123999500D01*
X340262461Y-123979815D01*
X340216706Y-123927011D01*
X340205500Y-123875500D01*
X340205500Y-112924500D01*
X340225185Y-112857461D01*
X340277989Y-112811706D01*
X340329500Y-112800500D01*
X341275500Y-112800500D01*
X341342539Y-112820185D01*
X341388294Y-112872989D01*
X341399500Y-112924500D01*
X341399500Y-112944740D01*
X341419375Y-113095695D01*
X341419375Y-113095696D01*
X341429450Y-113172227D01*
X341429451Y-113172232D01*
X341429452Y-113172238D01*
X341462190Y-113294418D01*
X341488842Y-113393886D01*
X341576650Y-113605875D01*
X341576657Y-113605890D01*
X341641582Y-113718343D01*
X341691389Y-113804611D01*
X341751595Y-113883072D01*
X341831078Y-113986658D01*
X341831084Y-113986665D01*
X343183182Y-115338762D01*
X343216667Y-115400085D01*
X343219501Y-115426443D01*
X343219501Y-115847870D01*
X343219502Y-115847876D01*
X343225909Y-115907483D01*
X343276203Y-116042328D01*
X343276207Y-116042335D01*
X343362453Y-116157544D01*
X343362456Y-116157547D01*
X343477665Y-116243793D01*
X343477672Y-116243797D01*
X343612518Y-116294091D01*
X343612517Y-116294091D01*
X343619445Y-116294835D01*
X343672128Y-116300500D01*
X344486614Y-116300499D01*
X344518707Y-116304724D01*
X344538835Y-116310117D01*
X344577762Y-116320548D01*
X344691514Y-116335523D01*
X344805266Y-116350499D01*
X344805267Y-116350499D01*
X345034735Y-116350499D01*
X345110569Y-116340515D01*
X345262240Y-116320548D01*
X345309162Y-116307974D01*
X345321295Y-116304724D01*
X345353388Y-116300499D01*
X346167872Y-116300499D01*
X346167873Y-116300499D01*
X346227484Y-116294091D01*
X346362332Y-116243796D01*
X346477547Y-116157546D01*
X346563797Y-116042331D01*
X346614092Y-115907483D01*
X346620501Y-115847873D01*
X346620500Y-115033382D01*
X346624726Y-115001288D01*
X346640548Y-114942241D01*
X346640549Y-114942239D01*
X346670500Y-114714733D01*
X346670500Y-114485266D01*
X346640549Y-114257761D01*
X346630698Y-114220996D01*
X346624725Y-114198703D01*
X346620500Y-114166611D01*
X346620500Y-113352129D01*
X346620499Y-113352123D01*
X346614092Y-113292516D01*
X346563798Y-113157671D01*
X346563794Y-113157664D01*
X346477548Y-113042455D01*
X346477545Y-113042452D01*
X346362336Y-112956206D01*
X346362329Y-112956202D01*
X346227483Y-112905908D01*
X346227484Y-112905908D01*
X346167884Y-112899501D01*
X346167882Y-112899500D01*
X346167874Y-112899500D01*
X346167866Y-112899500D01*
X345746444Y-112899500D01*
X345679405Y-112879815D01*
X345658763Y-112863181D01*
X344936819Y-112141237D01*
X344903334Y-112079914D01*
X344900500Y-112053556D01*
X344900500Y-110935272D01*
X344900499Y-110935258D01*
X344884074Y-110810500D01*
X344870548Y-110707762D01*
X344863080Y-110679893D01*
X344854724Y-110648704D01*
X344850499Y-110616612D01*
X344850499Y-109802129D01*
X344850498Y-109802123D01*
X344844091Y-109742516D01*
X344793797Y-109607671D01*
X344793793Y-109607664D01*
X344707547Y-109492455D01*
X344707544Y-109492452D01*
X344592335Y-109406206D01*
X344592328Y-109406202D01*
X344457482Y-109355908D01*
X344457483Y-109355908D01*
X344397883Y-109349501D01*
X344397881Y-109349500D01*
X344397873Y-109349500D01*
X344397865Y-109349500D01*
X343583385Y-109349500D01*
X343551292Y-109345275D01*
X343492247Y-109329454D01*
X343492242Y-109329453D01*
X343492238Y-109329452D01*
X343441681Y-109322796D01*
X343264741Y-109299500D01*
X343264734Y-109299500D01*
X340329500Y-109299500D01*
X340262461Y-109279815D01*
X340216706Y-109227011D01*
X340205500Y-109175500D01*
X340205500Y-106291821D01*
X341213966Y-106291821D01*
X341247220Y-106501777D01*
X341301363Y-106668412D01*
X341312910Y-106703948D01*
X341409417Y-106893354D01*
X341534356Y-107065320D01*
X341684679Y-107215643D01*
X341856645Y-107340582D01*
X341856647Y-107340583D01*
X341856650Y-107340585D01*
X342046054Y-107437091D01*
X342248223Y-107502780D01*
X342458179Y-107536034D01*
X342458180Y-107536034D01*
X342670752Y-107536034D01*
X342670753Y-107536034D01*
X342880709Y-107502780D01*
X343082878Y-107437091D01*
X343272282Y-107340585D01*
X343321195Y-107305048D01*
X343444252Y-107215643D01*
X343444254Y-107215640D01*
X343444258Y-107215638D01*
X343594570Y-107065326D01*
X343594572Y-107065322D01*
X343594575Y-107065320D01*
X343719514Y-106893354D01*
X343719513Y-106893354D01*
X343719517Y-106893350D01*
X343816023Y-106703946D01*
X343881712Y-106501777D01*
X343914966Y-106291821D01*
X343914966Y-106079247D01*
X343881712Y-105869291D01*
X343816023Y-105667122D01*
X343719517Y-105477718D01*
X343719515Y-105477715D01*
X343719514Y-105477713D01*
X343594575Y-105305747D01*
X343444252Y-105155424D01*
X343272286Y-105030485D01*
X343082880Y-104933978D01*
X343082879Y-104933977D01*
X343082878Y-104933977D01*
X342880709Y-104868288D01*
X342880707Y-104868287D01*
X342880706Y-104868287D01*
X342719423Y-104842742D01*
X342670753Y-104835034D01*
X342458179Y-104835034D01*
X342409508Y-104842742D01*
X342248226Y-104868287D01*
X342248223Y-104868288D01*
X342062874Y-104928512D01*
X342046051Y-104933978D01*
X341856645Y-105030485D01*
X341684679Y-105155424D01*
X341534356Y-105305747D01*
X341409417Y-105477713D01*
X341312910Y-105667119D01*
X341247219Y-105869294D01*
X341231854Y-105966305D01*
X341213966Y-106079247D01*
X341213966Y-106291821D01*
X340205500Y-106291821D01*
X340205500Y-101609444D01*
X340225185Y-101542405D01*
X340277989Y-101496650D01*
X340329529Y-101485444D01*
X342507030Y-101486018D01*
G37*
%TD.AperFunction*%
%TA.AperFunction,Conductor*%
G36*
X263264586Y-115866891D02*
G01*
X263271255Y-115866928D01*
X263338184Y-115886984D01*
X263383645Y-115940041D01*
X263393205Y-116009254D01*
X263363828Y-116072647D01*
X263318020Y-116105487D01*
X263258420Y-116130173D01*
X263258411Y-116130178D01*
X263094550Y-116239667D01*
X263094546Y-116239670D01*
X262955195Y-116379021D01*
X262955192Y-116379025D01*
X262845703Y-116542886D01*
X262845696Y-116542899D01*
X262770282Y-116724967D01*
X262770279Y-116724977D01*
X262731832Y-116918263D01*
X262731832Y-117100500D01*
X262712147Y-117167539D01*
X262659343Y-117213294D01*
X262607832Y-117224500D01*
X256532329Y-117224500D01*
X256460391Y-117229644D01*
X256426908Y-117239477D01*
X256391972Y-117244500D01*
X256374000Y-117244500D01*
X256373991Y-117244500D01*
X256373990Y-117244501D01*
X256266549Y-117256052D01*
X256266537Y-117256054D01*
X256215027Y-117267260D01*
X256112502Y-117301383D01*
X256112496Y-117301386D01*
X255991462Y-117379171D01*
X255991451Y-117379179D01*
X255938659Y-117424923D01*
X255844433Y-117533664D01*
X255844431Y-117533666D01*
X255785014Y-117663769D01*
X255739258Y-117716572D01*
X255672219Y-117736256D01*
X255605179Y-117716571D01*
X255559425Y-117663766D01*
X255550603Y-117636448D01*
X255525502Y-117510261D01*
X255525501Y-117510260D01*
X255525501Y-117510256D01*
X255476465Y-117391873D01*
X255471356Y-117384227D01*
X255471352Y-117384221D01*
X255471352Y-117384220D01*
X255405276Y-117285330D01*
X255341023Y-117221077D01*
X255271720Y-117151774D01*
X255238237Y-117090454D01*
X255236182Y-117077973D01*
X255235368Y-117070745D01*
X255175789Y-116900478D01*
X255170787Y-116892518D01*
X255114090Y-116802285D01*
X255079816Y-116747738D01*
X254952262Y-116620184D01*
X254933288Y-116608262D01*
X254799523Y-116524211D01*
X254629254Y-116464631D01*
X254629249Y-116464630D01*
X254450004Y-116444435D01*
X254449996Y-116444435D01*
X254270750Y-116464630D01*
X254270745Y-116464631D01*
X254100476Y-116524211D01*
X253947737Y-116620184D01*
X253820184Y-116747737D01*
X253724211Y-116900476D01*
X253664631Y-117070745D01*
X253664630Y-117070750D01*
X253644435Y-117249996D01*
X253644435Y-117250003D01*
X253664630Y-117429249D01*
X253664631Y-117429254D01*
X253724211Y-117599523D01*
X253765065Y-117664541D01*
X253820184Y-117752262D01*
X253947738Y-117879816D01*
X253959089Y-117886948D01*
X254005380Y-117939280D01*
X254016030Y-118008333D01*
X253999236Y-118056090D01*
X253981523Y-118085392D01*
X253981522Y-118085394D01*
X253962721Y-118145729D01*
X253930913Y-118247807D01*
X253924500Y-118318386D01*
X253924500Y-118831613D01*
X253930913Y-118902192D01*
X253930913Y-118902194D01*
X253930914Y-118902196D01*
X253981522Y-119064606D01*
X254055499Y-119186979D01*
X254069530Y-119210188D01*
X254171661Y-119312319D01*
X254205146Y-119373642D01*
X254200162Y-119443334D01*
X254171661Y-119487681D01*
X254069531Y-119589810D01*
X254069530Y-119589811D01*
X253981522Y-119735393D01*
X253930913Y-119897807D01*
X253928831Y-119920721D01*
X253924500Y-119968384D01*
X253924500Y-120481616D01*
X253930914Y-120552196D01*
X253964627Y-120660388D01*
X253978093Y-120703602D01*
X253979243Y-120773462D01*
X253964701Y-120806463D01*
X253874211Y-120950476D01*
X253814631Y-121120745D01*
X253814630Y-121120750D01*
X253794435Y-121299996D01*
X253794435Y-121300003D01*
X253814630Y-121479249D01*
X253814631Y-121479254D01*
X253874211Y-121649523D01*
X253947736Y-121766537D01*
X253970184Y-121802262D01*
X254097738Y-121929816D01*
X254250478Y-122025789D01*
X254335573Y-122055565D01*
X254420745Y-122085368D01*
X254420750Y-122085369D01*
X254599996Y-122105565D01*
X254600000Y-122105565D01*
X254600004Y-122105565D01*
X254779249Y-122085369D01*
X254779252Y-122085368D01*
X254779255Y-122085368D01*
X254949522Y-122025789D01*
X255102262Y-121929816D01*
X255229816Y-121802262D01*
X255325789Y-121649522D01*
X255385368Y-121479255D01*
X255386707Y-121467362D01*
X255406824Y-121412352D01*
X255476465Y-121308127D01*
X255505939Y-121236971D01*
X255549780Y-121182567D01*
X255616074Y-121160502D01*
X255683773Y-121177781D01*
X255731384Y-121228918D01*
X255744500Y-121284423D01*
X255744500Y-126577623D01*
X255724815Y-126644662D01*
X255714213Y-126658826D01*
X255657078Y-126724763D01*
X255657077Y-126724764D01*
X255597308Y-126855637D01*
X255597307Y-126855642D01*
X255582131Y-126961203D01*
X255553106Y-127024759D01*
X255494329Y-127062534D01*
X255459393Y-127067557D01*
X253614235Y-127067557D01*
X253380963Y-127104503D01*
X253156335Y-127177490D01*
X252945898Y-127284714D01*
X252845189Y-127357884D01*
X252754822Y-127423540D01*
X252754820Y-127423542D01*
X252754819Y-127423542D01*
X252587816Y-127590545D01*
X252470372Y-127752192D01*
X252415041Y-127794857D01*
X252345428Y-127800836D01*
X252283633Y-127768230D01*
X252268479Y-127750429D01*
X252230828Y-127696657D01*
X252184051Y-127649880D01*
X252114402Y-127580231D01*
X252080919Y-127518911D01*
X252085903Y-127449219D01*
X252127774Y-127393285D01*
X252187121Y-127369458D01*
X252190323Y-127369069D01*
X252239538Y-127357884D01*
X252337504Y-127324773D01*
X252458543Y-127246985D01*
X252511347Y-127201230D01*
X252605567Y-127092496D01*
X252665338Y-126961619D01*
X252685023Y-126894580D01*
X252685024Y-126894576D01*
X252705500Y-126752160D01*
X252705500Y-115933000D01*
X252725185Y-115865961D01*
X252777989Y-115820206D01*
X252830184Y-115809002D01*
X263264586Y-115866891D01*
G37*
%TD.AperFunction*%
%TA.AperFunction,Conductor*%
G36*
X228647256Y-116025185D02*
G01*
X228693011Y-116077989D01*
X228702955Y-116147147D01*
X228673930Y-116210703D01*
X228667898Y-116217181D01*
X228585363Y-116299715D01*
X228585360Y-116299719D01*
X228475872Y-116463579D01*
X228475867Y-116463589D01*
X228400449Y-116645663D01*
X228400447Y-116645671D01*
X228362000Y-116838955D01*
X228362000Y-116838960D01*
X228362000Y-117036040D01*
X228362000Y-117036042D01*
X228361999Y-117036042D01*
X228373988Y-117096308D01*
X228367761Y-117165900D01*
X228324898Y-117221077D01*
X228259009Y-117244322D01*
X228252371Y-117244500D01*
X222624000Y-117244500D01*
X222623991Y-117244500D01*
X222623990Y-117244501D01*
X222516549Y-117256052D01*
X222516537Y-117256054D01*
X222465027Y-117267260D01*
X222362498Y-117301385D01*
X222355502Y-117304733D01*
X222355362Y-117304441D01*
X222331500Y-117315337D01*
X222315014Y-117320178D01*
X222315004Y-117320183D01*
X222193969Y-117397967D01*
X222193965Y-117397971D01*
X222099750Y-117506700D01*
X222099746Y-117506706D01*
X222056182Y-117602099D01*
X222039974Y-117637589D01*
X222038740Y-117646172D01*
X222034980Y-117663452D01*
X222014978Y-117731571D01*
X222014977Y-117731577D01*
X222014977Y-117731580D01*
X222014976Y-117731584D01*
X222007520Y-117783446D01*
X221994500Y-117874001D01*
X221994500Y-120370500D01*
X221974815Y-120437539D01*
X221922011Y-120483294D01*
X221870500Y-120494500D01*
X221549500Y-120494500D01*
X221482461Y-120474815D01*
X221436706Y-120422011D01*
X221425500Y-120370500D01*
X221425499Y-120024205D01*
X221434938Y-119976752D01*
X221436630Y-119972666D01*
X221436632Y-119972664D01*
X221512051Y-119790585D01*
X221530506Y-119697807D01*
X221550500Y-119597293D01*
X221550500Y-116920206D01*
X221527043Y-116802285D01*
X221527043Y-116802284D01*
X221512051Y-116726914D01*
X221487352Y-116667285D01*
X221478396Y-116645663D01*
X221436633Y-116544838D01*
X221436628Y-116544829D01*
X221327139Y-116380968D01*
X221327136Y-116380964D01*
X221184686Y-116238514D01*
X221184655Y-116238485D01*
X221181479Y-116235309D01*
X221181459Y-116235287D01*
X221163353Y-116217181D01*
X221129868Y-116155858D01*
X221134852Y-116086166D01*
X221176724Y-116030233D01*
X221242188Y-116005816D01*
X221251034Y-116005500D01*
X228580217Y-116005500D01*
X228647256Y-116025185D01*
G37*
%TD.AperFunction*%
%TA.AperFunction,Conductor*%
G36*
X273760424Y-115925120D02*
G01*
X273827353Y-115945176D01*
X273872814Y-115998233D01*
X273882374Y-116067446D01*
X273852997Y-116130839D01*
X273847418Y-116136798D01*
X273805196Y-116179020D01*
X273805192Y-116179025D01*
X273695703Y-116342886D01*
X273695696Y-116342899D01*
X273620282Y-116524967D01*
X273620279Y-116524977D01*
X273581832Y-116718263D01*
X273581832Y-116718266D01*
X273581832Y-116915348D01*
X273581832Y-116915350D01*
X273581831Y-116915350D01*
X273613849Y-117076308D01*
X273607622Y-117145900D01*
X273564759Y-117201077D01*
X273498869Y-117224322D01*
X273492232Y-117224500D01*
X267332329Y-117224500D01*
X267260391Y-117229644D01*
X267122337Y-117270182D01*
X267001301Y-117347967D01*
X267001301Y-117347968D01*
X266907078Y-117456704D01*
X266902286Y-117464162D01*
X266901453Y-117463626D01*
X266890903Y-117480034D01*
X266844433Y-117533663D01*
X266784663Y-117664537D01*
X266764976Y-117731582D01*
X266744500Y-117874001D01*
X266744500Y-120370500D01*
X266724815Y-120437539D01*
X266672011Y-120483294D01*
X266620500Y-120494500D01*
X266356832Y-120494500D01*
X266289793Y-120474815D01*
X266244038Y-120422011D01*
X266232832Y-120370500D01*
X266232831Y-120111905D01*
X266242270Y-120064452D01*
X266264036Y-120011905D01*
X266294383Y-119938642D01*
X266306964Y-119875389D01*
X266332832Y-119745350D01*
X266332832Y-117068263D01*
X266309598Y-116951460D01*
X266309017Y-116948540D01*
X266294383Y-116874971D01*
X266269737Y-116815470D01*
X266242056Y-116748642D01*
X266218965Y-116692895D01*
X266218960Y-116692886D01*
X266109471Y-116529025D01*
X266109468Y-116529021D01*
X265967018Y-116386571D01*
X265966987Y-116386542D01*
X265963811Y-116383366D01*
X265963791Y-116383344D01*
X265820117Y-116239670D01*
X265820113Y-116239667D01*
X265656252Y-116130178D01*
X265656242Y-116130173D01*
X265628865Y-116118833D01*
X265574461Y-116074991D01*
X265552397Y-116008697D01*
X265569677Y-115940998D01*
X265620814Y-115893388D01*
X265677003Y-115880274D01*
X273760424Y-115925120D01*
G37*
%TD.AperFunction*%
%TA.AperFunction,Conductor*%
G36*
X317972690Y-115775185D02*
G01*
X318018445Y-115827989D01*
X318028389Y-115897147D01*
X318008753Y-115948391D01*
X317985703Y-115982886D01*
X317985696Y-115982899D01*
X317910282Y-116164967D01*
X317910279Y-116164977D01*
X317871832Y-116358263D01*
X317871832Y-116358266D01*
X317871832Y-116555348D01*
X317871832Y-116555350D01*
X317871831Y-116555350D01*
X317910279Y-116748636D01*
X317910282Y-116748646D01*
X317941100Y-116823048D01*
X317948569Y-116892518D01*
X317917293Y-116954997D01*
X317857204Y-116990648D01*
X317826539Y-116994500D01*
X311624000Y-116994500D01*
X311623991Y-116994500D01*
X311623990Y-116994501D01*
X311516549Y-117006052D01*
X311516537Y-117006054D01*
X311465027Y-117017260D01*
X311362502Y-117051383D01*
X311362496Y-117051386D01*
X311241462Y-117129171D01*
X311241451Y-117129179D01*
X311188659Y-117174923D01*
X311094433Y-117283664D01*
X311094430Y-117283668D01*
X311034664Y-117414534D01*
X311014976Y-117481582D01*
X310994500Y-117624001D01*
X310994500Y-120120500D01*
X310974815Y-120187539D01*
X310922011Y-120233294D01*
X310870500Y-120244500D01*
X310696832Y-120244500D01*
X310629793Y-120224815D01*
X310584038Y-120172011D01*
X310572832Y-120120500D01*
X310572831Y-119551906D01*
X310582270Y-119504453D01*
X310634383Y-119378642D01*
X310648000Y-119310185D01*
X310672832Y-119185350D01*
X310672832Y-116508265D01*
X310672831Y-116508262D01*
X310671778Y-116502970D01*
X310653727Y-116412219D01*
X310646826Y-116377523D01*
X310634385Y-116314977D01*
X310634383Y-116314972D01*
X310630138Y-116304724D01*
X310599588Y-116230969D01*
X310558964Y-116132893D01*
X310525555Y-116082893D01*
X310449471Y-115969024D01*
X310447628Y-115967181D01*
X310446971Y-115965979D01*
X310445606Y-115964315D01*
X310445921Y-115964055D01*
X310414143Y-115905858D01*
X310419127Y-115836166D01*
X310460999Y-115780233D01*
X310526463Y-115755816D01*
X310535309Y-115755500D01*
X317905651Y-115755500D01*
X317972690Y-115775185D01*
G37*
%TD.AperFunction*%
%TA.AperFunction,Conductor*%
G36*
X239545810Y-116025185D02*
G01*
X239591565Y-116077989D01*
X239601509Y-116147147D01*
X239581873Y-116198392D01*
X239563368Y-116226085D01*
X239563364Y-116226092D01*
X239487950Y-116408160D01*
X239487947Y-116408170D01*
X239449500Y-116601456D01*
X239449500Y-116601459D01*
X239449500Y-116798541D01*
X239449500Y-116798543D01*
X239449499Y-116798543D01*
X239487947Y-116991829D01*
X239487950Y-116991839D01*
X239521588Y-117073048D01*
X239529057Y-117142517D01*
X239497782Y-117204996D01*
X239437693Y-117240648D01*
X239407027Y-117244500D01*
X233124000Y-117244500D01*
X233123991Y-117244500D01*
X233123990Y-117244501D01*
X233016549Y-117256052D01*
X233016537Y-117256054D01*
X232965027Y-117267260D01*
X232862502Y-117301383D01*
X232862496Y-117301386D01*
X232741462Y-117379171D01*
X232741451Y-117379179D01*
X232688659Y-117424923D01*
X232594433Y-117533664D01*
X232594428Y-117533672D01*
X232587293Y-117549295D01*
X232541538Y-117602099D01*
X232474498Y-117621782D01*
X232407459Y-117602096D01*
X232361705Y-117549292D01*
X232352586Y-117507372D01*
X232351097Y-117507519D01*
X232350500Y-117501456D01*
X232327883Y-117387756D01*
X232325500Y-117363564D01*
X232325500Y-117026458D01*
X232325499Y-117026457D01*
X232318514Y-116991337D01*
X232287052Y-116833165D01*
X232213399Y-116655352D01*
X232211633Y-116651088D01*
X232211628Y-116651079D01*
X232102141Y-116487220D01*
X232043945Y-116429024D01*
X231973187Y-116358266D01*
X231962782Y-116347861D01*
X231837782Y-116222861D01*
X231837781Y-116222860D01*
X231833474Y-116218553D01*
X231835088Y-116216938D01*
X231801487Y-116167615D01*
X231799612Y-116097770D01*
X231835796Y-116038000D01*
X231898550Y-116007280D01*
X231919484Y-116005500D01*
X239478771Y-116005500D01*
X239545810Y-116025185D01*
G37*
%TD.AperFunction*%
%TA.AperFunction,Conductor*%
G36*
X284550563Y-115984982D02*
G01*
X284617491Y-116005038D01*
X284662952Y-116058095D01*
X284672512Y-116127308D01*
X284643135Y-116190701D01*
X284637556Y-116196661D01*
X284555192Y-116279025D01*
X284445703Y-116442886D01*
X284445696Y-116442899D01*
X284370282Y-116624967D01*
X284370279Y-116624977D01*
X284331832Y-116818263D01*
X284331832Y-117015352D01*
X284343957Y-117076309D01*
X284337730Y-117145901D01*
X284294866Y-117201078D01*
X284228977Y-117224322D01*
X284222340Y-117224500D01*
X278132329Y-117224500D01*
X278060391Y-117229644D01*
X278026908Y-117239477D01*
X277991972Y-117244500D01*
X277874000Y-117244500D01*
X277873991Y-117244500D01*
X277873990Y-117244501D01*
X277766549Y-117256052D01*
X277766537Y-117256054D01*
X277715027Y-117267260D01*
X277612502Y-117301383D01*
X277612496Y-117301386D01*
X277491462Y-117379171D01*
X277491451Y-117379179D01*
X277438659Y-117424923D01*
X277429776Y-117435174D01*
X277370995Y-117472944D01*
X277301126Y-117472940D01*
X277242350Y-117435162D01*
X277213329Y-117371604D01*
X277214451Y-117329774D01*
X277220098Y-117301387D01*
X277250500Y-117148540D01*
X277250500Y-116951460D01*
X277212052Y-116758165D01*
X277153717Y-116617334D01*
X277136633Y-116576088D01*
X277136628Y-116576079D01*
X277027140Y-116412219D01*
X277027137Y-116412215D01*
X276793947Y-116179026D01*
X276768901Y-116153980D01*
X276735416Y-116092657D01*
X276740400Y-116022965D01*
X276782272Y-115967032D01*
X276847736Y-115942615D01*
X276857268Y-115942301D01*
X284550563Y-115984982D01*
G37*
%TD.AperFunction*%
%TA.AperFunction,Conductor*%
G36*
X328839508Y-115775185D02*
G01*
X328885263Y-115827989D01*
X328895207Y-115897147D01*
X328875571Y-115948391D01*
X328785703Y-116082886D01*
X328785696Y-116082899D01*
X328710282Y-116264967D01*
X328710279Y-116264977D01*
X328671832Y-116458263D01*
X328671832Y-116655352D01*
X328709816Y-116846309D01*
X328703589Y-116915900D01*
X328660726Y-116971078D01*
X328594836Y-116994322D01*
X328588199Y-116994500D01*
X322124000Y-116994500D01*
X322123991Y-116994500D01*
X322123990Y-116994501D01*
X322016549Y-117006052D01*
X322016537Y-117006054D01*
X321965027Y-117017260D01*
X321862502Y-117051383D01*
X321862496Y-117051386D01*
X321741462Y-117129171D01*
X321741451Y-117129179D01*
X321688657Y-117174925D01*
X321685529Y-117178054D01*
X321684264Y-117176789D01*
X321631744Y-117210528D01*
X321561875Y-117210514D01*
X321503104Y-117172729D01*
X321474091Y-117109168D01*
X321472832Y-117091544D01*
X321472832Y-116508265D01*
X321472831Y-116508262D01*
X321471778Y-116502970D01*
X321453727Y-116412219D01*
X321446826Y-116377523D01*
X321434385Y-116314977D01*
X321434383Y-116314972D01*
X321430138Y-116304724D01*
X321399588Y-116230969D01*
X321358964Y-116132893D01*
X321325555Y-116082893D01*
X321249471Y-115969024D01*
X321247628Y-115967181D01*
X321246971Y-115965979D01*
X321245606Y-115964315D01*
X321245921Y-115964055D01*
X321214143Y-115905858D01*
X321219127Y-115836166D01*
X321260999Y-115780233D01*
X321326463Y-115755816D01*
X321335309Y-115755500D01*
X328772469Y-115755500D01*
X328839508Y-115775185D01*
G37*
%TD.AperFunction*%
%TD*%
%TA.AperFunction,Conductor*%
%TO.N,V_IN*%
G36*
X339576035Y-101485246D02*
G01*
X339643067Y-101504948D01*
X339688808Y-101557764D01*
X339700000Y-101609246D01*
X339700000Y-127424047D01*
X339680315Y-127491086D01*
X339627511Y-127536841D01*
X339574063Y-127548032D01*
X336622063Y-127501907D01*
X336555339Y-127481177D01*
X336510415Y-127427665D01*
X336500000Y-127377922D01*
X336500000Y-107250000D01*
X335209847Y-107250000D01*
X335158163Y-107235334D01*
X335156899Y-107238047D01*
X335150353Y-107234994D01*
X335150351Y-107234993D01*
X334983814Y-107179808D01*
X334983812Y-107179807D01*
X334881027Y-107169307D01*
X334131015Y-107169307D01*
X334130997Y-107169308D01*
X334028220Y-107179807D01*
X334028217Y-107179808D01*
X333861685Y-107234992D01*
X333855135Y-107238047D01*
X333853870Y-107235334D01*
X333802187Y-107250000D01*
X332250000Y-107250000D01*
X332250000Y-115126000D01*
X332230315Y-115193039D01*
X332177511Y-115238794D01*
X332126000Y-115250000D01*
X297150000Y-115250000D01*
X297150000Y-126802847D01*
X297130315Y-126869886D01*
X297077511Y-126915641D01*
X297031001Y-126926746D01*
X296137974Y-126962791D01*
X296100881Y-126958667D01*
X295967740Y-126922994D01*
X295732333Y-126902398D01*
X295732331Y-126902398D01*
X295496928Y-126922993D01*
X295496918Y-126922995D01*
X295268676Y-126984151D01*
X295268671Y-126984153D01*
X295268669Y-126984154D01*
X295258983Y-126988670D01*
X295211584Y-127000185D01*
X291629001Y-127144792D01*
X291561222Y-127127827D01*
X291513375Y-127076912D01*
X291500000Y-127020893D01*
X291500000Y-107000000D01*
X288250000Y-107000000D01*
X288250000Y-115375310D01*
X288230315Y-115442349D01*
X288177511Y-115488104D01*
X288125312Y-115499308D01*
X252200000Y-115300000D01*
X252200000Y-126752160D01*
X252180315Y-126819199D01*
X252127511Y-126864954D01*
X252078296Y-126876139D01*
X246925980Y-126971553D01*
X246858587Y-126953113D01*
X246811863Y-126901165D01*
X246799684Y-126847886D01*
X246750000Y-107000000D01*
X246749999Y-107000000D01*
X243250000Y-107000000D01*
X243250000Y-115376000D01*
X243230315Y-115443039D01*
X243177511Y-115488794D01*
X243126000Y-115500000D01*
X210874000Y-115500000D01*
X210806961Y-115480315D01*
X210761206Y-115427511D01*
X210750000Y-115376000D01*
X210750000Y-101575361D01*
X210769685Y-101508322D01*
X210822489Y-101462567D01*
X210874026Y-101451362D01*
X339576035Y-101485246D01*
G37*
%TD.AperFunction*%
%TD*%
%TA.AperFunction,Conductor*%
%TO.N,/PH_C*%
G36*
X308614871Y-117519685D02*
G01*
X308660626Y-117572489D01*
X308671832Y-117624000D01*
X308671832Y-119185348D01*
X308671832Y-119185350D01*
X308671831Y-119185350D01*
X308710279Y-119378635D01*
X308710281Y-119378643D01*
X308762393Y-119504453D01*
X308771832Y-119551905D01*
X308771832Y-120465927D01*
X308771833Y-120465933D01*
X308778240Y-120525540D01*
X308828534Y-120660385D01*
X308828538Y-120660392D01*
X308914784Y-120775601D01*
X308914787Y-120775604D01*
X309029996Y-120861850D01*
X309030003Y-120861854D01*
X309164849Y-120912148D01*
X309164848Y-120912148D01*
X309171776Y-120912892D01*
X309224459Y-120918557D01*
X310120204Y-120918556D01*
X310179815Y-120912148D01*
X310314663Y-120861853D01*
X310429878Y-120775603D01*
X310429878Y-120775602D01*
X310431040Y-120774733D01*
X310496504Y-120750316D01*
X310505351Y-120750000D01*
X311500000Y-120750000D01*
X311500000Y-117624000D01*
X311519685Y-117556961D01*
X311572489Y-117511206D01*
X311624000Y-117500000D01*
X319347832Y-117500000D01*
X319414871Y-117519685D01*
X319460626Y-117572489D01*
X319471832Y-117624000D01*
X319471832Y-119185348D01*
X319471832Y-119185350D01*
X319471831Y-119185350D01*
X319510279Y-119378635D01*
X319510281Y-119378643D01*
X319537393Y-119444097D01*
X319546832Y-119491549D01*
X319546832Y-120465927D01*
X319546833Y-120465933D01*
X319553240Y-120525540D01*
X319603534Y-120660385D01*
X319603538Y-120660392D01*
X319670856Y-120750316D01*
X319689786Y-120775603D01*
X319700312Y-120783482D01*
X319742182Y-120839414D01*
X319750000Y-120882748D01*
X319750000Y-121000000D01*
X322000000Y-121000000D01*
X322000000Y-117624000D01*
X322019685Y-117556961D01*
X322072489Y-117511206D01*
X322124000Y-117500000D01*
X329310305Y-117500000D01*
X329357753Y-117509437D01*
X329380497Y-117518858D01*
X329384655Y-117519685D01*
X329573788Y-117557307D01*
X329573791Y-117557307D01*
X330147832Y-117557307D01*
X330214871Y-117576992D01*
X330260626Y-117629796D01*
X330271832Y-117681307D01*
X330271832Y-119285348D01*
X330271832Y-119285350D01*
X330271831Y-119285350D01*
X330310279Y-119478635D01*
X330310281Y-119478643D01*
X330337393Y-119544097D01*
X330346832Y-119591549D01*
X330346832Y-120465927D01*
X330346833Y-120465933D01*
X330353240Y-120525540D01*
X330403534Y-120660385D01*
X330403535Y-120660387D01*
X330475267Y-120756208D01*
X330499684Y-120821672D01*
X330500000Y-120830519D01*
X330500000Y-121500000D01*
X331876000Y-121500000D01*
X331943039Y-121519685D01*
X331988794Y-121572489D01*
X332000000Y-121624000D01*
X332000000Y-134876000D01*
X331980315Y-134943039D01*
X331927511Y-134988794D01*
X331876000Y-135000000D01*
X300624000Y-135000000D01*
X300556961Y-134980315D01*
X300511206Y-134927511D01*
X300500000Y-134876000D01*
X300500000Y-117624000D01*
X300519685Y-117556961D01*
X300572489Y-117511206D01*
X300624000Y-117500000D01*
X308547832Y-117500000D01*
X308614871Y-117519685D01*
G37*
%TD.AperFunction*%
%TD*%
%TA.AperFunction,Conductor*%
%TO.N,Net-(Q10-S)*%
G36*
X219447779Y-137519685D02*
G01*
X219468421Y-137536319D01*
X219713181Y-137781079D01*
X219746666Y-137842402D01*
X219749500Y-137868760D01*
X219749500Y-139197291D01*
X219749500Y-139197293D01*
X219749499Y-139197293D01*
X219787947Y-139390578D01*
X219787949Y-139390585D01*
X219829370Y-139490587D01*
X219840061Y-139516396D01*
X219849500Y-139563848D01*
X219849500Y-140447870D01*
X219849501Y-140447876D01*
X219855908Y-140507483D01*
X219906202Y-140642328D01*
X219906206Y-140642335D01*
X219992452Y-140757544D01*
X219992455Y-140757547D01*
X220107664Y-140843793D01*
X220107671Y-140843797D01*
X220242517Y-140894091D01*
X220242516Y-140894091D01*
X220249444Y-140894835D01*
X220302127Y-140900500D01*
X221197872Y-140900499D01*
X221257483Y-140894091D01*
X221392331Y-140843796D01*
X221484586Y-140774733D01*
X221550050Y-140750316D01*
X221558897Y-140750000D01*
X222500000Y-140750000D01*
X222500000Y-137624000D01*
X222519685Y-137556961D01*
X222572489Y-137511206D01*
X222624000Y-137500000D01*
X229509140Y-137500000D01*
X229556592Y-137509439D01*
X229608165Y-137530801D01*
X229635906Y-137536319D01*
X229801456Y-137569250D01*
X229801459Y-137569250D01*
X230149990Y-137569250D01*
X230217029Y-137588935D01*
X230237671Y-137605569D01*
X230463181Y-137831079D01*
X230496666Y-137892402D01*
X230499500Y-137918760D01*
X230499500Y-139297291D01*
X230499500Y-139297293D01*
X230499499Y-139297293D01*
X230537948Y-139490583D01*
X230537949Y-139490587D01*
X230540061Y-139495685D01*
X230549500Y-139543137D01*
X230549500Y-140447870D01*
X230549501Y-140447876D01*
X230555908Y-140507483D01*
X230606202Y-140642328D01*
X230606206Y-140642335D01*
X230692452Y-140757544D01*
X230692455Y-140757547D01*
X230807664Y-140843793D01*
X230807671Y-140843797D01*
X230942517Y-140894091D01*
X230942516Y-140894091D01*
X230949444Y-140894835D01*
X231002127Y-140900500D01*
X231897872Y-140900499D01*
X231957483Y-140894091D01*
X232092331Y-140843796D01*
X232184586Y-140774733D01*
X232250050Y-140750316D01*
X232258897Y-140750000D01*
X233250000Y-140750000D01*
X233250000Y-137624000D01*
X233269685Y-137556961D01*
X233322489Y-137511206D01*
X233374000Y-137500000D01*
X240830740Y-137500000D01*
X240897779Y-137519685D01*
X240918421Y-137536319D01*
X241163181Y-137781079D01*
X241196666Y-137842402D01*
X241199500Y-137868760D01*
X241199500Y-139197291D01*
X241199500Y-139197293D01*
X241199499Y-139197293D01*
X241237947Y-139390578D01*
X241237949Y-139390585D01*
X241279370Y-139490587D01*
X241290061Y-139516396D01*
X241299500Y-139563848D01*
X241299500Y-140447870D01*
X241299501Y-140447876D01*
X241305908Y-140507483D01*
X241356202Y-140642328D01*
X241356203Y-140642329D01*
X241356204Y-140642331D01*
X241420770Y-140728580D01*
X241442452Y-140757544D01*
X241442454Y-140757546D01*
X241450308Y-140763425D01*
X241492180Y-140819356D01*
X241500000Y-140862694D01*
X241500000Y-143876000D01*
X241480315Y-143943039D01*
X241427511Y-143988794D01*
X241376000Y-144000000D01*
X211874000Y-144000000D01*
X211806961Y-143980315D01*
X211761206Y-143927511D01*
X211750000Y-143876000D01*
X211750000Y-137624000D01*
X211769685Y-137556961D01*
X211822489Y-137511206D01*
X211874000Y-137500000D01*
X219380740Y-137500000D01*
X219447779Y-137519685D01*
G37*
%TD.AperFunction*%
%TD*%
%TA.AperFunction,Conductor*%
%TO.N,Net-(Q16-S)*%
G36*
X307416280Y-137019685D02*
G01*
X307429577Y-137030400D01*
X307429840Y-137030081D01*
X307434550Y-137033946D01*
X307598411Y-137143435D01*
X307598424Y-137143442D01*
X307780492Y-137218856D01*
X307780497Y-137218858D01*
X307780501Y-137218858D01*
X307780502Y-137218859D01*
X307973788Y-137257307D01*
X307973791Y-137257307D01*
X308547832Y-137257307D01*
X308614871Y-137276992D01*
X308660626Y-137329796D01*
X308671832Y-137381307D01*
X308671832Y-138985348D01*
X308671832Y-138985350D01*
X308671831Y-138985350D01*
X308710279Y-139178635D01*
X308710281Y-139178643D01*
X308762393Y-139304453D01*
X308771832Y-139351905D01*
X308771832Y-140135927D01*
X308771833Y-140135933D01*
X308778240Y-140195540D01*
X308828534Y-140330385D01*
X308828538Y-140330392D01*
X308914784Y-140445601D01*
X308914787Y-140445604D01*
X309029996Y-140531850D01*
X309030003Y-140531854D01*
X309164849Y-140582148D01*
X309164848Y-140582148D01*
X309171776Y-140582892D01*
X309224459Y-140588557D01*
X310120204Y-140588556D01*
X310179815Y-140582148D01*
X310314663Y-140531853D01*
X310429878Y-140445603D01*
X310516128Y-140330388D01*
X310516128Y-140330385D01*
X310520376Y-140322608D01*
X310521569Y-140323259D01*
X310557890Y-140274736D01*
X310623353Y-140250316D01*
X310632205Y-140250000D01*
X311500000Y-140250000D01*
X311500000Y-137124000D01*
X311519685Y-137056961D01*
X311572489Y-137011206D01*
X311624000Y-137000000D01*
X318389594Y-137000000D01*
X318437044Y-137009438D01*
X318580497Y-137068858D01*
X318580501Y-137068858D01*
X318580502Y-137068859D01*
X318773788Y-137107307D01*
X318773791Y-137107307D01*
X319347832Y-137107307D01*
X319414871Y-137126992D01*
X319460626Y-137179796D01*
X319471832Y-137231307D01*
X319471832Y-138835348D01*
X319471832Y-138835350D01*
X319471831Y-138835350D01*
X319510279Y-139028635D01*
X319510281Y-139028643D01*
X319562393Y-139154453D01*
X319571832Y-139201905D01*
X319571832Y-140135927D01*
X319571833Y-140135933D01*
X319578240Y-140195540D01*
X319628534Y-140330385D01*
X319628538Y-140330392D01*
X319714784Y-140445601D01*
X319714787Y-140445604D01*
X319829996Y-140531850D01*
X319830003Y-140531854D01*
X319964849Y-140582148D01*
X319964848Y-140582148D01*
X319971776Y-140582892D01*
X320024459Y-140588557D01*
X320920204Y-140588556D01*
X320979815Y-140582148D01*
X321114663Y-140531853D01*
X321229878Y-140445603D01*
X321316128Y-140330388D01*
X321316128Y-140330385D01*
X321320376Y-140322608D01*
X321321569Y-140323259D01*
X321357890Y-140274736D01*
X321423353Y-140250316D01*
X321432205Y-140250000D01*
X322250000Y-140250000D01*
X322250000Y-137124000D01*
X322269685Y-137056961D01*
X322322489Y-137011206D01*
X322374000Y-137000000D01*
X328999242Y-137000000D01*
X329066281Y-137019685D01*
X329086924Y-137036320D01*
X329134546Y-137083943D01*
X329134550Y-137083946D01*
X329298411Y-137193435D01*
X329298424Y-137193442D01*
X329452610Y-137257307D01*
X329480497Y-137268858D01*
X329480501Y-137268858D01*
X329480502Y-137268859D01*
X329673788Y-137307307D01*
X329673791Y-137307307D01*
X330247832Y-137307307D01*
X330314871Y-137326992D01*
X330360626Y-137379796D01*
X330371832Y-137431307D01*
X330371832Y-139035348D01*
X330371832Y-139035350D01*
X330371831Y-139035350D01*
X330410280Y-139228640D01*
X330410281Y-139228644D01*
X330412393Y-139233742D01*
X330421832Y-139281194D01*
X330421832Y-140135927D01*
X330421833Y-140135933D01*
X330428240Y-140195540D01*
X330478534Y-140330385D01*
X330482786Y-140338171D01*
X330480300Y-140339528D01*
X330499682Y-140391460D01*
X330500000Y-140400331D01*
X330500000Y-143376000D01*
X330480315Y-143443039D01*
X330427511Y-143488794D01*
X330376000Y-143500000D01*
X300874000Y-143500000D01*
X300806961Y-143480315D01*
X300761206Y-143427511D01*
X300750000Y-143376000D01*
X300750000Y-137124000D01*
X300769685Y-137056961D01*
X300822489Y-137011206D01*
X300874000Y-137000000D01*
X307349241Y-137000000D01*
X307416280Y-137019685D01*
G37*
%TD.AperFunction*%
%TD*%
%TA.AperFunction,Conductor*%
%TO.N,Net-(Q13-S)*%
G36*
X263322903Y-137259439D02*
G01*
X263462610Y-137317307D01*
X263490497Y-137328858D01*
X263490501Y-137328858D01*
X263490502Y-137328859D01*
X263683788Y-137367307D01*
X263683791Y-137367307D01*
X264257832Y-137367307D01*
X264324871Y-137386992D01*
X264370626Y-137439796D01*
X264381832Y-137491307D01*
X264381832Y-139095348D01*
X264381832Y-139095350D01*
X264381831Y-139095350D01*
X264420280Y-139288640D01*
X264420281Y-139288644D01*
X264422393Y-139293742D01*
X264431832Y-139341194D01*
X264431832Y-140345927D01*
X264431833Y-140345933D01*
X264438240Y-140405540D01*
X264488534Y-140540385D01*
X264488538Y-140540392D01*
X264574784Y-140655601D01*
X264574787Y-140655604D01*
X264689996Y-140741850D01*
X264690003Y-140741854D01*
X264824849Y-140792148D01*
X264824848Y-140792148D01*
X264831776Y-140792892D01*
X264884459Y-140798557D01*
X265780204Y-140798556D01*
X265839815Y-140792148D01*
X265974663Y-140741853D01*
X266089878Y-140655603D01*
X266121931Y-140612785D01*
X266169166Y-140549689D01*
X266225099Y-140507818D01*
X266268432Y-140500000D01*
X267250000Y-140500000D01*
X267250000Y-137374000D01*
X267269685Y-137306961D01*
X267322489Y-137261206D01*
X267374000Y-137250000D01*
X273915995Y-137250000D01*
X273983034Y-137269685D01*
X273984885Y-137270898D01*
X274108407Y-137353432D01*
X274108410Y-137353433D01*
X274108418Y-137353439D01*
X274108424Y-137353441D01*
X274108425Y-137353442D01*
X274158057Y-137374000D01*
X274290497Y-137428858D01*
X274290501Y-137428858D01*
X274290502Y-137428859D01*
X274483788Y-137467307D01*
X274483791Y-137467307D01*
X275057832Y-137467307D01*
X275124871Y-137486992D01*
X275170626Y-137539796D01*
X275181832Y-137591307D01*
X275181832Y-139195348D01*
X275181832Y-139195350D01*
X275181831Y-139195350D01*
X275220280Y-139388640D01*
X275220281Y-139388644D01*
X275222393Y-139393742D01*
X275231832Y-139441194D01*
X275231832Y-140345927D01*
X275231833Y-140345933D01*
X275238240Y-140405540D01*
X275288534Y-140540385D01*
X275288538Y-140540392D01*
X275374784Y-140655601D01*
X275374787Y-140655604D01*
X275489996Y-140741850D01*
X275490003Y-140741854D01*
X275624849Y-140792148D01*
X275624848Y-140792148D01*
X275631776Y-140792892D01*
X275684459Y-140798557D01*
X276580204Y-140798556D01*
X276639815Y-140792148D01*
X276774663Y-140741853D01*
X276889878Y-140655603D01*
X276921931Y-140612785D01*
X276969166Y-140549689D01*
X277025099Y-140507818D01*
X277068432Y-140500000D01*
X278000000Y-140500000D01*
X278000000Y-137374000D01*
X278019685Y-137306961D01*
X278072489Y-137261206D01*
X278124000Y-137250000D01*
X284996163Y-137250000D01*
X285043614Y-137259438D01*
X285090497Y-137278858D01*
X285090501Y-137278858D01*
X285090502Y-137278859D01*
X285283788Y-137317307D01*
X285283791Y-137317307D01*
X285857832Y-137317307D01*
X285924871Y-137336992D01*
X285970626Y-137389796D01*
X285981832Y-137441307D01*
X285981832Y-139045348D01*
X285981832Y-139045350D01*
X285981831Y-139045350D01*
X286020280Y-139238640D01*
X286020281Y-139238644D01*
X286022393Y-139243742D01*
X286031832Y-139291194D01*
X286031832Y-140345927D01*
X286031833Y-140345933D01*
X286038240Y-140405540D01*
X286088534Y-140540385D01*
X286088538Y-140540392D01*
X286174784Y-140655601D01*
X286174785Y-140655602D01*
X286174786Y-140655603D01*
X286174787Y-140655604D01*
X286200310Y-140674710D01*
X286242182Y-140730643D01*
X286250000Y-140773977D01*
X286250000Y-143626000D01*
X286230315Y-143693039D01*
X286177511Y-143738794D01*
X286126000Y-143750000D01*
X256624000Y-143750000D01*
X256556961Y-143730315D01*
X256511206Y-143677511D01*
X256500000Y-143626000D01*
X256500000Y-137374000D01*
X256519685Y-137306961D01*
X256572489Y-137261206D01*
X256624000Y-137250000D01*
X263275451Y-137250000D01*
X263322903Y-137259439D01*
G37*
%TD.AperFunction*%
%TD*%
%TA.AperFunction,Conductor*%
%TO.N,/PH_A*%
G36*
X218485880Y-117759439D02*
G01*
X218638098Y-117822489D01*
X218658165Y-117830801D01*
X218658169Y-117830801D01*
X218658170Y-117830802D01*
X218851456Y-117869250D01*
X218851459Y-117869250D01*
X219425500Y-117869250D01*
X219492539Y-117888935D01*
X219538294Y-117941739D01*
X219549500Y-117993250D01*
X219549500Y-119597291D01*
X219549500Y-119597293D01*
X219549499Y-119597293D01*
X219587947Y-119790578D01*
X219587949Y-119790586D01*
X219615061Y-119856040D01*
X219624500Y-119903492D01*
X219624500Y-120627870D01*
X219624501Y-120627876D01*
X219630908Y-120687483D01*
X219681202Y-120822328D01*
X219681206Y-120822335D01*
X219767452Y-120937544D01*
X219767455Y-120937547D01*
X219882664Y-121023793D01*
X219882671Y-121023797D01*
X220017517Y-121074091D01*
X220017516Y-121074091D01*
X220024444Y-121074835D01*
X220077127Y-121080500D01*
X220972872Y-121080499D01*
X221032483Y-121074091D01*
X221167331Y-121023796D01*
X221167336Y-121023791D01*
X221175109Y-121019548D01*
X221175933Y-121021057D01*
X221231543Y-121000316D01*
X221240389Y-121000000D01*
X222500000Y-121000000D01*
X222500000Y-117874000D01*
X222519685Y-117806961D01*
X222572489Y-117761206D01*
X222624000Y-117750000D01*
X228733817Y-117750000D01*
X228800856Y-117769685D01*
X228802708Y-117770898D01*
X228901079Y-117836628D01*
X228901085Y-117836631D01*
X228901086Y-117836632D01*
X229083165Y-117912052D01*
X229244389Y-117944121D01*
X229276457Y-117950499D01*
X229276458Y-117950500D01*
X229276459Y-117950500D01*
X229276460Y-117950500D01*
X229473541Y-117950500D01*
X230001459Y-117950500D01*
X230200500Y-117950500D01*
X230267539Y-117970185D01*
X230313294Y-118022989D01*
X230324500Y-118074500D01*
X230324500Y-119428541D01*
X230324500Y-119428543D01*
X230324499Y-119428543D01*
X230362947Y-119621828D01*
X230362949Y-119621836D01*
X230415061Y-119747646D01*
X230424500Y-119795098D01*
X230424500Y-120627870D01*
X230424501Y-120627876D01*
X230430908Y-120687483D01*
X230481202Y-120822328D01*
X230481206Y-120822335D01*
X230567452Y-120937544D01*
X230567455Y-120937547D01*
X230682663Y-121023792D01*
X230682665Y-121023793D01*
X230682669Y-121023796D01*
X230682673Y-121023797D01*
X230685424Y-121025300D01*
X230687649Y-121027525D01*
X230689769Y-121029112D01*
X230689540Y-121029416D01*
X230734831Y-121074704D01*
X230750000Y-121134134D01*
X230750000Y-121250000D01*
X233000000Y-121250000D01*
X233000000Y-117874000D01*
X233019685Y-117806961D01*
X233072489Y-117761206D01*
X233124000Y-117750000D01*
X240925500Y-117750000D01*
X240992539Y-117769685D01*
X241038294Y-117822489D01*
X241049500Y-117874000D01*
X241049500Y-119428541D01*
X241049500Y-119428543D01*
X241049499Y-119428543D01*
X241087947Y-119621828D01*
X241087949Y-119621836D01*
X241140061Y-119747646D01*
X241149500Y-119795098D01*
X241149500Y-120627870D01*
X241149501Y-120627876D01*
X241155908Y-120687483D01*
X241206202Y-120822328D01*
X241206206Y-120822335D01*
X241292452Y-120937544D01*
X241292455Y-120937547D01*
X241407664Y-121023793D01*
X241407666Y-121023794D01*
X241407669Y-121023796D01*
X241419331Y-121028145D01*
X241475264Y-121070014D01*
X241499684Y-121135477D01*
X241500000Y-121144328D01*
X241500000Y-121750000D01*
X242876000Y-121750000D01*
X242943039Y-121769685D01*
X242988794Y-121822489D01*
X243000000Y-121874000D01*
X243000000Y-135126000D01*
X242980315Y-135193039D01*
X242927511Y-135238794D01*
X242876000Y-135250000D01*
X211624000Y-135250000D01*
X211556961Y-135230315D01*
X211511206Y-135177511D01*
X211500000Y-135126000D01*
X211500000Y-117874000D01*
X211519685Y-117806961D01*
X211572489Y-117761206D01*
X211624000Y-117750000D01*
X218438428Y-117750000D01*
X218485880Y-117759439D01*
G37*
%TD.AperFunction*%
%TD*%
M02*
