  0
SECTION
  2
HEADER
  9
$ANGBASE
  50
0.0
  9
$ANGDIR
  70
1
  9
$MEASUREMENT
  70
1
  0
ENDSEC
  0
SECTION
  2
TABLES
  0
TABLE
  2
LTYPE
  70
4
  0
LTYPE
  5
40F
  2
CONTINUOUS
  70
0
  3
Solid line
  72
65
  73
0
  40
0.0
  0
LTYPE
  5
410
  2
DASHDOT
 70
0
  3
Dash Dot ____ _ ____ _
 72
65
 73
4
 40
2.0
 49
1.25
 49
-0.25
 49
0.25
 49
-0.25
  0
LTYPE
  5
411
  2
DASHED
 70
0
  3
Dashed __ __ __ __ __
 72
65
 73
2
 40
0.75
 49
0.5
 49
-0.25
  0
LTYPE
  5
43B
  2
DOTTED
 70
0
  3
Dotted .  .  .  .
 72
65
 73
2
 40
0.2
 49
0.0
 49
-0.2
  0
ENDTAB
  0
TABLE
  2
STYLE
  70
4
  0
STYLE
  2
KICAD
  70
0
  40
0
  41
1
  42
1
  50
0
  71
0
  3
isocp.shx
  0
STYLE
  2
KICADB
  70
0
  40
0
  41
1
  42
1
  50
0
  71
0
  3
isocp.shx
  0
STYLE
  2
KICADI
  70
0
  40
0
  41
1
  42
1
  50
15
  71
0
  3
isocp.shx
  0
STYLE
  2
KICADBI
  70
0
  40
0
  41
1
  42
1
  50
15
  71
0
  3
isocp.shx
  0
ENDTAB
  0
TABLE
  2
LAYER
  70
1
  0
LAYER
  2
BLACK
  70
0
  62
7
  6
CONTINUOUS
  0
ENDTAB
  0
ENDSEC
  0
SECTION
  2
ENTITIES
0
LINE
8
BLACK
6
CONTINUOUS
10
207.6058589999999811
20
-101.1269029999999987
11
342.564472999999964
21
-101.1605339999999984
0
LINE
8
BLACK
6
CONTINUOUS
10
342.564472999999964
20
-101.1605339999999984
11
342.5644739999999615
21
-101.1605339999999984
0
LINE
8
BLACK
6
CONTINUOUS
10
342.5644739999999615
20
-101.1605339999999984
11
342.9794279999999844
21
-101.1776940000000025
0
LINE
8
BLACK
6
CONTINUOUS
10
342.9794279999999844
20
-101.1776940000000025
11
343.39155599999998
21
-101.2290639999999939
0
LINE
8
BLACK
6
CONTINUOUS
10
343.39155599999998
20
-101.2290639999999939
11
343.7980339999999728
21
-101.3142909999999972
0
LINE
8
BLACK
6
CONTINUOUS
10
343.7980339999999728
20
-101.3142909999999972
11
344.1960849999999823
21
-101.4327940000000012
0
LINE
8
BLACK
6
CONTINUOUS
10
344.1960849999999823
20
-101.4327940000000012
11
344.5829909999999927
21
-101.5837640000000022
0
LINE
8
BLACK
6
CONTINUOUS
10
344.5829909999999927
20
-101.5837640000000022
11
344.956107999999972
21
-101.7661679999999933
0
LINE
8
BLACK
6
CONTINUOUS
10
344.956107999999972
20
-101.7661679999999933
11
345.3128879999999867
21
-101.978761999999989
0
LINE
8
BLACK
6
CONTINUOUS
10
345.3128879999999867
20
-101.978761999999989
11
345.6508939999999939
21
-102.220091999999994
0
LINE
8
BLACK
6
CONTINUOUS
10
345.6508939999999939
20
-102.220091999999994
11
345.9678159999999707
21
-102.4885109999999884
0
LINE
8
BLACK
6
CONTINUOUS
10
345.9678159999999707
20
-102.4885109999999884
11
346.2614889999999832
21
-102.7821840000000009
0
LINE
8
BLACK
6
CONTINUOUS
10
346.2614889999999832
20
-102.7821840000000009
11
346.5299079999999776
21
-103.0991059999999919
0
LINE
8
BLACK
6
CONTINUOUS
10
346.5299079999999776
20
-103.0991059999999919
11
346.7712379999999825
21
-103.4371119999999991
0
LINE
8
BLACK
6
CONTINUOUS
10
346.7712379999999825
20
-103.4371119999999991
11
346.9838320000000067
21
-103.7938919999999996
0
LINE
8
BLACK
6
CONTINUOUS
10
346.9838320000000067
20
-103.7938919999999996
11
347.1662359999999694
21
-104.1670089999999931
0
LINE
8
BLACK
6
CONTINUOUS
10
347.1662359999999694
20
-104.1670089999999931
11
347.3172059999999988
21
-104.5539149999999893
0
LINE
8
BLACK
6
CONTINUOUS
10
347.3172059999999988
20
-104.5539149999999893
11
347.4357089999999744
21
-104.9519659999999988
0
LINE
8
BLACK
6
CONTINUOUS
10
347.4357089999999744
20
-104.9519659999999988
11
347.5209360000000061
21
-105.3584439999999915
0
LINE
8
BLACK
6
CONTINUOUS
10
347.5209360000000061
20
-105.3584439999999915
11
347.5723059999999691
21
-105.7705720000000014
0
LINE
8
BLACK
6
CONTINUOUS
10
347.5723059999999691
20
-105.7705720000000014
11
347.589465999999959
21
-106.1855339999999899
0
LINE
8
BLACK
6
CONTINUOUS
10
347.589465999999959
20
-106.1855339999999899
11
347.5875699999999711
21
-106.1913679999999971
0
LINE
8
BLACK
6
CONTINUOUS
10
347.5875699999999711
20
-106.1913679999999971
11
347.6394659999999703
21
-153.1644399999999848
0
LINE
8
BLACK
6
CONTINUOUS
10
347.6394659999999703
20
-153.1644399999999848
11
347.6394619999999804
21
-153.1644560000000013
0
LINE
8
BLACK
6
CONTINUOUS
10
347.6394619999999804
20
-153.1644560000000013
11
347.6394659999999703
21
-153.1644660000000044
0
LINE
8
BLACK
6
CONTINUOUS
10
347.6394659999999703
20
-153.1644660000000044
11
347.6223059999999805
21
-153.5794280000000072
0
LINE
8
BLACK
6
CONTINUOUS
10
347.6223059999999805
20
-153.5794280000000072
11
347.5709359999999606
21
-153.9915560000000028
0
LINE
8
BLACK
6
CONTINUOUS
10
347.5709359999999606
20
-153.9915560000000028
11
347.4857089999999857
21
-154.3980339999999956
0
LINE
8
BLACK
6
CONTINUOUS
10
347.4857089999999857
20
-154.3980339999999956
11
347.3672060000000101
21
-154.796085000000005
0
LINE
8
BLACK
6
CONTINUOUS
10
347.3672060000000101
20
-154.796085000000005
11
347.2162359999999808
21
-155.182990999999987
0
LINE
8
BLACK
6
CONTINUOUS
10
347.2162359999999808
20
-155.182990999999987
11
347.0338319999999612
21
-155.5561079999999947
0
LINE
8
BLACK
6
CONTINUOUS
10
347.0338319999999612
20
-155.5561079999999947
11
346.8212379999999939
21
-155.912887999999981
0
LINE
8
BLACK
6
CONTINUOUS
10
346.8212379999999939
20
-155.912887999999981
11
346.579907999999989
21
-156.2508939999999882
0
LINE
8
BLACK
6
CONTINUOUS
10
346.579907999999989
20
-156.2508939999999882
11
346.3114889999999946
21
-156.5678159999999934
0
LINE
8
BLACK
6
CONTINUOUS
10
346.3114889999999946
20
-156.5678159999999934
11
346.0178159999999821
21
-156.8614890000000059
0
LINE
8
BLACK
6
CONTINUOUS
10
346.0178159999999821
20
-156.8614890000000059
11
345.7008940000000052
21
-157.1299080000000004
0
LINE
8
BLACK
6
CONTINUOUS
10
345.7008940000000052
20
-157.1299080000000004
11
345.3628879999999981
21
-157.3712380000000053
0
LINE
8
BLACK
6
CONTINUOUS
10
345.3628879999999981
20
-157.3712380000000053
11
345.0061079999999833
21
-157.583832000000001
0
LINE
8
BLACK
6
CONTINUOUS
10
345.0061079999999833
20
-157.583832000000001
11
344.6329910000000041
21
-157.7662359999999921
0
LINE
8
BLACK
6
CONTINUOUS
10
344.6329910000000041
20
-157.7662359999999921
11
344.2460849999999937
21
-157.9172059999999931
0
LINE
8
BLACK
6
CONTINUOUS
10
344.2460849999999937
20
-157.9172059999999931
11
343.8480339999999842
21
-158.0357089999999971
0
LINE
8
BLACK
6
CONTINUOUS
10
343.8480339999999842
20
-158.0357089999999971
11
343.4415559999999914
21
-158.1209360000000004
0
LINE
8
BLACK
6
CONTINUOUS
10
343.4415559999999914
20
-158.1209360000000004
11
343.0294279999999958
21
-158.1723059999999919
0
LINE
8
BLACK
6
CONTINUOUS
10
343.0294279999999958
20
-158.1723059999999919
11
342.6144659999999931
21
-158.1894659999999817
0
LINE
8
BLACK
6
CONTINUOUS
10
342.6144659999999931
20
-158.1894659999999817
11
342.6086039999999571
21
-158.1875609999999881
0
LINE
8
BLACK
6
CONTINUOUS
10
342.6086039999999571
20
-158.1875609999999881
11
207.6355250000000012
21
-158.1394659999999988
0
LINE
8
BLACK
6
CONTINUOUS
10
207.6355250000000012
20
-158.1394659999999988
11
207.6355219999999804
21
-158.1394650000000013
0
LINE
8
BLACK
6
CONTINUOUS
10
207.6355219999999804
20
-158.1394650000000013
11
207.2205720000000042
21
-158.1223059999999805
0
LINE
8
BLACK
6
CONTINUOUS
10
207.2205720000000042
20
-158.1223059999999805
11
206.8084439999999802
21
-158.070935999999989
0
LINE
8
BLACK
6
CONTINUOUS
10
206.8084439999999802
20
-158.070935999999989
11
206.4019659999999874
21
-157.9857089999999857
0
LINE
8
BLACK
6
CONTINUOUS
10
206.4019659999999874
20
-157.9857089999999857
11
206.0039149999999779
21
-157.8672059999999817
0
LINE
8
BLACK
6
CONTINUOUS
10
206.0039149999999779
20
-157.8672059999999817
11
205.6170089999999959
21
-157.7162359999999808
0
LINE
8
BLACK
6
CONTINUOUS
10
205.6170089999999959
20
-157.7162359999999808
11
205.2438919999999882
21
-157.5338319999999896
0
LINE
8
BLACK
6
CONTINUOUS
10
205.2438919999999882
20
-157.5338319999999896
11
204.8871120000000019
21
-157.3212379999999939
0
LINE
8
BLACK
6
CONTINUOUS
10
204.8871120000000019
20
-157.3212379999999939
11
204.5491059999999948
21
-157.079907999999989
0
LINE
8
BLACK
6
CONTINUOUS
10
204.5491059999999948
20
-157.079907999999989
11
204.2321839999999895
21
-156.8114889999999946
0
LINE
8
BLACK
6
CONTINUOUS
10
204.2321839999999895
20
-156.8114889999999946
11
203.938510999999977
21
-156.5178159999999821
0
LINE
8
BLACK
6
CONTINUOUS
10
203.938510999999977
20
-156.5178159999999821
11
203.6700919999999826
21
-156.2008940000000052
0
LINE
8
BLACK
6
CONTINUOUS
10
203.6700919999999826
20
-156.2008940000000052
11
203.4287619999999777
21
-155.8628879999999981
0
LINE
8
BLACK
6
CONTINUOUS
10
203.4287619999999777
20
-155.8628879999999981
11
203.2161679999999819
21
-155.5061079999999833
0
LINE
8
BLACK
6
CONTINUOUS
10
203.2161679999999819
20
-155.5061079999999833
11
203.0337639999999908
21
-155.1329910000000041
0
LINE
8
BLACK
6
CONTINUOUS
10
203.0337639999999908
20
-155.1329910000000041
11
202.8827939999999899
21
-154.7460849999999937
0
LINE
8
BLACK
6
CONTINUOUS
10
202.8827939999999899
20
-154.7460849999999937
11
202.7642909999999858
21
-154.3480339999999842
0
LINE
8
BLACK
6
CONTINUOUS
10
202.7642909999999858
20
-154.3480339999999842
11
202.6790639999999826
21
-153.9415559999999914
0
LINE
8
BLACK
6
CONTINUOUS
10
202.6790639999999826
20
-153.9415559999999914
11
202.6276939999999911
21
-153.5294279999999958
0
LINE
8
BLACK
6
CONTINUOUS
10
202.6276939999999911
20
-153.5294279999999958
11
202.6105340000000012
21
-153.1144659999999931
0
LINE
8
BLACK
6
CONTINUOUS
10
202.6105340000000012
20
-153.1144659999999931
11
202.6124309999999866
21
-153.1086249999999893
0
LINE
8
BLACK
6
CONTINUOUS
10
202.6124309999999866
20
-153.1086249999999893
11
202.5749999999999886
21
-106.1500190000000003
0
LINE
8
BLACK
6
CONTINUOUS
10
202.5749999999999886
20
-106.1500190000000003
11
202.5750019999999836
21
-106.1500070000000022
0
LINE
8
BLACK
6
CONTINUOUS
10
202.5750019999999836
20
-106.1500070000000022
11
202.5749999999999886
21
-106.1499999999999915
0
LINE
8
BLACK
6
CONTINUOUS
10
202.5749999999999886
20
-106.1499999999999915
11
202.5921629999999993
21
-105.7350390000000004
0
LINE
8
BLACK
6
CONTINUOUS
10
202.5921629999999993
20
-105.7350390000000004
11
202.6435339999999883
21
-105.3229120000000023
0
LINE
8
BLACK
6
CONTINUOUS
10
202.6435339999999883
20
-105.3229120000000023
11
202.728763999999984
21
-104.9164349999999928
0
LINE
8
BLACK
6
CONTINUOUS
10
202.728763999999984
20
-104.9164349999999928
11
202.8472679999999855
21
-104.518384999999995
0
LINE
8
BLACK
6
CONTINUOUS
10
202.8472679999999855
20
-104.518384999999995
11
202.9982389999999839
21
-104.1314799999999963
0
LINE
8
BLACK
6
CONTINUOUS
10
202.9982389999999839
20
-104.1314799999999963
11
203.1806440000000009
21
-103.7583640000000003
0
LINE
8
BLACK
6
CONTINUOUS
10
203.1806440000000009
20
-103.7583640000000003
11
203.3932379999999966
21
-103.4015859999999947
0
LINE
8
BLACK
6
CONTINUOUS
10
203.3932379999999966
20
-103.4015859999999947
11
203.6345689999999991
21
-103.0635809999999992
0
LINE
8
BLACK
6
CONTINUOUS
10
203.6345689999999991
20
-103.0635809999999992
11
203.902986999999996
21
-102.7466599999999914
0
LINE
8
BLACK
6
CONTINUOUS
10
203.902986999999996
20
-102.7466599999999914
11
204.1966599999999801
21
-102.4529869999999931
0
LINE
8
BLACK
6
CONTINUOUS
10
204.1966599999999801
20
-102.4529869999999931
11
204.5135809999999879
21
-102.1845689999999962
0
LINE
8
BLACK
6
CONTINUOUS
10
204.5135809999999879
20
-102.1845689999999962
11
204.8515859999999975
21
-101.9432379999999938
0
LINE
8
BLACK
6
CONTINUOUS
10
204.8515859999999975
20
-101.9432379999999938
11
205.2083639999999889
21
-101.7306439999999981
0
LINE
8
BLACK
6
CONTINUOUS
10
205.2083639999999889
20
-101.7306439999999981
11
205.5814799999999991
21
-101.5482389999999953
0
LINE
8
BLACK
6
CONTINUOUS
10
205.5814799999999991
20
-101.5482389999999953
11
205.9683849999999836
21
-101.3972679999999968
0
LINE
8
BLACK
6
CONTINUOUS
10
205.9683849999999836
20
-101.3972679999999968
11
206.3664349999999956
21
-101.2787639999999953
0
LINE
8
BLACK
6
CONTINUOUS
10
206.3664349999999956
20
-101.2787639999999953
11
206.7729119999999909
21
-101.1935339999999997
0
LINE
8
BLACK
6
CONTINUOUS
10
206.7729119999999909
20
-101.1935339999999997
11
207.1850389999999891
21
-101.1421629999999965
0
LINE
8
BLACK
6
CONTINUOUS
10
207.1850389999999891
20
-101.1421629999999965
11
207.5999999999999943
21
-101.125
0
LINE
8
BLACK
6
CONTINUOUS
10
207.5999999999999943
20
-101.125
11
207.6058589999999811
21
-101.1269029999999987
0
LINE
8
BLACK
6
CONTINUOUS
10
207.3942319999999881
20
-101.1749999999999972
11
206.9841030000000046
21
-101.2089849999999984
0
LINE
8
BLACK
6
CONTINUOUS
10
206.9841030000000046
20
-101.2089849999999984
11
206.5781810000000007
21
-101.2767209999999949
0
LINE
8
BLACK
6
CONTINUOUS
10
206.5781810000000007
20
-101.2767209999999949
11
206.1792389999999955
21
-101.3777469999999994
0
LINE
8
BLACK
6
CONTINUOUS
10
206.1792389999999955
20
-101.3777469999999994
11
205.790001999999987
21
-101.5113719999999944
0
LINE
8
BLACK
6
CONTINUOUS
10
205.790001999999987
20
-101.5113719999999944
11
205.4131289999999979
21
-101.6766839999999945
0
LINE
8
BLACK
6
CONTINUOUS
10
205.4131289999999979
20
-101.6766839999999945
11
205.0511949999999786
21
-101.8725529999999964
0
LINE
8
BLACK
6
CONTINUOUS
10
205.0511949999999786
20
-101.8725529999999964
11
204.7066719999999975
21
-102.0976409999999959
0
LINE
8
BLACK
6
CONTINUOUS
10
204.7066719999999975
20
-102.0976409999999959
11
204.3819129999999973
21
-102.350410999999994
0
LINE
8
BLACK
6
CONTINUOUS
10
204.3819129999999973
20
-102.350410999999994
11
204.079135999999977
21
-102.6291359999999884
0
LINE
8
BLACK
6
CONTINUOUS
10
204.079135999999977
20
-102.6291359999999884
11
203.8004109999999969
21
-102.9319129999999944
0
LINE
8
BLACK
6
CONTINUOUS
10
203.8004109999999969
20
-102.9319129999999944
11
203.5476409999999987
21
-103.2566719999999947
0
LINE
8
BLACK
6
CONTINUOUS
10
203.5476409999999987
20
-103.2566719999999947
11
203.3225529999999992
21
-103.6011949999999899
0
LINE
8
BLACK
6
CONTINUOUS
10
203.3225529999999992
20
-103.6011949999999899
11
203.1266839999999831
21
-103.963128999999995
0
LINE
8
BLACK
6
CONTINUOUS
10
203.1266839999999831
20
-103.963128999999995
11
202.961371999999983
21
-104.3400019999999984
0
LINE
8
BLACK
6
CONTINUOUS
10
202.961371999999983
20
-104.3400019999999984
11
202.827746999999988
21
-104.7292389999999926
0
LINE
8
BLACK
6
CONTINUOUS
10
202.827746999999988
20
-104.7292389999999926
11
202.7267209999999977
21
-105.1281809999999979
0
LINE
8
BLACK
6
CONTINUOUS
10
202.7267209999999977
20
-105.1281809999999979
11
202.6589850000000013
21
-105.5341030000000018
0
LINE
8
BLACK
6
CONTINUOUS
10
202.6589850000000013
20
-105.5341030000000018
11
202.625
21
-105.9442319999999995
0
LINE
8
BLACK
6
CONTINUOUS
10
202.625
20
-105.9442319999999995
11
202.625
21
-106.1499999999999915
0
LINE
8
BLACK
6
CONTINUOUS
10
202.625
20
-106.1499999999999915
11
202.6231019999999887
21
-106.1558399999999978
0
LINE
8
BLACK
6
CONTINUOUS
10
202.6231019999999887
20
-106.1558399999999978
11
202.6605339999999842
21
-153.1144469999999842
0
LINE
8
BLACK
6
CONTINUOUS
10
202.6605339999999842
20
-153.1144469999999842
11
202.6605309999999918
21
-153.1144579999999848
0
LINE
8
BLACK
6
CONTINUOUS
10
202.6605309999999918
20
-153.1144579999999848
11
202.6605339999999842
21
-153.1144659999999931
0
LINE
8
BLACK
6
CONTINUOUS
10
202.6605339999999842
20
-153.1144659999999931
11
202.6605329999999867
21
-153.3202339999999992
0
LINE
8
BLACK
6
CONTINUOUS
10
202.6605329999999867
20
-153.3202339999999992
11
202.6945149999999956
21
-153.7303639999999803
0
LINE
8
BLACK
6
CONTINUOUS
10
202.6945149999999956
20
-153.7303639999999803
11
202.7622489999999971
21
-154.1362879999999791
0
LINE
8
BLACK
6
CONTINUOUS
10
202.7622489999999971
20
-154.1362879999999791
11
202.8632739999999899
21
-154.5352309999999818
0
LINE
8
BLACK
6
CONTINUOUS
10
202.8632739999999899
20
-154.5352309999999818
11
202.9968969999999899
21
-154.9244689999999878
0
LINE
8
BLACK
6
CONTINUOUS
10
202.9968969999999899
20
-154.9244689999999878
11
203.1622079999999926
21
-155.3013430000000028
0
LINE
8
BLACK
6
CONTINUOUS
10
203.1622079999999926
20
-155.3013430000000028
11
203.3580769999999802
21
-155.6632789999999886
0
LINE
8
BLACK
6
CONTINUOUS
10
203.3580769999999802
20
-155.6632789999999886
11
203.5831649999999797
21
-156.0078029999999956
0
LINE
8
BLACK
6
CONTINUOUS
10
203.5831649999999797
20
-156.0078029999999956
11
203.8359349999999779
21
-156.3325629999999933
0
LINE
8
BLACK
6
CONTINUOUS
10
203.8359349999999779
20
-156.3325629999999933
11
204.1146599999999864
21
-156.6353399999999851
0
LINE
8
BLACK
6
CONTINUOUS
10
204.1146599999999864
20
-156.6353399999999851
11
204.4174369999999783
21
-156.9140649999999937
0
LINE
8
BLACK
6
CONTINUOUS
10
204.4174369999999783
20
-156.9140649999999937
11
204.7421970000000044
21
-157.1668349999999919
0
LINE
8
BLACK
6
CONTINUOUS
10
204.7421970000000044
20
-157.1668349999999919
11
205.086720999999983
21
-157.3919229999999914
0
LINE
8
BLACK
6
CONTINUOUS
10
205.086720999999983
20
-157.3919229999999914
11
205.4486569999999972
21
-157.587791999999979
0
LINE
8
BLACK
6
CONTINUOUS
10
205.4486569999999972
20
-157.587791999999979
11
205.8255309999999838
21
-157.7531029999999816
0
LINE
8
BLACK
6
CONTINUOUS
10
205.8255309999999838
20
-157.7531029999999816
11
206.2147689999999898
21
-157.8867259999999817
0
LINE
8
BLACK
6
CONTINUOUS
10
206.2147689999999898
20
-157.8867259999999817
11
206.6137119999999925
21
-157.9877510000000029
0
LINE
8
BLACK
6
CONTINUOUS
10
206.6137119999999925
20
-157.9877510000000029
11
207.0196359999999913
21
-158.0554850000000044
0
LINE
8
BLACK
6
CONTINUOUS
10
207.0196359999999913
20
-158.0554850000000044
11
207.4297660000000008
21
-158.0894669999999849
0
LINE
8
BLACK
6
CONTINUOUS
10
207.4297660000000008
20
-158.0894669999999849
11
207.6355339999999785
21
-158.0894659999999874
0
LINE
8
BLACK
6
CONTINUOUS
10
207.6355339999999785
20
-158.0894659999999874
11
207.6413949999999886
21
-158.0913699999999835
0
LINE
8
BLACK
6
CONTINUOUS
10
207.6413949999999886
20
-158.0913699999999835
11
342.6144749999999704
21
-158.1394659999999988
0
LINE
8
BLACK
6
CONTINUOUS
10
342.6144749999999704
20
-158.1394659999999988
11
342.8202339999999708
21
-158.1394669999999962
0
LINE
8
BLACK
6
CONTINUOUS
10
342.8202339999999708
20
-158.1394669999999962
11
343.2303640000000087
21
-158.1054849999999874
0
LINE
8
BLACK
6
CONTINUOUS
10
343.2303640000000087
20
-158.1054849999999874
11
343.6362879999999791
21
-158.0377509999999859
0
LINE
8
BLACK
6
CONTINUOUS
10
343.6362879999999791
20
-158.0377509999999859
11
344.0352310000000102
21
-157.9367259999999931
0
LINE
8
BLACK
6
CONTINUOUS
10
344.0352310000000102
20
-157.9367259999999931
11
344.4244689999999878
21
-157.803102999999993
0
LINE
8
BLACK
6
CONTINUOUS
10
344.4244689999999878
20
-157.803102999999993
11
344.8013429999999744
21
-157.6377919999999904
0
LINE
8
BLACK
6
CONTINUOUS
10
344.8013429999999744
20
-157.6377919999999904
11
345.1632789999999886
21
-157.4419230000000027
0
LINE
8
BLACK
6
CONTINUOUS
10
345.1632789999999886
20
-157.4419230000000027
11
345.5078029999999671
21
-157.2168350000000032
0
LINE
8
BLACK
6
CONTINUOUS
10
345.5078029999999671
20
-157.2168350000000032
11
345.8325629999999933
21
-156.9640650000000051
0
LINE
8
BLACK
6
CONTINUOUS
10
345.8325629999999933
20
-156.9640650000000051
11
346.1353399999999851
21
-156.6853399999999965
0
LINE
8
BLACK
6
CONTINUOUS
10
346.1353399999999851
20
-156.6853399999999965
11
346.4140649999999937
21
-156.3825630000000046
0
LINE
8
BLACK
6
CONTINUOUS
10
346.4140649999999937
20
-156.3825630000000046
11
346.6668349999999919
21
-156.0578030000000069
0
LINE
8
BLACK
6
CONTINUOUS
10
346.6668349999999919
20
-156.0578030000000069
11
346.8919229999999629
21
-155.713279
0
LINE
8
BLACK
6
CONTINUOUS
10
346.8919229999999629
20
-155.713279
11
347.087791999999979
21
-155.3513429999999858
0
LINE
8
BLACK
6
CONTINUOUS
10
347.087791999999979
20
-155.3513429999999858
11
347.2531030000000101
21
-154.9744689999999991
0
LINE
8
BLACK
6
CONTINUOUS
10
347.2531030000000101
20
-154.9744689999999991
11
347.3867260000000101
21
-154.5852309999999932
0
LINE
8
BLACK
6
CONTINUOUS
10
347.3867260000000101
20
-154.5852309999999932
11
347.4877510000000029
21
-154.1862879999999905
0
LINE
8
BLACK
6
CONTINUOUS
10
347.4877510000000029
20
-154.1862879999999905
11
347.555484999999976
21
-153.7803639999999916
0
LINE
8
BLACK
6
CONTINUOUS
10
347.555484999999976
20
-153.7803639999999916
11
347.5894669999999564
21
-153.3702339999999822
0
LINE
8
BLACK
6
CONTINUOUS
10
347.5894669999999564
20
-153.3702339999999822
11
347.589465999999959
21
-153.1644660000000044
0
LINE
8
BLACK
6
CONTINUOUS
10
347.589465999999959
20
-153.1644660000000044
11
347.5913610000000062
21
-153.1586299999999881
0
LINE
8
BLACK
6
CONTINUOUS
10
347.5913610000000062
20
-153.1586299999999881
11
347.5394660000000044
21
-106.1855609999999928
0
LINE
8
BLACK
6
CONTINUOUS
10
347.5394660000000044
20
-106.1855609999999928
11
347.5394689999999969
21
-106.185543999999993
0
LINE
8
BLACK
6
CONTINUOUS
10
347.5394689999999969
20
-106.185543999999993
11
347.5394660000000044
21
-106.1855339999999899
0
LINE
8
BLACK
6
CONTINUOUS
10
347.5394660000000044
20
-106.1855339999999899
11
347.5394670000000019
21
-105.9797659999999979
0
LINE
8
BLACK
6
CONTINUOUS
10
347.5394670000000019
20
-105.9797659999999979
11
347.5054849999999647
21
-105.5696359999999885
0
LINE
8
BLACK
6
CONTINUOUS
10
347.5054849999999647
20
-105.5696359999999885
11
347.4377509999999916
21
-105.1637119999999896
0
LINE
8
BLACK
6
CONTINUOUS
10
347.4377509999999916
20
-105.1637119999999896
11
347.3367259999999987
21
-104.7647690000000011
0
LINE
8
BLACK
6
CONTINUOUS
10
347.3367259999999987
20
-104.7647690000000011
11
347.2031029999999987
21
-104.3755309999999952
0
LINE
8
BLACK
6
CONTINUOUS
10
347.2031029999999987
20
-104.3755309999999952
11
347.0377919999999676
21
-103.9986569999999944
0
LINE
8
BLACK
6
CONTINUOUS
10
347.0377919999999676
20
-103.9986569999999944
11
346.8419230000000084
21
-103.6367209999999943
0
LINE
8
BLACK
6
CONTINUOUS
10
346.8419230000000084
20
-103.6367209999999943
11
346.6168349999999805
21
-103.2921970000000016
0
LINE
8
BLACK
6
CONTINUOUS
10
346.6168349999999805
20
-103.2921970000000016
11
346.3640649999999823
21
-102.9674369999999897
0
LINE
8
BLACK
6
CONTINUOUS
10
346.3640649999999823
20
-102.9674369999999897
11
346.0853399999999738
21
-102.6646599999999978
0
LINE
8
BLACK
6
CONTINUOUS
10
346.0853399999999738
20
-102.6646599999999978
11
345.7825629999999819
21
-102.3859349999999893
0
LINE
8
BLACK
6
CONTINUOUS
10
345.7825629999999819
20
-102.3859349999999893
11
345.4578030000000126
21
-102.1331649999999911
0
LINE
8
BLACK
6
CONTINUOUS
10
345.4578030000000126
20
-102.1331649999999911
11
345.1132789999999773
21
-101.9080769999999916
0
LINE
8
BLACK
6
CONTINUOUS
10
345.1132789999999773
20
-101.9080769999999916
11
344.751342999999963
21
-101.7122079999999897
0
LINE
8
BLACK
6
CONTINUOUS
10
344.751342999999963
20
-101.7122079999999897
11
344.3744689999999764
21
-101.5468970000000013
0
LINE
8
BLACK
6
CONTINUOUS
10
344.3744689999999764
20
-101.5468970000000013
11
343.9852309999999989
21
-101.4132740000000013
0
LINE
8
BLACK
6
CONTINUOUS
10
343.9852309999999989
20
-101.4132740000000013
11
343.5862879999999677
21
-101.3122489999999942
0
LINE
8
BLACK
6
CONTINUOUS
10
343.5862879999999677
20
-101.3122489999999942
11
343.1803639999999973
21
-101.2445149999999927
0
LINE
8
BLACK
6
CONTINUOUS
10
343.1803639999999973
20
-101.2445149999999927
11
342.7702339999999595
21
-101.2105329999999981
0
LINE
8
BLACK
6
CONTINUOUS
10
342.7702339999999595
20
-101.2105329999999981
11
342.5644659999999817
21
-101.2105339999999956
0
LINE
8
BLACK
6
CONTINUOUS
10
342.5644659999999817
20
-101.2105339999999956
11
342.5586059999999975
21
-101.2086299999999994
0
LINE
8
BLACK
6
CONTINUOUS
10
342.5586059999999975
20
-101.2086299999999994
11
207.5999929999999836
21
-101.1749999999999972
0
LINE
8
BLACK
6
CONTINUOUS
10
207.5999929999999836
20
-101.1749999999999972
11
207.3942319999999881
21
-101.1749999999999972
  0
ENDSEC
  0
EOF
