%TF.GenerationSoftware,KiCad,Pcbnew,8.0.1*%
%TF.CreationDate,2024-05-07T00:04:45+05:00*%
%TF.ProjectId,PowerBoard,506f7765-7242-46f6-9172-642e6b696361,rev?*%
%TF.SameCoordinates,Original*%
%TF.FileFunction,Paste,Top*%
%TF.FilePolarity,Positive*%
%FSLAX46Y46*%
G04 Gerber Fmt 4.6, Leading zero omitted, Abs format (unit mm)*
G04 Created by KiCad (PCBNEW 8.0.1) date 2024-05-07 00:04:45*
%MOMM*%
%LPD*%
G01*
G04 APERTURE LIST*
G04 Aperture macros list*
%AMRoundRect*
0 Rectangle with rounded corners*
0 $1 Rounding radius*
0 $2 $3 $4 $5 $6 $7 $8 $9 X,Y pos of 4 corners*
0 Add a 4 corners polygon primitive as box body*
4,1,4,$2,$3,$4,$5,$6,$7,$8,$9,$2,$3,0*
0 Add four circle primitives for the rounded corners*
1,1,$1+$1,$2,$3*
1,1,$1+$1,$4,$5*
1,1,$1+$1,$6,$7*
1,1,$1+$1,$8,$9*
0 Add four rect primitives between the rounded corners*
20,1,$1+$1,$2,$3,$4,$5,0*
20,1,$1+$1,$4,$5,$6,$7,0*
20,1,$1+$1,$6,$7,$8,$9,0*
20,1,$1+$1,$8,$9,$2,$3,0*%
G04 Aperture macros list end*
%ADD10RoundRect,0.225000X-0.375000X0.225000X-0.375000X-0.225000X0.375000X-0.225000X0.375000X0.225000X0*%
%ADD11RoundRect,0.250000X-0.625000X0.312500X-0.625000X-0.312500X0.625000X-0.312500X0.625000X0.312500X0*%
G04 APERTURE END LIST*
D10*
%TO.C,D2*%
X228500000Y-112050000D03*
X228500000Y-115350000D03*
%TD*%
%TO.C,D9*%
X262482332Y-112348057D03*
X262482332Y-115648057D03*
%TD*%
%TO.C,D4*%
X239500000Y-132050000D03*
X239500000Y-135350000D03*
%TD*%
D11*
%TO.C,R27*%
X309232332Y-131938057D03*
X309232332Y-134863057D03*
%TD*%
%TO.C,R25*%
X330822332Y-131988057D03*
X330822332Y-134913057D03*
%TD*%
%TO.C,R3*%
X220050000Y-112537500D03*
X220050000Y-115462500D03*
%TD*%
%TO.C,R24*%
X264782332Y-131885557D03*
X264782332Y-134810557D03*
%TD*%
%TO.C,R20*%
X231050000Y-132337500D03*
X231050000Y-135262500D03*
%TD*%
D10*
%TO.C,D17*%
X317672332Y-111938057D03*
X317672332Y-115238057D03*
%TD*%
D11*
%TO.C,R1*%
X241650000Y-112187500D03*
X241650000Y-115112500D03*
%TD*%
%TO.C,R4*%
X286482332Y-112285557D03*
X286482332Y-115210557D03*
%TD*%
D10*
%TO.C,D1*%
X239250000Y-112100000D03*
X239250000Y-115400000D03*
%TD*%
%TO.C,D18*%
X328472332Y-111938057D03*
X328472332Y-115238057D03*
%TD*%
D11*
%TO.C,R19*%
X241850000Y-132337500D03*
X241850000Y-135262500D03*
%TD*%
%TO.C,R22*%
X286432332Y-131948057D03*
X286432332Y-134873057D03*
%TD*%
%TO.C,R5*%
X275632332Y-112385557D03*
X275632332Y-115310557D03*
%TD*%
D10*
%TO.C,D15*%
X306872332Y-131688057D03*
X306872332Y-134988057D03*
%TD*%
D11*
%TO.C,R7*%
X330872332Y-112175557D03*
X330872332Y-115100557D03*
%TD*%
%TO.C,R23*%
X275582332Y-131885557D03*
X275582332Y-134810557D03*
%TD*%
%TO.C,R9*%
X309272332Y-112075557D03*
X309272332Y-115000557D03*
%TD*%
D10*
%TO.C,D10*%
X284082332Y-131810557D03*
X284082332Y-135110557D03*
%TD*%
D11*
%TO.C,R8*%
X320022332Y-112225557D03*
X320022332Y-115150557D03*
%TD*%
D10*
%TO.C,D16*%
X306922332Y-111788057D03*
X306922332Y-115088057D03*
%TD*%
%TO.C,D12*%
X262432332Y-131748057D03*
X262432332Y-135048057D03*
%TD*%
%TO.C,D8*%
X273132332Y-112148057D03*
X273132332Y-115448057D03*
%TD*%
%TO.C,D7*%
X283932332Y-111998057D03*
X283932332Y-115298057D03*
%TD*%
%TO.C,D3*%
X217750000Y-112300000D03*
X217750000Y-115600000D03*
%TD*%
D11*
%TO.C,R2*%
X230900000Y-112287500D03*
X230900000Y-115212500D03*
%TD*%
%TO.C,R21*%
X220350000Y-132137500D03*
X220350000Y-135062500D03*
%TD*%
D10*
%TO.C,D13*%
X328422332Y-131700557D03*
X328422332Y-135000557D03*
%TD*%
%TO.C,D6*%
X217900000Y-131850000D03*
X217900000Y-135150000D03*
%TD*%
%TO.C,D14*%
X317672332Y-131575557D03*
X317672332Y-134875557D03*
%TD*%
%TO.C,D11*%
X273239832Y-131788057D03*
X273239832Y-135088057D03*
%TD*%
D11*
%TO.C,R26*%
X320022332Y-131825557D03*
X320022332Y-134750557D03*
%TD*%
D10*
%TO.C,D5*%
X228612500Y-132110000D03*
X228612500Y-135410000D03*
%TD*%
D11*
%TO.C,R6*%
X264882332Y-112585557D03*
X264882332Y-115510557D03*
%TD*%
M02*
