M48
; DRILL file {KiCad 8.0.1} date 2024-05-07T00:12:36+0500
; FORMAT={-:-/ absolute / metric / decimal}
; #@! TF.CreationDate,2024-05-07T00:12:36+05:00
; #@! TF.GenerationSoftware,Kicad,Pcbnew,8.0.1
; #@! TF.FileFunction,Plated,1,4,PTH
FMAT,2
METRIC
; #@! TA.AperFunction,Plated,PTH,ComponentDrill
T1C0.200
; #@! TA.AperFunction,Plated,PTH,ViaDrill
T2C0.300
; #@! TA.AperFunction,Plated,PTH,ComponentDrill
T3C0.300
; #@! TA.AperFunction,Plated,PTH,ComponentDrill
T4C0.500
; #@! TA.AperFunction,Plated,PTH,ComponentDrill
T5C0.750
; #@! TA.AperFunction,Plated,PTH,ComponentDrill
T6C0.800
; #@! TA.AperFunction,Plated,PTH,ComponentDrill
T7C1.000
%
G90
G05
T1
X214.3Y-141.59
X214.3Y-142.84
X214.3Y-144.09
X215.375Y-141.59
X215.375Y-142.84
X215.375Y-144.09
X216.45Y-141.59
X216.45Y-142.84
X216.45Y-144.09
X259.435Y-141.49
X259.435Y-142.74
X259.435Y-143.99
X260.51Y-141.49
X260.51Y-142.74
X260.51Y-143.99
X261.585Y-141.49
X261.585Y-142.74
X261.585Y-143.99
X292.5Y-134.875
X292.5Y-135.95
X292.5Y-137.025
X293.75Y-134.875
X293.75Y-135.95
X293.75Y-137.025
X295.0Y-134.875
X295.0Y-135.95
X295.0Y-137.025
T2
X203.825Y-91.85
X204.515Y-93.56
X204.515Y-96.1
X204.515Y-98.64
X204.515Y-101.18
X204.515Y-134.2
X204.515Y-136.74
X204.515Y-154.52
X207.055Y-101.18
X207.055Y-134.2
X207.8Y-140.89
X208.05Y-88.2
X208.45Y-125.55
X208.55Y-93.7
X209.595Y-88.48
X209.595Y-96.1
X209.595Y-106.26
X209.595Y-118.96
X209.595Y-134.2
X209.595Y-149.44
X210.36Y-138.29
X210.575Y-139.35
X210.6Y-104.5
X211.05Y-99.2
X211.1Y-136.327
X211.15Y-95.1
X211.56Y-143.84
X212.135Y-88.48
X212.135Y-106.26
X212.135Y-111.34
X212.135Y-118.96
X212.135Y-121.5
X212.135Y-149.44
X212.9Y-125.4
X214.1Y-125.6
X214.45Y-131.0
X214.675Y-111.34
X214.675Y-118.96
X214.675Y-121.5
X214.675Y-136.74
X214.675Y-149.44
X214.7Y-128.9
X215.625Y-128.1
X217.215Y-111.34
X217.215Y-134.2
X217.215Y-136.74
X217.95Y-106.3
X219.375Y-142.09
X219.41Y-140.64
X219.755Y-111.34
X219.755Y-116.42
X219.755Y-136.74
X219.755Y-146.9
X220.36Y-140.64
X221.325Y-142.6
X222.295Y-98.64
X222.295Y-111.34
X222.295Y-116.42
X222.295Y-118.96
X222.295Y-129.12
X222.295Y-131.66
X222.295Y-134.2
X222.295Y-149.44
X224.2Y-126.2
X224.835Y-111.34
X224.835Y-116.42
X224.835Y-118.96
X224.835Y-129.12
X224.835Y-131.66
X224.835Y-134.2
X224.835Y-136.74
X224.835Y-149.44
X226.15Y-105.8
X227.375Y-96.1
X227.375Y-98.64
X227.375Y-113.88
X227.375Y-136.74
X228.692Y-132.507
X228.75Y-101.0
X228.85Y-85.7
X228.868Y-128.9
X229.1Y-119.6
X229.5Y-145.8
X229.915Y-151.435
X229.915Y-96.1
X229.915Y-98.64
X229.915Y-111.34
X229.915Y-116.42
X229.95Y-104.1
X230.075Y-152.7
X230.283Y-135.507
X230.35Y-90.0
X230.9Y-119.462
X231.15Y-92.3
X231.693Y-136.507
X232.425Y-150.01
X232.45Y-84.4
X232.455Y-101.18
X232.455Y-103.72
X232.455Y-111.34
X232.455Y-116.42
X232.455Y-121.5
X232.493Y-124.154
X232.693Y-132.257
X232.975Y-141.025
X233.528Y-131.257
X234.468Y-129.757
X234.65Y-92.975
X234.784Y-111.049
X234.9Y-107.5
X234.995Y-85.94
X234.995Y-96.1
X234.995Y-116.42
X234.995Y-146.9
X235.25Y-140.65
X236.15Y-87.9
X236.35Y-90.8
X236.4Y-139.9
X236.45Y-96.7
X236.8Y-115.886
X237.15Y-133.175
X237.2Y-114.45
X237.535Y-85.94
X237.535Y-93.56
X237.535Y-98.64
X238.0Y-111.2
X238.0Y-145.75
X238.55Y-152.65
X239.15Y-99.4
X239.7Y-111.6
X239.875Y-123.725
X240.025Y-131.575
X240.05Y-113.3
X240.075Y-85.94
X240.075Y-103.72
X240.15Y-146.6
X240.2Y-149.9
X240.65Y-105.9
X240.85Y-99.6
X241.915Y-118.812
X242.615Y-85.94
X242.615Y-96.1
X242.615Y-103.72
X242.615Y-139.28
X242.615Y-151.98
X242.976Y-128.075
X243.15Y-106.15
X243.35Y-119.3
X243.925Y-117.025
X244.05Y-129.85
X244.552Y-118.479
X244.6Y-121.075
X244.9Y-109.225
X245.155Y-91.02
X245.155Y-93.56
X245.155Y-103.72
X245.155Y-136.74
X245.155Y-139.28
X245.155Y-144.36
X245.34Y-117.69
X245.635Y-119.235
X245.65Y-84.9
X245.725Y-121.825
X245.875Y-130.1
X246.3Y-153.85
X246.4Y-114.75
X246.45Y-119.1
X246.5Y-141.15
X246.7Y-132.5
X246.9Y-134.65
X247.1Y-108.1
X247.25Y-115.6
X247.35Y-113.45
X247.36Y-129.207
X247.625Y-120.7
X247.695Y-144.36
X247.695Y-146.9
X247.695Y-149.44
X247.695Y-151.98
X247.9Y-107.375
X248.15Y-116.4
X248.45Y-115.0
X248.85Y-121.7
X249.2Y-122.7
X249.275Y-113.425
X249.475Y-126.65
X250.0Y-99.575
X250.225Y-92.5
X250.235Y-96.1
X250.235Y-131.66
X250.518Y-114.75
X250.75Y-135.05
X251.05Y-85.1
X251.4Y-115.631
X252.1Y-119.0
X252.15Y-120.175
X252.45Y-87.6
X252.775Y-134.2
X252.885Y-139.915
X252.95Y-90.6
X253.2Y-113.0
X253.45Y-123.45
X253.55Y-93.8
X253.9Y-106.75
X254.175Y-98.975
X255.315Y-108.8
X255.315Y-149.44
X255.5Y-137.3
X256.3Y-123.55
X256.475Y-119.275
X256.76Y-143.64
X256.8Y-106.475
X257.325Y-117.2
X257.356Y-129.869
X257.855Y-108.8
X257.855Y-139.28
X257.855Y-149.44
X258.15Y-98.4
X258.325Y-116.55
X260.125Y-99.525
X260.395Y-96.1
X260.395Y-134.2
X260.395Y-149.44
X260.55Y-121.425
X260.55Y-119.225
X262.275Y-102.05
X262.9Y-110.9
X263.05Y-137.1
X263.725Y-104.65
X263.75Y-150.975
X263.85Y-152.45
X264.05Y-113.0
X264.51Y-141.99
X264.56Y-140.49
X265.125Y-125.925
X265.475Y-85.94
X265.475Y-91.02
X265.475Y-149.44
X265.51Y-140.59
X265.725Y-114.65
X266.325Y-105.725
X266.95Y-110.0
X267.0Y-112.25
X267.645Y-98.375
X267.95Y-103.9
X268.0Y-138.0
X268.015Y-126.58
X268.015Y-134.2
X268.015Y-144.36
X268.015Y-149.44
X269.645Y-91.625
X269.775Y-121.275
X270.555Y-134.2
X271.062Y-152.938
X271.677Y-151.322
X271.75Y-124.15
X271.775Y-119.275
X272.0Y-126.75
X273.012Y-149.188
X273.075Y-112.325
X273.095Y-134.2
X273.095Y-139.28
X273.095Y-144.36
X273.275Y-100.05
X273.4Y-96.7
X273.5Y-124.525
X273.675Y-102.0
X274.9Y-146.85
X275.635Y-88.48
X275.635Y-91.02
X275.635Y-93.56
X275.635Y-116.42
X275.635Y-134.2
X275.635Y-139.28
X276.75Y-98.35
X276.852Y-149.297
X277.05Y-97.1
X277.2Y-117.1
X277.214Y-105.641
X277.775Y-125.2
X278.15Y-103.85
X278.175Y-113.88
X278.175Y-134.2
X278.175Y-139.28
X278.473Y-107.068
X279.35Y-145.25
X279.635Y-108.31
X280.715Y-91.02
X280.715Y-111.34
X280.715Y-116.42
X280.715Y-134.2
X280.715Y-139.28
X280.715Y-154.52
X281.6Y-149.25
X281.7Y-142.0
X282.1Y-144.5
X283.25Y-116.9
X283.255Y-108.8
X283.255Y-124.04
X283.255Y-134.2
X283.255Y-139.28
X283.255Y-151.98
X283.255Y-154.52
X283.325Y-105.0
X283.525Y-103.85
X284.2Y-119.075
X285.795Y-111.34
X285.795Y-113.88
X285.795Y-124.04
X285.795Y-134.2
X285.795Y-139.28
X285.795Y-154.52
X286.25Y-106.95
X287.15Y-105.85
X287.8Y-146.05
X288.335Y-103.72
X288.335Y-111.34
X288.335Y-134.2
X288.335Y-141.82
X288.335Y-154.52
X290.875Y-101.18
X290.875Y-121.5
X290.875Y-136.74
X290.875Y-146.9
X290.875Y-154.52
X291.1Y-130.85
X291.6Y-124.6
X291.85Y-131.95
X292.0Y-143.6
X292.15Y-115.75
X292.75Y-130.95
X293.415Y-88.48
X293.415Y-154.52
X294.5Y-139.75
X295.65Y-130.75
X295.955Y-88.48
X295.955Y-106.26
X295.955Y-154.52
X297.075Y-112.0
X298.495Y-124.04
X298.495Y-126.58
X298.495Y-129.12
X298.495Y-131.66
X298.495Y-154.52
T3
X218.25Y-99.65
X218.25Y-100.95
X218.25Y-102.25
X218.25Y-103.55
X218.25Y-104.85
X219.55Y-99.65
X219.55Y-100.95
X219.55Y-102.25
X219.55Y-103.55
X219.55Y-104.85
X220.85Y-99.65
X220.85Y-100.95
X220.85Y-102.25
X220.85Y-103.55
X220.85Y-104.85
X233.6Y-89.05
X233.6Y-90.05
X234.6Y-89.05
X234.6Y-90.05
X250.2Y-88.75
X250.2Y-89.75
X251.2Y-88.75
X251.2Y-89.75
T4
X292.1Y-107.0
X293.1Y-107.0
X294.1Y-107.0
T5
X206.0Y-107.7
X206.0Y-109.7
X206.0Y-111.7
X206.0Y-113.7
X206.0Y-115.7
X206.0Y-117.7
X206.0Y-119.7
X206.0Y-121.7
X266.895Y-87.65
X268.895Y-87.65
X270.895Y-87.65
X272.895Y-87.65
X278.4Y-87.65
X280.4Y-87.65
X282.4Y-87.65
X298.45Y-86.25
X298.45Y-88.25
X298.45Y-90.25
X298.45Y-92.25
X298.5Y-97.4
X298.5Y-99.4
X298.5Y-101.4
X298.5Y-103.4
X298.5Y-105.4
X298.5Y-107.4
T6
X286.825Y-87.1
X286.825Y-89.1
X286.825Y-91.1
X286.825Y-93.1
X286.825Y-95.1
X288.825Y-89.1
X288.825Y-91.1
X288.825Y-93.1
X288.825Y-95.1
X288.825Y-87.1
T7
X205.31Y-144.01
X205.31Y-146.55
X205.31Y-149.09
X205.31Y-151.63
X205.85Y-127.9
X205.85Y-130.44
X207.85Y-144.01
X207.85Y-146.55
X207.85Y-149.09
X207.85Y-151.63
X248.98Y-103.45
X250.26Y-144.01
X250.26Y-146.55
X250.26Y-149.09
X250.26Y-151.63
X251.52Y-103.45
X252.8Y-144.01
X252.8Y-146.55
X252.8Y-149.09
X252.8Y-151.63
X254.06Y-103.45
X256.6Y-103.45
X259.14Y-103.45
X294.77Y-143.66
X294.77Y-146.2
X294.77Y-148.74
X294.77Y-151.28
X297.31Y-143.66
X297.31Y-146.2
X297.31Y-148.74
X297.31Y-151.28
M30
