G04 #@! TF.GenerationSoftware,KiCad,Pcbnew,8.0.1*
G04 #@! TF.CreationDate,2024-05-07T00:12:20+05:00*
G04 #@! TF.ProjectId,MyVesc,4d795665-7363-42e6-9b69-6361645f7063,rev?*
G04 #@! TF.SameCoordinates,Original*
G04 #@! TF.FileFunction,Soldermask,Top*
G04 #@! TF.FilePolarity,Negative*
%FSLAX46Y46*%
G04 Gerber Fmt 4.6, Leading zero omitted, Abs format (unit mm)*
G04 Created by KiCad (PCBNEW 8.0.1) date 2024-05-07 00:12:20*
%MOMM*%
%LPD*%
G01*
G04 APERTURE LIST*
G04 Aperture macros list*
%AMRoundRect*
0 Rectangle with rounded corners*
0 $1 Rounding radius*
0 $2 $3 $4 $5 $6 $7 $8 $9 X,Y pos of 4 corners*
0 Add a 4 corners polygon primitive as box body*
4,1,4,$2,$3,$4,$5,$6,$7,$8,$9,$2,$3,0*
0 Add four circle primitives for the rounded corners*
1,1,$1+$1,$2,$3*
1,1,$1+$1,$4,$5*
1,1,$1+$1,$6,$7*
1,1,$1+$1,$8,$9*
0 Add four rect primitives between the rounded corners*
20,1,$1+$1,$2,$3,$4,$5,0*
20,1,$1+$1,$4,$5,$6,$7,0*
20,1,$1+$1,$6,$7,$8,$9,0*
20,1,$1+$1,$8,$9,$2,$3,0*%
%AMRotRect*
0 Rectangle, with rotation*
0 The origin of the aperture is its center*
0 $1 length*
0 $2 width*
0 $3 Rotation angle, in degrees counterclockwise*
0 Add horizontal line*
21,1,$1,$2,0,0,$3*%
G04 Aperture macros list end*
%ADD10RoundRect,0.200000X0.275000X-0.200000X0.275000X0.200000X-0.275000X0.200000X-0.275000X-0.200000X0*%
%ADD11RoundRect,0.200000X-0.053033X0.335876X-0.335876X0.053033X0.053033X-0.335876X0.335876X-0.053033X0*%
%ADD12RoundRect,0.250000X-0.450000X0.262500X-0.450000X-0.262500X0.450000X-0.262500X0.450000X0.262500X0*%
%ADD13RoundRect,0.225000X-0.250000X0.225000X-0.250000X-0.225000X0.250000X-0.225000X0.250000X0.225000X0*%
%ADD14RoundRect,0.250000X0.450000X-0.262500X0.450000X0.262500X-0.450000X0.262500X-0.450000X-0.262500X0*%
%ADD15RoundRect,0.225000X0.225000X0.250000X-0.225000X0.250000X-0.225000X-0.250000X0.225000X-0.250000X0*%
%ADD16RoundRect,0.225000X0.250000X-0.225000X0.250000X0.225000X-0.250000X0.225000X-0.250000X-0.225000X0*%
%ADD17RoundRect,0.200000X-0.275000X0.200000X-0.275000X-0.200000X0.275000X-0.200000X0.275000X0.200000X0*%
%ADD18R,0.675000X0.250000*%
%ADD19R,0.250000X0.675000*%
%ADD20RoundRect,0.225000X-0.335876X-0.017678X-0.017678X-0.335876X0.335876X0.017678X0.017678X0.335876X0*%
%ADD21RoundRect,0.225000X-0.225000X-0.250000X0.225000X-0.250000X0.225000X0.250000X-0.225000X0.250000X0*%
%ADD22RoundRect,0.250000X1.100000X-0.325000X1.100000X0.325000X-1.100000X0.325000X-1.100000X-0.325000X0*%
%ADD23RoundRect,0.250000X0.412500X0.925000X-0.412500X0.925000X-0.412500X-0.925000X0.412500X-0.925000X0*%
%ADD24RotRect,1.400000X1.200000X225.000000*%
%ADD25RoundRect,0.150000X-0.675000X-0.150000X0.675000X-0.150000X0.675000X0.150000X-0.675000X0.150000X0*%
%ADD26R,2.650000X3.000000*%
%ADD27RoundRect,0.250000X-0.262500X-0.450000X0.262500X-0.450000X0.262500X0.450000X-0.262500X0.450000X0*%
%ADD28O,0.850000X0.250000*%
%ADD29R,1.800000X1.650000*%
%ADD30RoundRect,0.225000X-0.017678X0.335876X-0.335876X0.017678X0.017678X-0.335876X0.335876X-0.017678X0*%
%ADD31C,1.000000*%
%ADD32R,2.000000X0.500000*%
%ADD33R,1.700000X2.000000*%
%ADD34R,1.700000X1.700000*%
%ADD35O,1.700000X1.700000*%
%ADD36R,3.000000X3.100000*%
%ADD37RoundRect,0.100000X-0.687500X-0.100000X0.687500X-0.100000X0.687500X0.100000X-0.687500X0.100000X0*%
%ADD38RoundRect,0.250000X0.262500X0.450000X-0.262500X0.450000X-0.262500X-0.450000X0.262500X-0.450000X0*%
%ADD39RoundRect,0.075000X-0.548008X0.441942X0.441942X-0.548008X0.548008X-0.441942X-0.441942X0.548008X0*%
%ADD40RoundRect,0.075000X-0.548008X-0.441942X-0.441942X-0.548008X0.548008X0.441942X0.441942X0.548008X0*%
%ADD41RoundRect,0.250000X-0.625000X0.350000X-0.625000X-0.350000X0.625000X-0.350000X0.625000X0.350000X0*%
%ADD42O,1.750000X1.200000*%
%ADD43RoundRect,0.225000X0.017678X-0.335876X0.335876X-0.017678X-0.017678X0.335876X-0.335876X0.017678X0*%
%ADD44RoundRect,0.200000X0.200000X0.275000X-0.200000X0.275000X-0.200000X-0.275000X0.200000X-0.275000X0*%
%ADD45RoundRect,0.218750X-0.026517X0.335876X-0.335876X0.026517X0.026517X-0.335876X0.335876X-0.026517X0*%
%ADD46RoundRect,0.200000X-0.200000X-0.275000X0.200000X-0.275000X0.200000X0.275000X-0.200000X0.275000X0*%
%ADD47RoundRect,0.250000X-0.925000X0.412500X-0.925000X-0.412500X0.925000X-0.412500X0.925000X0.412500X0*%
%ADD48RoundRect,0.100000X0.225000X0.100000X-0.225000X0.100000X-0.225000X-0.100000X0.225000X-0.100000X0*%
%ADD49RoundRect,0.225000X0.335876X0.017678X0.017678X0.335876X-0.335876X-0.017678X-0.017678X-0.335876X0*%
%ADD50RoundRect,0.250000X-0.475000X0.250000X-0.475000X-0.250000X0.475000X-0.250000X0.475000X0.250000X0*%
%ADD51R,4.500000X1.750000*%
%ADD52RoundRect,0.150000X0.150000X-0.825000X0.150000X0.825000X-0.150000X0.825000X-0.150000X-0.825000X0*%
%ADD53RoundRect,0.250000X0.350000X0.625000X-0.350000X0.625000X-0.350000X-0.625000X0.350000X-0.625000X0*%
%ADD54O,1.200000X1.750000*%
%ADD55R,1.350000X1.350000*%
%ADD56O,1.350000X1.350000*%
%ADD57RoundRect,0.150000X0.150000X-0.675000X0.150000X0.675000X-0.150000X0.675000X-0.150000X-0.675000X0*%
%ADD58R,3.000000X2.650000*%
%ADD59RoundRect,0.250000X0.625000X-0.350000X0.625000X0.350000X-0.625000X0.350000X-0.625000X-0.350000X0*%
%ADD60RoundRect,0.200000X0.335876X0.053033X0.053033X0.335876X-0.335876X-0.053033X-0.053033X-0.335876X0*%
%ADD61R,0.850000X0.850000*%
%ADD62O,0.850000X0.850000*%
%ADD63R,2.900000X5.400000*%
%ADD64RoundRect,0.100000X-0.100000X0.225000X-0.100000X-0.225000X0.100000X-0.225000X0.100000X0.225000X0*%
%ADD65C,0.600000*%
%ADD66C,0.700000*%
G04 APERTURE END LIST*
D10*
X294500000Y-105025000D03*
X294500000Y-103375000D03*
D11*
X275300000Y-110100000D03*
X274133274Y-111266726D03*
D12*
X208760419Y-136327500D03*
X208760419Y-138152500D03*
D13*
X282400000Y-92425000D03*
X282400000Y-93975000D03*
X232942501Y-133232498D03*
X232942501Y-134782498D03*
D14*
X230350000Y-87212500D03*
X230350000Y-85387500D03*
D15*
X210585419Y-140890000D03*
X209035419Y-140890000D03*
D16*
X224550000Y-102025000D03*
X224550000Y-100475000D03*
D17*
X241437500Y-148015000D03*
X241437500Y-149665000D03*
D18*
X228870001Y-133012499D03*
X228870001Y-133512499D03*
X228870001Y-134012499D03*
X228870001Y-134512499D03*
D19*
X229632501Y-134774999D03*
X230132501Y-134775000D03*
X230632501Y-134774999D03*
D18*
X231395001Y-134512499D03*
X231395001Y-134012499D03*
X231395001Y-133512499D03*
X231395001Y-133012499D03*
D19*
X230632501Y-132749999D03*
X230132501Y-132749998D03*
X229632501Y-132749999D03*
D20*
X238362114Y-114905368D03*
X239458130Y-116001384D03*
D21*
X248600000Y-91600000D03*
X250150000Y-91600000D03*
D10*
X291400000Y-105025000D03*
X291400000Y-103375000D03*
D22*
X213050000Y-102225000D03*
X213050000Y-99275000D03*
D23*
X240687500Y-95800000D03*
X237612500Y-95800000D03*
D13*
X283350000Y-142225000D03*
X283350000Y-143775000D03*
D21*
X293975000Y-140825000D03*
X295525000Y-140825000D03*
D24*
X238210831Y-105375909D03*
X236655196Y-106931544D03*
X237857277Y-108133625D03*
X239412912Y-106577990D03*
D25*
X257885419Y-140835000D03*
X257885419Y-142105000D03*
X257885419Y-143375000D03*
X257885419Y-144645000D03*
X263135419Y-144645000D03*
X263135419Y-143375000D03*
X263135419Y-142105000D03*
X263135419Y-140835000D03*
D26*
X260510419Y-142740000D03*
D10*
X292950000Y-105025000D03*
X292950000Y-103375000D03*
D20*
X240001992Y-121551992D03*
X241098008Y-122648008D03*
D11*
X276515339Y-111288824D03*
X275348613Y-112455550D03*
D27*
X288100000Y-125000000D03*
X289925000Y-125000000D03*
D28*
X249250000Y-88500000D03*
X249250000Y-89000000D03*
X249250000Y-89500000D03*
X249250000Y-90000000D03*
X252150000Y-90000000D03*
X252150000Y-89500000D03*
X252150000Y-89000000D03*
X252150000Y-88500000D03*
D29*
X250700000Y-89250000D03*
D13*
X253950000Y-87975000D03*
X253950000Y-89525000D03*
X242987500Y-148065000D03*
X242987500Y-149615000D03*
D14*
X224800000Y-105662500D03*
X224800000Y-103837500D03*
D30*
X246423134Y-109213155D03*
X245327118Y-110309171D03*
D31*
X297450000Y-120850000D03*
X297450000Y-116450000D03*
D32*
X294750000Y-120250000D03*
X294750000Y-119450000D03*
X294750000Y-118650000D03*
X294750000Y-117850000D03*
X294750000Y-117050000D03*
D33*
X294850000Y-123100000D03*
X300300000Y-123100000D03*
X294850000Y-114200000D03*
X300300000Y-114200000D03*
D21*
X258025000Y-121025004D03*
X259575000Y-121025004D03*
D13*
X255760419Y-143215000D03*
X255760419Y-144765000D03*
D34*
X259140000Y-103450000D03*
D35*
X256600000Y-103450000D03*
X254060000Y-103450000D03*
X251520000Y-103450000D03*
X248980000Y-103450000D03*
D15*
X270540000Y-103900000D03*
X268990000Y-103900000D03*
D36*
X219550000Y-102250000D03*
D37*
X216687500Y-100300000D03*
X216687500Y-100950000D03*
X216687500Y-101600000D03*
X216687500Y-102250000D03*
X216687500Y-102900000D03*
X216687500Y-103550000D03*
X216687500Y-104200000D03*
X222412500Y-104200000D03*
X222412500Y-103550000D03*
X222412500Y-102900000D03*
X222412500Y-102250000D03*
X222412500Y-101600000D03*
X222412500Y-100950000D03*
X222412500Y-100300000D03*
D38*
X234362500Y-152922498D03*
X232537500Y-152922498D03*
D39*
X246988819Y-111935519D03*
X246635266Y-112289072D03*
X246281713Y-112642625D03*
X245928159Y-112996179D03*
X245574606Y-113349732D03*
X245221052Y-113703286D03*
X244867499Y-114056839D03*
X244513946Y-114410392D03*
X244160392Y-114763946D03*
X243806839Y-115117499D03*
X243453286Y-115471052D03*
X243099732Y-115824606D03*
X242746179Y-116178159D03*
X242392625Y-116531713D03*
X242039072Y-116885266D03*
X241685519Y-117238819D03*
D40*
X241685519Y-119961181D03*
X242039072Y-120314734D03*
X242392625Y-120668287D03*
X242746179Y-121021841D03*
X243099732Y-121375394D03*
X243453286Y-121728948D03*
X243806839Y-122082501D03*
X244160392Y-122436054D03*
X244513946Y-122789608D03*
X244867499Y-123143161D03*
X245221052Y-123496714D03*
X245574606Y-123850268D03*
X245928159Y-124203821D03*
X246281713Y-124557375D03*
X246635266Y-124910928D03*
X246988819Y-125264481D03*
D39*
X249711181Y-125264481D03*
X250064734Y-124910928D03*
X250418287Y-124557375D03*
X250771841Y-124203821D03*
X251125394Y-123850268D03*
X251478948Y-123496714D03*
X251832501Y-123143161D03*
X252186054Y-122789608D03*
X252539608Y-122436054D03*
X252893161Y-122082501D03*
X253246714Y-121728948D03*
X253600268Y-121375394D03*
X253953821Y-121021841D03*
X254307375Y-120668287D03*
X254660928Y-120314734D03*
X255014481Y-119961181D03*
D40*
X255014481Y-117238819D03*
X254660928Y-116885266D03*
X254307375Y-116531713D03*
X253953821Y-116178159D03*
X253600268Y-115824606D03*
X253246714Y-115471052D03*
X252893161Y-115117499D03*
X252539608Y-114763946D03*
X252186054Y-114410392D03*
X251832501Y-114056839D03*
X251478948Y-113703286D03*
X251125394Y-113349732D03*
X250771841Y-112996179D03*
X250418287Y-112642625D03*
X250064734Y-112289072D03*
X249711181Y-111935519D03*
D27*
X246947919Y-136417500D03*
X248772919Y-136417500D03*
X226575000Y-104000000D03*
X228400000Y-104000000D03*
D41*
X206000000Y-107700000D03*
D42*
X206000000Y-109700000D03*
X206000000Y-111700000D03*
X206000000Y-113700000D03*
X206000000Y-115700000D03*
X206000000Y-117700000D03*
X206000000Y-119700000D03*
X206000000Y-121700000D03*
D43*
X241021580Y-108009876D03*
X242117596Y-106913860D03*
D27*
X288112500Y-127150000D03*
X289937500Y-127150000D03*
D44*
X230517501Y-129757500D03*
X228867501Y-129757500D03*
D12*
X206645417Y-136340000D03*
X206645417Y-138165000D03*
D15*
X230767501Y-136507499D03*
X229217501Y-136507499D03*
D45*
X276488824Y-106365592D03*
X275375130Y-107479286D03*
D15*
X252425000Y-109800000D03*
X250875000Y-109800000D03*
D14*
X210950000Y-130962500D03*
X210950000Y-129137500D03*
D46*
X264075000Y-123225000D03*
X265725000Y-123225000D03*
D15*
X255435419Y-139740000D03*
X253885419Y-139740000D03*
D13*
X210625419Y-143065000D03*
X210625419Y-144615000D03*
D41*
X298500000Y-97400000D03*
D42*
X298500000Y-99400000D03*
X298500000Y-101400000D03*
X298500000Y-103400000D03*
X298500000Y-105400000D03*
X298500000Y-107400000D03*
D30*
X244655367Y-126183722D03*
X243559351Y-127279738D03*
D11*
X274210171Y-108700813D03*
X273043445Y-109867539D03*
D47*
X211500000Y-90762500D03*
X211500000Y-93837500D03*
D15*
X240825000Y-98300000D03*
X239275000Y-98300000D03*
X256775000Y-98350000D03*
X255225000Y-98350000D03*
D27*
X273200000Y-152187500D03*
X275025000Y-152187500D03*
D12*
X232600000Y-85387500D03*
X232600000Y-87212500D03*
D13*
X228675000Y-151575000D03*
X228675000Y-153125000D03*
D48*
X227125000Y-153000000D03*
X227125000Y-152350000D03*
X227125000Y-151700000D03*
X225225000Y-151700000D03*
X225225000Y-152350000D03*
X225225000Y-153000000D03*
D49*
X234632129Y-124327569D03*
X233536113Y-123231553D03*
X246776684Y-128340396D03*
X245680668Y-127244380D03*
D21*
X226550000Y-102000000D03*
X228100000Y-102000000D03*
D50*
X208250000Y-90600000D03*
X208250000Y-92500000D03*
D51*
X240850000Y-92925000D03*
X240850000Y-89675000D03*
D46*
X264075000Y-121675000D03*
X265725000Y-121675000D03*
D13*
X291800000Y-140850000D03*
X291800000Y-142400000D03*
D52*
X267990000Y-101850000D03*
X269260000Y-101850000D03*
X270530000Y-101850000D03*
X271800000Y-101850000D03*
X271800000Y-96900000D03*
X270530000Y-96900000D03*
X269260000Y-96900000D03*
X267990000Y-96900000D03*
D53*
X272895000Y-87650000D03*
D54*
X270895000Y-87650000D03*
X268895000Y-87650000D03*
X266895000Y-87650000D03*
D13*
X269762500Y-151162500D03*
X269762500Y-152712500D03*
D46*
X266570000Y-94125000D03*
X268220000Y-94125000D03*
D13*
X277850000Y-144900000D03*
X277850000Y-146450000D03*
D20*
X235508860Y-111773418D03*
X236604876Y-112869434D03*
D55*
X286825000Y-87099999D03*
D56*
X288825001Y-87099999D03*
X286825000Y-89100000D03*
X288825000Y-89099999D03*
X286825000Y-91099999D03*
X288825000Y-91100000D03*
X286825000Y-93099999D03*
X288825000Y-93099999D03*
X286825000Y-95099999D03*
X288825000Y-95099999D03*
D25*
X212750419Y-140935000D03*
X212750419Y-142205000D03*
X212750419Y-143475000D03*
X212750419Y-144745000D03*
X218000419Y-144745000D03*
X218000419Y-143475000D03*
X218000419Y-142205000D03*
X218000419Y-140935000D03*
D26*
X215375419Y-142840000D03*
D27*
X246897919Y-138490000D03*
X248722919Y-138490000D03*
D30*
X241933005Y-113844708D03*
X240836989Y-114940724D03*
D21*
X232825000Y-91800000D03*
X234375000Y-91800000D03*
D15*
X247625000Y-88800000D03*
X246075000Y-88800000D03*
D48*
X268212500Y-152537500D03*
X268212500Y-151887500D03*
X268212500Y-151237500D03*
X266312500Y-151237500D03*
X266312500Y-151887500D03*
X266312500Y-152537500D03*
D57*
X291845000Y-138575000D03*
X293115000Y-138575000D03*
X294385000Y-138575000D03*
X295655000Y-138575000D03*
X295655000Y-133325000D03*
X294385000Y-133325000D03*
X293115000Y-133325000D03*
X291845000Y-133325000D03*
D58*
X293750000Y-135950000D03*
D21*
X215525000Y-106250000D03*
X217075000Y-106250000D03*
X285856250Y-147237500D03*
X287406250Y-147237500D03*
D59*
X298450000Y-92250000D03*
D42*
X298450000Y-90249999D03*
X298450000Y-88250000D03*
X298450000Y-86250000D03*
D14*
X212950001Y-130962500D03*
X212950001Y-129137500D03*
D60*
X235763498Y-123266907D03*
X234596772Y-122100181D03*
D53*
X282400000Y-87650000D03*
D54*
X280400000Y-87650000D03*
X278400000Y-87650000D03*
D14*
X285250000Y-144212500D03*
X285250000Y-142387500D03*
D16*
X269895000Y-94125000D03*
X269895000Y-92575000D03*
D34*
X205850000Y-130440000D03*
D35*
X205850000Y-127900000D03*
D13*
X237350000Y-88275000D03*
X237350000Y-89825000D03*
D38*
X214050000Y-104250000D03*
X212225000Y-104250000D03*
D61*
X292100000Y-107000000D03*
D62*
X293100000Y-107000000D03*
X294100000Y-107000000D03*
D10*
X278400000Y-94025000D03*
X278400000Y-92375000D03*
D45*
X278901825Y-108902338D03*
X277788131Y-110016032D03*
D23*
X256637500Y-95850000D03*
X253562500Y-95850000D03*
D46*
X271570000Y-94125000D03*
X273220000Y-94125000D03*
D14*
X246950000Y-86912500D03*
X246950000Y-85087500D03*
D15*
X259525000Y-119425000D03*
X257975000Y-119425000D03*
D12*
X249200000Y-85087500D03*
X249200000Y-86912500D03*
D30*
X239642721Y-109388738D03*
X238546705Y-110484754D03*
D17*
X276275000Y-144850000D03*
X276275000Y-146500000D03*
D45*
X277748356Y-107651642D03*
X276634662Y-108765336D03*
D15*
X275062500Y-150327500D03*
X273512500Y-150327500D03*
D46*
X228867501Y-131257498D03*
X230517501Y-131257498D03*
D51*
X257400000Y-92975000D03*
X257400000Y-89725000D03*
D15*
X234400000Y-151050000D03*
X232850000Y-151050000D03*
D28*
X232650000Y-88800000D03*
X232650000Y-89300000D03*
X232650000Y-89800000D03*
X232650000Y-90300000D03*
X235550000Y-90300000D03*
X235550000Y-89800000D03*
X235550000Y-89300000D03*
X235550000Y-88800000D03*
D29*
X234100000Y-89550000D03*
D63*
X215350000Y-90900000D03*
X225250000Y-90900000D03*
D15*
X231125000Y-89000000D03*
X229575000Y-89000000D03*
D64*
X287231250Y-148737500D03*
X286581250Y-148737500D03*
X285931250Y-148737500D03*
X285931250Y-150637500D03*
X286581250Y-150637500D03*
X287231250Y-150637500D03*
D34*
X297310419Y-151280000D03*
D35*
X294770419Y-151280000D03*
X297310419Y-148740000D03*
X294770419Y-148740000D03*
X297310419Y-146200000D03*
X294770419Y-146200000D03*
X297310419Y-143660000D03*
X294770419Y-143660000D03*
D34*
X252800419Y-151630000D03*
D35*
X250260419Y-151630000D03*
X252800419Y-149090000D03*
X250260419Y-149090000D03*
X252800419Y-146550000D03*
X250260419Y-146550000D03*
X252800419Y-144010000D03*
X250260419Y-144010000D03*
D34*
X207850419Y-151630000D03*
D35*
X205310419Y-151630000D03*
X207850419Y-149090000D03*
X205310419Y-149090000D03*
X207850419Y-146550000D03*
X205310419Y-146550000D03*
X207850419Y-144010000D03*
X205310419Y-144010000D03*
D65*
X253200000Y-113000000D03*
X262900000Y-110900000D03*
X252885419Y-139915000D03*
X292150000Y-115750000D03*
D66*
X212135000Y-111340000D03*
X222295000Y-134200000D03*
X212135000Y-149440000D03*
X280715000Y-154520000D03*
X219755000Y-146900000D03*
X285795000Y-124040000D03*
D65*
X217950000Y-106300000D03*
X219375419Y-142090000D03*
D66*
X290875000Y-146900000D03*
X234995000Y-146900000D03*
X242615000Y-139280000D03*
X247695000Y-146900000D03*
X222295000Y-98640000D03*
D65*
X240200000Y-149900000D03*
D66*
X222295000Y-111340000D03*
X273095000Y-139280000D03*
X298495000Y-131660000D03*
X283255000Y-151980000D03*
X229915000Y-98640000D03*
X290875000Y-121500000D03*
X293415000Y-154520000D03*
D65*
X211050000Y-99200000D03*
D66*
X214675000Y-111340000D03*
X209595000Y-106260000D03*
D65*
X242975986Y-128075232D03*
D66*
X204515000Y-101180000D03*
X252775000Y-134200000D03*
X245155000Y-91020000D03*
X290875000Y-154520000D03*
D65*
X232692501Y-132257500D03*
D66*
X232455000Y-101180000D03*
D65*
X207800419Y-140890000D03*
D66*
X260395000Y-149440000D03*
X275635000Y-93560000D03*
D65*
X267950000Y-103900000D03*
D66*
X219755000Y-136740000D03*
D65*
X211150000Y-95100000D03*
D66*
X293415000Y-88480000D03*
X280715000Y-116420000D03*
X257855000Y-108800000D03*
X245155000Y-139280000D03*
X273095000Y-144360000D03*
X204515000Y-93560000D03*
X229915000Y-96100000D03*
X288335000Y-111340000D03*
X288335000Y-141820000D03*
X245155000Y-93560000D03*
D65*
X273012500Y-149187500D03*
D66*
X217215000Y-136740000D03*
X214675000Y-149440000D03*
D65*
X234650000Y-92975000D03*
D66*
X273095000Y-134200000D03*
D65*
X287800000Y-146050000D03*
D66*
X237535000Y-85940000D03*
X219755000Y-116420000D03*
X253550000Y-93800000D03*
X275635000Y-91020000D03*
X242615000Y-96100000D03*
X209595000Y-88480000D03*
X285795000Y-154520000D03*
X275635000Y-134200000D03*
X224835000Y-149440000D03*
X280715000Y-91020000D03*
X232455000Y-116420000D03*
D65*
X292000000Y-143600000D03*
X279635448Y-108310136D03*
D66*
X268015000Y-134200000D03*
X237535000Y-98640000D03*
X224835000Y-136740000D03*
X288335000Y-154520000D03*
D65*
X234784072Y-111048635D03*
X252950000Y-90600000D03*
D66*
X209595000Y-134200000D03*
X209595000Y-118960000D03*
X209595000Y-96100000D03*
D65*
X228850000Y-85700000D03*
X238000000Y-111200000D03*
D66*
X295955000Y-154520000D03*
D65*
X243925000Y-117025000D03*
D66*
X224835000Y-131660000D03*
X214675000Y-121500000D03*
X227375000Y-98640000D03*
X222295000Y-116420000D03*
X204515000Y-98640000D03*
X260395000Y-134200000D03*
X234995000Y-116420000D03*
X268015000Y-126580000D03*
D65*
X226150000Y-105800000D03*
X292750000Y-130950000D03*
D66*
X224835000Y-134200000D03*
X212135000Y-118960000D03*
X238550000Y-152650000D03*
X214675000Y-136740000D03*
D65*
X249275000Y-113425000D03*
X247100000Y-108100000D03*
X250750000Y-135050000D03*
D66*
X283255000Y-154520000D03*
D65*
X291600000Y-124600000D03*
X232493425Y-124154028D03*
X277213608Y-105640808D03*
D66*
X283255000Y-134200000D03*
X232455000Y-111340000D03*
D65*
X208550000Y-93700000D03*
X260550001Y-119225002D03*
D66*
X247695000Y-151980000D03*
X212135000Y-121500000D03*
X204515000Y-136740000D03*
D65*
X252450000Y-87600000D03*
D66*
X265475000Y-85940000D03*
X245155000Y-103720000D03*
X227375000Y-96100000D03*
X245155000Y-144360000D03*
X283255000Y-139280000D03*
X240075000Y-103720000D03*
D65*
X237200000Y-114450000D03*
D66*
X217215000Y-111340000D03*
X240075000Y-85940000D03*
X224835000Y-116420000D03*
X242615000Y-103720000D03*
D65*
X228692500Y-132507498D03*
D66*
X295955000Y-88480000D03*
X278175000Y-139280000D03*
X283255000Y-108800000D03*
X275635000Y-139280000D03*
X237535000Y-93560000D03*
X222295000Y-131660000D03*
D65*
X210360419Y-138290000D03*
D66*
X265475000Y-91020000D03*
X298495000Y-124040000D03*
D65*
X269645000Y-91625000D03*
D66*
X255315000Y-108800000D03*
X204515000Y-134200000D03*
X288335000Y-103720000D03*
X207055000Y-101180000D03*
D65*
X264510419Y-141990000D03*
X271062500Y-152937500D03*
D66*
X247695000Y-149440000D03*
X260395000Y-96100000D03*
X285795000Y-113880000D03*
X217215000Y-134200000D03*
X295955000Y-106260000D03*
X257855000Y-139280000D03*
X232455000Y-121500000D03*
X298495000Y-126580000D03*
D65*
X243150000Y-106150000D03*
X214450000Y-131000000D03*
D66*
X275635000Y-88480000D03*
D65*
X231692501Y-136507499D03*
D66*
X257855000Y-149440000D03*
X288335000Y-134200000D03*
D65*
X240650000Y-105900000D03*
D66*
X270555000Y-134200000D03*
X268015000Y-149440000D03*
X204515000Y-154520000D03*
X229915000Y-116420000D03*
D65*
X267645000Y-98375000D03*
D66*
X275635000Y-116420000D03*
X242615000Y-85940000D03*
X280715000Y-139280000D03*
X204515000Y-96100000D03*
D65*
X232425000Y-150010000D03*
X236150000Y-87900000D03*
D66*
X234995000Y-96100000D03*
D65*
X228750000Y-101000000D03*
D66*
X247695000Y-144360000D03*
X212135000Y-106260000D03*
D65*
X234900000Y-107500000D03*
D66*
X285795000Y-139280000D03*
X207055000Y-134200000D03*
X227375000Y-113880000D03*
X222295000Y-129120000D03*
X250235000Y-131660000D03*
X255315000Y-149440000D03*
X265475000Y-149440000D03*
X232455000Y-103720000D03*
X278175000Y-134200000D03*
X242615000Y-151980000D03*
X280715000Y-134200000D03*
D65*
X278473141Y-107068280D03*
X236450000Y-96700000D03*
X250518037Y-114750000D03*
D66*
X224835000Y-118960000D03*
D65*
X282100000Y-144500000D03*
X260550000Y-121425001D03*
X230350000Y-90000000D03*
D66*
X224835000Y-129120000D03*
X219755000Y-111340000D03*
X222295000Y-118960000D03*
D65*
X245650000Y-84900000D03*
D66*
X298495000Y-129120000D03*
X254175000Y-98975000D03*
X268015000Y-144360000D03*
D65*
X241915329Y-118812130D03*
D66*
X250235000Y-96100000D03*
X285795000Y-111340000D03*
D65*
X230075000Y-152700000D03*
X250225000Y-92500000D03*
D66*
X290875000Y-136740000D03*
X278175000Y-113880000D03*
X214675000Y-118960000D03*
X245155000Y-136740000D03*
D65*
X236350000Y-90800000D03*
D66*
X209595000Y-149440000D03*
X229915000Y-111340000D03*
D65*
X247360050Y-129206603D03*
D66*
X285795000Y-134200000D03*
X224835000Y-111340000D03*
X234995000Y-85940000D03*
X298495000Y-154520000D03*
D65*
X239150000Y-99400000D03*
D66*
X290875000Y-101180000D03*
X283255000Y-124040000D03*
D65*
X230282501Y-135507500D03*
X274900000Y-146850000D03*
D66*
X212135000Y-88480000D03*
X227375000Y-136740000D03*
X280715000Y-111340000D03*
X222295000Y-149440000D03*
D65*
X286250000Y-106950000D03*
X262275000Y-102050000D03*
X263725000Y-104650000D03*
X283325000Y-105000000D03*
X232450000Y-84400000D03*
X260125000Y-99525000D03*
X266325000Y-105725000D03*
X240850000Y-99600000D03*
X250000000Y-99575000D03*
X297075000Y-112000000D03*
D66*
X278150000Y-103850000D03*
X240050000Y-113300000D03*
X281600000Y-149250000D03*
X273275000Y-100050000D03*
X232975000Y-141025000D03*
X247900000Y-107375000D03*
X265725000Y-114650000D03*
X253900000Y-106750000D03*
X221325000Y-142600000D03*
X239875000Y-123725000D03*
X256475000Y-119275000D03*
X229914581Y-151435000D03*
X244050000Y-129850000D03*
X273675000Y-102000000D03*
X256800000Y-106475000D03*
X271677081Y-151322500D03*
X287150000Y-105850000D03*
X228867501Y-128900000D03*
X283525000Y-103850000D03*
D65*
X251050000Y-85100000D03*
D66*
X244900000Y-109225000D03*
X215625000Y-128100000D03*
X273400000Y-96700000D03*
X258150000Y-98400000D03*
D65*
X239700000Y-111600000D03*
X229950000Y-104100000D03*
X208050000Y-88200000D03*
X246500000Y-141150000D03*
X210575000Y-139350000D03*
X238000000Y-145750000D03*
X255500000Y-137300000D03*
X263050000Y-137100000D03*
X231150000Y-92300000D03*
X203825000Y-91850000D03*
X244551904Y-118478858D03*
X211100000Y-136327500D03*
X246900000Y-134650000D03*
X245634620Y-119234620D03*
X236800000Y-115885787D03*
X272000000Y-126750000D03*
D66*
X210600000Y-104500000D03*
D65*
X246400000Y-114750000D03*
X229500000Y-145800000D03*
X247250000Y-115600000D03*
X276852081Y-149297500D03*
X248150000Y-116400000D03*
X281700000Y-142000000D03*
X235250000Y-140650000D03*
X240150000Y-146600000D03*
X246300000Y-153850000D03*
X279350000Y-145250000D03*
X236400000Y-139900000D03*
D66*
X284200000Y-119075000D03*
X277775000Y-125200000D03*
D65*
X271750000Y-124150000D03*
X277200000Y-117100000D03*
X273500000Y-124525000D03*
X283250000Y-116900000D03*
X214100000Y-125600000D03*
X243350000Y-119300000D03*
X246450000Y-119100000D03*
X230900000Y-119462130D03*
X247625000Y-120700000D03*
X208450000Y-125550000D03*
X212900000Y-125400000D03*
X244600000Y-121075000D03*
X245725000Y-121825000D03*
X229100000Y-119600000D03*
X224200000Y-126200000D03*
X211560419Y-143840000D03*
X256760419Y-143640000D03*
X294500000Y-139750000D03*
X219410419Y-140640000D03*
X220360419Y-140640000D03*
X265510419Y-140590000D03*
X264560419Y-140490000D03*
X291100000Y-130850000D03*
X291850000Y-131950000D03*
X265125000Y-125925000D03*
X249475000Y-126650000D03*
X257356131Y-129868869D03*
X271775000Y-119275000D03*
X269775000Y-121275000D03*
X252150000Y-120175000D03*
X245875000Y-130100000D03*
X248850000Y-121700000D03*
X240025000Y-131575000D03*
X233528222Y-131257498D03*
X257325000Y-117200000D03*
X267000000Y-112250000D03*
X264050000Y-113000000D03*
X234467503Y-129757500D03*
X237150000Y-133175000D03*
X276750000Y-98350000D03*
X277050000Y-97100000D03*
X247350000Y-113450000D03*
X248450000Y-115000000D03*
X252100000Y-119000000D03*
X266950000Y-110000000D03*
X273075000Y-112325000D03*
X258325000Y-116550000D03*
X251400000Y-115630760D03*
X214700000Y-128900000D03*
X245340381Y-117690381D03*
X246700000Y-132500000D03*
X249200000Y-122700000D03*
X256300000Y-123550000D03*
X295650000Y-130750000D03*
X268000000Y-138000000D03*
X253450000Y-123450000D03*
D66*
X263850000Y-152450000D03*
X263750000Y-150975000D03*
M02*
