%TF.GenerationSoftware,KiCad,Pcbnew,8.0.1*%
%TF.CreationDate,2024-05-07T00:12:37+05:00*%
%TF.ProjectId,MyVesc,4d795665-7363-42e6-9b69-6361645f7063,rev?*%
%TF.SameCoordinates,Original*%
%TF.FileFunction,Drillmap*%
%TF.FilePolarity,Positive*%
%FSLAX45Y45*%
G04 Gerber Fmt 4.5, Leading zero omitted, Abs format (unit mm)*
G04 Created by KiCad (PCBNEW 8.0.1) date 2024-05-07 00:12:37*
%MOMM*%
%LPD*%
G01*
G04 APERTURE LIST*
%ADD10C,0.050000*%
%ADD11C,0.200000*%
%ADD12C,0.100000*%
G04 APERTURE END LIST*
D10*
X20200000Y-8342500D02*
X30200000Y-8342500D01*
X30200000Y-15710000D01*
X20200000Y-15710000D01*
X20200000Y-8342500D01*
D11*
D12*
X21420042Y-14149000D02*
X21440042Y-14169000D01*
X21440042Y-14149000D02*
X21420042Y-14169000D01*
X21420042Y-14274000D02*
X21440042Y-14294000D01*
X21440042Y-14274000D02*
X21420042Y-14294000D01*
X21420042Y-14399000D02*
X21440042Y-14419000D01*
X21440042Y-14399000D02*
X21420042Y-14419000D01*
X21527542Y-14149000D02*
X21547542Y-14169000D01*
X21547542Y-14149000D02*
X21527542Y-14169000D01*
X21527542Y-14274000D02*
X21547542Y-14294000D01*
X21547542Y-14274000D02*
X21527542Y-14294000D01*
X21527542Y-14399000D02*
X21547542Y-14419000D01*
X21547542Y-14399000D02*
X21527542Y-14419000D01*
X21635042Y-14149000D02*
X21655042Y-14169000D01*
X21655042Y-14149000D02*
X21635042Y-14169000D01*
X21635042Y-14274000D02*
X21655042Y-14294000D01*
X21655042Y-14274000D02*
X21635042Y-14294000D01*
X21635042Y-14399000D02*
X21655042Y-14419000D01*
X21655042Y-14399000D02*
X21635042Y-14419000D01*
X25933542Y-14139000D02*
X25953542Y-14159000D01*
X25953542Y-14139000D02*
X25933542Y-14159000D01*
X25933542Y-14264000D02*
X25953542Y-14284000D01*
X25953542Y-14264000D02*
X25933542Y-14284000D01*
X25933542Y-14389000D02*
X25953542Y-14409000D01*
X25953542Y-14389000D02*
X25933542Y-14409000D01*
X26041042Y-14139000D02*
X26061042Y-14159000D01*
X26061042Y-14139000D02*
X26041042Y-14159000D01*
X26041042Y-14264000D02*
X26061042Y-14284000D01*
X26061042Y-14264000D02*
X26041042Y-14284000D01*
X26041042Y-14389000D02*
X26061042Y-14409000D01*
X26061042Y-14389000D02*
X26041042Y-14409000D01*
X26148542Y-14139000D02*
X26168542Y-14159000D01*
X26168542Y-14139000D02*
X26148542Y-14159000D01*
X26148542Y-14264000D02*
X26168542Y-14284000D01*
X26168542Y-14264000D02*
X26148542Y-14284000D01*
X26148542Y-14389000D02*
X26168542Y-14409000D01*
X26168542Y-14389000D02*
X26148542Y-14409000D01*
X29240000Y-13477500D02*
X29260000Y-13497500D01*
X29260000Y-13477500D02*
X29240000Y-13497500D01*
X29240000Y-13585000D02*
X29260000Y-13605000D01*
X29260000Y-13585000D02*
X29240000Y-13605000D01*
X29240000Y-13692500D02*
X29260000Y-13712500D01*
X29260000Y-13692500D02*
X29240000Y-13712500D01*
X29365000Y-13477500D02*
X29385000Y-13497500D01*
X29385000Y-13477500D02*
X29365000Y-13497500D01*
X29365000Y-13585000D02*
X29385000Y-13605000D01*
X29385000Y-13585000D02*
X29365000Y-13605000D01*
X29365000Y-13692500D02*
X29385000Y-13712500D01*
X29385000Y-13692500D02*
X29365000Y-13712500D01*
X29490000Y-13477500D02*
X29510000Y-13497500D01*
X29510000Y-13477500D02*
X29490000Y-13497500D01*
X29490000Y-13585000D02*
X29510000Y-13605000D01*
X29510000Y-13585000D02*
X29490000Y-13605000D01*
X29490000Y-13692500D02*
X29510000Y-13712500D01*
X29510000Y-13692500D02*
X29490000Y-13712500D01*
X20397500Y-9185000D02*
G75*
G02*
X20367500Y-9185000I-15000J0D01*
G01*
X20367500Y-9185000D02*
G75*
G02*
X20397500Y-9185000I15000J0D01*
G01*
X20466500Y-9356000D02*
G75*
G02*
X20436500Y-9356000I-15000J0D01*
G01*
X20436500Y-9356000D02*
G75*
G02*
X20466500Y-9356000I15000J0D01*
G01*
X20466500Y-9610000D02*
G75*
G02*
X20436500Y-9610000I-15000J0D01*
G01*
X20436500Y-9610000D02*
G75*
G02*
X20466500Y-9610000I15000J0D01*
G01*
X20466500Y-9864000D02*
G75*
G02*
X20436500Y-9864000I-15000J0D01*
G01*
X20436500Y-9864000D02*
G75*
G02*
X20466500Y-9864000I15000J0D01*
G01*
X20466500Y-10118000D02*
G75*
G02*
X20436500Y-10118000I-15000J0D01*
G01*
X20436500Y-10118000D02*
G75*
G02*
X20466500Y-10118000I15000J0D01*
G01*
X20466500Y-13420000D02*
G75*
G02*
X20436500Y-13420000I-15000J0D01*
G01*
X20436500Y-13420000D02*
G75*
G02*
X20466500Y-13420000I15000J0D01*
G01*
X20466500Y-13674000D02*
G75*
G02*
X20436500Y-13674000I-15000J0D01*
G01*
X20436500Y-13674000D02*
G75*
G02*
X20466500Y-13674000I15000J0D01*
G01*
X20466500Y-15452000D02*
G75*
G02*
X20436500Y-15452000I-15000J0D01*
G01*
X20436500Y-15452000D02*
G75*
G02*
X20466500Y-15452000I15000J0D01*
G01*
X20720500Y-10118000D02*
G75*
G02*
X20690500Y-10118000I-15000J0D01*
G01*
X20690500Y-10118000D02*
G75*
G02*
X20720500Y-10118000I15000J0D01*
G01*
X20720500Y-13420000D02*
G75*
G02*
X20690500Y-13420000I-15000J0D01*
G01*
X20690500Y-13420000D02*
G75*
G02*
X20720500Y-13420000I15000J0D01*
G01*
X20795042Y-14089000D02*
G75*
G02*
X20765042Y-14089000I-15000J0D01*
G01*
X20765042Y-14089000D02*
G75*
G02*
X20795042Y-14089000I15000J0D01*
G01*
X20820000Y-8820000D02*
G75*
G02*
X20790000Y-8820000I-15000J0D01*
G01*
X20790000Y-8820000D02*
G75*
G02*
X20820000Y-8820000I15000J0D01*
G01*
X20860000Y-12555000D02*
G75*
G02*
X20830000Y-12555000I-15000J0D01*
G01*
X20830000Y-12555000D02*
G75*
G02*
X20860000Y-12555000I15000J0D01*
G01*
X20870000Y-9370000D02*
G75*
G02*
X20840000Y-9370000I-15000J0D01*
G01*
X20840000Y-9370000D02*
G75*
G02*
X20870000Y-9370000I15000J0D01*
G01*
X20974500Y-8848000D02*
G75*
G02*
X20944500Y-8848000I-15000J0D01*
G01*
X20944500Y-8848000D02*
G75*
G02*
X20974500Y-8848000I15000J0D01*
G01*
X20974500Y-9610000D02*
G75*
G02*
X20944500Y-9610000I-15000J0D01*
G01*
X20944500Y-9610000D02*
G75*
G02*
X20974500Y-9610000I15000J0D01*
G01*
X20974500Y-10626000D02*
G75*
G02*
X20944500Y-10626000I-15000J0D01*
G01*
X20944500Y-10626000D02*
G75*
G02*
X20974500Y-10626000I15000J0D01*
G01*
X20974500Y-11896000D02*
G75*
G02*
X20944500Y-11896000I-15000J0D01*
G01*
X20944500Y-11896000D02*
G75*
G02*
X20974500Y-11896000I15000J0D01*
G01*
X20974500Y-13420000D02*
G75*
G02*
X20944500Y-13420000I-15000J0D01*
G01*
X20944500Y-13420000D02*
G75*
G02*
X20974500Y-13420000I15000J0D01*
G01*
X20974500Y-14944000D02*
G75*
G02*
X20944500Y-14944000I-15000J0D01*
G01*
X20944500Y-14944000D02*
G75*
G02*
X20974500Y-14944000I15000J0D01*
G01*
X21051042Y-13829000D02*
G75*
G02*
X21021042Y-13829000I-15000J0D01*
G01*
X21021042Y-13829000D02*
G75*
G02*
X21051042Y-13829000I15000J0D01*
G01*
X21072500Y-13935000D02*
G75*
G02*
X21042500Y-13935000I-15000J0D01*
G01*
X21042500Y-13935000D02*
G75*
G02*
X21072500Y-13935000I15000J0D01*
G01*
X21075000Y-10450000D02*
G75*
G02*
X21045000Y-10450000I-15000J0D01*
G01*
X21045000Y-10450000D02*
G75*
G02*
X21075000Y-10450000I15000J0D01*
G01*
X21120000Y-9920000D02*
G75*
G02*
X21090000Y-9920000I-15000J0D01*
G01*
X21090000Y-9920000D02*
G75*
G02*
X21120000Y-9920000I15000J0D01*
G01*
X21125000Y-13632750D02*
G75*
G02*
X21095000Y-13632750I-15000J0D01*
G01*
X21095000Y-13632750D02*
G75*
G02*
X21125000Y-13632750I15000J0D01*
G01*
X21130000Y-9510000D02*
G75*
G02*
X21100000Y-9510000I-15000J0D01*
G01*
X21100000Y-9510000D02*
G75*
G02*
X21130000Y-9510000I15000J0D01*
G01*
X21171042Y-14384000D02*
G75*
G02*
X21141042Y-14384000I-15000J0D01*
G01*
X21141042Y-14384000D02*
G75*
G02*
X21171042Y-14384000I15000J0D01*
G01*
X21228500Y-8848000D02*
G75*
G02*
X21198500Y-8848000I-15000J0D01*
G01*
X21198500Y-8848000D02*
G75*
G02*
X21228500Y-8848000I15000J0D01*
G01*
X21228500Y-10626000D02*
G75*
G02*
X21198500Y-10626000I-15000J0D01*
G01*
X21198500Y-10626000D02*
G75*
G02*
X21228500Y-10626000I15000J0D01*
G01*
X21228500Y-11134000D02*
G75*
G02*
X21198500Y-11134000I-15000J0D01*
G01*
X21198500Y-11134000D02*
G75*
G02*
X21228500Y-11134000I15000J0D01*
G01*
X21228500Y-11896000D02*
G75*
G02*
X21198500Y-11896000I-15000J0D01*
G01*
X21198500Y-11896000D02*
G75*
G02*
X21228500Y-11896000I15000J0D01*
G01*
X21228500Y-12150000D02*
G75*
G02*
X21198500Y-12150000I-15000J0D01*
G01*
X21198500Y-12150000D02*
G75*
G02*
X21228500Y-12150000I15000J0D01*
G01*
X21228500Y-14944000D02*
G75*
G02*
X21198500Y-14944000I-15000J0D01*
G01*
X21198500Y-14944000D02*
G75*
G02*
X21228500Y-14944000I15000J0D01*
G01*
X21305000Y-12540000D02*
G75*
G02*
X21275000Y-12540000I-15000J0D01*
G01*
X21275000Y-12540000D02*
G75*
G02*
X21305000Y-12540000I15000J0D01*
G01*
X21425000Y-12560000D02*
G75*
G02*
X21395000Y-12560000I-15000J0D01*
G01*
X21395000Y-12560000D02*
G75*
G02*
X21425000Y-12560000I15000J0D01*
G01*
X21460000Y-13100000D02*
G75*
G02*
X21430000Y-13100000I-15000J0D01*
G01*
X21430000Y-13100000D02*
G75*
G02*
X21460000Y-13100000I15000J0D01*
G01*
X21482500Y-11134000D02*
G75*
G02*
X21452500Y-11134000I-15000J0D01*
G01*
X21452500Y-11134000D02*
G75*
G02*
X21482500Y-11134000I15000J0D01*
G01*
X21482500Y-11896000D02*
G75*
G02*
X21452500Y-11896000I-15000J0D01*
G01*
X21452500Y-11896000D02*
G75*
G02*
X21482500Y-11896000I15000J0D01*
G01*
X21482500Y-12150000D02*
G75*
G02*
X21452500Y-12150000I-15000J0D01*
G01*
X21452500Y-12150000D02*
G75*
G02*
X21482500Y-12150000I15000J0D01*
G01*
X21482500Y-13674000D02*
G75*
G02*
X21452500Y-13674000I-15000J0D01*
G01*
X21452500Y-13674000D02*
G75*
G02*
X21482500Y-13674000I15000J0D01*
G01*
X21482500Y-14944000D02*
G75*
G02*
X21452500Y-14944000I-15000J0D01*
G01*
X21452500Y-14944000D02*
G75*
G02*
X21482500Y-14944000I15000J0D01*
G01*
X21485000Y-12890000D02*
G75*
G02*
X21455000Y-12890000I-15000J0D01*
G01*
X21455000Y-12890000D02*
G75*
G02*
X21485000Y-12890000I15000J0D01*
G01*
X21577500Y-12810000D02*
G75*
G02*
X21547500Y-12810000I-15000J0D01*
G01*
X21547500Y-12810000D02*
G75*
G02*
X21577500Y-12810000I15000J0D01*
G01*
X21736500Y-11134000D02*
G75*
G02*
X21706500Y-11134000I-15000J0D01*
G01*
X21706500Y-11134000D02*
G75*
G02*
X21736500Y-11134000I15000J0D01*
G01*
X21736500Y-13420000D02*
G75*
G02*
X21706500Y-13420000I-15000J0D01*
G01*
X21706500Y-13420000D02*
G75*
G02*
X21736500Y-13420000I15000J0D01*
G01*
X21736500Y-13674000D02*
G75*
G02*
X21706500Y-13674000I-15000J0D01*
G01*
X21706500Y-13674000D02*
G75*
G02*
X21736500Y-13674000I15000J0D01*
G01*
X21810000Y-10630000D02*
G75*
G02*
X21780000Y-10630000I-15000J0D01*
G01*
X21780000Y-10630000D02*
G75*
G02*
X21810000Y-10630000I15000J0D01*
G01*
X21952542Y-14209000D02*
G75*
G02*
X21922542Y-14209000I-15000J0D01*
G01*
X21922542Y-14209000D02*
G75*
G02*
X21952542Y-14209000I15000J0D01*
G01*
X21956042Y-14064000D02*
G75*
G02*
X21926042Y-14064000I-15000J0D01*
G01*
X21926042Y-14064000D02*
G75*
G02*
X21956042Y-14064000I15000J0D01*
G01*
X21990500Y-11134000D02*
G75*
G02*
X21960500Y-11134000I-15000J0D01*
G01*
X21960500Y-11134000D02*
G75*
G02*
X21990500Y-11134000I15000J0D01*
G01*
X21990500Y-11642000D02*
G75*
G02*
X21960500Y-11642000I-15000J0D01*
G01*
X21960500Y-11642000D02*
G75*
G02*
X21990500Y-11642000I15000J0D01*
G01*
X21990500Y-13674000D02*
G75*
G02*
X21960500Y-13674000I-15000J0D01*
G01*
X21960500Y-13674000D02*
G75*
G02*
X21990500Y-13674000I15000J0D01*
G01*
X21990500Y-14690000D02*
G75*
G02*
X21960500Y-14690000I-15000J0D01*
G01*
X21960500Y-14690000D02*
G75*
G02*
X21990500Y-14690000I15000J0D01*
G01*
X22051042Y-14064000D02*
G75*
G02*
X22021042Y-14064000I-15000J0D01*
G01*
X22021042Y-14064000D02*
G75*
G02*
X22051042Y-14064000I15000J0D01*
G01*
X22147500Y-14260000D02*
G75*
G02*
X22117500Y-14260000I-15000J0D01*
G01*
X22117500Y-14260000D02*
G75*
G02*
X22147500Y-14260000I15000J0D01*
G01*
X22244500Y-9864000D02*
G75*
G02*
X22214500Y-9864000I-15000J0D01*
G01*
X22214500Y-9864000D02*
G75*
G02*
X22244500Y-9864000I15000J0D01*
G01*
X22244500Y-11134000D02*
G75*
G02*
X22214500Y-11134000I-15000J0D01*
G01*
X22214500Y-11134000D02*
G75*
G02*
X22244500Y-11134000I15000J0D01*
G01*
X22244500Y-11642000D02*
G75*
G02*
X22214500Y-11642000I-15000J0D01*
G01*
X22214500Y-11642000D02*
G75*
G02*
X22244500Y-11642000I15000J0D01*
G01*
X22244500Y-11896000D02*
G75*
G02*
X22214500Y-11896000I-15000J0D01*
G01*
X22214500Y-11896000D02*
G75*
G02*
X22244500Y-11896000I15000J0D01*
G01*
X22244500Y-12912000D02*
G75*
G02*
X22214500Y-12912000I-15000J0D01*
G01*
X22214500Y-12912000D02*
G75*
G02*
X22244500Y-12912000I15000J0D01*
G01*
X22244500Y-13166000D02*
G75*
G02*
X22214500Y-13166000I-15000J0D01*
G01*
X22214500Y-13166000D02*
G75*
G02*
X22244500Y-13166000I15000J0D01*
G01*
X22244500Y-13420000D02*
G75*
G02*
X22214500Y-13420000I-15000J0D01*
G01*
X22214500Y-13420000D02*
G75*
G02*
X22244500Y-13420000I15000J0D01*
G01*
X22244500Y-14944000D02*
G75*
G02*
X22214500Y-14944000I-15000J0D01*
G01*
X22214500Y-14944000D02*
G75*
G02*
X22244500Y-14944000I15000J0D01*
G01*
X22435000Y-12620000D02*
G75*
G02*
X22405000Y-12620000I-15000J0D01*
G01*
X22405000Y-12620000D02*
G75*
G02*
X22435000Y-12620000I15000J0D01*
G01*
X22498500Y-11134000D02*
G75*
G02*
X22468500Y-11134000I-15000J0D01*
G01*
X22468500Y-11134000D02*
G75*
G02*
X22498500Y-11134000I15000J0D01*
G01*
X22498500Y-11642000D02*
G75*
G02*
X22468500Y-11642000I-15000J0D01*
G01*
X22468500Y-11642000D02*
G75*
G02*
X22498500Y-11642000I15000J0D01*
G01*
X22498500Y-11896000D02*
G75*
G02*
X22468500Y-11896000I-15000J0D01*
G01*
X22468500Y-11896000D02*
G75*
G02*
X22498500Y-11896000I15000J0D01*
G01*
X22498500Y-12912000D02*
G75*
G02*
X22468500Y-12912000I-15000J0D01*
G01*
X22468500Y-12912000D02*
G75*
G02*
X22498500Y-12912000I15000J0D01*
G01*
X22498500Y-13166000D02*
G75*
G02*
X22468500Y-13166000I-15000J0D01*
G01*
X22468500Y-13166000D02*
G75*
G02*
X22498500Y-13166000I15000J0D01*
G01*
X22498500Y-13420000D02*
G75*
G02*
X22468500Y-13420000I-15000J0D01*
G01*
X22468500Y-13420000D02*
G75*
G02*
X22498500Y-13420000I15000J0D01*
G01*
X22498500Y-13674000D02*
G75*
G02*
X22468500Y-13674000I-15000J0D01*
G01*
X22468500Y-13674000D02*
G75*
G02*
X22498500Y-13674000I15000J0D01*
G01*
X22498500Y-14944000D02*
G75*
G02*
X22468500Y-14944000I-15000J0D01*
G01*
X22468500Y-14944000D02*
G75*
G02*
X22498500Y-14944000I15000J0D01*
G01*
X22630000Y-10580000D02*
G75*
G02*
X22600000Y-10580000I-15000J0D01*
G01*
X22600000Y-10580000D02*
G75*
G02*
X22630000Y-10580000I15000J0D01*
G01*
X22752500Y-9610000D02*
G75*
G02*
X22722500Y-9610000I-15000J0D01*
G01*
X22722500Y-9610000D02*
G75*
G02*
X22752500Y-9610000I15000J0D01*
G01*
X22752500Y-9864000D02*
G75*
G02*
X22722500Y-9864000I-15000J0D01*
G01*
X22722500Y-9864000D02*
G75*
G02*
X22752500Y-9864000I15000J0D01*
G01*
X22752500Y-11388000D02*
G75*
G02*
X22722500Y-11388000I-15000J0D01*
G01*
X22722500Y-11388000D02*
G75*
G02*
X22752500Y-11388000I15000J0D01*
G01*
X22752500Y-13674000D02*
G75*
G02*
X22722500Y-13674000I-15000J0D01*
G01*
X22722500Y-13674000D02*
G75*
G02*
X22752500Y-13674000I15000J0D01*
G01*
X22884250Y-13250750D02*
G75*
G02*
X22854250Y-13250750I-15000J0D01*
G01*
X22854250Y-13250750D02*
G75*
G02*
X22884250Y-13250750I15000J0D01*
G01*
X22890000Y-10100000D02*
G75*
G02*
X22860000Y-10100000I-15000J0D01*
G01*
X22860000Y-10100000D02*
G75*
G02*
X22890000Y-10100000I15000J0D01*
G01*
X22900000Y-8570000D02*
G75*
G02*
X22870000Y-8570000I-15000J0D01*
G01*
X22870000Y-8570000D02*
G75*
G02*
X22900000Y-8570000I15000J0D01*
G01*
X22901750Y-12890000D02*
G75*
G02*
X22871750Y-12890000I-15000J0D01*
G01*
X22871750Y-12890000D02*
G75*
G02*
X22901750Y-12890000I15000J0D01*
G01*
X22925000Y-11960000D02*
G75*
G02*
X22895000Y-11960000I-15000J0D01*
G01*
X22895000Y-11960000D02*
G75*
G02*
X22925000Y-11960000I15000J0D01*
G01*
X22965000Y-14580000D02*
G75*
G02*
X22935000Y-14580000I-15000J0D01*
G01*
X22935000Y-14580000D02*
G75*
G02*
X22965000Y-14580000I15000J0D01*
G01*
X23006458Y-15143500D02*
G75*
G02*
X22976458Y-15143500I-15000J0D01*
G01*
X22976458Y-15143500D02*
G75*
G02*
X23006458Y-15143500I15000J0D01*
G01*
X23006500Y-9610000D02*
G75*
G02*
X22976500Y-9610000I-15000J0D01*
G01*
X22976500Y-9610000D02*
G75*
G02*
X23006500Y-9610000I15000J0D01*
G01*
X23006500Y-9864000D02*
G75*
G02*
X22976500Y-9864000I-15000J0D01*
G01*
X22976500Y-9864000D02*
G75*
G02*
X23006500Y-9864000I15000J0D01*
G01*
X23006500Y-11134000D02*
G75*
G02*
X22976500Y-11134000I-15000J0D01*
G01*
X22976500Y-11134000D02*
G75*
G02*
X23006500Y-11134000I15000J0D01*
G01*
X23006500Y-11642000D02*
G75*
G02*
X22976500Y-11642000I-15000J0D01*
G01*
X22976500Y-11642000D02*
G75*
G02*
X23006500Y-11642000I15000J0D01*
G01*
X23010000Y-10410000D02*
G75*
G02*
X22980000Y-10410000I-15000J0D01*
G01*
X22980000Y-10410000D02*
G75*
G02*
X23010000Y-10410000I15000J0D01*
G01*
X23022500Y-15270000D02*
G75*
G02*
X22992500Y-15270000I-15000J0D01*
G01*
X22992500Y-15270000D02*
G75*
G02*
X23022500Y-15270000I15000J0D01*
G01*
X23043250Y-13550750D02*
G75*
G02*
X23013250Y-13550750I-15000J0D01*
G01*
X23013250Y-13550750D02*
G75*
G02*
X23043250Y-13550750I15000J0D01*
G01*
X23050000Y-9000000D02*
G75*
G02*
X23020000Y-9000000I-15000J0D01*
G01*
X23020000Y-9000000D02*
G75*
G02*
X23050000Y-9000000I15000J0D01*
G01*
X23105000Y-11946213D02*
G75*
G02*
X23075000Y-11946213I-15000J0D01*
G01*
X23075000Y-11946213D02*
G75*
G02*
X23105000Y-11946213I15000J0D01*
G01*
X23130000Y-9230000D02*
G75*
G02*
X23100000Y-9230000I-15000J0D01*
G01*
X23100000Y-9230000D02*
G75*
G02*
X23130000Y-9230000I15000J0D01*
G01*
X23184250Y-13650750D02*
G75*
G02*
X23154250Y-13650750I-15000J0D01*
G01*
X23154250Y-13650750D02*
G75*
G02*
X23184250Y-13650750I15000J0D01*
G01*
X23257500Y-15001000D02*
G75*
G02*
X23227500Y-15001000I-15000J0D01*
G01*
X23227500Y-15001000D02*
G75*
G02*
X23257500Y-15001000I15000J0D01*
G01*
X23260000Y-8440000D02*
G75*
G02*
X23230000Y-8440000I-15000J0D01*
G01*
X23230000Y-8440000D02*
G75*
G02*
X23260000Y-8440000I15000J0D01*
G01*
X23260500Y-10118000D02*
G75*
G02*
X23230500Y-10118000I-15000J0D01*
G01*
X23230500Y-10118000D02*
G75*
G02*
X23260500Y-10118000I15000J0D01*
G01*
X23260500Y-10372000D02*
G75*
G02*
X23230500Y-10372000I-15000J0D01*
G01*
X23230500Y-10372000D02*
G75*
G02*
X23260500Y-10372000I15000J0D01*
G01*
X23260500Y-11134000D02*
G75*
G02*
X23230500Y-11134000I-15000J0D01*
G01*
X23230500Y-11134000D02*
G75*
G02*
X23260500Y-11134000I15000J0D01*
G01*
X23260500Y-11642000D02*
G75*
G02*
X23230500Y-11642000I-15000J0D01*
G01*
X23230500Y-11642000D02*
G75*
G02*
X23260500Y-11642000I15000J0D01*
G01*
X23260500Y-12150000D02*
G75*
G02*
X23230500Y-12150000I-15000J0D01*
G01*
X23230500Y-12150000D02*
G75*
G02*
X23260500Y-12150000I15000J0D01*
G01*
X23264342Y-12415403D02*
G75*
G02*
X23234342Y-12415403I-15000J0D01*
G01*
X23234342Y-12415403D02*
G75*
G02*
X23264342Y-12415403I15000J0D01*
G01*
X23284250Y-13225750D02*
G75*
G02*
X23254250Y-13225750I-15000J0D01*
G01*
X23254250Y-13225750D02*
G75*
G02*
X23284250Y-13225750I15000J0D01*
G01*
X23312500Y-14102500D02*
G75*
G02*
X23282500Y-14102500I-15000J0D01*
G01*
X23282500Y-14102500D02*
G75*
G02*
X23312500Y-14102500I15000J0D01*
G01*
X23367822Y-13125750D02*
G75*
G02*
X23337822Y-13125750I-15000J0D01*
G01*
X23337822Y-13125750D02*
G75*
G02*
X23367822Y-13125750I15000J0D01*
G01*
X23461750Y-12975750D02*
G75*
G02*
X23431750Y-12975750I-15000J0D01*
G01*
X23431750Y-12975750D02*
G75*
G02*
X23461750Y-12975750I15000J0D01*
G01*
X23480000Y-9297500D02*
G75*
G02*
X23450000Y-9297500I-15000J0D01*
G01*
X23450000Y-9297500D02*
G75*
G02*
X23480000Y-9297500I15000J0D01*
G01*
X23493407Y-11104864D02*
G75*
G02*
X23463407Y-11104864I-15000J0D01*
G01*
X23463407Y-11104864D02*
G75*
G02*
X23493407Y-11104864I15000J0D01*
G01*
X23505000Y-10750000D02*
G75*
G02*
X23475000Y-10750000I-15000J0D01*
G01*
X23475000Y-10750000D02*
G75*
G02*
X23505000Y-10750000I15000J0D01*
G01*
X23514500Y-8594000D02*
G75*
G02*
X23484500Y-8594000I-15000J0D01*
G01*
X23484500Y-8594000D02*
G75*
G02*
X23514500Y-8594000I15000J0D01*
G01*
X23514500Y-9610000D02*
G75*
G02*
X23484500Y-9610000I-15000J0D01*
G01*
X23484500Y-9610000D02*
G75*
G02*
X23514500Y-9610000I15000J0D01*
G01*
X23514500Y-11642000D02*
G75*
G02*
X23484500Y-11642000I-15000J0D01*
G01*
X23484500Y-11642000D02*
G75*
G02*
X23514500Y-11642000I15000J0D01*
G01*
X23514500Y-14690000D02*
G75*
G02*
X23484500Y-14690000I-15000J0D01*
G01*
X23484500Y-14690000D02*
G75*
G02*
X23514500Y-14690000I15000J0D01*
G01*
X23540000Y-14065000D02*
G75*
G02*
X23510000Y-14065000I-15000J0D01*
G01*
X23510000Y-14065000D02*
G75*
G02*
X23540000Y-14065000I15000J0D01*
G01*
X23630000Y-8790000D02*
G75*
G02*
X23600000Y-8790000I-15000J0D01*
G01*
X23600000Y-8790000D02*
G75*
G02*
X23630000Y-8790000I15000J0D01*
G01*
X23650000Y-9080000D02*
G75*
G02*
X23620000Y-9080000I-15000J0D01*
G01*
X23620000Y-9080000D02*
G75*
G02*
X23650000Y-9080000I15000J0D01*
G01*
X23655000Y-13990000D02*
G75*
G02*
X23625000Y-13990000I-15000J0D01*
G01*
X23625000Y-13990000D02*
G75*
G02*
X23655000Y-13990000I15000J0D01*
G01*
X23660000Y-9670000D02*
G75*
G02*
X23630000Y-9670000I-15000J0D01*
G01*
X23630000Y-9670000D02*
G75*
G02*
X23660000Y-9670000I15000J0D01*
G01*
X23695000Y-11588579D02*
G75*
G02*
X23665000Y-11588579I-15000J0D01*
G01*
X23665000Y-11588579D02*
G75*
G02*
X23695000Y-11588579I15000J0D01*
G01*
X23730000Y-13317500D02*
G75*
G02*
X23700000Y-13317500I-15000J0D01*
G01*
X23700000Y-13317500D02*
G75*
G02*
X23730000Y-13317500I15000J0D01*
G01*
X23735000Y-11445000D02*
G75*
G02*
X23705000Y-11445000I-15000J0D01*
G01*
X23705000Y-11445000D02*
G75*
G02*
X23735000Y-11445000I15000J0D01*
G01*
X23768500Y-8594000D02*
G75*
G02*
X23738500Y-8594000I-15000J0D01*
G01*
X23738500Y-8594000D02*
G75*
G02*
X23768500Y-8594000I15000J0D01*
G01*
X23768500Y-9356000D02*
G75*
G02*
X23738500Y-9356000I-15000J0D01*
G01*
X23738500Y-9356000D02*
G75*
G02*
X23768500Y-9356000I15000J0D01*
G01*
X23768500Y-9864000D02*
G75*
G02*
X23738500Y-9864000I-15000J0D01*
G01*
X23738500Y-9864000D02*
G75*
G02*
X23768500Y-9864000I15000J0D01*
G01*
X23815000Y-11120000D02*
G75*
G02*
X23785000Y-11120000I-15000J0D01*
G01*
X23785000Y-11120000D02*
G75*
G02*
X23815000Y-11120000I15000J0D01*
G01*
X23815000Y-14575000D02*
G75*
G02*
X23785000Y-14575000I-15000J0D01*
G01*
X23785000Y-14575000D02*
G75*
G02*
X23815000Y-14575000I15000J0D01*
G01*
X23870000Y-15265000D02*
G75*
G02*
X23840000Y-15265000I-15000J0D01*
G01*
X23840000Y-15265000D02*
G75*
G02*
X23870000Y-15265000I15000J0D01*
G01*
X23930000Y-9940000D02*
G75*
G02*
X23900000Y-9940000I-15000J0D01*
G01*
X23900000Y-9940000D02*
G75*
G02*
X23930000Y-9940000I15000J0D01*
G01*
X23985000Y-11160000D02*
G75*
G02*
X23955000Y-11160000I-15000J0D01*
G01*
X23955000Y-11160000D02*
G75*
G02*
X23985000Y-11160000I15000J0D01*
G01*
X24002500Y-12372500D02*
G75*
G02*
X23972500Y-12372500I-15000J0D01*
G01*
X23972500Y-12372500D02*
G75*
G02*
X24002500Y-12372500I15000J0D01*
G01*
X24017500Y-13157500D02*
G75*
G02*
X23987500Y-13157500I-15000J0D01*
G01*
X23987500Y-13157500D02*
G75*
G02*
X24017500Y-13157500I15000J0D01*
G01*
X24020000Y-11330000D02*
G75*
G02*
X23990000Y-11330000I-15000J0D01*
G01*
X23990000Y-11330000D02*
G75*
G02*
X24020000Y-11330000I15000J0D01*
G01*
X24022500Y-8594000D02*
G75*
G02*
X23992500Y-8594000I-15000J0D01*
G01*
X23992500Y-8594000D02*
G75*
G02*
X24022500Y-8594000I15000J0D01*
G01*
X24022500Y-10372000D02*
G75*
G02*
X23992500Y-10372000I-15000J0D01*
G01*
X23992500Y-10372000D02*
G75*
G02*
X24022500Y-10372000I15000J0D01*
G01*
X24030000Y-14660000D02*
G75*
G02*
X24000000Y-14660000I-15000J0D01*
G01*
X24000000Y-14660000D02*
G75*
G02*
X24030000Y-14660000I15000J0D01*
G01*
X24035000Y-14990000D02*
G75*
G02*
X24005000Y-14990000I-15000J0D01*
G01*
X24005000Y-14990000D02*
G75*
G02*
X24035000Y-14990000I15000J0D01*
G01*
X24080000Y-10590000D02*
G75*
G02*
X24050000Y-10590000I-15000J0D01*
G01*
X24050000Y-10590000D02*
G75*
G02*
X24080000Y-10590000I15000J0D01*
G01*
X24100000Y-9960000D02*
G75*
G02*
X24070000Y-9960000I-15000J0D01*
G01*
X24070000Y-9960000D02*
G75*
G02*
X24100000Y-9960000I15000J0D01*
G01*
X24206533Y-11881213D02*
G75*
G02*
X24176533Y-11881213I-15000J0D01*
G01*
X24176533Y-11881213D02*
G75*
G02*
X24206533Y-11881213I15000J0D01*
G01*
X24276500Y-8594000D02*
G75*
G02*
X24246500Y-8594000I-15000J0D01*
G01*
X24246500Y-8594000D02*
G75*
G02*
X24276500Y-8594000I15000J0D01*
G01*
X24276500Y-9610000D02*
G75*
G02*
X24246500Y-9610000I-15000J0D01*
G01*
X24246500Y-9610000D02*
G75*
G02*
X24276500Y-9610000I15000J0D01*
G01*
X24276500Y-10372000D02*
G75*
G02*
X24246500Y-10372000I-15000J0D01*
G01*
X24246500Y-10372000D02*
G75*
G02*
X24276500Y-10372000I15000J0D01*
G01*
X24276500Y-13928000D02*
G75*
G02*
X24246500Y-13928000I-15000J0D01*
G01*
X24246500Y-13928000D02*
G75*
G02*
X24276500Y-13928000I15000J0D01*
G01*
X24276500Y-15198000D02*
G75*
G02*
X24246500Y-15198000I-15000J0D01*
G01*
X24246500Y-15198000D02*
G75*
G02*
X24276500Y-15198000I15000J0D01*
G01*
X24312599Y-12807523D02*
G75*
G02*
X24282599Y-12807523I-15000J0D01*
G01*
X24282599Y-12807523D02*
G75*
G02*
X24312599Y-12807523I15000J0D01*
G01*
X24330000Y-10615000D02*
G75*
G02*
X24300000Y-10615000I-15000J0D01*
G01*
X24300000Y-10615000D02*
G75*
G02*
X24330000Y-10615000I15000J0D01*
G01*
X24350000Y-11930000D02*
G75*
G02*
X24320000Y-11930000I-15000J0D01*
G01*
X24320000Y-11930000D02*
G75*
G02*
X24350000Y-11930000I15000J0D01*
G01*
X24407500Y-11702500D02*
G75*
G02*
X24377500Y-11702500I-15000J0D01*
G01*
X24377500Y-11702500D02*
G75*
G02*
X24407500Y-11702500I15000J0D01*
G01*
X24420000Y-12985000D02*
G75*
G02*
X24390000Y-12985000I-15000J0D01*
G01*
X24390000Y-12985000D02*
G75*
G02*
X24420000Y-12985000I15000J0D01*
G01*
X24470190Y-11847886D02*
G75*
G02*
X24440190Y-11847886I-15000J0D01*
G01*
X24440190Y-11847886D02*
G75*
G02*
X24470190Y-11847886I15000J0D01*
G01*
X24475000Y-12107500D02*
G75*
G02*
X24445000Y-12107500I-15000J0D01*
G01*
X24445000Y-12107500D02*
G75*
G02*
X24475000Y-12107500I15000J0D01*
G01*
X24505000Y-10922500D02*
G75*
G02*
X24475000Y-10922500I-15000J0D01*
G01*
X24475000Y-10922500D02*
G75*
G02*
X24505000Y-10922500I15000J0D01*
G01*
X24530500Y-9102000D02*
G75*
G02*
X24500500Y-9102000I-15000J0D01*
G01*
X24500500Y-9102000D02*
G75*
G02*
X24530500Y-9102000I15000J0D01*
G01*
X24530500Y-9356000D02*
G75*
G02*
X24500500Y-9356000I-15000J0D01*
G01*
X24500500Y-9356000D02*
G75*
G02*
X24530500Y-9356000I15000J0D01*
G01*
X24530500Y-10372000D02*
G75*
G02*
X24500500Y-10372000I-15000J0D01*
G01*
X24500500Y-10372000D02*
G75*
G02*
X24530500Y-10372000I15000J0D01*
G01*
X24530500Y-13674000D02*
G75*
G02*
X24500500Y-13674000I-15000J0D01*
G01*
X24500500Y-13674000D02*
G75*
G02*
X24530500Y-13674000I15000J0D01*
G01*
X24530500Y-13928000D02*
G75*
G02*
X24500500Y-13928000I-15000J0D01*
G01*
X24500500Y-13928000D02*
G75*
G02*
X24530500Y-13928000I15000J0D01*
G01*
X24530500Y-14436000D02*
G75*
G02*
X24500500Y-14436000I-15000J0D01*
G01*
X24500500Y-14436000D02*
G75*
G02*
X24530500Y-14436000I15000J0D01*
G01*
X24549038Y-11769038D02*
G75*
G02*
X24519038Y-11769038I-15000J0D01*
G01*
X24519038Y-11769038D02*
G75*
G02*
X24549038Y-11769038I15000J0D01*
G01*
X24578462Y-11923462D02*
G75*
G02*
X24548462Y-11923462I-15000J0D01*
G01*
X24548462Y-11923462D02*
G75*
G02*
X24578462Y-11923462I15000J0D01*
G01*
X24580000Y-8490000D02*
G75*
G02*
X24550000Y-8490000I-15000J0D01*
G01*
X24550000Y-8490000D02*
G75*
G02*
X24580000Y-8490000I15000J0D01*
G01*
X24587500Y-12182500D02*
G75*
G02*
X24557500Y-12182500I-15000J0D01*
G01*
X24557500Y-12182500D02*
G75*
G02*
X24587500Y-12182500I15000J0D01*
G01*
X24602500Y-13010000D02*
G75*
G02*
X24572500Y-13010000I-15000J0D01*
G01*
X24572500Y-13010000D02*
G75*
G02*
X24602500Y-13010000I15000J0D01*
G01*
X24645000Y-15385000D02*
G75*
G02*
X24615000Y-15385000I-15000J0D01*
G01*
X24615000Y-15385000D02*
G75*
G02*
X24645000Y-15385000I15000J0D01*
G01*
X24655000Y-11475000D02*
G75*
G02*
X24625000Y-11475000I-15000J0D01*
G01*
X24625000Y-11475000D02*
G75*
G02*
X24655000Y-11475000I15000J0D01*
G01*
X24660000Y-11910000D02*
G75*
G02*
X24630000Y-11910000I-15000J0D01*
G01*
X24630000Y-11910000D02*
G75*
G02*
X24660000Y-11910000I15000J0D01*
G01*
X24665000Y-14115000D02*
G75*
G02*
X24635000Y-14115000I-15000J0D01*
G01*
X24635000Y-14115000D02*
G75*
G02*
X24665000Y-14115000I15000J0D01*
G01*
X24685000Y-13250000D02*
G75*
G02*
X24655000Y-13250000I-15000J0D01*
G01*
X24655000Y-13250000D02*
G75*
G02*
X24685000Y-13250000I15000J0D01*
G01*
X24705000Y-13465000D02*
G75*
G02*
X24675000Y-13465000I-15000J0D01*
G01*
X24675000Y-13465000D02*
G75*
G02*
X24705000Y-13465000I15000J0D01*
G01*
X24725000Y-10810000D02*
G75*
G02*
X24695000Y-10810000I-15000J0D01*
G01*
X24695000Y-10810000D02*
G75*
G02*
X24725000Y-10810000I15000J0D01*
G01*
X24740000Y-11560000D02*
G75*
G02*
X24710000Y-11560000I-15000J0D01*
G01*
X24710000Y-11560000D02*
G75*
G02*
X24740000Y-11560000I15000J0D01*
G01*
X24750000Y-11345000D02*
G75*
G02*
X24720000Y-11345000I-15000J0D01*
G01*
X24720000Y-11345000D02*
G75*
G02*
X24750000Y-11345000I15000J0D01*
G01*
X24751005Y-12920660D02*
G75*
G02*
X24721005Y-12920660I-15000J0D01*
G01*
X24721005Y-12920660D02*
G75*
G02*
X24751005Y-12920660I15000J0D01*
G01*
X24777500Y-12070000D02*
G75*
G02*
X24747500Y-12070000I-15000J0D01*
G01*
X24747500Y-12070000D02*
G75*
G02*
X24777500Y-12070000I15000J0D01*
G01*
X24784500Y-14436000D02*
G75*
G02*
X24754500Y-14436000I-15000J0D01*
G01*
X24754500Y-14436000D02*
G75*
G02*
X24784500Y-14436000I15000J0D01*
G01*
X24784500Y-14690000D02*
G75*
G02*
X24754500Y-14690000I-15000J0D01*
G01*
X24754500Y-14690000D02*
G75*
G02*
X24784500Y-14690000I15000J0D01*
G01*
X24784500Y-14944000D02*
G75*
G02*
X24754500Y-14944000I-15000J0D01*
G01*
X24754500Y-14944000D02*
G75*
G02*
X24784500Y-14944000I15000J0D01*
G01*
X24784500Y-15198000D02*
G75*
G02*
X24754500Y-15198000I-15000J0D01*
G01*
X24754500Y-15198000D02*
G75*
G02*
X24784500Y-15198000I15000J0D01*
G01*
X24805000Y-10737500D02*
G75*
G02*
X24775000Y-10737500I-15000J0D01*
G01*
X24775000Y-10737500D02*
G75*
G02*
X24805000Y-10737500I15000J0D01*
G01*
X24830000Y-11640000D02*
G75*
G02*
X24800000Y-11640000I-15000J0D01*
G01*
X24800000Y-11640000D02*
G75*
G02*
X24830000Y-11640000I15000J0D01*
G01*
X24860000Y-11500000D02*
G75*
G02*
X24830000Y-11500000I-15000J0D01*
G01*
X24830000Y-11500000D02*
G75*
G02*
X24860000Y-11500000I15000J0D01*
G01*
X24900000Y-12170000D02*
G75*
G02*
X24870000Y-12170000I-15000J0D01*
G01*
X24870000Y-12170000D02*
G75*
G02*
X24900000Y-12170000I15000J0D01*
G01*
X24935000Y-12270000D02*
G75*
G02*
X24905000Y-12270000I-15000J0D01*
G01*
X24905000Y-12270000D02*
G75*
G02*
X24935000Y-12270000I15000J0D01*
G01*
X24942500Y-11342500D02*
G75*
G02*
X24912500Y-11342500I-15000J0D01*
G01*
X24912500Y-11342500D02*
G75*
G02*
X24942500Y-11342500I15000J0D01*
G01*
X24962500Y-12665000D02*
G75*
G02*
X24932500Y-12665000I-15000J0D01*
G01*
X24932500Y-12665000D02*
G75*
G02*
X24962500Y-12665000I15000J0D01*
G01*
X25015000Y-9957500D02*
G75*
G02*
X24985000Y-9957500I-15000J0D01*
G01*
X24985000Y-9957500D02*
G75*
G02*
X25015000Y-9957500I15000J0D01*
G01*
X25037500Y-9250000D02*
G75*
G02*
X25007500Y-9250000I-15000J0D01*
G01*
X25007500Y-9250000D02*
G75*
G02*
X25037500Y-9250000I15000J0D01*
G01*
X25038500Y-9610000D02*
G75*
G02*
X25008500Y-9610000I-15000J0D01*
G01*
X25008500Y-9610000D02*
G75*
G02*
X25038500Y-9610000I15000J0D01*
G01*
X25038500Y-13166000D02*
G75*
G02*
X25008500Y-13166000I-15000J0D01*
G01*
X25008500Y-13166000D02*
G75*
G02*
X25038500Y-13166000I15000J0D01*
G01*
X25066804Y-11475000D02*
G75*
G02*
X25036804Y-11475000I-15000J0D01*
G01*
X25036804Y-11475000D02*
G75*
G02*
X25066804Y-11475000I15000J0D01*
G01*
X25090000Y-13505000D02*
G75*
G02*
X25060000Y-13505000I-15000J0D01*
G01*
X25060000Y-13505000D02*
G75*
G02*
X25090000Y-13505000I15000J0D01*
G01*
X25120000Y-8510000D02*
G75*
G02*
X25090000Y-8510000I-15000J0D01*
G01*
X25090000Y-8510000D02*
G75*
G02*
X25120000Y-8510000I15000J0D01*
G01*
X25155000Y-11563076D02*
G75*
G02*
X25125000Y-11563076I-15000J0D01*
G01*
X25125000Y-11563076D02*
G75*
G02*
X25155000Y-11563076I15000J0D01*
G01*
X25225000Y-11900000D02*
G75*
G02*
X25195000Y-11900000I-15000J0D01*
G01*
X25195000Y-11900000D02*
G75*
G02*
X25225000Y-11900000I15000J0D01*
G01*
X25230000Y-12017500D02*
G75*
G02*
X25200000Y-12017500I-15000J0D01*
G01*
X25200000Y-12017500D02*
G75*
G02*
X25230000Y-12017500I15000J0D01*
G01*
X25260000Y-8760000D02*
G75*
G02*
X25230000Y-8760000I-15000J0D01*
G01*
X25230000Y-8760000D02*
G75*
G02*
X25260000Y-8760000I15000J0D01*
G01*
X25292500Y-13420000D02*
G75*
G02*
X25262500Y-13420000I-15000J0D01*
G01*
X25262500Y-13420000D02*
G75*
G02*
X25292500Y-13420000I15000J0D01*
G01*
X25303542Y-13991500D02*
G75*
G02*
X25273542Y-13991500I-15000J0D01*
G01*
X25273542Y-13991500D02*
G75*
G02*
X25303542Y-13991500I15000J0D01*
G01*
X25310000Y-9060000D02*
G75*
G02*
X25280000Y-9060000I-15000J0D01*
G01*
X25280000Y-9060000D02*
G75*
G02*
X25310000Y-9060000I15000J0D01*
G01*
X25335000Y-11300000D02*
G75*
G02*
X25305000Y-11300000I-15000J0D01*
G01*
X25305000Y-11300000D02*
G75*
G02*
X25335000Y-11300000I15000J0D01*
G01*
X25360000Y-12345000D02*
G75*
G02*
X25330000Y-12345000I-15000J0D01*
G01*
X25330000Y-12345000D02*
G75*
G02*
X25360000Y-12345000I15000J0D01*
G01*
X25370000Y-9380000D02*
G75*
G02*
X25340000Y-9380000I-15000J0D01*
G01*
X25340000Y-9380000D02*
G75*
G02*
X25370000Y-9380000I15000J0D01*
G01*
X25405000Y-10675000D02*
G75*
G02*
X25375000Y-10675000I-15000J0D01*
G01*
X25375000Y-10675000D02*
G75*
G02*
X25405000Y-10675000I15000J0D01*
G01*
X25432500Y-9897500D02*
G75*
G02*
X25402500Y-9897500I-15000J0D01*
G01*
X25402500Y-9897500D02*
G75*
G02*
X25432500Y-9897500I15000J0D01*
G01*
X25546500Y-10880000D02*
G75*
G02*
X25516500Y-10880000I-15000J0D01*
G01*
X25516500Y-10880000D02*
G75*
G02*
X25546500Y-10880000I15000J0D01*
G01*
X25546500Y-14944000D02*
G75*
G02*
X25516500Y-14944000I-15000J0D01*
G01*
X25516500Y-14944000D02*
G75*
G02*
X25546500Y-14944000I15000J0D01*
G01*
X25565000Y-13730000D02*
G75*
G02*
X25535000Y-13730000I-15000J0D01*
G01*
X25535000Y-13730000D02*
G75*
G02*
X25565000Y-13730000I15000J0D01*
G01*
X25645000Y-12355000D02*
G75*
G02*
X25615000Y-12355000I-15000J0D01*
G01*
X25615000Y-12355000D02*
G75*
G02*
X25645000Y-12355000I15000J0D01*
G01*
X25662500Y-11927500D02*
G75*
G02*
X25632500Y-11927500I-15000J0D01*
G01*
X25632500Y-11927500D02*
G75*
G02*
X25662500Y-11927500I15000J0D01*
G01*
X25691042Y-14364000D02*
G75*
G02*
X25661042Y-14364000I-15000J0D01*
G01*
X25661042Y-14364000D02*
G75*
G02*
X25691042Y-14364000I15000J0D01*
G01*
X25695000Y-10647500D02*
G75*
G02*
X25665000Y-10647500I-15000J0D01*
G01*
X25665000Y-10647500D02*
G75*
G02*
X25695000Y-10647500I15000J0D01*
G01*
X25747500Y-11720000D02*
G75*
G02*
X25717500Y-11720000I-15000J0D01*
G01*
X25717500Y-11720000D02*
G75*
G02*
X25747500Y-11720000I15000J0D01*
G01*
X25750613Y-12986887D02*
G75*
G02*
X25720613Y-12986887I-15000J0D01*
G01*
X25720613Y-12986887D02*
G75*
G02*
X25750613Y-12986887I15000J0D01*
G01*
X25800500Y-10880000D02*
G75*
G02*
X25770500Y-10880000I-15000J0D01*
G01*
X25770500Y-10880000D02*
G75*
G02*
X25800500Y-10880000I15000J0D01*
G01*
X25800500Y-13928000D02*
G75*
G02*
X25770500Y-13928000I-15000J0D01*
G01*
X25770500Y-13928000D02*
G75*
G02*
X25800500Y-13928000I15000J0D01*
G01*
X25800500Y-14944000D02*
G75*
G02*
X25770500Y-14944000I-15000J0D01*
G01*
X25770500Y-14944000D02*
G75*
G02*
X25800500Y-14944000I15000J0D01*
G01*
X25830000Y-9840000D02*
G75*
G02*
X25800000Y-9840000I-15000J0D01*
G01*
X25800000Y-9840000D02*
G75*
G02*
X25830000Y-9840000I15000J0D01*
G01*
X25847500Y-11655000D02*
G75*
G02*
X25817500Y-11655000I-15000J0D01*
G01*
X25817500Y-11655000D02*
G75*
G02*
X25847500Y-11655000I15000J0D01*
G01*
X26027500Y-9952500D02*
G75*
G02*
X25997500Y-9952500I-15000J0D01*
G01*
X25997500Y-9952500D02*
G75*
G02*
X26027500Y-9952500I15000J0D01*
G01*
X26054500Y-9610000D02*
G75*
G02*
X26024500Y-9610000I-15000J0D01*
G01*
X26024500Y-9610000D02*
G75*
G02*
X26054500Y-9610000I15000J0D01*
G01*
X26054500Y-13420000D02*
G75*
G02*
X26024500Y-13420000I-15000J0D01*
G01*
X26024500Y-13420000D02*
G75*
G02*
X26054500Y-13420000I15000J0D01*
G01*
X26054500Y-14944000D02*
G75*
G02*
X26024500Y-14944000I-15000J0D01*
G01*
X26024500Y-14944000D02*
G75*
G02*
X26054500Y-14944000I15000J0D01*
G01*
X26070000Y-12142500D02*
G75*
G02*
X26040000Y-12142500I-15000J0D01*
G01*
X26040000Y-12142500D02*
G75*
G02*
X26070000Y-12142500I15000J0D01*
G01*
X26070000Y-11922500D02*
G75*
G02*
X26040000Y-11922500I-15000J0D01*
G01*
X26040000Y-11922500D02*
G75*
G02*
X26070000Y-11922500I15000J0D01*
G01*
X26242500Y-10205000D02*
G75*
G02*
X26212500Y-10205000I-15000J0D01*
G01*
X26212500Y-10205000D02*
G75*
G02*
X26242500Y-10205000I15000J0D01*
G01*
X26305000Y-11090000D02*
G75*
G02*
X26275000Y-11090000I-15000J0D01*
G01*
X26275000Y-11090000D02*
G75*
G02*
X26305000Y-11090000I15000J0D01*
G01*
X26320000Y-13710000D02*
G75*
G02*
X26290000Y-13710000I-15000J0D01*
G01*
X26290000Y-13710000D02*
G75*
G02*
X26320000Y-13710000I15000J0D01*
G01*
X26387500Y-10465000D02*
G75*
G02*
X26357500Y-10465000I-15000J0D01*
G01*
X26357500Y-10465000D02*
G75*
G02*
X26387500Y-10465000I15000J0D01*
G01*
X26390000Y-15097500D02*
G75*
G02*
X26360000Y-15097500I-15000J0D01*
G01*
X26360000Y-15097500D02*
G75*
G02*
X26390000Y-15097500I15000J0D01*
G01*
X26400000Y-15245000D02*
G75*
G02*
X26370000Y-15245000I-15000J0D01*
G01*
X26370000Y-15245000D02*
G75*
G02*
X26400000Y-15245000I15000J0D01*
G01*
X26420000Y-11300000D02*
G75*
G02*
X26390000Y-11300000I-15000J0D01*
G01*
X26390000Y-11300000D02*
G75*
G02*
X26420000Y-11300000I15000J0D01*
G01*
X26466042Y-14199000D02*
G75*
G02*
X26436042Y-14199000I-15000J0D01*
G01*
X26436042Y-14199000D02*
G75*
G02*
X26466042Y-14199000I15000J0D01*
G01*
X26471042Y-14049000D02*
G75*
G02*
X26441042Y-14049000I-15000J0D01*
G01*
X26441042Y-14049000D02*
G75*
G02*
X26471042Y-14049000I15000J0D01*
G01*
X26527500Y-12592500D02*
G75*
G02*
X26497500Y-12592500I-15000J0D01*
G01*
X26497500Y-12592500D02*
G75*
G02*
X26527500Y-12592500I15000J0D01*
G01*
X26562500Y-8594000D02*
G75*
G02*
X26532500Y-8594000I-15000J0D01*
G01*
X26532500Y-8594000D02*
G75*
G02*
X26562500Y-8594000I15000J0D01*
G01*
X26562500Y-9102000D02*
G75*
G02*
X26532500Y-9102000I-15000J0D01*
G01*
X26532500Y-9102000D02*
G75*
G02*
X26562500Y-9102000I15000J0D01*
G01*
X26562500Y-14944000D02*
G75*
G02*
X26532500Y-14944000I-15000J0D01*
G01*
X26532500Y-14944000D02*
G75*
G02*
X26562500Y-14944000I15000J0D01*
G01*
X26566042Y-14059000D02*
G75*
G02*
X26536042Y-14059000I-15000J0D01*
G01*
X26536042Y-14059000D02*
G75*
G02*
X26566042Y-14059000I15000J0D01*
G01*
X26587500Y-11465000D02*
G75*
G02*
X26557500Y-11465000I-15000J0D01*
G01*
X26557500Y-11465000D02*
G75*
G02*
X26587500Y-11465000I15000J0D01*
G01*
X26647500Y-10572500D02*
G75*
G02*
X26617500Y-10572500I-15000J0D01*
G01*
X26617500Y-10572500D02*
G75*
G02*
X26647500Y-10572500I15000J0D01*
G01*
X26710000Y-11000000D02*
G75*
G02*
X26680000Y-11000000I-15000J0D01*
G01*
X26680000Y-11000000D02*
G75*
G02*
X26710000Y-11000000I15000J0D01*
G01*
X26715000Y-11225000D02*
G75*
G02*
X26685000Y-11225000I-15000J0D01*
G01*
X26685000Y-11225000D02*
G75*
G02*
X26715000Y-11225000I15000J0D01*
G01*
X26779500Y-9837500D02*
G75*
G02*
X26749500Y-9837500I-15000J0D01*
G01*
X26749500Y-9837500D02*
G75*
G02*
X26779500Y-9837500I15000J0D01*
G01*
X26810000Y-10390000D02*
G75*
G02*
X26780000Y-10390000I-15000J0D01*
G01*
X26780000Y-10390000D02*
G75*
G02*
X26810000Y-10390000I15000J0D01*
G01*
X26815000Y-13800000D02*
G75*
G02*
X26785000Y-13800000I-15000J0D01*
G01*
X26785000Y-13800000D02*
G75*
G02*
X26815000Y-13800000I15000J0D01*
G01*
X26816500Y-12658000D02*
G75*
G02*
X26786500Y-12658000I-15000J0D01*
G01*
X26786500Y-12658000D02*
G75*
G02*
X26816500Y-12658000I15000J0D01*
G01*
X26816500Y-13420000D02*
G75*
G02*
X26786500Y-13420000I-15000J0D01*
G01*
X26786500Y-13420000D02*
G75*
G02*
X26816500Y-13420000I15000J0D01*
G01*
X26816500Y-14436000D02*
G75*
G02*
X26786500Y-14436000I-15000J0D01*
G01*
X26786500Y-14436000D02*
G75*
G02*
X26816500Y-14436000I15000J0D01*
G01*
X26816500Y-14944000D02*
G75*
G02*
X26786500Y-14944000I-15000J0D01*
G01*
X26786500Y-14944000D02*
G75*
G02*
X26816500Y-14944000I15000J0D01*
G01*
X26979500Y-9162500D02*
G75*
G02*
X26949500Y-9162500I-15000J0D01*
G01*
X26949500Y-9162500D02*
G75*
G02*
X26979500Y-9162500I15000J0D01*
G01*
X26992500Y-12127500D02*
G75*
G02*
X26962500Y-12127500I-15000J0D01*
G01*
X26962500Y-12127500D02*
G75*
G02*
X26992500Y-12127500I15000J0D01*
G01*
X27070500Y-13420000D02*
G75*
G02*
X27040500Y-13420000I-15000J0D01*
G01*
X27040500Y-13420000D02*
G75*
G02*
X27070500Y-13420000I15000J0D01*
G01*
X27121250Y-15293750D02*
G75*
G02*
X27091250Y-15293750I-15000J0D01*
G01*
X27091250Y-15293750D02*
G75*
G02*
X27121250Y-15293750I15000J0D01*
G01*
X27182708Y-15132250D02*
G75*
G02*
X27152708Y-15132250I-15000J0D01*
G01*
X27152708Y-15132250D02*
G75*
G02*
X27182708Y-15132250I15000J0D01*
G01*
X27190000Y-12415000D02*
G75*
G02*
X27160000Y-12415000I-15000J0D01*
G01*
X27160000Y-12415000D02*
G75*
G02*
X27190000Y-12415000I15000J0D01*
G01*
X27192500Y-11927500D02*
G75*
G02*
X27162500Y-11927500I-15000J0D01*
G01*
X27162500Y-11927500D02*
G75*
G02*
X27192500Y-11927500I15000J0D01*
G01*
X27215000Y-12675000D02*
G75*
G02*
X27185000Y-12675000I-15000J0D01*
G01*
X27185000Y-12675000D02*
G75*
G02*
X27215000Y-12675000I15000J0D01*
G01*
X27316250Y-14918750D02*
G75*
G02*
X27286250Y-14918750I-15000J0D01*
G01*
X27286250Y-14918750D02*
G75*
G02*
X27316250Y-14918750I15000J0D01*
G01*
X27322500Y-11232500D02*
G75*
G02*
X27292500Y-11232500I-15000J0D01*
G01*
X27292500Y-11232500D02*
G75*
G02*
X27322500Y-11232500I15000J0D01*
G01*
X27324500Y-13420000D02*
G75*
G02*
X27294500Y-13420000I-15000J0D01*
G01*
X27294500Y-13420000D02*
G75*
G02*
X27324500Y-13420000I15000J0D01*
G01*
X27324500Y-13928000D02*
G75*
G02*
X27294500Y-13928000I-15000J0D01*
G01*
X27294500Y-13928000D02*
G75*
G02*
X27324500Y-13928000I15000J0D01*
G01*
X27324500Y-14436000D02*
G75*
G02*
X27294500Y-14436000I-15000J0D01*
G01*
X27294500Y-14436000D02*
G75*
G02*
X27324500Y-14436000I15000J0D01*
G01*
X27342500Y-10005000D02*
G75*
G02*
X27312500Y-10005000I-15000J0D01*
G01*
X27312500Y-10005000D02*
G75*
G02*
X27342500Y-10005000I15000J0D01*
G01*
X27355000Y-9670000D02*
G75*
G02*
X27325000Y-9670000I-15000J0D01*
G01*
X27325000Y-9670000D02*
G75*
G02*
X27355000Y-9670000I15000J0D01*
G01*
X27365000Y-12452500D02*
G75*
G02*
X27335000Y-12452500I-15000J0D01*
G01*
X27335000Y-12452500D02*
G75*
G02*
X27365000Y-12452500I15000J0D01*
G01*
X27382500Y-10200000D02*
G75*
G02*
X27352500Y-10200000I-15000J0D01*
G01*
X27352500Y-10200000D02*
G75*
G02*
X27382500Y-10200000I15000J0D01*
G01*
X27505000Y-14685000D02*
G75*
G02*
X27475000Y-14685000I-15000J0D01*
G01*
X27475000Y-14685000D02*
G75*
G02*
X27505000Y-14685000I15000J0D01*
G01*
X27578500Y-8848000D02*
G75*
G02*
X27548500Y-8848000I-15000J0D01*
G01*
X27548500Y-8848000D02*
G75*
G02*
X27578500Y-8848000I15000J0D01*
G01*
X27578500Y-9102000D02*
G75*
G02*
X27548500Y-9102000I-15000J0D01*
G01*
X27548500Y-9102000D02*
G75*
G02*
X27578500Y-9102000I15000J0D01*
G01*
X27578500Y-9356000D02*
G75*
G02*
X27548500Y-9356000I-15000J0D01*
G01*
X27548500Y-9356000D02*
G75*
G02*
X27578500Y-9356000I15000J0D01*
G01*
X27578500Y-11642000D02*
G75*
G02*
X27548500Y-11642000I-15000J0D01*
G01*
X27548500Y-11642000D02*
G75*
G02*
X27578500Y-11642000I15000J0D01*
G01*
X27578500Y-13420000D02*
G75*
G02*
X27548500Y-13420000I-15000J0D01*
G01*
X27548500Y-13420000D02*
G75*
G02*
X27578500Y-13420000I15000J0D01*
G01*
X27578500Y-13928000D02*
G75*
G02*
X27548500Y-13928000I-15000J0D01*
G01*
X27548500Y-13928000D02*
G75*
G02*
X27578500Y-13928000I15000J0D01*
G01*
X27690000Y-9835000D02*
G75*
G02*
X27660000Y-9835000I-15000J0D01*
G01*
X27660000Y-9835000D02*
G75*
G02*
X27690000Y-9835000I15000J0D01*
G01*
X27700208Y-14929750D02*
G75*
G02*
X27670208Y-14929750I-15000J0D01*
G01*
X27670208Y-14929750D02*
G75*
G02*
X27700208Y-14929750I15000J0D01*
G01*
X27720000Y-9710000D02*
G75*
G02*
X27690000Y-9710000I-15000J0D01*
G01*
X27690000Y-9710000D02*
G75*
G02*
X27720000Y-9710000I15000J0D01*
G01*
X27735000Y-11710000D02*
G75*
G02*
X27705000Y-11710000I-15000J0D01*
G01*
X27705000Y-11710000D02*
G75*
G02*
X27735000Y-11710000I15000J0D01*
G01*
X27736361Y-10564081D02*
G75*
G02*
X27706361Y-10564081I-15000J0D01*
G01*
X27706361Y-10564081D02*
G75*
G02*
X27736361Y-10564081I15000J0D01*
G01*
X27792500Y-12520000D02*
G75*
G02*
X27762500Y-12520000I-15000J0D01*
G01*
X27762500Y-12520000D02*
G75*
G02*
X27792500Y-12520000I15000J0D01*
G01*
X27830000Y-10385000D02*
G75*
G02*
X27800000Y-10385000I-15000J0D01*
G01*
X27800000Y-10385000D02*
G75*
G02*
X27830000Y-10385000I15000J0D01*
G01*
X27832500Y-11388000D02*
G75*
G02*
X27802500Y-11388000I-15000J0D01*
G01*
X27802500Y-11388000D02*
G75*
G02*
X27832500Y-11388000I15000J0D01*
G01*
X27832500Y-13420000D02*
G75*
G02*
X27802500Y-13420000I-15000J0D01*
G01*
X27802500Y-13420000D02*
G75*
G02*
X27832500Y-13420000I15000J0D01*
G01*
X27832500Y-13928000D02*
G75*
G02*
X27802500Y-13928000I-15000J0D01*
G01*
X27802500Y-13928000D02*
G75*
G02*
X27832500Y-13928000I15000J0D01*
G01*
X27862314Y-10706828D02*
G75*
G02*
X27832314Y-10706828I-15000J0D01*
G01*
X27832314Y-10706828D02*
G75*
G02*
X27862314Y-10706828I15000J0D01*
G01*
X27950000Y-14525000D02*
G75*
G02*
X27920000Y-14525000I-15000J0D01*
G01*
X27920000Y-14525000D02*
G75*
G02*
X27950000Y-14525000I15000J0D01*
G01*
X27978545Y-10831014D02*
G75*
G02*
X27948545Y-10831014I-15000J0D01*
G01*
X27948545Y-10831014D02*
G75*
G02*
X27978545Y-10831014I15000J0D01*
G01*
X28086500Y-9102000D02*
G75*
G02*
X28056500Y-9102000I-15000J0D01*
G01*
X28056500Y-9102000D02*
G75*
G02*
X28086500Y-9102000I15000J0D01*
G01*
X28086500Y-11134000D02*
G75*
G02*
X28056500Y-11134000I-15000J0D01*
G01*
X28056500Y-11134000D02*
G75*
G02*
X28086500Y-11134000I15000J0D01*
G01*
X28086500Y-11642000D02*
G75*
G02*
X28056500Y-11642000I-15000J0D01*
G01*
X28056500Y-11642000D02*
G75*
G02*
X28086500Y-11642000I15000J0D01*
G01*
X28086500Y-13420000D02*
G75*
G02*
X28056500Y-13420000I-15000J0D01*
G01*
X28056500Y-13420000D02*
G75*
G02*
X28086500Y-13420000I15000J0D01*
G01*
X28086500Y-13928000D02*
G75*
G02*
X28056500Y-13928000I-15000J0D01*
G01*
X28056500Y-13928000D02*
G75*
G02*
X28086500Y-13928000I15000J0D01*
G01*
X28086500Y-15452000D02*
G75*
G02*
X28056500Y-15452000I-15000J0D01*
G01*
X28056500Y-15452000D02*
G75*
G02*
X28086500Y-15452000I15000J0D01*
G01*
X28175000Y-14925000D02*
G75*
G02*
X28145000Y-14925000I-15000J0D01*
G01*
X28145000Y-14925000D02*
G75*
G02*
X28175000Y-14925000I15000J0D01*
G01*
X28185000Y-14200000D02*
G75*
G02*
X28155000Y-14200000I-15000J0D01*
G01*
X28155000Y-14200000D02*
G75*
G02*
X28185000Y-14200000I15000J0D01*
G01*
X28225000Y-14450000D02*
G75*
G02*
X28195000Y-14450000I-15000J0D01*
G01*
X28195000Y-14450000D02*
G75*
G02*
X28225000Y-14450000I15000J0D01*
G01*
X28340000Y-11690000D02*
G75*
G02*
X28310000Y-11690000I-15000J0D01*
G01*
X28310000Y-11690000D02*
G75*
G02*
X28340000Y-11690000I15000J0D01*
G01*
X28340500Y-10880000D02*
G75*
G02*
X28310500Y-10880000I-15000J0D01*
G01*
X28310500Y-10880000D02*
G75*
G02*
X28340500Y-10880000I15000J0D01*
G01*
X28340500Y-12404000D02*
G75*
G02*
X28310500Y-12404000I-15000J0D01*
G01*
X28310500Y-12404000D02*
G75*
G02*
X28340500Y-12404000I15000J0D01*
G01*
X28340500Y-13420000D02*
G75*
G02*
X28310500Y-13420000I-15000J0D01*
G01*
X28310500Y-13420000D02*
G75*
G02*
X28340500Y-13420000I15000J0D01*
G01*
X28340500Y-13928000D02*
G75*
G02*
X28310500Y-13928000I-15000J0D01*
G01*
X28310500Y-13928000D02*
G75*
G02*
X28340500Y-13928000I15000J0D01*
G01*
X28340500Y-15198000D02*
G75*
G02*
X28310500Y-15198000I-15000J0D01*
G01*
X28310500Y-15198000D02*
G75*
G02*
X28340500Y-15198000I15000J0D01*
G01*
X28340500Y-15452000D02*
G75*
G02*
X28310500Y-15452000I-15000J0D01*
G01*
X28310500Y-15452000D02*
G75*
G02*
X28340500Y-15452000I15000J0D01*
G01*
X28347500Y-10500000D02*
G75*
G02*
X28317500Y-10500000I-15000J0D01*
G01*
X28317500Y-10500000D02*
G75*
G02*
X28347500Y-10500000I15000J0D01*
G01*
X28367500Y-10385000D02*
G75*
G02*
X28337500Y-10385000I-15000J0D01*
G01*
X28337500Y-10385000D02*
G75*
G02*
X28367500Y-10385000I15000J0D01*
G01*
X28435000Y-11907500D02*
G75*
G02*
X28405000Y-11907500I-15000J0D01*
G01*
X28405000Y-11907500D02*
G75*
G02*
X28435000Y-11907500I15000J0D01*
G01*
X28594500Y-11134000D02*
G75*
G02*
X28564500Y-11134000I-15000J0D01*
G01*
X28564500Y-11134000D02*
G75*
G02*
X28594500Y-11134000I15000J0D01*
G01*
X28594500Y-11388000D02*
G75*
G02*
X28564500Y-11388000I-15000J0D01*
G01*
X28564500Y-11388000D02*
G75*
G02*
X28594500Y-11388000I15000J0D01*
G01*
X28594500Y-12404000D02*
G75*
G02*
X28564500Y-12404000I-15000J0D01*
G01*
X28564500Y-12404000D02*
G75*
G02*
X28594500Y-12404000I15000J0D01*
G01*
X28594500Y-13420000D02*
G75*
G02*
X28564500Y-13420000I-15000J0D01*
G01*
X28564500Y-13420000D02*
G75*
G02*
X28594500Y-13420000I15000J0D01*
G01*
X28594500Y-13928000D02*
G75*
G02*
X28564500Y-13928000I-15000J0D01*
G01*
X28564500Y-13928000D02*
G75*
G02*
X28594500Y-13928000I15000J0D01*
G01*
X28594500Y-15452000D02*
G75*
G02*
X28564500Y-15452000I-15000J0D01*
G01*
X28564500Y-15452000D02*
G75*
G02*
X28594500Y-15452000I15000J0D01*
G01*
X28640000Y-10695000D02*
G75*
G02*
X28610000Y-10695000I-15000J0D01*
G01*
X28610000Y-10695000D02*
G75*
G02*
X28640000Y-10695000I15000J0D01*
G01*
X28730000Y-10585000D02*
G75*
G02*
X28700000Y-10585000I-15000J0D01*
G01*
X28700000Y-10585000D02*
G75*
G02*
X28730000Y-10585000I15000J0D01*
G01*
X28795000Y-14605000D02*
G75*
G02*
X28765000Y-14605000I-15000J0D01*
G01*
X28765000Y-14605000D02*
G75*
G02*
X28795000Y-14605000I15000J0D01*
G01*
X28848500Y-10372000D02*
G75*
G02*
X28818500Y-10372000I-15000J0D01*
G01*
X28818500Y-10372000D02*
G75*
G02*
X28848500Y-10372000I15000J0D01*
G01*
X28848500Y-11134000D02*
G75*
G02*
X28818500Y-11134000I-15000J0D01*
G01*
X28818500Y-11134000D02*
G75*
G02*
X28848500Y-11134000I15000J0D01*
G01*
X28848500Y-13420000D02*
G75*
G02*
X28818500Y-13420000I-15000J0D01*
G01*
X28818500Y-13420000D02*
G75*
G02*
X28848500Y-13420000I15000J0D01*
G01*
X28848500Y-14182000D02*
G75*
G02*
X28818500Y-14182000I-15000J0D01*
G01*
X28818500Y-14182000D02*
G75*
G02*
X28848500Y-14182000I15000J0D01*
G01*
X28848500Y-15452000D02*
G75*
G02*
X28818500Y-15452000I-15000J0D01*
G01*
X28818500Y-15452000D02*
G75*
G02*
X28848500Y-15452000I15000J0D01*
G01*
X29102500Y-10118000D02*
G75*
G02*
X29072500Y-10118000I-15000J0D01*
G01*
X29072500Y-10118000D02*
G75*
G02*
X29102500Y-10118000I15000J0D01*
G01*
X29102500Y-12150000D02*
G75*
G02*
X29072500Y-12150000I-15000J0D01*
G01*
X29072500Y-12150000D02*
G75*
G02*
X29102500Y-12150000I15000J0D01*
G01*
X29102500Y-13674000D02*
G75*
G02*
X29072500Y-13674000I-15000J0D01*
G01*
X29072500Y-13674000D02*
G75*
G02*
X29102500Y-13674000I15000J0D01*
G01*
X29102500Y-14690000D02*
G75*
G02*
X29072500Y-14690000I-15000J0D01*
G01*
X29072500Y-14690000D02*
G75*
G02*
X29102500Y-14690000I15000J0D01*
G01*
X29102500Y-15452000D02*
G75*
G02*
X29072500Y-15452000I-15000J0D01*
G01*
X29072500Y-15452000D02*
G75*
G02*
X29102500Y-15452000I15000J0D01*
G01*
X29125000Y-13085000D02*
G75*
G02*
X29095000Y-13085000I-15000J0D01*
G01*
X29095000Y-13085000D02*
G75*
G02*
X29125000Y-13085000I15000J0D01*
G01*
X29175000Y-12460000D02*
G75*
G02*
X29145000Y-12460000I-15000J0D01*
G01*
X29145000Y-12460000D02*
G75*
G02*
X29175000Y-12460000I15000J0D01*
G01*
X29200000Y-13195000D02*
G75*
G02*
X29170000Y-13195000I-15000J0D01*
G01*
X29170000Y-13195000D02*
G75*
G02*
X29200000Y-13195000I15000J0D01*
G01*
X29215000Y-14360000D02*
G75*
G02*
X29185000Y-14360000I-15000J0D01*
G01*
X29185000Y-14360000D02*
G75*
G02*
X29215000Y-14360000I15000J0D01*
G01*
X29230000Y-11575000D02*
G75*
G02*
X29200000Y-11575000I-15000J0D01*
G01*
X29200000Y-11575000D02*
G75*
G02*
X29230000Y-11575000I15000J0D01*
G01*
X29290000Y-13095000D02*
G75*
G02*
X29260000Y-13095000I-15000J0D01*
G01*
X29260000Y-13095000D02*
G75*
G02*
X29290000Y-13095000I15000J0D01*
G01*
X29356500Y-8848000D02*
G75*
G02*
X29326500Y-8848000I-15000J0D01*
G01*
X29326500Y-8848000D02*
G75*
G02*
X29356500Y-8848000I15000J0D01*
G01*
X29356500Y-15452000D02*
G75*
G02*
X29326500Y-15452000I-15000J0D01*
G01*
X29326500Y-15452000D02*
G75*
G02*
X29356500Y-15452000I15000J0D01*
G01*
X29465000Y-13975000D02*
G75*
G02*
X29435000Y-13975000I-15000J0D01*
G01*
X29435000Y-13975000D02*
G75*
G02*
X29465000Y-13975000I15000J0D01*
G01*
X29580000Y-13075000D02*
G75*
G02*
X29550000Y-13075000I-15000J0D01*
G01*
X29550000Y-13075000D02*
G75*
G02*
X29580000Y-13075000I15000J0D01*
G01*
X29610500Y-8848000D02*
G75*
G02*
X29580500Y-8848000I-15000J0D01*
G01*
X29580500Y-8848000D02*
G75*
G02*
X29610500Y-8848000I15000J0D01*
G01*
X29610500Y-10626000D02*
G75*
G02*
X29580500Y-10626000I-15000J0D01*
G01*
X29580500Y-10626000D02*
G75*
G02*
X29610500Y-10626000I15000J0D01*
G01*
X29610500Y-15452000D02*
G75*
G02*
X29580500Y-15452000I-15000J0D01*
G01*
X29580500Y-15452000D02*
G75*
G02*
X29610500Y-15452000I15000J0D01*
G01*
X29722500Y-11200000D02*
G75*
G02*
X29692500Y-11200000I-15000J0D01*
G01*
X29692500Y-11200000D02*
G75*
G02*
X29722500Y-11200000I15000J0D01*
G01*
X29864500Y-12404000D02*
G75*
G02*
X29834500Y-12404000I-15000J0D01*
G01*
X29834500Y-12404000D02*
G75*
G02*
X29864500Y-12404000I15000J0D01*
G01*
X29864500Y-12658000D02*
G75*
G02*
X29834500Y-12658000I-15000J0D01*
G01*
X29834500Y-12658000D02*
G75*
G02*
X29864500Y-12658000I15000J0D01*
G01*
X29864500Y-12912000D02*
G75*
G02*
X29834500Y-12912000I-15000J0D01*
G01*
X29834500Y-12912000D02*
G75*
G02*
X29864500Y-12912000I15000J0D01*
G01*
X29864500Y-13166000D02*
G75*
G02*
X29834500Y-13166000I-15000J0D01*
G01*
X29834500Y-13166000D02*
G75*
G02*
X29864500Y-13166000I15000J0D01*
G01*
X29864500Y-15452000D02*
G75*
G02*
X29834500Y-15452000I-15000J0D01*
G01*
X29834500Y-15452000D02*
G75*
G02*
X29864500Y-15452000I15000J0D01*
G01*
X21825000Y-9950000D02*
X21825000Y-9980000D01*
X21810000Y-9965000D02*
X21840000Y-9965000D01*
X21825000Y-10080000D02*
X21825000Y-10110000D01*
X21810000Y-10095000D02*
X21840000Y-10095000D01*
X21825000Y-10210000D02*
X21825000Y-10240000D01*
X21810000Y-10225000D02*
X21840000Y-10225000D01*
X21825000Y-10340000D02*
X21825000Y-10370000D01*
X21810000Y-10355000D02*
X21840000Y-10355000D01*
X21825000Y-10470000D02*
X21825000Y-10500000D01*
X21810000Y-10485000D02*
X21840000Y-10485000D01*
X21955000Y-9950000D02*
X21955000Y-9980000D01*
X21940000Y-9965000D02*
X21970000Y-9965000D01*
X21955000Y-10080000D02*
X21955000Y-10110000D01*
X21940000Y-10095000D02*
X21970000Y-10095000D01*
X21955000Y-10210000D02*
X21955000Y-10240000D01*
X21940000Y-10225000D02*
X21970000Y-10225000D01*
X21955000Y-10340000D02*
X21955000Y-10370000D01*
X21940000Y-10355000D02*
X21970000Y-10355000D01*
X21955000Y-10470000D02*
X21955000Y-10500000D01*
X21940000Y-10485000D02*
X21970000Y-10485000D01*
X22085000Y-9950000D02*
X22085000Y-9980000D01*
X22070000Y-9965000D02*
X22100000Y-9965000D01*
X22085000Y-10080000D02*
X22085000Y-10110000D01*
X22070000Y-10095000D02*
X22100000Y-10095000D01*
X22085000Y-10210000D02*
X22085000Y-10240000D01*
X22070000Y-10225000D02*
X22100000Y-10225000D01*
X22085000Y-10340000D02*
X22085000Y-10370000D01*
X22070000Y-10355000D02*
X22100000Y-10355000D01*
X22085000Y-10470000D02*
X22085000Y-10500000D01*
X22070000Y-10485000D02*
X22100000Y-10485000D01*
X23360000Y-8890000D02*
X23360000Y-8920000D01*
X23345000Y-8905000D02*
X23375000Y-8905000D01*
X23360000Y-8990000D02*
X23360000Y-9020000D01*
X23345000Y-9005000D02*
X23375000Y-9005000D01*
X23460000Y-8890000D02*
X23460000Y-8920000D01*
X23445000Y-8905000D02*
X23475000Y-8905000D01*
X23460000Y-8990000D02*
X23460000Y-9020000D01*
X23445000Y-9005000D02*
X23475000Y-9005000D01*
X25020000Y-8860000D02*
X25020000Y-8890000D01*
X25005000Y-8875000D02*
X25035000Y-8875000D01*
X25020000Y-8960000D02*
X25020000Y-8990000D01*
X25005000Y-8975000D02*
X25035000Y-8975000D01*
X25120000Y-8860000D02*
X25120000Y-8890000D01*
X25105000Y-8875000D02*
X25135000Y-8875000D01*
X25120000Y-8960000D02*
X25120000Y-8990000D01*
X25105000Y-8975000D02*
X25135000Y-8975000D01*
X29227678Y-10717678D02*
X29227678Y-10682322D01*
X29192322Y-10682322D01*
X29192322Y-10717678D01*
X29227678Y-10717678D01*
X29327678Y-10717678D02*
X29327678Y-10682322D01*
X29292322Y-10682322D01*
X29292322Y-10717678D01*
X29327678Y-10717678D01*
X29427678Y-10717678D02*
X29427678Y-10682322D01*
X29392322Y-10682322D01*
X29392322Y-10717678D01*
X29427678Y-10717678D01*
X20600000Y-10807500D02*
X20637500Y-10770000D01*
X20600000Y-10732500D01*
X20562500Y-10770000D01*
X20600000Y-10807500D01*
X20600000Y-11007500D02*
X20637500Y-10970000D01*
X20600000Y-10932500D01*
X20562500Y-10970000D01*
X20600000Y-11007500D01*
X20600000Y-11207500D02*
X20637500Y-11170000D01*
X20600000Y-11132500D01*
X20562500Y-11170000D01*
X20600000Y-11207500D01*
X20600000Y-11407500D02*
X20637500Y-11370000D01*
X20600000Y-11332500D01*
X20562500Y-11370000D01*
X20600000Y-11407500D01*
X20600000Y-11607500D02*
X20637500Y-11570000D01*
X20600000Y-11532500D01*
X20562500Y-11570000D01*
X20600000Y-11607500D01*
X20600000Y-11807500D02*
X20637500Y-11770000D01*
X20600000Y-11732500D01*
X20562500Y-11770000D01*
X20600000Y-11807500D01*
X20600000Y-12007500D02*
X20637500Y-11970000D01*
X20600000Y-11932500D01*
X20562500Y-11970000D01*
X20600000Y-12007500D01*
X20600000Y-12207500D02*
X20637500Y-12170000D01*
X20600000Y-12132500D01*
X20562500Y-12170000D01*
X20600000Y-12207500D01*
X26689500Y-8802500D02*
X26727000Y-8765000D01*
X26689500Y-8727500D01*
X26652000Y-8765000D01*
X26689500Y-8802500D01*
X26889500Y-8802500D02*
X26927000Y-8765000D01*
X26889500Y-8727500D01*
X26852000Y-8765000D01*
X26889500Y-8802500D01*
X27089500Y-8802500D02*
X27127000Y-8765000D01*
X27089500Y-8727500D01*
X27052000Y-8765000D01*
X27089500Y-8802500D01*
X27289500Y-8802500D02*
X27327000Y-8765000D01*
X27289500Y-8727500D01*
X27252000Y-8765000D01*
X27289500Y-8802500D01*
X27840000Y-8802500D02*
X27877500Y-8765000D01*
X27840000Y-8727500D01*
X27802500Y-8765000D01*
X27840000Y-8802500D01*
X28040000Y-8802500D02*
X28077500Y-8765000D01*
X28040000Y-8727500D01*
X28002500Y-8765000D01*
X28040000Y-8802500D01*
X28240000Y-8802500D02*
X28277500Y-8765000D01*
X28240000Y-8727500D01*
X28202500Y-8765000D01*
X28240000Y-8802500D01*
X29845000Y-8662500D02*
X29882500Y-8625000D01*
X29845000Y-8587500D01*
X29807500Y-8625000D01*
X29845000Y-8662500D01*
X29845000Y-8862500D02*
X29882500Y-8825000D01*
X29845000Y-8787500D01*
X29807500Y-8825000D01*
X29845000Y-8862500D01*
X29845000Y-9062500D02*
X29882500Y-9025000D01*
X29845000Y-8987500D01*
X29807500Y-9025000D01*
X29845000Y-9062500D01*
X29845000Y-9262500D02*
X29882500Y-9225000D01*
X29845000Y-9187500D01*
X29807500Y-9225000D01*
X29845000Y-9262500D01*
X29850000Y-9777500D02*
X29887500Y-9740000D01*
X29850000Y-9702500D01*
X29812500Y-9740000D01*
X29850000Y-9777500D01*
X29850000Y-9977500D02*
X29887500Y-9940000D01*
X29850000Y-9902500D01*
X29812500Y-9940000D01*
X29850000Y-9977500D01*
X29850000Y-10177500D02*
X29887500Y-10140000D01*
X29850000Y-10102500D01*
X29812500Y-10140000D01*
X29850000Y-10177500D01*
X29850000Y-10377500D02*
X29887500Y-10340000D01*
X29850000Y-10302500D01*
X29812500Y-10340000D01*
X29850000Y-10377500D01*
X29850000Y-10577500D02*
X29887500Y-10540000D01*
X29850000Y-10502500D01*
X29812500Y-10540000D01*
X29850000Y-10577500D01*
X29850000Y-10777500D02*
X29887500Y-10740000D01*
X29850000Y-10702500D01*
X29812500Y-10740000D01*
X29850000Y-10777500D01*
X28642500Y-8670000D02*
X28722500Y-8750000D01*
X28722500Y-8670000D02*
X28642500Y-8750000D01*
X28722500Y-8710000D02*
G75*
G02*
X28642500Y-8710000I-40000J0D01*
G01*
X28642500Y-8710000D02*
G75*
G02*
X28722500Y-8710000I40000J0D01*
G01*
X28642500Y-8870000D02*
X28722500Y-8950000D01*
X28722500Y-8870000D02*
X28642500Y-8950000D01*
X28722500Y-8910000D02*
G75*
G02*
X28642500Y-8910000I-40000J0D01*
G01*
X28642500Y-8910000D02*
G75*
G02*
X28722500Y-8910000I40000J0D01*
G01*
X28642500Y-9070000D02*
X28722500Y-9150000D01*
X28722500Y-9070000D02*
X28642500Y-9150000D01*
X28722500Y-9110000D02*
G75*
G02*
X28642500Y-9110000I-40000J0D01*
G01*
X28642500Y-9110000D02*
G75*
G02*
X28722500Y-9110000I40000J0D01*
G01*
X28642500Y-9270000D02*
X28722500Y-9350000D01*
X28722500Y-9270000D02*
X28642500Y-9350000D01*
X28722500Y-9310000D02*
G75*
G02*
X28642500Y-9310000I-40000J0D01*
G01*
X28642500Y-9310000D02*
G75*
G02*
X28722500Y-9310000I40000J0D01*
G01*
X28642500Y-9470000D02*
X28722500Y-9550000D01*
X28722500Y-9470000D02*
X28642500Y-9550000D01*
X28722500Y-9510000D02*
G75*
G02*
X28642500Y-9510000I-40000J0D01*
G01*
X28642500Y-9510000D02*
G75*
G02*
X28722500Y-9510000I40000J0D01*
G01*
X28842500Y-8870000D02*
X28922500Y-8950000D01*
X28922500Y-8870000D02*
X28842500Y-8950000D01*
X28922500Y-8910000D02*
G75*
G02*
X28842500Y-8910000I-40000J0D01*
G01*
X28842500Y-8910000D02*
G75*
G02*
X28922500Y-8910000I40000J0D01*
G01*
X28842500Y-9070000D02*
X28922500Y-9150000D01*
X28922500Y-9070000D02*
X28842500Y-9150000D01*
X28922500Y-9110000D02*
G75*
G02*
X28842500Y-9110000I-40000J0D01*
G01*
X28842500Y-9110000D02*
G75*
G02*
X28922500Y-9110000I40000J0D01*
G01*
X28842500Y-9270000D02*
X28922500Y-9350000D01*
X28922500Y-9270000D02*
X28842500Y-9350000D01*
X28922500Y-9310000D02*
G75*
G02*
X28842500Y-9310000I-40000J0D01*
G01*
X28842500Y-9310000D02*
G75*
G02*
X28922500Y-9310000I40000J0D01*
G01*
X28842500Y-9470000D02*
X28922500Y-9550000D01*
X28922500Y-9470000D02*
X28842500Y-9550000D01*
X28922500Y-9510000D02*
G75*
G02*
X28842500Y-9510000I-40000J0D01*
G01*
X28842500Y-9510000D02*
G75*
G02*
X28922500Y-9510000I40000J0D01*
G01*
X28842500Y-8670000D02*
X28922500Y-8750000D01*
X28922500Y-8670000D02*
X28842500Y-8750000D01*
X28922500Y-8710000D02*
G75*
G02*
X28842500Y-8710000I-40000J0D01*
G01*
X28842500Y-8710000D02*
G75*
G02*
X28922500Y-8710000I40000J0D01*
G01*
X20481042Y-14351000D02*
X20581042Y-14451000D01*
X20581042Y-14351000D02*
X20481042Y-14451000D01*
X20531042Y-14351000D02*
X20531042Y-14451000D01*
X20481042Y-14401000D02*
X20581042Y-14401000D01*
X20481042Y-14605000D02*
X20581042Y-14705000D01*
X20581042Y-14605000D02*
X20481042Y-14705000D01*
X20531042Y-14605000D02*
X20531042Y-14705000D01*
X20481042Y-14655000D02*
X20581042Y-14655000D01*
X20481042Y-14859000D02*
X20581042Y-14959000D01*
X20581042Y-14859000D02*
X20481042Y-14959000D01*
X20531042Y-14859000D02*
X20531042Y-14959000D01*
X20481042Y-14909000D02*
X20581042Y-14909000D01*
X20481042Y-15113000D02*
X20581042Y-15213000D01*
X20581042Y-15113000D02*
X20481042Y-15213000D01*
X20531042Y-15113000D02*
X20531042Y-15213000D01*
X20481042Y-15163000D02*
X20581042Y-15163000D01*
X20535000Y-12740000D02*
X20635000Y-12840000D01*
X20635000Y-12740000D02*
X20535000Y-12840000D01*
X20585000Y-12740000D02*
X20585000Y-12840000D01*
X20535000Y-12790000D02*
X20635000Y-12790000D01*
X20535000Y-12994000D02*
X20635000Y-13094000D01*
X20635000Y-12994000D02*
X20535000Y-13094000D01*
X20585000Y-12994000D02*
X20585000Y-13094000D01*
X20535000Y-13044000D02*
X20635000Y-13044000D01*
X20735042Y-14351000D02*
X20835042Y-14451000D01*
X20835042Y-14351000D02*
X20735042Y-14451000D01*
X20785042Y-14351000D02*
X20785042Y-14451000D01*
X20735042Y-14401000D02*
X20835042Y-14401000D01*
X20735042Y-14605000D02*
X20835042Y-14705000D01*
X20835042Y-14605000D02*
X20735042Y-14705000D01*
X20785042Y-14605000D02*
X20785042Y-14705000D01*
X20735042Y-14655000D02*
X20835042Y-14655000D01*
X20735042Y-14859000D02*
X20835042Y-14959000D01*
X20835042Y-14859000D02*
X20735042Y-14959000D01*
X20785042Y-14859000D02*
X20785042Y-14959000D01*
X20735042Y-14909000D02*
X20835042Y-14909000D01*
X20735042Y-15113000D02*
X20835042Y-15213000D01*
X20835042Y-15113000D02*
X20735042Y-15213000D01*
X20785042Y-15113000D02*
X20785042Y-15213000D01*
X20735042Y-15163000D02*
X20835042Y-15163000D01*
X24848000Y-10295000D02*
X24948000Y-10395000D01*
X24948000Y-10295000D02*
X24848000Y-10395000D01*
X24898000Y-10295000D02*
X24898000Y-10395000D01*
X24848000Y-10345000D02*
X24948000Y-10345000D01*
X24976042Y-14351000D02*
X25076042Y-14451000D01*
X25076042Y-14351000D02*
X24976042Y-14451000D01*
X25026042Y-14351000D02*
X25026042Y-14451000D01*
X24976042Y-14401000D02*
X25076042Y-14401000D01*
X24976042Y-14605000D02*
X25076042Y-14705000D01*
X25076042Y-14605000D02*
X24976042Y-14705000D01*
X25026042Y-14605000D02*
X25026042Y-14705000D01*
X24976042Y-14655000D02*
X25076042Y-14655000D01*
X24976042Y-14859000D02*
X25076042Y-14959000D01*
X25076042Y-14859000D02*
X24976042Y-14959000D01*
X25026042Y-14859000D02*
X25026042Y-14959000D01*
X24976042Y-14909000D02*
X25076042Y-14909000D01*
X24976042Y-15113000D02*
X25076042Y-15213000D01*
X25076042Y-15113000D02*
X24976042Y-15213000D01*
X25026042Y-15113000D02*
X25026042Y-15213000D01*
X24976042Y-15163000D02*
X25076042Y-15163000D01*
X25102000Y-10295000D02*
X25202000Y-10395000D01*
X25202000Y-10295000D02*
X25102000Y-10395000D01*
X25152000Y-10295000D02*
X25152000Y-10395000D01*
X25102000Y-10345000D02*
X25202000Y-10345000D01*
X25230042Y-14351000D02*
X25330042Y-14451000D01*
X25330042Y-14351000D02*
X25230042Y-14451000D01*
X25280042Y-14351000D02*
X25280042Y-14451000D01*
X25230042Y-14401000D02*
X25330042Y-14401000D01*
X25230042Y-14605000D02*
X25330042Y-14705000D01*
X25330042Y-14605000D02*
X25230042Y-14705000D01*
X25280042Y-14605000D02*
X25280042Y-14705000D01*
X25230042Y-14655000D02*
X25330042Y-14655000D01*
X25230042Y-14859000D02*
X25330042Y-14959000D01*
X25330042Y-14859000D02*
X25230042Y-14959000D01*
X25280042Y-14859000D02*
X25280042Y-14959000D01*
X25230042Y-14909000D02*
X25330042Y-14909000D01*
X25230042Y-15113000D02*
X25330042Y-15213000D01*
X25330042Y-15113000D02*
X25230042Y-15213000D01*
X25280042Y-15113000D02*
X25280042Y-15213000D01*
X25230042Y-15163000D02*
X25330042Y-15163000D01*
X25356000Y-10295000D02*
X25456000Y-10395000D01*
X25456000Y-10295000D02*
X25356000Y-10395000D01*
X25406000Y-10295000D02*
X25406000Y-10395000D01*
X25356000Y-10345000D02*
X25456000Y-10345000D01*
X25610000Y-10295000D02*
X25710000Y-10395000D01*
X25710000Y-10295000D02*
X25610000Y-10395000D01*
X25660000Y-10295000D02*
X25660000Y-10395000D01*
X25610000Y-10345000D02*
X25710000Y-10345000D01*
X25864000Y-10295000D02*
X25964000Y-10395000D01*
X25964000Y-10295000D02*
X25864000Y-10395000D01*
X25914000Y-10295000D02*
X25914000Y-10395000D01*
X25864000Y-10345000D02*
X25964000Y-10345000D01*
X29427042Y-14316000D02*
X29527042Y-14416000D01*
X29527042Y-14316000D02*
X29427042Y-14416000D01*
X29477042Y-14316000D02*
X29477042Y-14416000D01*
X29427042Y-14366000D02*
X29527042Y-14366000D01*
X29427042Y-14570000D02*
X29527042Y-14670000D01*
X29527042Y-14570000D02*
X29427042Y-14670000D01*
X29477042Y-14570000D02*
X29477042Y-14670000D01*
X29427042Y-14620000D02*
X29527042Y-14620000D01*
X29427042Y-14824000D02*
X29527042Y-14924000D01*
X29527042Y-14824000D02*
X29427042Y-14924000D01*
X29477042Y-14824000D02*
X29477042Y-14924000D01*
X29427042Y-14874000D02*
X29527042Y-14874000D01*
X29427042Y-15078000D02*
X29527042Y-15178000D01*
X29527042Y-15078000D02*
X29427042Y-15178000D01*
X29477042Y-15078000D02*
X29477042Y-15178000D01*
X29427042Y-15128000D02*
X29527042Y-15128000D01*
X29681042Y-14316000D02*
X29781042Y-14416000D01*
X29781042Y-14316000D02*
X29681042Y-14416000D01*
X29731042Y-14316000D02*
X29731042Y-14416000D01*
X29681042Y-14366000D02*
X29781042Y-14366000D01*
X29681042Y-14570000D02*
X29781042Y-14670000D01*
X29781042Y-14570000D02*
X29681042Y-14670000D01*
X29731042Y-14570000D02*
X29731042Y-14670000D01*
X29681042Y-14620000D02*
X29781042Y-14620000D01*
X29681042Y-14824000D02*
X29781042Y-14924000D01*
X29781042Y-14824000D02*
X29681042Y-14924000D01*
X29731042Y-14824000D02*
X29731042Y-14924000D01*
X29681042Y-14874000D02*
X29781042Y-14874000D01*
X29681042Y-15078000D02*
X29781042Y-15178000D01*
X29781042Y-15078000D02*
X29681042Y-15178000D01*
X29731042Y-15078000D02*
X29731042Y-15178000D01*
X29681042Y-15128000D02*
X29781042Y-15128000D01*
D11*
X20458277Y-16023984D02*
X20458277Y-15823984D01*
X20458277Y-15823984D02*
X20505896Y-15823984D01*
X20505896Y-15823984D02*
X20534467Y-15833508D01*
X20534467Y-15833508D02*
X20553515Y-15852555D01*
X20553515Y-15852555D02*
X20563039Y-15871603D01*
X20563039Y-15871603D02*
X20572563Y-15909698D01*
X20572563Y-15909698D02*
X20572563Y-15938269D01*
X20572563Y-15938269D02*
X20563039Y-15976365D01*
X20563039Y-15976365D02*
X20553515Y-15995412D01*
X20553515Y-15995412D02*
X20534467Y-16014460D01*
X20534467Y-16014460D02*
X20505896Y-16023984D01*
X20505896Y-16023984D02*
X20458277Y-16023984D01*
X20658277Y-16023984D02*
X20658277Y-15890650D01*
X20658277Y-15928746D02*
X20667801Y-15909698D01*
X20667801Y-15909698D02*
X20677324Y-15900174D01*
X20677324Y-15900174D02*
X20696372Y-15890650D01*
X20696372Y-15890650D02*
X20715420Y-15890650D01*
X20782086Y-16023984D02*
X20782086Y-15890650D01*
X20782086Y-15823984D02*
X20772563Y-15833508D01*
X20772563Y-15833508D02*
X20782086Y-15843031D01*
X20782086Y-15843031D02*
X20791610Y-15833508D01*
X20791610Y-15833508D02*
X20782086Y-15823984D01*
X20782086Y-15823984D02*
X20782086Y-15843031D01*
X20905896Y-16023984D02*
X20886848Y-16014460D01*
X20886848Y-16014460D02*
X20877324Y-15995412D01*
X20877324Y-15995412D02*
X20877324Y-15823984D01*
X21010658Y-16023984D02*
X20991610Y-16014460D01*
X20991610Y-16014460D02*
X20982086Y-15995412D01*
X20982086Y-15995412D02*
X20982086Y-15823984D01*
X21239229Y-16023984D02*
X21239229Y-15823984D01*
X21239229Y-15823984D02*
X21305896Y-15966841D01*
X21305896Y-15966841D02*
X21372563Y-15823984D01*
X21372563Y-15823984D02*
X21372563Y-16023984D01*
X21553515Y-16023984D02*
X21553515Y-15919222D01*
X21553515Y-15919222D02*
X21543991Y-15900174D01*
X21543991Y-15900174D02*
X21524944Y-15890650D01*
X21524944Y-15890650D02*
X21486848Y-15890650D01*
X21486848Y-15890650D02*
X21467801Y-15900174D01*
X21553515Y-16014460D02*
X21534467Y-16023984D01*
X21534467Y-16023984D02*
X21486848Y-16023984D01*
X21486848Y-16023984D02*
X21467801Y-16014460D01*
X21467801Y-16014460D02*
X21458277Y-15995412D01*
X21458277Y-15995412D02*
X21458277Y-15976365D01*
X21458277Y-15976365D02*
X21467801Y-15957317D01*
X21467801Y-15957317D02*
X21486848Y-15947793D01*
X21486848Y-15947793D02*
X21534467Y-15947793D01*
X21534467Y-15947793D02*
X21553515Y-15938269D01*
X21648753Y-15890650D02*
X21648753Y-16090650D01*
X21648753Y-15900174D02*
X21667801Y-15890650D01*
X21667801Y-15890650D02*
X21705896Y-15890650D01*
X21705896Y-15890650D02*
X21724944Y-15900174D01*
X21724944Y-15900174D02*
X21734467Y-15909698D01*
X21734467Y-15909698D02*
X21743991Y-15928746D01*
X21743991Y-15928746D02*
X21743991Y-15985888D01*
X21743991Y-15985888D02*
X21734467Y-16004936D01*
X21734467Y-16004936D02*
X21724944Y-16014460D01*
X21724944Y-16014460D02*
X21705896Y-16023984D01*
X21705896Y-16023984D02*
X21667801Y-16023984D01*
X21667801Y-16023984D02*
X21648753Y-16014460D01*
X21829705Y-16004936D02*
X21839229Y-16014460D01*
X21839229Y-16014460D02*
X21829705Y-16023984D01*
X21829705Y-16023984D02*
X21820182Y-16014460D01*
X21820182Y-16014460D02*
X21829705Y-16004936D01*
X21829705Y-16004936D02*
X21829705Y-16023984D01*
X21829705Y-15900174D02*
X21839229Y-15909698D01*
X21839229Y-15909698D02*
X21829705Y-15919222D01*
X21829705Y-15919222D02*
X21820182Y-15909698D01*
X21820182Y-15909698D02*
X21829705Y-15900174D01*
X21829705Y-15900174D02*
X21829705Y-15919222D01*
D12*
X20177500Y-16342500D02*
X20197500Y-16362500D01*
X20197500Y-16342500D02*
X20177500Y-16362500D01*
D11*
X20496372Y-16243984D02*
X20515420Y-16243984D01*
X20515420Y-16243984D02*
X20534467Y-16253508D01*
X20534467Y-16253508D02*
X20543991Y-16263031D01*
X20543991Y-16263031D02*
X20553515Y-16282079D01*
X20553515Y-16282079D02*
X20563039Y-16320174D01*
X20563039Y-16320174D02*
X20563039Y-16367793D01*
X20563039Y-16367793D02*
X20553515Y-16405888D01*
X20553515Y-16405888D02*
X20543991Y-16424936D01*
X20543991Y-16424936D02*
X20534467Y-16434460D01*
X20534467Y-16434460D02*
X20515420Y-16443984D01*
X20515420Y-16443984D02*
X20496372Y-16443984D01*
X20496372Y-16443984D02*
X20477324Y-16434460D01*
X20477324Y-16434460D02*
X20467801Y-16424936D01*
X20467801Y-16424936D02*
X20458277Y-16405888D01*
X20458277Y-16405888D02*
X20448753Y-16367793D01*
X20448753Y-16367793D02*
X20448753Y-16320174D01*
X20448753Y-16320174D02*
X20458277Y-16282079D01*
X20458277Y-16282079D02*
X20467801Y-16263031D01*
X20467801Y-16263031D02*
X20477324Y-16253508D01*
X20477324Y-16253508D02*
X20496372Y-16243984D01*
X20648753Y-16424936D02*
X20658277Y-16434460D01*
X20658277Y-16434460D02*
X20648753Y-16443984D01*
X20648753Y-16443984D02*
X20639229Y-16434460D01*
X20639229Y-16434460D02*
X20648753Y-16424936D01*
X20648753Y-16424936D02*
X20648753Y-16443984D01*
X20734467Y-16263031D02*
X20743991Y-16253508D01*
X20743991Y-16253508D02*
X20763039Y-16243984D01*
X20763039Y-16243984D02*
X20810658Y-16243984D01*
X20810658Y-16243984D02*
X20829705Y-16253508D01*
X20829705Y-16253508D02*
X20839229Y-16263031D01*
X20839229Y-16263031D02*
X20848753Y-16282079D01*
X20848753Y-16282079D02*
X20848753Y-16301127D01*
X20848753Y-16301127D02*
X20839229Y-16329698D01*
X20839229Y-16329698D02*
X20724944Y-16443984D01*
X20724944Y-16443984D02*
X20848753Y-16443984D01*
X20972563Y-16243984D02*
X20991610Y-16243984D01*
X20991610Y-16243984D02*
X21010658Y-16253508D01*
X21010658Y-16253508D02*
X21020182Y-16263031D01*
X21020182Y-16263031D02*
X21029705Y-16282079D01*
X21029705Y-16282079D02*
X21039229Y-16320174D01*
X21039229Y-16320174D02*
X21039229Y-16367793D01*
X21039229Y-16367793D02*
X21029705Y-16405888D01*
X21029705Y-16405888D02*
X21020182Y-16424936D01*
X21020182Y-16424936D02*
X21010658Y-16434460D01*
X21010658Y-16434460D02*
X20991610Y-16443984D01*
X20991610Y-16443984D02*
X20972563Y-16443984D01*
X20972563Y-16443984D02*
X20953515Y-16434460D01*
X20953515Y-16434460D02*
X20943991Y-16424936D01*
X20943991Y-16424936D02*
X20934467Y-16405888D01*
X20934467Y-16405888D02*
X20924944Y-16367793D01*
X20924944Y-16367793D02*
X20924944Y-16320174D01*
X20924944Y-16320174D02*
X20934467Y-16282079D01*
X20934467Y-16282079D02*
X20943991Y-16263031D01*
X20943991Y-16263031D02*
X20953515Y-16253508D01*
X20953515Y-16253508D02*
X20972563Y-16243984D01*
X21163039Y-16243984D02*
X21182086Y-16243984D01*
X21182086Y-16243984D02*
X21201134Y-16253508D01*
X21201134Y-16253508D02*
X21210658Y-16263031D01*
X21210658Y-16263031D02*
X21220182Y-16282079D01*
X21220182Y-16282079D02*
X21229705Y-16320174D01*
X21229705Y-16320174D02*
X21229705Y-16367793D01*
X21229705Y-16367793D02*
X21220182Y-16405888D01*
X21220182Y-16405888D02*
X21210658Y-16424936D01*
X21210658Y-16424936D02*
X21201134Y-16434460D01*
X21201134Y-16434460D02*
X21182086Y-16443984D01*
X21182086Y-16443984D02*
X21163039Y-16443984D01*
X21163039Y-16443984D02*
X21143991Y-16434460D01*
X21143991Y-16434460D02*
X21134467Y-16424936D01*
X21134467Y-16424936D02*
X21124944Y-16405888D01*
X21124944Y-16405888D02*
X21115420Y-16367793D01*
X21115420Y-16367793D02*
X21115420Y-16320174D01*
X21115420Y-16320174D02*
X21124944Y-16282079D01*
X21124944Y-16282079D02*
X21134467Y-16263031D01*
X21134467Y-16263031D02*
X21143991Y-16253508D01*
X21143991Y-16253508D02*
X21163039Y-16243984D01*
X21315420Y-16443984D02*
X21315420Y-16310650D01*
X21315420Y-16329698D02*
X21324944Y-16320174D01*
X21324944Y-16320174D02*
X21343991Y-16310650D01*
X21343991Y-16310650D02*
X21372563Y-16310650D01*
X21372563Y-16310650D02*
X21391610Y-16320174D01*
X21391610Y-16320174D02*
X21401134Y-16339222D01*
X21401134Y-16339222D02*
X21401134Y-16443984D01*
X21401134Y-16339222D02*
X21410658Y-16320174D01*
X21410658Y-16320174D02*
X21429705Y-16310650D01*
X21429705Y-16310650D02*
X21458277Y-16310650D01*
X21458277Y-16310650D02*
X21477325Y-16320174D01*
X21477325Y-16320174D02*
X21486848Y-16339222D01*
X21486848Y-16339222D02*
X21486848Y-16443984D01*
X21582086Y-16443984D02*
X21582086Y-16310650D01*
X21582086Y-16329698D02*
X21591610Y-16320174D01*
X21591610Y-16320174D02*
X21610658Y-16310650D01*
X21610658Y-16310650D02*
X21639229Y-16310650D01*
X21639229Y-16310650D02*
X21658277Y-16320174D01*
X21658277Y-16320174D02*
X21667801Y-16339222D01*
X21667801Y-16339222D02*
X21667801Y-16443984D01*
X21667801Y-16339222D02*
X21677325Y-16320174D01*
X21677325Y-16320174D02*
X21696372Y-16310650D01*
X21696372Y-16310650D02*
X21724944Y-16310650D01*
X21724944Y-16310650D02*
X21743991Y-16320174D01*
X21743991Y-16320174D02*
X21753515Y-16339222D01*
X21753515Y-16339222D02*
X21753515Y-16443984D01*
X22143991Y-16234460D02*
X21972563Y-16491603D01*
X22401134Y-16243984D02*
X22420182Y-16243984D01*
X22420182Y-16243984D02*
X22439229Y-16253508D01*
X22439229Y-16253508D02*
X22448753Y-16263031D01*
X22448753Y-16263031D02*
X22458277Y-16282079D01*
X22458277Y-16282079D02*
X22467801Y-16320174D01*
X22467801Y-16320174D02*
X22467801Y-16367793D01*
X22467801Y-16367793D02*
X22458277Y-16405888D01*
X22458277Y-16405888D02*
X22448753Y-16424936D01*
X22448753Y-16424936D02*
X22439229Y-16434460D01*
X22439229Y-16434460D02*
X22420182Y-16443984D01*
X22420182Y-16443984D02*
X22401134Y-16443984D01*
X22401134Y-16443984D02*
X22382086Y-16434460D01*
X22382086Y-16434460D02*
X22372563Y-16424936D01*
X22372563Y-16424936D02*
X22363039Y-16405888D01*
X22363039Y-16405888D02*
X22353515Y-16367793D01*
X22353515Y-16367793D02*
X22353515Y-16320174D01*
X22353515Y-16320174D02*
X22363039Y-16282079D01*
X22363039Y-16282079D02*
X22372563Y-16263031D01*
X22372563Y-16263031D02*
X22382086Y-16253508D01*
X22382086Y-16253508D02*
X22401134Y-16243984D01*
X22553515Y-16424936D02*
X22563039Y-16434460D01*
X22563039Y-16434460D02*
X22553515Y-16443984D01*
X22553515Y-16443984D02*
X22543991Y-16434460D01*
X22543991Y-16434460D02*
X22553515Y-16424936D01*
X22553515Y-16424936D02*
X22553515Y-16443984D01*
X22686848Y-16243984D02*
X22705896Y-16243984D01*
X22705896Y-16243984D02*
X22724944Y-16253508D01*
X22724944Y-16253508D02*
X22734467Y-16263031D01*
X22734467Y-16263031D02*
X22743991Y-16282079D01*
X22743991Y-16282079D02*
X22753515Y-16320174D01*
X22753515Y-16320174D02*
X22753515Y-16367793D01*
X22753515Y-16367793D02*
X22743991Y-16405888D01*
X22743991Y-16405888D02*
X22734467Y-16424936D01*
X22734467Y-16424936D02*
X22724944Y-16434460D01*
X22724944Y-16434460D02*
X22705896Y-16443984D01*
X22705896Y-16443984D02*
X22686848Y-16443984D01*
X22686848Y-16443984D02*
X22667801Y-16434460D01*
X22667801Y-16434460D02*
X22658277Y-16424936D01*
X22658277Y-16424936D02*
X22648753Y-16405888D01*
X22648753Y-16405888D02*
X22639229Y-16367793D01*
X22639229Y-16367793D02*
X22639229Y-16320174D01*
X22639229Y-16320174D02*
X22648753Y-16282079D01*
X22648753Y-16282079D02*
X22658277Y-16263031D01*
X22658277Y-16263031D02*
X22667801Y-16253508D01*
X22667801Y-16253508D02*
X22686848Y-16243984D01*
X22877325Y-16243984D02*
X22896372Y-16243984D01*
X22896372Y-16243984D02*
X22915420Y-16253508D01*
X22915420Y-16253508D02*
X22924944Y-16263031D01*
X22924944Y-16263031D02*
X22934467Y-16282079D01*
X22934467Y-16282079D02*
X22943991Y-16320174D01*
X22943991Y-16320174D02*
X22943991Y-16367793D01*
X22943991Y-16367793D02*
X22934467Y-16405888D01*
X22934467Y-16405888D02*
X22924944Y-16424936D01*
X22924944Y-16424936D02*
X22915420Y-16434460D01*
X22915420Y-16434460D02*
X22896372Y-16443984D01*
X22896372Y-16443984D02*
X22877325Y-16443984D01*
X22877325Y-16443984D02*
X22858277Y-16434460D01*
X22858277Y-16434460D02*
X22848753Y-16424936D01*
X22848753Y-16424936D02*
X22839229Y-16405888D01*
X22839229Y-16405888D02*
X22829706Y-16367793D01*
X22829706Y-16367793D02*
X22829706Y-16320174D01*
X22829706Y-16320174D02*
X22839229Y-16282079D01*
X22839229Y-16282079D02*
X22848753Y-16263031D01*
X22848753Y-16263031D02*
X22858277Y-16253508D01*
X22858277Y-16253508D02*
X22877325Y-16243984D01*
X23010658Y-16243984D02*
X23143991Y-16243984D01*
X23143991Y-16243984D02*
X23058277Y-16443984D01*
X23229706Y-16443984D02*
X23267801Y-16443984D01*
X23267801Y-16443984D02*
X23286848Y-16434460D01*
X23286848Y-16434460D02*
X23296372Y-16424936D01*
X23296372Y-16424936D02*
X23315420Y-16396365D01*
X23315420Y-16396365D02*
X23324944Y-16358269D01*
X23324944Y-16358269D02*
X23324944Y-16282079D01*
X23324944Y-16282079D02*
X23315420Y-16263031D01*
X23315420Y-16263031D02*
X23305896Y-16253508D01*
X23305896Y-16253508D02*
X23286848Y-16243984D01*
X23286848Y-16243984D02*
X23248753Y-16243984D01*
X23248753Y-16243984D02*
X23229706Y-16253508D01*
X23229706Y-16253508D02*
X23220182Y-16263031D01*
X23220182Y-16263031D02*
X23210658Y-16282079D01*
X23210658Y-16282079D02*
X23210658Y-16329698D01*
X23210658Y-16329698D02*
X23220182Y-16348746D01*
X23220182Y-16348746D02*
X23229706Y-16358269D01*
X23229706Y-16358269D02*
X23248753Y-16367793D01*
X23248753Y-16367793D02*
X23286848Y-16367793D01*
X23286848Y-16367793D02*
X23305896Y-16358269D01*
X23305896Y-16358269D02*
X23315420Y-16348746D01*
X23315420Y-16348746D02*
X23324944Y-16329698D01*
X23401134Y-16243984D02*
X23401134Y-16282079D01*
X23477325Y-16243984D02*
X23477325Y-16282079D01*
X23772563Y-16520174D02*
X23763039Y-16510650D01*
X23763039Y-16510650D02*
X23743991Y-16482079D01*
X23743991Y-16482079D02*
X23734468Y-16463031D01*
X23734468Y-16463031D02*
X23724944Y-16434460D01*
X23724944Y-16434460D02*
X23715420Y-16386841D01*
X23715420Y-16386841D02*
X23715420Y-16348746D01*
X23715420Y-16348746D02*
X23724944Y-16301127D01*
X23724944Y-16301127D02*
X23734468Y-16272555D01*
X23734468Y-16272555D02*
X23743991Y-16253508D01*
X23743991Y-16253508D02*
X23763039Y-16224936D01*
X23763039Y-16224936D02*
X23772563Y-16215412D01*
X23839229Y-16263031D02*
X23848753Y-16253508D01*
X23848753Y-16253508D02*
X23867801Y-16243984D01*
X23867801Y-16243984D02*
X23915420Y-16243984D01*
X23915420Y-16243984D02*
X23934468Y-16253508D01*
X23934468Y-16253508D02*
X23943991Y-16263031D01*
X23943991Y-16263031D02*
X23953515Y-16282079D01*
X23953515Y-16282079D02*
X23953515Y-16301127D01*
X23953515Y-16301127D02*
X23943991Y-16329698D01*
X23943991Y-16329698D02*
X23829706Y-16443984D01*
X23829706Y-16443984D02*
X23953515Y-16443984D01*
X24020182Y-16243984D02*
X24153515Y-16243984D01*
X24153515Y-16243984D02*
X24067801Y-16443984D01*
X24382087Y-16443984D02*
X24382087Y-16243984D01*
X24467801Y-16443984D02*
X24467801Y-16339222D01*
X24467801Y-16339222D02*
X24458277Y-16320174D01*
X24458277Y-16320174D02*
X24439230Y-16310650D01*
X24439230Y-16310650D02*
X24410658Y-16310650D01*
X24410658Y-16310650D02*
X24391610Y-16320174D01*
X24391610Y-16320174D02*
X24382087Y-16329698D01*
X24591610Y-16443984D02*
X24572563Y-16434460D01*
X24572563Y-16434460D02*
X24563039Y-16424936D01*
X24563039Y-16424936D02*
X24553515Y-16405888D01*
X24553515Y-16405888D02*
X24553515Y-16348746D01*
X24553515Y-16348746D02*
X24563039Y-16329698D01*
X24563039Y-16329698D02*
X24572563Y-16320174D01*
X24572563Y-16320174D02*
X24591610Y-16310650D01*
X24591610Y-16310650D02*
X24620182Y-16310650D01*
X24620182Y-16310650D02*
X24639230Y-16320174D01*
X24639230Y-16320174D02*
X24648753Y-16329698D01*
X24648753Y-16329698D02*
X24658277Y-16348746D01*
X24658277Y-16348746D02*
X24658277Y-16405888D01*
X24658277Y-16405888D02*
X24648753Y-16424936D01*
X24648753Y-16424936D02*
X24639230Y-16434460D01*
X24639230Y-16434460D02*
X24620182Y-16443984D01*
X24620182Y-16443984D02*
X24591610Y-16443984D01*
X24772563Y-16443984D02*
X24753515Y-16434460D01*
X24753515Y-16434460D02*
X24743991Y-16415412D01*
X24743991Y-16415412D02*
X24743991Y-16243984D01*
X24924944Y-16434460D02*
X24905896Y-16443984D01*
X24905896Y-16443984D02*
X24867801Y-16443984D01*
X24867801Y-16443984D02*
X24848753Y-16434460D01*
X24848753Y-16434460D02*
X24839230Y-16415412D01*
X24839230Y-16415412D02*
X24839230Y-16339222D01*
X24839230Y-16339222D02*
X24848753Y-16320174D01*
X24848753Y-16320174D02*
X24867801Y-16310650D01*
X24867801Y-16310650D02*
X24905896Y-16310650D01*
X24905896Y-16310650D02*
X24924944Y-16320174D01*
X24924944Y-16320174D02*
X24934468Y-16339222D01*
X24934468Y-16339222D02*
X24934468Y-16358269D01*
X24934468Y-16358269D02*
X24839230Y-16377317D01*
X25010658Y-16434460D02*
X25029706Y-16443984D01*
X25029706Y-16443984D02*
X25067801Y-16443984D01*
X25067801Y-16443984D02*
X25086849Y-16434460D01*
X25086849Y-16434460D02*
X25096372Y-16415412D01*
X25096372Y-16415412D02*
X25096372Y-16405888D01*
X25096372Y-16405888D02*
X25086849Y-16386841D01*
X25086849Y-16386841D02*
X25067801Y-16377317D01*
X25067801Y-16377317D02*
X25039230Y-16377317D01*
X25039230Y-16377317D02*
X25020182Y-16367793D01*
X25020182Y-16367793D02*
X25010658Y-16348746D01*
X25010658Y-16348746D02*
X25010658Y-16339222D01*
X25010658Y-16339222D02*
X25020182Y-16320174D01*
X25020182Y-16320174D02*
X25039230Y-16310650D01*
X25039230Y-16310650D02*
X25067801Y-16310650D01*
X25067801Y-16310650D02*
X25086849Y-16320174D01*
X25163039Y-16520174D02*
X25172563Y-16510650D01*
X25172563Y-16510650D02*
X25191611Y-16482079D01*
X25191611Y-16482079D02*
X25201134Y-16463031D01*
X25201134Y-16463031D02*
X25210658Y-16434460D01*
X25210658Y-16434460D02*
X25220182Y-16386841D01*
X25220182Y-16386841D02*
X25220182Y-16348746D01*
X25220182Y-16348746D02*
X25210658Y-16301127D01*
X25210658Y-16301127D02*
X25201134Y-16272555D01*
X25201134Y-16272555D02*
X25191611Y-16253508D01*
X25191611Y-16253508D02*
X25172563Y-16224936D01*
X25172563Y-16224936D02*
X25163039Y-16215412D01*
D12*
X20197500Y-16616500D02*
G75*
G02*
X20167500Y-16616500I-15000J0D01*
G01*
X20167500Y-16616500D02*
G75*
G02*
X20197500Y-16616500I15000J0D01*
G01*
D11*
X20496372Y-16507984D02*
X20515420Y-16507984D01*
X20515420Y-16507984D02*
X20534467Y-16517508D01*
X20534467Y-16517508D02*
X20543991Y-16527031D01*
X20543991Y-16527031D02*
X20553515Y-16546079D01*
X20553515Y-16546079D02*
X20563039Y-16584174D01*
X20563039Y-16584174D02*
X20563039Y-16631793D01*
X20563039Y-16631793D02*
X20553515Y-16669888D01*
X20553515Y-16669888D02*
X20543991Y-16688936D01*
X20543991Y-16688936D02*
X20534467Y-16698460D01*
X20534467Y-16698460D02*
X20515420Y-16707984D01*
X20515420Y-16707984D02*
X20496372Y-16707984D01*
X20496372Y-16707984D02*
X20477324Y-16698460D01*
X20477324Y-16698460D02*
X20467801Y-16688936D01*
X20467801Y-16688936D02*
X20458277Y-16669888D01*
X20458277Y-16669888D02*
X20448753Y-16631793D01*
X20448753Y-16631793D02*
X20448753Y-16584174D01*
X20448753Y-16584174D02*
X20458277Y-16546079D01*
X20458277Y-16546079D02*
X20467801Y-16527031D01*
X20467801Y-16527031D02*
X20477324Y-16517508D01*
X20477324Y-16517508D02*
X20496372Y-16507984D01*
X20648753Y-16688936D02*
X20658277Y-16698460D01*
X20658277Y-16698460D02*
X20648753Y-16707984D01*
X20648753Y-16707984D02*
X20639229Y-16698460D01*
X20639229Y-16698460D02*
X20648753Y-16688936D01*
X20648753Y-16688936D02*
X20648753Y-16707984D01*
X20724944Y-16507984D02*
X20848753Y-16507984D01*
X20848753Y-16507984D02*
X20782086Y-16584174D01*
X20782086Y-16584174D02*
X20810658Y-16584174D01*
X20810658Y-16584174D02*
X20829705Y-16593698D01*
X20829705Y-16593698D02*
X20839229Y-16603222D01*
X20839229Y-16603222D02*
X20848753Y-16622269D01*
X20848753Y-16622269D02*
X20848753Y-16669888D01*
X20848753Y-16669888D02*
X20839229Y-16688936D01*
X20839229Y-16688936D02*
X20829705Y-16698460D01*
X20829705Y-16698460D02*
X20810658Y-16707984D01*
X20810658Y-16707984D02*
X20753515Y-16707984D01*
X20753515Y-16707984D02*
X20734467Y-16698460D01*
X20734467Y-16698460D02*
X20724944Y-16688936D01*
X20972563Y-16507984D02*
X20991610Y-16507984D01*
X20991610Y-16507984D02*
X21010658Y-16517508D01*
X21010658Y-16517508D02*
X21020182Y-16527031D01*
X21020182Y-16527031D02*
X21029705Y-16546079D01*
X21029705Y-16546079D02*
X21039229Y-16584174D01*
X21039229Y-16584174D02*
X21039229Y-16631793D01*
X21039229Y-16631793D02*
X21029705Y-16669888D01*
X21029705Y-16669888D02*
X21020182Y-16688936D01*
X21020182Y-16688936D02*
X21010658Y-16698460D01*
X21010658Y-16698460D02*
X20991610Y-16707984D01*
X20991610Y-16707984D02*
X20972563Y-16707984D01*
X20972563Y-16707984D02*
X20953515Y-16698460D01*
X20953515Y-16698460D02*
X20943991Y-16688936D01*
X20943991Y-16688936D02*
X20934467Y-16669888D01*
X20934467Y-16669888D02*
X20924944Y-16631793D01*
X20924944Y-16631793D02*
X20924944Y-16584174D01*
X20924944Y-16584174D02*
X20934467Y-16546079D01*
X20934467Y-16546079D02*
X20943991Y-16527031D01*
X20943991Y-16527031D02*
X20953515Y-16517508D01*
X20953515Y-16517508D02*
X20972563Y-16507984D01*
X21163039Y-16507984D02*
X21182086Y-16507984D01*
X21182086Y-16507984D02*
X21201134Y-16517508D01*
X21201134Y-16517508D02*
X21210658Y-16527031D01*
X21210658Y-16527031D02*
X21220182Y-16546079D01*
X21220182Y-16546079D02*
X21229705Y-16584174D01*
X21229705Y-16584174D02*
X21229705Y-16631793D01*
X21229705Y-16631793D02*
X21220182Y-16669888D01*
X21220182Y-16669888D02*
X21210658Y-16688936D01*
X21210658Y-16688936D02*
X21201134Y-16698460D01*
X21201134Y-16698460D02*
X21182086Y-16707984D01*
X21182086Y-16707984D02*
X21163039Y-16707984D01*
X21163039Y-16707984D02*
X21143991Y-16698460D01*
X21143991Y-16698460D02*
X21134467Y-16688936D01*
X21134467Y-16688936D02*
X21124944Y-16669888D01*
X21124944Y-16669888D02*
X21115420Y-16631793D01*
X21115420Y-16631793D02*
X21115420Y-16584174D01*
X21115420Y-16584174D02*
X21124944Y-16546079D01*
X21124944Y-16546079D02*
X21134467Y-16527031D01*
X21134467Y-16527031D02*
X21143991Y-16517508D01*
X21143991Y-16517508D02*
X21163039Y-16507984D01*
X21315420Y-16707984D02*
X21315420Y-16574650D01*
X21315420Y-16593698D02*
X21324944Y-16584174D01*
X21324944Y-16584174D02*
X21343991Y-16574650D01*
X21343991Y-16574650D02*
X21372563Y-16574650D01*
X21372563Y-16574650D02*
X21391610Y-16584174D01*
X21391610Y-16584174D02*
X21401134Y-16603222D01*
X21401134Y-16603222D02*
X21401134Y-16707984D01*
X21401134Y-16603222D02*
X21410658Y-16584174D01*
X21410658Y-16584174D02*
X21429705Y-16574650D01*
X21429705Y-16574650D02*
X21458277Y-16574650D01*
X21458277Y-16574650D02*
X21477325Y-16584174D01*
X21477325Y-16584174D02*
X21486848Y-16603222D01*
X21486848Y-16603222D02*
X21486848Y-16707984D01*
X21582086Y-16707984D02*
X21582086Y-16574650D01*
X21582086Y-16593698D02*
X21591610Y-16584174D01*
X21591610Y-16584174D02*
X21610658Y-16574650D01*
X21610658Y-16574650D02*
X21639229Y-16574650D01*
X21639229Y-16574650D02*
X21658277Y-16584174D01*
X21658277Y-16584174D02*
X21667801Y-16603222D01*
X21667801Y-16603222D02*
X21667801Y-16707984D01*
X21667801Y-16603222D02*
X21677325Y-16584174D01*
X21677325Y-16584174D02*
X21696372Y-16574650D01*
X21696372Y-16574650D02*
X21724944Y-16574650D01*
X21724944Y-16574650D02*
X21743991Y-16584174D01*
X21743991Y-16584174D02*
X21753515Y-16603222D01*
X21753515Y-16603222D02*
X21753515Y-16707984D01*
X22143991Y-16498460D02*
X21972563Y-16755603D01*
X22401134Y-16507984D02*
X22420182Y-16507984D01*
X22420182Y-16507984D02*
X22439229Y-16517508D01*
X22439229Y-16517508D02*
X22448753Y-16527031D01*
X22448753Y-16527031D02*
X22458277Y-16546079D01*
X22458277Y-16546079D02*
X22467801Y-16584174D01*
X22467801Y-16584174D02*
X22467801Y-16631793D01*
X22467801Y-16631793D02*
X22458277Y-16669888D01*
X22458277Y-16669888D02*
X22448753Y-16688936D01*
X22448753Y-16688936D02*
X22439229Y-16698460D01*
X22439229Y-16698460D02*
X22420182Y-16707984D01*
X22420182Y-16707984D02*
X22401134Y-16707984D01*
X22401134Y-16707984D02*
X22382086Y-16698460D01*
X22382086Y-16698460D02*
X22372563Y-16688936D01*
X22372563Y-16688936D02*
X22363039Y-16669888D01*
X22363039Y-16669888D02*
X22353515Y-16631793D01*
X22353515Y-16631793D02*
X22353515Y-16584174D01*
X22353515Y-16584174D02*
X22363039Y-16546079D01*
X22363039Y-16546079D02*
X22372563Y-16527031D01*
X22372563Y-16527031D02*
X22382086Y-16517508D01*
X22382086Y-16517508D02*
X22401134Y-16507984D01*
X22553515Y-16688936D02*
X22563039Y-16698460D01*
X22563039Y-16698460D02*
X22553515Y-16707984D01*
X22553515Y-16707984D02*
X22543991Y-16698460D01*
X22543991Y-16698460D02*
X22553515Y-16688936D01*
X22553515Y-16688936D02*
X22553515Y-16707984D01*
X22686848Y-16507984D02*
X22705896Y-16507984D01*
X22705896Y-16507984D02*
X22724944Y-16517508D01*
X22724944Y-16517508D02*
X22734467Y-16527031D01*
X22734467Y-16527031D02*
X22743991Y-16546079D01*
X22743991Y-16546079D02*
X22753515Y-16584174D01*
X22753515Y-16584174D02*
X22753515Y-16631793D01*
X22753515Y-16631793D02*
X22743991Y-16669888D01*
X22743991Y-16669888D02*
X22734467Y-16688936D01*
X22734467Y-16688936D02*
X22724944Y-16698460D01*
X22724944Y-16698460D02*
X22705896Y-16707984D01*
X22705896Y-16707984D02*
X22686848Y-16707984D01*
X22686848Y-16707984D02*
X22667801Y-16698460D01*
X22667801Y-16698460D02*
X22658277Y-16688936D01*
X22658277Y-16688936D02*
X22648753Y-16669888D01*
X22648753Y-16669888D02*
X22639229Y-16631793D01*
X22639229Y-16631793D02*
X22639229Y-16584174D01*
X22639229Y-16584174D02*
X22648753Y-16546079D01*
X22648753Y-16546079D02*
X22658277Y-16527031D01*
X22658277Y-16527031D02*
X22667801Y-16517508D01*
X22667801Y-16517508D02*
X22686848Y-16507984D01*
X22943991Y-16707984D02*
X22829706Y-16707984D01*
X22886848Y-16707984D02*
X22886848Y-16507984D01*
X22886848Y-16507984D02*
X22867801Y-16536555D01*
X22867801Y-16536555D02*
X22848753Y-16555603D01*
X22848753Y-16555603D02*
X22829706Y-16565127D01*
X23134467Y-16707984D02*
X23020182Y-16707984D01*
X23077325Y-16707984D02*
X23077325Y-16507984D01*
X23077325Y-16507984D02*
X23058277Y-16536555D01*
X23058277Y-16536555D02*
X23039229Y-16555603D01*
X23039229Y-16555603D02*
X23020182Y-16565127D01*
X23248753Y-16593698D02*
X23229706Y-16584174D01*
X23229706Y-16584174D02*
X23220182Y-16574650D01*
X23220182Y-16574650D02*
X23210658Y-16555603D01*
X23210658Y-16555603D02*
X23210658Y-16546079D01*
X23210658Y-16546079D02*
X23220182Y-16527031D01*
X23220182Y-16527031D02*
X23229706Y-16517508D01*
X23229706Y-16517508D02*
X23248753Y-16507984D01*
X23248753Y-16507984D02*
X23286848Y-16507984D01*
X23286848Y-16507984D02*
X23305896Y-16517508D01*
X23305896Y-16517508D02*
X23315420Y-16527031D01*
X23315420Y-16527031D02*
X23324944Y-16546079D01*
X23324944Y-16546079D02*
X23324944Y-16555603D01*
X23324944Y-16555603D02*
X23315420Y-16574650D01*
X23315420Y-16574650D02*
X23305896Y-16584174D01*
X23305896Y-16584174D02*
X23286848Y-16593698D01*
X23286848Y-16593698D02*
X23248753Y-16593698D01*
X23248753Y-16593698D02*
X23229706Y-16603222D01*
X23229706Y-16603222D02*
X23220182Y-16612746D01*
X23220182Y-16612746D02*
X23210658Y-16631793D01*
X23210658Y-16631793D02*
X23210658Y-16669888D01*
X23210658Y-16669888D02*
X23220182Y-16688936D01*
X23220182Y-16688936D02*
X23229706Y-16698460D01*
X23229706Y-16698460D02*
X23248753Y-16707984D01*
X23248753Y-16707984D02*
X23286848Y-16707984D01*
X23286848Y-16707984D02*
X23305896Y-16698460D01*
X23305896Y-16698460D02*
X23315420Y-16688936D01*
X23315420Y-16688936D02*
X23324944Y-16669888D01*
X23324944Y-16669888D02*
X23324944Y-16631793D01*
X23324944Y-16631793D02*
X23315420Y-16612746D01*
X23315420Y-16612746D02*
X23305896Y-16603222D01*
X23305896Y-16603222D02*
X23286848Y-16593698D01*
X23401134Y-16507984D02*
X23401134Y-16546079D01*
X23477325Y-16507984D02*
X23477325Y-16546079D01*
X23772563Y-16784174D02*
X23763039Y-16774650D01*
X23763039Y-16774650D02*
X23743991Y-16746079D01*
X23743991Y-16746079D02*
X23734468Y-16727031D01*
X23734468Y-16727031D02*
X23724944Y-16698460D01*
X23724944Y-16698460D02*
X23715420Y-16650841D01*
X23715420Y-16650841D02*
X23715420Y-16612746D01*
X23715420Y-16612746D02*
X23724944Y-16565127D01*
X23724944Y-16565127D02*
X23734468Y-16536555D01*
X23734468Y-16536555D02*
X23743991Y-16517508D01*
X23743991Y-16517508D02*
X23763039Y-16488936D01*
X23763039Y-16488936D02*
X23772563Y-16479412D01*
X23829706Y-16507984D02*
X23953515Y-16507984D01*
X23953515Y-16507984D02*
X23886848Y-16584174D01*
X23886848Y-16584174D02*
X23915420Y-16584174D01*
X23915420Y-16584174D02*
X23934468Y-16593698D01*
X23934468Y-16593698D02*
X23943991Y-16603222D01*
X23943991Y-16603222D02*
X23953515Y-16622269D01*
X23953515Y-16622269D02*
X23953515Y-16669888D01*
X23953515Y-16669888D02*
X23943991Y-16688936D01*
X23943991Y-16688936D02*
X23934468Y-16698460D01*
X23934468Y-16698460D02*
X23915420Y-16707984D01*
X23915420Y-16707984D02*
X23858277Y-16707984D01*
X23858277Y-16707984D02*
X23839229Y-16698460D01*
X23839229Y-16698460D02*
X23829706Y-16688936D01*
X24124944Y-16574650D02*
X24124944Y-16707984D01*
X24077325Y-16498460D02*
X24029706Y-16641317D01*
X24029706Y-16641317D02*
X24153515Y-16641317D01*
X24315420Y-16574650D02*
X24315420Y-16707984D01*
X24267801Y-16498460D02*
X24220182Y-16641317D01*
X24220182Y-16641317D02*
X24343991Y-16641317D01*
X24572563Y-16707984D02*
X24572563Y-16507984D01*
X24658277Y-16707984D02*
X24658277Y-16603222D01*
X24658277Y-16603222D02*
X24648753Y-16584174D01*
X24648753Y-16584174D02*
X24629706Y-16574650D01*
X24629706Y-16574650D02*
X24601134Y-16574650D01*
X24601134Y-16574650D02*
X24582087Y-16584174D01*
X24582087Y-16584174D02*
X24572563Y-16593698D01*
X24782087Y-16707984D02*
X24763039Y-16698460D01*
X24763039Y-16698460D02*
X24753515Y-16688936D01*
X24753515Y-16688936D02*
X24743991Y-16669888D01*
X24743991Y-16669888D02*
X24743991Y-16612746D01*
X24743991Y-16612746D02*
X24753515Y-16593698D01*
X24753515Y-16593698D02*
X24763039Y-16584174D01*
X24763039Y-16584174D02*
X24782087Y-16574650D01*
X24782087Y-16574650D02*
X24810658Y-16574650D01*
X24810658Y-16574650D02*
X24829706Y-16584174D01*
X24829706Y-16584174D02*
X24839230Y-16593698D01*
X24839230Y-16593698D02*
X24848753Y-16612746D01*
X24848753Y-16612746D02*
X24848753Y-16669888D01*
X24848753Y-16669888D02*
X24839230Y-16688936D01*
X24839230Y-16688936D02*
X24829706Y-16698460D01*
X24829706Y-16698460D02*
X24810658Y-16707984D01*
X24810658Y-16707984D02*
X24782087Y-16707984D01*
X24963039Y-16707984D02*
X24943991Y-16698460D01*
X24943991Y-16698460D02*
X24934468Y-16679412D01*
X24934468Y-16679412D02*
X24934468Y-16507984D01*
X25115420Y-16698460D02*
X25096372Y-16707984D01*
X25096372Y-16707984D02*
X25058277Y-16707984D01*
X25058277Y-16707984D02*
X25039230Y-16698460D01*
X25039230Y-16698460D02*
X25029706Y-16679412D01*
X25029706Y-16679412D02*
X25029706Y-16603222D01*
X25029706Y-16603222D02*
X25039230Y-16584174D01*
X25039230Y-16584174D02*
X25058277Y-16574650D01*
X25058277Y-16574650D02*
X25096372Y-16574650D01*
X25096372Y-16574650D02*
X25115420Y-16584174D01*
X25115420Y-16584174D02*
X25124944Y-16603222D01*
X25124944Y-16603222D02*
X25124944Y-16622269D01*
X25124944Y-16622269D02*
X25029706Y-16641317D01*
X25201134Y-16698460D02*
X25220182Y-16707984D01*
X25220182Y-16707984D02*
X25258277Y-16707984D01*
X25258277Y-16707984D02*
X25277325Y-16698460D01*
X25277325Y-16698460D02*
X25286849Y-16679412D01*
X25286849Y-16679412D02*
X25286849Y-16669888D01*
X25286849Y-16669888D02*
X25277325Y-16650841D01*
X25277325Y-16650841D02*
X25258277Y-16641317D01*
X25258277Y-16641317D02*
X25229706Y-16641317D01*
X25229706Y-16641317D02*
X25210658Y-16631793D01*
X25210658Y-16631793D02*
X25201134Y-16612746D01*
X25201134Y-16612746D02*
X25201134Y-16603222D01*
X25201134Y-16603222D02*
X25210658Y-16584174D01*
X25210658Y-16584174D02*
X25229706Y-16574650D01*
X25229706Y-16574650D02*
X25258277Y-16574650D01*
X25258277Y-16574650D02*
X25277325Y-16584174D01*
X25353515Y-16784174D02*
X25363039Y-16774650D01*
X25363039Y-16774650D02*
X25382087Y-16746079D01*
X25382087Y-16746079D02*
X25391611Y-16727031D01*
X25391611Y-16727031D02*
X25401134Y-16698460D01*
X25401134Y-16698460D02*
X25410658Y-16650841D01*
X25410658Y-16650841D02*
X25410658Y-16612746D01*
X25410658Y-16612746D02*
X25401134Y-16565127D01*
X25401134Y-16565127D02*
X25391611Y-16536555D01*
X25391611Y-16536555D02*
X25382087Y-16517508D01*
X25382087Y-16517508D02*
X25363039Y-16488936D01*
X25363039Y-16488936D02*
X25353515Y-16479412D01*
D12*
X20182500Y-16865500D02*
X20182500Y-16895500D01*
X20167500Y-16880500D02*
X20197500Y-16880500D01*
D11*
X20496372Y-16771984D02*
X20515420Y-16771984D01*
X20515420Y-16771984D02*
X20534467Y-16781508D01*
X20534467Y-16781508D02*
X20543991Y-16791031D01*
X20543991Y-16791031D02*
X20553515Y-16810079D01*
X20553515Y-16810079D02*
X20563039Y-16848174D01*
X20563039Y-16848174D02*
X20563039Y-16895793D01*
X20563039Y-16895793D02*
X20553515Y-16933889D01*
X20553515Y-16933889D02*
X20543991Y-16952936D01*
X20543991Y-16952936D02*
X20534467Y-16962460D01*
X20534467Y-16962460D02*
X20515420Y-16971984D01*
X20515420Y-16971984D02*
X20496372Y-16971984D01*
X20496372Y-16971984D02*
X20477324Y-16962460D01*
X20477324Y-16962460D02*
X20467801Y-16952936D01*
X20467801Y-16952936D02*
X20458277Y-16933889D01*
X20458277Y-16933889D02*
X20448753Y-16895793D01*
X20448753Y-16895793D02*
X20448753Y-16848174D01*
X20448753Y-16848174D02*
X20458277Y-16810079D01*
X20458277Y-16810079D02*
X20467801Y-16791031D01*
X20467801Y-16791031D02*
X20477324Y-16781508D01*
X20477324Y-16781508D02*
X20496372Y-16771984D01*
X20648753Y-16952936D02*
X20658277Y-16962460D01*
X20658277Y-16962460D02*
X20648753Y-16971984D01*
X20648753Y-16971984D02*
X20639229Y-16962460D01*
X20639229Y-16962460D02*
X20648753Y-16952936D01*
X20648753Y-16952936D02*
X20648753Y-16971984D01*
X20724944Y-16771984D02*
X20848753Y-16771984D01*
X20848753Y-16771984D02*
X20782086Y-16848174D01*
X20782086Y-16848174D02*
X20810658Y-16848174D01*
X20810658Y-16848174D02*
X20829705Y-16857698D01*
X20829705Y-16857698D02*
X20839229Y-16867222D01*
X20839229Y-16867222D02*
X20848753Y-16886270D01*
X20848753Y-16886270D02*
X20848753Y-16933889D01*
X20848753Y-16933889D02*
X20839229Y-16952936D01*
X20839229Y-16952936D02*
X20829705Y-16962460D01*
X20829705Y-16962460D02*
X20810658Y-16971984D01*
X20810658Y-16971984D02*
X20753515Y-16971984D01*
X20753515Y-16971984D02*
X20734467Y-16962460D01*
X20734467Y-16962460D02*
X20724944Y-16952936D01*
X20972563Y-16771984D02*
X20991610Y-16771984D01*
X20991610Y-16771984D02*
X21010658Y-16781508D01*
X21010658Y-16781508D02*
X21020182Y-16791031D01*
X21020182Y-16791031D02*
X21029705Y-16810079D01*
X21029705Y-16810079D02*
X21039229Y-16848174D01*
X21039229Y-16848174D02*
X21039229Y-16895793D01*
X21039229Y-16895793D02*
X21029705Y-16933889D01*
X21029705Y-16933889D02*
X21020182Y-16952936D01*
X21020182Y-16952936D02*
X21010658Y-16962460D01*
X21010658Y-16962460D02*
X20991610Y-16971984D01*
X20991610Y-16971984D02*
X20972563Y-16971984D01*
X20972563Y-16971984D02*
X20953515Y-16962460D01*
X20953515Y-16962460D02*
X20943991Y-16952936D01*
X20943991Y-16952936D02*
X20934467Y-16933889D01*
X20934467Y-16933889D02*
X20924944Y-16895793D01*
X20924944Y-16895793D02*
X20924944Y-16848174D01*
X20924944Y-16848174D02*
X20934467Y-16810079D01*
X20934467Y-16810079D02*
X20943991Y-16791031D01*
X20943991Y-16791031D02*
X20953515Y-16781508D01*
X20953515Y-16781508D02*
X20972563Y-16771984D01*
X21163039Y-16771984D02*
X21182086Y-16771984D01*
X21182086Y-16771984D02*
X21201134Y-16781508D01*
X21201134Y-16781508D02*
X21210658Y-16791031D01*
X21210658Y-16791031D02*
X21220182Y-16810079D01*
X21220182Y-16810079D02*
X21229705Y-16848174D01*
X21229705Y-16848174D02*
X21229705Y-16895793D01*
X21229705Y-16895793D02*
X21220182Y-16933889D01*
X21220182Y-16933889D02*
X21210658Y-16952936D01*
X21210658Y-16952936D02*
X21201134Y-16962460D01*
X21201134Y-16962460D02*
X21182086Y-16971984D01*
X21182086Y-16971984D02*
X21163039Y-16971984D01*
X21163039Y-16971984D02*
X21143991Y-16962460D01*
X21143991Y-16962460D02*
X21134467Y-16952936D01*
X21134467Y-16952936D02*
X21124944Y-16933889D01*
X21124944Y-16933889D02*
X21115420Y-16895793D01*
X21115420Y-16895793D02*
X21115420Y-16848174D01*
X21115420Y-16848174D02*
X21124944Y-16810079D01*
X21124944Y-16810079D02*
X21134467Y-16791031D01*
X21134467Y-16791031D02*
X21143991Y-16781508D01*
X21143991Y-16781508D02*
X21163039Y-16771984D01*
X21315420Y-16971984D02*
X21315420Y-16838650D01*
X21315420Y-16857698D02*
X21324944Y-16848174D01*
X21324944Y-16848174D02*
X21343991Y-16838650D01*
X21343991Y-16838650D02*
X21372563Y-16838650D01*
X21372563Y-16838650D02*
X21391610Y-16848174D01*
X21391610Y-16848174D02*
X21401134Y-16867222D01*
X21401134Y-16867222D02*
X21401134Y-16971984D01*
X21401134Y-16867222D02*
X21410658Y-16848174D01*
X21410658Y-16848174D02*
X21429705Y-16838650D01*
X21429705Y-16838650D02*
X21458277Y-16838650D01*
X21458277Y-16838650D02*
X21477325Y-16848174D01*
X21477325Y-16848174D02*
X21486848Y-16867222D01*
X21486848Y-16867222D02*
X21486848Y-16971984D01*
X21582086Y-16971984D02*
X21582086Y-16838650D01*
X21582086Y-16857698D02*
X21591610Y-16848174D01*
X21591610Y-16848174D02*
X21610658Y-16838650D01*
X21610658Y-16838650D02*
X21639229Y-16838650D01*
X21639229Y-16838650D02*
X21658277Y-16848174D01*
X21658277Y-16848174D02*
X21667801Y-16867222D01*
X21667801Y-16867222D02*
X21667801Y-16971984D01*
X21667801Y-16867222D02*
X21677325Y-16848174D01*
X21677325Y-16848174D02*
X21696372Y-16838650D01*
X21696372Y-16838650D02*
X21724944Y-16838650D01*
X21724944Y-16838650D02*
X21743991Y-16848174D01*
X21743991Y-16848174D02*
X21753515Y-16867222D01*
X21753515Y-16867222D02*
X21753515Y-16971984D01*
X22143991Y-16762460D02*
X21972563Y-17019603D01*
X22401134Y-16771984D02*
X22420182Y-16771984D01*
X22420182Y-16771984D02*
X22439229Y-16781508D01*
X22439229Y-16781508D02*
X22448753Y-16791031D01*
X22448753Y-16791031D02*
X22458277Y-16810079D01*
X22458277Y-16810079D02*
X22467801Y-16848174D01*
X22467801Y-16848174D02*
X22467801Y-16895793D01*
X22467801Y-16895793D02*
X22458277Y-16933889D01*
X22458277Y-16933889D02*
X22448753Y-16952936D01*
X22448753Y-16952936D02*
X22439229Y-16962460D01*
X22439229Y-16962460D02*
X22420182Y-16971984D01*
X22420182Y-16971984D02*
X22401134Y-16971984D01*
X22401134Y-16971984D02*
X22382086Y-16962460D01*
X22382086Y-16962460D02*
X22372563Y-16952936D01*
X22372563Y-16952936D02*
X22363039Y-16933889D01*
X22363039Y-16933889D02*
X22353515Y-16895793D01*
X22353515Y-16895793D02*
X22353515Y-16848174D01*
X22353515Y-16848174D02*
X22363039Y-16810079D01*
X22363039Y-16810079D02*
X22372563Y-16791031D01*
X22372563Y-16791031D02*
X22382086Y-16781508D01*
X22382086Y-16781508D02*
X22401134Y-16771984D01*
X22553515Y-16952936D02*
X22563039Y-16962460D01*
X22563039Y-16962460D02*
X22553515Y-16971984D01*
X22553515Y-16971984D02*
X22543991Y-16962460D01*
X22543991Y-16962460D02*
X22553515Y-16952936D01*
X22553515Y-16952936D02*
X22553515Y-16971984D01*
X22686848Y-16771984D02*
X22705896Y-16771984D01*
X22705896Y-16771984D02*
X22724944Y-16781508D01*
X22724944Y-16781508D02*
X22734467Y-16791031D01*
X22734467Y-16791031D02*
X22743991Y-16810079D01*
X22743991Y-16810079D02*
X22753515Y-16848174D01*
X22753515Y-16848174D02*
X22753515Y-16895793D01*
X22753515Y-16895793D02*
X22743991Y-16933889D01*
X22743991Y-16933889D02*
X22734467Y-16952936D01*
X22734467Y-16952936D02*
X22724944Y-16962460D01*
X22724944Y-16962460D02*
X22705896Y-16971984D01*
X22705896Y-16971984D02*
X22686848Y-16971984D01*
X22686848Y-16971984D02*
X22667801Y-16962460D01*
X22667801Y-16962460D02*
X22658277Y-16952936D01*
X22658277Y-16952936D02*
X22648753Y-16933889D01*
X22648753Y-16933889D02*
X22639229Y-16895793D01*
X22639229Y-16895793D02*
X22639229Y-16848174D01*
X22639229Y-16848174D02*
X22648753Y-16810079D01*
X22648753Y-16810079D02*
X22658277Y-16791031D01*
X22658277Y-16791031D02*
X22667801Y-16781508D01*
X22667801Y-16781508D02*
X22686848Y-16771984D01*
X22943991Y-16971984D02*
X22829706Y-16971984D01*
X22886848Y-16971984D02*
X22886848Y-16771984D01*
X22886848Y-16771984D02*
X22867801Y-16800555D01*
X22867801Y-16800555D02*
X22848753Y-16819603D01*
X22848753Y-16819603D02*
X22829706Y-16829127D01*
X23134467Y-16971984D02*
X23020182Y-16971984D01*
X23077325Y-16971984D02*
X23077325Y-16771984D01*
X23077325Y-16771984D02*
X23058277Y-16800555D01*
X23058277Y-16800555D02*
X23039229Y-16819603D01*
X23039229Y-16819603D02*
X23020182Y-16829127D01*
X23248753Y-16857698D02*
X23229706Y-16848174D01*
X23229706Y-16848174D02*
X23220182Y-16838650D01*
X23220182Y-16838650D02*
X23210658Y-16819603D01*
X23210658Y-16819603D02*
X23210658Y-16810079D01*
X23210658Y-16810079D02*
X23220182Y-16791031D01*
X23220182Y-16791031D02*
X23229706Y-16781508D01*
X23229706Y-16781508D02*
X23248753Y-16771984D01*
X23248753Y-16771984D02*
X23286848Y-16771984D01*
X23286848Y-16771984D02*
X23305896Y-16781508D01*
X23305896Y-16781508D02*
X23315420Y-16791031D01*
X23315420Y-16791031D02*
X23324944Y-16810079D01*
X23324944Y-16810079D02*
X23324944Y-16819603D01*
X23324944Y-16819603D02*
X23315420Y-16838650D01*
X23315420Y-16838650D02*
X23305896Y-16848174D01*
X23305896Y-16848174D02*
X23286848Y-16857698D01*
X23286848Y-16857698D02*
X23248753Y-16857698D01*
X23248753Y-16857698D02*
X23229706Y-16867222D01*
X23229706Y-16867222D02*
X23220182Y-16876746D01*
X23220182Y-16876746D02*
X23210658Y-16895793D01*
X23210658Y-16895793D02*
X23210658Y-16933889D01*
X23210658Y-16933889D02*
X23220182Y-16952936D01*
X23220182Y-16952936D02*
X23229706Y-16962460D01*
X23229706Y-16962460D02*
X23248753Y-16971984D01*
X23248753Y-16971984D02*
X23286848Y-16971984D01*
X23286848Y-16971984D02*
X23305896Y-16962460D01*
X23305896Y-16962460D02*
X23315420Y-16952936D01*
X23315420Y-16952936D02*
X23324944Y-16933889D01*
X23324944Y-16933889D02*
X23324944Y-16895793D01*
X23324944Y-16895793D02*
X23315420Y-16876746D01*
X23315420Y-16876746D02*
X23305896Y-16867222D01*
X23305896Y-16867222D02*
X23286848Y-16857698D01*
X23401134Y-16771984D02*
X23401134Y-16810079D01*
X23477325Y-16771984D02*
X23477325Y-16810079D01*
X23772563Y-17048174D02*
X23763039Y-17038650D01*
X23763039Y-17038650D02*
X23743991Y-17010079D01*
X23743991Y-17010079D02*
X23734468Y-16991031D01*
X23734468Y-16991031D02*
X23724944Y-16962460D01*
X23724944Y-16962460D02*
X23715420Y-16914841D01*
X23715420Y-16914841D02*
X23715420Y-16876746D01*
X23715420Y-16876746D02*
X23724944Y-16829127D01*
X23724944Y-16829127D02*
X23734468Y-16800555D01*
X23734468Y-16800555D02*
X23743991Y-16781508D01*
X23743991Y-16781508D02*
X23763039Y-16752936D01*
X23763039Y-16752936D02*
X23772563Y-16743412D01*
X23839229Y-16791031D02*
X23848753Y-16781508D01*
X23848753Y-16781508D02*
X23867801Y-16771984D01*
X23867801Y-16771984D02*
X23915420Y-16771984D01*
X23915420Y-16771984D02*
X23934468Y-16781508D01*
X23934468Y-16781508D02*
X23943991Y-16791031D01*
X23943991Y-16791031D02*
X23953515Y-16810079D01*
X23953515Y-16810079D02*
X23953515Y-16829127D01*
X23953515Y-16829127D02*
X23943991Y-16857698D01*
X23943991Y-16857698D02*
X23829706Y-16971984D01*
X23829706Y-16971984D02*
X23953515Y-16971984D01*
X24020182Y-16771984D02*
X24143991Y-16771984D01*
X24143991Y-16771984D02*
X24077325Y-16848174D01*
X24077325Y-16848174D02*
X24105896Y-16848174D01*
X24105896Y-16848174D02*
X24124944Y-16857698D01*
X24124944Y-16857698D02*
X24134468Y-16867222D01*
X24134468Y-16867222D02*
X24143991Y-16886270D01*
X24143991Y-16886270D02*
X24143991Y-16933889D01*
X24143991Y-16933889D02*
X24134468Y-16952936D01*
X24134468Y-16952936D02*
X24124944Y-16962460D01*
X24124944Y-16962460D02*
X24105896Y-16971984D01*
X24105896Y-16971984D02*
X24048753Y-16971984D01*
X24048753Y-16971984D02*
X24029706Y-16962460D01*
X24029706Y-16962460D02*
X24020182Y-16952936D01*
X24382087Y-16971984D02*
X24382087Y-16771984D01*
X24467801Y-16971984D02*
X24467801Y-16867222D01*
X24467801Y-16867222D02*
X24458277Y-16848174D01*
X24458277Y-16848174D02*
X24439230Y-16838650D01*
X24439230Y-16838650D02*
X24410658Y-16838650D01*
X24410658Y-16838650D02*
X24391610Y-16848174D01*
X24391610Y-16848174D02*
X24382087Y-16857698D01*
X24591610Y-16971984D02*
X24572563Y-16962460D01*
X24572563Y-16962460D02*
X24563039Y-16952936D01*
X24563039Y-16952936D02*
X24553515Y-16933889D01*
X24553515Y-16933889D02*
X24553515Y-16876746D01*
X24553515Y-16876746D02*
X24563039Y-16857698D01*
X24563039Y-16857698D02*
X24572563Y-16848174D01*
X24572563Y-16848174D02*
X24591610Y-16838650D01*
X24591610Y-16838650D02*
X24620182Y-16838650D01*
X24620182Y-16838650D02*
X24639230Y-16848174D01*
X24639230Y-16848174D02*
X24648753Y-16857698D01*
X24648753Y-16857698D02*
X24658277Y-16876746D01*
X24658277Y-16876746D02*
X24658277Y-16933889D01*
X24658277Y-16933889D02*
X24648753Y-16952936D01*
X24648753Y-16952936D02*
X24639230Y-16962460D01*
X24639230Y-16962460D02*
X24620182Y-16971984D01*
X24620182Y-16971984D02*
X24591610Y-16971984D01*
X24772563Y-16971984D02*
X24753515Y-16962460D01*
X24753515Y-16962460D02*
X24743991Y-16943412D01*
X24743991Y-16943412D02*
X24743991Y-16771984D01*
X24924944Y-16962460D02*
X24905896Y-16971984D01*
X24905896Y-16971984D02*
X24867801Y-16971984D01*
X24867801Y-16971984D02*
X24848753Y-16962460D01*
X24848753Y-16962460D02*
X24839230Y-16943412D01*
X24839230Y-16943412D02*
X24839230Y-16867222D01*
X24839230Y-16867222D02*
X24848753Y-16848174D01*
X24848753Y-16848174D02*
X24867801Y-16838650D01*
X24867801Y-16838650D02*
X24905896Y-16838650D01*
X24905896Y-16838650D02*
X24924944Y-16848174D01*
X24924944Y-16848174D02*
X24934468Y-16867222D01*
X24934468Y-16867222D02*
X24934468Y-16886270D01*
X24934468Y-16886270D02*
X24839230Y-16905317D01*
X25010658Y-16962460D02*
X25029706Y-16971984D01*
X25029706Y-16971984D02*
X25067801Y-16971984D01*
X25067801Y-16971984D02*
X25086849Y-16962460D01*
X25086849Y-16962460D02*
X25096372Y-16943412D01*
X25096372Y-16943412D02*
X25096372Y-16933889D01*
X25096372Y-16933889D02*
X25086849Y-16914841D01*
X25086849Y-16914841D02*
X25067801Y-16905317D01*
X25067801Y-16905317D02*
X25039230Y-16905317D01*
X25039230Y-16905317D02*
X25020182Y-16895793D01*
X25020182Y-16895793D02*
X25010658Y-16876746D01*
X25010658Y-16876746D02*
X25010658Y-16867222D01*
X25010658Y-16867222D02*
X25020182Y-16848174D01*
X25020182Y-16848174D02*
X25039230Y-16838650D01*
X25039230Y-16838650D02*
X25067801Y-16838650D01*
X25067801Y-16838650D02*
X25086849Y-16848174D01*
X25163039Y-17048174D02*
X25172563Y-17038650D01*
X25172563Y-17038650D02*
X25191611Y-17010079D01*
X25191611Y-17010079D02*
X25201134Y-16991031D01*
X25201134Y-16991031D02*
X25210658Y-16962460D01*
X25210658Y-16962460D02*
X25220182Y-16914841D01*
X25220182Y-16914841D02*
X25220182Y-16876746D01*
X25220182Y-16876746D02*
X25210658Y-16829127D01*
X25210658Y-16829127D02*
X25201134Y-16800555D01*
X25201134Y-16800555D02*
X25191611Y-16781508D01*
X25191611Y-16781508D02*
X25172563Y-16752936D01*
X25172563Y-16752936D02*
X25163039Y-16743412D01*
D12*
X20190178Y-17162178D02*
X20190178Y-17126822D01*
X20154822Y-17126822D01*
X20154822Y-17162178D01*
X20190178Y-17162178D01*
D11*
X20496372Y-17035984D02*
X20515420Y-17035984D01*
X20515420Y-17035984D02*
X20534467Y-17045508D01*
X20534467Y-17045508D02*
X20543991Y-17055031D01*
X20543991Y-17055031D02*
X20553515Y-17074079D01*
X20553515Y-17074079D02*
X20563039Y-17112174D01*
X20563039Y-17112174D02*
X20563039Y-17159793D01*
X20563039Y-17159793D02*
X20553515Y-17197889D01*
X20553515Y-17197889D02*
X20543991Y-17216936D01*
X20543991Y-17216936D02*
X20534467Y-17226460D01*
X20534467Y-17226460D02*
X20515420Y-17235984D01*
X20515420Y-17235984D02*
X20496372Y-17235984D01*
X20496372Y-17235984D02*
X20477324Y-17226460D01*
X20477324Y-17226460D02*
X20467801Y-17216936D01*
X20467801Y-17216936D02*
X20458277Y-17197889D01*
X20458277Y-17197889D02*
X20448753Y-17159793D01*
X20448753Y-17159793D02*
X20448753Y-17112174D01*
X20448753Y-17112174D02*
X20458277Y-17074079D01*
X20458277Y-17074079D02*
X20467801Y-17055031D01*
X20467801Y-17055031D02*
X20477324Y-17045508D01*
X20477324Y-17045508D02*
X20496372Y-17035984D01*
X20648753Y-17216936D02*
X20658277Y-17226460D01*
X20658277Y-17226460D02*
X20648753Y-17235984D01*
X20648753Y-17235984D02*
X20639229Y-17226460D01*
X20639229Y-17226460D02*
X20648753Y-17216936D01*
X20648753Y-17216936D02*
X20648753Y-17235984D01*
X20839229Y-17035984D02*
X20743991Y-17035984D01*
X20743991Y-17035984D02*
X20734467Y-17131222D01*
X20734467Y-17131222D02*
X20743991Y-17121698D01*
X20743991Y-17121698D02*
X20763039Y-17112174D01*
X20763039Y-17112174D02*
X20810658Y-17112174D01*
X20810658Y-17112174D02*
X20829705Y-17121698D01*
X20829705Y-17121698D02*
X20839229Y-17131222D01*
X20839229Y-17131222D02*
X20848753Y-17150270D01*
X20848753Y-17150270D02*
X20848753Y-17197889D01*
X20848753Y-17197889D02*
X20839229Y-17216936D01*
X20839229Y-17216936D02*
X20829705Y-17226460D01*
X20829705Y-17226460D02*
X20810658Y-17235984D01*
X20810658Y-17235984D02*
X20763039Y-17235984D01*
X20763039Y-17235984D02*
X20743991Y-17226460D01*
X20743991Y-17226460D02*
X20734467Y-17216936D01*
X20972563Y-17035984D02*
X20991610Y-17035984D01*
X20991610Y-17035984D02*
X21010658Y-17045508D01*
X21010658Y-17045508D02*
X21020182Y-17055031D01*
X21020182Y-17055031D02*
X21029705Y-17074079D01*
X21029705Y-17074079D02*
X21039229Y-17112174D01*
X21039229Y-17112174D02*
X21039229Y-17159793D01*
X21039229Y-17159793D02*
X21029705Y-17197889D01*
X21029705Y-17197889D02*
X21020182Y-17216936D01*
X21020182Y-17216936D02*
X21010658Y-17226460D01*
X21010658Y-17226460D02*
X20991610Y-17235984D01*
X20991610Y-17235984D02*
X20972563Y-17235984D01*
X20972563Y-17235984D02*
X20953515Y-17226460D01*
X20953515Y-17226460D02*
X20943991Y-17216936D01*
X20943991Y-17216936D02*
X20934467Y-17197889D01*
X20934467Y-17197889D02*
X20924944Y-17159793D01*
X20924944Y-17159793D02*
X20924944Y-17112174D01*
X20924944Y-17112174D02*
X20934467Y-17074079D01*
X20934467Y-17074079D02*
X20943991Y-17055031D01*
X20943991Y-17055031D02*
X20953515Y-17045508D01*
X20953515Y-17045508D02*
X20972563Y-17035984D01*
X21163039Y-17035984D02*
X21182086Y-17035984D01*
X21182086Y-17035984D02*
X21201134Y-17045508D01*
X21201134Y-17045508D02*
X21210658Y-17055031D01*
X21210658Y-17055031D02*
X21220182Y-17074079D01*
X21220182Y-17074079D02*
X21229705Y-17112174D01*
X21229705Y-17112174D02*
X21229705Y-17159793D01*
X21229705Y-17159793D02*
X21220182Y-17197889D01*
X21220182Y-17197889D02*
X21210658Y-17216936D01*
X21210658Y-17216936D02*
X21201134Y-17226460D01*
X21201134Y-17226460D02*
X21182086Y-17235984D01*
X21182086Y-17235984D02*
X21163039Y-17235984D01*
X21163039Y-17235984D02*
X21143991Y-17226460D01*
X21143991Y-17226460D02*
X21134467Y-17216936D01*
X21134467Y-17216936D02*
X21124944Y-17197889D01*
X21124944Y-17197889D02*
X21115420Y-17159793D01*
X21115420Y-17159793D02*
X21115420Y-17112174D01*
X21115420Y-17112174D02*
X21124944Y-17074079D01*
X21124944Y-17074079D02*
X21134467Y-17055031D01*
X21134467Y-17055031D02*
X21143991Y-17045508D01*
X21143991Y-17045508D02*
X21163039Y-17035984D01*
X21315420Y-17235984D02*
X21315420Y-17102650D01*
X21315420Y-17121698D02*
X21324944Y-17112174D01*
X21324944Y-17112174D02*
X21343991Y-17102650D01*
X21343991Y-17102650D02*
X21372563Y-17102650D01*
X21372563Y-17102650D02*
X21391610Y-17112174D01*
X21391610Y-17112174D02*
X21401134Y-17131222D01*
X21401134Y-17131222D02*
X21401134Y-17235984D01*
X21401134Y-17131222D02*
X21410658Y-17112174D01*
X21410658Y-17112174D02*
X21429705Y-17102650D01*
X21429705Y-17102650D02*
X21458277Y-17102650D01*
X21458277Y-17102650D02*
X21477325Y-17112174D01*
X21477325Y-17112174D02*
X21486848Y-17131222D01*
X21486848Y-17131222D02*
X21486848Y-17235984D01*
X21582086Y-17235984D02*
X21582086Y-17102650D01*
X21582086Y-17121698D02*
X21591610Y-17112174D01*
X21591610Y-17112174D02*
X21610658Y-17102650D01*
X21610658Y-17102650D02*
X21639229Y-17102650D01*
X21639229Y-17102650D02*
X21658277Y-17112174D01*
X21658277Y-17112174D02*
X21667801Y-17131222D01*
X21667801Y-17131222D02*
X21667801Y-17235984D01*
X21667801Y-17131222D02*
X21677325Y-17112174D01*
X21677325Y-17112174D02*
X21696372Y-17102650D01*
X21696372Y-17102650D02*
X21724944Y-17102650D01*
X21724944Y-17102650D02*
X21743991Y-17112174D01*
X21743991Y-17112174D02*
X21753515Y-17131222D01*
X21753515Y-17131222D02*
X21753515Y-17235984D01*
X22143991Y-17026460D02*
X21972563Y-17283603D01*
X22401134Y-17035984D02*
X22420182Y-17035984D01*
X22420182Y-17035984D02*
X22439229Y-17045508D01*
X22439229Y-17045508D02*
X22448753Y-17055031D01*
X22448753Y-17055031D02*
X22458277Y-17074079D01*
X22458277Y-17074079D02*
X22467801Y-17112174D01*
X22467801Y-17112174D02*
X22467801Y-17159793D01*
X22467801Y-17159793D02*
X22458277Y-17197889D01*
X22458277Y-17197889D02*
X22448753Y-17216936D01*
X22448753Y-17216936D02*
X22439229Y-17226460D01*
X22439229Y-17226460D02*
X22420182Y-17235984D01*
X22420182Y-17235984D02*
X22401134Y-17235984D01*
X22401134Y-17235984D02*
X22382086Y-17226460D01*
X22382086Y-17226460D02*
X22372563Y-17216936D01*
X22372563Y-17216936D02*
X22363039Y-17197889D01*
X22363039Y-17197889D02*
X22353515Y-17159793D01*
X22353515Y-17159793D02*
X22353515Y-17112174D01*
X22353515Y-17112174D02*
X22363039Y-17074079D01*
X22363039Y-17074079D02*
X22372563Y-17055031D01*
X22372563Y-17055031D02*
X22382086Y-17045508D01*
X22382086Y-17045508D02*
X22401134Y-17035984D01*
X22553515Y-17216936D02*
X22563039Y-17226460D01*
X22563039Y-17226460D02*
X22553515Y-17235984D01*
X22553515Y-17235984D02*
X22543991Y-17226460D01*
X22543991Y-17226460D02*
X22553515Y-17216936D01*
X22553515Y-17216936D02*
X22553515Y-17235984D01*
X22686848Y-17035984D02*
X22705896Y-17035984D01*
X22705896Y-17035984D02*
X22724944Y-17045508D01*
X22724944Y-17045508D02*
X22734467Y-17055031D01*
X22734467Y-17055031D02*
X22743991Y-17074079D01*
X22743991Y-17074079D02*
X22753515Y-17112174D01*
X22753515Y-17112174D02*
X22753515Y-17159793D01*
X22753515Y-17159793D02*
X22743991Y-17197889D01*
X22743991Y-17197889D02*
X22734467Y-17216936D01*
X22734467Y-17216936D02*
X22724944Y-17226460D01*
X22724944Y-17226460D02*
X22705896Y-17235984D01*
X22705896Y-17235984D02*
X22686848Y-17235984D01*
X22686848Y-17235984D02*
X22667801Y-17226460D01*
X22667801Y-17226460D02*
X22658277Y-17216936D01*
X22658277Y-17216936D02*
X22648753Y-17197889D01*
X22648753Y-17197889D02*
X22639229Y-17159793D01*
X22639229Y-17159793D02*
X22639229Y-17112174D01*
X22639229Y-17112174D02*
X22648753Y-17074079D01*
X22648753Y-17074079D02*
X22658277Y-17055031D01*
X22658277Y-17055031D02*
X22667801Y-17045508D01*
X22667801Y-17045508D02*
X22686848Y-17035984D01*
X22943991Y-17235984D02*
X22829706Y-17235984D01*
X22886848Y-17235984D02*
X22886848Y-17035984D01*
X22886848Y-17035984D02*
X22867801Y-17064555D01*
X22867801Y-17064555D02*
X22848753Y-17083603D01*
X22848753Y-17083603D02*
X22829706Y-17093127D01*
X23039229Y-17235984D02*
X23077325Y-17235984D01*
X23077325Y-17235984D02*
X23096372Y-17226460D01*
X23096372Y-17226460D02*
X23105896Y-17216936D01*
X23105896Y-17216936D02*
X23124944Y-17188365D01*
X23124944Y-17188365D02*
X23134467Y-17150270D01*
X23134467Y-17150270D02*
X23134467Y-17074079D01*
X23134467Y-17074079D02*
X23124944Y-17055031D01*
X23124944Y-17055031D02*
X23115420Y-17045508D01*
X23115420Y-17045508D02*
X23096372Y-17035984D01*
X23096372Y-17035984D02*
X23058277Y-17035984D01*
X23058277Y-17035984D02*
X23039229Y-17045508D01*
X23039229Y-17045508D02*
X23029706Y-17055031D01*
X23029706Y-17055031D02*
X23020182Y-17074079D01*
X23020182Y-17074079D02*
X23020182Y-17121698D01*
X23020182Y-17121698D02*
X23029706Y-17140746D01*
X23029706Y-17140746D02*
X23039229Y-17150270D01*
X23039229Y-17150270D02*
X23058277Y-17159793D01*
X23058277Y-17159793D02*
X23096372Y-17159793D01*
X23096372Y-17159793D02*
X23115420Y-17150270D01*
X23115420Y-17150270D02*
X23124944Y-17140746D01*
X23124944Y-17140746D02*
X23134467Y-17121698D01*
X23201134Y-17035984D02*
X23334467Y-17035984D01*
X23334467Y-17035984D02*
X23248753Y-17235984D01*
X23401134Y-17035984D02*
X23401134Y-17074079D01*
X23477325Y-17035984D02*
X23477325Y-17074079D01*
X23772563Y-17312174D02*
X23763039Y-17302650D01*
X23763039Y-17302650D02*
X23743991Y-17274079D01*
X23743991Y-17274079D02*
X23734468Y-17255031D01*
X23734468Y-17255031D02*
X23724944Y-17226460D01*
X23724944Y-17226460D02*
X23715420Y-17178841D01*
X23715420Y-17178841D02*
X23715420Y-17140746D01*
X23715420Y-17140746D02*
X23724944Y-17093127D01*
X23724944Y-17093127D02*
X23734468Y-17064555D01*
X23734468Y-17064555D02*
X23743991Y-17045508D01*
X23743991Y-17045508D02*
X23763039Y-17016936D01*
X23763039Y-17016936D02*
X23772563Y-17007412D01*
X23829706Y-17035984D02*
X23953515Y-17035984D01*
X23953515Y-17035984D02*
X23886848Y-17112174D01*
X23886848Y-17112174D02*
X23915420Y-17112174D01*
X23915420Y-17112174D02*
X23934468Y-17121698D01*
X23934468Y-17121698D02*
X23943991Y-17131222D01*
X23943991Y-17131222D02*
X23953515Y-17150270D01*
X23953515Y-17150270D02*
X23953515Y-17197889D01*
X23953515Y-17197889D02*
X23943991Y-17216936D01*
X23943991Y-17216936D02*
X23934468Y-17226460D01*
X23934468Y-17226460D02*
X23915420Y-17235984D01*
X23915420Y-17235984D02*
X23858277Y-17235984D01*
X23858277Y-17235984D02*
X23839229Y-17226460D01*
X23839229Y-17226460D02*
X23829706Y-17216936D01*
X24191610Y-17235984D02*
X24191610Y-17035984D01*
X24277325Y-17235984D02*
X24277325Y-17131222D01*
X24277325Y-17131222D02*
X24267801Y-17112174D01*
X24267801Y-17112174D02*
X24248753Y-17102650D01*
X24248753Y-17102650D02*
X24220182Y-17102650D01*
X24220182Y-17102650D02*
X24201134Y-17112174D01*
X24201134Y-17112174D02*
X24191610Y-17121698D01*
X24401134Y-17235984D02*
X24382087Y-17226460D01*
X24382087Y-17226460D02*
X24372563Y-17216936D01*
X24372563Y-17216936D02*
X24363039Y-17197889D01*
X24363039Y-17197889D02*
X24363039Y-17140746D01*
X24363039Y-17140746D02*
X24372563Y-17121698D01*
X24372563Y-17121698D02*
X24382087Y-17112174D01*
X24382087Y-17112174D02*
X24401134Y-17102650D01*
X24401134Y-17102650D02*
X24429706Y-17102650D01*
X24429706Y-17102650D02*
X24448753Y-17112174D01*
X24448753Y-17112174D02*
X24458277Y-17121698D01*
X24458277Y-17121698D02*
X24467801Y-17140746D01*
X24467801Y-17140746D02*
X24467801Y-17197889D01*
X24467801Y-17197889D02*
X24458277Y-17216936D01*
X24458277Y-17216936D02*
X24448753Y-17226460D01*
X24448753Y-17226460D02*
X24429706Y-17235984D01*
X24429706Y-17235984D02*
X24401134Y-17235984D01*
X24582087Y-17235984D02*
X24563039Y-17226460D01*
X24563039Y-17226460D02*
X24553515Y-17207412D01*
X24553515Y-17207412D02*
X24553515Y-17035984D01*
X24734468Y-17226460D02*
X24715420Y-17235984D01*
X24715420Y-17235984D02*
X24677325Y-17235984D01*
X24677325Y-17235984D02*
X24658277Y-17226460D01*
X24658277Y-17226460D02*
X24648753Y-17207412D01*
X24648753Y-17207412D02*
X24648753Y-17131222D01*
X24648753Y-17131222D02*
X24658277Y-17112174D01*
X24658277Y-17112174D02*
X24677325Y-17102650D01*
X24677325Y-17102650D02*
X24715420Y-17102650D01*
X24715420Y-17102650D02*
X24734468Y-17112174D01*
X24734468Y-17112174D02*
X24743991Y-17131222D01*
X24743991Y-17131222D02*
X24743991Y-17150270D01*
X24743991Y-17150270D02*
X24648753Y-17169317D01*
X24820182Y-17226460D02*
X24839230Y-17235984D01*
X24839230Y-17235984D02*
X24877325Y-17235984D01*
X24877325Y-17235984D02*
X24896372Y-17226460D01*
X24896372Y-17226460D02*
X24905896Y-17207412D01*
X24905896Y-17207412D02*
X24905896Y-17197889D01*
X24905896Y-17197889D02*
X24896372Y-17178841D01*
X24896372Y-17178841D02*
X24877325Y-17169317D01*
X24877325Y-17169317D02*
X24848753Y-17169317D01*
X24848753Y-17169317D02*
X24829706Y-17159793D01*
X24829706Y-17159793D02*
X24820182Y-17140746D01*
X24820182Y-17140746D02*
X24820182Y-17131222D01*
X24820182Y-17131222D02*
X24829706Y-17112174D01*
X24829706Y-17112174D02*
X24848753Y-17102650D01*
X24848753Y-17102650D02*
X24877325Y-17102650D01*
X24877325Y-17102650D02*
X24896372Y-17112174D01*
X24972563Y-17312174D02*
X24982087Y-17302650D01*
X24982087Y-17302650D02*
X25001134Y-17274079D01*
X25001134Y-17274079D02*
X25010658Y-17255031D01*
X25010658Y-17255031D02*
X25020182Y-17226460D01*
X25020182Y-17226460D02*
X25029706Y-17178841D01*
X25029706Y-17178841D02*
X25029706Y-17140746D01*
X25029706Y-17140746D02*
X25020182Y-17093127D01*
X25020182Y-17093127D02*
X25010658Y-17064555D01*
X25010658Y-17064555D02*
X25001134Y-17045508D01*
X25001134Y-17045508D02*
X24982087Y-17016936D01*
X24982087Y-17016936D02*
X24972563Y-17007412D01*
D12*
X20160000Y-17446000D02*
X20197500Y-17408500D01*
X20160000Y-17371000D01*
X20122500Y-17408500D01*
X20160000Y-17446000D01*
D11*
X20496372Y-17299984D02*
X20515420Y-17299984D01*
X20515420Y-17299984D02*
X20534467Y-17309508D01*
X20534467Y-17309508D02*
X20543991Y-17319031D01*
X20543991Y-17319031D02*
X20553515Y-17338079D01*
X20553515Y-17338079D02*
X20563039Y-17376174D01*
X20563039Y-17376174D02*
X20563039Y-17423793D01*
X20563039Y-17423793D02*
X20553515Y-17461889D01*
X20553515Y-17461889D02*
X20543991Y-17480936D01*
X20543991Y-17480936D02*
X20534467Y-17490460D01*
X20534467Y-17490460D02*
X20515420Y-17499984D01*
X20515420Y-17499984D02*
X20496372Y-17499984D01*
X20496372Y-17499984D02*
X20477324Y-17490460D01*
X20477324Y-17490460D02*
X20467801Y-17480936D01*
X20467801Y-17480936D02*
X20458277Y-17461889D01*
X20458277Y-17461889D02*
X20448753Y-17423793D01*
X20448753Y-17423793D02*
X20448753Y-17376174D01*
X20448753Y-17376174D02*
X20458277Y-17338079D01*
X20458277Y-17338079D02*
X20467801Y-17319031D01*
X20467801Y-17319031D02*
X20477324Y-17309508D01*
X20477324Y-17309508D02*
X20496372Y-17299984D01*
X20648753Y-17480936D02*
X20658277Y-17490460D01*
X20658277Y-17490460D02*
X20648753Y-17499984D01*
X20648753Y-17499984D02*
X20639229Y-17490460D01*
X20639229Y-17490460D02*
X20648753Y-17480936D01*
X20648753Y-17480936D02*
X20648753Y-17499984D01*
X20724944Y-17299984D02*
X20858277Y-17299984D01*
X20858277Y-17299984D02*
X20772563Y-17499984D01*
X21029705Y-17299984D02*
X20934467Y-17299984D01*
X20934467Y-17299984D02*
X20924944Y-17395222D01*
X20924944Y-17395222D02*
X20934467Y-17385698D01*
X20934467Y-17385698D02*
X20953515Y-17376174D01*
X20953515Y-17376174D02*
X21001134Y-17376174D01*
X21001134Y-17376174D02*
X21020182Y-17385698D01*
X21020182Y-17385698D02*
X21029705Y-17395222D01*
X21029705Y-17395222D02*
X21039229Y-17414270D01*
X21039229Y-17414270D02*
X21039229Y-17461889D01*
X21039229Y-17461889D02*
X21029705Y-17480936D01*
X21029705Y-17480936D02*
X21020182Y-17490460D01*
X21020182Y-17490460D02*
X21001134Y-17499984D01*
X21001134Y-17499984D02*
X20953515Y-17499984D01*
X20953515Y-17499984D02*
X20934467Y-17490460D01*
X20934467Y-17490460D02*
X20924944Y-17480936D01*
X21163039Y-17299984D02*
X21182086Y-17299984D01*
X21182086Y-17299984D02*
X21201134Y-17309508D01*
X21201134Y-17309508D02*
X21210658Y-17319031D01*
X21210658Y-17319031D02*
X21220182Y-17338079D01*
X21220182Y-17338079D02*
X21229705Y-17376174D01*
X21229705Y-17376174D02*
X21229705Y-17423793D01*
X21229705Y-17423793D02*
X21220182Y-17461889D01*
X21220182Y-17461889D02*
X21210658Y-17480936D01*
X21210658Y-17480936D02*
X21201134Y-17490460D01*
X21201134Y-17490460D02*
X21182086Y-17499984D01*
X21182086Y-17499984D02*
X21163039Y-17499984D01*
X21163039Y-17499984D02*
X21143991Y-17490460D01*
X21143991Y-17490460D02*
X21134467Y-17480936D01*
X21134467Y-17480936D02*
X21124944Y-17461889D01*
X21124944Y-17461889D02*
X21115420Y-17423793D01*
X21115420Y-17423793D02*
X21115420Y-17376174D01*
X21115420Y-17376174D02*
X21124944Y-17338079D01*
X21124944Y-17338079D02*
X21134467Y-17319031D01*
X21134467Y-17319031D02*
X21143991Y-17309508D01*
X21143991Y-17309508D02*
X21163039Y-17299984D01*
X21315420Y-17499984D02*
X21315420Y-17366650D01*
X21315420Y-17385698D02*
X21324944Y-17376174D01*
X21324944Y-17376174D02*
X21343991Y-17366650D01*
X21343991Y-17366650D02*
X21372563Y-17366650D01*
X21372563Y-17366650D02*
X21391610Y-17376174D01*
X21391610Y-17376174D02*
X21401134Y-17395222D01*
X21401134Y-17395222D02*
X21401134Y-17499984D01*
X21401134Y-17395222D02*
X21410658Y-17376174D01*
X21410658Y-17376174D02*
X21429705Y-17366650D01*
X21429705Y-17366650D02*
X21458277Y-17366650D01*
X21458277Y-17366650D02*
X21477325Y-17376174D01*
X21477325Y-17376174D02*
X21486848Y-17395222D01*
X21486848Y-17395222D02*
X21486848Y-17499984D01*
X21582086Y-17499984D02*
X21582086Y-17366650D01*
X21582086Y-17385698D02*
X21591610Y-17376174D01*
X21591610Y-17376174D02*
X21610658Y-17366650D01*
X21610658Y-17366650D02*
X21639229Y-17366650D01*
X21639229Y-17366650D02*
X21658277Y-17376174D01*
X21658277Y-17376174D02*
X21667801Y-17395222D01*
X21667801Y-17395222D02*
X21667801Y-17499984D01*
X21667801Y-17395222D02*
X21677325Y-17376174D01*
X21677325Y-17376174D02*
X21696372Y-17366650D01*
X21696372Y-17366650D02*
X21724944Y-17366650D01*
X21724944Y-17366650D02*
X21743991Y-17376174D01*
X21743991Y-17376174D02*
X21753515Y-17395222D01*
X21753515Y-17395222D02*
X21753515Y-17499984D01*
X22143991Y-17290460D02*
X21972563Y-17547603D01*
X22401134Y-17299984D02*
X22420182Y-17299984D01*
X22420182Y-17299984D02*
X22439229Y-17309508D01*
X22439229Y-17309508D02*
X22448753Y-17319031D01*
X22448753Y-17319031D02*
X22458277Y-17338079D01*
X22458277Y-17338079D02*
X22467801Y-17376174D01*
X22467801Y-17376174D02*
X22467801Y-17423793D01*
X22467801Y-17423793D02*
X22458277Y-17461889D01*
X22458277Y-17461889D02*
X22448753Y-17480936D01*
X22448753Y-17480936D02*
X22439229Y-17490460D01*
X22439229Y-17490460D02*
X22420182Y-17499984D01*
X22420182Y-17499984D02*
X22401134Y-17499984D01*
X22401134Y-17499984D02*
X22382086Y-17490460D01*
X22382086Y-17490460D02*
X22372563Y-17480936D01*
X22372563Y-17480936D02*
X22363039Y-17461889D01*
X22363039Y-17461889D02*
X22353515Y-17423793D01*
X22353515Y-17423793D02*
X22353515Y-17376174D01*
X22353515Y-17376174D02*
X22363039Y-17338079D01*
X22363039Y-17338079D02*
X22372563Y-17319031D01*
X22372563Y-17319031D02*
X22382086Y-17309508D01*
X22382086Y-17309508D02*
X22401134Y-17299984D01*
X22553515Y-17480936D02*
X22563039Y-17490460D01*
X22563039Y-17490460D02*
X22553515Y-17499984D01*
X22553515Y-17499984D02*
X22543991Y-17490460D01*
X22543991Y-17490460D02*
X22553515Y-17480936D01*
X22553515Y-17480936D02*
X22553515Y-17499984D01*
X22686848Y-17299984D02*
X22705896Y-17299984D01*
X22705896Y-17299984D02*
X22724944Y-17309508D01*
X22724944Y-17309508D02*
X22734467Y-17319031D01*
X22734467Y-17319031D02*
X22743991Y-17338079D01*
X22743991Y-17338079D02*
X22753515Y-17376174D01*
X22753515Y-17376174D02*
X22753515Y-17423793D01*
X22753515Y-17423793D02*
X22743991Y-17461889D01*
X22743991Y-17461889D02*
X22734467Y-17480936D01*
X22734467Y-17480936D02*
X22724944Y-17490460D01*
X22724944Y-17490460D02*
X22705896Y-17499984D01*
X22705896Y-17499984D02*
X22686848Y-17499984D01*
X22686848Y-17499984D02*
X22667801Y-17490460D01*
X22667801Y-17490460D02*
X22658277Y-17480936D01*
X22658277Y-17480936D02*
X22648753Y-17461889D01*
X22648753Y-17461889D02*
X22639229Y-17423793D01*
X22639229Y-17423793D02*
X22639229Y-17376174D01*
X22639229Y-17376174D02*
X22648753Y-17338079D01*
X22648753Y-17338079D02*
X22658277Y-17319031D01*
X22658277Y-17319031D02*
X22667801Y-17309508D01*
X22667801Y-17309508D02*
X22686848Y-17299984D01*
X22829706Y-17319031D02*
X22839229Y-17309508D01*
X22839229Y-17309508D02*
X22858277Y-17299984D01*
X22858277Y-17299984D02*
X22905896Y-17299984D01*
X22905896Y-17299984D02*
X22924944Y-17309508D01*
X22924944Y-17309508D02*
X22934467Y-17319031D01*
X22934467Y-17319031D02*
X22943991Y-17338079D01*
X22943991Y-17338079D02*
X22943991Y-17357127D01*
X22943991Y-17357127D02*
X22934467Y-17385698D01*
X22934467Y-17385698D02*
X22820182Y-17499984D01*
X22820182Y-17499984D02*
X22943991Y-17499984D01*
X23039229Y-17499984D02*
X23077325Y-17499984D01*
X23077325Y-17499984D02*
X23096372Y-17490460D01*
X23096372Y-17490460D02*
X23105896Y-17480936D01*
X23105896Y-17480936D02*
X23124944Y-17452365D01*
X23124944Y-17452365D02*
X23134467Y-17414270D01*
X23134467Y-17414270D02*
X23134467Y-17338079D01*
X23134467Y-17338079D02*
X23124944Y-17319031D01*
X23124944Y-17319031D02*
X23115420Y-17309508D01*
X23115420Y-17309508D02*
X23096372Y-17299984D01*
X23096372Y-17299984D02*
X23058277Y-17299984D01*
X23058277Y-17299984D02*
X23039229Y-17309508D01*
X23039229Y-17309508D02*
X23029706Y-17319031D01*
X23029706Y-17319031D02*
X23020182Y-17338079D01*
X23020182Y-17338079D02*
X23020182Y-17385698D01*
X23020182Y-17385698D02*
X23029706Y-17404746D01*
X23029706Y-17404746D02*
X23039229Y-17414270D01*
X23039229Y-17414270D02*
X23058277Y-17423793D01*
X23058277Y-17423793D02*
X23096372Y-17423793D01*
X23096372Y-17423793D02*
X23115420Y-17414270D01*
X23115420Y-17414270D02*
X23124944Y-17404746D01*
X23124944Y-17404746D02*
X23134467Y-17385698D01*
X23315420Y-17299984D02*
X23220182Y-17299984D01*
X23220182Y-17299984D02*
X23210658Y-17395222D01*
X23210658Y-17395222D02*
X23220182Y-17385698D01*
X23220182Y-17385698D02*
X23239229Y-17376174D01*
X23239229Y-17376174D02*
X23286848Y-17376174D01*
X23286848Y-17376174D02*
X23305896Y-17385698D01*
X23305896Y-17385698D02*
X23315420Y-17395222D01*
X23315420Y-17395222D02*
X23324944Y-17414270D01*
X23324944Y-17414270D02*
X23324944Y-17461889D01*
X23324944Y-17461889D02*
X23315420Y-17480936D01*
X23315420Y-17480936D02*
X23305896Y-17490460D01*
X23305896Y-17490460D02*
X23286848Y-17499984D01*
X23286848Y-17499984D02*
X23239229Y-17499984D01*
X23239229Y-17499984D02*
X23220182Y-17490460D01*
X23220182Y-17490460D02*
X23210658Y-17480936D01*
X23401134Y-17299984D02*
X23401134Y-17338079D01*
X23477325Y-17299984D02*
X23477325Y-17338079D01*
X23772563Y-17576174D02*
X23763039Y-17566650D01*
X23763039Y-17566650D02*
X23743991Y-17538079D01*
X23743991Y-17538079D02*
X23734468Y-17519031D01*
X23734468Y-17519031D02*
X23724944Y-17490460D01*
X23724944Y-17490460D02*
X23715420Y-17442841D01*
X23715420Y-17442841D02*
X23715420Y-17404746D01*
X23715420Y-17404746D02*
X23724944Y-17357127D01*
X23724944Y-17357127D02*
X23734468Y-17328555D01*
X23734468Y-17328555D02*
X23743991Y-17309508D01*
X23743991Y-17309508D02*
X23763039Y-17280936D01*
X23763039Y-17280936D02*
X23772563Y-17271412D01*
X23839229Y-17319031D02*
X23848753Y-17309508D01*
X23848753Y-17309508D02*
X23867801Y-17299984D01*
X23867801Y-17299984D02*
X23915420Y-17299984D01*
X23915420Y-17299984D02*
X23934468Y-17309508D01*
X23934468Y-17309508D02*
X23943991Y-17319031D01*
X23943991Y-17319031D02*
X23953515Y-17338079D01*
X23953515Y-17338079D02*
X23953515Y-17357127D01*
X23953515Y-17357127D02*
X23943991Y-17385698D01*
X23943991Y-17385698D02*
X23829706Y-17499984D01*
X23829706Y-17499984D02*
X23953515Y-17499984D01*
X24134468Y-17299984D02*
X24039229Y-17299984D01*
X24039229Y-17299984D02*
X24029706Y-17395222D01*
X24029706Y-17395222D02*
X24039229Y-17385698D01*
X24039229Y-17385698D02*
X24058277Y-17376174D01*
X24058277Y-17376174D02*
X24105896Y-17376174D01*
X24105896Y-17376174D02*
X24124944Y-17385698D01*
X24124944Y-17385698D02*
X24134468Y-17395222D01*
X24134468Y-17395222D02*
X24143991Y-17414270D01*
X24143991Y-17414270D02*
X24143991Y-17461889D01*
X24143991Y-17461889D02*
X24134468Y-17480936D01*
X24134468Y-17480936D02*
X24124944Y-17490460D01*
X24124944Y-17490460D02*
X24105896Y-17499984D01*
X24105896Y-17499984D02*
X24058277Y-17499984D01*
X24058277Y-17499984D02*
X24039229Y-17490460D01*
X24039229Y-17490460D02*
X24029706Y-17480936D01*
X24382087Y-17499984D02*
X24382087Y-17299984D01*
X24467801Y-17499984D02*
X24467801Y-17395222D01*
X24467801Y-17395222D02*
X24458277Y-17376174D01*
X24458277Y-17376174D02*
X24439230Y-17366650D01*
X24439230Y-17366650D02*
X24410658Y-17366650D01*
X24410658Y-17366650D02*
X24391610Y-17376174D01*
X24391610Y-17376174D02*
X24382087Y-17385698D01*
X24591610Y-17499984D02*
X24572563Y-17490460D01*
X24572563Y-17490460D02*
X24563039Y-17480936D01*
X24563039Y-17480936D02*
X24553515Y-17461889D01*
X24553515Y-17461889D02*
X24553515Y-17404746D01*
X24553515Y-17404746D02*
X24563039Y-17385698D01*
X24563039Y-17385698D02*
X24572563Y-17376174D01*
X24572563Y-17376174D02*
X24591610Y-17366650D01*
X24591610Y-17366650D02*
X24620182Y-17366650D01*
X24620182Y-17366650D02*
X24639230Y-17376174D01*
X24639230Y-17376174D02*
X24648753Y-17385698D01*
X24648753Y-17385698D02*
X24658277Y-17404746D01*
X24658277Y-17404746D02*
X24658277Y-17461889D01*
X24658277Y-17461889D02*
X24648753Y-17480936D01*
X24648753Y-17480936D02*
X24639230Y-17490460D01*
X24639230Y-17490460D02*
X24620182Y-17499984D01*
X24620182Y-17499984D02*
X24591610Y-17499984D01*
X24772563Y-17499984D02*
X24753515Y-17490460D01*
X24753515Y-17490460D02*
X24743991Y-17471412D01*
X24743991Y-17471412D02*
X24743991Y-17299984D01*
X24924944Y-17490460D02*
X24905896Y-17499984D01*
X24905896Y-17499984D02*
X24867801Y-17499984D01*
X24867801Y-17499984D02*
X24848753Y-17490460D01*
X24848753Y-17490460D02*
X24839230Y-17471412D01*
X24839230Y-17471412D02*
X24839230Y-17395222D01*
X24839230Y-17395222D02*
X24848753Y-17376174D01*
X24848753Y-17376174D02*
X24867801Y-17366650D01*
X24867801Y-17366650D02*
X24905896Y-17366650D01*
X24905896Y-17366650D02*
X24924944Y-17376174D01*
X24924944Y-17376174D02*
X24934468Y-17395222D01*
X24934468Y-17395222D02*
X24934468Y-17414270D01*
X24934468Y-17414270D02*
X24839230Y-17433317D01*
X25010658Y-17490460D02*
X25029706Y-17499984D01*
X25029706Y-17499984D02*
X25067801Y-17499984D01*
X25067801Y-17499984D02*
X25086849Y-17490460D01*
X25086849Y-17490460D02*
X25096372Y-17471412D01*
X25096372Y-17471412D02*
X25096372Y-17461889D01*
X25096372Y-17461889D02*
X25086849Y-17442841D01*
X25086849Y-17442841D02*
X25067801Y-17433317D01*
X25067801Y-17433317D02*
X25039230Y-17433317D01*
X25039230Y-17433317D02*
X25020182Y-17423793D01*
X25020182Y-17423793D02*
X25010658Y-17404746D01*
X25010658Y-17404746D02*
X25010658Y-17395222D01*
X25010658Y-17395222D02*
X25020182Y-17376174D01*
X25020182Y-17376174D02*
X25039230Y-17366650D01*
X25039230Y-17366650D02*
X25067801Y-17366650D01*
X25067801Y-17366650D02*
X25086849Y-17376174D01*
X25163039Y-17576174D02*
X25172563Y-17566650D01*
X25172563Y-17566650D02*
X25191611Y-17538079D01*
X25191611Y-17538079D02*
X25201134Y-17519031D01*
X25201134Y-17519031D02*
X25210658Y-17490460D01*
X25210658Y-17490460D02*
X25220182Y-17442841D01*
X25220182Y-17442841D02*
X25220182Y-17404746D01*
X25220182Y-17404746D02*
X25210658Y-17357127D01*
X25210658Y-17357127D02*
X25201134Y-17328555D01*
X25201134Y-17328555D02*
X25191611Y-17309508D01*
X25191611Y-17309508D02*
X25172563Y-17280936D01*
X25172563Y-17280936D02*
X25163039Y-17271412D01*
D12*
X20117500Y-17632500D02*
X20197500Y-17712500D01*
X20197500Y-17632500D02*
X20117500Y-17712500D01*
X20197500Y-17672500D02*
G75*
G02*
X20117500Y-17672500I-40000J0D01*
G01*
X20117500Y-17672500D02*
G75*
G02*
X20197500Y-17672500I40000J0D01*
G01*
D11*
X20496372Y-17563984D02*
X20515420Y-17563984D01*
X20515420Y-17563984D02*
X20534467Y-17573508D01*
X20534467Y-17573508D02*
X20543991Y-17583031D01*
X20543991Y-17583031D02*
X20553515Y-17602079D01*
X20553515Y-17602079D02*
X20563039Y-17640174D01*
X20563039Y-17640174D02*
X20563039Y-17687793D01*
X20563039Y-17687793D02*
X20553515Y-17725889D01*
X20553515Y-17725889D02*
X20543991Y-17744936D01*
X20543991Y-17744936D02*
X20534467Y-17754460D01*
X20534467Y-17754460D02*
X20515420Y-17763984D01*
X20515420Y-17763984D02*
X20496372Y-17763984D01*
X20496372Y-17763984D02*
X20477324Y-17754460D01*
X20477324Y-17754460D02*
X20467801Y-17744936D01*
X20467801Y-17744936D02*
X20458277Y-17725889D01*
X20458277Y-17725889D02*
X20448753Y-17687793D01*
X20448753Y-17687793D02*
X20448753Y-17640174D01*
X20448753Y-17640174D02*
X20458277Y-17602079D01*
X20458277Y-17602079D02*
X20467801Y-17583031D01*
X20467801Y-17583031D02*
X20477324Y-17573508D01*
X20477324Y-17573508D02*
X20496372Y-17563984D01*
X20648753Y-17744936D02*
X20658277Y-17754460D01*
X20658277Y-17754460D02*
X20648753Y-17763984D01*
X20648753Y-17763984D02*
X20639229Y-17754460D01*
X20639229Y-17754460D02*
X20648753Y-17744936D01*
X20648753Y-17744936D02*
X20648753Y-17763984D01*
X20772563Y-17649698D02*
X20753515Y-17640174D01*
X20753515Y-17640174D02*
X20743991Y-17630650D01*
X20743991Y-17630650D02*
X20734467Y-17611603D01*
X20734467Y-17611603D02*
X20734467Y-17602079D01*
X20734467Y-17602079D02*
X20743991Y-17583031D01*
X20743991Y-17583031D02*
X20753515Y-17573508D01*
X20753515Y-17573508D02*
X20772563Y-17563984D01*
X20772563Y-17563984D02*
X20810658Y-17563984D01*
X20810658Y-17563984D02*
X20829705Y-17573508D01*
X20829705Y-17573508D02*
X20839229Y-17583031D01*
X20839229Y-17583031D02*
X20848753Y-17602079D01*
X20848753Y-17602079D02*
X20848753Y-17611603D01*
X20848753Y-17611603D02*
X20839229Y-17630650D01*
X20839229Y-17630650D02*
X20829705Y-17640174D01*
X20829705Y-17640174D02*
X20810658Y-17649698D01*
X20810658Y-17649698D02*
X20772563Y-17649698D01*
X20772563Y-17649698D02*
X20753515Y-17659222D01*
X20753515Y-17659222D02*
X20743991Y-17668746D01*
X20743991Y-17668746D02*
X20734467Y-17687793D01*
X20734467Y-17687793D02*
X20734467Y-17725889D01*
X20734467Y-17725889D02*
X20743991Y-17744936D01*
X20743991Y-17744936D02*
X20753515Y-17754460D01*
X20753515Y-17754460D02*
X20772563Y-17763984D01*
X20772563Y-17763984D02*
X20810658Y-17763984D01*
X20810658Y-17763984D02*
X20829705Y-17754460D01*
X20829705Y-17754460D02*
X20839229Y-17744936D01*
X20839229Y-17744936D02*
X20848753Y-17725889D01*
X20848753Y-17725889D02*
X20848753Y-17687793D01*
X20848753Y-17687793D02*
X20839229Y-17668746D01*
X20839229Y-17668746D02*
X20829705Y-17659222D01*
X20829705Y-17659222D02*
X20810658Y-17649698D01*
X20972563Y-17563984D02*
X20991610Y-17563984D01*
X20991610Y-17563984D02*
X21010658Y-17573508D01*
X21010658Y-17573508D02*
X21020182Y-17583031D01*
X21020182Y-17583031D02*
X21029705Y-17602079D01*
X21029705Y-17602079D02*
X21039229Y-17640174D01*
X21039229Y-17640174D02*
X21039229Y-17687793D01*
X21039229Y-17687793D02*
X21029705Y-17725889D01*
X21029705Y-17725889D02*
X21020182Y-17744936D01*
X21020182Y-17744936D02*
X21010658Y-17754460D01*
X21010658Y-17754460D02*
X20991610Y-17763984D01*
X20991610Y-17763984D02*
X20972563Y-17763984D01*
X20972563Y-17763984D02*
X20953515Y-17754460D01*
X20953515Y-17754460D02*
X20943991Y-17744936D01*
X20943991Y-17744936D02*
X20934467Y-17725889D01*
X20934467Y-17725889D02*
X20924944Y-17687793D01*
X20924944Y-17687793D02*
X20924944Y-17640174D01*
X20924944Y-17640174D02*
X20934467Y-17602079D01*
X20934467Y-17602079D02*
X20943991Y-17583031D01*
X20943991Y-17583031D02*
X20953515Y-17573508D01*
X20953515Y-17573508D02*
X20972563Y-17563984D01*
X21163039Y-17563984D02*
X21182086Y-17563984D01*
X21182086Y-17563984D02*
X21201134Y-17573508D01*
X21201134Y-17573508D02*
X21210658Y-17583031D01*
X21210658Y-17583031D02*
X21220182Y-17602079D01*
X21220182Y-17602079D02*
X21229705Y-17640174D01*
X21229705Y-17640174D02*
X21229705Y-17687793D01*
X21229705Y-17687793D02*
X21220182Y-17725889D01*
X21220182Y-17725889D02*
X21210658Y-17744936D01*
X21210658Y-17744936D02*
X21201134Y-17754460D01*
X21201134Y-17754460D02*
X21182086Y-17763984D01*
X21182086Y-17763984D02*
X21163039Y-17763984D01*
X21163039Y-17763984D02*
X21143991Y-17754460D01*
X21143991Y-17754460D02*
X21134467Y-17744936D01*
X21134467Y-17744936D02*
X21124944Y-17725889D01*
X21124944Y-17725889D02*
X21115420Y-17687793D01*
X21115420Y-17687793D02*
X21115420Y-17640174D01*
X21115420Y-17640174D02*
X21124944Y-17602079D01*
X21124944Y-17602079D02*
X21134467Y-17583031D01*
X21134467Y-17583031D02*
X21143991Y-17573508D01*
X21143991Y-17573508D02*
X21163039Y-17563984D01*
X21315420Y-17763984D02*
X21315420Y-17630650D01*
X21315420Y-17649698D02*
X21324944Y-17640174D01*
X21324944Y-17640174D02*
X21343991Y-17630650D01*
X21343991Y-17630650D02*
X21372563Y-17630650D01*
X21372563Y-17630650D02*
X21391610Y-17640174D01*
X21391610Y-17640174D02*
X21401134Y-17659222D01*
X21401134Y-17659222D02*
X21401134Y-17763984D01*
X21401134Y-17659222D02*
X21410658Y-17640174D01*
X21410658Y-17640174D02*
X21429705Y-17630650D01*
X21429705Y-17630650D02*
X21458277Y-17630650D01*
X21458277Y-17630650D02*
X21477325Y-17640174D01*
X21477325Y-17640174D02*
X21486848Y-17659222D01*
X21486848Y-17659222D02*
X21486848Y-17763984D01*
X21582086Y-17763984D02*
X21582086Y-17630650D01*
X21582086Y-17649698D02*
X21591610Y-17640174D01*
X21591610Y-17640174D02*
X21610658Y-17630650D01*
X21610658Y-17630650D02*
X21639229Y-17630650D01*
X21639229Y-17630650D02*
X21658277Y-17640174D01*
X21658277Y-17640174D02*
X21667801Y-17659222D01*
X21667801Y-17659222D02*
X21667801Y-17763984D01*
X21667801Y-17659222D02*
X21677325Y-17640174D01*
X21677325Y-17640174D02*
X21696372Y-17630650D01*
X21696372Y-17630650D02*
X21724944Y-17630650D01*
X21724944Y-17630650D02*
X21743991Y-17640174D01*
X21743991Y-17640174D02*
X21753515Y-17659222D01*
X21753515Y-17659222D02*
X21753515Y-17763984D01*
X22143991Y-17554460D02*
X21972563Y-17811603D01*
X22401134Y-17563984D02*
X22420182Y-17563984D01*
X22420182Y-17563984D02*
X22439229Y-17573508D01*
X22439229Y-17573508D02*
X22448753Y-17583031D01*
X22448753Y-17583031D02*
X22458277Y-17602079D01*
X22458277Y-17602079D02*
X22467801Y-17640174D01*
X22467801Y-17640174D02*
X22467801Y-17687793D01*
X22467801Y-17687793D02*
X22458277Y-17725889D01*
X22458277Y-17725889D02*
X22448753Y-17744936D01*
X22448753Y-17744936D02*
X22439229Y-17754460D01*
X22439229Y-17754460D02*
X22420182Y-17763984D01*
X22420182Y-17763984D02*
X22401134Y-17763984D01*
X22401134Y-17763984D02*
X22382086Y-17754460D01*
X22382086Y-17754460D02*
X22372563Y-17744936D01*
X22372563Y-17744936D02*
X22363039Y-17725889D01*
X22363039Y-17725889D02*
X22353515Y-17687793D01*
X22353515Y-17687793D02*
X22353515Y-17640174D01*
X22353515Y-17640174D02*
X22363039Y-17602079D01*
X22363039Y-17602079D02*
X22372563Y-17583031D01*
X22372563Y-17583031D02*
X22382086Y-17573508D01*
X22382086Y-17573508D02*
X22401134Y-17563984D01*
X22553515Y-17744936D02*
X22563039Y-17754460D01*
X22563039Y-17754460D02*
X22553515Y-17763984D01*
X22553515Y-17763984D02*
X22543991Y-17754460D01*
X22543991Y-17754460D02*
X22553515Y-17744936D01*
X22553515Y-17744936D02*
X22553515Y-17763984D01*
X22686848Y-17563984D02*
X22705896Y-17563984D01*
X22705896Y-17563984D02*
X22724944Y-17573508D01*
X22724944Y-17573508D02*
X22734467Y-17583031D01*
X22734467Y-17583031D02*
X22743991Y-17602079D01*
X22743991Y-17602079D02*
X22753515Y-17640174D01*
X22753515Y-17640174D02*
X22753515Y-17687793D01*
X22753515Y-17687793D02*
X22743991Y-17725889D01*
X22743991Y-17725889D02*
X22734467Y-17744936D01*
X22734467Y-17744936D02*
X22724944Y-17754460D01*
X22724944Y-17754460D02*
X22705896Y-17763984D01*
X22705896Y-17763984D02*
X22686848Y-17763984D01*
X22686848Y-17763984D02*
X22667801Y-17754460D01*
X22667801Y-17754460D02*
X22658277Y-17744936D01*
X22658277Y-17744936D02*
X22648753Y-17725889D01*
X22648753Y-17725889D02*
X22639229Y-17687793D01*
X22639229Y-17687793D02*
X22639229Y-17640174D01*
X22639229Y-17640174D02*
X22648753Y-17602079D01*
X22648753Y-17602079D02*
X22658277Y-17583031D01*
X22658277Y-17583031D02*
X22667801Y-17573508D01*
X22667801Y-17573508D02*
X22686848Y-17563984D01*
X22820182Y-17563984D02*
X22943991Y-17563984D01*
X22943991Y-17563984D02*
X22877325Y-17640174D01*
X22877325Y-17640174D02*
X22905896Y-17640174D01*
X22905896Y-17640174D02*
X22924944Y-17649698D01*
X22924944Y-17649698D02*
X22934467Y-17659222D01*
X22934467Y-17659222D02*
X22943991Y-17678270D01*
X22943991Y-17678270D02*
X22943991Y-17725889D01*
X22943991Y-17725889D02*
X22934467Y-17744936D01*
X22934467Y-17744936D02*
X22924944Y-17754460D01*
X22924944Y-17754460D02*
X22905896Y-17763984D01*
X22905896Y-17763984D02*
X22848753Y-17763984D01*
X22848753Y-17763984D02*
X22829706Y-17754460D01*
X22829706Y-17754460D02*
X22820182Y-17744936D01*
X23134467Y-17763984D02*
X23020182Y-17763984D01*
X23077325Y-17763984D02*
X23077325Y-17563984D01*
X23077325Y-17563984D02*
X23058277Y-17592555D01*
X23058277Y-17592555D02*
X23039229Y-17611603D01*
X23039229Y-17611603D02*
X23020182Y-17621127D01*
X23315420Y-17563984D02*
X23220182Y-17563984D01*
X23220182Y-17563984D02*
X23210658Y-17659222D01*
X23210658Y-17659222D02*
X23220182Y-17649698D01*
X23220182Y-17649698D02*
X23239229Y-17640174D01*
X23239229Y-17640174D02*
X23286848Y-17640174D01*
X23286848Y-17640174D02*
X23305896Y-17649698D01*
X23305896Y-17649698D02*
X23315420Y-17659222D01*
X23315420Y-17659222D02*
X23324944Y-17678270D01*
X23324944Y-17678270D02*
X23324944Y-17725889D01*
X23324944Y-17725889D02*
X23315420Y-17744936D01*
X23315420Y-17744936D02*
X23305896Y-17754460D01*
X23305896Y-17754460D02*
X23286848Y-17763984D01*
X23286848Y-17763984D02*
X23239229Y-17763984D01*
X23239229Y-17763984D02*
X23220182Y-17754460D01*
X23220182Y-17754460D02*
X23210658Y-17744936D01*
X23401134Y-17563984D02*
X23401134Y-17602079D01*
X23477325Y-17563984D02*
X23477325Y-17602079D01*
X23772563Y-17840174D02*
X23763039Y-17830650D01*
X23763039Y-17830650D02*
X23743991Y-17802079D01*
X23743991Y-17802079D02*
X23734468Y-17783031D01*
X23734468Y-17783031D02*
X23724944Y-17754460D01*
X23724944Y-17754460D02*
X23715420Y-17706841D01*
X23715420Y-17706841D02*
X23715420Y-17668746D01*
X23715420Y-17668746D02*
X23724944Y-17621127D01*
X23724944Y-17621127D02*
X23734468Y-17592555D01*
X23734468Y-17592555D02*
X23743991Y-17573508D01*
X23743991Y-17573508D02*
X23763039Y-17544936D01*
X23763039Y-17544936D02*
X23772563Y-17535412D01*
X23953515Y-17763984D02*
X23839229Y-17763984D01*
X23896372Y-17763984D02*
X23896372Y-17563984D01*
X23896372Y-17563984D02*
X23877325Y-17592555D01*
X23877325Y-17592555D02*
X23858277Y-17611603D01*
X23858277Y-17611603D02*
X23839229Y-17621127D01*
X24077325Y-17563984D02*
X24096372Y-17563984D01*
X24096372Y-17563984D02*
X24115420Y-17573508D01*
X24115420Y-17573508D02*
X24124944Y-17583031D01*
X24124944Y-17583031D02*
X24134468Y-17602079D01*
X24134468Y-17602079D02*
X24143991Y-17640174D01*
X24143991Y-17640174D02*
X24143991Y-17687793D01*
X24143991Y-17687793D02*
X24134468Y-17725889D01*
X24134468Y-17725889D02*
X24124944Y-17744936D01*
X24124944Y-17744936D02*
X24115420Y-17754460D01*
X24115420Y-17754460D02*
X24096372Y-17763984D01*
X24096372Y-17763984D02*
X24077325Y-17763984D01*
X24077325Y-17763984D02*
X24058277Y-17754460D01*
X24058277Y-17754460D02*
X24048753Y-17744936D01*
X24048753Y-17744936D02*
X24039229Y-17725889D01*
X24039229Y-17725889D02*
X24029706Y-17687793D01*
X24029706Y-17687793D02*
X24029706Y-17640174D01*
X24029706Y-17640174D02*
X24039229Y-17602079D01*
X24039229Y-17602079D02*
X24048753Y-17583031D01*
X24048753Y-17583031D02*
X24058277Y-17573508D01*
X24058277Y-17573508D02*
X24077325Y-17563984D01*
X24382087Y-17763984D02*
X24382087Y-17563984D01*
X24467801Y-17763984D02*
X24467801Y-17659222D01*
X24467801Y-17659222D02*
X24458277Y-17640174D01*
X24458277Y-17640174D02*
X24439230Y-17630650D01*
X24439230Y-17630650D02*
X24410658Y-17630650D01*
X24410658Y-17630650D02*
X24391610Y-17640174D01*
X24391610Y-17640174D02*
X24382087Y-17649698D01*
X24591610Y-17763984D02*
X24572563Y-17754460D01*
X24572563Y-17754460D02*
X24563039Y-17744936D01*
X24563039Y-17744936D02*
X24553515Y-17725889D01*
X24553515Y-17725889D02*
X24553515Y-17668746D01*
X24553515Y-17668746D02*
X24563039Y-17649698D01*
X24563039Y-17649698D02*
X24572563Y-17640174D01*
X24572563Y-17640174D02*
X24591610Y-17630650D01*
X24591610Y-17630650D02*
X24620182Y-17630650D01*
X24620182Y-17630650D02*
X24639230Y-17640174D01*
X24639230Y-17640174D02*
X24648753Y-17649698D01*
X24648753Y-17649698D02*
X24658277Y-17668746D01*
X24658277Y-17668746D02*
X24658277Y-17725889D01*
X24658277Y-17725889D02*
X24648753Y-17744936D01*
X24648753Y-17744936D02*
X24639230Y-17754460D01*
X24639230Y-17754460D02*
X24620182Y-17763984D01*
X24620182Y-17763984D02*
X24591610Y-17763984D01*
X24772563Y-17763984D02*
X24753515Y-17754460D01*
X24753515Y-17754460D02*
X24743991Y-17735412D01*
X24743991Y-17735412D02*
X24743991Y-17563984D01*
X24924944Y-17754460D02*
X24905896Y-17763984D01*
X24905896Y-17763984D02*
X24867801Y-17763984D01*
X24867801Y-17763984D02*
X24848753Y-17754460D01*
X24848753Y-17754460D02*
X24839230Y-17735412D01*
X24839230Y-17735412D02*
X24839230Y-17659222D01*
X24839230Y-17659222D02*
X24848753Y-17640174D01*
X24848753Y-17640174D02*
X24867801Y-17630650D01*
X24867801Y-17630650D02*
X24905896Y-17630650D01*
X24905896Y-17630650D02*
X24924944Y-17640174D01*
X24924944Y-17640174D02*
X24934468Y-17659222D01*
X24934468Y-17659222D02*
X24934468Y-17678270D01*
X24934468Y-17678270D02*
X24839230Y-17697317D01*
X25010658Y-17754460D02*
X25029706Y-17763984D01*
X25029706Y-17763984D02*
X25067801Y-17763984D01*
X25067801Y-17763984D02*
X25086849Y-17754460D01*
X25086849Y-17754460D02*
X25096372Y-17735412D01*
X25096372Y-17735412D02*
X25096372Y-17725889D01*
X25096372Y-17725889D02*
X25086849Y-17706841D01*
X25086849Y-17706841D02*
X25067801Y-17697317D01*
X25067801Y-17697317D02*
X25039230Y-17697317D01*
X25039230Y-17697317D02*
X25020182Y-17687793D01*
X25020182Y-17687793D02*
X25010658Y-17668746D01*
X25010658Y-17668746D02*
X25010658Y-17659222D01*
X25010658Y-17659222D02*
X25020182Y-17640174D01*
X25020182Y-17640174D02*
X25039230Y-17630650D01*
X25039230Y-17630650D02*
X25067801Y-17630650D01*
X25067801Y-17630650D02*
X25086849Y-17640174D01*
X25163039Y-17840174D02*
X25172563Y-17830650D01*
X25172563Y-17830650D02*
X25191611Y-17802079D01*
X25191611Y-17802079D02*
X25201134Y-17783031D01*
X25201134Y-17783031D02*
X25210658Y-17754460D01*
X25210658Y-17754460D02*
X25220182Y-17706841D01*
X25220182Y-17706841D02*
X25220182Y-17668746D01*
X25220182Y-17668746D02*
X25210658Y-17621127D01*
X25210658Y-17621127D02*
X25201134Y-17592555D01*
X25201134Y-17592555D02*
X25191611Y-17573508D01*
X25191611Y-17573508D02*
X25172563Y-17544936D01*
X25172563Y-17544936D02*
X25163039Y-17535412D01*
D12*
X20097500Y-17886500D02*
X20197500Y-17986500D01*
X20197500Y-17886500D02*
X20097500Y-17986500D01*
X20147500Y-17886500D02*
X20147500Y-17986500D01*
X20097500Y-17936500D02*
X20197500Y-17936500D01*
D11*
X20563039Y-18027984D02*
X20448753Y-18027984D01*
X20505896Y-18027984D02*
X20505896Y-17827984D01*
X20505896Y-17827984D02*
X20486848Y-17856555D01*
X20486848Y-17856555D02*
X20467801Y-17875603D01*
X20467801Y-17875603D02*
X20448753Y-17885127D01*
X20648753Y-18008936D02*
X20658277Y-18018460D01*
X20658277Y-18018460D02*
X20648753Y-18027984D01*
X20648753Y-18027984D02*
X20639229Y-18018460D01*
X20639229Y-18018460D02*
X20648753Y-18008936D01*
X20648753Y-18008936D02*
X20648753Y-18027984D01*
X20782086Y-17827984D02*
X20801134Y-17827984D01*
X20801134Y-17827984D02*
X20820182Y-17837508D01*
X20820182Y-17837508D02*
X20829705Y-17847031D01*
X20829705Y-17847031D02*
X20839229Y-17866079D01*
X20839229Y-17866079D02*
X20848753Y-17904174D01*
X20848753Y-17904174D02*
X20848753Y-17951793D01*
X20848753Y-17951793D02*
X20839229Y-17989889D01*
X20839229Y-17989889D02*
X20829705Y-18008936D01*
X20829705Y-18008936D02*
X20820182Y-18018460D01*
X20820182Y-18018460D02*
X20801134Y-18027984D01*
X20801134Y-18027984D02*
X20782086Y-18027984D01*
X20782086Y-18027984D02*
X20763039Y-18018460D01*
X20763039Y-18018460D02*
X20753515Y-18008936D01*
X20753515Y-18008936D02*
X20743991Y-17989889D01*
X20743991Y-17989889D02*
X20734467Y-17951793D01*
X20734467Y-17951793D02*
X20734467Y-17904174D01*
X20734467Y-17904174D02*
X20743991Y-17866079D01*
X20743991Y-17866079D02*
X20753515Y-17847031D01*
X20753515Y-17847031D02*
X20763039Y-17837508D01*
X20763039Y-17837508D02*
X20782086Y-17827984D01*
X20972563Y-17827984D02*
X20991610Y-17827984D01*
X20991610Y-17827984D02*
X21010658Y-17837508D01*
X21010658Y-17837508D02*
X21020182Y-17847031D01*
X21020182Y-17847031D02*
X21029705Y-17866079D01*
X21029705Y-17866079D02*
X21039229Y-17904174D01*
X21039229Y-17904174D02*
X21039229Y-17951793D01*
X21039229Y-17951793D02*
X21029705Y-17989889D01*
X21029705Y-17989889D02*
X21020182Y-18008936D01*
X21020182Y-18008936D02*
X21010658Y-18018460D01*
X21010658Y-18018460D02*
X20991610Y-18027984D01*
X20991610Y-18027984D02*
X20972563Y-18027984D01*
X20972563Y-18027984D02*
X20953515Y-18018460D01*
X20953515Y-18018460D02*
X20943991Y-18008936D01*
X20943991Y-18008936D02*
X20934467Y-17989889D01*
X20934467Y-17989889D02*
X20924944Y-17951793D01*
X20924944Y-17951793D02*
X20924944Y-17904174D01*
X20924944Y-17904174D02*
X20934467Y-17866079D01*
X20934467Y-17866079D02*
X20943991Y-17847031D01*
X20943991Y-17847031D02*
X20953515Y-17837508D01*
X20953515Y-17837508D02*
X20972563Y-17827984D01*
X21163039Y-17827984D02*
X21182086Y-17827984D01*
X21182086Y-17827984D02*
X21201134Y-17837508D01*
X21201134Y-17837508D02*
X21210658Y-17847031D01*
X21210658Y-17847031D02*
X21220182Y-17866079D01*
X21220182Y-17866079D02*
X21229705Y-17904174D01*
X21229705Y-17904174D02*
X21229705Y-17951793D01*
X21229705Y-17951793D02*
X21220182Y-17989889D01*
X21220182Y-17989889D02*
X21210658Y-18008936D01*
X21210658Y-18008936D02*
X21201134Y-18018460D01*
X21201134Y-18018460D02*
X21182086Y-18027984D01*
X21182086Y-18027984D02*
X21163039Y-18027984D01*
X21163039Y-18027984D02*
X21143991Y-18018460D01*
X21143991Y-18018460D02*
X21134467Y-18008936D01*
X21134467Y-18008936D02*
X21124944Y-17989889D01*
X21124944Y-17989889D02*
X21115420Y-17951793D01*
X21115420Y-17951793D02*
X21115420Y-17904174D01*
X21115420Y-17904174D02*
X21124944Y-17866079D01*
X21124944Y-17866079D02*
X21134467Y-17847031D01*
X21134467Y-17847031D02*
X21143991Y-17837508D01*
X21143991Y-17837508D02*
X21163039Y-17827984D01*
X21315420Y-18027984D02*
X21315420Y-17894650D01*
X21315420Y-17913698D02*
X21324944Y-17904174D01*
X21324944Y-17904174D02*
X21343991Y-17894650D01*
X21343991Y-17894650D02*
X21372563Y-17894650D01*
X21372563Y-17894650D02*
X21391610Y-17904174D01*
X21391610Y-17904174D02*
X21401134Y-17923222D01*
X21401134Y-17923222D02*
X21401134Y-18027984D01*
X21401134Y-17923222D02*
X21410658Y-17904174D01*
X21410658Y-17904174D02*
X21429705Y-17894650D01*
X21429705Y-17894650D02*
X21458277Y-17894650D01*
X21458277Y-17894650D02*
X21477325Y-17904174D01*
X21477325Y-17904174D02*
X21486848Y-17923222D01*
X21486848Y-17923222D02*
X21486848Y-18027984D01*
X21582086Y-18027984D02*
X21582086Y-17894650D01*
X21582086Y-17913698D02*
X21591610Y-17904174D01*
X21591610Y-17904174D02*
X21610658Y-17894650D01*
X21610658Y-17894650D02*
X21639229Y-17894650D01*
X21639229Y-17894650D02*
X21658277Y-17904174D01*
X21658277Y-17904174D02*
X21667801Y-17923222D01*
X21667801Y-17923222D02*
X21667801Y-18027984D01*
X21667801Y-17923222D02*
X21677325Y-17904174D01*
X21677325Y-17904174D02*
X21696372Y-17894650D01*
X21696372Y-17894650D02*
X21724944Y-17894650D01*
X21724944Y-17894650D02*
X21743991Y-17904174D01*
X21743991Y-17904174D02*
X21753515Y-17923222D01*
X21753515Y-17923222D02*
X21753515Y-18027984D01*
X22143991Y-17818460D02*
X21972563Y-18075603D01*
X22401134Y-17827984D02*
X22420182Y-17827984D01*
X22420182Y-17827984D02*
X22439229Y-17837508D01*
X22439229Y-17837508D02*
X22448753Y-17847031D01*
X22448753Y-17847031D02*
X22458277Y-17866079D01*
X22458277Y-17866079D02*
X22467801Y-17904174D01*
X22467801Y-17904174D02*
X22467801Y-17951793D01*
X22467801Y-17951793D02*
X22458277Y-17989889D01*
X22458277Y-17989889D02*
X22448753Y-18008936D01*
X22448753Y-18008936D02*
X22439229Y-18018460D01*
X22439229Y-18018460D02*
X22420182Y-18027984D01*
X22420182Y-18027984D02*
X22401134Y-18027984D01*
X22401134Y-18027984D02*
X22382086Y-18018460D01*
X22382086Y-18018460D02*
X22372563Y-18008936D01*
X22372563Y-18008936D02*
X22363039Y-17989889D01*
X22363039Y-17989889D02*
X22353515Y-17951793D01*
X22353515Y-17951793D02*
X22353515Y-17904174D01*
X22353515Y-17904174D02*
X22363039Y-17866079D01*
X22363039Y-17866079D02*
X22372563Y-17847031D01*
X22372563Y-17847031D02*
X22382086Y-17837508D01*
X22382086Y-17837508D02*
X22401134Y-17827984D01*
X22553515Y-18008936D02*
X22563039Y-18018460D01*
X22563039Y-18018460D02*
X22553515Y-18027984D01*
X22553515Y-18027984D02*
X22543991Y-18018460D01*
X22543991Y-18018460D02*
X22553515Y-18008936D01*
X22553515Y-18008936D02*
X22553515Y-18027984D01*
X22686848Y-17827984D02*
X22705896Y-17827984D01*
X22705896Y-17827984D02*
X22724944Y-17837508D01*
X22724944Y-17837508D02*
X22734467Y-17847031D01*
X22734467Y-17847031D02*
X22743991Y-17866079D01*
X22743991Y-17866079D02*
X22753515Y-17904174D01*
X22753515Y-17904174D02*
X22753515Y-17951793D01*
X22753515Y-17951793D02*
X22743991Y-17989889D01*
X22743991Y-17989889D02*
X22734467Y-18008936D01*
X22734467Y-18008936D02*
X22724944Y-18018460D01*
X22724944Y-18018460D02*
X22705896Y-18027984D01*
X22705896Y-18027984D02*
X22686848Y-18027984D01*
X22686848Y-18027984D02*
X22667801Y-18018460D01*
X22667801Y-18018460D02*
X22658277Y-18008936D01*
X22658277Y-18008936D02*
X22648753Y-17989889D01*
X22648753Y-17989889D02*
X22639229Y-17951793D01*
X22639229Y-17951793D02*
X22639229Y-17904174D01*
X22639229Y-17904174D02*
X22648753Y-17866079D01*
X22648753Y-17866079D02*
X22658277Y-17847031D01*
X22658277Y-17847031D02*
X22667801Y-17837508D01*
X22667801Y-17837508D02*
X22686848Y-17827984D01*
X22820182Y-17827984D02*
X22943991Y-17827984D01*
X22943991Y-17827984D02*
X22877325Y-17904174D01*
X22877325Y-17904174D02*
X22905896Y-17904174D01*
X22905896Y-17904174D02*
X22924944Y-17913698D01*
X22924944Y-17913698D02*
X22934467Y-17923222D01*
X22934467Y-17923222D02*
X22943991Y-17942270D01*
X22943991Y-17942270D02*
X22943991Y-17989889D01*
X22943991Y-17989889D02*
X22934467Y-18008936D01*
X22934467Y-18008936D02*
X22924944Y-18018460D01*
X22924944Y-18018460D02*
X22905896Y-18027984D01*
X22905896Y-18027984D02*
X22848753Y-18027984D01*
X22848753Y-18027984D02*
X22829706Y-18018460D01*
X22829706Y-18018460D02*
X22820182Y-18008936D01*
X23039229Y-18027984D02*
X23077325Y-18027984D01*
X23077325Y-18027984D02*
X23096372Y-18018460D01*
X23096372Y-18018460D02*
X23105896Y-18008936D01*
X23105896Y-18008936D02*
X23124944Y-17980365D01*
X23124944Y-17980365D02*
X23134467Y-17942270D01*
X23134467Y-17942270D02*
X23134467Y-17866079D01*
X23134467Y-17866079D02*
X23124944Y-17847031D01*
X23124944Y-17847031D02*
X23115420Y-17837508D01*
X23115420Y-17837508D02*
X23096372Y-17827984D01*
X23096372Y-17827984D02*
X23058277Y-17827984D01*
X23058277Y-17827984D02*
X23039229Y-17837508D01*
X23039229Y-17837508D02*
X23029706Y-17847031D01*
X23029706Y-17847031D02*
X23020182Y-17866079D01*
X23020182Y-17866079D02*
X23020182Y-17913698D01*
X23020182Y-17913698D02*
X23029706Y-17932746D01*
X23029706Y-17932746D02*
X23039229Y-17942270D01*
X23039229Y-17942270D02*
X23058277Y-17951793D01*
X23058277Y-17951793D02*
X23096372Y-17951793D01*
X23096372Y-17951793D02*
X23115420Y-17942270D01*
X23115420Y-17942270D02*
X23124944Y-17932746D01*
X23124944Y-17932746D02*
X23134467Y-17913698D01*
X23305896Y-17894650D02*
X23305896Y-18027984D01*
X23258277Y-17818460D02*
X23210658Y-17961317D01*
X23210658Y-17961317D02*
X23334467Y-17961317D01*
X23401134Y-17827984D02*
X23401134Y-17866079D01*
X23477325Y-17827984D02*
X23477325Y-17866079D01*
X23772563Y-18104174D02*
X23763039Y-18094650D01*
X23763039Y-18094650D02*
X23743991Y-18066079D01*
X23743991Y-18066079D02*
X23734468Y-18047031D01*
X23734468Y-18047031D02*
X23724944Y-18018460D01*
X23724944Y-18018460D02*
X23715420Y-17970841D01*
X23715420Y-17970841D02*
X23715420Y-17932746D01*
X23715420Y-17932746D02*
X23724944Y-17885127D01*
X23724944Y-17885127D02*
X23734468Y-17856555D01*
X23734468Y-17856555D02*
X23743991Y-17837508D01*
X23743991Y-17837508D02*
X23763039Y-17808936D01*
X23763039Y-17808936D02*
X23772563Y-17799412D01*
X23829706Y-17827984D02*
X23953515Y-17827984D01*
X23953515Y-17827984D02*
X23886848Y-17904174D01*
X23886848Y-17904174D02*
X23915420Y-17904174D01*
X23915420Y-17904174D02*
X23934468Y-17913698D01*
X23934468Y-17913698D02*
X23943991Y-17923222D01*
X23943991Y-17923222D02*
X23953515Y-17942270D01*
X23953515Y-17942270D02*
X23953515Y-17989889D01*
X23953515Y-17989889D02*
X23943991Y-18008936D01*
X23943991Y-18008936D02*
X23934468Y-18018460D01*
X23934468Y-18018460D02*
X23915420Y-18027984D01*
X23915420Y-18027984D02*
X23858277Y-18027984D01*
X23858277Y-18027984D02*
X23839229Y-18018460D01*
X23839229Y-18018460D02*
X23829706Y-18008936D01*
X24143991Y-18027984D02*
X24029706Y-18027984D01*
X24086848Y-18027984D02*
X24086848Y-17827984D01*
X24086848Y-17827984D02*
X24067801Y-17856555D01*
X24067801Y-17856555D02*
X24048753Y-17875603D01*
X24048753Y-17875603D02*
X24029706Y-17885127D01*
X24382087Y-18027984D02*
X24382087Y-17827984D01*
X24467801Y-18027984D02*
X24467801Y-17923222D01*
X24467801Y-17923222D02*
X24458277Y-17904174D01*
X24458277Y-17904174D02*
X24439230Y-17894650D01*
X24439230Y-17894650D02*
X24410658Y-17894650D01*
X24410658Y-17894650D02*
X24391610Y-17904174D01*
X24391610Y-17904174D02*
X24382087Y-17913698D01*
X24591610Y-18027984D02*
X24572563Y-18018460D01*
X24572563Y-18018460D02*
X24563039Y-18008936D01*
X24563039Y-18008936D02*
X24553515Y-17989889D01*
X24553515Y-17989889D02*
X24553515Y-17932746D01*
X24553515Y-17932746D02*
X24563039Y-17913698D01*
X24563039Y-17913698D02*
X24572563Y-17904174D01*
X24572563Y-17904174D02*
X24591610Y-17894650D01*
X24591610Y-17894650D02*
X24620182Y-17894650D01*
X24620182Y-17894650D02*
X24639230Y-17904174D01*
X24639230Y-17904174D02*
X24648753Y-17913698D01*
X24648753Y-17913698D02*
X24658277Y-17932746D01*
X24658277Y-17932746D02*
X24658277Y-17989889D01*
X24658277Y-17989889D02*
X24648753Y-18008936D01*
X24648753Y-18008936D02*
X24639230Y-18018460D01*
X24639230Y-18018460D02*
X24620182Y-18027984D01*
X24620182Y-18027984D02*
X24591610Y-18027984D01*
X24772563Y-18027984D02*
X24753515Y-18018460D01*
X24753515Y-18018460D02*
X24743991Y-17999412D01*
X24743991Y-17999412D02*
X24743991Y-17827984D01*
X24924944Y-18018460D02*
X24905896Y-18027984D01*
X24905896Y-18027984D02*
X24867801Y-18027984D01*
X24867801Y-18027984D02*
X24848753Y-18018460D01*
X24848753Y-18018460D02*
X24839230Y-17999412D01*
X24839230Y-17999412D02*
X24839230Y-17923222D01*
X24839230Y-17923222D02*
X24848753Y-17904174D01*
X24848753Y-17904174D02*
X24867801Y-17894650D01*
X24867801Y-17894650D02*
X24905896Y-17894650D01*
X24905896Y-17894650D02*
X24924944Y-17904174D01*
X24924944Y-17904174D02*
X24934468Y-17923222D01*
X24934468Y-17923222D02*
X24934468Y-17942270D01*
X24934468Y-17942270D02*
X24839230Y-17961317D01*
X25010658Y-18018460D02*
X25029706Y-18027984D01*
X25029706Y-18027984D02*
X25067801Y-18027984D01*
X25067801Y-18027984D02*
X25086849Y-18018460D01*
X25086849Y-18018460D02*
X25096372Y-17999412D01*
X25096372Y-17999412D02*
X25096372Y-17989889D01*
X25096372Y-17989889D02*
X25086849Y-17970841D01*
X25086849Y-17970841D02*
X25067801Y-17961317D01*
X25067801Y-17961317D02*
X25039230Y-17961317D01*
X25039230Y-17961317D02*
X25020182Y-17951793D01*
X25020182Y-17951793D02*
X25010658Y-17932746D01*
X25010658Y-17932746D02*
X25010658Y-17923222D01*
X25010658Y-17923222D02*
X25020182Y-17904174D01*
X25020182Y-17904174D02*
X25039230Y-17894650D01*
X25039230Y-17894650D02*
X25067801Y-17894650D01*
X25067801Y-17894650D02*
X25086849Y-17904174D01*
X25163039Y-18104174D02*
X25172563Y-18094650D01*
X25172563Y-18094650D02*
X25191611Y-18066079D01*
X25191611Y-18066079D02*
X25201134Y-18047031D01*
X25201134Y-18047031D02*
X25210658Y-18018460D01*
X25210658Y-18018460D02*
X25220182Y-17970841D01*
X25220182Y-17970841D02*
X25220182Y-17932746D01*
X25220182Y-17932746D02*
X25210658Y-17885127D01*
X25210658Y-17885127D02*
X25201134Y-17856555D01*
X25201134Y-17856555D02*
X25191611Y-17837508D01*
X25191611Y-17837508D02*
X25172563Y-17808936D01*
X25172563Y-17808936D02*
X25163039Y-17799412D01*
M02*
